<svg width="20" height="25" viewBox="0 0 20 25" fill="none" xmlns="http://www.w3.org/2000/svg">
<path fill-rule="evenodd" clip-rule="evenodd" d="M9.94848 15.7317L10.0989 15.7317L10.4323 15.7326C13.2638 15.7477 19.897 16.0051 19.897 20.3807C19.897 24.4375 14.4492 24.9796 10.2117 25L9.46467 24.9997C6.63314 24.9846 0 24.7273 0 20.3529C0 16.2103 5.67709 15.7317 9.94848 15.7317ZM9.94848 17.6261C4.60482 17.6261 1.89447 18.5443 1.89447 20.3529C1.89447 22.1792 4.60482 23.1062 9.94848 23.1062C15.2921 23.1062 18.0025 22.188 18.0025 20.3807C18.0025 18.5519 15.2921 17.6261 9.94848 17.6261ZM9.94848 0C13.6528 0 16.665 3.01347 16.665 6.71652C16.665 10.4196 13.6528 13.433 9.94848 13.433H9.90933C8.11716 13.4267 6.4374 12.7232 5.17821 11.4552C3.91776 10.1859 3.22691 8.50111 3.23318 6.71273C3.23318 3.01347 6.24543 0 9.94848 0ZM9.94848 1.89447C7.29117 1.89447 5.12765 4.05795 5.12765 6.71652C5.12264 8.00349 5.61773 9.20964 6.52076 10.1202C7.42505 11.0296 8.62993 11.5335 9.91312 11.5386L9.94848 12.4744V11.5386C12.607 11.5386 14.7705 9.37509 14.7705 6.71652C14.7705 4.05795 12.607 1.89447 9.94848 1.89447Z" fill="black"/>
</svg>
