<svg width="21" height="19" viewBox="0 0 21 19" fill="none" xmlns="http://www.w3.org/2000/svg">
<g clip-path="url(#clip0_235_118)">
<path d="M19.7314 4.36994C19.4304 3.67283 18.9963 3.04112 18.4534 2.51017C17.9102 1.97764 17.2696 1.55444 16.5667 1.26359C15.8378 0.960801 15.056 0.805816 14.2667 0.807633C13.1594 0.807633 12.079 1.11086 11.1401 1.68361C10.9155 1.82062 10.7021 1.97111 10.5 2.13507C10.2978 1.97111 10.0845 1.82062 9.85986 1.68361C8.92099 1.11086 7.84062 0.807633 6.7333 0.807633C5.93594 0.807633 5.16328 0.960367 4.4333 1.26359C3.72803 1.55558 3.09238 1.9756 2.54658 2.51017C2.00302 3.04052 1.56881 3.67238 1.26855 4.36994C0.956348 5.09543 0.796875 5.86584 0.796875 6.65871C0.796875 7.40666 0.949609 8.18605 1.25283 8.97892C1.50664 9.64152 1.87051 10.3288 2.33545 11.0229C3.07217 12.1212 4.08516 13.2667 5.34297 14.4279C7.42734 16.3528 9.4915 17.6825 9.5791 17.7364L10.1114 18.0778C10.3473 18.2283 10.6505 18.2283 10.8863 18.0778L11.4187 17.7364C11.5062 17.6803 13.5682 16.3528 15.6548 14.4279C16.9126 13.2667 17.9256 12.1212 18.6623 11.0229C19.1272 10.3288 19.4934 9.64152 19.7449 8.97892C20.0481 8.18605 20.2009 7.40666 20.2009 6.65871C20.2031 5.86584 20.0436 5.09543 19.7314 4.36994Z" fill="black"/>
</g>
<defs>
<clipPath id="clip0_235_118">
<rect width="21" height="19" fill="white"/>
</clipPath>
</defs>
</svg>
