<svg width="24" height="25" viewBox="0 0 24 25" fill="none" xmlns="http://www.w3.org/2000/svg">
<path fill-rule="evenodd" clip-rule="evenodd" d="M12.7776 0C13.6686 0 14.5348 0.34925 15.1558 0.956278C15.7756 1.56687 16.1178 2.40436 16.0917 3.25372C16.0942 3.44498 16.1601 3.66593 16.2796 3.85956C16.4775 4.1803 16.7898 4.40601 17.1607 4.49867C17.5316 4.58657 17.9198 4.53906 18.2496 4.35255C19.8426 3.48418 21.8698 4.00449 22.7796 5.51315L23.5549 6.79492C23.5748 6.82937 23.5922 6.86263 23.6072 6.89708C24.431 8.38317 23.8809 10.2542 22.3502 11.1083C22.1275 11.2306 21.947 11.4017 21.8226 11.6084C21.6297 11.9279 21.5761 12.3081 21.6732 12.6573C21.7728 13.0137 22.0105 13.3095 22.3452 13.4924C23.1006 13.907 23.6644 14.6055 23.8897 15.4121C24.1149 16.2175 23.9917 17.0918 23.5524 17.8129L22.7261 19.1268C21.8163 20.6188 19.7891 21.1355 18.2123 20.266C18.002 20.1507 17.7593 20.0878 17.5179 20.0818H17.5104C17.1507 20.0818 16.7811 20.228 16.5123 20.4834C16.2398 20.7435 16.0904 21.0904 16.0929 21.4586C16.0842 23.2037 14.597 24.615 12.7776 24.615H11.2182C9.39009 24.615 7.90292 23.1966 7.90292 21.4515C7.90043 21.2365 7.83572 21.0132 7.715 20.8195C7.51962 20.4941 7.20351 20.2612 6.83888 20.1686C6.47673 20.0759 6.07974 20.127 5.75368 20.3076C4.97214 20.7233 4.05246 20.8243 3.21119 20.5986C2.37115 20.3717 1.64562 19.8205 1.22 19.0899L0.442192 17.8105C-0.467531 16.3042 0.0738229 14.3739 1.64935 13.5043C2.09612 13.2584 2.37364 12.7999 2.37364 12.3081C2.37364 11.8163 2.09612 11.3565 1.64935 11.1106C0.0725785 10.2363 -0.467531 8.30121 0.440948 6.79492L1.28471 5.47276C2.18199 3.98311 4.21051 3.45804 5.79226 4.32523C6.00756 4.44759 6.24152 4.50936 6.47922 4.51173C7.25454 4.51173 7.90292 3.90114 7.91536 3.15037C7.91039 2.32239 8.25262 1.52767 8.87611 0.927768C9.50209 0.329055 10.3334 0 11.2182 0H12.7776ZM12.7776 1.78189H11.2182C10.8325 1.78189 10.4716 1.92562 10.199 2.18459C9.92771 2.44475 9.77961 2.79043 9.7821 3.15869C9.75597 4.89543 8.2688 6.29362 6.46802 6.29362C5.89058 6.28768 5.33429 6.13919 4.85143 5.86359C4.17318 5.49533 3.2871 5.72223 2.89011 6.38152L2.04759 7.70368C1.66179 8.34278 1.89825 9.1874 2.58521 9.56872C3.60445 10.1318 4.24038 11.1819 4.24038 12.3081C4.24038 13.4342 3.60445 14.4832 2.58272 15.0474C1.89949 15.4252 1.66304 16.265 2.05879 16.9184L2.84406 18.2109C3.0382 18.5447 3.35555 18.7858 3.72267 18.8844C4.08855 18.9818 4.49177 18.9402 4.82778 18.7621C5.32184 18.4853 5.8968 18.3415 6.47424 18.3415C6.75923 18.3415 7.04422 18.376 7.32299 18.4473C8.16426 18.6635 8.89478 19.2004 9.32786 19.9215C9.60912 20.3741 9.76468 20.9027 9.76966 21.442C9.76966 22.2142 10.4193 22.8331 11.2182 22.8331H12.7776C13.5728 22.8331 14.2224 22.2177 14.2262 21.4586C14.2212 20.62 14.5647 19.8229 15.1932 19.223C15.8129 18.6314 16.6791 18.2762 17.5452 18.3C18.1127 18.313 18.6591 18.4591 19.1407 18.7205C19.8339 19.0994 20.7187 18.8737 21.1194 18.2204L21.9458 16.9053C22.1299 16.6024 22.1835 16.2223 22.0851 15.8718C21.9881 15.5214 21.7442 15.2173 21.4156 15.0379C20.6465 14.615 20.0977 13.9332 19.87 13.1159C19.6447 12.314 19.7679 11.4385 20.2072 10.7174C20.4934 10.2423 20.9128 9.84195 21.4156 9.56635C22.0901 9.18978 22.3266 8.34754 21.9346 7.6918C21.9184 7.66567 21.9035 7.63835 21.891 7.60984L21.1617 6.40291C20.7647 5.74361 19.8812 5.51672 19.188 5.89329C18.4388 6.31619 17.5477 6.43736 16.6915 6.22234C15.8366 6.01089 15.1197 5.49414 14.673 4.76476C14.3867 4.3086 14.2312 3.7776 14.2262 3.23709C14.2374 2.83082 14.088 2.46613 13.8167 2.19885C13.5467 1.93275 13.1671 1.78189 12.7776 1.78189ZM12.0034 8.2847C14.3269 8.2847 16.2172 10.0903 16.2172 12.3082C16.2172 14.526 14.3269 16.3293 12.0034 16.3293C9.67993 16.3293 7.78955 14.526 7.78955 12.3082C7.78955 10.0903 9.67993 8.2847 12.0034 8.2847ZM12.0034 10.0666C10.7091 10.0666 9.65628 11.0728 9.65628 12.3082C9.65628 13.5436 10.7091 14.5474 12.0034 14.5474C13.2977 14.5474 14.3505 13.5436 14.3505 12.3082C14.3505 11.0728 13.2977 10.0666 12.0034 10.0666Z" fill="black"/>
</svg>
