<svg width="18" height="18" viewBox="0 0 18 18" fill="none" xmlns="http://www.w3.org/2000/svg">
<path fill-rule="evenodd" clip-rule="evenodd" d="M18 9C18 13.9706 13.9706 18 9 18C4.02944 18 0 13.9706 0 9C0 4.02944 4.02944 0 9 0C13.9706 0 18 4.02944 18 9ZM12.1654 16.037C11.1996 16.4722 10.1281 16.7143 9 16.7143C7.13769 16.7143 5.42951 16.0544 4.09654 14.9556C5.48321 12.6287 7.71355 10.8645 10.3648 10.0839C11.1263 11.9945 11.7317 13.9841 12.1654 16.037ZM13.3385 15.3796C12.9112 13.4583 12.3384 11.5919 11.6322 9.79248C12.2201 9.69407 12.8239 9.64286 13.4397 9.64286C14.5521 9.64286 15.6244 9.80977 16.6336 10.1196C16.3162 12.3031 15.084 14.1902 13.3385 15.3796ZM16.7118 8.80284C15.6702 8.51232 14.5726 8.35714 13.4397 8.35714C12.65 8.35714 11.8779 8.43247 11.1302 8.57632C10.9352 8.12623 10.7317 7.68067 10.5199 7.23984C12.203 6.49277 13.7584 5.51045 15.1443 4.33472C16.0924 5.58155 16.6697 7.12573 16.7118 8.80284ZM14.2834 3.37894C12.9823 4.47803 11.5224 5.39457 9.9429 6.08918C9.1091 4.49476 8.16538 2.967 7.12182 1.51596C7.72302 1.36557 8.35219 1.28571 9 1.28571C11.0444 1.28571 12.903 2.08094 14.2834 3.37894ZM5.85163 1.95532C3.58698 2.96897 1.90033 5.04257 1.42271 7.54511C1.86157 7.57735 2.30494 7.59376 2.75225 7.59376C4.85305 7.59376 6.86897 7.23162 8.74119 6.56624C7.89084 4.95459 6.92393 3.41388 5.85163 1.95532ZM1.28768 8.82432C1.28637 8.88272 1.28571 8.94129 1.28571 9C1.28571 10.9235 1.98967 12.6825 3.15399 14.0335C4.68774 11.6031 7.05986 9.75345 9.86482 8.89145C9.69163 8.49811 9.51173 8.10839 9.32527 7.72243C7.27506 8.47098 5.0612 8.87948 2.75225 8.87948C2.2596 8.87948 1.77118 8.86087 1.28768 8.82432Z" fill="#E84C88"/>
</svg>
