<svg width="25" height="25" viewBox="0 0 25 25" fill="none" xmlns="http://www.w3.org/2000/svg">
<path fill-rule="evenodd" clip-rule="evenodd" d="M14.2697 16.6137C15.736 16.6137 16.9295 17.7448 16.9295 19.1352V22.711C16.9295 23.0098 17.1804 23.2493 17.5019 23.2563H19.8232C21.6524 23.2563 23.1394 21.8543 23.1394 20.1314V9.98972C23.1309 9.39684 22.835 8.83883 22.3271 8.468L14.2977 2.35553C13.2199 1.54061 11.7122 1.54061 10.6307 2.35786L2.65616 8.46567C2.12883 8.84813 1.83289 9.40614 1.8268 10.0095V20.1314C1.8268 21.8543 3.31381 23.2563 5.14304 23.2563H7.48621C7.81626 23.2563 8.08419 23.0063 8.08419 22.6994C8.08419 22.632 8.09271 22.5646 8.10732 22.5006V19.1352C8.10732 17.7529 9.29353 16.623 10.7489 16.6137H14.2697ZM19.8232 25H17.48C16.1379 24.9698 15.1027 23.9642 15.1027 22.711V19.1352C15.1027 18.7062 14.7289 18.3574 14.2697 18.3574H10.755C10.3056 18.3598 9.93412 18.7097 9.93412 19.1352V22.6994C9.93412 22.7866 9.92194 22.8703 9.89637 22.9494C9.76484 24.1002 8.73453 25 7.48621 25H5.14304C2.30664 25 0 22.8157 0 20.1314V10.0013C0.0121786 8.84581 0.569961 7.78793 1.53329 7.09159L9.49204 0.994235C11.2445 -0.331024 13.6864 -0.331024 15.4352 0.99191L23.4512 7.09507C24.3926 7.77979 24.9504 8.83535 24.9662 9.97693V20.1314C24.9662 22.8157 22.6596 25 19.8232 25Z" fill="black"/>
</svg>
