<svg width="53" height="35" viewBox="0 0 53 35" fill="none" xmlns="http://www.w3.org/2000/svg">
<path d="M15.3744 1.32156L16.0903 2.64316L16.8061 1.65198L15.3744 1.32156ZM15.7048 5.06605L15.87 4.91188L15.3194 4.80175L15.7599 4.14095L14.9009 4.16299L15.3414 4.82376L15.033 4.81277L15.2312 5.5176L15.7158 5.07708L16.0683 5.79293L16.4207 5.02202L15.7048 5.06605ZM21.652 5.50661L20.9141 6.86121L22.5991 6.53083L21.652 5.50661ZM23.4141 7.4229L23.0506 8.10571L23.8876 7.94052L23.4141 7.4229ZM28.8987 10.6828L28.9757 12.2026L30.0771 11.1454L28.8987 10.6828ZM24.5484 13.8766L23.7555 13.7996L24.196 14.4603L24.5484 13.8766ZM20.6718 15.6718H20.044L20.4075 16.1453L20.6718 15.6718ZM13.2048 16.4427L12.5661 16.3326L12.8524 16.8612L13.2048 16.4427Z" fill="#EFF7EB"/>
<path d="M9.0969 17.2026L8.45814 17.1145L8.74448 17.6321L9.0969 17.2026ZM18.9758 12.6872L18.337 12.6542L18.6674 13.1498L18.9758 12.6872ZM21.9714 11.4207L21.3326 11.4427L21.718 11.9053L21.9714 11.4207ZM20.815 6.26653L20.7269 6.42069L20.4625 6.90528L20.6277 6.99337L20.2753 7.65417L21.4427 7.43393L21.1343 6.85023L20.815 6.26653ZM24.0969 8.7445L23.6784 8.57928L23.7335 9.24008L23.9868 9.01983L24.9119 9.54844L24.5815 8.29295L24.0969 8.7445ZM31.4758 10.2313L31.4317 12.0264L33.0286 10.9912L31.4758 10.2313ZM16.9713 2.7643L17.6101 2.68723L17.0595 2.13657L16.8061 2.88546L15.815 3.23789L16.9603 4.163L16.9713 2.7643ZM25.4736 7.69823L25.1211 9.35021L26.6189 8.57928L25.4736 7.69823ZM30.5176 9.63657L28.9978 10.1212L30.3194 11.4207L30.5176 9.63657ZM23.5793 6.59691H23.8326L23.5573 5.93611L23.0506 6.42069L22.3128 6.38766L22.7202 7.48898L23.5793 6.59691ZM15.9802 7.58809L16.641 6.44271L15.2753 6.16738L15.9802 7.58809ZM16.2004 10.7379L16.5308 10.1652L15.7599 9.96695L16.2004 10.7379ZM31.3656 8.88764L30.1872 9.01983L31.0683 9.94494L31.3656 8.88764ZM20 8.40306L20.5066 7.9295L19.9339 7.59912L20 8.40306ZM30.4075 10.7158L31.3436 10.7379L31.0352 10.022L30.4075 10.7158ZM28.1167 8.92068L27.5 8.64535L27.4119 9.41629L28.1167 8.92068Z" fill="#EFF7EB"/>
<path d="M20.87 13.4031L21.641 13.5793L21.2225 12.9736L20.87 13.4031ZM21.3106 10.0771L22.0815 10.2533L21.641 9.64755L21.3106 10.0771ZM21.8612 3.85463L20.7599 3.01761L20.6277 4.37225L21.8612 3.85463ZM17.0154 4.40529L16.8502 5.33039L17.6542 5.03301L17.0154 4.40529ZM14.5595 7.43392L14.3612 8.64535L15.4075 8.25991L14.5595 7.43392ZM20.2533 5.06605L20.3965 3.74449L19.8458 4.05286L19.4053 3.02863L18.7445 3.93169L19.6696 4.08589L19.141 4.54843L20.2533 5.06605ZM17.6101 6.96033L16.652 5.82597L16.2114 7.25771L17.6101 6.96033ZM15.6277 11.8282L16.0022 12.0485L16.0352 11.5529L15.6277 11.8282ZM17.7533 10.4405L18.1387 10.6608L18.1718 10.1652L17.7533 10.4405ZM5.88104 7.98458L6.4317 7.96253L6.03523 7.55505L5.88104 7.98458ZM19.3392 18.3921L19.8899 18.2819L19.4493 17.9515L19.3392 18.3921ZM7.62113 15.5286L8.17179 15.4956L7.7643 15.0991L7.62113 15.5286ZM24.8788 11.9603L25.4075 11.8172L24.9339 11.5088L24.8788 11.9603ZM21.6189 10.9692L22.1696 10.881L21.7291 10.5286L21.6189 10.9692ZM24.1079 6.82817V5.19824L23.8106 5.28633L23.4251 5.06605L23.4581 5.46255L22.7643 5.83699L24.1079 6.82817ZM28.2929 10.1101L28.8436 9.33919L27.9625 9.22905L28.2929 10.1101ZM27.6652 14.207L28.4802 14.5374L28.37 13.8987L27.6652 14.207ZM27.5 11.3436L28.359 11.5639L28.1828 10.9471L27.5 11.3436ZM17.9405 7.30173L18.337 6.49779L17.4229 6.685L17.9405 7.30173ZM26.1674 13.6123L26.718 13.0286L25.9251 12.8745L26.1674 13.6123ZM25.5066 11.0352L25.9912 10.3965L25.1872 10.3194L25.5066 11.0352ZM25 7.8414L24.174 7.51099L24.3062 8.39207L25 7.8414ZM25.815 8.90969L25.2643 9.90087L26.3877 9.65858L25.815 8.90969ZM26.7841 11.1343L26.3987 11.8172L27.1696 11.6409L26.7841 11.1343ZM27.8855 11.9273L27.5 12.5881L28.2709 12.4229L27.8855 11.9273ZM28.8987 12.7203L28.5132 13.3811L29.2841 13.2159L28.8987 12.7203ZM7.80836 5.03301L8.5132 5.36343L8.29294 4.70263L7.80836 5.03301ZM15.022 9.07488L14.8458 9.48236L15.4405 9.50438L15.022 9.07488ZM13.7004 7.72024H12.9075L13.4251 8.32599L13.7004 7.72024ZM18.9647 9.37222H18.1718L18.6894 9.97797L18.9647 9.37222ZM12.0044 7.01541L11.2114 7.0264L11.7401 7.63215L12.0044 7.01541ZM17.2357 7.58809L16.1564 7.65416L16.9273 8.44712L17.2357 7.58809ZM21.2885 8.77753L20.1101 8.88764L20.9691 9.72466L21.2885 8.77753ZM18.0947 14.5264L16.9053 14.4713L17.6432 15.4185L18.0947 14.5264ZM6.35461 1.69601L5.16518 1.65198L5.91408 2.5991L6.35461 1.69601ZM2.10351 6.70704H0.925095L1.69602 7.62113L2.10351 6.70704ZM13.5132 9.90087L13.2929 11.0022L14.2841 10.4515L13.5132 9.90087ZM13.0176 5.85901L11.696 5.89204L12.5771 6.88326L13.0176 5.85901ZM10.5947 4.28412L10.6277 5.60572L11.6189 4.72465L10.5947 4.28412ZM13.3921 0.759915L14.163 3.00659L15.2643 1.15637L13.3921 0.759915ZM22.4669 12.7863L23.1938 13.304L23.0837 12.3678L22.4669 12.7863ZM21.696 14.6586L22.3568 15.2533V14.3062L21.696 14.6586ZM22.533 10.3634L23.2599 10.881L23.1498 9.94493L22.533 10.3634ZM23.8546 10.033L25.0881 10.6938L24.7247 9.22905L23.8546 10.033ZM9.71365 7.46696L10.7599 8.4251V6.93831L9.71365 7.46696ZM19.7026 5.6718L19.4163 6.66298L20.5617 6.40967L19.7026 5.6718ZM19.5705 6.80616H18.7775L19.1079 7.6872L19.5705 6.80616ZM22.0374 4.76871L20.8921 5.02202L21.696 6.09031L22.0374 4.76871Z" fill="#EFF7EB"/>
<path d="M8.31499 2.20265L8.09472 1.54185L7.58812 2.12555L8.31499 2.20265ZM28.304 10.1321L29.152 10.3524L28.8987 9.60353L28.304 10.1321ZM31.0903 10.2423L32.6322 9.66961L31.4978 8.87666L31.0903 10.2423ZM30.2864 11.4537L30.2093 12.511L31.1344 12.2577L30.2864 11.4537ZM28.304 10.9471L28.9648 10.5507L28.282 10.1432L28.304 10.9471ZM21.2555 8.92069L21.7621 8.44713L21.1013 8.07268L21.2555 8.92069ZM28.0837 8.0066V8.35903L27.7974 8.16077L27.5771 8.55726L28.0617 8.46917L27.9956 9.12994L29.0969 8.40306L28.0837 8.0066ZM26.3216 9.63657L27.1366 9.96695L27.0705 9.22905L26.3216 9.63657ZM12.533 9.14096L13.1938 8.92069L12.5881 8.64536L12.533 9.14096ZM24.0088 16.7401L24.174 16.1894L23.6234 16.2775L24.0088 16.7401ZM25.859 12.3128L25.9692 11.7621L25.4185 11.9163L25.859 12.3128ZM24.978 11.674L25.0881 11.1233L24.5595 11.2665L24.978 11.674Z" fill="#EFF7EB"/>
<path d="M12.9405 11.5639L13.4361 11.63L13.1938 11.1894L12.9405 11.5639ZM16.7952 12.2467L18.0066 12.3128L17.3458 11.2995L16.7952 12.2467ZM23.5683 11.2885L24.196 12.3348L24.6586 11.2004L23.5683 11.2885ZM25.1652 15.3634L25.6828 16.4647L26.2665 15.3855L25.1652 15.3634ZM19.7467 14.4053L20.2423 15.5066L20.837 14.4383L19.7467 14.4053ZM27.5661 7.6101L26.685 7.5L27.2357 7.00439L26.4648 6.82817L26.5749 7.45594L26.1344 7.40088L26.685 9.03082L27.5661 7.6101ZM10.3304 0.23127L9.77973 1.31058L11.1013 1.36563L10.3304 0.23127ZM12.7753 2.15858L12.9736 2.24667L12.8634 1.69601L13.5573 1.78414L13.1938 1.0132L12.8634 1.70704L12.7092 1.26651L12.1806 1.87223L12.6762 2.09251L12.2357 2.75331L13.1167 2.68723L12.7753 2.15858ZM11.641 2.70924L11.9383 3.59029L12.4339 3.1057L11.641 2.70924ZM13.6013 3.20482L12.9075 2.87443L13.1278 3.71145L13.6013 3.20482ZM8.31497 0.0660782L8.7555 0.660768L9.06387 0.0660782H8.31497ZM11.4207 1.55284L10.5396 1.5969L11.0903 2.2577L11.4207 1.55284ZM9.98899 9.65858L10.4075 10.033L10.3414 9.48236L9.98899 9.65858ZM12.5551 19.7467L12.9405 20.1431L12.9295 19.5925L12.5551 19.7467ZM0 3.48015L0.440522 3.8436L0.352423 3.29294L0 3.48015ZM5.36343 5.35241L5.17621 5.75989L5.72687 5.64975L5.36343 5.35241ZM20.0881 11.2665L19.9229 11.674L20.4515 11.5418L20.0881 11.2665ZM14.9559 14.2731L15.2863 14.6476L15.3634 14.207L14.9559 14.2731ZM10.022 14.5595L10.3194 14.9559L10.4295 14.5154L10.022 14.5595ZM15.9251 8.92068L16.2335 9.30615L16.3106 8.86563L15.9251 8.92068ZM19.163 5.04404L19.3502 5.81498L19.9009 5.24227L19.1079 4.9339L18.7225 4.01982L17.8744 4.98899L19.163 5.04404ZM22.4339 6.82817L21.3766 7.3458L22.3678 8.11674L22.3789 8.35903L22.9956 8.02861L22.478 7.56607L22.4339 6.82817ZM17.478 7.00439L17.0374 7.64318L17.8965 7.53304L17.478 7.00439ZM19.7467 8.29295L19.3833 8.97576L20.2313 8.79955L19.7467 8.29295ZM19.8899 9.9119L19.5925 9.75769V10.2423L19.7907 10.1101L20.4185 10.5727L20.3084 9.62554L19.8899 9.9119ZM7.64317 8.25991L7.36784 8.0837L7.31277 8.57927L7.53304 8.44712L8.12775 8.95372L8.07268 8.0066L7.64317 8.25991ZM21.7951 8.81057L21.5088 8.65637L21.4868 9.15198L21.685 9.0088L22.3128 9.47134L22.2026 8.53524L21.7951 8.81057ZM19.5485 7.46696L19.7907 7.48897L19.5705 6.82817L19.0198 7.2687L18.2819 7.18061L18.5903 8.31497L19.5485 7.46696Z" fill="#EFF7EB"/>
<path d="M17.0704 9.58148L17.6211 9.14096L16.9603 8.70044L17.0704 9.58148ZM18.414 7.59912L17.3127 8.01763L18.2378 8.87666L18.2268 9.12994L18.8876 8.84362L18.403 8.33699L18.414 7.59912ZM23.5902 8.92068L22.6211 8.25992L22.4449 9.50438L22.2466 9.64756L22.8413 10.011L22.9735 9.3282L23.5902 8.92068ZM27.3017 9.66961L26.3105 10.3084L27.3898 10.9692L27.4339 11.2115L28.0065 10.7929L27.4339 10.4075L27.3017 9.66961ZM17.8083 5.24227L18.6673 6.20042L18.8876 4.83479L17.8083 5.24227Z" fill="#EFF7EB"/>
<path d="M16.5419 5.24226L17.7093 6.674L18.1828 5.26431L16.5419 5.24226ZM21.1895 5.57268L20.6388 5.46254L20.3745 5.24226V5.49558L20.2313 5.55063L20.3965 5.73787L20.3524 5.84801L20.3965 5.73787L20.5727 6.1784L21.1895 5.57268ZM10.9031 0.506596L10.826 0.583696L11.1124 1.21142L11.3326 1.76208L12.6212 0.550658L10.8591 0.253279L10.9031 0.506596Z" fill="#EFF7EB"/>
<path d="M12.3898 1.48676L12.8744 0.991184L12.0815 0.85903L12.3898 1.48676ZM14.4823 3.7665L14.0749 3.1057L13.7445 3.79954L14.4823 3.7665ZM8.97574 0.660767L8.49116 1.61895L9.70261 1.62994L8.97574 0.660767ZM7.01539 4.88987L6.46473 4.73567L6.57486 5.28633L7.01539 4.88987ZM25.87 7.15859L24.9449 5.98017L24.174 7.47795L25.87 7.15859ZM9.74667 6.05727L9.50438 6.79514L10.2423 6.55284L9.74667 6.05727ZM9.68058 4.18501L9.42728 4.92291L10.1652 4.68062L9.68058 4.18501ZM13.3149 4.18501V3.44711L12.6872 3.99777L13.3149 4.18501Z" fill="#EFF7EB"/>
<path d="M11.2775 2.61013L10.2863 3.60131L11.3216 3.99777L11.2775 2.61013ZM7.57706 0L6.91627 0.638752L7.57706 0.903058V0ZM10.6387 2.35681L9.42728 1.87223L9.47134 2.90747L10.6387 2.35681ZM12.9185 5.0881L12.7312 3.51322L11.6299 4.68062L12.9185 5.0881ZM15.0881 4.07487L16.1453 3.11673L15.1101 2.74228L15.7379 2.43391L14.7467 1.71806L14.6145 2.48896L13.8766 2.51101L14.4273 3.13874L14.5374 2.94051L14.9779 2.78634L15.0881 4.07487ZM16.5198 4.88987L16.1453 4.11893L15.7819 4.92291L16.5198 4.88987ZM9.6916 0.638752L9.58147 0.0880909L9.14094 0.47356L9.6916 0.638752ZM8.55724 2.7533V3.24888L8.95371 2.95153L8.55724 2.7533Z" fill="#EFF7EB"/>
<path d="M18.1057 11.2995L18.326 11.8832L18.6013 11.2886L18.1057 11.2995ZM16.674 17.4009L16.8282 18.0066L17.1586 17.4339L16.674 17.4009ZM13.1057 2.40088L13.7996 2.73126L13.8877 2.04845L13.1057 2.40088ZM11.7621 1.674L11.4317 2.35682L12.2026 2.26872L11.7621 1.674ZM12.5551 5.28633L14.0419 5.9912L14.13 3.89866L12.5551 5.28633ZM16.9934 1.65199L20.4075 2.9185L17.3458 4.75769L16.9934 1.65199ZM21.8392 3.44711L24.2181 4.61454L22.1916 5.52863L21.8392 3.44711ZM25.5396 5.37443L27.489 6.36564L25.011 8.14978L25.5396 5.37443ZM29.13 7.33478L31.4868 8.67839L29.2401 9.92289L29.13 7.33478ZM32.5441 9.64756L34.2181 10.7049L32.1256 11.7621L32.5441 9.64756Z" fill="#EFF7EB"/>
<path d="M23.9758 4.71366L25.5617 5.37442L24.3062 6.03522L23.9758 4.71366ZM27.5551 6.60793L29.2511 7.37884L27.4009 8.25992L27.5551 6.60793ZM40.2753 29.6255L39.9119 29.0969L39.7247 29.6476L40.2753 29.6255ZM24.0859 27.3128L23.8656 26.7071L23.5352 27.2026L24.0859 27.3128ZM32.7093 25.0881L32.4229 24.5154L32.1696 25.0661L32.7093 25.0881ZM24.4163 21.8942L24.5925 22.4119L24.8789 21.9273L24.4163 21.8942ZM45.0881 28.1057L45.3084 28.8546L45.6718 28.2489L45.0881 28.1057ZM28.8106 15.6608L28.4802 14.5154L27.8194 15.5066L28.8106 15.6608ZM28.6123 20.2643L28.2819 18.9978L27.533 20.0991L28.6123 20.2643ZM49.0088 27.9185L48.37 27.2026L48.2269 28.1608L49.0088 27.9185ZM46.7731 26.5969L46.0022 27.2577L47.0154 27.4119L46.7731 26.5969ZM3.0837 1.37666L2.20265 2.47798L3.70045 2.36784L3.0837 1.37666ZM47.5771 26.652L47.9405 26.0463L47.1696 26.0352L47.5771 26.652ZM49.2291 25.2753L49.0529 25.9912L49.7137 25.848L49.2291 25.2753ZM48.2159 29.185L48.2379 29.7357L48.5903 29.3172L48.2159 29.185ZM42.4009 32.6211L42.4229 33.1718L42.7753 32.7533L42.4009 32.6211ZM47.3018 34.4493L47.3238 35L47.6762 34.5815L47.3018 34.4493ZM4.24009 10.6387L3.97578 11.1343L4.49339 10.9361L4.24009 10.6387ZM37.5 31.2115L37.3128 31.652L37.7533 31.5198L37.5 31.2115ZM47.3899 31.1013L47.2026 31.5418L47.6432 31.4097L47.3899 31.1013ZM49.2071 26.1674L48.1498 26.4097L48.9207 27.3458L49.2071 26.1674ZM44.6366 27.2687L44.4163 26.7621L44.0639 27.1806L44.6366 27.2687ZM45.5617 30.2092L44.8348 30.4956L45.4956 30.9031L45.5617 30.2092ZM45.2863 32.489L44.5595 32.7753L45.2203 33.1828L45.2863 32.489ZM50.4075 32.5551L49.6806 32.8304L50.3414 33.2489L50.4075 32.5551ZM50.2643 30.0441L49.196 30.4515L50.1652 31.0573L50.2643 30.0441ZM44.0529 29.9119L44.6035 29.5484L43.9978 29.0198L44.0529 29.9119ZM40.793 26.1234L39.956 27.0044L41.0352 27.2687L40.793 26.1234ZM22.9736 24.2291L23.3811 24.5925V24.0418L22.9736 24.2291ZM36.9273 20.7269L37.4009 21.3546L37.511 20.6608L36.9273 20.7269ZM40.2533 27.7533L39.8789 27.9736L40.3524 28.326L40.2533 27.7533ZM40.3084 26.4097L39.6256 26.0022L39.7577 26.7951L40.3084 26.4097ZM39.174 24.5044L38.5132 24.0639L38.6234 24.8568L39.174 24.5044ZM36.7841 24.0639L37.1916 25.4185L37.9626 24.1299L36.7841 24.0639ZM41.1894 18.9097L41.5969 20.2643L42.3678 18.9758L41.1894 18.9097ZM38.1057 26.7621L38.7885 26.9493L38.4251 26.3987L38.1057 26.7621ZM37.1806 29.0198L37.5551 29.3282L37.5771 28.8436L37.1806 29.0198ZM34.3172 25.8811L34.4053 26.4317L34.7026 25.9692L34.3172 25.8811ZM33.1388 27.5L33.0837 27.9846L33.4582 27.7313L33.1388 27.5ZM42.5881 28.5242L42.6982 29.0088L42.9736 28.6454L42.5881 28.5242ZM34.13 23.0947L34.0198 22.7864L33.6894 23.1387L33.9427 23.1718L34.0969 23.9427L34.6476 23.1718L34.13 23.0947ZM37.8414 22.4339L37.2247 22.9075L37.9736 23.1278L37.8414 22.4339ZM46.9273 28.9317L46.2004 29.207L46.8612 29.6255L46.9273 28.9317ZM52.5441 30.8921L51.8172 31.1674L52.478 31.5859L52.5441 30.8921ZM48.7996 24.6366L47.8855 24.5595L48.1057 25.2423L48.7996 24.6366ZM51.1454 28.6454L50.9251 27.9405L50.4846 28.337L51.1454 28.6454ZM49.6586 26.685L50.011 26.2665L49.4273 26.1564L49.6586 26.685ZM47.3128 27.1696L46.9383 27.478L47.4119 27.5881L47.3128 27.1696ZM32.8855 13.4691L32.467 14.1299L33.315 14.0198L32.8855 13.4691ZM37.6211 17.2577V18.7665L38.7665 17.7753L37.6211 17.2577ZM32.5771 19.8458L31.8062 19.6035L32.1145 20.3414L32.5771 19.8458ZM23.359 17.8634L22.7313 17.7533L23.0066 18.2819L23.359 17.8634ZM27.8745 17.8744L27.2357 17.7643L27.511 18.2929L27.8745 17.8744ZM30.2974 17.0815L29.6696 16.9713L29.9449 17.5L30.2974 17.0815ZM33.1608 14.7136L32.7753 14.4714L32.6982 15.1322L32.9956 14.967L33.7886 15.6718L33.7335 14.3722L33.1608 14.7136ZM40.5176 17.4119L40.1432 19.174L41.9053 18.4471L40.5176 17.4119Z" fill="#EFF7EB"/>
<path d="M34.7356 14.0088L34.0749 15.5507L35.6828 15.1101L34.7356 14.0088ZM39.3172 16.3436L37.7753 16.7511L39.0198 18.1167L39.3172 16.3436Z" fill="#EFF7EB"/>
<path d="M33.0946 12.6652L33.3369 12.6982L33.1167 12.0374L32.566 12.478L31.8281 12.4009L32.1585 13.5242L33.0946 12.6652ZM40.3083 16.0793H39.1189L39.8898 17.1035L40.3083 16.0793ZM39.1189 17.7863L40.055 17.8084L39.7576 17.0925L39.1189 17.7863ZM37.0814 15.3634L36.5308 14.989L36.3105 15.7379L37.0814 15.3634ZM28.8215 18.8326L29.5484 19.163L29.2621 18.4802L28.8215 18.8326ZM29.9559 15.6608L30.6828 15.9912L30.4074 15.3084L29.9559 15.6608ZM23.4581 20.7269L24.0087 20.7599L23.6784 20.3194L23.4581 20.7269ZM24.0858 24.207L24.6365 24.2511L24.3061 23.8106L24.0858 24.207Z" fill="#EFF7EB"/>
<path d="M33.3149 18.0617L33.8656 18.0176L33.4581 17.6321L33.3149 18.0617ZM30.0881 16.5969L30.6387 16.641L30.2863 16.2004L30.0881 16.5969ZM33.6453 12.9626L33.7775 11.3436L33.4691 11.4097L33.1057 11.1674V11.5639L32.3788 11.8723L33.6453 12.9626ZM37.0925 16.5418L37.7533 15.881L36.9053 15.6167L37.0925 16.5418ZM35.4625 20.6608L36.2004 21.1454L36.2224 20.5066L35.4625 20.6608ZM35.837 17.6212L36.5749 18.1057L36.6079 17.467L35.837 17.6212ZM34.5815 20.1322L35.1872 19.6145L34.4163 19.3723L34.5815 20.1322ZM34.1079 17.2907L34.7136 16.7731L33.9427 16.5308L34.1079 17.2907ZM34.2511 14.0639L33.5132 13.5903L33.4581 14.4714L34.2511 14.0639ZM34.8458 15.2753L34.1079 16.1233L35.2423 16.1013L34.8458 15.2753ZM35.3964 17.4119L34.8788 17.9956H35.6718L35.3964 17.4119ZM36.1674 18.4912L35.6497 19.0749L36.4427 19.0639L36.1674 18.4912ZM37.544 19.3282L37.1255 19.989L37.8964 19.8568L37.544 19.3282ZM30.1872 13.8216L29.0088 13.6674L29.6696 14.6586L30.1872 13.8216ZM31.0683 18.5793L31.729 19.185V18.2379L31.0683 18.5793ZM29.7246 20.815L30.3194 21.4758L30.4295 20.5286L29.7246 20.815ZM31.7841 16.3656L32.4669 16.9493L32.4229 16.0022L31.7841 16.3656ZM32.7202 15.9912L33.7995 16.9053L33.7334 15.3965L32.7202 15.9912ZM37.1035 16.6299L37.9075 16.9934L37.7973 16.2225L37.1035 16.6299ZM40.022 17.2907L41.6189 16.8833L40.5616 15.9692L40.022 17.2907Z" fill="#EFF7EB"/>
<path d="M39.0198 18.4802L38.9317 19.5374L39.8568 19.2951L39.0198 18.4802ZM36.9603 17.4009L37.6872 17.1366L37.0815 16.6079L36.9603 17.4009ZM37.2246 14.4273L37.1916 14.7797L36.9383 14.5374L36.652 14.8899L37.1476 14.8788L36.9713 15.5176L38.1828 14.989L37.2246 14.4273ZM35.2423 15.859L35.9802 16.3436L36.0683 15.6057L35.2423 15.859ZM32.1255 23.0396L32.3458 22.522L31.7951 22.5551L32.1255 23.0396ZM34.218 18.37L34.4383 17.8524L33.8876 17.8855L34.218 18.37ZM33.4471 17.7973L33.6674 17.2797L33.1167 17.3128L33.4471 17.7973Z" fill="#EFF7EB"/>
<path d="M32.1586 17.1476L32.5661 18.2929L33.2269 17.2797L32.1586 17.1476ZM32.8855 20.5947L33.282 21.7511L33.9648 20.7379L32.8855 20.5947ZM40.011 20.9251L39.978 20.1322L39.3943 20.6828L40.011 20.9251ZM39.6807 23.9758L39.4163 24.8128L40.0331 24.6696L39.6807 23.9758ZM39.967 22.9846L40.6278 23.4251L40.6608 22.6211L39.967 22.9846ZM41.2005 25.1101L40.5066 24.7797L40.7269 25.5506L41.2005 25.1101ZM40.6718 19.6365L40.2974 20.4405L41.2005 20.1542L40.6718 19.6365ZM37.9185 19.6476L37.5661 20.4625L38.4472 20.1322L37.9185 19.6476ZM36.5088 21.1454L37.0595 21.1894L36.8613 20.6718L36.5088 21.1454ZM38.8216 21.2114L37.7864 21.8722L38.9318 22.3128L38.8216 21.2114ZM6.90532 3.08369L7.01545 4.29515L7.91854 3.46916L6.90532 3.08369ZM36.8282 14.3172L35.9692 14.0198L36.608 13.6454L35.9031 13.315L35.8811 13.9537L35.4406 13.7996L35.6388 15.5176L36.8282 14.3172ZM2.81942 4.51539L3.08374 4.99998L3.2159 4.47136L2.81942 4.51539ZM3.52427 6.82817L3.83263 7.29074L3.92074 6.74008L3.52427 6.82817ZM28.5243 16.5639L28.271 16.9273L28.8216 16.9163L28.5243 16.5639ZM31.7842 12.6652L30.6829 13.0286L31.5639 13.9317L31.5529 14.174L32.2137 13.9207L31.7511 13.4031L31.7842 12.6652ZM30.7049 14.5374L30.4516 14.3172L30.3414 14.7907L30.5617 14.7026L31.0683 15.2863L31.1564 14.3392L30.7049 14.5374ZM32.6873 14.8678L31.8062 14.0969L31.4758 15.3084L31.2555 15.4185L31.8062 15.859L32.0265 15.1982L32.6873 14.8678ZM36.2445 16.0793L35.1432 16.4978L36.0573 17.3568V17.6101L36.6961 17.3238L36.2225 16.8282L36.2445 16.0793ZM35.2533 13.5462L34.5925 12.2026L33.5353 13.5242L35.2533 13.5462Z" fill="#EFF7EB"/>
<path d="M20.022 18.348L20.0991 18.9648L20.5066 18.4361L20.022 18.348ZM35.4405 11.4868L37.1476 12.8524L34.3612 14.0969L35.4405 11.4868ZM38.3921 13.9868L40.4846 15.7048L38.0617 16.5859L38.3921 13.9868ZM41.674 17.0264L43.0506 18.4361L40.7709 18.9868L41.674 17.0264Z" fill="#EFF7EB"/>
<path d="M34.0308 10.6057L35.4405 11.5749L34.0859 11.9493L34.0308 10.6057ZM36.9273 12.9736L38.4692 14.0198L36.5088 14.5705L36.9273 12.9736ZM44.8789 24.5925L44.5815 26.0683L45.9031 25.3304L44.8789 24.5925ZM47.6322 24.8898L46.9714 26.5639L48.8216 26.1233L47.6322 24.8898Z" fill="#EFF7EB"/>
<path d="M41.7841 20.3414L40.87 21.7731L42.522 21.5969L41.7841 20.3414ZM46.696 23.9758L45.1101 24.0859L46.0573 25.6718L46.696 23.9758ZM47.7753 23.7335L46.6189 23.4471L47.1255 24.6255L47.7753 23.7335Z" fill="#EFF7EB"/>
<path d="M46.2995 25L47.2026 25.2423L47.0925 24.4714L46.2995 25ZM44.6475 22.522L44.174 22.0484L43.8105 22.7423L44.6475 22.522ZM44.4273 23.6784L45.1982 23.1498L44.4273 22.7313V23.6784ZM42.7753 27.5771L43.4912 28.0947L43.5352 27.4559L42.7753 27.5771ZM43.2599 24.5595L43.9757 25.0771L44.0308 24.4163L43.2599 24.5595ZM41.9163 27.0154L42.544 26.5198L41.7731 26.2445L41.9163 27.0154ZM41.696 21.6189L40.837 22.3238L41.9603 22.5L41.696 21.6189ZM42.8193 24.3943L42.2687 24.9449L43.0616 24.9669L42.8193 24.3943ZM43.5462 25.4405L42.9956 25.9912L43.7885 26.0242L43.5462 25.4405ZM44.3392 26.4757L43.7885 27.0264L44.5815 27.0594L44.3392 26.4757ZM44.4493 23.7224L45.1652 24.2401L45.1872 23.4471L44.4493 23.7224ZM47.3127 24.7577L48.9647 24.7246L48.1608 23.5903L47.3127 24.7577Z" fill="#EFF7EB"/>
<path d="M46.0353 25.6608L45.7049 26.652L46.663 26.6299L46.0353 25.6608ZM44.13 24.4714L44.9009 24.3612L44.4053 23.7224L44.13 24.4714ZM44.956 21.6519L44.8458 21.9824L44.6256 21.696L44.2952 21.9934L44.7798 22.0705L44.4824 22.6652L45.7709 22.3788L44.956 21.6519ZM42.7313 22.8194L43.4361 23.337L43.5463 22.5991L42.7313 22.8194Z" fill="#EFF7EB"/>
<path d="M44.4494 21.1454L43.6123 20.815L44.2731 20.4846L43.5903 20.1211L43.5353 20.7599L43.0947 20.5947L43.2049 22.3018L44.4494 21.1454ZM43.7005 23.0947L42.5991 23.4692L43.4802 24.3502L43.4692 24.6035L44.13 24.3502L43.6894 23.8216L43.7005 23.0947Z" fill="#EFF7EB"/>
<path d="M43.1058 18.4141L44.7578 19.8458L41.9163 20.9471L43.1058 18.4141ZM46.2556 21.4758L47.9846 23.5683L45.4516 23.9427L46.2556 21.4758ZM51.4648 28.6123L52.2798 29.8788L50.8701 30.0991L51.4648 28.6123ZM50.1652 26.6299L50.804 27.511L49.5045 27.6211L50.1652 26.6299Z" fill="#EFF7EB"/>
<path d="M48.8987 28.1388L50.1983 28.4251L49.119 29.5815L48.8987 28.1388ZM44.956 20.1542L46.2776 21.4758L44.2512 21.641L44.956 20.1542Z" fill="#EFF7EB"/>
</svg>
