<svg width="4" height="3" viewBox="0 0 4 3" fill="none" xmlns="http://www.w3.org/2000/svg">
<path d="M3.9149 2.63691V2.29666L3.57448 2.38172L3.9149 2.63691ZM2.46809 0.0850509L2.12766 0.170112L2.38298 0.510361L2.46809 0.0850509Z" fill="#964C38"/>
<path d="M2.38299 0.170112L1.95746 0.680483L2.72342 0.850611L2.38299 0.170112ZM1.61704 0.0850509L1.1064 0.255172L1.53193 0.680483L1.61704 0.0850509ZM3.82979 1.36098L3.57448 1.5311L3.9149 1.70123L3.82979 1.36098ZM3.06384 0.935671L2.80852 1.19085L3.14895 1.27592L3.06384 0.935671Z" fill="#964C38"/>
<path d="M3.57451 1.53113L3.40429 1.78632L3.74472 1.95644L3.57451 1.53113ZM1.70217 0.850638L1.44686 1.02076L1.87239 1.19088L1.70217 0.850638Z" fill="#964C38"/>
<path d="M1.27667 0.595422L0.936249 1.02073L1.53199 1.19085L1.27667 0.595422ZM2.72348 2.12654L2.89369 2.29666L2.97878 2.04147L2.72348 2.12654ZM3.65963 1.10579L3.57454 1.27592H3.82984L3.65963 1.10579ZM3.82984 1.87135L3.74474 2.12654H4.00006L3.82984 1.87135ZM0.76604 0.510361L0.425609 0.850611L0.936249 0.935672L0.76604 0.510361ZM1.44689 1.78629H1.27667L1.36178 2.04147L1.44689 1.78629ZM1.95752 2.55185L1.87242 2.29666L1.7022 2.46679L1.95752 2.55185ZM2.63837 0.4253L2.80857 0.255172L2.55325 0.0850509L2.63837 0.4253ZM1.6171 0.4253L1.36178 0.680483L1.78731 0.765544L1.6171 0.4253ZM1.19157 0.680483L0.936249 0.510361V0.850611L1.19157 0.680483Z" fill="#964C38"/>
<path d="M1.19156 0.680495V0.425313H0.936236L1.19156 0.680495ZM3.2341 1.02074L3.40431 1.27593L3.57454 1.02074H3.2341ZM2.89368 0.255185L2.80857 0.850622L3.40431 0.680495L2.89368 0.255185Z" fill="#964C38"/>
<path d="M2.63833 0.680493L2.89365 0.850622L2.97875 0.510372L2.63833 0.680493ZM0.595782 1.44605L0.42556 1.70124H0.680881L0.595782 1.44605ZM2.12768 0.0850609L1.87238 0L1.95747 0.340243L2.12768 0.0850609ZM1.61705 1.61618L1.78726 1.87136L1.95747 1.53111L1.61705 1.61618ZM2.29791 2.72199L2.21279 2.89211L2.46812 2.97718L2.29791 2.72199ZM0.510671 0.850622L0.340461 1.1058L0.680881 1.19086L0.510671 0.850622Z" fill="#964C38"/>
<path d="M1.27663 2.72198L1.02132 2.63692L1.10642 2.8921L1.27663 2.72198ZM0.340461 1.36099L0.595785 1.27593L0.425561 1.02074L0.340461 1.36099Z" fill="#964C38"/>
<path d="M0.0851115 2.29666H0.255322L0.170223 2.04148L0.0851115 2.29666ZM0.255322 1.44604L0.425532 1.36098L0.340433 1.19086L0.255322 1.44604ZM0.851063 1.19086V1.44604L1.10638 1.27592L0.851063 1.19086ZM0 1.95641H0.340433L0.170223 1.61617L0 1.95641ZM0.510643 2.04148V2.2116L0.765965 2.04148H0.510643ZM2.21277 0.935673L1.95745 1.10579L2.21277 1.27592V0.935673ZM3.40425 2.2116L3.48936 2.55185L3.74469 2.38172L3.40425 2.2116ZM1.70213 0.340236L1.78724 0.680485L2.04256 0.425303L1.70213 0.340236ZM2.55319 1.27592L2.38298 1.10579L2.29788 1.36098L2.55319 1.27592Z" fill="#964C38"/>
</svg>
