<svg width="9" height="13" viewBox="0 0 9 13" fill="none" xmlns="http://www.w3.org/2000/svg">
<path d="M5.38702 12.1168C6.21174 11.9265 7.60742 11.4189 8.3687 11.2285C8.48285 11.2049 8.59037 11.1564 8.68359 11.0864C8.77682 11.0164 8.85344 10.9266 8.90798 10.8236C8.96252 10.7206 8.99365 10.6067 8.99913 10.4903C9.0046 10.3738 8.98429 10.2576 8.93965 10.1499L5.76766 0.886254C5.72517 0.754792 5.6563 0.63339 5.56527 0.529477C5.47423 0.425563 5.36293 0.341327 5.23821 0.281927C5.1135 0.222528 4.97798 0.189214 4.83993 0.184027C4.70189 0.17884 4.56424 0.201887 4.43542 0.251759L1.70752 1.26695C1.57607 1.30945 1.45468 1.37833 1.35078 1.46938C1.24689 1.56043 1.16265 1.67172 1.10326 1.79646C1.04387 1.9212 1.01058 2.05675 1.0054 2.19481C1.00021 2.33287 1.02325 2.47054 1.07312 2.59939L4.05478 11.7996C4.18166 12.4341 4.68918 12.3072 5.38702 12.1168Z" fill="#1F2B36"/>
<path d="M1.00971 5.64496C0.515835 4.87619 0.191432 4.01098 0.0581125 3.10698C-0.132206 2.15524 0.0581125 1.71109 1.9613 1.07659C3.92793 0.378648 5.0064 -0.192402 5.70424 0.0613964C6.46551 0.315195 6.65583 0.695895 6.97303 1.52074C7.35367 2.72628 7.86119 3.93183 7.03647 4.37597C5.71404 4.92685 4.35793 5.39309 2.97634 5.77186C2.02474 6.08911 1.51722 6.15256 1.00971 5.64496Z" fill="#1F2B36"/>
</svg>
