<svg width="28" height="235" viewBox="0 0 28 235" fill="none" xmlns="http://www.w3.org/2000/svg">
<path d="M16.1332 33.4946L15.0035 34.5037L16.1332 34.9753V33.4946Z" fill="#E8BF89"/>
<path d="M12.6016 34.6791L12.7771 34.7888L12.7552 34.2404L13.5229 34.5037L13.3036 33.6811L12.7552 34.2295L12.7113 33.9333L12.0533 34.2843L12.6016 34.6572L11.9765 35.1617L12.799 35.3262L12.6016 34.6791ZM13.6545 40.4919L12.0971 40.108L12.8868 41.7202L13.6545 40.4919ZM14.0603 20.9917L13.3145 20.8162L13.2707 21.0027L12.5249 20.8162L13.0403 21.9349L13.5448 21.4633L14.0603 20.9917ZM15.1022 35.403L15.3216 36.0062L15.7164 35.3481L14.9487 35.2714L14.3784 34.394L13.7422 35.7101L15.1022 35.403ZM10.2985 39.5925L10.9126 39.9764L11.0772 39.3184L10.2985 39.5925ZM8.98237 41.3474L9.01527 42.1809L9.5088 41.5886L8.98237 41.3474ZM15.3654 40.2725L15.9138 38.9565L14.5209 39.1758L15.3654 40.2725ZM13.5887 35.8417L12.6674 35.9513L13.1829 36.6314L13.5887 35.8417Z" fill="#E8BF89"/>
<path d="M13.8958 39.121L15.2119 38.8578L14.7513 38.419L15.5958 37.7171L14.5539 37.3662L14.6635 38.2874L14.0713 37.9255L13.8958 39.121Z" fill="#E8BF89"/>
<path d="M9.77203 37.6952L9.69525 38.1339L10.1888 37.9913L9.77203 37.6952ZM10.2327 26.7826L10.4081 27.3309L10.7043 26.8264L10.2327 26.7826ZM10.3204 42.9925L10.5398 43.5189L10.781 42.9925H10.3204Z" fill="#E8BF89"/>
<path d="M13.3694 42.7951L15.0145 42.3564L14.839 42.0822L14.9487 41.6435L14.5648 41.7751L14.0164 41.1719L13.3694 42.7951Z" fill="#E8BF89"/>
<path d="M11.6585 49.9458L13.3036 49.5072L13.1281 49.233L13.2378 48.7943L12.8539 48.9369L12.3056 48.3227L11.6585 49.9458ZM11.1101 37.5855L11.9875 37.7281L11.5488 36.9055L11.1101 37.5855ZM10.8908 35.0301L10.4521 34.9753L10.6056 35.5456L10.8908 35.0301ZM10.3643 33.9662L10.145 33.2205L9.70627 33.8785L10.3643 33.9662ZM11.0224 38.4958L10.7372 37.7281L10.3204 38.452L11.0224 38.4958ZM10.9566 21.902L10.7591 21.1343L10.2985 21.7924L10.9566 21.902ZM12.7552 21.5072L12.3714 20.4982L11.8449 21.4633L12.7552 21.5072ZM13.1939 27.2103L12.8649 25.9381L12.0972 27.0348L13.1939 27.2103ZM13.7642 25.6419L13.4352 24.3697L12.6675 25.4664L13.7642 25.6419ZM16.1332 31.696L14.0933 32.9024L16.1222 33.5824L16.1332 31.696ZM13.2159 27.4187L12.5249 28.6251L13.9836 28.2961L13.2159 27.4187ZM12.9526 38.5836L11.8998 38.5616L12.4481 39.6364L12.9526 38.5836ZM11.8559 39.0442L11.5707 38.2765L10.8249 38.9345L11.8559 39.0442ZM14.4552 40.6893L13.9068 39.6145L13.0514 40.7113L14.4552 40.6893ZM10.1121 40.9854L10.7262 41.3693L10.9127 40.6016L10.1121 40.9854ZM10.3972 23.0536L10.803 23.6349L10.8798 22.9768L10.3972 23.0536ZM11.2746 27.3309L11.8559 27.3748L11.6365 26.8264L11.2746 27.3309Z" fill="#E8BF89"/>
<path d="M14.6636 31.3779L14.6087 31.5973L15.1132 31.3779L15.179 32.0689L15.859 31.5644L15.1132 31.3779L15.519 31.1367L14.8171 30.7418L14.7074 31.2902L13.9836 31.0051L14.2249 31.8495L14.6636 31.3779Z" fill="#E8BF89"/>
<path d="M13.8629 30.5005L13.0623 30.9831L13.6545 31.356L13.8629 30.5005ZM13.8081 32.3869L13.9836 31.6411L13.2159 32.025L13.8081 32.3869ZM14.9268 30.018L14.6855 29.1734L14.181 29.8315L14.9268 30.018ZM8.94951 36.1268L8.67532 36.5436L9.11402 36.4888L8.94951 36.1268ZM13.5887 38.0681L12.8978 38.4629L13.6107 38.8358L13.6655 37.9803L14.4332 37.3442L13.2597 36.8288L13.5887 38.0681ZM12.5468 41.6106L11.7462 40.6893L11.2307 41.8957L10.9895 41.9725L11.494 42.5209L11.823 41.8628L12.5468 41.6106ZM11.2527 37.0371L10.5069 36.8178L10.8579 37.6074L11.2527 37.0371ZM10.3533 39.3184L9.58563 39.1319L9.98046 39.9325L10.3533 39.3184Z" fill="#E8BF89"/>
<path d="M10.1339 44.7144L10.2216 44.3854L9.71712 44.495L9.91453 44.6596L9.60747 45.4053L10.5287 45.0434L10.1339 44.7144Z" fill="#E8BF89"/>
<path d="M13.6326 43.4421L13.7094 43.1131L13.2158 43.2228L13.4022 43.3873L13.1062 44.1331L14.0164 43.7712L13.6326 43.4421Z" fill="#E8BF89"/>
<path d="M10.3643 41.5009L10.4411 41.1719L9.94753 41.2815L10.134 41.446L9.83788 42.1918L10.7481 41.8299L10.3643 41.5009Z" fill="#E8BF89"/>
<path d="M11.5597 25.4116L12.13 25.8064L12.3494 25.0606L11.5597 25.4116ZM13.0951 32.5405L12.3055 31.6082L11.779 32.8147L11.5378 32.9024L12.0423 33.4508L12.3713 32.7927L13.0951 32.5405ZM13.0074 36.8507L12.3494 37.9474L13.7203 37.761L13.0074 36.8507Z" fill="#E8BF89"/>
<path d="M13.4461 40.0312L13.4242 39.45L13.5777 39.121L13.3364 39.1977L13.2267 39.0661L13.0842 39.2855L12.9745 39.2745L13.0842 39.2855L12.7003 39.5816L13.4461 40.0312Z" fill="#E8BF89"/>
<path d="M15.9138 29.4476L15.8261 29.3818L15.2448 29.7767L14.7403 30.0728L16.1332 31.1366V29.338L15.9138 29.4476Z" fill="#E8BF89"/>
<path d="M15.2338 30.8625L15.826 31.2354L15.7931 30.4347L15.2338 30.8625ZM13.479 33.5276L14.0054 32.9353L13.2377 32.8257L13.479 33.5276ZM10.3203 28.9761L9.55263 28.8993L9.95842 29.5573L10.3203 28.9761ZM11.9655 28.9212L11.1977 28.8445L11.6035 29.5025L11.9655 28.9212ZM12.7771 32.3211L13.5009 32.1566L12.8429 31.6631L12.7771 32.3211ZM13.8738 30.1276L12.6893 29.3928L12.5358 30.4896L13.8738 30.1276Z" fill="#E8BF89"/>
<path d="M13.2597 33.9991L14.4003 34.8437L14.5538 33.7469L14.9925 34.2953L15.497 33.1766L14.6964 33.2095L14.5319 32.4966L14.0274 33.1547L14.2468 33.1985L14.488 33.6043L13.2597 33.9991Z" fill="#E8BF89"/>
<path d="M13.2597 19.8621L14.4003 20.7066L14.5538 19.6098L14.9925 20.1582L15.497 19.0395L14.6964 19.0724L14.5319 18.3595L14.0274 19.0176L14.2468 19.0615L14.488 19.4673L13.2597 19.8621Z" fill="#E8BF89"/>
<path d="M12.9526 35.4359L13.6106 34.8875L12.7552 34.7121L12.9526 35.4359ZM14.4661 31.7399L14.2906 32.4857L14.9816 32.4199L14.4661 31.7399ZM14.9048 30.3799L14.159 30.2044L14.4222 30.9502L14.9048 30.3799ZM16.1441 35.0959V38.792L13.3364 36.2365L16.1441 35.0959ZM16.1441 19.6756V23.3717L13.3364 20.8163L16.1441 19.6756Z" fill="#E8BF89"/>
<path d="M16.1113 39.5267L16.0564 42.2686L14.3016 40.7661L16.1113 39.5267Z" fill="#E8BF89"/>
<path d="M16.1113 17.4053L16.0564 20.1472L14.3016 18.6447L16.1113 17.4053Z" fill="#E8BF89"/>
<path d="M15.3654 27.6928L15.9138 26.3768L14.5209 26.5961L15.3654 27.6928Z" fill="#E8BF89"/>
<path d="M13.8958 26.5522L15.2119 26.3L14.7513 25.8613L15.5958 25.1593L14.5539 24.7974L14.6635 25.7297L14.0713 25.3677L13.8958 26.5522Z" fill="#E8BF89"/>
<path d="M16.1441 22.5272V26.2342L13.3364 23.6678L16.1441 22.5272ZM16.1112 26.9471L16.0564 29.6889L14.3016 28.1754L16.1112 26.9471ZM16.1331 46.2169L15.0035 47.204L16.1331 47.6756V46.2169Z" fill="#E8BF89"/>
<path d="M15.1022 48.0923L15.3216 48.6956L15.7164 48.0375L14.9487 47.9717L14.3784 47.0943L13.7423 48.4104L15.1022 48.0923Z" fill="#E8BF89"/>
<path d="M15.3655 52.9729L15.9138 51.6568L14.521 51.8761L15.3655 52.9729ZM13.8958 51.8432L15.2119 51.58L14.7513 51.1413L15.5958 50.4394L14.5539 50.0775L14.6635 51.0097L14.0713 50.6478L13.8958 51.8432ZM12.9307 23.3497L14.5758 22.933L14.4113 22.6478L14.521 22.2091L14.1371 22.3517L13.5887 21.7375L12.9307 23.3497ZM16.1332 44.3853L14.0932 45.6137L16.1222 46.2937L16.1332 44.3853ZM14.4661 53.4116L13.9178 52.3148L13.0623 53.4116H14.4661ZM14.6635 44.0892L14.6087 44.3086L15.1132 44.0892L15.179 44.7802L15.859 44.2647L15.1132 44.0892L15.519 43.848L14.8171 43.4531L14.7074 43.9796L13.9836 43.6944L14.2248 44.5389L14.6635 44.0892ZM13.5887 50.7794L12.8978 51.1852L13.6107 51.5581L13.6655 50.7026L14.4332 50.0665L13.2597 49.5401L13.5887 50.7794ZM15.9138 42.159L15.8261 42.0931L15.2448 42.488L14.7403 42.7951L16.1332 43.8589V42.0602L15.9138 42.159Z" fill="#E8BF89"/>
<path d="M15.2338 43.5737L15.8261 43.9466L15.7932 43.146L15.2338 43.5737ZM13.2597 46.7214L14.4003 47.5659L14.5538 46.4692L14.9925 47.0175L15.497 45.8879L14.6964 45.9208L14.5319 45.2079L14.0274 45.8659L14.2468 45.9208L14.488 46.3156L13.2597 46.7214ZM14.4661 44.4511L14.2906 45.1969L14.9816 45.1421L14.4661 44.4511ZM14.9048 43.1022L14.159 42.9157L14.4222 43.6615L14.9048 43.1022ZM16.1441 47.8182V51.5142L13.3365 48.9588L16.1441 47.8182Z" fill="#E8BF89"/>
<path d="M16.1113 52.238L16.0564 54.9799L14.3016 53.4774L16.1113 52.238Z" fill="#E8BF89"/>
<path d="M11.8997 33.7469L10.6494 33.9662L11.5926 34.8217L11.8997 33.7469ZM10.5617 48.202L11.1759 48.5969L11.3404 47.9388L10.5617 48.202ZM11.9436 47.3246L12.5468 47.7085L12.7113 47.0505L11.9436 47.3246ZM12.459 44.0015L13.2487 42.7512H11.7681L12.459 44.0015ZM12.4042 23.9859L13.1939 22.7356L11.7133 22.7246L12.4042 23.9859ZM13.15 46.0853L13.9397 44.835H12.459L13.15 46.0853ZM10.6823 33.2534L11.5597 33.3959L11.121 32.5734L10.6823 33.2534ZM12.4919 45.3395L12.0971 44.3305L11.5816 45.2847L12.4919 45.3395ZM14.488 27.9451L14.159 26.6839L13.3913 27.7587L14.488 27.9451ZM12.5358 30.4347L11.2526 30.7638L12.3494 31.5315L12.5358 30.4347ZM11.3952 45.9756L11.121 45.2079L10.3752 45.866L11.3952 45.9756ZM13.6326 48.2788L13.3584 47.5111L12.6126 48.1691L13.6326 48.2788ZM12.7552 47.0176L12.47 46.2498L11.7242 46.9079L12.7552 47.0176ZM10.3423 44.166L10.9565 44.5608L11.143 43.7931L10.3423 44.166ZM12.2726 35.7759L11.5378 35.5565L11.8668 36.3243L12.2726 35.7759ZM10.2217 47.884L9.45395 47.6975L9.83782 48.4981L10.2217 47.884Z" fill="#E8BF89"/>
<path d="M10.77 50.0117L10.8468 49.6826L10.3532 49.7923L10.5397 49.9568L10.2436 50.7026L11.1538 50.3407L10.77 50.0117Z" fill="#E8BF89"/>
<path d="M11.7242 29.996L10.9565 29.9192L11.3623 30.5773L11.7242 29.996ZM11.1978 25.0826L10.4301 25.0168L10.8249 25.6748L11.1978 25.0826ZM16.1331 70.1041L15.0035 71.1131L16.1331 71.5737V70.1041ZM12.6016 71.2885L12.7771 71.3982L12.7551 70.8499L13.5229 71.1131L13.3035 70.2905L12.7551 70.8389L12.7113 70.5318L12.0532 70.8828L12.6016 71.2666L11.9765 71.7602L12.799 71.9357L12.6016 71.2885ZM13.6545 77.0684L12.0971 76.6846L12.8868 78.2968L13.6545 77.0684Z" fill="#E8BF89"/>
<path d="M14.0604 57.5902L13.8739 57.5463L13.3256 57.4038L13.2817 57.5902L12.5359 57.4147L13.0514 58.5114L13.5559 58.0508L14.0604 57.5902Z" fill="#E8BF89"/>
<path d="M15.1022 71.9905L15.3216 72.5827L15.7164 71.9247L14.9487 71.8589L14.3784 70.9815L13.7422 72.2976L15.1022 71.9905ZM10.2985 76.191L10.9126 76.5859L11.0772 75.9278L10.2985 76.191ZM8.98237 77.9458L9.01527 78.7793L9.5088 78.1981L8.98237 77.9458ZM15.3654 76.871L15.9138 75.5549L14.5209 75.7743L15.3654 76.871ZM13.5887 72.4402L12.6674 72.5498L13.1829 73.2408L13.5887 72.4402Z" fill="#E8BF89"/>
<path d="M13.8958 75.7304L15.2119 75.4781L14.7513 75.0394L15.5958 74.3375L14.5539 73.9756L14.6635 74.9078L14.0713 74.5459L13.8958 75.7304Z" fill="#E8BF89"/>
<path d="M9.77203 74.2827L9.69525 74.7433L10.1888 74.5898L9.77203 74.2827ZM10.2327 63.392L10.4081 63.9404L10.7043 63.4359L10.2327 63.392ZM10.3204 79.5909L10.5398 80.1174L10.781 79.5909H10.3204ZM13.3694 79.4045L15.0145 78.9658L14.839 78.6916L14.9487 78.2529L14.5648 78.3955L14.0164 77.7923L13.3694 79.4045ZM11.6584 86.5334L13.3036 86.1166L13.1281 85.8314L13.2378 85.3927L12.8539 85.5353L12.3055 84.9211L11.6584 86.5334ZM11.1101 74.173L11.9875 74.3046L11.5488 73.493L11.1101 74.173ZM10.8907 71.6176L10.452 71.5627L10.6056 72.144L10.8907 71.6176ZM10.3643 70.5537L10.1449 69.786L9.70623 70.466L10.3643 70.5537ZM11.0223 75.0833L10.7372 74.3156L10.3204 75.0394L11.0223 75.0833ZM10.9565 58.4895L10.7591 57.7218L10.2985 58.3798L10.9565 58.4895ZM12.7552 58.1057L12.3713 57.0967L11.8449 58.0508L12.7552 58.1057ZM13.1939 63.7868L12.8649 62.5256L12.0971 63.6004L13.1939 63.7868ZM13.7642 62.2075L13.4352 60.9462L12.6674 62.0211L13.7642 62.2075ZM16.1332 68.2835L14.0932 69.4899L16.1222 70.1699L16.1332 68.2835ZM13.2158 64.0062L12.5249 65.2345L13.9835 64.9055L13.2158 64.0062ZM11.7242 51.9968L11.0333 53.2251L12.492 52.8961L11.7242 51.9968ZM12.2397 49.913L11.5488 51.1413L13.0074 50.8123L12.2397 49.913ZM13.0074 88.1346L11.7681 87.4765L12.152 88.9352L13.0074 88.1346ZM11.9436 89.7468L10.6933 89.0888L11.0772 90.5365L11.9436 89.7468ZM12.9526 75.1601L11.8997 75.1381L12.4481 76.2349L12.9526 75.1601ZM11.8558 75.6317L11.5707 74.864L10.8249 75.5001L11.8558 75.6317ZM14.4551 77.2768L13.9068 76.1801L13.0513 77.2768H14.4551ZM10.112 77.5839L10.7262 77.9678L10.9126 77.2L10.112 77.5839ZM10.3972 59.6521L10.803 60.2224L10.8797 59.5644L10.3972 59.6521ZM11.2746 63.9294L11.8558 63.9842L11.6365 63.4359L11.2746 63.9294Z" fill="#E8BF89"/>
<path d="M14.6636 67.9654L14.6087 68.1848L15.1132 67.9654L15.179 68.6563L15.859 68.1409L15.1132 67.9654L15.519 67.7241L14.8171 67.3293L14.7074 67.8557L13.9836 67.5706L14.2249 68.426L14.6636 67.9654Z" fill="#E8BF89"/>
<path d="M13.8629 67.1099L13.0623 67.5925L13.6545 67.9654L13.8629 67.1099ZM13.8081 68.9963L13.9836 68.2506L13.2158 68.6234L13.8081 68.9963ZM14.9268 66.6164L14.6855 65.761L14.181 66.419L14.9268 66.6164ZM9.81592 71.9356L9.54173 72.3414L9.98044 72.2866L9.81592 71.9356Z" fill="#E8BF89"/>
<path d="M13.5887 74.6556L12.8978 75.0614L13.6107 75.4343L13.6655 74.5788L14.4332 73.9427L13.2597 73.4272L13.5887 74.6556Z" fill="#E8BF89"/>
<path d="M12.5468 78.22L11.7462 77.2877L11.2307 78.4942L10.9894 78.571L11.4939 79.1193L11.8229 78.4613L12.5468 78.22ZM11.2526 73.6685L10.5068 73.4491L10.8578 74.2388L11.2526 73.6685ZM10.3533 75.9278L9.58556 75.7304L9.98039 76.542L10.3533 75.9278Z" fill="#E8BF89"/>
<path d="M10.1339 81.3128L10.2216 80.9838L9.71712 81.0935L9.91453 81.258L9.60747 82.0038L10.5287 81.6418L10.1339 81.3128Z" fill="#E8BF89"/>
<path d="M13.6326 80.0296L13.7094 79.7006L13.2158 79.8103L13.4023 79.9748L13.1062 80.7425L14.0165 80.3806L13.6326 80.0296Z" fill="#E8BF89"/>
<path d="M10.4081 78.7135L10.4849 78.3845L9.99135 78.4942L10.1778 78.6587L9.88171 79.4264L10.792 79.0535L10.4081 78.7135Z" fill="#E8BF89"/>
<path d="M11.5597 61.9991L12.13 62.3939L12.3493 61.6591L11.5597 61.9991Z" fill="#E8BF89"/>
<path d="M13.1061 69.1389L12.3165 68.2177L11.7901 69.4241L11.5488 69.5008L12.0533 70.0492L12.3823 69.3912L13.1061 69.1389Z" fill="#E8BF89"/>
<path d="M13.0184 73.4491L12.3603 74.5459L13.7313 74.3595L13.0184 73.4491ZM13.4571 76.6297L13.4351 76.0485L13.5887 75.7194L13.3474 75.8072L13.2377 75.6755L13.0952 75.8949L12.9855 75.8839L13.0952 75.8949L12.7113 76.191L13.4571 76.6297Z" fill="#E8BF89"/>
<path d="M15.9138 66.0571L15.8261 65.9913L15.2448 66.3751L14.7403 66.6822L16.1332 67.7461V65.9474L15.9138 66.0571Z" fill="#E8BF89"/>
<path d="M15.2338 67.4719L15.826 67.8338L15.7931 67.0332L15.2338 67.4719ZM13.479 70.1589L14.0054 69.5667L13.2377 69.457L13.479 70.1589ZM10.3203 65.5745L9.55263 65.4977L9.95842 66.1558L10.3203 65.5745ZM11.1977 54.1464L11.3732 54.6948L11.6693 54.1903L11.1977 54.1464ZM9.96938 51.5142L10.1449 52.0626L10.43 51.5581L9.96938 51.5142ZM11.2855 56.318L10.5178 56.2412L10.9236 56.8992L11.2855 56.318ZM11.9764 65.5526L11.2087 65.4758L11.6145 66.1339L11.9764 65.5526ZM12.788 68.9196L13.5119 68.7551L12.8538 68.2506L12.788 68.9196ZM13.8848 66.7261L12.7003 65.9913L12.5467 67.088L13.8848 66.7261Z" fill="#E8BF89"/>
<path d="M13.2597 70.5976L14.4003 71.4421L14.5538 70.3454L14.9925 70.8937L15.497 69.7751L14.6964 69.808L14.5319 69.0841L14.0274 69.7422L14.2468 69.797L14.488 70.1918L13.2597 70.5976Z" fill="#E8BF89"/>
<path d="M13.2597 56.4715L14.4003 57.316L14.5538 56.2192L14.9925 56.7676L15.497 55.649L14.6964 55.6819L14.5319 54.958L14.0274 55.6161L14.2468 55.6709L14.488 56.0657L13.2597 56.4715Z" fill="#E8BF89"/>
<path d="M12.9526 72.0234L13.6106 71.475L12.7552 71.2995L12.9526 72.0234ZM14.4661 68.3383L14.2906 69.0841L14.9816 69.0292L14.4661 68.3383ZM14.9048 66.9783L14.159 66.8028L14.4222 67.5377L14.9048 66.9783ZM16.1441 71.6944V75.4013L13.3364 72.8349L16.1441 71.6944ZM16.1441 56.296V59.992L13.3364 57.4366L16.1441 56.296ZM16.1112 76.1471L16.0564 78.889L14.3016 77.3755L16.1112 76.1471Z" fill="#E8BF89"/>
<path d="M16.1113 54.0148L16.0564 56.7566L14.3016 55.2541L16.1113 54.0148Z" fill="#E8BF89"/>
<path d="M15.3654 64.2913L15.9138 62.9752L14.5209 63.1946L15.3654 64.2913Z" fill="#E8BF89"/>
<path d="M13.8958 63.1617L15.2119 62.8984L14.7513 62.4597L15.5958 61.7469L14.5539 61.3959L14.6635 62.3281L14.0713 61.9662L13.8958 63.1617Z" fill="#E8BF89"/>
<path d="M16.1441 59.1366V62.8326L13.3364 60.2772L16.1441 59.1366ZM14.2138 53.3787V55.5722L12.5687 54.0587L14.2138 53.3787Z" fill="#E8BF89"/>
<path d="M16.1113 63.5565L16.0564 66.2984L14.3016 64.7958L16.1113 63.5565Z" fill="#E8BF89"/>
<path d="M16.1332 82.8154L15.0035 83.8244L16.1332 84.296V82.8154Z" fill="#E8BF89"/>
<path d="M15.1022 84.7018L15.3216 85.305L15.7164 84.647L14.9487 84.5702L14.3784 83.6928L13.7423 85.0089L15.1022 84.7018ZM15.3655 89.5713L15.9138 88.2552L14.521 88.4746L15.3655 89.5713Z" fill="#E8BF89"/>
<path d="M13.8958 88.4527L15.2119 88.1894L14.7513 87.7507L15.5958 87.0488L14.5539 86.6979L14.6635 87.6191L14.0713 87.2572L13.8958 88.4527Z" fill="#E8BF89"/>
<path d="M12.9307 59.9592L14.5758 59.5205L14.4113 59.2463L14.521 58.8076L14.1371 58.9392L13.5888 58.336L12.9307 59.9592ZM16.1332 81.0167L14.0933 82.2231L16.1222 82.9031L16.1332 81.0167ZM14.4662 90.01L13.9178 88.9352L13.0623 90.032L14.4662 90.01Z" fill="#E8BF89"/>
<path d="M14.6636 80.6877L14.6087 80.907L15.1132 80.6877L15.179 81.3786L15.859 80.8741L15.1132 80.6877L15.519 80.4464L14.8171 80.0515L14.7074 80.5999L13.9836 80.3148L14.2249 81.1593L14.6636 80.6877Z" fill="#E8BF89"/>
<path d="M13.5887 87.3778L12.8978 87.7727L13.6107 88.1456L13.6655 87.2901L14.4332 86.654L13.2597 86.1385L13.5887 87.3778Z" fill="#E8BF89"/>
<path d="M15.9138 78.7684L15.8261 78.7026L15.2448 79.0974L14.7403 79.3935L16.1332 80.4574V78.6587L15.9138 78.7684Z" fill="#E8BF89"/>
<path d="M15.2338 80.1832L15.826 80.5561L15.7931 79.7554L15.2338 80.1832Z" fill="#E8BF89"/>
<path d="M13.2597 83.3199L14.4003 84.1644L14.5538 83.0676L14.9925 83.616L15.497 82.4973L14.6964 82.5302L14.5319 81.8173L14.0274 82.4754L14.2468 82.5193L14.488 82.925L13.2597 83.3199Z" fill="#E8BF89"/>
<path d="M14.4661 81.0606L14.2906 81.8064L14.9816 81.7405L14.4661 81.0606ZM14.9048 79.7006L14.159 79.5251L14.4222 80.2709L14.9048 79.7006ZM16.1441 84.4166V88.1127L13.3364 85.5572L16.1441 84.4166Z" fill="#E8BF89"/>
<path d="M16.1113 88.8475L16.0564 91.5893L14.3016 90.0868L16.1113 88.8475Z" fill="#E8BF89"/>
<path d="M11.8997 70.3454L10.6494 70.5866L11.5926 71.4421L11.8997 70.3454ZM10.5617 84.8224L11.1759 85.2063L11.3404 84.5482L10.5617 84.8224ZM11.9436 83.945L12.5468 84.3399L12.7113 83.6818L11.9436 83.945ZM12.459 80.6328L13.2487 79.3716H11.7681L12.459 80.6328ZM12.4042 60.5953L13.1939 59.345L11.7133 59.334L12.4042 60.5953ZM13.15 82.7167L13.9397 81.4554H12.459L13.15 82.7167ZM10.6823 69.8847L11.5597 70.0163L11.121 69.2047L10.6823 69.8847ZM12.4919 81.9709L12.0971 80.9619L11.5816 81.916L12.4919 81.9709ZM14.488 64.5655L14.159 63.2933L13.3913 64.39L14.488 64.5655ZM12.5358 67.0661L11.2526 67.3951L12.3494 68.1628L12.5358 67.0661ZM12.9307 54.7277L11.6365 55.0567L12.7332 55.8244L12.9307 54.7277ZM11.3952 82.607L11.121 81.8393L10.3752 82.4973L11.3952 82.607ZM13.6326 84.8882L13.3584 84.1205L12.6126 84.7785L13.6326 84.8882ZM12.7552 83.6379L12.47 82.8702L11.7242 83.5063L12.7552 83.6379ZM10.3423 80.7864L10.9565 81.1702L11.143 80.4025L10.3423 80.7864ZM12.2726 72.3853L11.5378 72.166L11.8668 72.9556L12.2726 72.3853ZM10.2217 84.5044L9.45395 84.307L9.83782 85.1185L10.2217 84.5044ZM10.7701 86.643L10.8468 86.314L10.3533 86.4237L10.5397 86.5992L10.2436 87.3449L11.1539 86.983L10.7701 86.643ZM11.7242 66.6274L10.9565 66.5616L11.3623 67.2196L11.7242 66.6274ZM11.1978 61.7469L10.4301 61.6701L10.8249 62.3281L11.1978 61.7469Z" fill="#E8BF89"/>
<path d="M16.1332 107.668L15.0035 108.677L16.1332 109.148V107.668Z" fill="#E8BF89"/>
<path d="M12.6016 108.841L12.7771 108.951L12.7552 108.402L13.5229 108.666L13.3036 107.843L12.7552 108.392L12.7113 108.095L12.0533 108.424L12.6016 108.808L11.9765 109.313L12.799 109.477L12.6016 108.841ZM13.6545 114.654L12.0971 114.27L12.8868 115.882L13.6545 114.654ZM14.0603 95.1538L13.3145 94.9783L13.2707 95.1648L12.5249 94.9783L13.0403 96.097L13.5448 95.6254L14.0603 95.1538ZM15.1022 109.543L15.3216 110.135L15.7164 109.477L14.9487 109.411L14.3784 108.534L13.7422 109.85L15.1022 109.543ZM10.2985 113.755L10.9126 114.138L11.0772 113.48L10.2985 113.755ZM8.98237 115.509L9.01527 116.332L9.5088 115.751L8.98237 115.509ZM15.3654 114.435L15.9138 113.118L14.5209 113.338L15.3654 114.435ZM13.5887 110.015L12.6674 110.124L13.1829 110.804L13.5887 110.015Z" fill="#E8BF89"/>
<path d="M13.8958 113.294L15.2119 113.031L14.7513 112.592L15.5958 111.89L14.5539 111.539L14.6635 112.46L14.0713 112.099L13.8958 113.294Z" fill="#E8BF89"/>
<path d="M9.77203 111.835L9.69525 112.274L10.1888 112.131L9.77203 111.835ZM10.2327 100.945L10.4081 101.493L10.7043 100.988L10.2327 100.945ZM10.3204 117.155L10.5398 117.681L10.781 117.155H10.3204Z" fill="#E8BF89"/>
<path d="M13.3694 116.957L15.0145 116.518L14.839 116.244L14.9487 115.806L14.5648 115.937L14.0164 115.334L13.3694 116.957Z" fill="#E8BF89"/>
<path d="M11.6584 124.097L13.3035 123.68L13.1281 123.406L13.2377 122.967L12.8539 123.11L12.3055 122.496L11.6584 124.097ZM11.11 111.726L11.9874 111.868L11.5487 111.046L11.11 111.726ZM10.8907 109.203L10.452 109.148L10.6055 109.719L10.8907 109.203ZM10.3643 108.106L10.1449 107.339L9.70621 108.019L10.3643 108.106ZM11.0223 112.658L10.7372 111.89L10.3204 112.614L11.0223 112.658ZM10.9565 96.0421L10.7591 95.2744L10.2984 95.9325L10.9565 96.0421ZM12.7552 95.6692L12.3713 94.6603L11.8449 95.6144L12.7552 95.6692ZM13.1939 101.372L12.8648 100.1L12.0971 101.197L13.1939 101.372ZM13.7642 99.7821L13.4351 98.5098L12.6674 99.6066L13.7642 99.7821ZM16.1332 105.858L14.0932 107.064L16.1222 107.744L16.1332 105.858ZM13.2158 101.581L12.5248 102.809L13.9835 102.48L13.2158 101.581ZM12.9526 112.768L11.8997 112.735L12.4481 113.831L12.9526 112.768ZM11.8558 113.228L11.5707 112.46L10.8249 113.097L11.8558 113.228ZM14.4551 114.873L13.9068 113.798L13.0513 114.895L14.4551 114.873ZM10.112 115.169L10.7262 115.553L10.9126 114.786L10.112 115.169ZM10.3972 97.2376L10.803 97.8189L10.8797 97.1608L10.3972 97.2376ZM11.2746 101.515L11.8558 101.559L11.6365 101.01L11.2746 101.515ZM14.6525 105.551L14.5977 105.77L15.1022 105.551L15.168 106.242L15.848 105.737L15.1022 105.551L15.508 105.31L14.8061 104.915L14.6964 105.463L13.9726 105.167L14.2138 106.023L14.6525 105.551ZM13.8519 104.674L13.0513 105.156L13.6435 105.529L13.8519 104.674ZM13.7971 106.56L13.9726 105.814L13.2048 106.198L13.7971 106.56ZM14.9158 104.169L14.6745 103.325L14.17 103.983L14.9158 104.169ZM8.93849 110.311L8.66431 110.717L9.103 110.662L8.93849 110.311Z" fill="#E8BF89"/>
<path d="M13.5887 112.219L12.8978 112.625L13.6107 112.998L13.6655 112.142L14.4332 111.506L13.2597 110.991L13.5887 112.219Z" fill="#E8BF89"/>
<path d="M12.5468 115.784L11.7462 114.862L11.2307 116.069L10.9894 116.146L11.4939 116.694L11.8229 116.036L12.5468 115.784ZM11.2526 111.21L10.5068 110.991L10.8578 111.78L11.2526 111.21ZM10.3533 113.48L9.58556 113.294L9.98039 114.095L10.3533 113.48Z" fill="#E8BF89"/>
<path d="M10.1339 118.854L10.2216 118.525L9.71712 118.635L9.91453 118.8L9.60747 119.545L10.5287 119.184L10.1339 118.854Z" fill="#E8BF89"/>
<path d="M13.6326 117.604L13.7094 117.275L13.2158 117.385L13.4023 117.56L13.1062 118.306L14.0165 117.944L13.6326 117.604Z" fill="#E8BF89"/>
<path d="M10.3643 115.674L10.4411 115.345L9.94753 115.455L10.134 115.619L9.83788 116.365L10.7481 116.003L10.3643 115.674Z" fill="#E8BF89"/>
<path d="M11.5597 99.5517L12.13 99.9465L12.3494 99.2117L11.5597 99.5517ZM13.0951 106.681L12.3055 105.759L11.779 106.966L11.5378 107.053L12.0423 107.58L12.3713 106.922L13.0951 106.681ZM13.0074 111.013L12.3494 112.109L13.7203 111.923L13.0074 111.013Z" fill="#E8BF89"/>
<path d="M13.4461 114.193L13.4242 113.612L13.5777 113.283L13.3364 113.36L13.2267 113.228L13.0842 113.448L12.9745 113.437L13.0842 113.448L12.7003 113.744L13.4461 114.193Z" fill="#E8BF89"/>
<path d="M15.9138 103.61L15.8261 103.544L15.2448 103.928L14.7403 104.235L16.1332 105.299V103.5L15.9138 103.61Z" fill="#E8BF89"/>
<path d="M15.2338 105.035L15.826 105.397L15.7931 104.608L15.2338 105.035ZM13.479 107.701L14.0054 107.108L13.2377 106.999L13.479 107.701ZM10.3203 103.127L9.55263 103.061L9.95842 103.719L10.3203 103.127ZM11.9655 103.094L11.1977 103.017L11.6035 103.675L11.9655 103.094ZM12.7771 106.461L13.5009 106.297L12.8429 105.803L12.7771 106.461ZM13.8738 104.29L12.6893 103.555L12.5358 104.652L13.8738 104.29ZM13.2596 108.161L14.4002 109.006L14.5538 107.909L14.9925 108.457L15.497 107.339L14.6964 107.372L14.5319 106.659L14.0274 107.317L14.2467 107.372L14.488 107.766L13.2596 108.161Z" fill="#E8BF89"/>
<path d="M13.2597 94.0241L14.4003 94.8686L14.5538 93.7719L14.9925 94.3203L15.497 93.2016L14.6964 93.2345L14.5319 92.5216L14.0274 93.1796L14.2468 93.2235L14.488 93.6293L13.2597 94.0241Z" fill="#E8BF89"/>
<path d="M12.9526 109.587L13.6106 109.061L12.7552 108.885L12.9526 109.587ZM14.4661 105.891L14.2906 106.659L14.9816 106.593L14.4661 105.891ZM14.9048 104.542L14.159 104.366L14.4222 105.101L14.9048 104.542ZM16.1441 109.258V112.954L13.3364 110.388L16.1441 109.258ZM16.1441 93.8377V97.5337L13.3364 94.9783L16.1441 93.8377Z" fill="#E8BF89"/>
<path d="M16.1113 113.7L16.0564 116.442L14.3016 114.939L16.1113 113.7Z" fill="#E8BF89"/>
<path d="M16.1113 91.5784L16.0564 94.3202L14.3016 92.8068L16.1113 91.5784ZM15.3655 101.855L15.9139 100.517L14.521 100.736L15.3655 101.855Z" fill="#E8BF89"/>
<path d="M13.8958 100.714L15.2119 100.462L14.7513 100.023L15.5958 99.3214L14.5539 98.9595L14.6635 99.8917L14.0713 99.5298L13.8958 100.714Z" fill="#E8BF89"/>
<path d="M16.1441 96.7002V100.407L13.3364 97.8408L16.1441 96.7002ZM16.1112 101.12L16.0564 103.862L14.3016 102.348L16.1112 101.12Z" fill="#E8BF89"/>
<path d="M16.1332 120.368L15.0035 121.377L16.1332 121.849V120.368Z" fill="#E8BF89"/>
<path d="M15.1022 122.254L15.3216 122.858L15.7164 122.2L14.9487 122.134L14.3784 121.256L13.7423 122.572L15.1022 122.254Z" fill="#E8BF89"/>
<path d="M15.3654 127.135L15.9138 125.819L14.5209 126.038L15.3654 127.135Z" fill="#E8BF89"/>
<path d="M13.8958 126.005L15.2119 125.742L14.7513 125.303L15.5958 124.59L14.5539 124.239L14.6635 125.172L14.0713 124.81L13.8958 126.005Z" fill="#E8BF89"/>
<path d="M12.9307 97.5118L14.5758 97.095L14.4113 96.8099L14.521 96.3712L14.1371 96.5137L13.5887 95.8995L12.9307 97.5118ZM16.1332 118.569L14.0932 119.798L16.1222 120.456L16.1332 118.569ZM14.4661 127.563L13.9178 126.488L13.0623 127.585L14.4661 127.563ZM14.6635 118.24L14.6087 118.46L15.1132 118.24L15.179 118.942L15.859 118.427L15.1132 118.24L15.519 117.999L14.8171 117.604L14.7074 118.153L13.9836 117.867L14.2248 118.712L14.6635 118.24ZM13.5887 124.93L12.8978 125.325L13.6107 125.709L13.6655 124.854L14.4332 124.218L13.2597 123.691L13.5887 124.93Z" fill="#E8BF89"/>
<path d="M15.9138 116.332L15.8261 116.266L15.2448 116.661L14.7403 116.957L16.1332 118.021V116.222L15.9138 116.332Z" fill="#E8BF89"/>
<path d="M15.2338 117.736L15.8261 118.109L15.7932 117.308L15.2338 117.736ZM13.2597 120.883L14.4003 121.717L14.5538 120.62L14.9925 121.169L15.497 120.039L14.6964 120.072L14.5319 119.359L14.0274 120.017L14.2468 120.072L14.488 120.467L13.2597 120.883ZM14.4661 118.613L14.2906 119.359L14.9816 119.304L14.4661 118.613ZM14.9048 117.264L14.159 117.078L14.4222 117.824L14.9048 117.264ZM16.1441 121.98V125.676L13.3365 123.121L16.1441 121.98Z" fill="#E8BF89"/>
<path d="M16.1113 126.4L16.0564 129.142L14.3016 127.639L16.1113 126.4Z" fill="#E8BF89"/>
<path d="M11.8997 107.887L10.6494 108.128L11.5926 108.984L11.8997 107.887ZM10.5617 122.364L11.1759 122.748L11.3404 122.09L10.5617 122.364ZM11.9436 121.487L12.5468 121.871L12.7113 121.212L11.9436 121.487ZM12.459 118.164L13.2487 116.913L11.7681 116.902L12.459 118.164ZM12.4042 98.1259L13.1939 96.8647H11.7242L12.4042 98.1259ZM13.15 120.247L13.9397 118.997L12.459 118.986L13.15 120.247ZM10.6823 107.415L11.5597 107.558L11.121 106.735L10.6823 107.415ZM12.4919 119.502L12.0971 118.493L11.5816 119.447L12.4919 119.502ZM14.488 102.085L14.159 100.824L13.3913 101.899L14.488 102.085ZM12.5358 104.608L11.2526 104.937L12.3494 105.704L12.5358 104.608ZM11.3952 120.138L11.121 119.37L10.3752 120.028L11.3952 120.138ZM13.6326 122.441L13.3584 121.673L12.6126 122.331L13.6326 122.441ZM12.7552 121.18L12.47 120.412L11.7242 121.07L12.7552 121.18ZM10.3423 118.328L10.9565 118.712L11.143 117.944L10.3423 118.328ZM12.2726 109.938L11.5378 109.719L11.8668 110.486L12.2726 109.938ZM10.2217 122.057L9.45395 121.871L9.83782 122.671L10.2217 122.057Z" fill="#E8BF89"/>
<path d="M10.77 124.174L10.8468 123.845L10.3532 123.954L10.5397 124.119L10.2436 124.865L11.1538 124.503L10.77 124.174Z" fill="#E8BF89"/>
<path d="M11.7243 104.158L10.9566 104.081L11.3624 104.739L11.7243 104.158ZM12.6456 92.7519L11.8559 91.8306L11.3404 93.037L11.0882 93.1138L11.5927 93.6622L11.9217 93.0041L12.6456 92.7519ZM10.7372 91.8196L9.96949 91.7429L10.3753 92.4009L10.7372 91.8196ZM11.9765 90.1416L11.2088 90.0758L11.6146 90.7339L11.9765 90.1416ZM12.7881 93.5196L13.512 93.3551L12.8539 92.8616L12.7881 93.5196ZM15.5848 91.7319L14.4113 90.9971L14.2578 92.0938L15.5848 91.7319ZM10.6824 94.4519L11.5598 94.5944L11.1211 93.7828L10.6824 94.4519ZM13.8081 91.2932L12.5249 91.6222L13.6217 92.39L13.8081 91.2932ZM13.2159 90.5913L12.4481 90.5145L12.8539 91.1726L13.2159 90.5913ZM11.1979 99.2556L10.4301 99.1898L10.8249 99.8478L11.1979 99.2556ZM16.1332 144.266L15.0036 145.275L16.1332 145.736V144.266ZM12.6017 145.451L12.7772 145.56L12.7552 145.012L13.523 145.275L13.3036 144.442L12.7552 145.012L12.7114 144.705L12.0533 145.056L12.6017 145.44L11.9765 145.933L12.7991 146.109L12.6017 145.451ZM13.6546 151.241L12.0972 150.858L12.8868 152.47L13.6546 151.241Z" fill="#E8BF89"/>
<path d="M14.0604 131.752L13.8739 131.708L13.3256 131.566L13.2817 131.752L12.5359 131.577L13.0514 132.673L13.5559 132.213L14.0604 131.752Z" fill="#E8BF89"/>
<path d="M15.1022 146.142L15.3216 146.745L15.7164 146.087L14.9487 146.021L14.3784 145.143L13.7423 146.46L15.1022 146.142Z" fill="#E8BF89"/>
<path d="M10.2985 150.331L10.9126 150.726L11.0772 150.068L10.2985 150.331ZM8.98237 152.086L9.01527 152.919L9.5088 152.338L8.98237 152.086ZM15.3654 151.033L15.9138 149.717L14.5209 149.936L15.3654 151.033ZM13.5887 146.602L12.6674 146.712L13.1829 147.403L13.5887 146.602Z" fill="#E8BF89"/>
<path d="M13.8958 149.892L15.2119 149.64L14.7513 149.201L15.5958 148.5L14.5539 148.138L14.6635 149.07L14.0713 148.708L13.8958 149.892Z" fill="#E8BF89"/>
<path d="M9.77203 148.445L9.69525 148.883L10.1888 148.741L9.77203 148.445ZM10.2327 137.554L10.4081 138.102L10.7043 137.598L10.2327 137.554ZM10.3204 153.764L10.5398 154.29L10.781 153.764H10.3204ZM13.3694 153.567L15.0145 153.128L14.839 152.854L14.9487 152.415L14.5648 152.557L14.0164 151.954L13.3694 153.567Z" fill="#E8BF89"/>
<path d="M11.6585 160.706L13.3036 160.268L13.1281 159.993L13.2378 159.555L12.8539 159.686L12.3055 159.083L11.6585 160.706Z" fill="#E8BF89"/>
<path d="M11.0991 148.335L11.9765 148.478L11.5378 147.666L11.0991 148.335ZM10.8797 145.791L10.441 145.736L10.5946 146.306L10.8797 145.791ZM10.3533 144.738L10.134 143.97L9.69525 144.628L10.3533 144.738ZM11.0114 149.267L10.7262 148.5L10.3094 149.223L11.0114 149.267ZM10.9455 132.673L10.7481 131.906L10.2875 132.564L10.9455 132.673ZM12.7442 132.279L12.3604 131.27L11.8339 132.224L12.7442 132.279ZM13.1829 137.96L12.8539 136.699L12.0862 137.773L13.1829 137.96ZM13.7532 136.38L13.4242 135.119L12.6565 136.194L13.7532 136.38ZM16.1222 142.456L14.0822 143.663L16.1112 144.343L16.1222 142.456ZM13.2049 138.157L12.5139 139.386L13.9726 139.035L13.2049 138.157ZM11.7242 126.159L11.0333 127.387L12.492 127.058L11.7242 126.159ZM12.2397 124.075L11.5488 125.303L13.0074 124.952L12.2397 124.075ZM13.0074 162.308L11.7681 161.65L12.152 163.108L13.0074 162.308ZM11.9436 163.92L10.6933 163.262L11.0772 164.709L11.9436 163.92ZM12.9526 149.333L11.8997 149.311L12.4481 150.408L12.9526 149.333ZM11.8558 149.772L11.5707 149.004L10.8249 149.64L11.8558 149.772ZM14.4551 151.45L13.9068 150.353L13.0513 151.45H14.4551ZM10.112 151.746L10.7262 152.141L10.9126 151.373L10.112 151.746ZM10.3972 133.814L10.803 134.384L10.8797 133.726L10.3972 133.814ZM11.2746 138.091L11.8558 138.146L11.6365 137.598L11.2746 138.091Z" fill="#E8BF89"/>
<path d="M14.6636 142.138L14.6087 142.358L15.1132 142.138L15.179 142.829L15.859 142.314L15.1132 142.138L15.519 141.897L14.8171 141.502L14.7074 142.029L13.9836 141.744L14.2249 142.599L14.6636 142.138Z" fill="#E8BF89"/>
<path d="M13.8629 141.272L13.0623 141.755L13.6545 142.127L13.8629 141.272ZM13.8081 143.158L13.9836 142.413L13.2158 142.785L13.8081 143.158ZM14.9268 140.789L14.6855 139.934L14.181 140.592L14.9268 140.789ZM9.81592 146.098L9.54173 146.503L9.98044 146.449L9.81592 146.098Z" fill="#E8BF89"/>
<path d="M13.5887 148.829L12.8978 149.234L13.6107 149.607L13.6655 148.752L14.4332 148.116L13.2597 147.6L13.5887 148.829Z" fill="#E8BF89"/>
<path d="M12.5468 152.382L11.7462 151.45L11.2307 152.656L10.9894 152.744L11.4939 153.292L11.8229 152.634L12.5468 152.382ZM11.2526 147.809L10.5068 147.589L10.8578 148.379L11.2526 147.809ZM10.3533 150.09L9.58556 149.892L9.98039 150.693L10.3533 150.09ZM10.1339 155.486L10.2217 155.157L9.71716 155.266L9.91459 155.442L9.6075 156.188L10.5288 155.826L10.1339 155.486Z" fill="#E8BF89"/>
<path d="M13.6326 154.203L13.7094 153.874L13.2158 153.983L13.4022 154.148L13.1062 154.916L14.0164 154.543L13.6326 154.203Z" fill="#E8BF89"/>
<path d="M10.4081 152.887L10.4849 152.558L9.99135 152.667L10.1778 152.832L9.88171 153.599L10.792 153.227L10.4081 152.887Z" fill="#E8BF89"/>
<path d="M11.5597 136.161L12.13 136.556L12.3493 135.821L11.5597 136.161Z" fill="#E8BF89"/>
<path d="M13.1061 143.312L12.3165 142.391L11.7901 143.597L11.5488 143.674L12.0533 144.222L12.3823 143.564L13.1061 143.312Z" fill="#E8BF89"/>
<path d="M13.0184 147.611L12.3603 148.708L13.7313 148.521L13.0184 147.611ZM13.4571 150.792L13.4351 150.21L13.5887 149.881L13.3474 149.969L13.2377 149.838L13.0952 150.057L12.9855 150.035L13.0952 150.057L12.7113 150.342L13.4571 150.792ZM15.9248 140.208L15.837 140.131L15.2557 140.526L14.7512 140.833L16.1441 141.897V140.098L15.9248 140.208Z" fill="#E8BF89"/>
<path d="M15.2338 141.623L15.826 141.996L15.7931 141.195L15.2338 141.623ZM13.479 144.299L14.0054 143.707L13.2377 143.597L13.479 144.299ZM10.3203 139.737L9.55263 139.66L9.95842 140.318L10.3203 139.737ZM11.1977 128.286L11.3732 128.835L11.6693 128.33L11.1977 128.286ZM9.96938 125.687L10.1449 126.236L10.43 125.731L9.96938 125.687ZM11.2855 130.48L10.5178 130.403L10.9236 131.061L11.2855 130.48ZM11.9764 139.693L11.2087 139.616L11.6145 140.274L11.9764 139.693ZM12.788 143.093L13.5119 142.928L12.8538 142.424L12.788 143.093ZM13.8848 140.899L12.7003 140.153L12.5467 141.25L13.8848 140.899Z" fill="#E8BF89"/>
<path d="M13.2597 144.771L14.4003 145.615L14.5538 144.518L14.9925 145.067L15.497 143.948L14.6964 143.981L14.5319 143.257L14.0274 143.915L14.2468 143.97L14.488 144.365L13.2597 144.771Z" fill="#E8BF89"/>
<path d="M13.2597 130.634L14.4003 131.478L14.5538 130.381L14.9925 130.93L15.497 129.811L14.6964 129.844L14.5319 129.12L14.0274 129.778L14.2468 129.833L14.488 130.228L13.2597 130.634Z" fill="#E8BF89"/>
<path d="M12.9526 146.196L13.6106 145.648L12.7552 145.473L12.9526 146.196ZM14.4661 142.5L14.2906 143.246L14.9816 143.191L14.4661 142.5ZM14.9048 141.151L14.159 140.965L14.4222 141.711L14.9048 141.151ZM16.1441 145.867V149.574L13.3364 147.008L16.1441 145.867ZM16.1441 130.458V134.154L13.3364 131.588L16.1441 130.458ZM16.1112 150.309L16.0564 153.051L14.3016 151.538L16.1112 150.309Z" fill="#E8BF89"/>
<path d="M16.1113 128.177L16.0564 130.919L14.3016 129.416L16.1113 128.177Z" fill="#E8BF89"/>
<path d="M15.3655 138.453L15.9138 137.137L14.521 137.357L15.3655 138.453ZM13.8958 137.324L15.2119 137.06L14.7513 136.622L15.5958 135.909L14.5539 135.558L14.6635 136.49L14.0713 136.117L13.8958 137.324Z" fill="#E8BF89"/>
<path d="M16.1441 133.299V136.995L13.3364 134.439L16.1441 133.299ZM14.2138 127.541V129.734L12.5687 128.221L14.2138 127.541Z" fill="#E8BF89"/>
<path d="M16.1113 137.719L16.0564 140.46L14.3016 138.958L16.1113 137.719Z" fill="#E8BF89"/>
<path d="M16.1332 156.977L15.0035 157.986L16.1332 158.458V156.977Z" fill="#E8BF89"/>
<path d="M15.1022 158.864L15.3216 159.456L15.7164 158.798L14.9487 158.721L14.3784 157.844L13.7423 159.16L15.1022 158.864ZM15.3655 163.744L15.9138 162.428L14.521 162.648L15.3655 163.744Z" fill="#E8BF89"/>
<path d="M13.8958 162.615L15.2119 162.351L14.7513 161.913L15.5958 161.211L14.5539 160.86L14.6635 161.781L14.0713 161.419L13.8958 162.615Z" fill="#E8BF89"/>
<path d="M12.9307 134.121L14.5758 133.682L14.4113 133.408L14.521 132.97L14.1371 133.112L13.5888 132.509L12.9307 134.121ZM16.1332 155.157L14.0933 156.363L16.1222 157.043L16.1332 155.157ZM14.4662 164.172L13.9178 163.097L13.0623 164.194L14.4662 164.172Z" fill="#E8BF89"/>
<path d="M14.6636 154.85L14.6087 155.069L15.1132 154.85L15.179 155.541L15.859 155.036L15.1132 154.85L15.519 154.608L14.8171 154.214L14.7074 154.762L13.9836 154.477L14.2249 155.321L14.6636 154.85Z" fill="#E8BF89"/>
<path d="M13.5887 161.54L12.8978 161.946L13.6107 162.319L13.6655 161.463L14.4332 160.827L13.2597 160.312L13.5887 161.54Z" fill="#E8BF89"/>
<path d="M15.9138 152.93L15.8261 152.865L15.2448 153.248L14.7403 153.556L16.1332 154.619V152.821L15.9138 152.93Z" fill="#E8BF89"/>
<path d="M15.2338 154.345L15.8261 154.707L15.7932 153.917L15.2338 154.345ZM13.2597 157.482L14.4003 158.326L14.5538 157.23L14.9925 157.778L15.497 156.659L14.6964 156.692L14.5319 155.979L14.0274 156.637L14.2468 156.681L14.488 157.076L13.2597 157.482ZM14.4661 155.223L14.2906 155.968L14.9816 155.903L14.4661 155.223ZM14.9048 153.863L14.159 153.687L14.4222 154.433L14.9048 153.863ZM16.1441 158.579V162.275L13.3365 159.708L16.1441 158.579Z" fill="#E8BF89"/>
<path d="M16.1113 163.01L16.0564 165.751L14.3016 164.249L16.1113 163.01Z" fill="#E8BF89"/>
<path d="M11.8997 144.518L10.6494 144.76L11.5926 145.615L11.8997 144.518ZM10.5617 158.973L11.1759 159.357L11.3404 158.699L10.5617 158.973ZM11.9436 158.096L12.5468 158.48L12.7113 157.822L11.9436 158.096ZM12.459 154.773L13.2487 153.523H11.7681L12.459 154.773ZM12.4042 134.746L13.1939 133.496L11.7133 133.485L12.4042 134.746ZM13.15 156.868L13.9397 155.606H12.459L13.15 156.868ZM10.6823 144.036L11.5597 144.167L11.121 143.356L10.6823 144.036ZM12.4919 156.122L12.0971 155.102L11.5816 156.067L12.4919 156.122ZM14.488 138.728L14.159 137.455L13.3913 138.552L14.488 138.728ZM12.5358 141.217L11.2526 141.546L12.3494 142.314L12.5358 141.217ZM12.9307 128.857L11.6365 129.186L12.7332 129.954L12.9307 128.857ZM11.3952 156.758L11.121 155.99L10.3752 156.626L11.3952 156.758ZM13.6326 159.061L13.3584 158.293L12.6126 158.93L13.6326 159.061ZM12.7552 157.8L12.47 157.032L11.7242 157.668L12.7552 157.8ZM10.3423 154.948L10.9565 155.332L11.143 154.565L10.3423 154.948ZM12.2726 146.558L11.5378 146.339L11.8668 147.129L12.2726 146.558ZM10.2217 158.666L9.45395 158.469L9.83782 159.281L10.2217 158.666ZM10.7701 160.805L10.8468 160.476L10.3533 160.586L10.5397 160.75L10.2436 161.518L11.1539 161.156L10.7701 160.805ZM11.7242 140.789L10.9565 140.724L11.3623 141.382L11.7242 140.789ZM11.1978 135.887L10.4301 135.81L10.8249 136.468L11.1978 135.887Z" fill="#E8BF89"/>
<path d="M16.1332 181.15L15.0035 182.159L16.1332 182.63V181.15Z" fill="#E8BF89"/>
<path d="M12.6016 182.334L12.7771 182.444L12.7552 181.895L13.5229 182.159L13.3036 181.336L12.7552 181.885L12.7113 181.588L12.0533 181.917L12.6016 182.301L11.9765 182.806L12.799 182.97L12.6016 182.334ZM13.6545 188.147L12.0971 187.763L12.8868 189.364L13.6545 188.147ZM14.0603 168.658L13.3145 168.482L13.2707 168.669L12.5249 168.482L13.0403 169.601L13.5448 169.129L14.0603 168.658ZM15.1022 183.047L15.3216 183.639L15.7164 182.981L14.9487 182.915L14.3784 182.038L13.7422 183.354L15.1022 183.047ZM10.2985 187.248L10.9126 187.631L11.0772 186.973L10.2985 187.248ZM8.98237 189.002L9.01527 189.825L9.5088 189.244L8.98237 189.002ZM15.3654 187.928L15.9138 186.612L14.5209 186.831L15.3654 187.928ZM13.5887 183.508L12.6674 183.617L13.1829 184.297L13.5887 183.508ZM13.8958 186.798L15.2119 186.546L14.7513 186.107L15.5958 185.405L14.5538 185.054L14.6635 185.975L14.0713 185.613L13.8958 186.798ZM9.77203 185.372L9.69525 185.811L10.1888 185.668L9.77203 185.372ZM10.2327 174.471L10.4081 175.019L10.7043 174.514L10.2327 174.471ZM10.3204 190.68L10.5397 191.207L10.781 190.68H10.3204Z" fill="#E8BF89"/>
<path d="M13.3694 190.45L15.0145 190.011L14.839 189.737L14.9487 189.299L14.5648 189.43L14.0164 188.827L13.3694 190.45Z" fill="#E8BF89"/>
<path d="M11.6584 197.601L13.3035 197.184L13.1281 196.91L13.2377 196.471L12.8539 196.614L12.3055 196L11.6584 197.601ZM11.11 185.23L11.9874 185.372L11.5487 184.55L11.11 185.23ZM10.8907 182.685L10.452 182.63L10.6055 183.201L10.8907 182.685ZM10.3643 181.61L10.1449 180.843L9.70621 181.523L10.3643 181.61ZM11.0223 186.151L10.7372 185.383L10.3204 186.107L11.0223 186.151ZM10.9565 169.546L10.7591 168.778L10.2984 169.436L10.9565 169.546ZM12.7552 169.162L12.3713 168.153L11.8449 169.107L12.7552 169.162ZM13.1939 174.865L12.8648 173.593L12.0971 174.69L13.1939 174.865ZM13.7642 173.286L13.4351 172.014L12.6674 173.111L13.7642 173.286ZM16.1332 179.351L14.0932 180.557L16.1222 181.237L16.1332 179.351ZM13.2158 175.074L12.5248 176.302L13.9835 175.973L13.2158 175.074ZM12.9526 186.261L11.8997 186.228L12.4481 187.324L12.9526 186.261ZM11.8558 186.721L11.5707 185.953L10.8249 186.59L11.8558 186.721ZM14.4551 188.366L13.9068 187.292L13.0513 188.388L14.4551 188.366ZM10.112 188.662L10.7262 189.046L10.9126 188.279L10.112 188.662ZM10.3972 170.731L10.803 171.312L10.8797 170.654L10.3972 170.731ZM11.2746 175.008L11.8558 175.052L11.6365 174.503L11.2746 175.008ZM14.6525 179.044L14.5977 179.263L15.1022 179.044L15.168 179.735L15.848 179.23L15.1022 179.044L15.508 178.803L14.8061 178.408L14.6964 178.956L13.9726 178.66L14.2138 179.516L14.6525 179.044ZM13.8519 178.167L13.0513 178.649L13.6435 179.022L13.8519 178.167ZM13.7971 180.064L13.9726 179.318L13.2048 179.702L13.7971 180.064ZM14.9158 177.673L14.6745 176.829L14.17 177.487L14.9158 177.673ZM8.93849 183.793L8.66431 184.199L9.103 184.144L8.93849 183.793Z" fill="#E8BF89"/>
<path d="M13.5887 185.712L12.8978 186.118L13.6107 186.491L13.6655 185.635L14.4332 184.999L13.2597 184.484L13.5887 185.712Z" fill="#E8BF89"/>
<path d="M12.5468 189.266L11.7462 188.344L11.2307 189.551L10.9894 189.628L11.4939 190.176L11.8229 189.518L12.5468 189.266ZM11.2526 184.703L10.5068 184.484L10.8578 185.273L11.2526 184.703ZM10.3533 186.962L9.58556 186.776L9.98039 187.577L10.3533 186.962Z" fill="#E8BF89"/>
<path d="M10.1339 192.358L10.2216 192.029L9.71712 192.139L9.91453 192.304L9.60747 193.049L10.5287 192.687L10.1339 192.358Z" fill="#E8BF89"/>
<path d="M13.6326 191.097L13.7094 190.768L13.2158 190.878L13.4023 191.053L13.1062 191.799L14.0165 191.437L13.6326 191.097Z" fill="#E8BF89"/>
<path d="M10.3643 189.156L10.4411 188.827L9.94753 188.937L10.134 189.101L9.83788 189.847L10.7481 189.485L10.3643 189.156Z" fill="#E8BF89"/>
<path d="M11.5597 173.034L12.13 173.429L12.3494 172.694L11.5597 173.034ZM13.0951 180.185L12.3055 179.263L11.779 180.47L11.5378 180.557L12.0423 181.084L12.3713 180.426L13.0951 180.185ZM13.0074 184.506L12.3494 185.603L13.7203 185.416L13.0074 184.506Z" fill="#E8BF89"/>
<path d="M13.4461 187.686L13.4242 187.105L13.5777 186.776L13.3364 186.853L13.2267 186.721L13.0842 186.941L12.9745 186.93L13.0842 186.941L12.7003 187.237L13.4461 187.686Z" fill="#E8BF89"/>
<path d="M15.9138 177.092L15.8261 177.026L15.2448 177.41L14.7403 177.717L16.1332 178.781V176.982L15.9138 177.092Z" fill="#E8BF89"/>
<path d="M15.2338 178.518L15.826 178.879L15.7931 178.09L15.2338 178.518ZM13.479 181.194L14.0054 180.601L13.2377 180.492L13.479 181.194ZM10.3203 176.62L9.55263 176.554L9.95842 177.212L10.3203 176.62ZM11.9655 176.587L11.1977 176.51L11.6035 177.169L11.9655 176.587ZM12.7771 179.965L13.5009 179.801L12.8429 179.307L12.7771 179.965ZM13.8738 177.772L12.6893 177.037L12.5358 178.134L13.8738 177.772ZM13.2596 181.643L14.4002 182.488L14.5538 181.391L14.9925 181.939L15.497 180.821L14.6964 180.854L14.5319 180.141L14.0274 180.799L14.2467 180.854L14.488 181.248L13.2596 181.643Z" fill="#E8BF89"/>
<path d="M13.2597 167.517L14.4003 168.362L14.5538 167.265L14.9925 167.813L15.497 166.695L14.6964 166.727L14.5319 166.015L14.0274 166.673L14.2468 166.717L14.488 167.122L13.2597 167.517Z" fill="#E8BF89"/>
<path d="M12.9526 183.08L13.6106 182.554L12.7552 182.378L12.9526 183.08ZM14.4661 179.395L14.2906 180.141L14.9816 180.086L14.4661 179.395ZM14.9048 178.035L14.159 177.859L14.4222 178.594L14.9048 178.035ZM16.1441 182.751V186.447L13.3364 183.881L16.1441 182.751ZM16.1441 167.32V171.016L13.3364 168.46L16.1441 167.32Z" fill="#E8BF89"/>
<path d="M16.1113 187.182L16.0564 189.924L14.3016 188.421L16.1113 187.182Z" fill="#E8BF89"/>
<path d="M16.1112 165.071L16.0564 167.813L14.3016 166.3L16.1112 165.071ZM15.3655 175.337L15.9138 173.999L14.521 174.218L15.3655 175.337ZM13.8958 174.207L15.2119 173.944L14.7513 173.505L15.5958 172.803L14.5539 172.442L14.6635 173.374L14.0713 173.012L13.8958 174.207Z" fill="#E8BF89"/>
<path d="M16.1441 170.182V173.889L13.3364 171.323L16.1441 170.182ZM16.1112 174.613L16.0564 177.355L14.3016 175.841L16.1112 174.613Z" fill="#E8BF89"/>
<path d="M16.1332 193.872L15.0035 194.881L16.1332 195.353V193.872Z" fill="#E8BF89"/>
<path d="M15.1022 195.736L15.3216 196.34L15.7164 195.682L14.9487 195.616L14.3784 194.738L13.7423 196.054L15.1022 195.736Z" fill="#E8BF89"/>
<path d="M15.3654 200.628L15.9138 199.312L14.5209 199.531L15.3654 200.628Z" fill="#E8BF89"/>
<path d="M13.8958 199.498L15.2119 199.235L14.7513 198.796L15.5958 198.083L14.5539 197.733L14.6635 198.665L14.0713 198.303L13.8958 199.498Z" fill="#E8BF89"/>
<path d="M12.9307 171.005L14.5758 170.588L14.4113 170.303L14.521 169.864L14.1371 170.007L13.5888 169.393L12.9307 171.005ZM16.1332 192.062L14.0933 193.291L16.1222 193.949L16.1332 192.062ZM14.4662 201.056L13.9178 199.981L13.0623 201.078L14.4662 201.056Z" fill="#E8BF89"/>
<path d="M14.6636 191.744L14.6087 191.964L15.1132 191.744L15.179 192.435L15.859 191.931L15.1132 191.744L15.519 191.503L14.8171 191.108L14.7074 191.657L13.9836 191.371L14.2249 192.216L14.6636 191.744Z" fill="#E8BF89"/>
<path d="M13.5887 198.434L12.8978 198.829L13.6107 199.202L13.6655 198.358L14.4332 197.722L13.2597 197.195L13.5887 198.434Z" fill="#E8BF89"/>
<path d="M15.9138 189.814L15.8261 189.748L15.2448 190.143L14.7403 190.439L16.1332 191.503V189.704L15.9138 189.814Z" fill="#E8BF89"/>
<path d="M15.2338 191.24L15.8261 191.613L15.7932 190.812L15.2338 191.24ZM13.2597 194.376L14.4003 195.21L14.5538 194.113L14.9925 194.662L15.497 193.532L14.6964 193.565L14.5319 192.852L14.0274 193.51L14.2468 193.565L14.488 193.96L13.2597 194.376Z" fill="#E8BF89"/>
<path d="M14.4661 192.117L14.2906 192.863L14.9816 192.808L14.4661 192.117ZM14.9048 190.757L14.159 190.571L14.4222 191.317L14.9048 190.757ZM16.1441 195.473V199.169L13.3364 196.614L16.1441 195.473Z" fill="#E8BF89"/>
<path d="M16.1113 199.904L16.0564 202.646L14.3016 201.143L16.1113 199.904Z" fill="#E8BF89"/>
<path d="M11.8997 181.391L10.6494 181.632L11.5926 182.488L11.8997 181.391ZM10.5617 195.846L11.1759 196.23L11.3404 195.572L10.5617 195.846ZM11.9436 194.969L12.5468 195.353L12.7113 194.695L11.9436 194.969ZM12.459 191.657L13.2487 190.406L11.7681 190.395L12.459 191.657ZM12.4042 171.63L13.1939 170.369H11.7242L12.4042 171.63ZM13.15 193.74L13.9397 192.49L12.459 192.479L13.15 193.74ZM10.6823 180.908L11.5597 181.051L11.121 180.228L10.6823 180.908ZM12.4919 193.006L12.0971 191.997L11.5816 192.951L12.4919 193.006ZM14.488 175.589L14.159 174.328L13.3913 175.403L14.488 175.589ZM12.5358 178.09L11.2526 178.419L12.3494 179.187L12.5358 178.09ZM11.3952 193.631L11.121 192.863L10.3752 193.521L11.3952 193.631ZM13.6326 195.934L13.3584 195.166L12.6126 195.824L13.6326 195.934ZM12.7552 194.662L12.47 193.894L11.7242 194.552L12.7552 194.662ZM10.3423 191.81L10.9565 192.194L11.143 191.426L10.3423 191.81ZM12.2726 183.431L11.5378 183.212L11.8668 183.979L12.2726 183.431ZM10.2217 195.539L9.45395 195.353L9.83782 196.153L10.2217 195.539Z" fill="#E8BF89"/>
<path d="M10.77 197.667L10.8468 197.338L10.3532 197.447L10.5397 197.612L10.2436 198.358L11.1538 197.996L10.77 197.667Z" fill="#E8BF89"/>
<path d="M11.7242 177.64L10.9565 177.563L11.3623 178.221L11.7242 177.64ZM12.6455 166.234L11.8558 165.313L11.3404 166.519L11.0881 166.596L11.5926 167.144L11.9216 166.486L12.6455 166.234ZM10.7372 165.313L9.96943 165.236L10.3752 165.894L10.7372 165.313ZM11.9765 163.635L11.2088 163.569L11.6145 164.227L11.9765 163.635ZM12.7881 167.002L13.5119 166.837L12.8539 166.344L12.7881 167.002ZM15.5848 165.225L14.4113 164.49L14.2577 165.587L15.5848 165.225ZM10.6823 167.945L11.5597 168.087L11.121 167.276L10.6823 167.945ZM13.808 164.786L12.5249 165.115L13.6216 165.883L13.808 164.786ZM13.2158 164.084L12.4481 164.008L12.8539 164.666L13.2158 164.084ZM11.1978 172.749L10.4301 172.683L10.8249 173.341L11.1978 172.749ZM26.4426 2.70897L25.7845 4.10185L27.1006 4.26635L26.4426 2.70897ZM23.7665 3.91538L23.942 4.02507L23.931 3.47669L24.6768 3.73992L24.4575 2.91736L23.931 3.46573L23.8762 3.1696L23.2181 3.49863L23.7665 3.88248L23.1414 4.38699L23.9639 4.5515L23.7665 3.91538ZM24.8304 9.72815L23.262 9.3443L24.0517 10.9565L24.8304 9.72815ZM23.3498 12.0094L22.582 11.812L22.9768 12.6236L23.3498 12.0094ZM6.56952 14.0384V13.2048L5.93341 13.7532L6.56952 14.0384ZM0.537412 11.2965L0.39483 10.6384L0 11.1101L0.537412 11.2965Z" fill="#E8BF89"/>
<path d="M6.81084 9.72813L6.61342 9.07009L6.26246 9.57459L6.81084 9.72813ZM8.69724 11.5926L8.49982 10.9565L8.13789 11.461L8.69724 11.5926ZM4.20057 12.3165L4.01413 11.6803L3.6522 12.1849L4.20057 12.3165ZM23.8323 9.09202L23.0866 8.91655L23.0427 9.10299L22.2969 8.91655L22.8124 10.0133L23.3278 9.55265L23.8323 9.09202ZM22.0776 13.0732L22.2092 12.6345L21.5182 12.7661L21.7705 12.9855L21.3318 13.9945L22.604 13.5558L22.0776 13.0732ZM26.2452 4.62826L26.4645 5.2205L26.8594 4.56246L26.0697 4.48568L25.4994 3.60828L24.8633 4.92439L26.2452 4.62826Z" fill="#E8BF89"/>
<path d="M24.1175 13.6435L22.9878 12.6236L21.8691 14.2358L24.1175 13.6435ZM24.2271 11.9216L24.282 12.1739L24.8633 11.7352L24.2491 11.3513L24.0846 10.6055L23.0975 11.2965L24.2271 11.9216ZM20.6956 4.65021L21.9788 4.93536L21.8472 3.55347L20.6956 4.65021ZM8.21465 6.18565L8.87269 6.32823L8.81786 5.5276L8.21465 6.18565ZM21.4634 8.81784L22.0775 9.20171L22.242 8.54365L21.4634 8.81784ZM6.41598 11.0113L6.44889 11.8339L6.94242 11.2526L6.41598 11.0113ZM2.2922 11.3623L2.32511 12.1958L2.81866 11.6036L2.2922 11.3623ZM1.08579 12.3165L1.11869 13.139L1.61223 12.5577L1.08579 12.3165ZM20.1363 10.5617L20.1692 11.3952L20.6627 10.8029L20.1363 10.5617ZM26.5303 9.49783L27.0787 8.18172L25.6858 8.40109L26.5303 9.49783ZM24.7755 5.06696L23.8433 5.17665L24.3588 5.85662L24.7755 5.06696ZM21.1343 3.64119L19.9279 3.80571L20.6079 4.68311L21.1343 3.64119ZM15.3874 6.76693L14.4003 7.49078L15.4093 7.95141L15.3874 6.76693ZM11.2526 7.20562L10.2656 7.92948L11.2855 8.36818L11.2526 7.20562ZM3.87152 12.8319L2.88446 13.5558L3.90442 13.9945L3.87152 12.8319Z" fill="#E8BF89"/>
<path d="M25.0606 8.36817L26.3767 8.10496L25.9161 7.66624L26.7606 6.96434L25.7187 6.61337L25.8284 7.53463L25.2361 7.17272L25.0606 8.36817Z" fill="#E8BF89"/>
<path d="M22.4943 6.39404L23.284 5.14375L21.8034 5.13277L22.4943 6.39404ZM7.00823 5.93341L6.89856 6.3721L7.38112 6.26242L7.00823 5.93341ZM18.8531 7.754L18.7763 8.1927L19.2699 8.05012L18.8531 7.754ZM18.9299 0.0987057L19.1053 0.647079L19.4015 0.142585L18.9299 0.0987057ZM6.89856 1.50254L7.09597 2.05091L7.37015 1.52448L6.89856 1.50254ZM19.3357 11.1539L19.555 11.6804L19.8073 11.1539H19.3357Z" fill="#E8BF89"/>
<path d="M24.5561 12.0313L26.2013 11.5926L26.0258 11.3184L26.1355 10.8797L25.7516 11.0113L25.2032 10.4081L24.5561 12.0313Z" fill="#E8BF89"/>
<path d="M22.253 6.81079L23.1304 6.95338L22.6917 6.13082L22.253 6.81079ZM22.933 13.6764L23.1852 12.799L22.2859 13.0184L22.933 13.6764ZM19.7085 4.57344L19.2698 4.5186L19.4234 5.08891L19.7085 4.57344ZM20.6517 3.21347L20.4324 2.44575L19.9937 3.1038L20.6517 3.21347ZM20.3227 8.5656L20.0485 7.79788L19.6318 8.52173L20.3227 8.5656ZM20.9479 1.06385L20.7285 0.29613L20.2898 0.954169L20.9479 1.06385ZM21.7924 6.21856L21.3975 5.19859L20.8711 6.16372L21.7924 6.21856ZM10.6275 3.12572L10.2436 2.10576L9.71717 3.0709L10.6275 3.12572ZM21.4304 10.2217L21.0137 9.05913L20.3885 10.1559L21.4304 10.2217ZM1.41481 9.5088L1.05288 8.32431L0.394823 9.37719L1.41481 9.5088ZM13.15 3.91538L12.7113 2.81864L12.141 3.87152L13.15 3.91538ZM6.0979 2.79671L4.97923 3.1696L5.9992 3.78378L6.0979 2.79671ZM10.6494 0.164509L9.51977 0.537416L10.5507 1.15159L10.6494 0.164509ZM13.8848 6.76693L12.7661 7.13982L13.7861 7.76498L13.8848 6.76693ZM8.24754 4.16765L7.15079 4.35409L8.02819 5.07795L8.24754 4.16765ZM22.2859 1.79867L21.9569 0.537416L21.1892 1.61222L22.2859 1.79867Z" fill="#E8BF89"/>
<path d="M24.9949 1.15159L24.2271 2.61026L25.8174 1.89737L24.9949 1.15159ZM7.33723 12.6126L6.9753 13.468L7.89657 13.139L7.33723 12.6126ZM5.25342 12.2507L4.79277 13.0513L5.75791 12.8319L5.25342 12.2507ZM19.884 11.9436L19.5221 12.7881L20.4543 12.459L19.884 11.9436ZM20.7175 12.9526L20.1363 14.3016L21.6169 13.7861L20.7175 12.9526ZM12.799 1.26125L11.7681 2.22639L13.2706 2.33607L12.799 1.26125ZM24.1175 7.80883L23.0646 7.78689L23.613 8.86172L24.1175 7.80883ZM23.0207 8.26946L22.7356 7.50174L21.9898 8.13786L23.0207 8.26946ZM25.6529 9.91458L25.1045 8.83978L24.2491 9.93652L25.6529 9.91458ZM21.2879 10.2107L21.902 10.5946L22.0885 9.82684L21.2879 10.2107ZM18.9628 2.51154L19.3685 3.09282L19.4453 2.43478L18.9628 2.51154ZM0.263215 13.7313L0.833528 13.841L0.690946 13.2926L0.263215 13.7313ZM19.8401 1.08578L20.4214 1.14061L20.224 0.592234L19.8401 1.08578ZM6.50371 4.2115L6.61337 4.68311L6.9424 4.31021L6.50371 4.2115ZM6.49273 7.43594L6.85466 8.64237L7.62238 7.62239L6.49273 7.43594ZM9.15783 12.7552L8.13785 13.5229L9.34428 13.8848L9.15783 12.7552Z" fill="#E8BF89"/>
<path d="M5.14377 10.1449L4.1567 10.9455L5.38505 11.2746L5.14377 10.1449ZM19.2918 2.51155L19.4673 1.74383L18.6996 2.1277L19.2918 2.51155ZM5.47279 8.82882L5.03409 8.78494L5.33021 9.26752L5.47279 8.82882ZM8.35723 9.67331L7.91854 9.60751L8.19272 10.101L8.35723 9.67331ZM1.22837 6.02115L0.954185 6.42695L1.39289 6.38307L1.22837 6.02115ZM20.1253 5.3631L19.8512 5.76889L20.2898 5.71405L20.1253 5.3631ZM24.7865 7.29337L24.1065 7.69918L24.8084 8.07207L24.8633 7.2166L25.631 6.58049L24.4575 6.06502L24.7865 7.29337Z" fill="#E8BF89"/>
<path d="M23.7116 10.8468L22.922 9.92557L22.3956 11.132L22.1543 11.2087L22.6588 11.7571L22.9878 11.0991L23.7116 10.8468Z" fill="#E8BF89"/>
<path d="M22.4175 6.28435L21.6827 6.065L22.0118 6.85466L22.4175 6.28435ZM21.5182 8.55463L20.7505 8.36818L21.1453 9.1688L21.5182 8.55463ZM19.9279 9.103L20.0157 8.77397L19.5112 8.88364L19.7086 9.04816L19.4015 9.81588L20.3228 9.44299L19.9279 9.103ZM16.8351 1.73286L16.9448 1.42577L16.4512 1.49157L16.6267 1.66705L16.2758 2.34703L17.1751 2.08381L16.8351 1.73286Z" fill="#E8BF89"/>
<path d="M21.5291 10.7372L21.6059 10.4081L21.1124 10.5178L21.2988 10.6823L21.0027 11.4281L21.913 11.0662L21.5291 10.7372Z" fill="#E8BF89"/>
<path d="M22.3956 8.46689L22.4505 8.71914L23.0317 8.28045L22.4176 7.89658L22.2531 7.1508L21.266 7.85272L22.3956 8.46689ZM19.8402 6.63533L20.4105 7.03016L20.6299 6.29534L19.8402 6.63533ZM11.9765 9.70621L12.5468 10.101L12.7662 9.36622L11.9765 9.70621ZM21.8692 7.40305L21.0795 6.48178L20.5641 7.6882L20.3118 7.76498L20.8163 8.31335L21.1453 7.6553L21.8692 7.40305ZM14.8281 9.26752L14.0384 8.34625L13.512 9.55266L13.2707 9.64041L13.7752 10.1669L14.1042 9.5088L14.8281 9.26752Z" fill="#E8BF89"/>
<path d="M21.9241 12.5797L22.3189 11.4281L21.0247 11.5816L20.8383 11.4171L20.6189 12.119L21.3428 12.0752L21.9241 12.5797Z" fill="#E8BF89"/>
<path d="M24.1832 6.08694L23.5252 7.18369L24.8961 6.99724L24.1832 6.08694Z" fill="#E8BF89"/>
<path d="M23.8104 4.86955L22.7795 6.40499L24.2601 6.43789L23.8104 4.86955ZM24.622 9.25654L24.5891 8.67527L24.7536 8.34624L24.5014 8.423L24.4137 8.2914L24.2601 8.51074L23.8762 8.80687L24.622 9.25654ZM24.6659 2.7638L25.1923 2.17155L24.4246 2.06188L24.6659 2.7638ZM24.6988 13.2706L25.8284 12.2068L24.2053 11.5487L24.6988 13.2706ZM23.953 1.53543L24.6769 1.37093L24.0188 0.877394L23.953 1.53543Z" fill="#E8BF89"/>
<path d="M23.0207 1.50254L24.5013 0.954169L23.1194 0.164509L23.0207 1.50254ZM24.4465 3.2354L25.5981 4.0799L25.7406 2.98316L26.1793 3.53153L26.4535 2.69799L25.8722 2.44575L25.7077 1.73287L25.2032 2.3909L25.4226 2.43478L25.6639 2.82961L24.4465 3.2354ZM24.1175 4.68312L24.7755 4.13475L23.92 3.95926L24.1175 4.68312ZM7.88559 8.39011L7.39206 8.80688L8.07204 8.86172L7.88559 8.39011Z" fill="#E8BF89"/>
<path d="M14.2029 1.45867L14.0274 2.20445L14.7183 2.13865L14.2029 1.45867ZM22.7246 1.0419L22.3407 2.64316L24.4026 2.29219L22.7246 1.0419ZM27.1884 4.63923L27.298 7.78689L24.5123 5.48373L27.1884 4.63923ZM27.2651 8.76301L26.7387 10.9346L25.4555 10.0133L27.2651 8.76301ZM25.4336 12.7552L23.8543 13.6655L22.8672 11.5378L25.4336 12.7552ZM26.6948 10.9675L25.8174 12.5029L25.3129 11.132L26.6948 10.9675ZM23.0756 2.98315L21.8362 3.2025L22.7685 4.05796L23.0756 2.98315ZM19.7195 3.91538L19.895 4.02506L19.8731 3.47668L20.6408 3.73991L20.4214 2.91735L19.8731 3.46572L19.8182 3.1696L19.1602 3.49862L19.7085 3.88247L19.0834 4.38699L19.906 4.55149L19.7195 3.91538ZM20.7724 9.72814L19.215 9.34429L20.0047 10.9565L20.7724 9.72814ZM19.3028 12.0094L18.535 11.812L18.9299 12.6236L19.3028 12.0094Z" fill="#E8BF89"/>
<path d="M19.7744 9.09203L19.0286 8.91656L18.9847 9.10301L18.2389 8.91656L18.7544 10.0133L19.2699 9.55266L19.7744 9.09203ZM18.0196 13.0732L18.1293 12.6345L17.4493 12.7661L17.7015 12.9855L17.2628 13.9945L18.5241 13.5558L18.0196 13.0732ZM20.0266 14.2797L19.4783 12.9635L17.8002 14.2358L20.0266 14.2797ZM7.74307 14.2577L7.41406 13.468L6.39407 14.2358L7.74307 14.2577ZM5.50571 14.2577L5.17668 13.468L4.15672 14.2358L5.50571 14.2577ZM15.3216 14.2577L14.9926 13.468L13.9726 14.2358L15.3216 14.2577ZM20.1692 11.9216L20.2241 12.1739L20.8053 11.7352L20.1912 11.3513L20.0157 10.6055L19.0286 11.2965L20.1692 11.9216ZM16.6596 4.66118L17.9428 4.94633L17.8002 3.57539L16.6596 4.66118ZM11.6146 6.21856L12.8978 6.51468L12.7552 5.13277L11.6146 6.21856ZM17.4054 8.81784L18.0196 9.20171L18.1841 8.54366L17.4054 8.81784ZM16.0893 10.5726L16.1113 11.4062L16.6158 10.8139L16.0893 10.5726ZM15.87 4.13474L14.6635 4.29925L15.3435 5.17665L15.87 4.13474ZM19.2041 6.78887L19.9937 5.53858L18.5131 5.5276L19.2041 6.78887ZM14.7732 11.4391L15.5629 10.1888L14.0823 10.1778L14.7732 11.4391ZM14.7952 7.754L14.7184 8.1927L15.201 8.05012L14.7952 7.754ZM14.8719 0.0987057L15.0474 0.647079L15.3435 0.142585L14.8719 0.0987057Z" fill="#E8BF89"/>
<path d="M15.2667 11.1539L15.4861 11.6803L15.7274 11.1539H15.2667ZM10.9894 9.55264L11.2088 10.0791L11.4501 9.55264H10.9894ZM18.206 6.81077L19.0834 6.95335L18.6447 6.13079L18.206 6.81077ZM18.886 13.6764L19.1273 12.799L18.2499 13.0184L18.886 13.6764ZM9.98042 4.61728L9.54171 4.56245L9.69525 5.13275L9.98042 4.61728ZM16.6048 3.21344L16.3854 2.44572L15.9467 3.10378L16.6048 3.21344ZM16.2757 8.56557L15.9906 7.79785L15.5848 8.52171L16.2757 8.56557ZM5.00118 7.29334L4.71603 6.52562L4.31024 7.24948L5.00118 7.29334ZM13.9945 13.4351L13.7094 12.6674L13.3036 13.3913L13.9945 13.4351ZM16.868 1.06383L16.6706 0.296107L16.2099 0.954145L16.868 1.06383ZM17.7235 6.21853L17.3396 5.19857L16.8131 6.16369L17.7235 6.21853ZM17.3944 10.2217L16.9557 9.05911L16.3416 10.1559L17.3944 10.2217ZM18.7325 1.52446L18.4034 0.252227L17.6357 1.34897L18.7325 1.52446ZM15.848 11.9436L15.4861 12.7881L16.4074 12.459L15.848 11.9436ZM14.6855 12.7552L14.3235 13.5997L15.2558 13.2706L14.6855 12.7552ZM10.1559 13.3035L9.79397 14.148L10.7262 13.819L10.1559 13.3035Z" fill="#E8BF89"/>
<path d="M10.6056 11.9436L11.4501 12.3274L11.143 11.3952L10.6056 11.9436ZM13.5449 12.2507L14.3894 12.6345L14.0823 11.6913L13.5449 12.2507ZM9.46501 12.4042L10.3095 12.7881L10.0024 11.8558L9.46501 12.4042ZM16.4623 13.1281L15.4752 14.2029H17.0326L16.4623 13.1281ZM13.0404 13.1939L12.0533 14.2687H13.6217L13.0404 13.1939ZM2.29227 13.1939L1.28327 14.2687H2.85162L2.29227 13.1939ZM20.0596 7.81982L18.9957 7.79788L19.5441 8.87268L20.0596 7.81982ZM18.9628 8.28045L18.6777 7.51271L17.9319 8.14883L18.9628 8.28045ZM17.23 10.2327L17.8442 10.6165L18.0306 9.84879L17.23 10.2327ZM14.9049 2.53349L15.2997 3.11476L15.3874 2.45672L14.9049 2.53349ZM15.7823 1.10771L16.3635 1.16255L16.1661 0.614179L15.7823 1.10771ZM16.0564 5.38504L15.7823 5.79083L16.221 5.73599L16.0564 5.38504ZM9.80499 8.43399L9.53081 8.83978L9.9695 8.78494L9.80499 8.43399ZM19.6428 10.8688L18.8422 9.94749L18.3267 11.1539L18.0854 11.2307L18.579 11.7791L18.908 11.121L19.6428 10.8688ZM18.3486 6.3063L17.6029 6.08695L17.9538 6.87661L18.3486 6.3063ZM17.4493 8.57656L16.6816 8.39011L17.0764 9.19075L17.4493 8.57656ZM15.859 9.12493L15.9468 8.79592L15.4423 8.90558L15.6397 9.07011L15.3326 9.83783L16.2539 9.46494L15.859 9.12493ZM12.5688 11.45L12.6456 11.121L12.152 11.2307L12.3495 11.3952L12.0424 12.141L12.9527 11.7791L12.5688 11.45ZM7.7102 11.9984L7.78698 11.6694L7.29345 11.7791L7.49086 11.9436L7.18377 12.6894L8.09407 12.3274L7.7102 11.9984ZM10.8469 13.2816L10.5179 13.2048L10.6495 13.6984L10.803 13.501L11.5708 13.7752L11.165 12.8758L10.8469 13.2816Z" fill="#E8BF89"/>
<path d="M10.0243 10.7371L10.1121 10.4081L9.60755 10.5178L9.80496 10.6823L9.4979 11.4281L10.4191 11.0662L10.0243 10.7371Z" fill="#E8BF89"/>
<path d="M17.4712 10.7372L17.548 10.4081L17.0545 10.5178L17.2409 10.6823L16.9448 11.4281L17.8551 11.0662L17.4712 10.7372Z" fill="#E8BF89"/>
<path d="M18.3377 8.46689L18.3925 8.71914L18.9738 8.28045L18.3596 7.89658L18.1951 7.1508L17.208 7.85272L18.3377 8.46689ZM15.7823 6.63533L16.3526 7.03016L16.5719 6.29534L15.7823 6.63533ZM11.6366 8.47786L12.2069 8.87269L12.4262 8.1269L11.6366 8.47786ZM13.9397 0.361934L14.51 0.756763L14.7294 0.0219448L13.9397 0.361934Z" fill="#E8BF89"/>
<path d="M17.8111 7.39207L17.0215 6.47081L16.495 7.67724L16.2537 7.75398L16.7582 8.30236L17.0873 7.6443L17.8111 7.39207Z" fill="#E8BF89"/>
<path d="M14.0274 5.14375L13.8958 3.93732L12.799 4.63924L12.5578 4.56247L12.6674 5.28631L13.3036 4.93536L14.0274 5.14375ZM17.866 12.5797L18.2609 11.4281L16.9667 11.5816L16.7693 11.4171L16.5499 12.1191L17.2738 12.0752L17.866 12.5797ZM12.6016 13.6106L12.9965 12.459L11.7023 12.6236L11.5049 12.459L11.2855 13.161L12.0094 13.1061L12.6016 13.6106ZM17.7234 1.61222L16.9228 2.81863L18.0744 2.84057L17.7234 1.61222ZM18.9628 1.50254L20.4434 0.954165L19.0505 0.164505L18.9628 1.50254ZM20.6298 1.54642L20.246 3.14766L22.2969 2.79671L20.6298 1.54642ZM2.9722 0.0438625L2.42383 0L2.80768 0.39483L2.9722 0.0438625ZM2.2264 8.21464L2.33609 7.90754L1.85351 7.97336L2.01802 8.14882L1.66707 8.83978L2.57737 8.57655L2.2264 8.21464ZM8.71915 2.37994L8.82883 2.05091L8.34626 2.11671L8.51078 2.2922L8.15981 2.98315L9.05915 2.71993L8.71915 2.37994ZM19.0066 2.98315L17.7563 3.2025L18.6996 4.05796L19.0066 2.98315ZM16.1332 217.759L15.0035 218.768L16.1332 219.229V217.759ZM12.6016 218.933L12.7771 219.064L12.7552 218.516L13.5229 218.779L13.3036 217.946L12.7552 218.516L12.7113 218.209L12.0533 218.56L12.6016 218.933L11.9765 219.437L12.799 219.613L12.6016 218.933ZM13.6545 224.745L12.0971 224.362L12.8868 225.974L13.6545 224.745Z" fill="#E8BF89"/>
<path d="M14.0604 205.245L13.8739 205.201L13.3256 205.059L13.2817 205.245L12.5359 205.07L13.0514 206.167L13.5559 205.706L14.0604 205.245Z" fill="#E8BF89"/>
<path d="M15.1022 219.646L15.3216 220.249L15.7164 219.591L14.9487 219.525L14.3784 218.648L13.7423 219.964L15.1022 219.646Z" fill="#E8BF89"/>
<path d="M10.2985 223.835L10.9126 224.23L11.0772 223.572L10.2985 223.835ZM8.98237 225.59L9.01527 226.423L9.5088 225.842L8.98237 225.59ZM15.3654 224.526L15.9138 223.188L14.5209 223.407L15.3654 224.526ZM13.5887 220.084L12.6674 220.194L13.1829 220.885L13.5887 220.084Z" fill="#E8BF89"/>
<path d="M13.8958 223.374L15.2119 223.122L14.7513 222.684L15.5958 221.982L14.5539 221.62L14.6635 222.552L14.0713 222.19L13.8958 223.374Z" fill="#E8BF89"/>
<path d="M9.77203 221.949L9.69525 222.387L10.1888 222.245L9.77203 221.949ZM10.2327 211.047L10.4081 211.595L10.7043 211.091L10.2327 211.047ZM10.3204 227.257L10.5398 227.783L10.781 227.257H10.3204ZM13.3694 227.06L15.0145 226.621L14.839 226.347L14.9487 225.908L14.5648 226.051L14.0164 225.447L13.3694 227.06ZM14.4661 235L16.1112 234.561L15.9467 234.287L16.0564 233.848L15.6616 233.991L15.1132 233.388L14.4661 235ZM11.0991 221.839L11.9765 221.982L11.5378 221.17L11.0991 221.839ZM10.8797 219.284L10.441 219.229L10.5946 219.799L10.8797 219.284ZM10.3533 218.22L10.134 217.452L9.69525 218.11L10.3533 218.22ZM11.0114 222.76L10.7262 221.993L10.3094 222.716L11.0114 222.76ZM10.9455 206.156L10.7481 205.388L10.2875 206.046L10.9455 206.156ZM12.7442 205.772L12.3604 204.763L11.8339 205.717L12.7442 205.772ZM13.1829 211.453L12.8539 210.192L12.0862 211.266L13.1829 211.453ZM13.7532 209.884L13.4242 208.623L12.6565 209.698L13.7532 209.884ZM16.1222 215.95L14.0822 217.156L16.1112 217.836L16.1222 215.95ZM13.2049 211.672L12.5139 212.901L13.9726 212.55L13.2049 211.672ZM11.7242 199.652L11.0333 200.88L12.492 200.551L11.7242 199.652ZM12.2397 197.568L11.5488 198.796L13.0074 198.445L12.2397 197.568ZM12.9526 222.815L11.8997 222.793L12.4481 223.89L12.9526 222.815ZM11.8558 223.276L11.5707 222.508L10.8249 223.144L11.8558 223.276ZM14.4551 224.943L13.9068 223.846L13.0513 224.943H14.4551ZM10.112 225.228L10.7262 225.623L10.9126 224.855L10.112 225.228ZM10.3972 207.307L10.803 207.877L10.8797 207.219L10.3972 207.307ZM11.2746 211.584L11.8558 211.639L11.6365 211.091L11.2746 211.584Z" fill="#E8BF89"/>
<path d="M14.6636 215.631L14.6087 215.851L15.1132 215.631L15.179 216.322L15.859 215.807L15.1132 215.631L15.519 215.39L14.8171 214.995L14.7074 215.522L13.9836 215.237L14.2249 216.092L14.6636 215.631Z" fill="#E8BF89"/>
<path d="M13.8629 214.765L13.0623 215.248L13.6545 215.62L13.8629 214.765ZM13.8081 216.651L13.9836 215.906L13.2158 216.279L13.8081 216.651ZM14.9268 214.271L14.6855 213.416L14.181 214.074L14.9268 214.271ZM9.81592 219.591L9.54173 219.997L9.98044 219.942L9.81592 219.591Z" fill="#E8BF89"/>
<path d="M13.5887 222.322L12.8978 222.727L13.6107 223.1L13.6655 222.245L14.4332 221.609L13.2597 221.093L13.5887 222.322Z" fill="#E8BF89"/>
<path d="M12.5468 225.875L11.7462 224.943L11.2307 226.149L10.9894 226.237L11.4939 226.785L11.8229 226.127L12.5468 225.875ZM11.2526 221.313L10.5068 221.093L10.8578 221.883L11.2526 221.313ZM10.3533 223.594L9.58556 223.396L9.98039 224.197L10.3533 223.594ZM10.1339 228.968L10.2217 228.639L9.71716 228.749L9.91459 228.924L9.6075 229.67L10.5288 229.308L10.1339 228.968Z" fill="#E8BF89"/>
<path d="M13.6326 227.696L13.7094 227.367L13.2158 227.476L13.4022 227.641L13.1062 228.409L14.0164 228.036L13.6326 227.696Z" fill="#E8BF89"/>
<path d="M10.4081 226.38L10.4849 226.051L9.99135 226.16L10.1778 226.325L9.88171 227.092L10.792 226.72L10.4081 226.38Z" fill="#E8BF89"/>
<path d="M11.5597 209.665L12.13 210.06L12.3493 209.325L11.5597 209.665Z" fill="#E8BF89"/>
<path d="M13.1061 216.794L12.3165 215.873L11.7901 217.079L11.5488 217.156L12.0533 217.704L12.3823 217.046L13.1061 216.794Z" fill="#E8BF89"/>
<path d="M13.0184 221.104L12.3603 222.201L13.7313 222.015L13.0184 221.104ZM13.4571 224.285L13.4351 223.703L13.5887 223.374L13.3474 223.462L13.2377 223.331L13.0952 223.55L12.9855 223.528L13.0952 223.55L12.7113 223.835L13.4571 224.285ZM15.9248 213.712L15.837 213.635L15.2557 214.03L14.7512 214.337L16.1441 215.401V213.602L15.9248 213.712Z" fill="#E8BF89"/>
<path d="M15.2338 215.116L15.826 215.489L15.7931 214.688L15.2338 215.116ZM13.479 217.803L14.0054 217.211L13.2377 217.101L13.479 217.803ZM10.3203 213.23L9.55263 213.153L9.95842 213.811L10.3203 213.23ZM11.1977 201.79L11.3732 202.339L11.6693 201.834L11.1977 201.79ZM9.96938 199.18L10.1449 199.729L10.43 199.224L9.96938 199.18ZM11.2855 203.962L10.5178 203.885L10.9236 204.543L11.2855 203.962ZM11.9764 213.197L11.2087 213.12L11.6145 213.778L11.9764 213.197ZM12.788 216.575L13.5119 216.41L12.8538 215.906L12.788 216.575ZM13.8848 214.381L12.7003 213.635L12.5467 214.732L13.8848 214.381Z" fill="#E8BF89"/>
<path d="M13.2597 218.264L14.4003 219.108L14.5538 218.011L14.9925 218.56L15.497 217.441L14.6964 217.474L14.5319 216.75L14.0274 217.408L14.2468 217.463L14.488 217.858L13.2597 218.264Z" fill="#E8BF89"/>
<path d="M13.2597 204.127L14.4003 204.971L14.5538 203.874L14.9925 204.423L15.497 203.304L14.6964 203.337L14.5319 202.613L14.0274 203.271L14.2468 203.326L14.488 203.721L13.2597 204.127Z" fill="#E8BF89"/>
<path d="M12.9526 219.689L13.6106 219.141L12.7552 218.966L12.9526 219.689ZM14.4661 215.993L14.2906 216.739L14.9816 216.684L14.4661 215.993ZM14.9048 214.644L14.159 214.458L14.4222 215.204L14.9048 214.644ZM16.1441 219.36V223.067L13.3364 220.501L16.1441 219.36ZM16.1441 203.962V207.658L13.3364 205.092L16.1441 203.962ZM16.1112 223.791L16.0564 226.533L14.3016 225.02L16.1112 223.791Z" fill="#E8BF89"/>
<path d="M16.1113 201.659L16.0564 204.401L14.3016 202.898L16.1113 201.659Z" fill="#E8BF89"/>
<path d="M15.3655 211.946L15.9138 210.63L14.521 210.85L15.3655 211.946ZM13.8958 210.817L15.2119 210.553L14.7513 210.115L15.5958 209.402L14.5539 209.051L14.6635 209.983L14.0713 209.61L13.8958 210.817Z" fill="#E8BF89"/>
<path d="M16.1441 206.792V210.488L13.3364 207.932L16.1441 206.792ZM14.2138 201.034V203.227L12.5687 201.714L14.2138 201.034Z" fill="#E8BF89"/>
<path d="M16.1113 211.201L16.0564 213.942L14.3016 212.44L16.1113 211.201Z" fill="#E8BF89"/>
<path d="M16.1332 230.47L15.0035 231.479L16.1332 231.951V230.47Z" fill="#E8BF89"/>
<path d="M15.1023 232.368L15.3216 232.96L15.7164 232.302L14.9487 232.225L14.3784 231.348L13.7423 232.664L15.1023 232.368ZM12.9307 207.614L14.5758 207.176L14.4113 206.901L14.521 206.463L14.1371 206.605L13.5888 206.002L12.9307 207.614ZM16.1332 228.672L14.0933 229.878L16.1222 230.558L16.1332 228.672Z" fill="#E8BF89"/>
<path d="M14.6636 228.343L14.6087 228.562L15.1132 228.343L15.179 229.034L15.859 228.529L15.1132 228.343L15.519 228.101L14.8171 227.707L14.7074 228.255L13.9836 227.97L14.2249 228.814L14.6636 228.343Z" fill="#E8BF89"/>
<path d="M14.3564 233.826L13.6764 234.232L14.3783 234.605L14.4332 233.75L15.2009 233.114L14.0274 232.587L14.3564 233.826Z" fill="#E8BF89"/>
<path d="M15.9138 226.423L15.8261 226.358L15.2448 226.741L14.7403 227.049L16.1332 228.112V226.314L15.9138 226.423Z" fill="#E8BF89"/>
<path d="M15.2338 227.838L15.8261 228.2L15.7932 227.41L15.2338 227.838ZM13.2597 230.975L14.4003 231.819L14.5538 230.723L14.9925 231.271L15.497 230.152L14.6964 230.185L14.5319 229.472L14.0274 230.13L14.2467 230.174L14.488 230.569L13.2597 230.975ZM14.4661 228.705L14.2906 229.472L14.9816 229.407L14.4661 228.705ZM14.9048 227.356L14.159 227.18L14.4222 227.926L14.9048 227.356ZM11.8997 218L10.6494 218.242L11.5926 219.097L11.8997 218ZM10.5617 232.477L11.1759 232.861L11.3404 232.203L10.5617 232.477ZM11.9436 231.578L12.5468 231.962L12.7113 231.304L11.9436 231.578ZM12.459 228.255L13.2487 227.005H11.7681L12.459 228.255ZM12.4042 208.239L13.1939 206.989L11.7133 206.978L12.4042 208.239ZM13.15 230.35L13.9397 229.089H12.459L13.15 230.35ZM10.6823 217.518L11.5597 217.649L11.121 216.838L10.6823 217.518ZM12.4919 229.604L12.0971 228.584L11.5816 229.549L12.4919 229.604ZM14.488 212.199L14.159 210.926L13.3913 212.023L14.488 212.199ZM12.5358 214.699L11.2526 215.028L12.3494 215.796L12.5358 214.699ZM12.9307 202.328L11.6365 202.657L12.7332 203.425L12.9307 202.328ZM11.3952 230.24L11.121 229.472L10.3752 230.109L11.3952 230.24ZM13.6326 232.543L13.3584 231.776L12.6126 232.412L13.6326 232.543ZM12.7552 231.293L12.47 230.525L11.7242 231.161L12.7552 231.293ZM10.3423 228.441L10.9565 228.825L11.143 228.058L10.3423 228.441ZM12.2726 220.04L11.5378 219.821L11.8668 220.611L12.2726 220.04ZM10.2217 232.148L9.45395 231.951L9.83782 232.752L10.2217 232.148ZM12.3274 233.574L12.4152 233.245L11.9107 233.355L12.1081 233.519L11.801 234.287L12.7223 233.925L12.3274 233.574ZM11.7242 214.271L10.9565 214.195L11.3623 214.853L11.7242 214.271ZM11.1978 209.38L10.4301 209.303L10.8249 209.961L11.1978 209.38Z" fill="#E8BF89"/>
</svg>
