<svg width="261" height="47" viewBox="0 0 261 47" fill="none" xmlns="http://www.w3.org/2000/svg">
<path d="M3.22625 19.1826H257.774C258.197 19.1826 258.617 19.0992 259.008 18.9371C259.4 18.7749 259.756 18.5373 260.055 18.2377C260.355 17.9381 260.592 17.5824 260.754 17.191C260.917 16.7996 261 16.3801 261 15.9564V3.22625C261 2.80257 260.917 2.38305 260.754 1.99162C260.592 1.60019 260.355 1.24452 260.055 0.94493C259.756 0.645343 259.4 0.407713 259.008 0.245578C258.617 0.0834423 258.197 0 257.774 0H3.22625C2.37059 0 1.54997 0.339887 0.94493 0.94493C0.339887 1.54997 0 2.37059 0 3.22625V15.9564C0.00144585 16.8116 0.341802 17.6314 0.946532 18.2361C1.55126 18.8408 2.37104 19.1812 3.22625 19.1826Z" fill="#FFD593"/>
<path d="M3.22625 46.7536H257.774C258.197 46.7536 258.617 46.6701 259.008 46.508C259.4 46.3459 259.756 46.1082 260.055 45.8086C260.355 45.5091 260.592 45.1534 260.754 44.762C260.917 44.3705 261 43.951 261 43.5273V30.7972C261 30.3735 260.917 29.954 260.754 29.5626C260.592 29.1711 260.355 28.8155 260.055 28.5159C259.756 28.2163 259.4 27.9787 259.008 27.8165C258.617 27.6544 258.197 27.5709 257.774 27.5709H3.22625C2.37059 27.5709 1.54997 27.9108 0.94493 28.5159C0.339887 29.1209 0 29.9415 0 30.7972V43.5273C0.00144585 44.3825 0.341802 45.2023 0.946532 45.807C1.55126 46.4118 2.37104 46.7521 3.22625 46.7536Z" fill="#FFD593"/>
</svg>
