<svg width="102" height="126" viewBox="0 0 102 126" fill="none" xmlns="http://www.w3.org/2000/svg">
<path d="M59.4633 45.2494C51.9215 45.2494 44.5491 47.4861 38.2783 51.6768C32.0075 55.8674 27.1201 61.8238 24.2339 68.7926C21.3478 75.7613 20.5927 83.4296 22.064 90.8276C23.5353 98.2257 27.167 105.021 32.4999 110.355C37.8328 115.689 44.6272 119.321 52.0241 120.792C59.421 122.264 67.0881 121.509 74.0558 118.622C81.0235 115.736 86.9789 110.847 91.1689 104.576C95.3589 98.3038 97.5953 90.9303 97.5953 83.3873C97.5807 73.277 93.5585 63.585 86.4105 56.4359C79.2625 49.2868 69.572 45.264 59.4633 45.2494ZM59.4633 40.844C67.8763 40.844 76.1003 43.3391 83.0954 48.0139C90.0905 52.6886 95.5426 59.3329 98.7621 67.1067C101.982 74.8804 102.824 83.4345 101.183 91.6871C99.5414 99.9397 95.4901 107.52 89.5413 113.47C83.5924 119.42 76.0131 123.472 67.7618 125.113C59.5105 126.755 50.9578 125.912 43.1852 122.692C35.4126 119.472 28.7693 114.019 24.0953 107.023C19.4213 100.027 16.9266 91.8016 16.9266 83.3873C16.9339 72.1064 21.4178 61.2896 29.3934 53.3128C37.369 45.336 48.1841 40.8514 59.4633 40.844Z" fill="#3AAAA7"/>
<path d="M5.4744 10.9505H15.8569C15.8569 10.9505 29.0709 14.8524 33.3498 15.3559C36.496 15.7335 41.2153 13.8455 41.2153 9.18835V6.54512C41.2153 1.25867 36.3701 0 33.3498 0H5.4744C4.02301 0.00166565 2.63154 0.57905 1.60525 1.6055C0.578963 2.63194 0.0016671 4.02362 0 5.47523C0.0016671 6.92685 0.578963 8.31854 1.60525 9.34499C2.63154 10.3714 4.02301 10.9488 5.4744 10.9505Z" fill="#3AAAA7"/>
</svg>
