<svg width="163" height="153" viewBox="0 0 163 153" fill="none" xmlns="http://www.w3.org/2000/svg">
<path d="M151.438 76.5143C148.609 65.2836 136.079 19.2296 128.399 0.161572H113.201L82.9678 20.0375L123.064 88.0682C125.246 93.1584 140.848 147.535 141.495 151.332C141.54 151.601 141.64 151.858 141.788 152.087C141.937 152.317 142.13 152.513 142.358 152.664C142.585 152.816 142.841 152.919 143.109 152.968C143.378 153.017 143.654 153.01 143.92 152.948L160.815 148.504C161.497 148.339 162.092 147.923 162.482 147.339C162.871 146.755 163.027 146.046 162.917 145.353L151.438 76.5143Z" fill="#C97798"/>
<path d="M62.5966 56.6384C61.5457 59.1431 8.0306 85.3212 1.88688 88.7146C-0.538277 90.0882 -0.053246 90.7345 0.270108 92.1081L5.20125 107.055C5.37234 107.724 5.79687 108.301 6.38516 108.662C6.97345 109.024 7.67943 109.143 8.35395 108.995C21.2073 105.601 61.1415 91.3809 73.5906 87.0987C89.2732 81.7661 99.3781 75.3832 104.067 62.2133L123.63 0H72.378C67.9319 29.41 65.1025 52.7602 62.5966 56.6384Z" fill="#C97798"/>
</svg>
