<svg width="97" height="156" viewBox="0 0 97 156" fill="none" xmlns="http://www.w3.org/2000/svg">
<path d="M28.3145 50.3381L27.9863 51.9135L27.0235 51.0711L28.3145 50.3381ZM29.0584 54.2986L28.8615 54.1892L29.3429 53.9266L28.7412 53.3358L29.5726 53.1389L29.3538 53.9266L29.6492 53.8172L29.6711 54.6049L29.0694 54.2767L28.9599 55.1191L28.4129 54.419L29.0584 54.2986ZM23.6975 56.4649L24.8791 57.5589L23.1942 57.8215L23.6975 56.4649ZM22.7675 59.0578L23.3583 59.6048L22.5159 59.7361L22.7675 59.0578ZM19.7588 64.5281L20.5575 65.9504L19.0696 65.6222L19.7588 64.5281ZM24.901 65.5566L25.5574 65.1189L25.4698 65.9614L24.901 65.5566ZM28.4895 67.0664L29.0803 66.8257L28.9271 67.4384L28.4895 67.0664ZM33.566 65.9723L34.1567 65.7535L34.0036 66.3552L33.566 65.9723Z" fill="#DAEDDA"/>
<path d="M37.439 66.8695L38.0408 66.6725L37.8547 67.2743L37.439 66.8695ZM28.0957 63.1059L28.7083 62.887L28.5224 63.4888L28.0957 63.1059ZM25.5793 62.5588L26.181 62.3619L26.006 62.9527L25.5793 62.5588ZM24.7588 56.9463L24.8901 57.0775L25.3277 57.4823L25.2183 57.6246L25.7872 58.1716L24.6275 58.3685L24.7041 57.6683L24.7588 56.9463ZM22.8551 60.4473L23.1505 60.0862L23.4131 60.7427L23.0848 60.6551L22.5378 61.596L22.2096 60.2394L22.8551 60.4473ZM17.2972 65.7863L18.4788 67.2633L16.597 67.4384L17.2972 65.7863ZM27.1985 52.2855L26.5639 52.3731L26.9469 51.6619L27.4064 52.3731L28.4458 52.4824L27.6143 53.7516L27.1985 52.2855ZM21.1593 60.0862L22.2534 61.5085L20.5904 61.4976L21.1593 60.0862ZM17.8333 64.5391L19.365 64.1014L19.0368 66.027L17.8333 64.5391ZM22.319 58.2591L22.1002 58.3685L22.1111 57.6027L22.7676 57.8981L23.4459 57.6136L23.4787 58.8609L22.319 58.2591ZM29.4852 57.0119L28.5333 55.9944L29.7587 55.338L29.4852 57.0119ZM30.1854 60.3379L29.704 59.8346L30.3932 59.4188L30.1854 60.3379Z" fill="#DAEDDA"/>
<path d="M16.7173 64.3312L17.7567 63.7842L17.5597 65.1299L16.7173 64.3312ZM26.3232 58.8061L25.6668 58.5108L26.1044 57.9856L26.3232 58.8061ZM18.5554 65.4253L17.7895 65.9723L17.6363 65.1518L18.5554 65.4253ZM19.4087 62.4713L19.7369 61.8586L20.2512 62.5151L19.4087 62.4713ZM27.3298 64.1562L26.6734 64.6156L26.8374 63.8498L27.3298 64.1562ZM25.7106 60.9505L25.0542 61.41L25.2182 60.6442L25.7106 60.9505ZM22.9098 54.8894L23.6318 53.6531L24.2445 54.966L22.9098 54.8894ZM27.6142 53.9376L28.03 54.8566L27.1766 54.769L27.6142 53.9376ZM30.8198 56.4539L31.3669 57.6574L30.251 57.548L30.8198 56.4539ZM24.6931 55.5239L24.1898 54.1892L24.8134 54.3642L24.9228 53.1936L25.7981 53.9594L24.9557 54.3752L25.5902 54.7034L24.6931 55.5239ZM27.7784 56.7602L28.3801 55.338L29.2116 56.6946L27.7784 56.7602ZM31.0606 61.2897L30.7542 61.6179L30.5901 61.1146L31.0606 61.2897ZM28.6208 60.4144L28.3145 60.7427L28.1503 60.2394L28.6208 60.4144ZM30.1525 70.0969L29.6383 70.2829L29.8571 69.7359L30.1525 70.0969ZM30.0649 74.0684L29.5398 74.2106L29.7805 73.6636L30.0649 74.0684ZM38.4017 64.2218L37.8547 64.2656L38.183 63.7842L38.4017 64.2218ZM23.6975 63.8717L23.1723 63.9811L23.4349 63.4669L23.6975 63.8717ZM25.7325 61.979L25.1854 62.0883L25.448 61.5741L25.7325 61.979ZM21.9032 58.6968L21.3014 57.0557L21.6297 57.0447L21.9032 56.6837L22.0126 57.0994L22.8004 57.2088L21.9032 58.6968ZM19.9339 63.6638L19.0586 63.3028L19.7151 62.6792L19.9339 63.6638ZM22.9317 67.6353L22.4393 68.4011L22.1658 67.7666L22.9317 67.6353ZM21.2906 64.3203L20.7435 65.0314L20.5247 64.3749L21.2906 64.3203ZM27.5814 57.2088L26.9797 56.4977L27.9097 56.443L27.5814 57.2088ZM23.4021 66.1036L22.6362 65.8082L23.238 65.283L23.4021 66.1036ZM22.7456 63.3028L22.0236 62.9199L22.68 62.4822L22.7456 63.3028ZM21.6844 60.0206L22.2314 59.3204L22.5377 60.2175L21.6844 60.0206ZM21.4656 61.4429L22.4174 62.1212L21.3233 62.4166L21.4656 61.4429ZM21.6844 64.0358L22.3408 64.5063L21.575 64.7251L21.6844 64.0358ZM21.3233 65.0752L22.0236 65.469L21.3014 65.7644L21.3233 65.0752ZM21.1045 67.0445L21.8047 67.4274L21.0827 67.7337L21.1045 67.0445ZM36.695 52.4934L36.148 53.0404L36.1261 52.2965L36.695 52.4934ZM30.8417 58.2919L31.1372 58.6639L30.5682 58.8499L30.8417 58.2919ZM31.2137 56.9025L31.9796 56.7384L31.6076 57.5042L31.2137 56.9025ZM27.1657 59.6376L27.9315 59.4188L27.6033 60.1847L27.1657 59.6376ZM32.5266 55.9178L33.2925 55.8084L32.8877 56.5414L32.5266 55.9178ZM28.3254 57.3401L29.3757 57.1213L28.8724 58.1497L28.3254 57.3401ZM25.262 59.6705L26.3998 59.3423L25.9075 60.502L25.262 59.6705ZM29.4742 64.7798L30.601 64.4078L30.1634 65.5894L29.4742 64.7798ZM34.4303 60.6223L35.59 60.3816L35.0429 61.5085L34.4303 60.6223ZM33.0299 63.5763L34.1896 63.3356L33.6426 64.4515L33.0299 63.5763ZM31.8592 59.1672L32.3297 60.2831L31.2356 59.9002L31.8592 59.1672ZM31.3122 54.8675L32.6032 54.6815L31.9468 55.885L31.3122 54.8675ZM33.3909 52.7888L33.6097 54.2111L32.45 53.4233L33.3909 52.7888ZM30.054 49.5066L29.7696 52.0229L28.3254 50.2724L30.054 49.5066ZM25.6449 64.1343L25.1635 64.9001L24.9228 63.9155L25.6449 64.1343ZM27.0344 65.7425L26.6405 66.574L26.3123 65.6222L27.0344 65.7425ZM24.6931 61.7164L24.2117 62.4822L23.971 61.4976L24.6931 61.7164ZM23.7084 61.5851L22.9425 62.8323L22.5706 61.2459L23.7084 61.5851Z" fill="#DAEDDA"/>
<path d="M35.776 55.5787L35.1414 56.8915L34.5944 55.3598L35.776 55.5787ZM39.7475 49.9333L39.1129 51.2461L38.5659 49.7144L39.7475 49.9333ZM25.5902 55.9506L26.2139 56.8259L25.0542 56.9791L25.5902 55.9506ZM25.8528 57.1541L26.6187 56.9353L26.553 57.9419L25.8528 57.1541ZM23.0848 55.885L24.2336 55.7428L23.8835 57.0994L23.0848 55.885ZM35.229 49.7582L35.2071 48.9924L35.8963 49.43L35.229 49.7582ZM37.2749 50.3052L37.2311 49.0143L38.4346 49.7801L37.2749 50.3052ZM19.9448 63.6857L19.3759 64.3859L19.1571 63.5544L19.9448 63.6857ZM17.5707 65.5128L16.0171 66.0598L16.3781 64.6375L17.5707 65.5128ZM19.1899 66.6725L19.8464 67.5696L18.9492 67.8978L19.1899 66.6725ZM20.3934 64.3968L19.6276 64.4406L19.9558 63.6748L20.3934 64.3968ZM25.3386 59.7799L24.6821 59.4735L25.1745 58.8609L25.3386 59.7799ZM18.8836 61.6398L19.0696 61.968L19.1789 61.6179L19.5838 61.8367L19.1462 62.0337L19.5838 62.5807H18.2709L18.8836 61.6398ZM21.3343 62.3509L20.7873 63.0511L20.4918 62.3181L21.3343 62.3509ZM32.6688 58.1935L31.9686 58.106L32.5156 57.7012L32.6688 58.1935ZM26.914 68.7293L26.5202 68.2917L27.0344 68.1167L26.914 68.7293ZM23.0191 64.6813L22.669 64.1999L23.2161 64.0905L23.0191 64.6813ZM23.4787 63.6529L23.1286 63.1715L23.6756 63.0621L23.4787 63.6529ZM32.7783 60.7864L32.3187 60.9505L32.461 60.4472L32.7783 60.7864ZM30.0431 62.0337L28.8943 62.4385L29.2553 61.2022L30.0431 62.0337Z" fill="#DAEDDA"/>
<path d="M24.5399 62.6135L24.4853 63.9264L23.5444 63.0511L24.5399 62.6135ZM24.2117 66.2239L24.3211 68.0292L22.8988 66.9898L24.2117 66.2239ZM28.7302 64.7579L28.6864 66.0708L27.7346 65.1955L28.7302 64.7579ZM19.2556 60.9724L19.9886 60.4254L19.2665 60.2066L19.8464 59.6595L20.0652 60.316L20.4372 60.0425L20.7436 61.8696L19.2556 60.9724ZM32.8658 48.4125L33.6097 49.4628L32.3187 49.7473L32.8658 48.4125ZM30.9184 50.8195L30.7433 50.9617L30.7324 50.3709L30.0759 50.5897L30.2619 49.6926L30.7324 50.3709L30.798 49.8786L31.4545 50.4037L31.0168 50.7538L31.5638 51.3556L30.6886 51.465L30.9184 50.8195ZM32.0452 51.279L31.9359 52.2636L31.356 51.826L32.0452 51.279ZM30.3385 52.0776L30.9512 51.5963L30.9184 52.5153L30.3385 52.0776ZM34.4631 47.5591L34.2443 48.3031L33.752 47.7998L34.4631 47.5591ZM32.0562 50.0099L32.9314 49.9005L32.5266 50.6663L32.0562 50.0099ZM34.9883 58.3576L34.6382 58.8171L34.6054 58.2263L34.9883 58.3576ZM35.043 69.9875L34.7586 70.4908L34.6491 69.9L35.043 69.9875ZM35.5135 73.2479L35.1852 73.7293L35.1196 73.1494L35.5135 73.2479ZM29.5726 63.7076L29.8571 64.0796H29.3101L29.5726 63.7076ZM27.2751 61.7383L27.5815 62.0884L27.0344 62.1431L27.2751 61.7383ZM32.3953 63.6529L32.2094 64.1343L31.9905 63.6966L32.3953 63.6529ZM35.8964 63.5654L35.6775 64.0358L35.4916 63.5982L35.8964 63.5654ZM29.9556 58.3685L29.7696 58.8499L29.5508 58.4123L29.9556 58.3685ZM25.7434 55.1957L25.7981 56.071L25.087 55.6334L25.7653 55.0863L25.8747 54.0251L26.9688 54.8128L25.7434 55.1957ZM23.4787 58.0731L24.6493 58.2154L24.0148 59.3532L24.0914 59.6048L23.3912 59.4954L23.7194 58.839L23.4787 58.0731ZM27.9097 56.7822L28.4895 57.3292L27.6471 57.4605L27.9097 56.7822ZM26.4874 58.6202L27.0782 59.1672L26.2357 59.2985L26.4874 58.6202ZM26.9579 60.2941L27.1767 60.0315L27.3736 60.5238L27.1329 60.4473L26.7281 61.1475L26.4874 60.1628L26.9579 60.2941ZM37.0233 56.5196L37.264 56.3008L37.4062 56.815L37.1874 56.7056L36.695 57.3292L36.5856 56.3226L37.0233 56.5196Z" fill="#DAEDDA"/>
<path d="M36.2464 50.3381L36.4433 50.0646L36.6622 50.546L36.4214 50.4913L36.0495 51.1915L35.7541 50.2068L36.2464 50.3381ZM24.7915 59.8565L25.0103 59.5939L25.1963 60.0862L24.9775 60.0206L24.5618 60.7099L24.3211 59.7252L24.7915 59.8565ZM26.0497 57.8105L25.8309 57.8981L25.8418 57.1322L26.4982 57.4386L27.1766 57.1432L27.1985 58.4014L26.0497 57.8105ZM29.0584 59.3423L28.402 59.0469L28.8942 58.4342L29.0584 59.3423ZM27.1985 57.6355L28.3582 57.7668L27.7345 58.9046L27.8111 59.1672L27.1109 59.0578L27.4392 58.4014L27.1985 57.6355ZM23.1504 60.5895L23.8069 59.6048L24.4195 60.8083L24.6602 60.874L24.2226 61.4538L23.8506 60.8192L23.1504 60.5895ZM20.47 62.8652L21.6297 63.0074L20.9951 64.1452L21.0717 64.3969L20.3824 64.2874L20.6887 63.631L20.47 62.8652ZM27.0891 55.0535L26.542 56.2789L25.9294 54.9113L27.0891 55.0535Z" fill="#DAEDDA"/>
<path d="M28.2926 54.7034L27.5924 56.5195L26.739 55.1739L28.2926 54.7034ZM24.168 56.3883L24.6384 56.0601L24.8025 55.7318L24.8791 55.9944H25.0323L24.9557 56.246L25.0323 56.3336L24.9557 56.246L24.9447 56.7493L24.168 56.3883ZM32.3735 48.8392L32.461 48.9048L32.2969 49.6269L32.1875 50.2506L30.6886 49.1893L32.3844 48.5766L32.3735 48.8392Z" fill="#DAEDDA"/>
<path d="M31.159 50.0646L30.5792 49.6269L31.3232 49.3425L31.159 50.0646ZM29.6055 52.8763L29.8571 52.0776L30.3275 52.7341L29.6055 52.8763ZM34.0364 48.3906L34.8351 49.2112L33.6973 49.605L34.0364 48.3906ZM37.3733 52.0667L37.8329 51.7385L37.9423 52.3183L37.3733 52.0667ZM20.5247 59.7252L20.7654 58.1497L22.1658 59.2219L20.5247 59.7252ZM35.229 54.1126L35.7322 54.769H34.9445L35.229 54.1126ZM34.6381 52.1871L35.1305 52.8435L34.3646 52.8325L34.6381 52.1871ZM30.8308 53.0623L30.6886 52.2746L31.4216 52.745L30.8308 53.0623Z" fill="#DAEDDA"/>
<path d="M32.3844 51.1258L33.5441 52.001L32.6032 52.6028L32.3844 51.1258ZM34.4631 47.6029L36.2136 47.0559L36.0823 48.5876L34.4631 47.6029ZM33.0956 50.6663L34.0802 49.791L34.4084 50.8523L33.0956 50.6663ZM31.2575 54.0251L31.1481 52.3293L32.4391 53.3905L31.2575 54.0251ZM29.1022 53.2921L27.855 52.4824L28.7959 51.8917L28.1066 51.6947L28.9272 50.7429L29.2335 51.5525L29.9556 51.4212L29.5508 52.1871L29.4086 52.001L28.9491 51.9245L29.1022 53.2921ZM28.2269 54.3314L28.3582 53.4234L28.9381 54.1564L28.2269 54.3314ZM33.3691 48.6204L33.2597 48.0405L33.8067 48.2922L33.3691 48.6204ZM35.1961 50.3928L35.3712 50.8961L34.9008 50.721L35.1961 50.3928ZM41.5199 51.2243L40.8634 51.64L40.9729 50.907L41.5199 51.2243ZM43.5329 48.5985L42.8765 49.0143L42.9859 48.2922L43.5329 48.5985ZM40.5571 48.2703L40.6665 47.5373L41.2682 48.1062L40.5571 48.2703ZM38.2267 46.4104L38.9597 47.5044L37.6468 47.7233L38.2267 46.4104ZM40.196 46.0165L39.8678 46.6948L39.474 46.104L40.196 46.0165ZM37.3733 47.953L38.2705 47.8983L37.8329 48.6423L37.3733 47.953Z" fill="#DAEDDA"/>
<path d="M37.7015 46.8042L37.789 46.8699L37.614 47.581L37.5045 48.1828L36.0166 47.0668L37.7453 46.5416L37.7015 46.8042ZM39.6161 46.6948L40.2726 47.6576L39.0691 47.8108L39.6161 46.6948ZM41.0384 46.0384L41.7824 46.6401L41.1588 46.9902L41.0384 46.0384ZM38.2704 48.7079L39.3864 48.0515L39.5177 49.1455L38.2704 48.7079ZM38.905 46.7823V46.2025L39.4192 46.5635L38.905 46.7823ZM40.3929 48.883L40.4804 49.3972L40.0428 49.1346L40.3929 48.883ZM43.1719 47.0996L43.2593 47.6248L42.8218 47.3622L43.1719 47.0996ZM28.5442 61.41L28.5004 62.0665L28.0628 61.5194L28.5442 61.41ZM31.7935 68.0073L31.8264 68.6637L31.334 68.1604L31.7935 68.0073ZM30.6666 51.1805L30.0539 51.6619L29.8352 50.9507L30.6666 51.1805ZM31.7279 50.1958L32.1983 50.8523L31.4106 50.8851L31.7279 50.1958ZM31.7935 54.1017L30.4806 55.1301L29.9555 52.942L31.7935 54.1017ZM26.8483 51.093L23.96 53.3249L27.4063 54.419L26.8483 51.093ZM22.7675 54.4627L20.9841 56.4867L23.216 56.7055L22.7675 54.4627ZM19.9557 57.909L18.7194 59.7689L21.75 60.316L19.9557 57.909ZM17.6363 61.6289L16.4766 64.2108L19.0258 64.0249L17.6363 61.6289Z" fill="#DAEDDA"/>
<path d="M15.9624 66.4974L15.4591 68.5324L17.702 67.9307L15.9624 66.4974ZM21.017 56.5086L19.9557 57.909L21.3562 57.92L21.017 56.5086ZM18.5225 60.0644L17.5816 61.7492L19.5838 61.4538L18.5225 60.0644ZM25.2292 89.1665L25.1198 88.4882L25.6449 88.7727L25.2292 89.1665ZM31.6842 87.1644L31.6076 86.4861L32.1218 86.8143L31.6842 87.1644ZM26.4983 79.1558L26.3232 78.4994L26.8703 78.751L26.4983 79.1558ZM28.8834 78.8495L29.0365 79.4293L28.5333 79.1449L28.8834 78.8495ZM21.7719 90.4466L22.2424 91.1249L21.5422 91.0374L21.7719 90.4466ZM22.8332 69.5937L22.4284 68.3902L23.5552 68.8825L22.8332 69.5937ZM23.0957 84.0354L22.6581 82.6897L23.8944 83.2367L23.0957 84.0354ZM17.9098 94.4837L17.9864 93.4553L18.6648 94.2212L17.9098 94.4837ZM19.0696 91.3328L20.0761 91.289L19.4634 92.1643L19.0696 91.3328ZM25.9622 69.1451L27.1875 69.9328L25.7652 70.3705L25.9622 69.1451ZM18.2819 92.4925L17.6254 92.1971L18.2381 91.7048L18.2819 92.4925ZM16.2687 92.2737L16.7611 92.8754L16.1265 93.0505L16.2687 92.2737ZM19.2774 95.1183L19.6056 95.6216L19.0586 95.4793L19.2774 95.1183ZM36.1589 85.0857L36.52 85.5452L35.9729 85.4577L36.1589 85.0857ZM28.0628 88.9806L28.5004 89.1994L28.0847 89.3963L28.0628 88.9806ZM16.7173 93.1052L17.702 92.6676L17.6363 93.9805L16.7173 93.1052ZM21.4218 89.5385L21.1593 88.9915L21.7063 88.9696L21.4218 89.5385ZM23.1723 92.2737L23.8287 91.8361L23.7631 92.6676L23.1723 92.2737ZM23.8506 90.8076L23.238 91.0265L23.1833 90.1512L23.8506 90.8076ZM22.4065 86.9237L23.61 86.9675L23.0629 87.9959L22.4065 86.9237ZM31.4325 80.1405L31.3012 80.7094L30.973 80.1952L31.4325 80.1405ZM21.0608 78.0946L21.2577 78.9042L20.645 78.5213L21.0608 78.0946ZM23.9382 87.7661L24.3758 87.6567L24.2992 88.2913L23.9382 87.7661ZM22.9535 86.7596L23.1395 85.9391L23.61 86.6392L22.9535 86.7596ZM22.2752 84.9216L22.4611 84.0901L22.9207 84.8012L22.2752 84.9216ZM20.2621 83.3461L21.0717 84.6262L19.5729 84.3526L20.2621 83.3461ZM24.5946 85.95L24.2336 86.5846L24.1241 85.8734L24.5946 85.95ZM26.8046 87.0659L26.7499 87.5911L26.3998 87.2191L26.8046 87.0659ZM25.8856 80.961L26.2139 81.4752L25.6668 81.3111L25.8856 80.961Z" fill="#DAEDDA"/>
<path d="M27.5705 84.5167L27.8987 84.9216L27.4392 84.9106L27.5705 84.5167ZM23.61 88.6742L23.9382 89.09L23.4787 89.079L23.61 88.6742ZM24.1351 78.6088L24.0039 78.2806L24.4962 78.3353L24.3321 78.5322L24.7369 79.2543L23.8179 79.0027L24.1351 78.6088ZM21.8048 80.0639L22.5706 79.8888L22.2752 80.6547L21.8048 80.0639ZM20.6013 93.3568L21.3124 93.0286L21.1374 93.8382L20.6013 93.3568ZM16.1156 91.5735L16.7939 90.9389L17.0127 91.6829L16.1156 91.5735ZM16.1922 96.5296L16.0609 95.7419L16.6298 95.8951L16.1922 96.5296ZM16.5533 93.9039L16.039 93.685L16.5095 93.3021L16.5533 93.9039ZM19.0915 92.2628L19.5729 92.2299L19.3212 92.6676L19.0915 92.2628ZM18.4898 69.911L19.2337 70.1297L18.5445 70.644L18.4898 69.911ZM17.6145 76.2565L18.7633 77.3506L17.2644 77.5694L17.6145 76.2565ZM23.0411 74.878L23.4459 74.1559L23.7084 74.9655L23.0411 74.878ZM27.4502 74.692L27.8878 74.2325L27.9644 74.8561L27.4502 74.692ZM24.8681 71.1144L25.3058 70.644L25.3824 71.2785L24.8681 71.1144ZM22.4174 71.8256L22.8769 71.3551L22.9535 71.9897L22.4174 71.8256ZM19.1352 71.1472L19.2447 70.6768L19.7589 71.1691L19.4307 71.2348L19.3212 72.3617L18.4788 71.2676L19.1352 71.1472Z" fill="#DAEDDA"/>
<path d="M15.7873 78.9151L17.3409 79.8998L15.6342 80.7532L15.7873 78.9151ZM17.3191 71.5849L18.8726 72.3726L17.3847 73.1385L17.3191 71.5849ZM15.8092 76.8802L17.1221 75.9502L17.3628 77.9195L15.8092 76.8802ZM17.7786 69.3749L17.6144 69.5609L17.3191 68.8606L18.0192 68.8388L18.5006 68.2589L19.0258 69.3968L17.7786 69.3749Z" fill="#DAEDDA"/>
<path d="M14.8356 77.3506L15.5576 76.366L15.8859 77.7116L14.8356 77.3506ZM16.8924 77.5257L16.3454 78.3134L15.9625 77.5804L16.8924 77.5257ZM16.7283 74.4842L16.783 73.7621L17.5051 74.0903L16.7283 74.4842ZM24.6056 72.4492L24.2117 73.1822L24.0476 72.3945L24.6056 72.4492ZM21.8704 70.261L21.4656 70.9941L21.3015 70.2282L21.8704 70.261ZM28.9819 77.2631L28.5443 77.6241L28.5661 77.0224L28.9819 77.2631ZM30.4589 80.7641L30.0212 81.1142L30.0431 80.5124L30.4589 80.7641ZM21.2687 73.8715L20.831 74.2325L20.8639 73.6308L21.2687 73.8715ZM22.2862 71.191L21.8485 71.5411L21.8814 70.9503L22.2862 71.191ZM17.3957 69.9438L16.1922 68.7184L16.4548 68.5543L16.5642 68.1167L16.8377 68.4449L17.5817 68.1823L17.3957 69.9438ZM17.6364 75.2828L16.6955 75.3703L17.0237 74.4951L17.6364 75.2828ZM21.4437 77.4928L21.225 78.4009L20.7654 77.8976L21.4437 77.4928ZM19.1243 75.2828L18.9055 76.1909L18.446 75.6876L19.1243 75.2828ZM21.7282 76.4425H20.9295L21.3343 75.7095L21.7282 76.4425ZM20.1746 73.7949L19.376 73.7839L19.7698 73.0618L20.1746 73.7949ZM17.713 71.2566L17.9318 70.3486L18.5663 71.0378L17.713 71.2566Z" fill="#DAEDDA"/>
<path d="M18.2927 72.6899L19.3868 72.8649L18.5444 73.6526L18.2927 72.6899ZM19.3431 74.8124L20.1089 74.9218L19.5182 75.4688L19.3431 74.8124ZM19.5072 76.2347L20.273 76.344L19.6822 76.8911L19.5072 76.2347ZM19.5619 77.6022L20.3278 77.7116L19.7479 78.2587L19.5619 77.6022ZM20.6341 68.7403L21.5093 67.9197L21.5422 69.1998L20.6341 68.7403ZM23.0957 73.1932L22.9863 74.134L22.3737 73.3354L23.0957 73.1932ZM25.0103 74.7467L24.901 75.6876L24.2883 74.8889L25.0103 74.7467ZM21.2686 71.4098L21.1593 72.3507L20.5465 71.5521L21.2686 71.4098ZM20.3387 71.7599L20.1636 73.2478L19.1789 71.9787L20.3387 71.7599ZM17.4613 75.3047L17.2206 76.2018L16.7064 75.5454L17.4613 75.3047ZM15.9733 77.9305L14.6605 78.9589L14.5949 77.4709L15.9733 77.9305ZM17.505 77.9305L18.3803 78.565L17.6144 79.1668L17.505 77.9305Z" fill="#DAEDDA"/>
<path d="M18.1397 75.7751L17.4613 76.1581V75.2828L18.1397 75.7751ZM15.9296 73.9371L16.225 74.1559L16.1922 73.7839L16.6517 73.7949L16.3235 74.1887L16.9471 74.4951L15.7764 75.1078L15.9296 73.9371ZM18.3803 73.4339L18.1615 74.3419L17.6145 73.8167L18.3803 73.4339ZM25.5356 77.1099L25.0323 76.8364L25.4699 76.4754L25.5356 77.1099ZM20.831 74.7686L20.3278 74.4951L20.7654 74.145L20.831 74.7686ZM21.0171 73.7839L20.5028 73.5104L20.9405 73.1494L21.0171 73.7839Z" fill="#DAEDDA"/>
<path d="M21.5093 72.3288L22.0016 73.5323L20.7982 73.1822L21.5093 72.3288ZM23.3364 75.6548L23.8178 76.8583L22.6362 76.5082L23.3364 75.6548ZM19.2446 80.414L18.621 79.8669L19.3868 79.7357L19.2446 80.414ZM21.5968 84.4402L22.3846 84.8778L21.8594 85.2498L21.5968 84.4402ZM20.9404 81.7269L20.9185 82.5802L20.2621 82.077L20.9404 81.7269ZM21.378 86.4642L21.5968 85.6764L22.0016 86.4204L21.378 86.4642ZM17.4175 80.0639L18.2927 80.3046L17.5269 80.8516L17.4175 80.0639ZM19.5838 78.1274L20.4371 78.4118L19.6275 78.9151L19.5838 78.1274ZM21.6297 78.018L21.3014 78.5103L21.0279 77.9851L21.6297 78.018ZM20.2511 79.9435L21.3999 79.5497L21.0388 80.786L20.2511 79.9435ZM27.2531 72.3069L27.7345 73.5323L26.553 73.1713L27.2531 72.3069ZM16.028 73.2697L16.4656 72.4273L15.7436 72.5695L16.0389 71.8037L16.4985 72.3179L16.7172 71.8803L17.7348 73.4119L16.028 73.2697ZM33.1174 75.064L33.0079 75.6548L32.7344 75.1296L33.1174 75.064ZM34.9007 76.8802L34.7913 77.4709L34.5177 76.9458L34.9007 76.8802ZM23.599 70.2392L24.0147 70.4142L23.5552 70.7205L23.599 70.2392ZM18.7413 68.6527L19.8354 68.237L19.7259 69.5827L19.901 69.7796L19.2446 69.9985L19.2555 69.2545L18.7413 68.6527ZM20.645 69.6812L20.7216 69.353L21.0935 69.714L20.8528 69.7687L20.7763 70.5893L20.1636 69.7906L20.645 69.6812ZM19.4853 71.1253L19.6712 69.9L20.6997 70.7096L20.9185 70.6549L20.7872 71.3879L20.1964 70.9722L19.4853 71.1253ZM17.8442 74.2981L18.9382 73.8605L18.8507 75.1953L19.0258 75.3922L18.3693 75.611V74.8671L17.8442 74.2981ZM16.6735 71.5411L16.2359 69.9766L17.8989 70.3048L16.6735 71.5411ZM29.4741 74.32L29.6929 74.9546L29.0912 74.6482L29.4741 74.32ZM17.6253 97.5143L19.1352 97.8206L17.8223 99.0022L17.6253 97.5143ZM17.8879 101.158L18.5772 101.54L17.7895 101.891L17.8879 101.158ZM15.1527 107.941L15.7654 109.429L14.3213 108.936L15.1527 107.941Z" fill="#DAEDDA"/>
<path d="M21.2906 107.011L21.8376 106.398L21.9251 107.241L21.2906 107.011ZM24.7697 106.934L25.2949 106.551L25.273 107.186L24.7697 106.934ZM30.3714 100.304L30.7543 99.7571L30.9074 100.381L30.3714 100.304ZM23.8507 103.75L24.3977 103.389L24.343 104.024L23.8507 103.75ZM21.3124 103.915L21.8595 103.554L21.8048 104.188L21.3124 103.915ZM18.6867 97.383L18.8727 97.4158L19.4197 97.5252L19.3869 97.7221L20.109 97.8644L19.2337 98.6959L18.9602 98.0394L18.6867 97.383ZM18.2491 102.525L18.446 102.087L18.8508 102.678L18.5226 102.667L18.1944 103.761L17.6036 102.514L18.2491 102.525ZM16.5204 102.799L17.7239 104.079L16.0828 104.265L16.5204 102.799ZM13.2382 107.722L14.8027 107.47L14.2339 109.33L13.2382 107.722ZM17.2863 100.523L17.0894 100.676L16.9471 99.9322L17.6364 100.042L18.2272 99.5821L18.5116 100.807L17.2863 100.523ZM12.1441 107.416L13.2382 106.978L12.8663 108.291L12.1441 107.416ZM20.9514 99.2757L20.2731 99.1445L20.5685 98.5208L20.9514 99.2757ZM13.84 108.728L13.0085 109.199L12.9538 108.356L13.84 108.728ZM14.9888 105.402L15.2732 104.746L15.8421 105.326L14.9888 105.402ZM23.3256 105.009L22.7785 105.632L22.7895 104.845L23.3256 105.009ZM21.0936 102.273L20.5466 102.897V102.098L21.0936 102.273Z" fill="#DAEDDA"/>
<path d="M16.1812 96.6171L16.2031 95.1292L17.3409 95.9279L16.1812 96.6171ZM17.9865 96.1795L16.9252 95.3043L17.5379 95.0854L17.1003 93.9914L18.1943 94.1555L17.6801 94.9979L18.3694 94.9323L17.9865 96.1795ZM23.785 100.993L23.5662 101.398L23.3036 100.961L23.785 100.993ZM27.0235 109.494L26.5639 109.823L26.6515 109.232L27.0235 109.494ZM27.3736 115.927L26.8703 116.146L27.0563 115.577L27.3736 115.927ZM19.7807 105.687L19.2884 105.939L19.4416 105.359L19.7807 105.687ZM21.3343 103.28L20.842 103.532L20.9951 102.952L21.3343 103.28ZM16.958 101.07L16.039 99.6149L16.3344 99.5055L16.5313 99.0897L16.7173 99.4617L17.5051 99.3742L16.958 101.07ZM15.6014 106.518L14.6933 106.256L15.2841 105.556L15.6014 106.518ZM18.6976 109.494L18.2819 110.315L17.9536 109.713L18.6976 109.494ZM16.9799 107.011L16.4876 107.777L16.225 107.142L16.9799 107.011ZM19.912 107.941L19.1243 107.853L19.5947 107.175L19.912 107.941ZM18.7085 105.359L17.9427 105.184L18.4898 104.56L18.7085 105.359ZM16.9908 102.405L17.3847 101.573L17.8771 102.372L16.9908 102.405ZM17.0784 103.871L18.1396 104.276L17.155 104.855L17.0784 103.871ZM17.3519 106.683L18.0411 107.065L17.3081 107.361L17.3519 106.683ZM17.0784 107.777L17.8114 108.072L17.1112 108.466L17.0784 107.777ZM16.8048 109.122L17.5379 109.429L16.8377 109.812L16.8048 109.122ZM22.2314 100.621L22.9207 100.217L22.7675 101.059L22.2314 100.621ZM20.3059 100.206L21.3343 99.593L21.1155 100.862L20.3059 100.206ZM25.6449 101.114L26.6296 100.457L26.4655 101.726L25.6449 101.114ZM21.6844 105.424L21.389 106.3L20.9514 105.392L21.6844 105.424ZM23.3693 106.661L23.1504 107.58L22.6253 106.726L23.3693 106.661ZM20.2621 103.302L19.9558 104.177L19.5182 103.269L20.2621 103.302ZM19.2774 103.411L18.807 104.834L18.1068 103.378L19.2774 103.411ZM18.7523 95.6216L19.6822 96.0592L18.7851 96.825L18.7523 95.6216ZM19.7369 96.9344L20.284 96.3217L20.6997 97.2407L19.7369 96.9344ZM16.8158 97.372L17.7239 96.6062L18.0521 97.9957L16.8158 97.372ZM15.6123 106.518L15.12 107.284L14.8246 106.486L15.6123 106.518ZM12.8772 108.652L11.2689 108.98L11.8159 107.613L12.8772 108.652ZM14.2666 109.33L14.8136 110.315L13.8727 110.512L14.2666 109.33ZM16.1594 107.175L15.3935 107.317L15.6451 106.497L16.1594 107.175Z" fill="#DAEDDA"/>
<path d="M20.4919 101.223L19.8026 101.114L20.1527 100.381L20.4919 101.223ZM14.3979 104.615L14.6168 104.921L14.7043 104.56L15.142 104.746L14.7043 104.987L15.1747 105.501L13.8619 105.643L14.3979 104.615ZM16.8924 105.052L16.4001 105.818L16.039 105.118L16.8924 105.052ZM23.5881 108.991L23.1177 108.663L23.5772 108.356L23.5881 108.991ZM19.2885 106.661L18.8508 106.278L19.3431 106.026L19.2885 106.661ZM19.5073 105.523L19.0696 105.14L19.562 104.888L19.5073 105.523ZM25.1417 95.7638L24.1133 96.453L24.2008 95.1402L25.1417 95.7638ZM19.8574 94.2977L19.0915 95.2824L18.8071 93.9914L19.8574 94.2977Z" fill="#DAEDDA"/>
<path d="M23.4786 94.2868L22.7128 95.2714L22.4283 93.9914L23.4786 94.2868ZM20.3058 104.21L20.5247 105.523L19.4306 104.91L20.3058 104.21ZM21.8156 108.652L22.1767 109.91L21.0279 109.44L21.8156 108.652ZM24.2444 99.0241L24.4633 100.315L23.3692 99.7134L24.2444 99.0241ZM14.7261 103.926L15.4044 103.291L14.6823 103.182L15.2075 102.58L15.4701 103.214L15.7983 102.886L16.2578 104.669L14.7261 103.926ZM33.0517 102.503L33.0408 103.105L32.6907 102.667L33.0517 102.503ZM34.9664 105.107L34.9335 105.709L34.6053 105.227L34.9664 105.107ZM25.3933 103.991L25.7543 104.276L25.2291 104.44L25.3933 103.991ZM22.7675 102.645L23.1395 102.908L22.6252 103.105L22.7675 102.645ZM18.796 94.0023L19.2337 94.7353L18.4349 94.7463L18.7632 93.8929L18.3475 92.9082L19.6275 92.9848L18.796 94.0023ZM18.3365 100.042L19.4962 99.8665L19.1242 101.147L19.2337 101.365L18.5444 101.442L18.7085 100.72L18.3365 100.042ZM22.1439 97.7112L22.8331 98.0941L22.0454 98.4442L22.1439 97.7112ZM23.8506 97.1095L24.5289 97.5033L23.7631 97.8534L23.8506 97.1095ZM20.1526 94.1555L20.9185 94.2977L20.2621 94.8885L20.1526 94.1555ZM22.1658 101.289L22.308 100.982L22.6033 101.42H22.3517L22.1111 102.208L21.6734 101.289H22.1658ZM19.9776 101.453L20.1308 101.147L20.4262 101.584L20.1745 101.573L19.9229 102.361L19.4853 101.453H19.9776ZM20.6122 92.2846L20.47 92.5034L20.1417 91.847L20.831 91.7376L21.2686 91.103L21.8813 92.1971L20.6122 92.2846ZM20.8966 95.162L21.936 94.6369V95.9826L22.1111 96.1576L21.4765 96.453L21.4327 95.7091L20.8966 95.162ZM18.5553 102.602L18.9929 101.442L19.8354 102.449H20.076L19.7916 103.138L19.2993 102.591L18.5553 102.602ZM16.0718 105.665H17.2424L16.7173 106.869L16.8048 107.109L16.1046 107.076L16.3672 106.387L16.0718 105.665ZM17.9536 97.2079L18.1943 96.6609L18.1724 96.2889L18.3584 96.4749L18.4897 96.3874L18.5444 96.6499L18.6538 96.6828L18.5444 96.6499L18.7632 97.0876L17.9536 97.2079ZM15.8749 102.459L15.7873 100.851L17.3518 101.54L15.8749 102.459ZM23.9272 102L24.0366 102.656L23.5114 102.219L23.9272 102ZM28.1503 106.989L28.3144 107.645L27.7455 107.284L28.1503 106.989Z" fill="#DAEDDA"/>
<path d="M15.8639 96.3108L15.3169 99.0897L17.2862 98.0175L15.8639 96.3108ZM14.923 100.796L14.1353 102.963L17.1549 102.689L14.923 100.796ZM13.3913 104.845L11.9253 107.251L14.4854 107.383L13.3913 104.845ZM15.3606 99.1007L15.12 100.928L16.3016 100.162L15.3606 99.1007ZM13.9164 103.094L13.1287 104.888L15.098 104.363L13.9164 103.094ZM27.2422 114.494L27.8658 114.319L27.647 114.91L27.2422 114.494ZM31.3231 107.963L30.8088 108.181L30.9949 107.613L31.3231 107.963ZM18.7741 111.486L18.2818 110.315L19.4306 110.676L18.7741 111.486ZM22.9316 116.168L22.3627 114.899L23.6427 115.26L22.9316 116.168ZM14.562 139.012L14.1243 137.699L15.3606 138.181L14.562 139.012ZM23.3692 123.586L22.8003 122.317L24.0694 122.678L23.3692 123.586ZM24.3539 109.286L25.6996 109.724L24.4086 110.534L24.3539 109.286ZM39.1019 115.085L39.6489 115.26L39.1566 115.512L39.1019 115.085ZM30.3931 113.63L29.868 113.477L30.3275 113.149L30.3931 113.63ZM24.8571 116.945L25.251 116.398L25.3933 117.011L24.8571 116.945ZM21.9469 113.761L22.3517 113.214L22.494 113.827L21.9469 113.761ZM16.3672 116.168L16.9142 115.818L16.8486 116.453L16.3672 116.168ZM20.3824 115.873L19.9667 116.617L19.8244 115.829L20.3824 115.873ZM16.2031 114.527L15.656 115.151L15.6779 114.352L16.2031 114.527ZM32.8329 107.941L32.45 107.503L32.997 107.481L32.8329 107.941ZM29.8133 109.823L29.4194 109.407L29.9665 109.374L29.8133 109.823ZM16.4109 115.534L15.9186 115.785L16.0827 115.205L16.4109 115.534ZM16.3016 109.604L17.2862 108.904L17.1768 110.184L16.3016 109.604ZM18.4459 114.418L18.1177 115.293L17.7019 114.385L18.4459 114.418ZM20.7216 118.192L20.6122 119.133L20.0104 118.345L20.7216 118.192ZM25.448 110.588L26.17 111.661L24.9666 111.628L25.448 110.588ZM35.1304 115.49L34.5834 115.359L35.0648 115.074L35.1304 115.49ZM36.1698 108.619L36.3448 109.188L35.8634 108.893L36.1698 108.619ZM19.3977 113.674L19.8135 113.849L19.343 114.155L19.3977 113.674ZM12.0675 109.494L13.1944 109.21L12.9318 110.523L13.085 110.742L12.3957 110.884L12.5051 110.14L12.0675 109.494ZM15.109 113.696L15.2622 113.389L15.5467 113.827L15.3059 113.816L15.0324 114.604L14.6167 113.685L15.109 113.696ZM26.7936 116.278L27.0891 116.868L26.4654 116.65L26.7936 116.278ZM24.9009 92.6019L24.7149 93.1489L24.4414 92.6019H24.9009ZM27.2422 87.2628L27.4392 87.8318L26.9578 87.5473L27.2422 87.2628ZM33.3034 96.2561L32.7016 96.0044L33.194 95.6762L33.3034 96.2561ZM27.8987 96.4968L28.4128 96.6937L27.9314 96.9782L27.8987 96.4968ZM33.544 91.0046L34.0911 90.8623L33.7847 91.3437L33.544 91.0046ZM30.24 94.987L30.601 95.4465L30.0539 95.4246L30.24 94.987ZM27.5923 99.3632L27.461 99.9321L27.1328 99.4289L27.5923 99.3632ZM30.2181 96.1904L30.2509 96.7813L29.8133 96.4093L30.2181 96.1904ZM27.3188 90.4794L27.7017 90.917L27.1547 90.8514L27.3188 90.4794ZM29.682 89.9762L30.0649 90.4138L29.5179 90.3481L29.682 89.9762ZM24.7806 93.3021L25.3933 93.4771L24.8243 93.8382L24.7806 93.3021ZM15.12 69.9985L14.7917 72.296L17.68 71.366L15.12 69.9985ZM14.6276 74.4404L14.5839 77.3506L16.8048 76.0377L14.6276 74.4404ZM14.737 79.4731L14.8792 81.5956L16.7938 80.2061L14.737 79.4731Z" fill="#DAEDDA"/>
<path d="M15.5247 68.3136L15.1527 70.0969L16.4 69.4405L15.5247 68.3136ZM14.7261 72.6571L14.5839 74.6264L16.225 73.4229L14.7261 72.6571ZM18.9929 88.4116L20.2402 89.3416L18.785 89.7464L18.9929 88.4116ZM17.2096 91.0155L18.7085 92.0877L16.958 92.8536L17.2096 91.0155Z" fill="#DAEDDA"/>
<path d="M17.2644 81.4862L18.9493 81.705L17.8005 82.9632L17.2644 81.4862ZM17.2863 89.2869L18.4898 88.1709L18.9274 90.1074L17.2863 89.2869ZM16.3673 89.8886L16.969 88.7945L17.4394 90.1074L16.3673 89.8886Z" fill="#DAEDDA"/>
<path d="M18.2927 89.7792L17.8223 90.6545L17.3847 89.9652L18.2927 89.7792ZM17.6144 86.3876L17.505 85.6764L18.2709 85.8296L17.6144 86.3876ZM18.6647 86.9565L17.7895 87.2847L17.9208 86.3438L18.6647 86.9565ZM22.7456 88.16L22.7238 89.1009L22.1767 88.7179L22.7456 88.16ZM20.0652 86.5627L20.0433 87.5145L19.4962 87.1316L20.0652 86.5627ZM22.8222 87.0659L22.0563 87.2629L22.2971 86.4423L22.8222 87.0659ZM16.6626 84.7137L17.7566 84.6043L17.1002 85.5889L16.6626 84.7137ZM20.1965 86.0813L20.9623 85.9937L20.5028 86.683L20.1965 86.0813Z" fill="#DAEDDA"/>
<path d="M20.6012 87.3941L21.367 87.3176L20.9294 88.0068L20.6012 87.3941ZM20.9294 88.7289L21.6953 88.6523L21.2357 89.3416L20.9294 88.7289ZM18.7194 87.3941L18.5772 88.3241L18.0083 87.7333L18.7194 87.3941ZM17.4065 90.6763L16.0608 91.661L16.0499 90.1621L17.4065 90.6763ZM18.9382 90.1074L19.8791 90.6326L19.1898 91.3328L18.9382 90.1074ZM19.4634 87.241L18.9163 87.8099L18.6976 86.9675L19.4634 87.241ZM16.7282 86.0594L17.0565 86.2016L16.947 85.8406L17.3847 85.7312L17.1658 86.1907L17.8223 86.3438L16.8157 87.241L16.7282 86.0594ZM18.9929 84.9653L18.9711 85.9171L18.3146 85.5342L18.9929 84.9653Z" fill="#DAEDDA"/>
<path d="M16.2797 84.0572L16.4985 83.1163L15.842 83.4664L15.9515 82.6349L16.4985 82.996L16.6079 82.5256L17.9427 83.729L16.2797 84.0572ZM18.6319 85.9719L19.5947 85.2826L19.7807 86.6283L19.9776 86.7705L19.3868 87.1644L19.2446 86.4314L18.6319 85.9719Z" fill="#DAEDDA"/>
<path d="M14.8136 81.158L15.0653 83.4883L17.5816 81.7378L14.8136 81.158ZM15.4919 86.5517L16.0389 89.4182L17.9208 87.6239L15.4919 86.5517ZM16.0827 94.068L15.9733 95.2386L17.1549 94.6916L16.0827 94.068ZM15.1637 84.287L15.4154 86.2782L16.772 84.6699L15.1637 84.287ZM81.9456 0.63457L81.1032 2.00215L80.4796 0.875266L81.9456 0.63457ZM81.2454 4.59509L81.0922 4.43099L81.6393 4.35439L81.2782 3.58855L82.1316 3.69795L81.6393 4.35439H81.9456L81.694 5.09835L81.2564 4.58414L80.8406 5.35L80.5671 4.49663L81.2454 4.59509ZM75.6438 4.57322L76.2236 6.10491L74.5825 5.5907L75.6438 4.57322ZM73.6745 6.46594L73.9589 7.2318L73.1383 6.96923L73.6745 6.46594Z" fill="#DAEDDA"/>
<path d="M68.5871 10.2186L68.6964 11.8378L67.493 10.8969L68.5871 10.2186ZM72.7117 13.2601L73.4994 13.1507L73.0618 13.8618L72.7117 13.2601ZM75.2499 16.1922L75.8845 16.2469L75.4797 16.7173L75.2499 16.1922ZM80.2608 17.4832L80.8953 17.5379L80.4905 18.0084L80.2608 17.4832ZM83.4336 20.4919L84.0682 20.5794L83.6305 21.0389L83.4336 20.4919ZM76.6503 12.4505L77.2849 12.538L76.8473 12.9756L76.6503 12.4505ZM74.6263 10.875L75.2609 10.9626L74.8233 11.4221L74.6263 10.875ZM76.3768 5.47032L76.4425 5.65633L76.6613 6.20336L76.4862 6.29087L76.7597 7.01296L75.6329 6.68476L76.0158 6.083L76.3768 5.47032Z" fill="#DAEDDA"/>
<path d="M73.1275 7.74601L73.5432 7.54909L73.4885 8.27114L73.2369 8.05235L72.3179 8.65407L72.6242 7.29744L73.1275 7.74601ZM65.8191 10.2624L66.2239 12.1223L64.4734 11.444L65.8191 10.2624ZM80.2171 2.05685L79.5934 1.91463L80.2061 1.38946L80.3811 2.21002L81.3221 2.66954L80.1186 3.56667L80.2171 2.05685ZM71.76 6.68477L72.11 8.43528L70.6221 7.66942L71.76 6.68477ZM66.8694 9.38712L68.4339 9.66063L67.2742 11.2361L66.8694 9.38712ZM73.6308 5.55788H73.3682L73.7183 4.90143L74.1559 5.44846L74.889 5.49224L74.3419 6.61912L73.6308 5.55788ZM80.7422 7.30839L80.1952 6.02832L81.5737 5.84231L80.7422 7.30839ZM79.7576 10.9188L79.5388 10.2624L80.3374 10.1967L79.7576 10.9188Z" fill="#DAEDDA"/>
<path d="M65.9503 8.70879L67.1319 8.67597L66.366 9.7919L65.9503 8.70879ZM76.9457 7.83351L76.5081 7.28648L77.1208 7.00204L76.9457 7.83351ZM67.1319 10.514L66.202 10.6781L66.4208 9.8685L67.1319 10.514ZM69.1888 8.23831L69.7577 7.84446L69.9437 8.65406L69.1888 8.23831ZM75.4906 13.0851L74.692 13.1944L75.1842 12.5818L75.4906 13.0851ZM75.4469 9.49652L74.6482 9.6059L75.1405 9.00417L75.4469 9.49652ZM75.6328 2.8227L76.8145 2.02402L76.7925 3.47913L75.6328 2.8227ZM80.2607 4.02616L80.2279 5.0327L79.4949 4.59508L80.2607 4.02616ZM82.1644 7.24274L82.2519 8.5556L81.2454 8.05234L82.1644 7.24274ZM76.9457 4.17933L77.077 2.75704L77.5694 3.19468L78.182 2.21001L78.6415 3.27125H77.7006L78.1382 3.85111L76.9457 4.17933ZM79.1667 6.66285L80.3373 5.64538L80.4905 7.23179L79.1667 6.66285ZM80.1075 12.166L79.6919 12.3192L79.7575 11.794L80.1075 12.166ZM78.2914 10.3061L77.8757 10.4702L77.9523 9.94506L78.2914 10.3061ZM75.4906 20.2074L74.9436 20.1309L75.3812 19.737L75.4906 20.2074ZM73.6307 23.7085L73.0836 23.599L73.5431 23.2271L73.6307 23.7085ZM86.5626 17.1659L86.0155 17.0237L86.486 16.6955L86.5626 17.1659ZM72.3397 11.2361L71.7927 11.1048L72.2631 10.7547L72.3397 11.2361ZM74.9873 10.4264L74.4403 10.2842L74.9107 9.95601L74.9873 10.4264ZM73.018 5.78761L73.204 4.03711L73.4884 4.14651L73.8932 3.96052L73.8166 4.37625L74.4731 4.83578L73.018 5.78761ZM69.1012 9.50744L68.4667 8.78535L69.3419 8.51183L69.1012 9.50744ZM70.0312 14.4089L69.2654 14.8793L69.2982 14.19L70.0312 14.4089ZM70.0203 10.7109L69.1997 11.0829L69.3091 10.4046L70.0203 10.7109ZM78.74 6.95827L78.5212 6.03926L79.3964 6.41124L78.74 6.95827ZM71.0487 13.0632L70.5017 12.4724L71.2675 12.2536L71.0487 13.0632ZM71.7051 10.2733L71.2128 9.61685L72.0115 9.50744L71.7051 10.2733ZM72.2084 6.83791L73.029 6.46593L72.9196 7.40684L72.2084 6.83791ZM71.3769 8.04139L71.9239 9.05886L70.808 8.84007L71.3769 8.04139ZM70.5017 10.6343L70.8846 11.3455L70.1188 11.1923L70.5017 10.6343ZM69.7139 11.4002L70.1735 12.0566L69.3857 12.0019L69.7139 11.4002ZM68.6417 13.0632L69.1012 13.7196L68.3135 13.6649L68.6417 13.0632ZM89.0352 5.56879L88.324 5.89703L88.5428 5.18589L89.0352 5.56879ZM81.5299 8.9823L81.6721 9.41993L81.0813 9.39802L81.5299 8.9823ZM82.3504 7.81164L83.1381 7.92106L82.5255 8.48996L82.3504 7.81164ZM77.3177 8.9604L78.0835 9.10264L77.449 9.64967L77.3177 8.9604ZM83.9149 7.3412L84.6808 7.50531L84.0462 8.05234L83.9149 7.3412ZM79.3636 7.39589L80.4139 7.66941L79.5058 8.35868L79.3636 7.39589ZM75.5891 8.12893L76.7488 8.34773L75.8079 9.16828L75.5891 8.12893ZM77.1208 14.5839L78.2914 14.748L77.3833 15.6233L77.1208 14.5839ZM84.079 12.4177L85.2497 12.6037L84.3416 13.457L84.079 12.4177ZM81.7378 14.7152L82.9084 14.9012L82.0003 15.7546L81.7378 14.7152ZM82.1753 10.1858L82.2191 11.3892L81.3438 10.6562L82.1753 10.1858ZM83.16 5.9408L84.4401 6.22523L83.3897 7.10051L83.16 5.9408ZM85.8405 4.71541L85.556 6.11582L84.7464 4.97801L85.8405 4.71541ZM83.8493 0.481392L82.7005 2.7461L81.9565 0.601741L83.8493 0.481392ZM73.9808 12.3302L73.2149 12.8115L73.4338 11.8269L73.9808 12.3302ZM74.5278 14.4089L73.8058 14.9778L73.9151 13.9713L74.5278 14.4089ZM74.1996 9.75908L73.4338 10.2405L73.6526 9.25582L74.1996 9.75908ZM73.3791 9.17923L72.1428 9.94506L72.5038 8.36963L73.3791 9.17923ZM87.1315 8.19457L86.0812 9.2011L86.1031 7.5819L87.1315 8.19457ZM92.8207 4.29968L91.7703 5.30622L91.8031 3.687L92.8207 4.29968ZM77.5802 5.01083L77.7444 6.083L76.6503 5.7001L77.5802 5.01083ZM77.2849 6.19241L78.0508 6.3456L77.5365 7.22084L77.2849 6.19241ZM75.3593 3.82924L76.4534 4.21215L75.5343 5.2734L75.3593 3.82924ZM88.6413 2.54918L88.882 1.83803L89.3743 2.49447L88.6413 2.54918ZM90.3481 3.77453L90.7638 2.53823L91.6172 3.66512L90.3481 3.77453ZM69.145 9.6059L68.3245 9.97791L68.4885 9.14641L69.145 9.6059Z" fill="#DAEDDA"/>
<path d="M66.2021 10.153L64.561 9.93416L65.5128 8.81819L66.2021 10.153ZM67.132 11.9035L67.3508 12.9975L66.399 12.8881L67.132 11.9035ZM69.2108 10.3936L68.4996 10.0873L69.1232 9.54027L69.2108 10.3936ZM75.6329 8.26023L75.1953 7.7132L75.9065 7.38496L75.6329 8.26023ZM69.1013 7.25368L69.1232 7.62566L69.3858 7.37404L69.6484 7.75694L69.1561 7.72412L69.2983 8.42434L68.1167 7.83353L69.1013 7.25368ZM70.9175 8.80727L70.097 9.1902L70.1626 8.39152L70.9175 8.80727ZM83.2805 9.49654L82.6459 9.1683L83.3024 8.97137L83.2805 9.49654ZM73.0838 16.9909L72.9306 16.422L73.4776 16.4876L73.0838 16.9909ZM71.388 11.6299L71.2786 11.0391L71.8256 11.1814L71.388 11.6299ZM72.2632 10.9079L72.1538 10.3171L72.679 10.4484L72.2632 10.9079ZM82.4709 11.9691L81.9785 11.9582L82.3067 11.5424L82.4709 11.9691ZM78.8605 12.363L77.6569 12.2208L78.5322 11.2689L78.8605 12.363Z" fill="#DAEDDA"/>
<path d="M73.6745 10.4484L73.0509 11.5971L72.5805 10.3936L73.6745 10.4484ZM71.7817 13.5665L71.0815 15.2294L70.2829 13.6758L71.7817 13.5665ZM76.4862 14.2448L75.8627 15.3935L75.3921 14.1901L76.4862 14.2448ZM69.6483 6.65194L70.5454 6.49875L69.9984 5.98454L70.7643 5.76575L70.6549 6.44406L71.0925 6.36747L70.5454 8.13986L69.6483 6.65194ZM86.8799 0.415739L87.2081 1.66298L85.8952 1.47699L86.8799 0.415739ZM84.1994 2.00215L83.9806 2.06779L84.1775 1.52076H83.4883L83.9697 0.754914L84.1885 1.55358L84.4073 1.11594L84.823 1.83803L84.2979 2.01309L84.6261 2.77893L83.7508 2.56012L84.1994 2.00215ZM85.1184 2.8227L84.6589 3.69794L84.2651 3.09622L85.1184 2.8227ZM83.2367 2.9868L83.9697 2.74611L83.6196 3.58855L83.2367 2.9868ZM88.6632 0.196928L88.2256 0.820555L87.9411 0.164108L88.6632 0.196928ZM85.567 1.64111L86.4204 1.85992L85.764 2.43977L85.567 1.64111ZM85.4029 10.4812L84.9215 10.8094L85.0856 10.2405L85.4029 10.4812ZM79.9326 22.2315L79.4512 22.5597L79.6153 21.9908L79.9326 22.2315ZM78.8822 25.3605L78.3899 25.6559L78.5869 25.1089L78.8822 25.3605ZM77.7007 13.6758L77.8101 14.1354L77.3068 13.9165L77.7007 13.6758ZM76.4972 10.875L76.6284 11.3126L76.1143 11.1267L76.4972 10.875ZM80.2498 14.8574L79.8669 15.1857L79.8779 14.7043L80.2498 14.8574ZM84.4292 15.678L84.0682 16.039L84.0572 15.5576L84.4292 15.678ZM80.3811 9.05887L79.9982 9.38711L80.0091 8.90572L80.3811 9.05887ZM78.007 4.35439L77.6788 5.14212L77.2411 4.4419L78.0836 4.25593L78.6306 3.35878L79.2652 4.5404L78.007 4.35439ZM74.692 5.90798L75.6766 6.5644L74.6154 7.29744L74.5716 7.56L73.9918 7.14425L74.5607 6.70663L74.692 5.90798ZM79.2542 6.70663L79.5387 7.47249L78.7291 7.20989L79.2542 6.70663ZM77.1755 7.7241L77.46 8.48997L76.6394 8.2274L77.1755 7.7241ZM76.8473 9.4418L77.1536 9.29956L77.1208 9.82473L76.9348 9.66063L76.2565 10.0982L76.4753 9.11359L76.8473 9.4418ZM87.9192 9.4637L88.2256 9.32147L88.1818 9.8685L87.9958 9.69345L87.3394 10.1311L87.5582 9.14641L87.9192 9.4637Z" fill="#DAEDDA"/>
<path d="M89.3744 3.39159L89.6589 3.2056L89.7026 3.75264L89.4838 3.61042L88.8821 4.13557L88.9587 3.11807L89.3744 3.39159ZM75.1187 8.0961L75.425 7.95387L75.3922 8.479L75.2062 8.3149L74.5279 8.75252L74.7467 7.76786L75.1187 8.0961ZM77.1537 6.81603L76.902 6.79416L77.2521 6.13771L77.6898 6.68475L78.4228 6.72852L77.8977 7.85541L77.1537 6.81603ZM79.1667 9.50743L78.7292 8.96039L79.4512 8.63219L79.1667 9.50743ZM78.2478 7.15519L79.2324 7.81164L78.1602 8.55559L78.1165 8.80724L77.5366 8.40244L78.1165 7.96479L78.2478 7.15519ZM73.3245 8.03043L74.3638 7.41775L74.3857 8.76347L74.5716 8.93852L73.9152 9.26673L73.8715 8.52277L73.3245 8.03043ZM69.9328 8.87288L70.9175 9.50743L69.8453 10.2514L69.8015 10.514L69.2217 10.0982L69.8015 9.66061L69.9328 8.87288ZM79.3199 4.78108L78.2806 5.63445L78.3352 4.13557L79.3199 4.78108Z" fill="#DAEDDA"/>
<path d="M80.5562 5.01084L79.112 6.3237L78.937 4.73732L80.5562 5.01084ZM76.1033 4.7045L76.6503 4.63886L76.9457 4.42003L76.9019 4.6826L77.0332 4.75919L76.8472 4.9452L76.8801 5.05461L76.8472 4.9452L76.6284 5.38282L76.1033 4.7045ZM86.3438 0.415739L86.4094 0.503266L86.0812 1.15971L85.8186 1.73957L84.648 0.317276L86.4422 0.164108L86.3438 0.415739Z" fill="#DAEDDA"/>
<path d="M84.7027 1.36759L84.3088 0.765851L85.1075 0.743964L84.7027 1.36759ZM82.2629 3.44631L82.7771 2.78988L82.9959 3.5776L82.2629 3.44631ZM87.9739 0.798671L88.4444 1.84898L87.2409 1.8271L87.9739 0.798671ZM89.8338 5.41564L90.3809 5.26245L90.2715 5.84231L89.8338 5.41564ZM71.3441 6.09396L72.2631 4.78109L73.029 6.35652L71.3441 6.09396ZM87.0987 6.5863L87.3394 7.38495L86.6063 7.10051L87.0987 6.5863ZM87.2081 4.58414L87.4269 5.38282L86.7048 5.09835L87.2081 4.58414ZM83.3241 4.06994L83.4664 3.30408L83.9916 3.99335L83.3241 4.06994Z" fill="#DAEDDA"/>
<path d="M85.4905 2.78988L86.2563 3.99334L85.1623 4.21215L85.4905 2.78988ZM88.6851 0L90.5122 0.109397L89.8558 1.5098L88.6851 0ZM86.311 2.60387L87.5145 2.12249L87.4488 3.21656L86.311 2.60387ZM83.4117 5.09834L83.9041 3.45724L84.7356 4.90142L83.4117 5.09834ZM81.6393 3.67607L80.7641 2.47259L81.8582 2.25378L81.2783 1.81614L82.3723 1.21442V2.08966L83.0945 2.22096L82.438 2.80081L82.3723 2.582L81.9675 2.3413L81.6393 3.67607ZM80.4577 4.35439L80.8954 3.55572L81.1798 4.43098L80.4577 4.35439ZM87.2629 0.78773L87.3722 0.207876L87.8099 0.645496L87.2629 0.78773ZM88.3569 3.08526V3.61043L87.974 3.2822L88.3569 3.08526ZM94.0023 6.06113L93.2364 6.22523L93.5975 5.56879L94.0023 6.06113ZM96.8031 4.31063L96.0372 4.47472L96.3983 3.81829L96.8031 4.31063ZM94.1336 2.95398L94.4946 2.29753L94.8666 3.04151L94.1336 2.95398ZM92.6019 0.393865L92.9082 1.66297L91.5953 1.40041L92.6019 0.393865ZM94.5931 0.722072L94.0461 1.23629L93.8819 0.547034L94.5931 0.722072ZM91.2671 1.55357L92.1205 1.80521L91.464 2.35224L91.2671 1.55357Z" fill="#DAEDDA"/>
<path d="M92.3174 0.481397L92.3831 0.590793L91.9673 1.1816L91.6391 1.72863L90.6544 0.164108L92.4487 0.273521L92.3174 0.481397ZM93.8053 1.1816L94.0789 2.30849L92.8973 2.03497L93.8053 1.1816ZM95.3589 1.03937L95.8512 1.87085L95.1401 1.98026L95.3589 1.03937ZM91.836 2.57105L93.1161 2.35224L92.8535 3.42443L91.836 2.57105ZM93.1161 0.995593L93.3349 0.448559L93.685 0.962772L93.1161 0.995593ZM93.7726 3.47913L93.6631 3.99335L93.3349 3.58855L93.7726 3.47913ZM97 2.76799L96.8906 3.29314L96.5624 2.88834L97 2.76799ZM77.7882 11.1376L77.46 11.7065L77.3177 11.0282L77.7882 11.1376ZM77.8757 19.0149L77.6022 19.6276L77.3834 18.9711L77.8757 19.0149ZM83.8712 2.2319L83.1382 2.47259L83.1601 1.70675L83.8712 2.2319ZM85.1841 1.70675L85.4029 2.49448L84.6371 2.24285L85.1841 1.70675ZM83.904 5.37187L82.3176 5.88608L82.5911 3.65419L83.904 5.37187ZM80.8407 1.14878L77.263 1.87085L79.8888 4.36534L80.8407 1.14878ZM75.6985 2.35224L73.215 3.38067L75.1078 4.55131L75.6985 2.35224ZM71.6505 4.21216L69.7139 5.36095L72.1975 7.16615L71.6505 4.21216ZM67.9744 6.70663L65.7863 8.51184L68.1604 9.49652L67.9744 6.70663Z" fill="#DAEDDA"/>
<path d="M64.3202 10.328L62.9636 11.9144L65.2612 12.3849L64.3202 10.328ZM73.215 3.43539L71.6395 4.20123L72.8977 4.8358L73.215 3.43539ZM69.4623 5.67822L67.8759 6.77228L69.8015 7.40686L69.4623 5.67822ZM61.5523 35.8964L61.7711 35.24L62.0993 35.7542L61.5523 35.8964ZM68.1823 37.3624L68.4449 36.7279L68.7293 37.2749L68.1823 37.3624ZM68.2042 26.6843L68.3464 26.006L68.7184 26.4765L68.2042 26.6843ZM70.4689 27.4721L70.3595 28.0519L70.0313 27.5815L70.4689 27.4721ZM57.909 35.3275L57.9856 36.1371L57.4166 35.7213L57.909 35.3275ZM69.1013 16.1485L69.2764 14.8793L70.0641 15.8312L69.1013 16.1485ZM62.9745 29.5617L63.1715 28.1613L64.0467 29.2116L62.9745 29.5617ZM51.8369 36.706L52.4933 35.9073L52.6028 36.9139L51.8369 36.706ZM54.6049 34.8023L55.4583 35.3493L54.4736 35.7104L54.6049 34.8023ZM72.0334 16.969L72.7992 18.2163L71.3223 17.9756L72.0334 16.969ZM53.2921 35.2946L52.9419 34.682L53.7296 34.6273L53.2921 35.2946ZM51.1258 34.3756L51.257 35.1415L50.6225 34.9774L51.1258 34.3756ZM52.6137 38.0079L52.5809 38.5987L52.2308 38.1611L52.6137 38.0079ZM73.0728 37.7344L73.1822 38.3143L72.7445 37.986L73.0728 37.7344ZM64.1015 37.1327L64.3859 37.5484L63.9264 37.5266L64.1015 37.1327ZM51.6728 34.8898L52.7341 35.0868L51.9354 36.1152L51.6728 34.8898ZM58.0622 34.3428L58.095 33.7411L58.5764 33.9927L58.0622 34.3428ZM58.2372 37.5812L59.025 37.5375L58.5545 38.2267L58.2372 37.5812ZM59.5501 36.6404L58.8937 36.5309L59.2766 35.7651L59.5501 36.6404ZM60.2065 32.5485L61.2459 33.1831L60.2613 33.7958L60.2065 32.5485ZM71.4098 31.1262L71.0159 31.5639L70.9941 30.9621L71.4098 31.1262ZM63.7841 23.3255L63.6091 24.1461L63.2261 23.5225L63.7841 23.3255ZM61.1256 34.0255L61.5413 34.1349L61.1693 34.6491L61.1256 34.0255ZM60.7645 32.6689L61.3334 32.0453L61.3881 32.8877L60.7645 32.6689ZM61.8586 29.9775L62.3838 29.321L62.4931 30.1635L61.8586 29.9775ZM60.1081 28.3801L60.1847 29.8899L59.025 28.9053L60.1081 28.3801ZM62.5916 32.7892L61.9571 33.1612L62.1977 32.4829L62.5916 32.7892ZM63.9592 34.8351L63.6309 35.2728L63.5216 34.7804L63.9592 34.8351ZM66.8366 28.0519L66.8913 28.6427L66.4865 28.2598L66.8366 28.0519ZM65.9066 33.0518L65.9832 33.5551L65.6003 33.3363L65.9066 33.0518ZM60.4144 34.6929L60.491 35.2071L60.0971 34.9883L60.4144 34.6929ZM66.3224 25.1417L66.3552 24.7916L66.7709 25.0542L66.5522 25.1636L66.5959 25.9951L65.8738 25.3386L66.3224 25.1417ZM63.5872 25.4262L64.3531 25.6012L63.7513 26.1483L63.5872 25.4262ZM54.7253 37.3187L55.4911 37.4609L54.8784 38.0298L54.7253 37.3187ZM52.0776 33.2925L52.9966 33.1503L52.745 33.8833L52.0776 33.2925ZM48.9486 38.0189L49.233 37.253L49.6488 37.6907L48.9486 38.0189ZM50.5897 35.9401L50.2615 35.5025L50.8632 35.3931L50.5897 35.9401ZM54.1126 35.5791L54.5284 35.8307L54.0688 36.0496L54.1126 35.5791ZM65.0751 14.5292L65.6441 15.0763L64.7907 15.2294L65.0751 14.5292ZM61.4976 20.1527L62.0446 21.6407L60.6223 21.1593L61.4976 20.1527ZM66.9679 21.3343L67.6462 20.8529L67.5368 21.7063L66.9679 21.3343ZM71.0159 23.1067L71.6286 22.8879L71.4098 23.4896L71.0159 23.1067ZM70.2501 18.4351L70.8628 18.2163L70.644 18.818L70.2501 18.4351ZM67.7556 17.9646L68.3683 17.7458L68.1495 18.3475L67.7556 17.9646ZM65.1298 15.9187L65.4362 15.5467L65.6768 16.2031L65.3486 16.1156L64.7579 17.0784L64.4843 15.7327L65.1298 15.9187Z" fill="#DAEDDA"/>
<path d="M58.4341 22.2971L59.3094 23.9163L57.4057 23.8069L58.4341 22.2971ZM63.3028 15.4811L64.3421 16.8705L62.6791 16.9034L63.3028 15.4811ZM59.6267 19.8902L61.2131 19.6276L60.5566 21.4875L59.6267 19.8902ZM64.7032 13.6977L64.4844 13.8072L64.5281 13.0413L65.1627 13.3258L65.852 13.0194L65.8191 14.2776L64.7032 13.6977ZM58.3794 20.4809L59.4954 19.9777L59.1234 21.3124L58.3794 20.4809ZM60.0752 21.6516L59.2 22.0674L59.2438 21.2359L60.0752 21.6516ZM61.4976 17.8224L61.8586 17.1987L62.3509 17.8224H61.4976ZM69.4843 19.8354L68.8059 20.3168L69.0029 19.551L69.4843 19.8354Z" fill="#DAEDDA"/>
<path d="M67.9635 16.3235L67.2852 16.7939L67.4821 16.0281L67.9635 16.3235ZM71.2894 26.0607L70.7424 26.192L71.0269 25.6668L71.2894 26.0607ZM70.2829 31.1481L69.7359 31.2575L70.0641 30.7433L70.2829 31.1481ZM65.8629 19.6385L65.3159 19.7479L65.6112 19.2228L65.8629 19.6385ZM67.9416 17.341L67.3946 17.4504L67.69 16.9252L67.9416 17.341ZM64.1124 14.0588L63.5653 12.4396L63.8936 12.4067L64.1889 12.0566L64.2765 12.4614L65.0642 12.5709L64.1124 14.0588ZM62.0008 19.3103L61.1256 18.9821L61.8039 18.3256L62.0008 19.3103ZM64.4297 22.9645L63.8388 23.6866L63.6529 23.0301L64.4297 22.9645ZM63.3137 19.9667L62.7229 20.6888L62.5369 20.0324L63.3137 19.9667ZM65.1517 22.1549L64.4406 21.8048L65.1189 21.3234L65.1517 22.1549ZM64.8892 18.7414L64.1671 18.3804L64.8454 17.9099L64.8892 18.7414ZM63.7951 15.3826L64.3859 14.6605L64.6594 15.5576L63.7951 15.3826ZM63.6638 16.9143L64.5828 17.5707L63.4887 17.899L63.6638 16.9143ZM63.7076 19.6167L64.364 20.0543L63.5982 20.2731L63.7076 19.6167ZM63.2262 20.9623L63.8826 21.4L63.1168 21.6407L63.2262 20.9623ZM62.6791 22.2205L63.3356 22.6582L62.5697 22.877L62.6791 22.2205Z" fill="#DAEDDA"/>
<path d="M67.515 14.4198L68.6747 14.0697L68.1276 15.2404L67.515 14.4198ZM67.7885 19.8245L67.2742 20.6232L67.0773 19.6385L67.7885 19.8245ZM68.8169 22.0783L68.3136 22.8769L68.0948 21.8923L68.8169 22.0783ZM66.8913 17.0894L66.3771 17.888L66.1802 16.9033L66.8913 17.0894ZM65.9285 16.9799L65.108 18.2491L64.8016 16.6736L65.9285 16.9799ZM61.7711 19.2337L61.1693 19.9339L60.9943 19.1134L61.7711 19.2337ZM59.0797 21.5313L57.4386 21.772L58.1169 20.4591L59.0797 21.5313ZM60.677 21.586L61.1912 22.5706L60.2394 22.7675L60.677 21.586ZM62.2087 19.9449L61.4428 19.9995L61.8258 19.2337L62.2087 19.9449ZM61.038 17.3191L61.2022 17.6473L61.3444 17.2972L61.7382 17.516L61.3006 17.7348L61.7163 18.2819L60.4035 18.3147L61.038 17.3191ZM63.4122 17.6254L62.8214 18.3475L62.5478 17.6145L63.4122 17.6254ZM68.248 24.4086L67.9198 23.9382L68.4668 23.8069L68.248 24.4086ZM65.0533 20.2293L64.725 19.7588L65.2721 19.6276L65.0533 20.2293ZM65.6222 19.0915L65.294 18.6101L65.841 18.5007L65.6222 19.0915Z" fill="#DAEDDA"/>
<path d="M66.7163 17.9974L66.6069 19.3103L65.6988 18.4679L66.7163 17.9974ZM66.9132 22.122L66.8038 23.4349L65.8957 22.6034L66.9132 22.122ZM61.1365 24.5946L60.8302 23.8069L61.596 24.0257L61.1365 24.5946ZM61.4647 29.2335L61.9899 29.9665L61.3335 30.0759L61.4647 29.2335ZM62.0665 26.5202L61.6617 27.286L61.2897 26.5421L62.0665 26.5202ZM59.5282 31.6186L60.13 31.0496V31.8921L59.5282 31.6186ZM59.2438 24.1023L59.8783 24.7369L58.9375 24.8463L59.2438 24.1023ZM62.4166 22.68L63.0731 23.3146L62.1321 23.424L62.4166 22.68ZM64.3093 23.5006L63.817 23.796L63.7951 23.2161L64.3093 23.5006ZM62.2306 24.6165L63.4341 24.7697L62.5588 25.7215L62.2306 24.6165ZM71.8803 20.8748L71.7708 22.1877L70.8628 21.3453L71.8803 20.8748ZM61.3554 16.4329L62.1212 15.8859L61.4101 15.6889L62.0118 15.1419L62.1978 15.7983L62.5698 15.5139L62.7886 17.33L61.3554 16.4329ZM75.9065 25.9513L75.5454 26.4217V25.8309L75.9065 25.9513ZM76.7051 28.3582L76.344 28.8396L76.3222 28.2488L76.7051 28.3582ZM69.4843 17.0456L69.7796 17.3957L69.2326 17.4613L69.4843 17.0456ZM65.8301 13.4899L66.9898 13.5993L66.3115 14.759L66.3771 15.0106L65.6769 14.9012L66.027 14.2448L65.8301 13.4899ZM67.0773 15.2404L67.2961 14.9778L67.4712 15.4592L67.2305 15.3935L66.7929 16.1047L66.5959 15.12L67.0773 15.2404ZM65.4034 16.0281L66.1145 14.9997L66.6616 16.1813L66.9023 16.2359L66.4646 16.8377L66.1145 16.2031L65.4034 16.0281ZM62.526 18.1506L63.6857 18.26L63.0293 19.4197L63.0949 19.6713L62.3947 19.5619L62.723 18.9055L62.526 18.1506ZM62.6901 15.1528L62.9965 13.5664L64.3421 14.6058L62.6901 15.1528ZM72.9744 23.6538L72.8978 24.3102L72.493 23.7631L72.9744 23.6538ZM49.6707 39.5724L50.8304 40.5899L49.1237 40.9619L49.6707 39.5724ZM48.0953 42.8546L48.4891 43.533L47.6357 43.4235L48.0953 42.8546ZM59.3423 48.3468L59.944 48.0733L59.769 48.686L59.3423 48.3468Z" fill="#DAEDDA"/>
<path d="M51.4211 47.6795H52.0776L51.6618 48.1718L51.4211 47.6795ZM49.7144 46.9464L50.3708 46.9027L50.0098 47.4278L49.7144 46.9464ZM50.8632 39.5068L50.9944 39.6381L51.3774 40.0319L51.2352 40.1851L51.7493 40.7103L50.5459 40.8962L50.6991 40.1961L50.8632 39.5068ZM47.7451 44.2113L48.1389 43.9487L48.1936 44.6489L47.9092 44.4739L47.0777 45.2397L47.1871 43.8612L47.7451 44.2113ZM45.8633 43.5548L46.3337 45.2506L44.802 44.6598L45.8633 43.5548ZM47.9201 42.0013L47.6794 42.0341L47.9201 41.3229L48.4671 41.7606L49.2111 41.6511L48.8501 42.8546L47.9201 42.0013ZM51.64 42.3732L51.1476 41.8809L51.7603 41.5308L51.64 42.3732ZM43.325 45.174L43.872 44.7364L44.1128 45.5023L43.325 45.174Z" fill="#DAEDDA"/>
<path d="M50.907 48.9158L50.1412 49.1784L50.546 48.5L50.907 48.9158ZM50.3599 45.4366L49.5722 45.7102L49.977 45.0209L50.3599 45.4366ZM48.9377 38.0517L49.7035 36.7826L50.2943 38.0408L48.9377 38.0517ZM50.9945 38.1173L50.6334 36.7826L51.2462 36.9686L51.4978 35.8089L52.3074 36.5747L51.3993 36.9686L52.001 37.2968L50.9945 38.1173ZM52.9638 45.3819L52.5481 45.6008L52.5919 45.0756L52.9638 45.3819ZM50.0536 46.4104L49.5066 46.3885L49.9223 45.9508L50.0536 46.4104ZM47.3731 42.2967L47.2966 40.579L47.6029 40.6446L47.9858 40.382L47.964 40.7978L48.686 41.126L47.3731 42.2967ZM46.6292 46.8261L46.0165 46.3119L46.7824 46.0056L46.6292 46.8261ZM46.4651 43.4126L47.2091 42.8656L47.2638 43.8065L46.4651 43.4126ZM45.8743 44.7583L46.6182 45.6008L45.4695 45.6664L45.8743 44.7583ZM51.9136 44.1785L52.7122 44.2332L52.0995 44.8349L51.9136 44.1785ZM50.5678 42.7562L51.7713 42.8656L50.8523 43.7627L50.5678 42.7562ZM54.4299 46.5417L55.6333 46.5745L54.7581 47.5154L54.4299 46.5417ZM49.1237 45.8852L48.4125 46.5088L48.4891 45.5023L49.1237 45.8852ZM48.2156 45.4914L47.0887 46.476L47.1981 44.8677L48.2156 45.4914ZM51.9136 38.0954L52.4387 38.9707L51.2571 39.102L51.9136 38.0954ZM51.9573 39.7366L52.7559 39.5506L52.57 40.5352L51.9573 39.7366ZM49.0689 39.0364L50.2396 38.8175L49.8348 40.1851L49.0689 39.0364ZM50.349 44.2113L49.8238 43.7737L50.4803 43.3141L50.349 44.2113ZM43.161 44.1785L43.2048 44.5395L43.4564 44.266L43.7518 44.627L43.2594 44.6489L43.4455 45.3054L42.2201 44.8349L43.161 44.1785ZM45.1522 45.7102L44.3535 46.1697L44.3645 45.3819L45.1522 45.7102ZM47.2747 47.3513L47.0559 46.8042H47.6029L47.2747 47.3513ZM58.2482 41.5527L57.0228 41.6621L57.734 40.5681L58.2482 41.5527ZM53.5765 37.6469L52.373 38.0189L52.8873 36.8154L53.5765 37.6469ZM56.5743 39.7256L55.3708 40.0976L55.8741 38.8941L56.5743 39.7256ZM48.697 46.7277L48.2593 47.9639L47.6029 46.8918L48.697 46.7277ZM54.4736 44.0472L53.9266 45.2507L53.3796 44.1238L54.4736 44.0472ZM43.7518 43.719L44.6489 43.4673L44.0582 43.0297L44.8021 42.7343L44.7474 43.4236L45.185 43.3141L44.7474 45.1084L43.7518 43.719ZM60.6005 51.5962L60.2941 52.1105L60.2065 51.5416L60.6005 51.5962ZM60.9615 54.8019L60.6332 55.3052L60.5786 54.7253L60.9615 54.8019ZM53.2265 49.058L53.3905 49.4957L52.8435 49.3862L53.2265 49.058ZM51.1914 46.1587L51.3446 46.5963L50.7976 46.4651L51.1914 46.1587Z" fill="#DAEDDA"/>
<path d="M52.8763 36.8044L52.8216 37.6469L52.1652 37.2092L52.9091 36.695L53.1279 35.6556L54.1345 36.4434L52.8763 36.8044ZM49.0799 42.0997L50.174 42.5373L49.2112 43.4673V43.7299L48.5548 43.4345L49.0689 42.8875L49.0799 42.0997ZM53.5 41.7715L53.8282 42.4827L52.9748 42.3185L53.5 41.7715ZM55.2285 42.242L55.5567 42.9531L54.7144 42.789L55.2285 42.242ZM53.8938 37.7016L54.4408 38.2486L53.5656 38.358L53.8938 37.7016ZM51.4431 44.7255L51.7494 44.5504L51.7385 45.0756L51.5415 44.9224L50.8851 45.4257L51.0492 44.441L51.4431 44.7255ZM49.802 44.1784L50.0864 43.9815L50.1302 44.4957L49.9114 44.3863L49.2987 44.9334L49.3753 43.9268L49.802 44.1784ZM55.3598 36.4325L55.1192 36.5419L55.2285 35.7979L55.8522 36.1042L56.5633 35.8307L56.4539 37.067L55.3598 36.4325ZM53.9375 38.9488L55.0973 39.1129L54.3314 40.207L54.3752 40.4586L53.6859 40.3273L54.0798 39.6928L53.9375 38.9488ZM47.9968 44.441L48.9486 43.6533L49.1674 44.9443L49.3863 45.0756L48.7954 45.5132L48.6313 44.8021L47.9968 44.441ZM50.1521 39.463L50.6334 39.1348L50.8085 38.8066L50.8742 39.0473H51.0274L50.9398 39.2989L51.0164 39.3755L50.9398 39.2989L50.9289 39.7913L50.1521 39.463ZM45.4476 42.9312L46.104 41.4542L47.1762 42.789L45.4476 42.9312Z" fill="#DAEDDA"/>
<path d="M52.4933 46.2791L52.198 46.8808L52.001 46.2243L52.4933 46.2791ZM48.7735 37.6359L46.9136 39.7693L49.1564 39.8241L48.7735 37.6359ZM45.3491 41.0275L43.6424 42.5811L46.4541 43.7299L45.3491 41.0275ZM42.1325 43.9049L39.7256 45.371L41.9356 46.6839L42.1325 43.9049ZM46.5306 39.7147L45.4694 41.2245L46.8917 41.0822L46.5306 39.7147ZM43.4016 42.5921L41.87 43.8283L43.8393 44.266L43.4016 42.5921ZM59.572 38.6972L59.1343 39.091L59.1562 38.5002L59.572 38.6972ZM64.2436 35.218L64.1342 35.8088L63.8607 35.3165L64.2436 35.218ZM63.4559 46.9464L63.1058 46.3994H63.6966L63.4559 46.9464ZM58.8937 44.0581L59.2 44.5176L58.6529 44.4848L58.8937 44.0581ZM66.6834 42.778L67.2086 42.975L66.6615 43.1938L66.6834 42.778ZM61.6726 44.1675L61.7163 44.7364L61.2787 44.4082L61.6726 44.1675ZM57.0009 46.2134L56.5633 46.6073L56.5851 46.0165L57.0009 46.2134ZM60.9396 45.1194L60.6332 45.6336L60.491 45.0646L60.9396 45.1194ZM62.712 38.0407L62.8213 38.6206L62.3837 38.2924L62.712 38.0407ZM65.0095 38.7737L65.1189 39.3536L64.6813 39.0254L65.0095 38.7737ZM59.1015 39.2442L59.5391 39.6818L58.8827 39.7147L59.1015 39.2442ZM61.968 13.096L60.6551 15.0106L63.6638 15.4482L61.968 13.096ZM59.6048 17.1769L58.27 19.7588L60.8411 19.5729L59.6048 17.1769ZM57.1978 22.2533L56.2679 24.1679L58.6201 23.9054L57.1978 22.2533Z" fill="#DAEDDA"/>
<path d="M63.1277 11.7612L62.0008 13.1835L63.4231 13.1616L63.1277 11.7612ZM60.5019 15.6233L59.4954 17.341L61.5085 16.9909L60.5019 15.6233ZM56.5086 32.1437L57.1322 33.566L55.6771 33.194L56.5086 32.1437ZM53.2811 33.4347L53.8938 35.1852L52.0339 34.8023L53.2811 33.4347ZM58.4451 25.273L59.7908 26.2795L58.1716 26.8047L58.4451 25.273ZM54.3205 32.0562L55.9397 31.8374L55.1738 33.6645L54.3205 32.0562ZM53.2264 32.0234L54.3533 31.4763L53.9922 32.8111L53.2264 32.0234Z" fill="#DAEDDA"/>
<path d="M54.8784 33.0518L54.0031 33.4894L54.025 32.6689L54.8784 33.0518ZM56.3226 29.7039L56.5961 29.0475L57.1869 29.5508L56.3226 29.7039ZM56.9571 30.7214L56.0381 30.5682L56.618 29.8024L56.9571 30.7214ZM59.9111 33.7848L59.4297 34.6054L59.1453 34.0036L59.9111 33.7848ZM58.3794 31.0715L57.898 31.8811L57.6136 31.2794L58.3794 31.0715ZM60.5129 32.8548L59.747 32.636L60.3597 32.0452L60.5129 32.8548ZM56.3226 27.7674L57.34 28.205L56.2898 28.7521L56.3226 27.7674ZM58.7295 30.6995L59.4407 31.0059L58.7076 31.3888L58.7295 30.6995ZM58.4232 32.0343L59.1343 32.3406L58.4013 32.7236L58.4232 32.0343ZM58.0512 33.38L58.7624 33.6863L58.0184 34.0583L58.0512 33.38ZM56.6289 31.3341L55.9724 32.0124L55.8412 31.2028L56.6289 31.3341ZM53.653 33.2597L51.9791 33.3144L52.8215 32.0781L53.653 33.2597ZM55.2285 33.6754L55.6989 34.6601L54.7143 34.8351L55.2285 33.6754ZM57.5042 31.356L56.7383 31.5748L56.979 30.7433L57.5042 31.356ZM55.7318 29.1131L55.9287 29.4085L56.0381 29.0584L56.4538 29.2226L56.0163 29.4742L56.4538 29.9665L55.1082 30.1306L55.7318 29.1131ZM58.2481 29.146L57.7558 29.9556L57.3838 29.2991L58.2481 29.146Z" fill="#DAEDDA"/>
<path d="M56.3226 27.0016L56.9791 26.2904L56.2351 26.2686L56.7274 25.6121L57.0338 26.192L57.362 25.8309L57.9309 27.5267L56.3226 27.0016ZM57.4167 29.8461L58.5983 29.7368L58.095 30.9949L58.2044 31.2137L57.4933 31.2466L57.734 30.5464L57.4167 29.8461Z" fill="#DAEDDA"/>
<path d="M56.4758 23.7741L55.5349 25.9294L58.5983 25.645L56.4758 23.7741ZM54.4408 28.8068L53.2373 31.4654L55.8194 31.0716L54.4408 28.8068ZM50.1083 35.8089L49.4081 36.7607L50.721 36.8701L50.1083 35.8089ZM55.4693 26.7718L54.5393 28.5552L56.5743 28.0081L55.4693 26.7718ZM11.3345 111.529L12.538 112.591L10.8531 112.919L11.3345 111.529ZM10.0873 114.79L10.6343 115.38L9.78096 115.457L10.0873 114.79ZM6.11586 119.79L6.77228 121.245L5.31715 120.84L6.11586 119.79ZM11.1704 121.431L11.8706 121.026L11.7065 121.857L11.1704 121.431Z" fill="#DAEDDA"/>
<path d="M14.5073 122.514L15.12 122.317L14.9011 122.908L14.5073 122.514ZM14.562 119.177L15.1856 119.013L14.9449 119.604L14.562 119.177ZM12.5708 118.488L13.1834 118.323L12.9646 118.914L12.5708 118.488ZM12.3848 111.956L12.527 112.087L12.9646 112.47L12.8552 112.623L13.4242 113.127L12.2753 113.378L12.3301 112.667L12.3848 111.956ZM10.0544 116.168L10.3826 115.84L10.6015 116.518L10.2733 116.409L9.61677 117.317L9.41985 115.938L10.0544 116.168ZM3.56661 120.873L4.61687 122.437L2.72416 122.492L3.56661 120.873ZM8.38047 115.435L9.34325 116.934L7.70215 116.803L8.38047 115.435ZM4.22302 119.669L5.77658 119.341L5.2624 121.245L4.22302 119.669Z" fill="#DAEDDA"/>
<path d="M9.73722 113.947L9.49649 114.035L9.58403 113.269L10.1967 113.597L10.8969 113.356L10.8094 114.615L9.73722 113.947ZM3.129 119.418L4.22307 118.925L3.89487 120.26L3.129 119.418ZM13.6321 114.79L13.0085 114.461L13.4789 113.958L13.6321 114.79ZM4.85765 120.632L4.04805 121.135L3.97146 120.304L4.85765 120.632ZM6.41121 117.733L6.80506 117.153L7.26461 117.831L6.41121 117.733ZM13.6977 120.227L13.0085 120.643L13.2273 119.877L13.6977 120.227ZM12.8443 116.901L12.1441 117.317L12.3848 116.551L12.8443 116.901ZM10.514 109.976L11.2032 108.707L11.8378 109.998L10.514 109.976Z" fill="#DAEDDA"/>
<path d="M15.7764 116.54L15.4482 116.868L15.3388 116.354L15.7764 116.54ZM15.8859 125.687L15.3607 125.829L15.6124 125.282L15.8859 125.687ZM15.4263 129.625L14.8793 129.735L15.1637 129.22L15.4263 129.625ZM10.1201 119.669L9.57308 119.746L9.87938 119.253L10.1201 119.669ZM12.7459 117.919L12.1989 117.995L12.5271 117.492L12.7459 117.919ZM9.57308 113.827L8.9385 112.186L9.24487 112.164L9.52934 111.792L9.63872 112.208L10.4264 112.295L9.57308 113.827ZM6.80505 118.925L5.95172 118.488L6.65194 117.908L6.80505 118.925ZM8.88381 122.426L8.33678 123.159L8.11795 122.503L8.88381 122.426ZM7.63656 119.669L7.01293 120.326L6.85981 119.647L7.63656 119.669ZM9.56213 121.595L8.82912 121.266L9.48553 120.774L9.56213 121.595ZM9.67157 119.013L8.97135 118.575L9.67157 118.159V119.013ZM8.90571 115.654L9.52934 114.997L9.7481 115.916L8.90571 115.654ZM8.5337 116.803L9.40894 117.536L8.29304 117.755L8.5337 116.803ZM8.06326 119.407L8.67593 119.921L7.91007 120.085L8.06326 119.407ZM7.60377 120.435L8.26018 120.873L7.49432 121.124L7.60377 120.435ZM7.11143 121.704L7.76784 122.142L7.00205 122.393L7.11143 121.704ZM14.4088 115.665L15.1747 115.512L14.7809 116.256L14.4088 115.665ZM12.5052 115.555L13.6649 115.315L13.0851 116.442L12.5052 115.555ZM15.7874 120.938L16.9361 120.643L16.3891 121.792L15.7874 120.938ZM12.0457 120.041L11.4986 120.807L11.3564 119.8L12.0457 120.041ZM13.282 121.748L12.8115 122.557L12.5599 121.573L13.282 121.748ZM11.7503 117.569L11.2032 118.313L11.061 117.306L11.7503 117.569ZM10.7984 117.372L9.92319 118.575L9.70436 116.967L10.7984 117.372ZM13.2054 110.939L13.829 111.792L12.6803 112.011L13.2054 110.939Z" fill="#DAEDDA"/>
<path d="M13.4789 112.12L14.2447 111.879L14.19 112.897L13.4789 112.12ZM10.6999 110.96L11.8487 110.763L11.5205 112.142L10.6999 110.96ZM6.36745 118.947L5.74382 119.604L5.59063 118.761L6.36745 118.947ZM3.8073 120.501L2.21 120.938L2.70228 119.538L3.8073 120.501ZM5.27338 121.223L5.86415 122.164L4.93422 122.415L5.27338 121.223ZM6.7613 119.691L5.99543 119.68L6.38935 118.914L6.7613 119.691ZM12.5598 115.643L11.9472 115.315L12.4942 114.735L12.5598 115.643ZM5.96265 116.792L6.11583 117.12L6.26895 116.792L6.65192 117.043L6.19236 117.207L6.56437 117.798L5.25148 117.689L5.96265 116.792ZM8.33676 117.689L7.71313 118.345L7.4943 117.579L8.33676 117.689ZM12.7787 124.013L12.4286 123.542L12.9538 123.4L12.7787 124.013ZM9.35423 120.402L9.04793 119.899L9.59496 119.822L9.35423 120.402ZM9.90127 119.396L9.59496 118.892L10.142 118.816L9.90127 119.396Z" fill="#DAEDDA"/>
<path d="M17.0674 118.247L15.8859 118.575L16.3563 117.372L17.0674 118.247ZM11.0719 118.466L10.8969 119.779L10.0216 118.849L11.0719 118.466ZM11.1813 122.897L11.1376 124.21L10.1967 123.389L11.1813 122.897ZM15.0653 120.894L14.8902 122.207L14.0369 121.277L15.0653 120.894ZM6.42215 116.223L7.18801 115.72L6.49874 115.468L7.12237 114.965L7.2646 115.643L7.65845 115.391L7.78973 117.251L6.42215 116.223ZM20.7544 125.851L20.4262 126.332L20.3825 125.741L20.7544 125.851ZM20.9295 129.155L20.5684 129.614L20.5465 129.023L20.9295 129.155ZM15.9843 119.877L16.236 120.26L15.6889 120.249L15.9843 119.877ZM14.3432 117.755L14.6167 118.127L14.0697 118.148L14.3432 117.755ZM10.8969 113.838L12.0457 114.057L11.3127 115.151L11.3674 115.413L10.6781 115.249L11.05 114.615L10.8969 113.838ZM13.8508 114.582L14.3979 115.173L13.5445 115.249L13.8508 114.582ZM14.1572 116.288L14.3979 116.048L14.5511 116.551L14.3104 116.464L13.84 117.12L13.6977 116.113L14.1572 116.288ZM12.0457 115.72L12.2863 115.468L12.4395 115.971L12.1989 115.884L11.7284 116.54L11.5862 115.534L12.0457 115.72ZM15.131 111.037L14.9121 111.146V110.381L15.5685 110.654L16.225 110.326L16.2688 111.584L15.131 111.037ZM14.6386 113.641L15.7874 113.86L15.0544 114.954L15.109 115.216L14.4307 115.052L14.8027 114.418L14.6386 113.641ZM10.3499 116.354L11.1157 115.391L11.619 116.628L11.8378 116.715L11.3564 117.262L11.05 116.606L10.3499 116.354ZM6.98013 118.17L8.12889 118.389L7.39588 119.483L7.45057 119.735L6.77226 119.571L7.1442 118.947L6.98013 118.17ZM11.8159 111.409L12.2754 111.081L12.4286 110.752L12.5052 111.004H12.6693L12.5927 111.256L12.6693 111.332L12.5927 111.256V111.759L11.8159 111.409ZM7.83347 115.326L8.21643 113.761L9.50743 114.921L7.83347 115.326ZM15.6232 117.514L15.5138 118.17L15.131 117.59L15.6232 117.514Z" fill="#DAEDDA"/>
<path d="M17.702 123.662L17.6583 124.319L17.2206 123.772L17.702 123.662ZM10.3499 109.549L8.62127 111.661L10.8313 111.77L10.3499 109.549ZM7.39592 113.466L6.00643 115.26L8.96043 115.993L7.39592 113.466ZM4.72639 116.781L3.34786 119.297L5.89705 119.275L4.72639 116.781Z" fill="#DAEDDA"/>
<path d="M2.07869 120.851L1.4003 122.842L3.69789 122.404L2.07869 120.851ZM8.57745 112.12L7.39584 113.455L8.79621 113.564L8.57745 112.12ZM5.75474 115.249L4.66067 116.868L6.68467 116.715L5.75474 115.249ZM11.4657 132.514L11.2469 131.857L11.7939 132.032L11.4657 132.514ZM13.9056 131.682L14.1243 132.229L13.5992 132.01L13.9056 131.682ZM8.62119 124.396L8.32577 123.159L9.398 123.728L8.62119 124.396ZM10.4045 126.693L9.85749 125.413L11.1375 125.785L10.4045 126.693ZM13.4132 124.582L14.562 125.457L13.0959 125.785L13.4132 124.582ZM7.87723 139.133L9.08068 138.914L8.67588 140.041L7.87723 139.133ZM6.05009 131.912L6.33456 132.678L5.67815 132.404L6.05009 131.912ZM8.45705 138.848L8.5227 137.995L9.06973 138.597L8.45705 138.848ZM7.43958 137.163L7.50522 136.31L8.05226 136.912L7.43958 137.163ZM8.64309 134.822L9.46365 136.025L7.97566 135.861L8.64309 134.822ZM9.95592 137.71L9.69336 138.411L9.47453 137.732L9.95592 137.71ZM10.7437 135.336L11.0719 135.829L10.5249 135.697L10.7437 135.336ZM9.12449 131.868L8.96035 131.562L9.44174 131.518L9.31046 131.737L9.79185 132.393L8.85097 132.284L9.12449 131.868ZM6.75031 134.384L7.48339 134.133L7.22075 134.92L6.75031 134.384ZM2.77884 145.325L3.30404 144.504L3.67598 145.161L2.77884 145.325ZM4.27771 124.396L4.99983 124.68L4.26682 125.15L4.27771 124.396ZM2.81169 130.632L4.08078 131.507L2.63661 131.945L2.81169 130.632ZM7.95383 128.312L8.28203 127.525L8.61024 128.29L7.95383 128.312ZM12.7239 129.778L13.2163 129.341L13.2381 129.975L12.7239 129.778ZM9.41984 124.286L9.82464 123.739L9.96687 124.363L9.41984 124.286ZM7.99756 126.562L8.48991 126.124L8.51174 126.759L7.99756 126.562Z" fill="#DAEDDA"/>
<path d="M4.82482 125.687L4.978 125.227L5.43749 125.752L5.10929 125.796L4.89046 126.912L4.15745 125.774L4.82482 125.687ZM1.15972 133.509L2.80082 134.231L1.21441 135.358L1.15972 133.509ZM2.98679 126.015L4.45287 126.89L2.92115 127.546L2.98679 126.015ZM1.12686 131.573L2.30847 130.424L2.76796 132.338L1.12686 131.573Z" fill="#DAEDDA"/>
<path d="M3.64321 123.827L3.46812 124.013L3.24929 123.291L3.94951 123.312L4.47471 122.765L4.9123 123.947L3.64321 123.827ZM0.22972 132.218L0.820493 131.124L1.31284 132.404L0.22972 132.218ZM2.28657 132.032L1.82702 132.907L1.36753 132.251L2.28657 132.032ZM2.12244 128.859L2.23182 128.148L2.91013 128.531L2.12244 128.859ZM9.34326 125.665L9.01505 126.452L8.79622 125.687L9.34326 125.665ZM7.64747 125.008L7.17703 125.719L7.08948 124.921L7.64747 125.008ZM14.0806 129.855L13.6977 130.271L13.6648 129.669L14.0806 129.855ZM6.18145 127.579L5.79849 127.995L5.7657 127.393L6.18145 127.579Z" fill="#DAEDDA"/>
<path d="M7.9647 125.96L7.52712 126.288L7.60371 125.697L7.9647 125.96ZM3.21648 124.396L2.14432 123.083L2.41784 122.94L2.57096 122.503L2.78978 122.831L3.55564 122.634L3.21648 124.396ZM2.96487 129.756L2.03487 129.778L2.42872 128.903L2.96487 129.756ZM6.41114 131.266L6.30176 132.207L5.78752 131.77L6.41114 131.266ZM4.17927 129.297L4.04799 130.238L3.55564 129.8L4.17927 129.297ZM6.8488 130.085L6.06103 130.194L6.38931 129.406L6.8488 130.085ZM5.6125 128.422L4.82473 128.367L5.28429 127.667L5.6125 128.422ZM3.42436 125.73L3.71978 124.833L4.28865 125.566L3.42436 125.73ZM3.84011 127.196L4.93418 127.437L4.02608 128.17L3.84011 127.196ZM4.34334 128.772H5.1092L4.58407 129.406L4.34334 128.772ZM4.61686 130.172H5.38272L4.85759 130.807L4.61686 130.172ZM4.60597 131.726L5.37177 131.737L4.84664 132.36L4.60597 131.726ZM6.53148 123.389L7.47243 122.623L7.39583 123.914L6.53148 123.389ZM7.91001 126.627L7.87722 127.59L7.22074 126.879L7.91001 126.627ZM9.92313 127.918V128.87L9.24481 128.17L9.92313 127.918ZM6.91444 126.124L6.72847 127.054L6.18143 126.212L6.91444 126.124Z" fill="#DAEDDA"/>
<path d="M5.95173 126.398L5.64536 127.886L4.79202 126.551L5.95173 126.398ZM2.77891 129.549L2.64763 130.49L2.0678 129.91L2.77891 129.549ZM1.38949 132.689L0.142234 133.859L0 132.36L1.38949 132.689ZM2.92114 132.36L3.85114 132.864L3.16187 133.586L2.92114 132.36ZM3.51198 129.888L2.88836 130.38L2.77891 129.527L3.51198 129.888ZM1.38949 128.279L1.663 128.498V128.126L2.10059 128.17L1.75048 128.542L2.33037 128.87L1.12686 129.417L1.38949 128.279ZM3.87298 127.951L3.57762 128.848L3.06338 128.279L3.87298 127.951ZM10.5468 129.964L10.0216 129.778L10.3936 129.341L10.5468 129.964Z" fill="#DAEDDA"/>
<path d="M5.78756 128.531L5.26243 128.334L5.64533 127.918L5.78756 128.531ZM5.86416 127.503L5.33903 127.284L5.73287 126.868L5.86416 127.503Z" fill="#DAEDDA"/>
<path d="M6.258 125.982L6.83789 127.131L5.63444 126.945L6.258 125.982ZM8.18357 128.641L8.84006 129.767L7.63654 129.658L8.18357 128.641ZM4.37624 134.855L3.71983 134.352L4.48562 134.133L4.37624 134.855ZM6.7394 136.846L7.58185 137.109L7.11141 137.579L6.7394 136.846ZM5.86416 136.485V137.36L5.20774 136.901L5.86416 136.485ZM6.80504 138.892L6.91448 138.06L7.41771 138.717L6.80504 138.892ZM2.86642 134.92L3.74166 135.063L2.9977 135.697L2.86642 134.92ZM4.59507 132.218L5.47031 132.349L4.74825 133.006L4.59507 132.218ZM6.59716 131.759L6.34555 132.306L6.01734 131.846L6.59716 131.759ZM5.32807 134.275L6.455 133.761L6.14862 135.041L5.32807 134.275ZM14.0587 126.201L14.4307 127.459L13.282 127.021L14.0587 126.201ZM1.50979 127.623L2.01308 126.813L1.28001 126.923L1.64107 126.179L2.04587 126.726L2.29748 126.321L3.17279 127.918L1.50979 127.623ZM18.3584 130.818L18.1943 131.398L17.9755 130.851L18.3584 130.818ZM9.29955 125.085L9.70434 125.282L9.212 125.566L9.29955 125.085ZM4.62785 123.181L5.74382 122.853L5.525 124.188L5.67818 124.406L4.99987 124.582L5.07646 123.838L4.62785 123.181ZM6.42214 124.341L6.53152 124.013L6.8598 124.396L6.61907 124.428L6.46588 125.249L5.91885 124.417L6.42214 124.341ZM5.1421 125.708L5.43745 124.483L6.3784 125.358L6.61907 125.325L6.42214 126.048L5.87511 125.61L5.1421 125.708ZM2.76792 128.476L3.8073 127.907L3.82921 129.253L4.01518 129.428L3.38067 129.756L3.32591 129.012L2.76792 128.476ZM2.29748 125.938L2.02397 124.352L3.64323 124.789L2.29748 125.938ZM14.7918 129.833L14.9668 130.489L14.387 130.139L14.7918 129.833Z" fill="#DAEDDA"/>
<path d="M0.919046 124.297L0.372012 126.573L3.32594 125.829L0.919046 124.297ZM0 129.111L0.0327873 131.912L2.1444 130.675L0 129.111Z" fill="#DAEDDA"/>
<path d="M0.098434 134.144L0.350048 136.244L2.18807 134.658L0.098434 134.144ZM1.48785 122.623L0.940821 124.374L2.25372 123.827L1.48785 122.623ZM4.71537 144.942L6.08295 144.154L5.70006 145.971L4.71537 144.942ZM7.01288 147.601L7.70215 147.207L7.50523 148.115L7.01288 147.601ZM11.3564 153.892L12.7349 154.515L11.3673 155.248L11.3564 153.892ZM16.3563 142.809L16.5422 143.903L15.667 143.356L16.3563 142.809ZM13.2163 151.944L13.3257 153.038L12.4832 152.436L13.2163 151.944ZM12.8552 149.34L13.0522 150.434L12.1769 149.887L12.8552 149.34ZM11.1048 142.36V141.671L11.5752 142.043L11.1048 142.36ZM25.076 130.325L24.9994 129.636L25.5027 129.964L25.076 130.325ZM22.4283 139.57V138.881L22.8988 139.253L22.4283 139.57ZM8.23824 148.016L8.04131 147.579L8.69779 147.557L8.50087 147.852L9.10259 148.771L7.83344 148.596L8.23824 148.016ZM7.05669 150.183L8.73058 149.898L7.85534 151.452L7.05669 150.183ZM6.18145 147.732V147.995L5.54687 147.699L6.03921 147.152L6.02826 146.364L7.12233 146.802L6.18145 147.732ZM9.46365 142.896L9.68241 143.728L9.05879 143.312L9.46365 142.896ZM12.1769 145.741L12.0675 146.332L11.7393 145.861L12.1769 145.741Z" fill="#DAEDDA"/>
<path d="M10.6124 145.708L10.503 146.288L10.1529 145.828L10.6124 145.708ZM6.41118 148.356H4.79198L4.90136 148.027L4.70444 147.612L5.09829 147.655L5.48125 146.89L6.41118 148.356ZM13.446 147.426L12.9319 148.082L12.6911 147.272L13.446 147.426ZM10.6015 150.522L9.92316 151.003V150.15L10.6015 150.522ZM7.42866 149.1L7.03481 148.268L7.91005 148.29L7.42866 149.1ZM8.26016 150.631L9.26668 150.084L8.93848 151.288L8.26016 150.631ZM12.6036 142.251L13.1507 142.984L12.2097 142.929L12.6036 142.251ZM19.5838 135.643L20.1308 136.376L19.1899 136.321L19.5838 135.643Z" fill="#DAEDDA"/>
<path d="M11.422 138.793L11.969 139.526L11.0391 139.472L11.422 138.793ZM12.6254 135.993L13.1725 136.737L12.2316 136.671L12.6254 135.993ZM18.3912 140.631L18.9382 141.365L17.9974 141.31L18.3912 140.631ZM9.52928 147.612L10.2951 148.848L8.81811 148.629L9.52928 147.612ZM7.66935 142.535L7.23169 143.115L6.83785 142.415L7.66935 142.535ZM8.92749 151.211L9.17917 152.108L8.45705 151.999L8.92749 151.211ZM11.8487 150.959L11.3017 151.025L11.4986 150.478L11.8487 150.959ZM11.2251 148.596L10.678 148.771L10.7874 148.191L11.2251 148.596ZM6.38931 140.216L7.52711 140.653L6.48774 141.365L6.38931 140.216ZM6.79411 152.436L6.7503 151.452L6.20327 151.999L6.09389 151.178L6.70656 151.331L6.68466 150.839L8.26012 151.517L6.79411 152.436ZM6.41114 145.27L6.95818 144.133L7.70214 145.205L7.94287 145.216L7.59276 145.872L7.1551 145.303L6.41114 145.27ZM7.83342 153.454L8.38045 152.327L9.12448 153.388L9.36514 153.41L9.01503 154.067L8.57744 153.498L7.83342 153.454ZM7.77873 141.769L7.61466 141.463L8.09605 141.408L7.9647 141.627L8.45705 142.284L7.51616 142.218L7.77873 141.769ZM8.10694 147.349L7.49426 146.299L8.74151 146.124L8.88375 145.905L9.21196 146.561L8.53364 146.704L8.10694 147.349ZM6.81594 150.128L5.55781 149.297L6.98008 148.279L6.81594 150.128ZM3.09615 145.894L4.19022 148.454L5.17484 146.266L3.09615 145.894Z" fill="#DAEDDA"/>
<path d="M4.98891 150.248L5.80946 152.393L7.77877 149.844L4.98891 150.248ZM4.22305 148.443L5.03265 150.04L5.54689 148.618L4.22305 148.443ZM0.481354 126.857L0.153147 128.826L1.90363 127.732L0.481354 126.857ZM4.77008 140.916L6.22521 141.332L4.96701 142.251L4.77008 140.916Z" fill="#DAEDDA"/>
<path d="M3.52278 144.253L5.20769 144.833L3.67597 146.08L3.52278 144.253ZM2.66944 136.518L4.34333 136.551L3.24926 137.929L2.66944 136.518ZM3.40245 142.382L4.223 140.894L5.18579 142.557L3.40245 142.382ZM2.69135 143.301L2.96486 142.054L3.77446 143.104L2.69135 143.301Z" fill="#DAEDDA"/>
<path d="M4.49658 142.48L4.31061 143.465L3.68698 142.984L4.49658 142.48ZM3.09621 139.581L2.89928 138.892L3.66508 138.881L3.09621 139.581ZM4.22306 139.942L3.39156 140.435V139.483L4.22306 139.942ZM5.53596 139.253L5.64534 140.194L5.06552 139.931L5.53596 139.253ZM8.32582 139.176L7.59281 139.526L7.70219 138.673L8.32582 139.176ZM3.76357 137.207L4.83574 136.857L4.3434 137.973L3.76357 137.207ZM5.6016 138.739L6.34556 138.498L5.99545 139.264L5.6016 138.739ZM6.06109 139.286L6.76131 138.925L6.54248 139.745L6.06109 139.286Z" fill="#DAEDDA"/>
<path d="M4.27774 140.402L4.26686 141.354L3.61038 140.883L4.27774 140.402ZM3.67602 143.717L2.71323 145.183L2.25374 143.782L3.67602 143.717ZM5.20774 142.535L6.258 142.688L5.79851 143.607L5.20774 142.535ZM5.0436 140.041L4.57316 140.719L4.24495 139.931L5.0436 140.041ZM2.17715 139.45L2.50536 139.516L2.35224 139.187L2.78983 139.001L2.62576 139.505L3.28217 139.516L2.40693 140.61L2.17715 139.45ZM4.25591 137.896L4.36529 138.837L3.67602 138.586L4.25591 137.896Z" fill="#DAEDDA"/>
<path d="M2.05687 138.706L2.16625 137.721L1.55357 138.181L1.56452 137.338L2.14441 137.601L2.1991 137.12L3.64328 138.071L2.05687 138.706ZM4.02618 138.958L4.87958 138.082L5.25153 139.362L5.47035 139.472L4.94522 139.975L4.69354 139.275L4.02618 138.958Z" fill="#DAEDDA"/>
<path d="M0.306293 136.08L0.798637 138.345L3.09622 136.179L0.306293 136.08ZM1.40036 140.894L2.49443 143.542L3.96051 141.244L1.40036 140.894ZM0.853327 138.706L1.40036 140.61L2.49443 138.75L0.853327 138.706Z" fill="#DAEDDA"/>
</svg>
