<svg width="20" height="49" viewBox="0 0 20 49" fill="none" xmlns="http://www.w3.org/2000/svg">
<path d="M6.61842 29.8899L7.27209 29.4L6.61842 29.0733V29.8899ZM6.29158 33.4833L6.53671 32.5033L5.39279 32.6666L6.29158 33.4833ZM18.1394 24.6633L18.8748 25.8883L19.365 24.8266L18.1394 24.6633ZM17.404 28.175L18.0577 27.1949L16.6686 26.95L17.404 28.175ZM10.1319 36.9133L9.06969 36.7499L9.80507 37.8933L9.23311 38.3016L10.1319 38.6283L9.96848 37.8116H9.88677L10.2136 37.3216L10.377 37.6483L10.949 36.8316L9.80507 36.6683L10.1319 36.9133ZM15.9332 20.2533L15.5247 19.11L14.5442 20.0899L15.9332 20.2533ZM16.5052 21.3149L16.3418 21.3966L16.0149 21.1516L15.9332 21.4783L15.1161 21.6416L16.3418 22.5399L16.5052 21.3149ZM14.0539 29.5633L14.2991 28.4199L12.91 28.6649L14.0539 29.5633ZM12.5832 29.0733L11.1941 29.3183L12.338 30.2166L12.5832 29.0733ZM8.98798 39.8533L9.23311 38.8732L8.08918 39.1183L8.98798 39.8533ZM10.2136 31.7683L9.72336 32.9116L9.64165 32.4216L8.82456 32.9116L9.80507 33.2383L9.72336 32.9933L11.0307 32.6666L10.2136 31.7683ZM11.0307 20.4983L12.0112 19.4366L10.7856 19.1916L11.0307 20.4983ZM15.1161 17.4766L13.8905 17.2316L14.1356 18.5383L15.1161 17.4766ZM10.0502 14.5366L11.0307 13.475L9.80507 13.23L10.0502 14.5366ZM12.6649 11.8416L12.0929 13.0666L12.5015 12.985V13.6383L13.0734 13.1483L13.2368 13.965L14.2173 12.9033L13.3186 12.74L12.6649 11.8416ZM12.8283 12.9033L13.2368 12.8216L13.3186 13.0666L12.8283 12.9033ZM13.8088 21.3966L13.7271 21.56L12.7466 22.05L13.3186 22.4583L13.2368 22.5399H13.4003L13.8905 22.8666V22.4583L14.6259 22.295L13.8088 21.3966ZM13.8905 6.61497L14.7076 5.71666L13.7271 5.47164L13.8905 6.61497ZM10.1319 9.06496L10.949 8.16665L9.96848 7.92164L10.1319 9.06496ZM15.8515 2.85833L14.871 2.61331L15.1161 3.75664L15.8515 2.85833ZM10.4587 35.6066L9.72336 34.8716L9.31481 35.9333L10.4587 35.6066ZM0 48.9183L1.14393 48.6732L0.408544 47.9382L0 48.9183Z" fill="#F3FCFF"/>
<path d="M1.22566 49L1.87933 48.02L0.898823 47.8566L1.22566 49ZM3.75863 44.835L4.90256 44.59L4.16718 43.855L3.75863 44.835ZM1.6342 42.9566L0.98053 42.7933L1.22566 43.365L1.6342 42.9566ZM2.61471 43.7733L2.94154 44.4267L3.26838 43.9367L2.61471 43.7733ZM1.30737 44.5083L0.817115 44.9167L1.38907 45.1617L1.30737 44.5083ZM1.5525 47.6117L2.12446 47.8566V47.1217L1.5525 47.6117ZM13.1552 31.605L13.4003 30.625L12.2564 30.87L13.1552 31.605ZM9.55996 32.34L9.80509 31.1966L8.41604 31.4417L9.55996 32.34Z" fill="#F3FCFF"/>
<path d="M11.6027 33.9733L11.1941 33.3199L11.1124 33.4016L11.1941 32.6666L10.377 32.9116L10.949 33.4833L10.7039 33.8916L11.6027 33.9733ZM8.17091 35.7699L7.43553 35.5249L7.68066 36.3416L8.17091 35.7699ZM5.96477 42.3849L5.71964 42.8749L4.73914 43.0383L5.63793 43.7732L5.80135 43.0383L6.45502 42.9566L5.96477 42.3849ZM3.18667 46.7949L3.59521 46.3049L2.85983 46.0599L3.18667 46.7949ZM1.87933 40.9149V40.1799L1.30736 40.5883L1.87933 40.9149ZM9.47825 18.0483L10.2136 17.395L9.39654 17.15L9.47825 18.0483ZM9.64167 22.7033L9.72338 22.05L8.90629 22.295L9.64167 22.7033ZM4.33059 17.885L4.08546 18.7016L4.82084 18.5383L4.33059 17.885ZM15.5247 22.295V23.275L16.2601 22.7033L15.5247 22.295ZM11.4393 18.375L11.7661 17.4766L10.8673 17.5583L11.4393 18.375ZM15.1162 24.9083L15.8515 24.3366L15.0345 24.01L15.1162 24.9083ZM15.1162 30.2166L15.2796 29.5633L14.4625 29.6449L15.1162 30.2166ZM10.949 25.0716L10.6222 24.3366L10.2953 25.0716H10.949ZM16.832 24.3366L17.5674 24.2549L17.1589 23.6016L16.832 24.3366ZM2.6147 22.8666L2.36958 23.6833L3.35008 23.52L2.6147 22.8666ZM7.84407 23.9283L8.25261 23.275H7.51723L7.84407 23.9283ZM3.92205 28.5833L3.75863 27.9299L3.10496 28.3383L3.92205 28.5833ZM11.2758 21.4783L12.2564 21.3149L11.521 20.6616L11.2758 21.4783ZM13.8088 10.9433L14.7893 10.78L14.0539 10.2083L13.8088 10.9433ZM8.57945 12.8216L8.66116 13.1483L8.988 12.74H8.66116L9.0697 12.0866L7.51723 12.005L8.17091 13.5566L8.57945 12.8216ZM5.71964 14.5366L5.06597 14.945L5.88306 15.19L5.71964 14.5366ZM10.6222 7.18665L10.7039 6.36998L10.0502 6.77831L10.6222 7.18665ZM10.6222 15.435L10.4588 16.0883L11.2758 15.925L10.6222 15.435ZM14.3808 12.74L14.4625 11.9233L13.7271 12.3316L14.3808 12.74ZM12.7466 18.9466L12.8283 18.2116L12.0929 18.62L12.7466 18.9466ZM14.7076 7.59498L15.0345 7.0233L14.4625 6.94166L14.7076 7.59498ZM12.91 19.6816L13.482 19.9266L13.3186 19.355L12.91 19.6816ZM12.1746 22.9483L12.3381 22.5399L11.8478 22.6216L12.1746 22.9483ZM8.988 27.5216L9.55996 27.6033L9.31483 27.0316L8.988 27.5216ZM8.57945 24.5816L8.988 24.3366L8.49774 24.1733L8.57945 24.5816ZM12.6649 26.1333L12.2564 26.2966L12.6649 26.6233V26.1333ZM3.26837 31.7683L2.94154 32.2583L3.43179 32.3399L3.26837 31.7683ZM2.36958 28.8283L2.45128 29.0733L2.20616 29.4816H2.77812L2.6147 29.0733L2.85983 28.91L2.36958 28.8283ZM6.45502 31.3599V30.8699L6.04648 31.0333L6.45502 31.3599ZM8.0892 36.9133L7.76236 37.4033L8.25261 37.4849L8.0892 36.9133ZM7.27211 34.3816L7.68066 34.1366L7.1904 33.9733L7.27211 34.3816ZM11.2758 36.4233V35.9333L10.8673 36.0966L11.2758 36.4233ZM5.55623 41.1599L5.3111 41.5683L5.71964 41.6499L5.55623 41.1599ZM4.98426 39.1183L5.3111 38.8733L4.90255 38.7916L4.98426 39.1183ZM8.25261 40.7516L8.33432 40.3433L7.92578 40.5066L8.25261 40.7516ZM7.92578 17.7216L8.41604 17.885L8.33432 17.4766L7.92578 17.7216ZM8.49774 10.6983L7.51723 10.8616L8.00749 11.515L8.49774 10.6983ZM11.1941 6.61497L10.7856 7.18665L11.6027 7.34999L11.1941 6.61497ZM10.4588 2.93998L9.88679 3.42998L10.5405 3.67499L10.4588 2.93998ZM13.2369 4.81832L13.1551 4.00166L12.5832 4.49166L13.2369 4.81832ZM14.9527 1.79665V2.36832L15.5247 2.12331L14.9527 1.79665ZM14.871 4.40999L15.1979 4.98164L15.443 4.32832L14.871 4.40999ZM11.6027 11.76L12.0929 11.3516L11.521 11.1883L11.6027 11.76ZM7.68066 16.0066L7.92578 15.68L8.00749 15.7616L8.33432 15.1083L7.51723 15.2716L7.68066 15.435L7.27211 15.5166L7.68066 16.0066ZM6.04648 18.13L6.78186 16.9866L5.3928 17.15L6.04648 18.13ZM7.68066 13.3116L6.86357 13.475L7.27211 13.965L7.68066 13.3116ZM18.7931 2.69499L18.0577 3.67499L19.365 4.00166L18.7931 2.69499ZM11.1941 1.71498L11.9295 0L12.91 0.571651L11.1941 1.71498ZM8.82458 8.00331L8.41604 7.75832V8.32997L8.82458 8.00331ZM6.20989 8.2483L5.06597 8.41164L5.55623 9.14664L6.20989 8.2483ZM9.47825 4.00166L8.90629 4.57331L9.80509 4.81832L9.47825 4.00166ZM10.5405 11.76L11.3576 11.27L10.6222 10.9433L10.5405 11.76ZM4.65742 34.2999V35.1166L5.3111 34.8716L4.65742 34.2999ZM5.80135 28.4199L6.20989 28.9916L6.53673 28.3383L5.80135 28.4199ZM13.6454 31.85L14.6259 32.1766L14.4625 31.3599L13.6454 31.85ZM9.47825 33.3199V34.1366L10.1319 33.8916L9.47825 33.3199ZM11.3576 27.2766L10.5405 27.4399L11.0307 27.9299L11.3576 27.2766ZM11.4393 34.4633L10.6222 34.9533L11.2758 35.1166L10.949 35.8516L12.1746 35.5249L11.521 34.7899L11.4393 34.4633ZM6.61844 36.4233V37.2399L7.1904 36.9133L6.61844 36.4233Z" fill="#F3FCFF"/>
<path d="M8.25261 31.0333L8.66116 30.2983L7.84407 30.4616L8.25261 31.0333ZM8.49774 32.9116L8.41604 33.8916L9.23312 33.32L8.49774 32.9116ZM7.84407 37.8933L7.02698 38.0566L7.59895 38.5466L7.84407 37.8933ZM3.10496 33.4016H3.84033L3.5135 32.6666L3.10496 33.4016ZM5.71964 36.015L5.63793 36.75L6.2916 36.3416L5.71964 36.015ZM5.14768 40.5883L5.63793 40.425L5.06597 39.935V40.3433L4.65742 40.425L5.14768 40.8333V40.5883ZM1.55249 35.8516L1.30736 36.505H1.87933L1.55249 35.8516ZM8.17091 38.0566L7.92578 38.8733L8.66116 38.5466L8.17091 38.0566ZM6.70014 42.5483L6.94527 41.9766H6.2916L6.70014 42.5483ZM4.24888 37.8116L4.08546 37.1583L3.67692 37.73L4.24888 37.8116ZM7.10869 33.6466L6.2916 33.81L6.70014 34.3816L7.10869 33.6466ZM6.37331 38.955L5.96477 40.9966L7.84407 40.0166L6.37331 38.955ZM16.1784 24.4183L15.7698 26.46L17.6491 25.48L16.1784 24.4183ZM12.5832 9.63663L14.6259 9.88162L13.5637 8.32996L12.9917 7.02328L12.2563 8.00329L13.4003 8.24828L12.5832 9.63663ZM12.8283 15.3533L13.482 17.3133L14.5442 15.5166L12.8283 15.3533Z" fill="#F3FCFF"/>
</svg>
