<svg width="12" height="13" viewBox="0 0 12 13" fill="none" xmlns="http://www.w3.org/2000/svg">
<path d="M5.99998 6.82213L5.55787 6.50629L6.18945 6.25362L5.99998 6.82213ZM11.5579 6.56946L11.6842 6.25362L12 6.63263L11.5579 6.56946ZM4.23154 7.20114L3.59996 7.58015V6.82213L4.23154 7.20114ZM5.93682 3.97958L5.11576 4.48492L4.92629 3.47424L5.93682 3.97958Z" fill="#F4B9A6"/>
<path d="M5.93687 3.47423L5.11582 2.96889L5.93687 2.40038V3.47423ZM3.97897 9.15934L3.15791 8.654L3.97897 8.02232V9.15934ZM3.22107 8.14866L2.90528 7.20114H3.91581L3.22107 8.14866ZM6.1895 6.25362L6.69477 6.37995L6.37898 6.8853L6.1895 6.25362ZM5.87371 5.55877L6.37898 5.68511L6.06319 6.12728L5.87371 5.55877ZM5.93687 8.27499L5.7474 8.78033L5.30529 8.40132L5.93687 8.27499ZM5.68424 9.22251L5.24213 9.53835L5.11582 8.96984L5.68424 9.22251ZM3.15791 10.8017L3.66318 10.928L3.22107 11.3702L3.15791 10.8017ZM5.24213 0L5.36844 0.379006L4.86318 0.315839L5.24213 0ZM4.67371 3.09523L5.17897 3.03205L4.92634 3.47423L4.67371 3.09523ZM4.29476 1.51603L4.67371 1.45286L4.54739 1.9582L4.29476 1.51603ZM7.89477 2.46355L7.95793 2.96889L7.3895 2.77939L7.89477 2.46355ZM6.69477 1.5792L7.13687 1.83187L6.63161 2.14771L6.69477 1.5792ZM8.77899 2.27404L9.09478 2.33721L8.9053 2.58988L8.77899 2.27404ZM3.97897 10.8017L4.48423 10.928L4.16844 11.307L3.97897 10.8017ZM4.48423 10.549L4.92634 10.6754L4.61055 11.0544L4.48423 10.549Z" fill="#F4B9A6"/>
<path d="M8.27368 7.70649L8.71578 7.76965L8.46316 8.21183L8.27368 7.70649ZM7.19999 8.59084L7.6421 8.654L7.38946 9.03301L7.19999 8.59084ZM8.65262 6.3168L8.71578 6.75897L8.27368 6.56947L8.65262 6.3168ZM6.37894 5.81146L6.56841 5.43245L6.94736 5.81146H6.37894ZM1.7684 9.47519L1.57892 9.22251L1.95787 9.15935L1.7684 9.47519ZM3.59998 8.21183L3.28419 8.275V7.95916L3.59998 8.21183ZM0.757865 5.30612V5.55878L0.442074 5.43245L0.757865 5.30612ZM2.02103 6.75897H1.70524L1.83156 6.44313L2.02103 6.75897Z" fill="#F4B9A6"/>
<path d="M0.56836 5.81145L0.505199 5.49561L0.88415 5.55878L0.56836 5.81145ZM9.85258 3.3479L9.9789 3.66374H9.59995L9.85258 3.3479ZM5.68415 1.32653L5.17889 1.2002L5.55784 0.758021L5.68415 1.32653ZM5.17889 7.83282L3.97889 7.51698L4.92626 6.56947L5.17889 7.83282ZM5.99994 3.53741L6.44205 3.47424L6.37889 3.91641L5.99994 3.53741ZM9.28416 6.63263V6.19046L9.78942 6.44313L9.28416 6.63263ZM6.75784 2.27405L6.69468 2.84256L6.18942 2.52672L6.75784 2.27405ZM7.45258 3.22157L7.38942 3.79008L6.88416 3.47424L7.45258 3.22157ZM6.88416 2.84256L6.821 3.41107L6.31573 3.09523L6.88416 2.84256ZM2.14731 2.27405L1.7052 2.46356V2.02138L2.14731 2.27405ZM5.99994 5.05344L6.25258 4.67443L6.50521 5.1166L5.99994 5.05344ZM3.78941 10.2964L4.23152 10.4227L3.91573 10.7385L3.78941 10.2964ZM5.74731 7.51698L5.93679 7.83282H5.43152L5.74731 7.51698ZM5.30521 9.72786L5.49468 9.41202L5.74731 9.79103L5.30521 9.72786ZM4.67363 10.0437L4.42099 9.79103L4.79994 9.66469L4.67363 10.0437ZM4.54731 9.28568L4.16836 8.96984L4.61047 8.78034L4.54731 9.28568Z" fill="#F4B9A6"/>
<path d="M4.5473 8.78033L4.23151 8.52766L4.67362 8.27498L4.5473 8.78033ZM4.86309 6.82212L4.48415 6.56946L4.92625 6.37995L4.86309 6.82212ZM5.68415 7.01163L5.43152 7.2643L5.24204 6.88529L5.68415 7.01163ZM1.95782 9.98052L2.27362 10.0437L2.02098 10.4227L1.95782 9.98052ZM3.91572 6.44312L4.04204 6.75896H3.66309L3.91572 6.44312ZM2.9052 10.2964L3.15782 9.98052L3.3473 10.3595L2.9052 10.2964ZM5.11573 11.6229V12.0019L4.67362 11.7492L5.11573 11.6229ZM6.25258 9.53834L6.56837 9.66468L6.31573 9.91735L6.25258 9.53834ZM10.2315 5.3061L10.421 5.05343L10.6736 5.43243L10.2315 5.3061ZM5.99994 10.4859L5.68415 10.6122L5.62099 10.2332L5.99994 10.4859ZM7.13678 9.79101L6.82099 9.91735V9.53834L7.13678 9.79101ZM9.09469 10.2964L9.221 10.6122L8.84205 10.549L9.09469 10.2964ZM7.76836 11.6861L8.08416 11.6229L7.95784 12.0019L7.76836 11.6861ZM9.03153 12.1282L9.34732 12.0651L9.28415 12.5072L9.03153 12.1282ZM5.49467 6.19044L4.67362 6.00094L5.3052 5.36926L5.49467 6.19044ZM5.99994 4.48491L5.81046 4.73759L5.55783 4.42175L5.99994 4.48491ZM5.99994 5.11659L5.55783 5.6851L5.11573 4.99026L5.99994 5.11659ZM3.85257 3.85324L4.29467 4.29541L3.59993 4.54808L3.85257 3.85324ZM8.52626 5.11659V4.73759L8.90521 4.92709L8.52626 5.11659ZM4.5473 4.80075L4.79994 5.05343L4.35783 5.17976L4.5473 4.80075ZM5.93678 2.65305L5.49467 2.52671L5.87362 2.14771L5.93678 2.65305ZM3.09467 3.60056L2.65256 3.47423L3.03151 3.09522L3.09467 3.60056ZM6.18941 3.66373L5.74731 3.5374L6.0631 3.15839L6.18941 3.66373ZM3.03151 1.51603L2.5894 1.38969L2.9052 1.01068L3.03151 1.51603ZM4.61046 0.505337L4.86309 0.75801L4.48415 0.884348L4.61046 0.505337ZM8.02099 1.83187V1.51603L8.39995 1.70553L8.02099 1.83187ZM7.51574 7.39063L7.57889 7.95915L7.01047 7.70647L7.51574 7.39063ZM8.27363 7.20113L8.65257 7.2643L8.39995 7.64331L8.27363 7.20113ZM7.2631 9.15934L7.32626 9.60151L6.82099 9.41201L7.2631 9.15934ZM6.63152 7.2643V7.76964L6.0631 7.4538L6.63152 7.2643ZM7.07362 8.21182L7.01047 8.78033L6.5052 8.46449L7.07362 8.21182ZM7.64205 6.82212V6.44312L8.02099 6.63262L7.64205 6.82212Z" fill="#F4B9A6"/>
<path d="M2.02101 3.79007L1.64207 3.66373L1.95786 3.28473L2.02101 3.79007ZM3.72629 2.33721L3.53681 2.58988L3.22102 2.27404L3.72629 2.33721ZM0.378906 7.39064L-4.60542e-05 7.2643L0.315745 6.94846L0.378906 7.39064ZM7.19998 1.7687V1.45286L7.57892 1.64236L7.19998 1.7687ZM4.54733 2.58988L4.61049 2.96889L4.04208 2.84255L4.54733 2.58988ZM5.11576 1.7687V2.14771L4.61049 2.02137L5.11576 1.7687ZM4.73681 5.93778L3.97891 6.44312L3.78944 5.4956L4.73681 5.93778ZM2.90523 6.00095L2.08417 5.68511L2.65259 4.92709L2.90523 6.00095ZM4.92628 6.37995L4.67366 6.44312L4.73681 6.19045L4.92628 6.37995ZM5.30524 4.61125L5.43155 4.92709H4.98945L5.30524 4.61125ZM4.61049 3.66373L4.98945 3.7269L4.73681 4.10591L4.61049 3.66373ZM3.22102 3.85324L3.66312 3.9164L3.34733 4.29541L3.22102 3.85324Z" fill="#F4B9A6"/>
<path d="M4.86313 4.48494L3.91575 3.97959L4.92629 3.34791L4.86313 4.48494ZM3.47365 0.884371L3.22102 0.442193L3.91575 0.379026L3.47365 0.884371ZM4.23155 8.0855L3.97892 7.64333H4.6105L4.23155 8.0855ZM4.98945 5.74829L4.16839 5.24295L5.0526 4.67444L4.98945 5.74829ZM4.48418 1.95822L4.23155 2.21089L4.04208 1.83189L4.48418 1.95822ZM3.53681 2.71623L3.91575 3.34791L2.96838 3.41108L3.53681 2.71623ZM2.84207 1.76872L3.03154 2.08456H2.58944L2.84207 1.76872ZM2.46313 4.5481L2.14733 4.73761L2.02101 4.42177L2.46313 4.5481ZM3.66313 1.38971L3.8526 1.70555H3.4105L3.66313 1.38971ZM9.22104 5.11662L9.66315 5.24295L9.2842 5.62196L9.22104 5.11662ZM8.58946 3.22158L8.77894 3.60059H8.27367L8.58946 3.22158ZM7.64209 3.22158L7.76841 2.84257L8.0842 3.15841L7.64209 3.22158ZM8.14736 5.24295L8.27367 4.92711L8.58946 5.17978L8.14736 5.24295Z" fill="#F4B9A6"/>
</svg>
