<svg width="51" height="20" viewBox="0 0 51 20" fill="none" xmlns="http://www.w3.org/2000/svg">
<path d="M28.8209 5.39683L28.6939 4.76191L29.4557 4.88889L28.8209 5.39683ZM32.6933 5.96826L31.7411 5.84128L32.3124 4.88889L32.6933 5.96826ZM38.6607 8.57144L37.7084 8.50794L38.1528 7.55556L38.6607 8.57144ZM37.7084 6.15874L36.7562 6.09525L37.3275 5.14287L37.7084 6.15874ZM22.3457 14.9206L21.33 15.1746L21.5839 13.9048L22.3457 14.9206ZM24.3771 13.8413L23.2979 14.0952L23.5519 12.8254L24.3771 13.8413ZM35.7405 10.6667L34.6613 10.9841L34.9152 9.6508L35.7405 10.6667Z" fill="#DA7F57"/>
<path d="M35.2326 11.1746L34.2803 11.4286L34.4708 10.3492L35.2326 11.1746ZM15.807 15.9365L14.7278 15.6825L15.4261 14.6032L15.807 15.9365ZM19.5525 11.0476L18.4733 10.7937L19.2351 9.71429L19.5525 11.0476ZM26.5355 11.5556L25.4563 11.4286L26.0911 10.2857L26.5355 11.5556Z" fill="#DA7F57"/>
<path d="M28.3131 11.6191L27.5513 12.381L26.9799 11.2381L28.3131 11.6191ZM33.8995 8.44445L33.2012 9.20636L32.6299 8.0635L33.8995 8.44445ZM25.5199 11.3651L24.7581 12.0635L24.1867 10.9841L25.5199 11.3651ZM28.7575 10.7302L27.6148 10.6032L28.3131 9.46032L28.7575 10.7302ZM37.645 10.3492L36.6927 10.2222L37.2006 9.33334L37.645 10.3492ZM29.6462 12.3175L29.1384 11.3651L30.408 11.3016L29.6462 12.3175ZM14.7913 13.0794L14.347 12H15.5531L14.7913 13.0794ZM12.1251 17.1429L11.6807 16.0635H12.9504L12.1251 17.1429Z" fill="#DA7F57"/>
<path d="M0.698263 17.3968L-4.62906e-05 16.9524L0.634775 16.5079L0.698263 17.3968ZM19.9969 9.5238L19.489 8.44444L20.7587 8.38094L19.9969 9.5238ZM22.9805 9.96824L22.4727 8.88888L23.6788 8.82539L22.9805 9.96824ZM5.20551 18.2857L4.76112 17.6508L5.64989 17.4603L5.20551 18.2857ZM4.38024 17.6508L4.06283 16.9524L4.88809 16.8889L4.38024 17.6508ZM32.8203 11.9365L32.3124 11.1111L33.3916 11.0476L32.8203 11.9365ZM33.3916 10.4762L32.9473 9.65078L34.0264 9.5873L33.3916 10.4762ZM30.7254 12.0635L29.7731 11.9365L30.3445 11.0476L30.7254 12.0635ZM29.9001 9.39682L28.8209 9.20634L29.4557 8.12698L29.9001 9.39682ZM30.6619 1.07936L30.4714 1.5873L30.0271 1.14285L30.6619 1.07936ZM29.2653 10.4127L29.7731 9.77777L30.154 10.6032L29.2653 10.4127ZM31.4237 11.1111L30.9793 10.5397L31.7411 10.4127L31.4237 11.1111ZM34.9152 8.31746L34.3439 8.50792V7.80952L34.9152 8.31746ZM19.6795 11.0476V10.2857L20.5047 10.6032L19.6795 11.0476ZM12.8869 14.4762L12.8234 13.6508L13.6486 14.0317L12.8869 14.4762ZM21.457 11.4921L21.3935 10.6667L22.2187 11.0476L21.457 11.4921ZM26.726 12.6984L26.0912 12.5714L26.4721 11.9365L26.726 12.6984ZM25.012 12.8889L24.3772 12.7619L24.758 12.127L25.012 12.8889ZM23.9328 6.47618L23.6788 7.1111L23.2345 6.53968L23.9328 6.47618ZM21.0126 12.1905L20.7587 12.8254L20.3143 12.254L21.0126 12.1905ZM17.3941 13.3333L18.0924 13.0159V13.9682L17.3941 13.3333ZM15.934 14.2222L16.6323 13.8413V14.7936L15.934 14.2222ZM18.0924 16.127L18.2829 14.8571L19.362 15.6825L18.0924 16.127ZM15.934 16.6349L16.2514 15.4286L17.2671 16.3809L15.934 16.6349Z" fill="#DA7F57"/>
<path d="M20.1238 13.3968L19.235 12.5079L20.5682 12.127L20.1238 13.3968ZM16.8227 13.9683L15.9339 13.1429L17.2036 12.6984L16.8227 13.9683ZM27.4877 10.9841L26.599 10.1587L27.8686 9.71428L27.4877 10.9841ZM34.5977 10.0317L33.709 9.20634L34.9786 8.7619L34.5977 10.0317ZM5.015 18.7937H4.44365L4.69759 18.2222L5.015 18.7937ZM2.92007 19.3651L3.36446 19.746L2.92007 20V19.3651ZM13.9025 14.7302L14.3469 15.2381L13.6486 15.4286L13.9025 14.7302ZM27.4242 7.04762L27.2973 7.49206L26.8529 7.1746L27.4242 7.04762ZM24.631 5.39682L24.9484 5.5873L24.5675 5.84126L24.631 5.39682ZM24.885 9.71428L25.2024 9.33333L25.3928 9.84126L24.885 9.71428ZM35.9309 8.63492L35.8039 9.14285L35.3595 8.7619L35.9309 8.63492ZM33.0742 7.04762L33.3916 7.23809L33.0742 7.55555V7.04762ZM33.4551 11.3651L33.709 11.0476L33.8995 11.4921L33.4551 11.3651ZM16.4418 9.65079L17.1401 10.0317L16.4418 10.6032V9.65079ZM13.1407 13.5873L13.5851 13.0794L13.839 13.7778L13.1407 13.5873ZM19.4255 14.5397L19.0446 14.0317L19.7429 13.9048L19.4255 14.5397ZM2.85659 18.5397L3.23749 18.9206L2.66615 19.1111L2.85659 18.5397ZM3.5549 17.1429L3.93579 17.5238L3.36446 17.7778L3.5549 17.1429ZM2.22176 17.5238L2.66615 17.7778L2.28525 18.1587L2.22176 17.5238ZM17.7115 11.1746L18.7272 11.619L17.8384 12.4444L17.7115 11.1746Z" fill="#DA7F57"/>
<path d="M1.77746 18.2857L2.53923 18.0952L2.22182 18.7937L1.77746 18.2857ZM0.825224 17.5238L1.65048 17.1429V18.2222L0.825224 17.5238ZM28.8844 13.0159L28.1861 12.5714L28.8844 12.0635V13.0159ZM32.3124 9.20633L31.868 9.71427L31.6141 9.01585L32.3124 9.20633ZM26.0912 7.93649L26.4721 8.50791L25.7737 8.57141L26.0912 7.93649ZM27.5513 8.31745L28.313 8.44443L27.8687 9.20633L27.5513 8.31745ZM25.9007 13.2698L26.0912 12.6349L26.599 13.2063L25.9007 13.2698ZM31.995 11.8095L31.4871 11.4286L32.122 10.9841L31.995 11.8095Z" fill="#DA7F57"/>
<path d="M32.6933 11.3651L31.9951 10.9841L32.7568 10.4762L32.6933 11.3651ZM36.1849 7.55556L35.7405 8.0635L35.4866 7.36509L36.1849 7.55556ZM29.7732 6.47619L30.1541 7.04763L29.3923 7.17461L29.7732 6.47619ZM22.2823 13.1429L21.9014 11.5556L23.8058 11.9365L22.2823 13.1429ZM36.2484 9.20636L35.9944 8.12699L37.2006 8.38096L36.2484 9.20636ZM35.2961 11.4921L35.677 9.77778L37.2006 10.9841L35.2961 11.4921ZM30.4715 12.7619L30.8524 11.1746L32.3759 12.3175L30.4715 12.7619ZM32.6933 12.127L33.0742 10.4762L34.5978 11.6825L32.6933 12.127Z" fill="#DA7F57"/>
<path d="M28.2495 13.3968L28.6939 11.746L30.2175 12.8889L28.2495 13.3968ZM26.2816 13.9048L26.7259 12.1905L28.186 13.4603L26.2816 13.9048ZM24.2501 14.4762L24.6945 12.7619L26.2181 13.9683L24.2501 14.4762ZM22.917 14.4127L21.9013 13.0159L23.8692 12.6349L22.917 14.4127ZM17.648 16.1905L16.6957 14.7936L18.6002 14.4762L17.648 16.1905ZM14.7913 16.7619L13.7756 15.3651L15.68 15.0476L14.7913 16.7619ZM19.362 15.746L19.8064 14.0952L21.3299 15.3016L19.362 15.746ZM37.3275 10.7936L37.5814 9.26984L39.2319 10.3492L37.3275 10.7936Z" fill="#DA7F57"/>
<path d="M39.8034 9.96825L38.0893 9.52381L39.2955 8.06349L39.8034 9.96825ZM39.232 7.93651L37.5815 7.55556L38.7876 6.03175L39.232 7.93651ZM27.0434 7.17461L27.4878 6.60318L27.8052 7.30159L27.0434 7.17461ZM29.9001 10.6032L29.5192 10.1587L30.154 10.0318L29.9001 10.6032ZM31.6141 5.20635L31.1063 5.46033V4.82541L31.6141 5.20635ZM22.8536 13.7143L23.6154 14.7302L22.2822 15.0476L22.8536 13.7143ZM20.9491 13.2698L21.7744 14.2222L20.4413 14.6032L20.9491 13.2698ZM13.2043 16.6984L12.1251 16.9524L12.379 15.6825L13.2043 16.6984ZM15.5531 16.1905L14.4739 16.5079L14.6644 15.1746L15.5531 16.1905ZM13.8391 16.4444L12.8869 15.1111L14.7913 14.7302L13.8391 16.4444ZM3.42802 19.8095L3.74543 18.5397L5.01508 19.4286L3.42802 19.8095ZM5.14203 19.4286L5.20551 18.3492L6.34819 18.9841L5.14203 19.4286Z" fill="#DA7F57"/>
<path d="M13.7121 16L14.6643 16.8889L13.0773 17.2698L13.7121 16ZM29.7731 5.20634L30.2175 4.69841L30.5984 5.33333L29.7731 5.20634ZM32.6933 8.57143L32.3124 8.19047L32.9473 8L32.6933 8.57143ZM34.3439 3.23809L33.836 3.49206L33.7725 2.85714L34.3439 3.23809ZM40.6921 3.1111L39.7398 3.04762L40.1842 2.09524L40.6921 3.1111ZM46.5959 5.33333L45.6437 5.26984L46.0881 4.38094L46.5959 5.33333ZM49.2622 5.33333H48.31L48.7543 4.44444L49.2622 5.33333ZM44.0567 7.61905L43.0409 8L43.1044 6.66666L44.0567 7.61905Z" fill="#DA7F57"/>
<path d="M43.5488 8.19046L42.6601 8.50792L42.787 7.42856L43.5488 8.19046ZM42.0252 5.5238L41.3904 6.4127L40.6921 5.26984L42.0252 5.5238ZM45.6437 6.98412H44.6915L45.1359 6.03174L45.6437 6.98412ZM41.2 9.20634L40.6921 8.38094L41.7713 8.19046L41.2 9.20634ZM41.7078 7.61904L41.2 6.85714L42.2157 6.66666L41.7078 7.61904ZM43.041 5.33333L42.4696 5.65079L42.4061 4.88888L43.041 5.33333ZM42.914 7.1111L41.8983 6.3492L43.1679 5.77778L42.914 7.1111ZM44.0567 5.5873L43.9932 6.09524L43.4853 5.77778L44.0567 5.5873ZM41.073 4.31746L41.4539 4.50794L41.1365 4.8254L41.073 4.31746ZM41.8348 8.50792L42.0887 8.19046L42.2792 8.57142L41.8348 8.50792ZM37.5815 10.4762L36.8832 10.1587L37.518 9.5238L37.5815 10.4762ZM40.6286 6.3492L40.2477 6.85714L39.8668 6.15872L40.6286 6.3492ZM34.3439 5.65079L34.7248 6.15872L34.0265 6.3492L34.3439 5.65079ZM35.804 5.90476H36.5658L36.1849 6.73016L35.804 5.90476ZM34.6613 11.0476L34.7883 10.4127L35.3596 10.9206L34.6613 11.0476ZM40.5652 8.88888L40.0573 8.57142L40.6286 8.12698L40.5652 8.88888Z" fill="#DA7F57"/>
<path d="M41.073 8.57143L40.3747 8.25397L41.0095 7.68254L41.073 8.57143ZM44.2471 4.57143L43.8027 5.01587L43.4853 4.44444L44.2471 4.57143ZM37.7719 4L38.1528 4.50794L37.4545 4.69841L37.7719 4ZM49.8335 4.88889L49.4526 3.93651L50.6588 4.06349L49.8335 4.88889ZM43.6123 8.57143L43.8662 6.85714L45.5167 7.93651L43.6123 8.57143ZM39.232 10.2222L39.4859 8.50793L41.073 9.58731L39.232 10.2222ZM41.2634 9.46031L41.5174 7.80953L43.1044 8.82539L41.2634 9.46031ZM45.2628 7.74603L45.5167 6.03175L47.1673 7.11111L45.2628 7.74603ZM47.9291 6.53968L46.9134 6.28571L47.6751 5.33333L47.9291 6.53968ZM37.645 2.73016L38.0258 2.15873L38.4702 2.79365L37.645 2.73016ZM40.8825 5.84127L40.4382 5.39683L41.073 5.20635L40.8825 5.84127ZM42.0252 0.31746L41.5174 0.634921L41.4539 0L42.0252 0.31746ZM29.9636 8.12699L29.2018 7.87301L29.8366 7.23809L29.9636 8.12699ZM32.6299 3.80952L32.3124 4.38095L31.8681 3.74603L32.6299 3.80952ZM26.1547 3.93651L26.599 4.44444L25.9007 4.69841L26.1547 3.93651ZM28.8844 2.28572L29.0114 1.77778L29.5192 2.15873L28.8844 2.28572Z" fill="#DA7F57"/>
</svg>
