<svg width="11" height="38" viewBox="0 0 11 38" fill="none" xmlns="http://www.w3.org/2000/svg">
<path d="M2.80506 23.2081L2.42257 22.698L2.9963 22.5705L2.80506 23.2081ZM3.82504 25.5034L4.39878 24.802L4.78127 25.5034H3.82504ZM7.90495 29.5201L8.47869 28.8188L8.79743 29.5201H7.90495ZM5.80125 29.4564L6.37498 28.755L6.75748 29.4564H5.80125ZM8.15994 14.0906L9.17993 13.5168L9.24367 14.4732L8.15994 14.0906ZM8.03245 16.0671L9.05242 15.4933L9.11617 16.4497L8.03245 16.0671ZM8.41494 26.2047L9.37116 25.5671L9.43492 26.5235L8.41494 26.2047Z" fill="#FFBCA4"/>
<path d="M8.86118 25.6309L9.62616 25.1846L9.6899 25.9496L8.86118 25.6309ZM6.69372 9.11744L6.94872 8.73489L7.13996 9.05368L6.69372 9.11744ZM4.52627 13.3893L5.2275 12.4966L5.67374 13.3255L4.52627 13.3893ZM6.62997 18.8087L7.39496 17.9799L7.77744 18.8087H6.62997Z" fill="#FFBCA4"/>
<path d="M7.64991 19.255L8.73363 19.3826L8.35115 20.2114L7.64991 19.255ZM6.43868 24.802L7.58616 24.9295L7.13991 25.7584L6.43868 24.802ZM6.69367 17.0872L7.7774 17.2148L7.33116 18.0436L6.69367 17.0872ZM6.56618 20.849L7.33116 19.9564L7.71366 20.849H6.56618ZM8.86114 28.1174L9.37112 27.4161L9.75362 28.1812L8.86114 28.1174ZM8.60614 22.0604L8.35115 20.9765L9.30738 21.104L8.60614 22.0604ZM5.5462 9.69126L5.22745 8.67112L6.18368 8.73489L5.5462 9.69126ZM4.20748 4.90938L4.07998 4.52682H4.46247L4.20748 4.90938Z" fill="#FFBCA4"/>
<path d="M3.18746 15.1745L2.86872 14.1543L3.82495 14.2181L3.18746 15.1745ZM4.84493 17.2785L4.58993 16.2584L5.54616 16.3859L4.84493 17.2785ZM6.94863 3.44294L6.62989 2.4228L7.58611 2.48656L6.94863 3.44294ZM9.05232 24.547L8.79733 23.6543L9.62606 23.7819L9.05232 24.547ZM8.09609 25.5034L7.8411 24.6107L8.60608 24.7382L8.09609 25.5034ZM8.2236 22.1879L8.79733 21.4866L9.17983 22.1879H8.2236ZM5.8649 22.1879L6.56613 21.3591L7.01237 22.1879H5.8649ZM3.25122 11.9228L3.69745 12.1141L3.37871 12.4329L3.25122 11.9228ZM7.77735 22.1241L7.01237 22.0604L7.39487 21.4866L7.77735 22.1241ZM8.03235 23.5268L7.9686 22.8255L8.54234 23.0168L8.03235 23.5268ZM6.75738 26.2684L7.33111 26.0772V26.651L6.75738 26.2684ZM5.54616 14.1543L5.09992 13.6443L5.7374 13.3893L5.54616 14.1543ZM6.62989 7.58724L6.18364 7.01341L6.82112 6.82213L6.62989 7.58724ZM6.18364 15.4933L5.7374 14.9195L6.37489 14.7282L6.18364 15.4933ZM8.15985 18.6812L8.54234 18.1711L8.79733 18.6812H8.15985ZM7.8411 17.2148L8.2236 16.7047L8.47859 17.2148H7.8411ZM2.23124 17.7248L2.80498 17.9161L2.35873 18.2986L2.23124 17.7248ZM6.88488 13.5168L7.52236 13.7718L7.07612 14.1543L6.88488 13.5168ZM7.64986 11.2852L6.94863 11.5402L7.01237 10.9027L7.64986 11.2852ZM8.09609 9.81878L7.33111 10.0738L7.45861 9.37246L8.09609 9.81878Z" fill="#FFBCA4"/>
<path d="M8.92486 11.859L7.9049 11.2852L8.79737 10.7114L8.92486 11.859ZM8.73362 9.94628L7.71365 9.43622L8.60612 8.79864L8.73362 9.94628ZM6.88492 13.7718L6.82117 12.6241L7.77739 13.1342L6.88492 13.7718ZM6.56618 10.8389V9.62749L7.5224 10.1376L6.56618 10.8389ZM6.69367 20.4664V19.255L7.58616 19.7651L6.69367 20.4664ZM7.71365 26.5235L7.6499 25.3758L8.60612 25.8221L7.71365 26.5235ZM4.08 1.65769L4.52624 1.21139L4.71748 1.72145L4.08 1.65769ZM6.37493 5.61072L5.73745 5.80199L5.86494 5.22817L6.37493 5.61072ZM7.58616 1.72145L7.6499 2.35904L7.07617 2.10401L7.58616 1.72145ZM7.84115 7.20468V7.84226L7.26741 7.58723L7.84115 7.20468ZM4.33499 20.3389L4.78123 20.5939L4.39874 20.7852L4.33499 20.3389ZM2.67753 18.8087L2.55003 19.1913L2.29505 19L2.67753 18.8087ZM6.05619 18.3624H5.67371L5.86494 18.0436L6.05619 18.3624ZM7.84115 26.7785L8.28738 27.0336L7.9049 27.2886L7.84115 26.7785ZM6.18369 25.3121L6.05619 25.6946L5.8012 25.5034L6.18369 25.3121ZM9.56235 24.802H9.11611L9.30736 24.4832L9.56235 24.802ZM3.37876 14.1543L3.63375 14.4731L3.25127 14.5369L3.37876 14.1543ZM3.06002 10.4564L2.80503 10.7752L2.67753 10.4564H3.06002ZM4.52624 10.7114L4.27124 11.4127L3.76126 10.9664L4.52624 10.7114ZM6.43868 7.71474L5.8012 7.651L6.11994 7.20468L6.43868 7.71474ZM8.15989 12.4966L8.03239 11.859L8.60612 11.9866L8.15989 12.4966ZM6.88492 0.701314L6.56618 0.318779L7.01242 0.127492L6.88492 0.701314ZM5.16372 2.04024L5.09997 1.53019L5.5462 1.65769L5.16372 2.04024ZM6.50243 1.59395L6.31119 2.10401L5.9287 1.78521L6.50243 1.59395Z" fill="#FFBCA4"/>
<path d="M6.37489 11.4765L5.92865 12.4329L5.29116 11.7953L6.37489 11.4765ZM5.92865 0L5.7374 0.637584L5.29116 0.25503L5.92865 0ZM6.75738 1.33891L6.50238 1.91275L6.1199 1.5302L6.75738 1.33891ZM8.86108 20.5939L9.11607 19.8926L9.62606 20.3389L8.86108 20.5939ZM7.13987 23.6543L7.77735 23.7181L7.52236 24.1644L7.13987 23.6543ZM5.22741 19L5.35492 19.6376L4.78117 19.51L5.22741 19ZM6.31114 20.5939L5.7374 21.104L5.48241 20.5302L6.31114 20.5939ZM9.17983 18.4262L8.60608 18.1711L9.05232 17.7886L9.17983 18.4262ZM8.86108 23.5268L9.05232 22.8892L9.49857 23.208L8.86108 23.5268Z" fill="#FFBCA4"/>
<path d="M8.66987 24.0369L8.92486 23.2718L9.43485 23.7181L8.66987 24.0369ZM7.01241 27.1611H7.64989L7.3949 27.6711L7.01241 27.1611ZM5.09995 22.3154L5.22745 22.953L4.65371 22.7617L5.09995 22.3154ZM7.33115 16.5134L6.50242 15.047L7.96863 14.9195L7.33115 16.5134ZM8.09613 28.4362L7.5224 27.5436L8.47862 27.4161L8.09613 28.4362ZM10.2636 27.6074L8.92486 26.651L10.1361 25.8859L10.2636 27.6074ZM10.0086 23.5268L8.66987 22.6342L9.88109 21.8691L10.0086 23.5268ZM10.1361 25.3758L8.73361 24.4832L9.94484 23.6544L10.1361 25.3758ZM9.88109 21.4228L8.54238 20.5302L9.7536 19.7651L9.88109 21.4228ZM9.7536 19.6376L8.41487 18.745L9.6261 17.9161L9.7536 19.6376Z" fill="#FFBCA4"/>
<path d="M9.62616 17.9161L8.22371 17.0235L9.43492 16.1946L9.62616 17.9161ZM8.03246 16.3221L7.77746 14.6644L9.17993 15.047L8.03246 16.3221ZM8.79744 10.8389L7.96871 10.3288L8.66994 9.88255L8.79744 10.8389ZM8.60619 9.1812L7.20373 8.28859L8.41494 7.45972L8.60619 9.1812ZM9.11618 13.5805L7.77746 12.6879L8.98868 11.859L9.11618 13.5805ZM10.3911 29.3289L8.98868 28.4362L10.1999 27.6074L10.3911 29.3289ZM8.66994 30.2215L9.37117 28.755L10.3274 29.9027L8.66994 30.2215ZM6.94874 30.5403L7.64997 29.0738L8.60619 30.2215L6.94874 30.5403Z" fill="#FFBCA4"/>
<path d="M5.54618 4.90938L5.16369 4.08052H5.92867L5.54618 4.90938ZM4.71746 21.0403L4.07997 20.9765L4.39872 20.4664L4.71746 21.0403ZM7.52238 22.1879V21.6141L7.96862 21.8054L7.52238 22.1879ZM3.63373 24.4195L4.14372 24.2282L4.07997 24.7383L3.63373 24.4195ZM9.24358 14.3456L9.37108 15.557L8.35111 15.2383L9.24358 14.3456ZM8.54236 12.8792L8.6061 14.0906L7.64988 13.7081L8.54236 12.8792ZM7.26739 5.99328L8.15986 5.41946L8.28736 6.37583L7.26739 5.99328ZM6.24741 8.22482L6.69365 7.96979V8.41609L6.24741 8.22482Z" fill="#FFBCA4"/>
<path d="M6.18364 2.93288L5.48242 3.25167V2.55034L6.18364 2.93288ZM5.67366 2.42282L4.97243 2.67785L5.03618 2.04026L5.67366 2.42282ZM7.77735 3.63422L6.75738 3.0604L7.64985 2.35905L7.77735 3.63422ZM6.37489 6.50335L6.31115 5.86576L6.82112 6.05705L6.37489 6.50335ZM7.9686 5.54697L6.56614 4.5906L7.77735 3.76175L7.9686 5.54697ZM8.28734 6.12079L8.41483 7.52348L7.45861 7.01342L8.28734 6.12079ZM4.97243 3.12416V3.57046L4.65369 3.44295L4.97243 3.12416ZM3.95245 23.7819L3.31497 23.7181L3.63371 23.208L3.95245 23.7819ZM6.82112 24.9295L6.75738 24.3557L7.20362 24.547L6.82112 24.9295ZM2.86873 27.161L3.37872 26.9698V27.4161L2.86873 27.161ZM4.20745 33.2819L4.71744 32.5168L5.09992 33.2819H4.20745ZM8.41483 37.0436L8.98857 36.2785L9.37106 36.9798L8.41483 37.0436ZM6.37489 37.0436L6.94863 36.2785L7.33111 37.0436H6.37489ZM8.79733 33.6644L9.75355 33.0268L9.88105 33.9832L8.79733 33.6644Z" fill="#FFBCA4"/>
<path d="M9.2436 33.1544L10.0086 32.5805L10.1361 33.4094L9.2436 33.1544ZM6.82114 32.3892L7.96862 32.453L7.52238 33.2819L6.82114 32.3892ZM9.30735 35.6409L9.88109 34.8758L10.2636 35.6409H9.30735ZM9.56234 32.0705L9.30735 31.1778L10.0723 31.3053L9.56234 32.0705ZM8.54237 33.0268L8.28737 32.1342L9.1161 32.2617L8.54237 33.0268ZM7.20364 33.8557L7.77737 33.6007V34.1745L7.20364 33.8557ZM8.15987 34.047L8.09612 32.8993L9.05235 33.3456L8.15987 34.047ZM8.35112 34.3658L8.73361 34.557L8.41486 34.8121L8.35112 34.3658Z" fill="#FFBCA4"/>
<path d="M6.69363 32.8993L6.56614 33.2819L6.31115 33.0268L6.69363 32.8993ZM10.0723 32.3892L9.62608 32.3255L9.81733 32.0067L10.0723 32.3892ZM9.17984 28.3087L9.37108 27.5436L9.88107 27.9899L9.17984 28.3087ZM7.45862 31.3691H8.0961L7.84111 31.8792L7.45862 31.3691ZM5.48241 26.7785L5.60991 27.3523L5.03617 27.2248L5.48241 26.7785ZM6.56614 28.3087L6.05615 28.8825L5.80116 28.3087H6.56614ZM9.43483 26.0772L8.8611 25.8859L9.30733 25.5033L9.43483 26.0772ZM9.17984 31.2416L9.30733 30.604L9.81733 30.9228L9.17984 31.2416Z" fill="#FFBCA4"/>
<path d="M9.05236 31.6879L9.24361 30.9866L9.7536 31.4329L9.05236 31.6879ZM7.3949 34.8758H8.03239L7.77739 35.3859L7.3949 34.8758ZM5.41869 30.0302L5.54618 30.6678L4.97245 30.5403L5.41869 30.0302ZM8.60612 35.9597L8.03239 35.0671L8.92487 34.9396L8.60612 35.9597ZM10.7736 35.0034L9.43486 34.047L10.7098 33.2819L10.7736 35.0034ZM10.5186 31.0503L9.11611 30.1577L10.3273 29.3289L10.5186 31.0503ZM10.6461 33.0268L9.24361 32.0705L10.5186 31.3054L10.6461 33.0268ZM10.9648 36.7248L9.49861 35.896L10.7098 35.0671L10.9648 36.7248ZM9.94485 37.6812L10.2636 36.8524L10.8373 37.1711L9.94485 37.6812ZM8.60612 38L8.98862 37.1711L9.56235 37.8087L8.60612 38ZM4.14371 31.5604L3.50623 31.4967L3.82497 30.9866L4.14371 31.5604ZM7.01241 32.6443L6.94866 32.1342L7.3949 32.2617L7.01241 32.6443ZM3.12374 34.9396L3.63372 34.7483L3.56998 35.2584L3.12374 34.9396ZM5.22744 22.698L5.60994 22.0604L5.99243 22.5705L5.22744 22.698ZM2.93249 25.3758L3.56998 25.5671L3.18748 26.0134L2.93249 25.3758ZM2.10376 20.2114L2.04 20.849L1.53002 20.594L2.10376 20.2114ZM2.35875 6.12078L2.04 6.63086L1.78501 6.24831L2.35875 6.12078ZM4.01622 4.27179L3.56998 4.20803L3.82497 3.88924L4.01622 4.27179ZM4.52621 7.90603V7.45972L4.84495 7.651L4.52621 7.90603ZM0.446286 24.1644L4.74532e-05 23.8456L0.382543 23.5906L0.446286 24.1644Z" fill="#FFBCA4"/>
</svg>
