<svg width="55" height="31" viewBox="0 0 55 31" fill="none" xmlns="http://www.w3.org/2000/svg">
<path d="M30.6094 16.4672L30.9325 17.2744L31.6594 16.6287L30.6094 16.4672ZM28.4288 15.2564L28.7519 16.1443L29.4787 15.4179L28.4288 15.2564ZM31.7401 13.8034L32.2247 13.5613L31.7401 13.1576V13.8034ZM30.4479 18.4046L31.4978 18.4853L31.094 17.2744L30.4479 18.4046ZM26.4097 16.548L27.4597 16.7094L27.0558 15.4986L26.4097 16.548ZM24.1484 17.3552L25.279 17.4359L24.7945 16.3058L24.1484 17.3552ZM28.5904 15.0142L29.6403 15.095L29.2365 13.9649L28.5904 15.0142ZM29.5595 16.0636L30.6902 16.1443L30.2864 15.0142L29.5595 16.0636ZM27.7827 16.8708L28.9134 16.9516L28.5096 15.8215L27.7827 16.8708ZM32.0632 14.6106L33.1939 14.6914L32.7901 13.5613L32.0632 14.6106ZM30.8517 14.9335L31.9017 15.0142L31.5786 13.8841L30.8517 14.9335ZM21.4024 21.7949L22.5331 21.8756L22.0485 20.6648L21.4024 21.7949ZM25.1175 20.5033L24.8752 19.454L23.9061 20.1804L25.1175 20.5033ZM23.1792 20.6648L22.9369 19.6154L21.9677 20.3419L23.1792 20.6648ZM27.4597 18.8082L27.7019 19.6961L28.4288 18.9696L27.4597 18.8082ZM31.8209 16.3865L32.1439 17.2744L32.8708 16.548L31.8209 16.3865ZM21.4832 23.2479L21.7254 24.0551L22.5331 23.4093L21.4832 23.2479ZM26.0059 19.0503L26.1674 19.6961L26.7328 19.2118L26.0059 19.0503ZM29.6403 17.113L29.1557 17.3552L29.6403 17.7588V17.113ZM29.2365 22.2792L28.8326 21.9563L28.6711 22.4407L29.2365 22.2792ZM31.4171 23.4901L32.0632 23.3286L31.5786 22.7636L31.4171 23.4901ZM29.4787 19.8576L29.721 20.3419L30.0441 19.8576H29.4787ZM34.6476 20.2612L34.2438 20.6648L34.8092 20.8262L34.6476 20.2612ZM23.9868 25.2659L24.3099 25.6696L24.6329 25.1852L23.9868 25.2659ZM29.2365 25.5888L28.8326 25.9117L29.398 26.1539L29.2365 25.5888ZM3.55362 29.7057L3.79591 30.19L4.28049 29.6249L3.55362 29.7057ZM6.62264 26.8804L6.21882 27.284L6.7034 27.5262L6.62264 26.8804ZM5.89576 29.8671L6.21882 30.4322L6.62264 29.8671H5.89576ZM8.96478 27.1225L8.56097 27.5262L9.12631 27.6876L8.96478 27.1225ZM8.64173 25.831L8.39944 26.4768L9.12631 26.3961L8.64173 25.831ZM12.6799 25.9924H12.1953L12.4376 26.4768L12.6799 25.9924ZM9.77242 30.2707L9.69165 29.7864L9.20707 30.1093L9.77242 30.2707ZM22.7754 22.8443L23.3407 23.8937L24.0676 22.8443H22.7754ZM26.0867 23.4901L25.6829 23.8937L26.2482 24.1358L26.0867 23.4901Z" fill="#F9CFE1"/>
<path d="M20.8371 24.5394V23.8937L20.2717 24.2165L20.8371 24.5394ZM23.1792 23.2479L23.3408 22.6021L22.6946 22.6828L23.1792 23.2479ZM19.0603 22.8443H19.6256L19.3833 22.2792L19.0603 22.8443ZM22.2908 18.7275L22.4523 19.2925L22.9369 18.9696L22.2908 18.7275ZM22.1293 24.2973L22.9369 23.9744L22.2101 23.3286L22.1293 24.2973ZM18.818 19.8576L19.3026 20.4226L19.6256 19.7768L18.818 19.8576ZM25.8444 19.3732L25.3598 20.019L26.1675 20.1805L25.8444 19.3732ZM10.9839 29.3827L11.7915 29.4635L11.4685 28.6562L10.9839 29.3827ZM10.3378 24.2973L10.4186 24.943L11.0647 24.5394L10.3378 24.2973ZM16.1528 27.1225L15.5874 27.3647L16.072 27.849L16.1528 27.1225ZM12.7607 28.2526L12.8415 28.737L13.4068 28.4141L12.7607 28.2526ZM16.6374 29.2213L16.8797 29.7056L17.2027 29.2213H16.6374ZM24.0676 27.7683L24.3907 28.0912L24.633 27.6069L24.0676 27.7683ZM28.8327 26.7996L28.5904 27.2033H29.075L28.8327 26.7996ZM6.13809 29.7056L5.8958 30.1092L6.46114 30.1899L6.13809 29.7056ZM27.5405 21.2299L27.702 20.6648H27.0559L27.5405 21.2299ZM23.4215 20.7455L23.9061 20.8262L23.7446 20.2612L23.4215 20.7455ZM26.7328 16.7094L26.8136 17.2745L27.2982 16.9516L26.7328 16.7094ZM25.1176 16.8709L25.4406 17.7588L26.1675 17.0323L25.1176 16.8709ZM24.7137 18.2431L25.7637 19.2118L26.329 17.7588L24.7137 18.2431ZM26.5713 18.1624L28.025 18.2431L27.4597 16.7094L26.5713 18.1624ZM20.1102 21.0684L21.4832 21.1491L20.9178 19.6961L20.1102 21.0684ZM17.445 22.6021L18.818 22.6828L18.2526 21.2299L17.445 22.6021ZM15.1836 23.7322L16.072 22.6021L14.5375 22.1985L15.1836 23.7322ZM18.9795 24.1358L18.2526 23.4093L17.7681 24.4587L18.9795 24.1358ZM9.12635 26.2346L9.69169 25.3466L8.561 25.1852L9.12635 26.2346ZM20.8371 22.1985L20.1102 21.472L19.7064 22.5214L20.8371 22.1985ZM10.9031 26.1539L11.4685 25.2659L10.3378 25.1045L10.9031 26.1539ZM16.072 22.1985L17.445 22.2792L16.8797 20.7455L16.072 22.1985ZM23.5023 18.6467L23.8253 19.5347L24.5522 18.8082L23.5023 18.6467ZM22.6946 17.8395L23.0177 18.7275L23.7446 18.001L22.6946 17.8395ZM31.7402 20.019L32.3055 19.7768L31.8209 19.2925L31.7402 20.019Z" fill="#F9CFE1"/>
<path d="M32.4669 18.4853V18.001L31.9016 18.2431L32.4669 18.4853ZM31.9824 21.1491L32.2247 21.5527L32.5477 21.0684L31.9824 21.1491ZM22.3715 19.0504L22.8561 18.8082L22.4523 18.4046L22.3715 19.0504ZM27.7827 18.566L28.1057 18.9696L28.348 18.4046L27.7827 18.566ZM19.7871 19.5347L20.837 19.6154L20.4332 18.4853L19.7871 19.5347Z" fill="#F9CFE1"/>
<path d="M21.7255 17.5166L19.8679 18.4853L21.6447 19.8576L21.7255 17.5166ZM18.818 19.0504L16.9604 20.019L18.7372 21.472L18.818 19.0504ZM23.9868 16.3058L22.2101 17.1938L23.9061 18.6467L23.9868 16.3058ZM14.6183 21.2299L12.7607 22.1985L14.6183 23.5708V21.2299ZM6.05732 27.9298L5.8958 25.831L3.87671 26.9611L6.05732 27.9298ZM26.4098 15.095L24.633 15.9829L26.329 17.4359L26.4098 15.095ZM28.3481 13.9649L26.4905 14.9335L28.2673 15.5793L28.3481 13.9649ZM30.4479 12.9155L28.5904 13.8842L30.4479 15.2564V12.9155Z" fill="#F9CFE1"/>
<path d="M15.5874 22.2792L16.6373 22.36L16.2335 21.2299L15.5874 22.2792ZM17.1219 20.5033L17.445 21.5527L18.3333 20.7455L17.1219 20.5033ZM11.5492 23.9744L10.58 23.4093L10.4185 24.6202L11.5492 23.9744ZM10.0147 23.5708L8.56095 24.378L9.77241 25.3466L10.0147 23.5708ZM12.5991 22.2792L11.1454 23.0864L12.2761 24.0551L12.5991 22.2792ZM7.51102 25.1045L6.05727 25.831L7.18797 26.5575L7.51102 25.1045ZM10.7416 25.9117L8.96477 26.8804L10.4993 28.0912L10.7416 25.9117ZM13.4875 23.4901L11.7107 24.4587L13.2452 25.5888L13.4875 23.4901ZM13.4875 23.8129L14.699 25.4274L15.6682 23.7322L13.4875 23.8129ZM18.5756 21.3106L20.5947 21.472L19.9486 19.6154L18.5756 21.3106ZM16.072 22.8443L16.6373 24.7816L18.0911 23.5708L16.072 22.8443ZM3.31131 27.1225L1.85757 28.0105L3.14978 28.9791L3.31131 27.1225ZM1.13069 28.3334L0 28.9791L0.969168 29.7863L1.13069 28.3334ZM5.08811 27.4454L3.87666 28.0912L4.92659 28.8984L5.08811 27.4454ZM8.15713 27.5261L6.94568 28.2526L7.9956 29.0599L8.15713 27.5261ZM2.09986 28.3334L1.61527 29.4635H2.82673L2.09986 28.3334Z" fill="#F9CFE1"/>
<path d="M10.9031 26.8804L10.4185 28.0105H11.63L10.9031 26.8804ZM14.2952 25.9924L13.8106 27.1225L14.9413 27.2033L14.2952 25.9924ZM14.699 21.1491L15.7489 21.7142L15.9105 20.5841L14.699 21.1491ZM20.7563 21.7142L21.1601 23.0864L22.1293 22.2792L20.7563 21.7142ZM15.1836 25.0238L15.5874 26.3153L16.6374 25.5081L15.1836 25.0238ZM9.69167 27.3647L9.04557 28.5755L10.3378 28.8177L9.69167 27.3647ZM8.39946 25.831L6.62266 26.7997L8.15717 28.0105L8.39946 25.831ZM10.5801 29.7056L11.2262 29.7863L10.9839 29.0599L10.5801 29.7056ZM10.0955 25.5888L10.1763 26.0732L10.6608 25.7503L10.0955 25.5888ZM14.7798 27.849L14.2952 28.0912L14.699 28.4948L14.7798 27.849ZM25.6829 22.5214L25.8444 22.0371H25.2791L25.6829 22.5214ZM27.4597 22.925L27.8635 22.1178H26.8136L27.4597 22.925Z" fill="#F9CFE1"/>
<path d="M24.5522 23.5708L24.7137 23.1672H24.1484L24.5522 23.5708ZM25.3599 22.4407L25.5214 21.9564H25.0368L25.3599 22.4407ZM19.9487 25.4274L20.9986 25.5888L20.5948 24.378L19.9487 25.4274ZM16.7181 26.5575L17.7681 26.6382L17.3642 25.5081L16.7181 26.5575Z" fill="#F9CFE1"/>
<path d="M21.4832 25.4274V25.831L21.887 25.5888L21.4832 25.4274ZM28.7519 24.5394L29.075 23.8129H28.2673L28.7519 24.5394ZM24.2291 23.7322L24.7945 23.8129L24.5522 23.1672L24.2291 23.7322ZM28.1866 19.3732L28.2673 20.019L28.8327 19.6961L28.1866 19.3732ZM42.2394 10.1709L42.4817 11.0589L43.2894 10.3324L42.2394 10.1709ZM40.0588 8.9601L40.3011 9.84805L41.028 9.12155L40.0588 8.9601ZM41.9971 12.1083L43.0471 12.189L42.6433 11.0589L41.9971 12.1083ZM37.959 10.3324L39.0089 10.4131L38.6051 9.28298L37.959 10.3324ZM35.536 11.1396L36.6667 11.2203L36.2629 10.0902L35.536 11.1396ZM40.1396 8.71794L41.2703 8.87937L40.8665 7.66854L40.1396 8.71794ZM41.1895 9.76732L42.2394 9.92877L41.8356 8.71794L41.1895 9.76732ZM39.4127 10.5745L40.4626 10.6553L40.0588 9.52516L39.4127 10.5745ZM42.4817 8.71794L43.5317 8.79865L43.1278 7.66854L42.4817 8.71794ZM32.7093 15.4986L33.84 15.5793L33.4362 14.4492L32.7093 15.4986ZM36.3437 14.207L36.1014 13.1577L35.1322 13.8841L36.3437 14.207ZM34.5669 14.4492L34.3246 13.3998L33.3554 14.1263L34.5669 14.4492ZM38.6858 12.5926L38.9281 13.4805L39.655 12.754L38.6858 12.5926ZM43.4509 10.1709L43.6932 10.9782L44.5008 10.3324L43.4509 10.1709ZM37.5551 12.8347L37.7974 13.3998L38.282 12.9962L37.5551 12.8347ZM41.1895 10.8167L40.7857 11.0589L41.2703 11.4625L41.1895 10.8167ZM40.7857 16.0636L40.4626 15.66L40.2203 16.2251L40.7857 16.0636ZM43.0471 17.2745L43.6124 17.113L43.2086 16.548L43.0471 17.2745ZM41.028 13.642L41.2703 14.1263L41.6741 13.642H41.028ZM46.1968 14.0456L45.8738 14.3685L46.4391 14.6106L46.1968 14.0456ZM37.2321 22.6021L37.8782 22.4407L37.3936 21.8756L37.2321 22.6021ZM35.213 18.9696L35.536 19.454L35.8591 18.9696H35.213ZM40.4626 19.3732L40.0588 19.6961L40.6242 19.9383L40.4626 19.3732ZM34.0015 16.6287L34.5669 17.5974L35.2938 16.548L34.0015 16.6287Z" fill="#F9CFE1"/>
<path d="M37.3128 17.2745L36.909 17.5974L37.4743 17.8395L37.3128 17.2745ZM34.4861 17.0323L34.7284 16.3865L34.0015 16.4672L34.4861 17.0323ZM30.3671 16.548L30.9325 16.6287L30.6902 16.0636L30.3671 16.548ZM33.6784 12.5119L33.7592 13.0769L34.2438 12.7541L33.6784 12.5119ZM33.4362 18.0817L34.2438 17.7588L33.5169 17.113L33.4362 18.0817ZM30.2056 13.642L30.6094 14.1263L31.0133 13.4805L30.2056 13.642ZM37.1513 13.2384L36.7475 13.8034L37.5551 13.9649L37.1513 13.2384ZM31.6593 18.566L31.9016 17.8395L31.094 17.9202L31.6593 18.566Z" fill="#F9CFE1"/>
<path d="M26.5712 18.001L27.2173 18.0817L27.0558 17.3552L26.5712 18.001ZM30.6901 12.9962L30.7709 13.642L31.417 13.2384L30.6901 12.9962ZM39.0896 14.9335L39.3318 14.3685L38.605 14.4492L39.0896 14.9335ZM34.9706 14.5299H35.5359L35.3744 13.9649L34.9706 14.5299ZM38.2819 10.4938L38.3627 10.9782L38.928 10.6553L38.2819 10.4938ZM36.3436 10.6553L36.6666 11.4625L37.3935 10.8167L36.3436 10.6553ZM36.1013 12.0276L37.1512 13.0769L37.7166 11.5432L36.1013 12.0276ZM38.2012 11.8661L39.5741 11.9468L39.0896 10.4938L38.2012 11.8661ZM31.417 14.8528L32.8707 14.9335L32.3054 13.3998L31.417 14.8528ZM34.8898 12.4312L35.1321 13.3191L35.9398 12.6733L34.8898 12.4312ZM34.0822 11.6239L34.3245 12.5119L35.0514 11.7854L34.0822 11.6239ZM43.2893 13.7227L43.8546 13.5613L43.37 12.9962L43.2893 13.7227ZM44.0161 12.2697V11.7047L43.5316 12.0276L44.0161 12.2697ZM43.5316 14.8528L43.7738 15.3372L44.1777 14.8528H43.5316ZM33.7592 12.7541L34.2437 12.5119L33.7592 12.189V12.7541ZM39.3318 12.2697L39.7357 12.6733L39.9779 12.189L39.3318 12.2697Z" fill="#F9CFE1"/>
<path d="M31.417 13.5613L32.467 13.642L32.0631 12.5119L31.417 13.5613ZM33.4361 11.301L31.5786 12.189L33.2746 12.9155L33.4361 11.301ZM35.6975 10.0902L33.6784 11.2203L35.7783 12.0275L35.6975 10.0902ZM37.7974 9.04085L36.0206 9.92879L37.7166 11.3818L37.7974 9.04085ZM39.8165 7.91074L38.0397 8.96012L39.8972 10.3324L39.8165 7.91074ZM42.0778 6.69992L40.301 7.74929L42.1586 9.04085L42.0778 6.69992ZM36.909 16.2251L37.0705 15.7407L36.5051 15.8215L36.909 16.2251ZM38.6858 16.7094L39.0896 15.9022H38.0397L38.6858 16.7094Z" fill="#F9CFE1"/>
<path d="M35.7782 17.3552L35.9398 16.8709H35.3744L35.7782 17.3552ZM36.6666 16.1444L36.8282 15.66L36.2628 15.7408L36.6666 16.1444Z" fill="#F9CFE1"/>
<path d="M39.978 18.2431L40.3011 17.5974H39.4934L39.978 18.2431ZM35.4552 17.4359L36.0206 17.5166L35.8591 16.8709L35.4552 17.4359ZM39.4126 13.1577L39.4934 13.7227L40.0588 13.3998L39.4126 13.1577ZM46.5198 8.1529L46.8429 8.96012L47.5698 8.23363L46.5198 8.1529ZM44.3392 6.94207L44.6623 7.83002L45.3891 7.10353L44.3392 6.94207ZM47.6505 5.48909L48.1351 5.24691L47.6505 4.8433V5.48909ZM46.3583 10.0902L47.489 10.1709L47.0044 8.96012L46.3583 10.0902ZM44.5008 6.69992L45.5507 6.86135L45.1469 5.65052L44.5008 6.69992ZM45.4699 7.74929L46.6006 7.83002L46.1968 6.69992L45.4699 7.74929ZM43.3701 8.55651L44.5008 8.63724L44.0969 7.50714L43.3701 8.55651ZM47.9736 6.29631H49.0235L48.6197 5.24691L47.9736 6.29631ZM46.7621 6.61919L47.8121 6.69992L47.4082 5.56979L46.7621 6.61919ZM47.7313 8.07217L48.0544 8.96012L48.7812 8.23363L47.7313 8.07217ZM41.5933 10.8167L41.8356 11.4625L42.3201 10.9782L41.5933 10.8167ZM45.2276 8.79867L44.7431 9.04085L45.2276 9.44446V8.79867ZM44.9046 13.9649L44.5008 13.642L44.3392 14.207L44.9046 13.9649Z" fill="#F9CFE1"/>
<path d="M45.0661 11.6239L45.3084 12.0275L45.7122 11.6239H45.0661ZM47.6505 11.6239L48.2966 11.4625L47.7313 10.8974L47.6505 11.6239ZM48.3774 10.1709V9.60588L47.8928 9.92878L48.3774 10.1709ZM47.6505 12.7541L47.8928 13.2384L48.2158 12.7541H47.6505ZM44.2584 5.73123L42.4009 6.69991L44.1777 8.07216L44.2584 5.73123ZM46.2775 4.60113L44.5815 5.56978L46.3583 7.02279L46.2775 4.60113ZM51.1233 2.82524L52.254 2.90596L51.7694 1.69513L51.1233 2.82524ZM48.6197 7.18422L49.7504 7.26495L49.3465 6.13484L48.6197 7.18422Z" fill="#F9CFE1"/>
<path d="M52.0118 5.81197L51.7695 4.76258L50.8003 5.56979L52.0118 5.81197ZM50.4773 6.05413L50.1542 5.00476L49.185 5.73125L50.4773 6.05413ZM49.9119 8.23363L50.4773 9.283L51.2849 8.23363H49.9119ZM47.2467 10.1709L47.5698 9.44445L46.6814 9.60588L47.2467 10.1709ZM42.2394 9.76733H42.8047L42.6432 9.12157L42.2394 9.76733ZM46.1968 4.68188L46.3583 5.32764L46.9237 4.92403L46.1968 4.68188ZM8.31864 24.5394L7.511 25.0237L8.3994 25.5888L8.31864 24.5394ZM50.8003 6.37701L51.7695 7.34568L52.3348 5.8927L50.8003 6.37701ZM53.4655 2.09877L53.5463 3.06744L54.5154 2.58311L53.4655 2.09877ZM51.608 3.39032L52.6579 4.35897L53.2232 2.82526L51.608 3.39032ZM53.627 0.645789L54.677 1.61443L55 0L53.627 0.645789ZM47.3275 6.53847H48.7005L48.1351 5.08548L47.3275 6.53847ZM50.4773 4.11681L50.8003 5.00476L51.5272 4.27827L50.4773 4.11681ZM49.6696 3.22887L49.9927 4.11681L50.7196 3.39032L49.6696 3.22887Z" fill="#F9CFE1"/>
<path d="M49.6696 4.43969L50.0734 4.19754L49.6696 3.79393V4.43969ZM47.2467 5.2469L48.2966 5.32763L47.9736 4.19754L47.2467 5.2469Z" fill="#F9CFE1"/>
<path d="M49.1043 3.14813L47.3275 4.1168L49.0235 5.48908L49.1043 3.14813ZM51.5272 1.9373L49.6697 2.82525L51.4465 4.27825L51.5272 1.9373ZM53.3848 0.726477L52.0926 1.45299L53.3848 2.42164V0.726477ZM53.2233 5.16617L53.5463 4.35896H52.5772L53.2233 5.16617Z" fill="#F9CFE1"/>
</svg>
