<svg width="29" height="18" viewBox="0 0 29 18" fill="none" xmlns="http://www.w3.org/2000/svg">
<path d="M18.3139 2.47181L19.2645 2.15491V3.29575L18.3139 2.47181Z" fill="#724539"/>
<path d="M19.1377 2.15492L20.1516 2.09154L19.8348 2.97886L19.1377 2.15492ZM17.4901 4.24647L17.6168 4.56337H17.2366L17.4901 4.24647ZM21.3557 7.79575L21.6092 7.98589L21.3557 8.17603V7.79575ZM21.419 6.14787L21.0388 6.59153L20.7853 5.95773L21.419 6.14787ZM17.5534 3.10562L18.3139 2.47182L18.6308 3.54929L17.5534 3.10562ZM17.4901 3.99294L17.1099 3.61266L17.4901 3.10562V3.99294ZM18.3139 4.69013L17.8703 4.30984L18.4406 4.11971L18.3139 4.69013ZM16.9831 4.11971H17.3L17.1099 4.49999L16.9831 4.11971ZM16.4128 4.81689L16.4761 4.49999L16.793 4.69013L16.4128 4.81689ZM18.8842 6.33801L18.9476 5.95773L19.2645 6.21125L18.8842 6.33801ZM17.5534 5.19717L17.8069 5.07041V5.45069L17.5534 5.19717ZM26.9957 8.93659H25.855L26.8055 8.17603L26.9957 8.93659ZM20.7853 7.92251L21.0388 8.17603L20.6586 8.30279L20.7853 7.92251ZM19.6447 3.42253L20.3418 3.99294L19.4546 4.43661L19.6447 3.42253ZM21.1656 7.16195L21.419 6.90843L21.5458 7.28871L21.1656 7.16195ZM18.5674 5.32393L18.9476 5.00703L19.0743 5.57745L18.5674 5.32393Z" fill="#724539"/>
<path d="M22.1162 8.61969L22.4964 8.30279L22.6231 8.80983L22.1162 8.61969ZM25.4748 7.60561L25.158 8.36617L24.5243 7.66899L25.4748 7.60561ZM19.7081 3.29576L19.3913 3.99294L18.8843 3.42252L19.7081 3.29576ZM18.4407 2.91548L18.314 3.35914L17.9337 2.97886L18.4407 2.91548ZM18.1872 3.86618L17.9971 4.24646L17.6803 3.86618H18.1872ZM28.3899 13.3098L28.7701 14.1972H27.5027L28.3899 13.3098ZM28.073 15.2112L27.8829 16.4788L26.9957 15.5281L28.073 15.2112ZM25.9184 14.9577L25.7283 15.338L25.4114 15.0211L25.9184 14.9577Z" fill="#724539"/>
<path d="M28.1363 16.4788L27.9462 16.8591L27.6294 16.5422L28.1363 16.4788ZM28.5799 15.0845L28.3898 15.4648L28.0729 15.1479L28.5799 15.0845ZM26.9956 14.9577V15.7183L26.0451 15.338L26.9956 14.9577ZM22.2429 6.52815L21.9894 7.09857L21.5458 6.52815H22.2429ZM24.144 8.42955L24.3975 8.17603L24.5242 8.55631L24.144 8.42955ZM24.0806 9.06336L24.7143 8.49294L24.7777 9.31688L24.0806 9.06336ZM23.8271 10.0141L24.2074 9.69716L24.2707 10.2042L23.8271 10.0141ZM20.7854 5.57745L20.0883 5.51407L20.4685 4.81689L20.7854 5.57745ZM20.4051 7.22533L20.2784 7.54223L20.0249 7.28871L20.4051 7.22533ZM25.6649 13.2464L25.6015 13.5634L25.2847 13.3732L25.6649 13.2464ZM23.7004 13.5634L23.637 13.8803L23.3202 13.6267L23.7004 13.5634ZM26.4253 12.676L26.2986 12.9929L25.9817 12.7394L26.4253 12.676ZM24.3341 14.3239L24.7143 14.3873L24.4608 14.7042L24.3341 14.3239ZM25.0312 15.845L25.348 15.9084L25.1579 16.2253L25.0312 15.845ZM23.0033 12.169L23.3835 12.2324L23.1301 12.6126L23.0033 12.169ZM23.8271 11.0281L24.144 11.0915L23.8905 11.4084L23.8271 11.0281ZM25.348 13.8803L25.7282 13.9436L25.4748 14.2605L25.348 13.8803ZM25.9817 14.3239L26.2986 14.3873L26.0451 14.7676L25.9817 14.3239ZM28.8334 14.2605L28.8968 15.1479L27.6927 14.831L28.8334 14.2605ZM26.0451 16.0352L25.9184 16.3521L25.6649 16.0986L26.0451 16.0352ZM26.2352 16.1619L26.6154 16.5422L26.0451 16.7957L26.2352 16.1619ZM25.7282 17.4929V17.9366L25.2213 17.8098L25.7282 17.4929ZM19.011 3.86618L18.8209 4.30984L18.3139 3.92956L19.011 3.86618ZM21.1022 4.81689L20.1517 4.7535L20.6586 3.86618L21.1022 4.81689Z" fill="#724539"/>
<path d="M20.7854 3.73943L20.025 3.67605L20.4052 2.85211L20.7854 3.73943ZM18.3774 3.23239L18.8843 3.54929L18.314 3.92957L18.3774 3.23239ZM25.9818 15.1479L25.7283 15.0845L25.9184 14.831L25.9818 15.1479ZM26.869 13.1831L26.5521 13.8803L25.9818 13.2465L26.869 13.1831ZM26.1085 11.9789L25.7917 12.676L25.2847 11.9155L26.1085 11.9789ZM23.9539 11.662L24.0807 11.8521L23.8272 11.9155L23.9539 11.662ZM21.9895 7.98591L22.1162 8.17605L21.8627 8.23943L21.9895 7.98591ZM23.0668 7.60563L22.94 7.79577L22.8133 7.54225L23.0668 7.60563Z" fill="#724539"/>
<path d="M23.2569 8.99999L23.3836 9.12675L23.1301 9.25351L23.2569 8.99999ZM24.3975 15.7183L24.5243 15.9084L24.2708 15.9718L24.3975 15.7183ZM25.4748 14.3873L25.6016 14.5774L25.3481 14.7042L25.4748 14.3873ZM25.0946 16.9859L25.2214 17.176L24.9679 17.2394L25.0946 16.9859ZM24.3342 16.669L24.4609 16.8591L24.2074 16.9859L24.3342 16.669ZM24.7778 13.1197L24.5877 13.3098L24.4609 12.9929L24.7778 13.1197ZM26.0452 14.1972L25.7283 13.6267L26.4254 13.5L26.0452 14.1972ZM22.8133 10.7113L22.94 10.9014H22.6865L22.8133 10.7113ZM23.8272 10.4577L23.954 10.6479H23.7005L23.8272 10.4577ZM22.94 9.82393L23.0668 10.0775H22.8133L22.94 9.82393ZM24.5877 11.5352L24.7144 11.7887H24.4609L24.5877 11.5352ZM18.5675 4.30986L18.9477 4.1831L18.8843 4.69014L18.5675 4.30986ZM20.0884 6.0845L19.6448 6.21126L19.7081 5.70422L20.0884 6.0845ZM24.1441 6.33802L23.954 7.09858L23.447 6.4014L24.1441 6.33802ZM27.3126 12.5493L26.9957 12.8662L26.869 12.4225L27.3126 12.5493ZM28.0097 15.0845L27.3759 15.338L27.4393 14.5774L28.0097 15.0845ZM28.2631 13.2465L27.6294 13.5L27.6928 12.676L28.2631 13.2465ZM21.4825 4.11972V4.43662L21.1023 4.30986L21.4825 4.11972ZM21.9895 4.1831V4.56338L21.6093 4.43662L21.9895 4.1831ZM20.4052 5.57746L20.9756 5.70422L20.532 6.27464L20.4052 5.57746Z" fill="#724539"/>
<path d="M19.708 4.43661L20.0883 4.56337L19.8348 4.88027L19.708 4.43661ZM21.6091 3.86619L21.4824 3.16901L22.2428 3.42253L21.6091 3.86619ZM21.1656 4.69013L21.7993 4.43661V5.19717L21.1656 4.69013ZM21.7993 4.11971L22.3062 3.54929L22.6231 4.37323L21.7993 4.11971Z" fill="#724539"/>
<path d="M21.9893 5.07042L21.926 4.37324L22.6231 4.69014L21.9893 5.07042ZM20.1516 3.5493L19.7714 3.42254L20.0249 3.04226L20.1516 3.5493ZM20.7853 3.61268L21.419 3.67606L21.1022 4.30986L20.7853 3.61268ZM21.8626 2.97888L21.6091 3.42254L21.2923 2.97888H21.8626Z" fill="#724539"/>
<path d="M19.4546 2.66198L20.0883 3.29578L19.1378 3.73944L19.4546 2.66198ZM26.5521 15.5281L26.362 16.0986L25.9184 15.5915L26.5521 15.5281ZM27.3125 12.4859L27.566 12.676L27.3125 12.8028V12.4859ZM26.6788 16.7324L26.9323 16.9225L26.6155 17.0493L26.6788 16.7324ZM26.4254 16.2253L26.6788 15.9718L26.7422 16.3521L26.4254 16.2253ZM27.6928 14.1972L26.869 14.1338L27.3759 13.3098L27.6928 14.1972ZM26.2986 10.9014L25.9184 11.3451L25.6649 10.7113L26.2986 10.9014ZM27.8829 14.1972L27.7561 15.0211L26.9957 14.4507L27.8829 14.1972Z" fill="#724539"/>
<path d="M27.1858 13.8803L26.9957 14.7676L26.2352 14.0704L27.1858 13.8803ZM26.1718 10.2676H26.7422L26.362 10.838L26.1718 10.2676ZM26.1718 12.0422L26.9323 12.2324L26.5521 12.676L26.1718 12.0422ZM25.7283 8.42957L26.362 9.12675L25.7916 9.50703L25.7283 8.42957ZM28.5799 16.6056L27.7561 15.845L28.8968 15.338L28.5799 16.6056ZM28.3264 16.9859L27.6294 17.6831L27.2491 16.6056L28.3264 16.9859ZM26.2986 14.5774L26.6788 14.8943L26.1718 15.1479L26.2986 14.5774ZM27.6294 16.1619L26.8055 16.6056V15.845L27.6294 16.1619Z" fill="#724539"/>
<path d="M25.7916 16.9225L25.6015 17.176L25.4114 16.9225H25.7916ZM26.1718 16.8591L26.3619 17.0493L26.1084 17.176L26.1718 16.8591ZM23.3835 7.669L23.5736 8.11265L23.0667 8.17604L23.3835 7.669ZM22.1161 7.09857L22.3062 7.47885L21.7992 7.54223L22.1161 7.09857ZM23.1934 6.97181V7.41547L22.7498 7.16195L23.1934 6.97181ZM24.5875 6.90843L24.841 7.28871L24.3341 7.35209L24.5875 6.90843ZM25.6648 7.54223L26.1718 8.42956L25.348 8.49294L25.6648 7.54223ZM23.4469 6.40139L23.637 6.71829L23.2568 6.78167L23.4469 6.40139Z" fill="#724539"/>
<path d="M24.2707 7.79575L24.9044 7.85914L24.5876 8.55632L24.2707 7.79575ZM23.8905 7.09857L23.4469 7.28871V6.71829L23.8905 7.09857ZM27.5026 13.2464L26.7421 13.6267V12.676L27.5026 13.2464ZM26.0451 10.2042L25.4114 10.4577L25.4747 9.76054L26.0451 10.2042Z" fill="#724539"/>
<path d="M20.5952 6.78169L20.3418 6.90845V6.59155L20.5952 6.78169ZM21.926 6.52817L21.6725 6.59155V6.33803L21.926 6.52817ZM22.1161 6.14789L21.7359 6.33803L21.6725 5.83099L22.1161 6.14789ZM25.855 9.50703L25.4114 10.0141L25.2213 9.19013L25.855 9.50703ZM24.2073 6.90845L24.4608 7.41549L23.8271 7.47887L24.2073 6.90845ZM25.0312 7.54225V7.03521L25.6015 7.28873L25.0312 7.54225Z" fill="#724539"/>
<path d="M24.9678 7.09857L25.0312 6.40139L25.7916 6.78167L24.9678 7.09857ZM23.5103 7.35209L23.8271 7.28871L23.7004 7.60561L23.5103 7.35209ZM24.144 7.35209L24.3341 7.79575H23.7004L24.144 7.35209ZM24.9044 8.49294L25.5381 8.36618L25.4748 9.12674L24.9044 8.49294ZM26.1085 17.6831L25.9817 17.3662H26.362L26.1085 17.6831ZM26.8689 17.6197L26.6154 16.9859L27.4393 17.0493L26.8689 17.6197Z" fill="#724539"/>
<path d="M26.6788 17.9366L26.1084 18L26.3619 17.3662L26.6788 17.9366ZM27.2491 17.8098L26.7422 18V17.3662L27.2491 17.8098ZM26.8055 10.1408L25.9183 10.2676L25.9817 9.50704L26.8055 10.1408ZM26.4253 7.41549L26.7422 8.11268H25.855L26.4253 7.41549Z" fill="#724539"/>
<path d="M26.1719 9.12674L26.4887 9.95068L25.7283 9.82392L26.1719 9.12674Z" fill="#724539"/>
<path d="M26.9957 9.31688L26.8689 10.0141L26.2986 9.5704L26.9957 9.31688ZM24.2074 9.31688L24.7143 9.44364L24.3975 9.8873L24.2074 9.31688ZM19.1377 4.37323L19.7081 4.43661L19.2645 5.00703L19.1377 4.37323ZM20.215 4.30985H19.8348L20.0249 3.99295L20.215 4.30985ZM20.9755 2.28168L20.5319 2.8521L20.1517 2.09154L20.9755 2.28168ZM20.1517 4.75351L19.9615 5.38731L19.4546 4.88027L20.1517 4.75351ZM21.7359 2.8521L21.0388 3.23239V2.34506L21.7359 2.8521ZM22.433 5.89435L21.7993 5.38731L22.5597 5.00703L22.433 5.89435Z" fill="#724539"/>
<path d="M19.3278 5.26055L19.708 5.32393L19.4546 5.70421L19.3278 5.26055ZM19.7714 6.71829L20.0883 6.78167L19.8348 7.09857L19.7714 6.71829ZM24.9044 9.69716L25.2212 9.76054L24.9678 10.0141L24.9044 9.69716ZM25.0945 6.46477L24.5875 6.97181L24.2707 6.27463L25.0945 6.46477ZM21.2923 3.169L20.3417 3.48591L20.5319 2.40844L21.2923 3.169ZM26.3619 7.41547L25.4747 7.73237L25.7916 6.78167L26.3619 7.41547ZM23.13 8.80984L22.8132 8.9366V8.49294L23.13 8.80984ZM22.6864 8.04927L22.3062 8.11265L22.3696 7.73237L22.6864 8.04927ZM21.926 5.95773L21.5458 6.27463L21.3557 5.76759L21.926 5.95773ZM21.5458 5.07041L21.6091 5.51407L21.1022 5.38731L21.5458 5.07041ZM22.3062 5.19717L21.9894 5.51407L21.7993 5.00703L22.3062 5.19717ZM22.433 5.95773L22.3062 6.46477L21.8626 6.08449L22.433 5.95773ZM22.7498 6.71829L23.1934 6.46477L22.9399 6.97181L22.7498 6.71829ZM22.1161 7.03519L22.6231 6.71829L22.433 7.35209L22.1161 7.03519ZM21.1022 6.52815L21.419 6.59153L21.2289 6.84505L21.1022 6.52815ZM23.637 9.95068L23.3201 10.0774L23.3835 9.69716L23.637 9.95068Z" fill="#724539"/>
<path d="M23.954 8.0493V8.55634L23.447 8.3662L23.954 8.0493ZM24.7778 9.3169L25.0946 8.6831L25.4115 9.44366L24.7778 9.3169ZM24.651 10.5845L24.4609 10.9648L24.2074 10.5845H24.651ZM25.0313 9.50704L25.2214 9.88732L24.7144 9.9507L25.0313 9.50704Z" fill="#724539"/>
<path d="M25.2213 9.63378L24.9678 9.76054V9.38026L25.2213 9.63378ZM25.2847 10.0141L25.6015 10.7112L24.7777 10.5845L25.2847 10.0141ZM25.7916 11.4718L25.4114 11.5986L25.4748 11.2183L25.7916 11.4718ZM24.0173 9.12674L23.5103 9.31688L23.5737 8.74646L24.0173 9.12674ZM24.9678 12.8662L24.5876 12.9929L24.651 12.6126L24.9678 12.8662ZM25.7916 12.8028L25.4114 12.9296L25.4748 12.4859L25.7916 12.8028ZM25.4114 12.2324L25.0312 12.3591L25.0946 11.9788L25.4114 12.2324ZM24.7777 10.1408V10.4577L24.5242 10.331L24.7777 10.1408ZM4.43584 5.00703L3.80214 6.08449L3.54866 4.81689L4.43584 5.00703ZM2.34462 5.76759L2.91496 6.40139L2.02777 6.65491L2.34462 5.76759ZM2.53474 7.28871L2.47137 6.90843L2.85159 7.03519L2.53474 7.28871ZM3.42193 7.60561L3.23181 7.03519L3.73878 7.28871L3.42193 7.60561ZM1.33069 7.92251L1.39407 8.11265H1.14059L1.33069 7.92251ZM2.66147 8.36618L2.91496 8.3028L2.85159 8.55632L2.66147 8.36618ZM4.3091 8.42955H4.56258L4.43584 8.68308L4.3091 8.42955ZM3.35855 8.99998H3.61203L3.48529 9.2535L3.35855 8.99998Z" fill="#724539"/>
<path d="M0.570235 6.40139L1.20394 6.90843L0.380112 7.03519L0.570235 6.40139ZM5.19627 6.08449L5.38638 5.51407L5.82997 6.14787L5.19627 6.08449ZM1.52079 7.66899H1.96438L1.77427 8.17603L1.52079 7.66899ZM0.760338 7.54223L1.14056 7.73237L0.696964 8.04927L0.760338 7.54223ZM1.33067 6.21125H1.77427L1.64753 6.65491L1.33067 6.21125ZM2.40797 5.51407L3.48527 5.45069L3.16842 6.27463L2.40797 5.51407ZM0.0632601 7.35209L0.506861 7.28871L0.380112 7.66899L0.0632601 7.35209ZM2.02775 6.90843L2.3446 6.33801L2.85156 6.97181L2.02775 6.90843Z" fill="#724539"/>
<path d="M5.0061 6.52817L4.94272 7.22535L4.30902 6.84507L5.0061 6.52817ZM1.14048 6.59155H1.77419L1.52071 7.16197L1.14048 6.59155ZM2.15442 6.14789L1.64745 5.89437L2.15442 5.51409V6.14789Z" fill="#724539"/>
<path d="M1.77429 6.14788L1.14059 5.7676L1.83767 5.26056L1.77429 6.14788ZM1.20397 7.41548L1.33069 7.09858L1.58418 7.3521L1.20397 7.41548ZM1.58418 6.84506H2.09114L1.77429 7.41548L1.58418 6.84506ZM2.91496 6.65492L3.16844 6.02112L3.80214 6.4014L2.91496 6.65492ZM5.32303 5.64084L5.06954 6.46478L4.43584 6.0845L5.32303 5.64084ZM2.66147 4.8169L3.42192 4.75352L3.0417 5.64084L2.66147 4.8169Z" fill="#724539"/>
<path d="M4.11901 5.76759L5.06956 5.83097L4.62597 6.46477L4.11901 5.76759Z" fill="#724539"/>
<path d="M4.68936 5.13379L5.25969 5.51407L4.62599 5.89435L4.68936 5.13379ZM2.78826 6.97182L3.10511 6.59154L3.42196 7.09858L2.78826 6.97182ZM4.05566 7.16196L4.24576 6.90844L4.43588 7.22534L4.05566 7.16196ZM1.07725 5.70421L1.3941 6.33802H0.570297L1.07725 5.70421ZM2.66151 4.94365L2.53477 5.89435L1.77433 5.19717L2.66151 4.94365ZM2.4714 8.36618L2.40803 8.74646L2.02781 8.55632L2.4714 8.36618ZM-3.0806e-05 8.23942V7.73238L0.380175 8.17604L-3.0806e-05 8.23942ZM3.80217 8.42956L3.73881 8.74646L3.42196 8.55632L3.80217 8.42956Z" fill="#724539"/>
<path d="M2.28121 7.22535L2.78818 7.41549L2.34458 7.79577L2.28121 7.22535ZM3.86548 6.59155L3.48525 6.02112L4.37245 6.0845L3.86548 6.59155ZM3.99222 6.97183H4.43582L4.2457 7.41549L3.99222 6.97183Z" fill="#724539"/>
<path d="M4.18237 6.84507V7.0986L3.86552 6.97184L4.18237 6.84507ZM3.16845 7.7324L3.10508 8.23944L2.59812 7.92254L3.16845 7.7324ZM4.43585 7.4155L4.75271 7.54226L4.49923 7.79578L4.43585 7.4155ZM20.8488 5.13381L21.5459 5.00705L21.2924 5.83099L20.8488 5.13381ZM20.8488 7.35212L21.1657 7.4155L20.9755 7.66902L20.8488 7.35212ZM24.9045 11.0282L25.2214 11.0915L25.0312 11.3451L24.9045 11.0282ZM9.12527 1.14086L8.55493 2.21832L8.23808 1.0141L9.12527 1.14086ZM7.16078 2.09156L7.73111 2.66199L6.9073 2.97889L7.16078 2.09156ZM7.41426 3.61269L7.28752 3.23241L7.73111 3.29579L7.41426 3.61269Z" fill="#724539"/>
<path d="M7.85778 3.92959L7.60429 3.10565L8.36473 3.42255L7.85778 3.92959ZM8.87169 4.50001L8.74496 3.99297L9.25192 4.18311L8.87169 4.50001ZM10.5193 4.94367L10.7728 4.88029L10.7094 5.13381L10.5193 4.94367ZM12.4204 6.33803L12.6739 6.27465L12.6105 6.52817L12.4204 6.33803ZM6.21014 5.45071L6.40026 5.38733V5.70423L6.21014 5.45071ZM6.27352 4.30987L6.33688 4.50001H6.08341L6.27352 4.30987ZM7.66766 4.62677L7.85778 4.56339V4.81691L7.66766 4.62677ZM9.12518 5.70423H9.37866L9.31528 5.89437L9.12518 5.70423ZM10.2025 5.95775H10.3926L10.3292 6.21127L10.2025 5.95775ZM9.31528 4.62677H9.56877L9.44203 4.88029L9.31528 4.62677ZM8.36473 5.26057H8.61822L8.49148 5.45071L8.36473 5.26057ZM19.3278 7.7324L19.5813 7.85916L19.3912 8.0493L19.3278 7.7324ZM17.2366 5.76761L17.4267 5.89437L17.2366 6.08451V5.76761ZM17.2999 8.30282L17.4901 8.42958L17.2999 8.55634V8.30282ZM18.5674 6.78169L18.7575 6.90845L18.504 7.03522L18.5674 6.78169ZM17.4267 6.71832L17.6168 6.84507L17.4267 6.97183V6.71832ZM20.7853 10.5211L20.9754 10.6479L20.8487 10.838L20.7853 10.5211ZM19.708 9.88732L19.8981 10.0141L19.708 10.1408V9.88732ZM20.4685 9.12676L20.6586 9.25352L20.4685 9.38028V9.12676ZM19.3278 9.06338L19.5179 9.19014L19.3278 9.3169V9.06338ZM15.589 4.69015L15.4622 5.07043L15.2087 4.75353L15.589 4.69015ZM15.7791 4.24649L15.5256 4.37325V4.11973L15.7791 4.24649ZM15.0186 4.24649H15.2721L15.082 4.56339L15.0186 4.24649ZM14.575 5.26057L14.7651 5.32395L14.575 5.51409V5.26057ZM12.9908 5.00705L13.1809 5.13381L12.9908 5.26057V5.00705ZM13.7512 4.24649L13.9413 4.37325L13.7512 4.50001V4.24649ZM12.6105 4.24649L12.8007 4.37325L12.6105 4.50001V4.24649ZM11.0897 3.80283H11.3431L11.2798 3.99297L11.0897 3.80283ZM5.32296 2.78875L6.02003 3.29579L5.19622 3.48593L5.32296 2.78875ZM10.8362 2.59861L11.0897 3.10565H10.3926L10.8362 2.59861ZM10.0757 2.47185L10.3292 1.90142L10.7728 2.47185H10.0757ZM8.17463 2.02818L9.12518 1.6479L9.25192 2.34509L8.17463 2.02818Z" fill="#724539"/>
<path d="M6.46361 4.05634H6.90721L6.78046 4.5L6.46361 4.05634ZM8.49147 4.8169L8.99843 4.75352L8.80833 5.19718L8.49147 4.8169ZM5.32295 5.1338H5.76654L5.6398 5.64084L5.32295 5.1338ZM5.6398 3.92958L6.08339 4.11972L5.6398 4.5V3.92958ZM6.14676 2.5986L6.59036 2.53521L6.46361 3.04225L6.14676 2.5986ZM7.22406 1.90141L8.23799 1.71127L7.98451 2.53521L7.22406 1.90141ZM5.1962 3.5493L5.6398 3.48592L5.51305 3.8662L5.1962 3.5493ZM6.90721 3.29578L7.16069 2.66197L7.73102 3.2324L6.90721 3.29578Z" fill="#724539"/>
<path d="M6.02013 3.35915L6.0835 3.8662L5.51316 3.61268L6.02013 3.35915ZM9.9491 2.53521V3.16901L9.25203 2.85211L9.9491 2.53521Z" fill="#724539"/>
<path d="M9.18864 2.47181L9.5055 2.97885L8.61832 2.91547L9.18864 2.47181ZM6.02014 2.97885L6.59047 2.91547L6.40036 3.54928L6.02014 2.97885ZM6.97069 2.47181L6.40036 2.28167L6.90732 1.83801L6.97069 2.47181Z" fill="#724539"/>
<path d="M6.527 2.34508L5.82993 2.02818L6.46363 1.52114L6.527 2.34508ZM6.14678 3.80282L6.21015 3.5493L6.46363 3.73944L6.14678 3.80282ZM6.40026 3.2324L6.97059 3.16902L6.71712 3.80282L6.40026 3.2324ZM7.92115 2.85212L8.11126 2.15494L8.80834 2.53522L7.92115 2.85212ZM10.1391 1.77466L9.949 2.66198L9.25193 2.2817L10.1391 1.77466ZM7.41418 1.14086L8.17464 1.0141L7.85779 1.83804L7.41418 1.14086Z" fill="#724539"/>
<path d="M8.93509 2.02817H9.88564L9.44205 2.66198L8.93509 2.02817Z" fill="#724539"/>
<path d="M9.44206 1.33098L10.0758 1.71126L9.37869 2.09154L9.44206 1.33098ZM8.36476 3.86619L8.68161 3.42253L8.99846 3.92957L8.36476 3.86619ZM8.99846 3.35914L9.12521 3.10563L9.31531 3.42253L8.99846 3.35914ZM5.89331 2.02816L6.21017 2.66196H5.38635L5.89331 2.02816ZM7.35084 1.14084L7.28746 2.09154L6.46364 1.45774L7.35084 1.14084ZM7.4142 4.69013V5.07041L7.03398 4.88027L7.4142 4.69013ZM6.27354 5.83097V6.21125L5.89331 6.02111L6.27354 5.83097ZM6.46364 4.81689V5.19717L6.08343 5.00703L6.46364 4.81689ZM5.44972 6.46478V6.78168L5.0695 6.59154L5.44972 6.46478ZM5.19623 4.24647V3.80281L5.57646 4.18309L5.19623 4.24647ZM5.32298 4.94365L5.19623 4.37323L5.76657 4.81689L5.32298 4.94365ZM8.49151 4.18309V4.56337L8.17465 4.37323L8.49151 4.18309ZM7.03398 3.67605L7.54095 3.86619L7.09735 4.24647L7.03398 3.67605ZM8.55487 3.35914L8.11128 2.78872H8.99846L8.55487 3.35914ZM9.75892 3.92957L10.0124 4.24647L9.63217 4.30985L9.75892 3.92957ZM10.7728 3.99295L11.0263 4.30985L10.5827 4.37323L10.7728 3.99295Z" fill="#724539"/>
<path d="M8.87174 3.16901H9.31536L9.18861 3.67606L8.87174 3.16901Z" fill="#724539"/>
<path d="M9.06181 3.04225V3.35915L8.74496 3.16901L9.06181 3.04225ZM9.44204 3.16901L10.2658 3.10563L9.82225 3.86619L9.44204 3.16901ZM11.0897 3.23239L11.0263 3.61267L10.6461 3.42253L11.0897 3.23239ZM8.11125 3.99295L8.04788 4.49999L7.54092 4.24647L8.11125 3.99295ZM9.37866 3.61267L9.69551 3.73943L9.44204 3.99295L9.37866 3.61267ZM10.2658 3.86619L10.456 3.61267L10.6461 3.92957L10.2658 3.86619ZM17.7436 6.27464L17.9337 6.0845L18.1238 6.33802L17.7436 6.27464ZM17.1098 5.00703L16.9831 4.69013H17.3633L17.1098 5.00703ZM16.0959 6.7183H16.286V6.97182L16.0959 6.7183ZM16.9197 6.65492L17.1098 6.59154L17.0465 6.84506L16.9197 6.65492ZM17.1098 5.57745H17.3L17.2366 5.83098L17.1098 5.57745ZM15.2721 7.0352H15.5256L15.3988 7.22534L15.2721 7.0352ZM16.2227 5.64084L16.1593 5.32393L16.5395 5.4507L16.2227 5.64084ZM15.4622 0.253522L14.8285 1.2676L14.6384 0L15.4622 0.253522ZM13.4344 0.950702L13.9413 1.5845L13.0541 1.77464L13.4344 0.950702ZM13.4977 2.47183L13.4344 2.09154L13.878 2.21831L13.4977 2.47183ZM14.0681 2.78873L13.878 1.96479L14.6384 2.34507L14.0681 2.78873ZM14.7651 3.54929L14.7018 2.97887L15.1454 3.23239L14.7651 3.54929ZM16.286 4.18309L16.5395 4.11971L16.4761 4.43661L16.286 4.18309ZM12.1036 4.18309L12.3571 4.11971L12.2937 4.37323L12.1036 4.18309ZM7.7944 6.7183L8.04788 6.84506L7.7944 6.97182V6.7183ZM8.87169 6.90844L9.06181 7.0352L8.87169 7.16196V6.90844ZM8.55484 5.95774L8.74496 6.0845L8.55484 6.21126V5.95774ZM7.47755 5.95774L7.66766 6.0845L7.47755 6.21126V5.95774ZM6.97058 5.89435L7.1607 5.83098V6.0845L6.97058 5.89435ZM7.66766 6.14788L7.85777 6.02112L7.98451 6.27464L7.66766 6.14788ZM6.78047 7.41548L6.97058 7.28872L7.03396 7.54224L6.78047 7.41548ZM5.89329 7.41548L6.14677 7.28872V7.54224L5.89329 7.41548ZM5.82991 6.90844L6.21014 6.7183L6.27351 7.16196L5.82991 6.90844ZM4.81599 7.3521L4.94273 7.73238H4.56251L4.81599 7.3521ZM6.0834 8.99998H6.33688L6.21014 9.19012L6.0834 8.99998ZM6.40025 7.9859H6.65373L6.52699 8.17604L6.40025 7.9859Z" fill="#724539"/>
<path d="M5.44974 8.42954L5.63985 8.49292L5.5131 8.68306L5.44974 8.42954ZM4.94277 8.61968L5.13289 8.49292L5.19625 8.74644L4.94277 8.61968ZM12.2937 2.97885L12.3571 3.23237H12.1036L12.2937 2.97885ZM13.6245 3.48589H13.8146L13.7512 3.73941L13.6245 3.48589ZM14.8919 4.69011L15.082 4.75349L15.0186 4.94363L14.8919 4.69011ZM15.1454 3.73941H15.3989L15.2721 3.92955L15.1454 3.73941ZM14.2582 4.24645H14.4483L14.3216 4.43659L14.2582 4.24645ZM16.5395 3.61265H16.7297L16.6029 3.80279L16.5395 3.61265ZM11.5967 1.45772L12.2304 2.02815L11.4065 2.09153L11.5967 1.45772ZM16.7297 1.77463L16.9198 2.34505L16.2861 2.28167L16.7297 1.77463ZM16.096 1.58449L16.3494 1.07744L16.7297 1.71125L16.096 1.58449ZM14.3216 1.14082L15.2088 0.887305L15.2721 1.58449L14.3216 1.14082ZM12.5472 2.78871H12.9274L12.7373 3.29575L12.5472 2.78871ZM16.4762 3.04223H16.8564L16.6663 3.54927L16.4762 3.04223ZM11.7868 2.59857L12.167 2.85209L11.7234 3.10561L11.7868 2.59857ZM12.4205 1.33097H12.8641L12.6739 1.77463L12.4205 1.33097Z" fill="#724539"/>
<path d="M13.4978 0.697184L14.5117 0.633802L14.1949 1.45774L13.4978 0.697184ZM11.4066 2.09154H11.8502L11.6601 2.47183L11.4066 2.09154Z" fill="#724539"/>
<path d="M12.9908 2.09153L13.371 1.52111L13.8146 2.15491L12.9908 2.09153ZM12.2303 2.02815V2.53519L11.7234 2.28167L12.2303 2.02815ZM16.0325 1.71125L15.9692 2.34505L15.3355 1.96477L16.0325 1.71125Z" fill="#724539"/>
<path d="M15.2721 1.52113L15.5256 2.09155L14.7018 1.96479L15.2721 1.52113ZM12.2303 1.71127H12.8007L12.5472 2.28169L12.2303 1.71127ZM13.1809 1.26761L12.7373 1.01409L13.1809 0.633802V1.26761Z" fill="#724539"/>
<path d="M12.7373 1.07746L12.1036 0.697182L12.8006 0.253521L12.7373 1.07746ZM12.2937 2.47182L12.3571 2.2183L12.6105 2.47182H12.2937ZM12.6105 1.96478H13.1175L12.8006 2.5352L12.6105 1.96478ZM13.9413 1.83802L14.1314 1.20422L14.7651 1.64788L13.9413 1.83802ZM16.286 0.950701L15.9692 1.77464L15.3988 1.39436L16.286 0.950701ZM13.7512 0H14.4483L14.0681 0.82394L13.7512 0Z" fill="#724539"/>
<path d="M15.1454 1.07746L16.0326 1.20422L15.5256 1.77464L15.1454 1.07746ZM15.6524 0.316901L16.1593 0.760562L15.5256 1.07746L15.6524 0.316901ZM14.385 2.85211L14.7018 2.40845L14.9553 2.97887L14.385 2.85211ZM15.0187 2.40845L15.2088 2.21831L15.3355 2.47183L15.0187 2.40845ZM12.1036 0.697183L12.4205 1.33098L11.66 1.39436L12.1036 0.697183ZM13.6879 0L13.5611 0.887323L12.8641 0.19014L13.6879 0ZM13.371 3.54929L13.3077 3.92957L12.9908 3.67605L13.371 3.54929ZM12.4838 3.54929L12.4205 3.92957L12.1036 3.67605L12.4838 3.54929ZM11.2798 2.85211L11.3432 2.40845L11.66 2.85211H11.2798ZM11.2798 3.61267V2.97887L11.7234 3.48591L11.2798 3.61267ZM14.6384 3.67605V3.99295L14.3216 3.80281L14.6384 3.67605ZM22.8132 11.4718L22.4964 11.5986V11.2183L22.8132 11.4718ZM23.2568 11.345L23.0033 11.2183L23.2568 11.0281V11.345ZM22.8132 10.7112L22.9399 10.9648H22.6231L22.8132 10.7112ZM21.6092 12.0422L21.6725 12.2324H21.4191L21.6092 12.0422ZM20.9755 9.63378V9.82392L20.7854 9.76054L20.9755 9.63378Z" fill="#724539"/>
<path d="M21.9894 9.76054L22.0528 9.95068L21.7993 9.8873L21.9894 9.76054ZM21.3557 8.87322V9.06336L21.1656 8.99998L21.3557 8.87322ZM21.1022 8.42956L21.229 8.55632L21.0389 8.68308L21.1022 8.42956ZM22.3696 10.9014L22.4964 11.0915L22.2429 11.1549L22.3696 10.9014ZM23.3202 10.5211L23.4469 10.7112L23.1935 10.7746L23.3202 10.5211ZM22.3063 10.0774L22.4964 10.2676L22.2429 10.331L22.3063 10.0774ZM22.3696 8.99998L21.9894 9.19012V8.80984L22.3696 8.99998ZM21.7993 8.3028L21.4825 8.49294V8.11266L21.7993 8.3028ZM23.0667 10.0774L22.7499 10.2676V9.8873L23.0667 10.0774ZM13.1176 2.47182L13.5612 2.72534L13.1176 3.04224V2.47182ZM14.5751 2.34506L14.1949 1.77464L15.0187 1.83802L14.5751 2.34506ZM15.7157 3.04224L15.9059 3.35914L15.4623 3.42253L15.7157 3.04224ZM14.8919 2.2183H15.3355L15.1454 2.72534L14.8919 2.2183Z" fill="#724539"/>
<path d="M15.082 2.09154V2.34506L14.7652 2.2183L15.082 2.09154ZM15.4622 2.28168H16.2227L15.7157 2.97886L15.4622 2.28168ZM16.9198 2.5352L16.8564 2.8521L16.4762 2.66196L16.9198 2.5352ZM14.0681 2.91549L14.0047 3.42253L13.5611 3.10563L14.0681 2.91549ZM15.3355 2.72534L15.589 2.8521L15.3355 3.04224V2.72534ZM16.1593 3.04224L16.3494 2.78872L16.5395 3.10563L16.1593 3.04224Z" fill="#724539"/>
</svg>
