<svg width="15" height="10" viewBox="0 0 15 10" fill="none" xmlns="http://www.w3.org/2000/svg">
<path d="M7.1939 7.52068V8.18184L6.36702 7.85126L7.1939 7.52068ZM10.5014 6.11572L10.9148 6.19836L10.6668 6.61158L10.5014 6.11572ZM6.78046 0L7.1939 0.413224L6.61507 0.578511L6.78046 0ZM3.39026 4.7934L3.8037 4.62811L3.88639 5.12398L3.39026 4.7934ZM8.68226 5.95042L8.5169 5.45456L9.01304 5.5372L8.68226 5.95042ZM10.6668 4.38018L11.1629 4.29753L10.9975 4.95869L10.6668 4.38018ZM14.3877 1.48761L13.8089 2.23141L13.3128 1.32232L14.3877 1.48761ZM11.5763 5.37191L11.0802 6.11572L10.5841 5.20663L11.5763 5.37191ZM13.2301 3.22315L12.6513 3.8843L12.1552 3.05786L13.2301 3.22315ZM9.50914 4.29753V5.04134L8.76496 4.62811L9.50914 4.29753ZM9.01304 1.07439L9.67453 1.32232L9.1784 1.90083L9.01304 1.07439ZM10.4187 5.78514L9.50914 5.61985L10.088 4.7934L10.4187 5.78514ZM9.67453 2.97522L9.26109 3.55373L8.93034 2.80993L9.67453 2.97522ZM3.14221 2.89257L3.72101 3.30579L2.97682 3.63638L3.14221 2.89257ZM13.7262 2.31406L13.3128 2.97522L12.8166 2.23141L13.7262 2.31406ZM7.02851 6.52895L7.69003 6.77687L7.1939 7.43803L7.02851 6.52895Z" fill="#AD5C44"/>
<path d="M7.35928 7.10744L8.02078 7.27272L7.52464 7.93388L7.35928 7.10744ZM12.5686 3.63636L12.4032 4.38016L11.7417 3.80165L12.5686 3.63636ZM5.62284 6.1157L6.28433 6.44628L5.62284 6.94215V6.1157ZM12.2379 4.54545L11.659 5.20661L11.2456 4.29751L12.2379 4.54545ZM7.44195 1.4876L8.02078 1.90082L7.27659 2.31404L7.44195 1.4876ZM8.02078 7.85123L8.68227 8.26446L7.93808 8.67768L8.02078 7.85123ZM6.28433 8.67768L7.69003 8.26446L7.52464 10L6.28433 8.67768ZM4.79596 4.6281L3.96908 5.86777L2.97682 4.71073L4.79596 4.6281Z" fill="#AD5C44"/>
<path d="M3.88639 3.55371L3.721 4.54545L2.72876 4.21487L3.88639 3.55371ZM5.45744 5.20661L5.29208 6.28099L4.29982 5.86777L5.45744 5.20661ZM7.93807 8.84297L8.35151 8.92562L8.10345 9.42149L7.93807 8.84297ZM4.21713 2.14875L4.63057 2.47933L4.05177 2.72726L4.21713 2.14875ZM3.1422 2.47933L3.55564 2.23139L3.63833 2.80991L3.1422 2.47933ZM3.1422 1.07437L3.55564 0.826433L3.63833 1.40494L3.1422 1.07437ZM5.95357 8.18182L4.87865 6.94215L6.69776 6.61156L5.95357 8.18182ZM7.93807 6.61156H8.51689L8.26881 7.19007L7.93807 6.61156Z" fill="#AD5C44"/>
<path d="M1.07493 1.57024L1.57105 1.40494V1.98346L1.07493 1.57024ZM6.20153 5.20661L6.03617 4.71073L6.61497 4.87603L6.20153 5.20661ZM6.5323 4.62809H6.03617L6.28422 4.13222L6.5323 4.62809ZM12.6512 2.64461L11.8243 3.05784L11.7416 2.0661L12.6512 2.64461ZM10.832 0.330567V0.909078L10.1705 0.578491L10.832 0.330567ZM6.44961 2.31404L7.19379 2.56197L6.69766 3.14049L6.44961 2.31404ZM5.04391 6.19834L5.78809 6.44628L5.29199 7.10744L5.04391 6.19834ZM4.46512 4.54544L5.2093 4.79338L4.71317 5.45454L4.46512 4.54544ZM9.92247 6.94215L9.01293 6.69421L9.59172 5.9504L9.92247 6.94215ZM11.9897 1.07437L11.907 1.81816L11.1628 1.23965L11.9897 1.07437ZM4.79586 2.56197L5.37466 3.05784L4.63048 3.47106L4.79586 2.56197ZM1.15762 1.81816L1.73641 2.23139L0.992233 2.64461L1.15762 1.81816Z" fill="#AD5C44"/>
<path d="M10.336 1.98349L11.0802 2.23142L10.5013 2.89258L10.336 1.98349ZM9.34372 7.76862L8.68221 8.59507L8.1861 7.43803L9.34372 7.76862ZM9.59178 6.77687L9.34372 7.43803L8.7649 6.85952L9.59178 6.77687ZM1.24032 2.80994L3.05945 2.39672L2.64602 4.29753L1.24032 2.80994ZM0 1.32233L0.826877 1.0744L0.661517 1.98349L0 1.32233ZM10.584 6.69424L9.92252 7.27275L9.59178 6.28101L10.584 6.69424ZM5.04395 3.3058L5.62278 3.71902L4.96126 4.13225L5.04395 3.3058ZM6.28427 6.03308L7.60728 4.95869L8.1861 6.85952L6.28427 6.03308Z" fill="#AD5C44"/>
</svg>
