<svg width="33" height="51" viewBox="0 0 33 51" fill="none" xmlns="http://www.w3.org/2000/svg">
<path d="M23.5896 19.5868L24.607 19.0144L23.7168 18.4421L23.5896 19.5868ZM22.5087 16.4707L23.2717 15.5804L22.2544 15.326L22.5087 16.4707ZM26.0058 18.3785L27.3411 18.5693L27.0231 17.4246L26.0058 18.3785ZM24.607 16.5343L23.844 17.6154L24.9885 17.8062L24.607 16.5343Z" fill="#562828"/>
<path d="M24.2254 15.5168L25.6242 15.644L25.2427 14.4993L24.2254 15.5168ZM19.2023 27.9811H20.5375L20.0925 26.9636L19.2023 27.9811ZM22.6358 14.2449L23.971 14.3085L23.5896 13.2274L22.6358 14.2449ZM21.237 16.0255L22.3815 16.6615L22.5086 15.5168L21.237 16.0255ZM22.5086 16.8522L23.6531 17.4882L23.7803 16.3435L22.5086 16.8522ZM22.8901 15.326L24.1618 15.7076L24.0346 14.4993L22.8901 15.326ZM21.682 18.6965L23.0173 18.9508L22.6994 17.8061L21.682 18.6965Z" fill="#562828"/>
<path d="M21.3005 19.0144L22.5086 19.396L22.4451 18.2513L21.3005 19.0144ZM26.6416 14.3721L27.2138 13.3546H26.1965L26.6416 14.3721ZM27.4682 12.4007L28.0404 11.3832L27.0231 11.3196L27.4682 12.4007ZM26.8959 7.75838L27.7225 7.12245L26.8959 6.74088V7.75838ZM25.815 7.504L26.6416 6.86807L25.815 6.48651V7.504ZM22.6358 19.8411L23.6531 19.396L22.8901 18.76L22.6358 19.8411ZM26.5144 12.8459L26.8323 12.2099L26.1329 12.1463L26.5144 12.8459ZM25.6878 16.3435L25.1792 15.9619L24.9884 16.5343L25.6878 16.3435ZM30.5202 13.9269L30.0115 14.3085L30.4566 14.6265L30.5202 13.9269ZM28.2948 22.2577L28.9942 22.5121L28.9306 21.8761L28.2948 22.2577ZM24.6705 21.8761L25.052 21.3038L24.4797 21.2402L24.6705 21.8761ZM27.4682 26.3913L27.0867 25.8825L26.8323 26.3913H27.4682ZM27.8497 14.3085L27.7225 15.0716L28.3583 14.8808L27.8497 14.3085ZM27.7225 10.7473L28.2948 11.0016V10.4293L27.7225 10.7473ZM23.6531 14.2449L24.0982 13.7362L23.526 13.609L23.6531 14.2449ZM23.9711 12.5915L24.4797 11.574L23.4624 11.5104L23.9711 12.5915Z" fill="#562828"/>
<path d="M23.9075 12.2099L25.3699 11.1289L24.0347 10.3657L23.9075 12.2099ZM25.3063 9.98418L26.0058 9.03028L24.9248 8.83949L25.3063 9.98418ZM24.0347 14.3085L25.815 14.4993L25.3063 13.0367L24.0347 14.3085ZM27.9768 17.1066L28.6763 17.4246V16.7251L27.9768 17.1066ZM25.1792 19.5868L24.7977 20.0319L25.3699 20.1591L25.1792 19.5868ZM29.1849 16.0891L29.5664 15.5168L28.9942 15.4532L29.1849 16.0891ZM23.0809 37.2021L23.4624 36.6934L22.8902 36.5662L23.0809 37.2021ZM3.49715 42.9255L3.94223 42.4804L3.43357 42.2896L3.49715 42.9255Z" fill="#562828"/>
<path d="M26.0694 14.8173L26.6416 14.3721L26.0694 14.1177V14.8173ZM25.1792 13.4182L23.4625 11.6376L22.5087 13.6726L25.1792 13.4182Z" fill="#562828"/>
<path d="M24.0347 15.5804L22.5723 13.6726L21.4278 15.644L24.0347 15.5804ZM25.8151 11.0017L27.0867 11.3832L26.9596 10.2385L25.8151 11.0017ZM24.4798 10.9381L25.6879 11.3196L25.6243 10.1749L24.4798 10.9381Z" fill="#562828"/>
<path d="M26.7052 10.0478L24.9249 8.26715L24.0983 10.3657L26.7052 10.0478Z" fill="#562828"/>
<path d="M27.2775 10.1749L26.4509 9.22105L25.9422 10.2385L27.2775 10.1749ZM27.659 5.15106L26.6416 4.38794L26.3237 5.40544L27.659 5.15106ZM27.659 3.75201L26.896 3.17967L26.7052 4.00638L27.659 3.75201ZM27.7226 4.96028L27.9769 4.06998L27.1503 4.19716L27.7226 4.96028ZM26.896 6.29575L27.2139 5.40544L26.3873 5.46903L26.896 6.29575ZM27.4046 7.05887L28.2948 6.99528L27.9133 6.23215L27.4046 7.05887ZM27.659 3.11608L27.9769 2.22577L27.1503 2.35296L27.659 3.11608ZM26.896 8.13995L25.5607 6.86808L24.9249 8.39433L26.896 8.13995ZM27.0231 6.55012L26.133 5.59622L25.6879 6.61371L27.0231 6.55012ZM22.9538 17.7426L21.4278 15.8348L20.3468 17.8697L22.9538 17.7426Z" fill="#562828"/>
<path d="M22 19.714L20.474 17.7426L19.3931 19.7776L22 19.714Z" fill="#562828"/>
<path d="M20.9191 21.7489L19.4567 19.7775L18.2486 21.6853L20.9191 21.7489ZM26.5144 15.4532V16.5979L27.4046 16.1527L26.5144 15.4532ZM23.3353 19.9047L24.6069 20.4135L24.5434 19.2688L23.3353 19.9047ZM15.0694 30.3976L16.2775 30.8428V29.6345L15.0694 30.3976Z" fill="#562828"/>
<path d="M18.8844 30.2069L20.0925 30.652L20.0289 29.5073L18.8844 30.2069ZM23.0809 19.714L22.3179 20.795L23.4624 20.9858L23.0809 19.714ZM18.3121 21.6853L17.6127 22.8936L18.8844 23.0844L18.3121 21.6853ZM19.9653 21.8761L19.2023 23.0208L20.4104 23.2116L19.9653 21.8761ZM21.0462 20.0955L20.2832 21.1766L21.4277 21.3674L21.0462 20.0955ZM22.9537 22.9572L23.0173 22.1941L22.3179 22.3849L22.9537 22.9572ZM23.3988 26.5185L22.763 26.3277L22.8266 26.9L23.3988 26.5185ZM27.0867 22.6392L26.7052 23.148L27.2774 23.2752L27.0867 22.6392ZM25.4335 30.9064L26.1965 30.8428L25.8786 30.2705L25.4335 30.9064ZM21.8728 31.9239L22 31.288L21.4277 31.4151L21.8728 31.9239ZM26.2601 34.8492L25.6243 34.6584V35.1672L26.2601 34.8492ZM21.1098 24.1019L22 22.9572L20.7283 22.7028L21.1098 24.1019ZM20.9191 25.8825L21.8092 24.8014L20.6012 24.547L20.9191 25.8825ZM23.6532 21.5582L24.4162 20.4771L23.2717 20.2227L23.6532 21.5582ZM17.8035 32.7506L18.7572 31.7331L17.5491 31.4151L17.8035 32.7506ZM30.711 20.1591L30.2023 19.7775L30.0751 20.3499L30.711 20.1591Z" fill="#562828"/>
<path d="M25.2428 20.2863V21.0494L25.8786 20.7951L25.2428 20.2863ZM24.7977 16.7887L25.4335 16.9795L25.3699 16.3435L24.7977 16.7887ZM21.1098 20.6679L21.4913 20.0955L20.9191 20.0319L21.1098 20.6679ZM23.4624 28.4263L22.9538 29.1258L23.6532 29.1894L23.4624 28.4263ZM24.8613 25.1194L25.3063 25.6281L25.4971 25.0558L24.8613 25.1194ZM19.711 26.7728L20.2832 26.4549L19.8382 26.1369L19.711 26.7728ZM20.7283 19.7776L22.3815 20.3499L22.3179 18.8873L20.7283 19.7776ZM20.7283 18.4421L22 18.6965L21.7457 17.5518L20.7283 18.4421ZM21.237 21.3674L21.8092 22.3213L22.3179 21.5582L21.237 21.3674ZM28.6127 18.8873L28.9306 19.4596L29.2485 18.9508L28.6127 18.8873ZM29.3757 21.749L29.8208 22.5121L30.2659 21.8761L29.3757 21.749ZM26.6416 18.8237L27.341 18.6329L26.9595 18.1241L26.6416 18.8237ZM25.6878 24.7378V23.9747L25.1156 24.2927L25.6878 24.7378ZM20.0925 24.0383L19.9017 22.9572L19.0752 23.5296L20.0925 24.0383ZM18.0578 25.5646L18.8844 24.7378L17.9307 24.4199L18.0578 25.5646Z" fill="#562828"/>
<path d="M19.3931 25.3738L19.0752 24.2927L18.3122 24.9922L19.3931 25.3738Z" fill="#562828"/>
<path d="M17.9942 24.4199L17.4219 26.2005L19.0115 25.9461L17.9942 24.4199Z" fill="#562828"/>
<path d="M17.7399 22.7664L16.8497 24.6107H18.6301L17.7399 22.7664ZM18.7572 26.0097L20.0289 26.4549L19.9017 25.3102L18.7572 26.0097ZM16.4682 28.8078L17.6127 29.5073L17.8035 28.2991L16.4682 28.8078ZM18.6301 29.6981L19.5838 29.0622L18.7572 28.5534L18.6301 29.6981ZM17.6127 26.9L18.3757 26.0733L17.422 25.7553L17.6127 26.9ZM20.6647 26.9636L20.8555 27.5995L21.3006 27.218L20.6647 26.9636Z" fill="#562828"/>
<path d="M18.5666 26.3277L16.977 24.4199L15.9596 26.3913L18.5666 26.3277ZM11.4452 30.5884L12.0175 31.1608L12.2082 30.5248L11.4452 30.5884ZM12.5897 30.3341L12.081 31.288L13.0348 31.3516L12.5897 30.3341Z" fill="#562828"/>
<path d="M13.1619 30.2705L12.844 31.288L13.7977 31.2244L13.1619 30.2705ZM11.9538 30.97L11.6359 31.7967H12.3989L11.9538 30.97ZM15.4509 31.6059L14.4336 32.3055L15.3237 32.8778L15.4509 31.6059ZM3.94228 26.6456L3.75154 25.3102L2.67061 26.7092L3.94228 26.6456ZM13.2891 32.7506L12.3989 31.8603L12.0174 32.8778L13.2891 32.7506ZM18.2486 29.7617L17.2948 30.5248L18.2486 31.0336V29.7617ZM20.3468 30.9064L20.1561 31.5423L20.7919 31.4787L20.3468 30.9064ZM20.8555 27.6631L21.3642 27.9811L21.4914 27.4088L20.8555 27.6631ZM16.7226 30.2069L17.1677 29.8253L16.659 29.5709L16.7226 30.2069ZM20.2833 36.757L20.1561 37.4565L20.7919 37.3293L20.2833 36.757ZM20.5376 33.5137L21.0463 33.8317L21.1098 33.2594L20.5376 33.5137ZM16.5954 36.3118L16.9769 35.9303L16.4683 35.7395L16.5954 36.3118ZM19.2659 32.9414L19.0752 33.6409L19.711 33.5773L19.2659 32.9414ZM19.8382 29.6981L20.3468 30.0161L20.4104 29.5073L19.8382 29.6981ZM15.6417 32.1783L16.0867 31.7967L15.5781 31.6059L15.6417 32.1783ZM12.9712 31.4787L13.4162 32.2419L13.8613 31.6059L12.9712 31.4787Z" fill="#562828"/>
<path d="M13.289 30.8428L14.6879 30.7792L14.1792 29.6345L13.289 30.8428Z" fill="#562828"/>
<path d="M14.2428 30.4612L15.0058 29.9525L14.37 29.5073L14.2428 30.4612ZM15.896 29.0622L16.7861 28.5534L16.0867 28.0447L15.896 29.0622ZM17.867 27.2816L18.1214 27.8539L18.5029 27.4088L17.867 27.2816ZM17.5491 27.7903L16.0231 26.2641L15.0058 28.0447L17.5491 27.7903Z" fill="#562828"/>
<path d="M16.3411 29.4437L15.133 27.8539L14.2428 29.4437H16.3411ZM12.3353 31.4787L13.7977 30.1433L12.081 29.3166L12.3353 31.4787Z" fill="#562828"/>
<path d="M11.8903 30.9064L13.0984 29.8253L11.6995 29.1894L11.8903 30.9064ZM16.6591 34.5312L17.6128 34.0225L16.7862 33.4501L16.6591 34.5312ZM9.8556 33.2594L10.8094 32.4962L9.91919 32.0511L9.8556 33.2594ZM8.3296 30.97L9.28335 30.3341L8.39317 29.8253L8.3296 30.97ZM10.8729 33.4501L12.081 34.0225L12.1446 32.8142L10.8729 33.4501ZM5.977 26.2005L6.29492 28.1719L7.88451 27.1544L5.977 26.2005ZM7.82092 27.2816L8.13884 29.253L9.72844 28.2991L7.82092 27.2816ZM6.54925 28.5534L7.63017 28.7442L7.43942 27.7903L6.54925 28.5534ZM8.96543 30.0797L9.8556 29.3166L8.96543 28.8714V30.0797ZM7.63017 32.687L6.54925 33.6409L7.75734 34.0861L7.63017 32.687ZM7.1215 36.6298H5.65908L6.29492 37.7745L7.1215 36.6298ZM6.61284 30.5248L5.15041 30.4613L5.72266 31.6059L6.61284 30.5248Z" fill="#562828"/>
<path d="M3.56084 30.0161L2.162 29.9525L2.73425 31.0972L3.56084 30.0161ZM9.79204 30.9064L11.7631 29.1258L9.66486 28.2355L9.79204 30.9064ZM5.97702 26.9636L4.76893 26.9L5.15043 27.8539L5.97702 26.9636ZM6.29494 43.6887L5.97702 44.261L6.54927 44.3882L6.29494 43.6887ZM7.50302 40.6998L7.88453 41.0813L8.13886 40.5726L7.50302 40.6998ZM2.86142 42.226L3.37009 41.9081L2.98858 41.5901L2.86142 42.226ZM5.53193 41.7173L5.21401 42.3532L5.84985 42.4168L5.53193 41.7173ZM6.54927 38.6648L6.99435 39.0463L7.18511 38.5376L6.54927 38.6648ZM2.03483 40.509L2.5435 40.191L2.09842 39.8731L2.03483 40.509ZM7.31227 38.6012L6.99435 39.2371L7.63019 39.3007L7.31227 38.6012ZM8.52037 35.5487L8.90186 35.9303L9.1562 35.4215L8.52037 35.5487ZM3.87876 37.1385L4.38743 36.8206L4.00592 36.5662L3.87876 37.1385ZM28.3585 26.7092L29.1215 26.9636L28.9943 26.2641L28.3585 26.7092ZM24.7342 26.582L25.0521 26.0097L24.4799 25.9461L24.7342 26.582ZM27.8498 30.7792L27.4047 30.334L27.1504 30.9064L27.8498 30.7792ZM24.4799 39.3007L24.7978 38.7284L24.2255 38.6648L24.4799 39.3007ZM27.7862 34.6584L28.5492 34.5312L28.1677 34.0225L27.7862 34.6584ZM24.3527 35.9939L24.4163 35.3579L23.9076 35.5487L24.3527 35.9939ZM28.9943 38.6012L28.422 38.4104L28.4856 38.9192L28.9943 38.6012ZM15.6417 33.8317L16.4047 32.7506L15.2602 32.5598L15.6417 33.8317ZM3.56084 28.9986L4.89609 28.7442L4.19668 27.7903L3.56084 28.9986ZM3.81517 42.0352L4.70535 41.0813L3.49725 40.7634L3.81517 42.0352Z" fill="#562828"/>
<path d="M3.68797 40.0639L4.00588 41.3357L4.95964 40.6362L3.68797 40.0639ZM5.59547 27.4088L5.02322 28.6806L6.2949 28.617L5.59547 27.4088ZM3.87872 44.9606L4.06947 45.7873L4.70531 45.2785L3.87872 44.9606ZM1.65329 45.0877L2.54346 44.0702L1.39895 43.7523L1.65329 45.0877ZM13.9885 34.2769L14.8151 33.1958L13.607 33.005L13.9885 34.2769ZM1.33538 42.9892L2.28913 42.0353L1.14462 41.6537L1.33538 42.9892ZM1.84405 47.1227L3.49721 45.5965L1.65329 45.3421L1.84405 47.1227ZM3.05213 45.0241L3.24288 44.1338L2.28913 44.4518L3.05213 45.0241ZM1.78046 41.6537L1.97121 40.8906L1.08104 41.1449L1.78046 41.6537ZM2.67062 39.6823L2.7978 38.792L1.90762 39.11L2.67062 39.6823ZM24.3526 33.0686L23.9075 33.7681L24.607 33.8317L24.3526 33.0686ZM25.6243 29.6345L26.0694 30.0797L26.2601 29.5709L25.6243 29.6345ZM20.5376 31.4787L21.0463 31.1608L20.6012 30.8428L20.5376 31.4787ZM27.5954 7.50402L28.2312 7.56762L28.0405 7.05887L27.5954 7.50402ZM29.5029 7.94918L29.6301 7.50402H29.185L29.5029 7.94918ZM27.7861 10.0478L27.3411 9.72979L27.2775 10.2385L27.7861 10.0478ZM27.4682 1.71703L28.2312 1.65343L27.9133 1.01749L27.4682 1.71703ZM28.1041 0.635934L28.1676 0L27.659 0.190782L28.1041 0.635934ZM26.7688 8.90308L26.5781 8.20355L26.0058 8.58512L26.7688 8.90308ZM28.1676 9.22105L27.9769 9.79339L28.5491 9.72979L28.1676 9.22105ZM32.3006 11.3832L33 11.6376L32.9364 11.0017L32.3006 11.3832ZM28.6127 10.9381L28.9942 10.4293L28.422 10.3657L28.6127 10.9381ZM31.474 15.3896L31.0289 14.9445L30.8382 15.4532L31.474 15.3896ZM29.6936 2.67093L29.185 2.54374L29.3122 3.05248L29.6936 2.67093ZM28.6763 3.8792L29.185 4.26076L29.2486 3.68842L28.6763 3.8792ZM28.422 6.93168L28.9942 7.31325L29.1214 6.67731L28.422 6.93168ZM28.0405 5.72341L28.7399 6.23215L28.8671 5.40545L28.0405 5.72341ZM27.5954 3.81561L28.1676 3.30686L27.5318 3.05248L27.5954 3.81561ZM28.3584 8.7123L27.9133 8.07637L27.5954 8.7123H28.3584ZM29.6936 5.8506L30.2659 5.91419L30.1387 5.46903L29.6936 5.8506ZM27.2775 6.10497L27.4046 5.72341H27.0231L27.2775 6.10497ZM29.8208 8.6487L29.4393 8.39433L29.3757 8.83949L29.8208 8.6487Z" fill="#562828"/>
<path d="M31.7919 12.7187L31.7283 13.5454L32.3641 13.291L31.7919 12.7187ZM31.474 9.15746L32.0462 9.41183V8.83949L31.474 9.15746ZM27.6589 12.9731L28.0404 12.5279L27.4682 12.4007L27.6589 12.9731ZM19.3295 42.9892L19.9017 43.6251L20.2197 42.9256L19.3295 42.9892ZM16.0231 40.6362L16.7226 40.2546L16.2139 39.8731L16.0231 40.6362ZM16.2139 46.5504L16.0867 45.7873L15.578 46.2324L16.2139 46.5504ZM16.0231 34.9128L16.1503 35.6123L16.659 35.2308L16.0231 34.9128ZM14.6879 31.9875H15.2601L15.0694 31.4788L14.6879 31.9875ZM12.526 36.2483L12.6532 35.6759L12.1445 35.7395L12.526 36.2483ZM6.99426 37.3929L7.12143 38.0925L7.6301 37.7109L6.99426 37.3929ZM5.91334 34.2769L6.48559 34.3405L6.35842 33.8953L5.91334 34.2769ZM3.37 38.474L3.62433 37.9017L3.05208 37.9653L3.37 38.474ZM21.9364 37.5837L21.8092 38.2196L22.3815 38.1561L21.9364 37.5837ZM22.1907 34.2769L22.6994 34.5312L22.763 34.0861L22.1907 34.2769ZM18.2486 37.2022L18.6301 36.757L18.1214 36.5662L18.2486 37.2022ZM5.84975 28.4263L6.42201 29.6345L7.18501 28.7442L5.84975 28.4263Z" fill="#562828"/>
<path d="M2.60698 26.9L3.17923 28.0447L3.94223 27.1544L2.60698 26.9ZM6.0405 32.1147L7.05784 31.5423L6.23125 30.97L6.0405 32.1147ZM2.35264 44.0066L3.36999 43.4979L2.5434 42.862L2.35264 44.0066ZM4.76882 31.0336L5.72258 30.4612L4.89599 29.8889L4.76882 31.0336ZM10.6185 34.5312L10.4278 35.1672L11 35.04L10.6185 34.5312ZM5.84974 35.6123L5.659 36.2482L6.23125 36.1211L5.84974 35.6123ZM5.08674 38.0289L4.89599 38.6648L5.46825 38.5376L5.08674 38.0289ZM6.99425 35.2943L6.8035 35.9303L7.37576 35.8667L6.99425 35.2943ZM7.37576 37.5201L7.05784 38.1561H7.69367L7.37576 37.5201ZM8.07517 34.3404L8.52026 34.6584L8.64743 34.1497L8.07517 34.3404ZM3.6879 36.5662L4.19658 36.2482L3.75149 35.9939L3.6879 36.5662ZM7.37576 44.1338L7.05784 44.7698H7.69367L7.37576 44.1338ZM8.07517 40.9542L8.52026 41.3357L8.64743 40.7634L8.07517 40.9542ZM3.75149 43.1799L4.19658 42.7984L3.75149 42.544V43.1799ZM9.41043 48.2038L9.02893 48.7125L9.66476 48.7761L9.41043 48.2038ZM10.6185 45.0877L11 45.5329L11.1908 45.0241L10.6185 45.0877ZM5.97692 46.6776L6.48558 46.4232L6.10408 46.1052L5.97692 46.6776ZM4.26015 48.5218L4.51449 49.4121L5.08674 48.8397L4.26015 48.5218ZM2.03473 48.649L2.98848 47.6951L1.7804 47.3771L2.03473 48.649ZM2.22548 50.6839L3.94223 49.2213L2.03473 48.9033L2.22548 50.6839Z" fill="#562828"/>
<path d="M3.43355 48.5854L3.62429 47.8222L2.73413 48.0766L3.43355 48.5854ZM2.73413 47.6951L3.75147 47.1227L2.98846 46.5504L2.73413 47.6951ZM7.75723 47.7586L7.5029 48.3946H8.13873L7.75723 47.7586ZM8.45665 44.5154L8.90173 44.8969L9.09249 44.3882L8.45665 44.5154ZM4.13296 46.8047L4.57805 46.4868L4.13296 46.2324V46.8047ZM3.62429 39.6187L3.68788 38.7284L2.92488 38.9827L3.62429 39.6187ZM0.635866 30.5884L0.763032 29.6345L3.09096e-05 29.8889L0.635866 30.5884ZM2.22546 28.4262L3.05205 27.7267L2.22546 27.3452V28.4262ZM4.0058 27.2816L3.75147 27.8539L4.32372 27.7903L4.0058 27.2816ZM11.9537 31.7967L10.4913 30.0797L9.4104 31.8603L11.9537 31.7967ZM1.20812 31.0972L2.4798 30.652L1.71679 29.7617L1.20812 31.0972ZM4.51447 29.5073L5.84972 29.8253L5.59539 28.617L4.51447 29.5073ZM2.0347 35.3579L2.22546 34.5948L1.52604 34.722L2.0347 35.3579ZM1.20812 34.5312L2.28904 34.404L1.84396 33.6409L1.20812 34.5312Z" fill="#562828"/>
<path d="M0.826678 33.0686L1.84402 32.8142L1.33535 32.0511L0.826678 33.0686ZM2.09835 34.722L2.98851 34.5948L2.54343 33.9589L2.09835 34.722ZM3.75152 30.4613L3.4336 31.6059L4.45093 31.4788L3.75152 30.4613ZM2.92493 32.7506L2.60702 33.9589L3.68793 33.7045L2.92493 32.7506ZM7.56652 32.3055L7.88444 32.9414L8.26593 32.4327L7.56652 32.3055ZM5.65902 29.6345L6.23127 29.5074L5.91335 29.0622L5.65902 29.6345ZM4.45093 34.2769L4.51452 33.7681L4.00585 33.9589L4.45093 34.2769ZM8.83819 30.652L9.15611 31.288L9.5376 30.7792L8.83819 30.652Z" fill="#562828"/>
<path d="M6.80353 28.0447L7.37578 27.9175L7.12144 27.4724L6.80353 28.0447ZM5.72261 32.8142L5.7862 32.1783L5.27753 32.3691L5.72261 32.8142ZM1.97119 33.7045L2.41627 32.8778L1.58968 32.8142L1.97119 33.7045Z" fill="#562828"/>
<path d="M1.97124 32.8778L3.05214 31.9239L1.90765 31.4151L1.97124 32.8778Z" fill="#562828"/>
<path d="M2.47988 32.1147L2.73421 31.2244L1.97121 31.288L2.47988 32.1147ZM2.67063 29.3166L3.49721 28.6806L2.67063 28.2355V29.3166ZM10.6186 37.9017L10.8729 38.4104L11.2544 37.9653L10.6186 37.9017ZM12.2717 43.8795L11.8902 44.4518L12.5261 44.5154L12.2717 43.8795ZM13.4798 40.827L13.8613 41.2721L14.0521 40.7634L13.4798 40.827ZM8.83824 42.4168L9.3469 42.0988L8.90182 41.7809L8.83824 42.4168ZM11.3816 40.0638L11.0637 40.6998L11.6995 40.7634L11.3816 40.0638ZM12.3989 36.9478L12.844 37.3293L13.0347 36.8206L12.3989 36.9478ZM7.88449 38.792L8.39315 38.474L7.94806 38.156L7.88449 38.792ZM14.3064 38.3468L13.9249 38.9192L14.5608 39.0463L14.3064 38.3468ZM15.5145 35.2943L15.896 35.6759L16.0868 35.1671L15.5145 35.2943ZM10.8729 36.8842L11.3816 36.5662L11.0001 36.2482L10.8729 36.8842ZM22 35.1036L22.1272 35.7395L22.6359 35.3579L22 35.1036ZM20.6648 32.1147H21.237L21.0463 31.6695L20.6648 32.1147ZM18.5029 36.439L18.6301 35.8667L18.1214 35.9303L18.5029 36.439ZM12.9712 37.5837L13.0347 38.2196L13.607 37.9017L12.9712 37.5837ZM11.8902 34.4676L12.4625 34.5312L12.2717 34.0861L11.8902 34.4676ZM9.3469 38.6648L9.53765 38.0924H9.02898L9.3469 38.6648ZM11.8267 35.7395L11.5723 36.3754L12.2082 36.3118L11.8267 35.7395ZM12.9712 35.4851L12.7168 36.121L13.3527 35.9939L12.9712 35.4851ZM13.2891 44.261L13.0347 44.9605L13.6706 44.8969L13.2891 44.261ZM13.9885 41.1449L14.4972 41.3993L14.6243 40.9541L13.9885 41.1449ZM9.66482 43.3707L10.1735 42.9891L9.66482 42.7348V43.3707ZM15.3873 48.331L15.0058 48.9033L15.6417 48.9669L15.3873 48.331ZM16.5318 45.2785L16.9769 45.6601L17.1677 45.2149L16.5318 45.2785ZM11.9538 46.8683L12.4625 46.614L12.0174 46.296L11.9538 46.8683ZM13.7342 47.9494L13.4798 48.5218H14.1157L13.7342 47.9494ZM14.4336 44.7062L14.8787 45.0877L15.0058 44.5154L14.4336 44.7062ZM10.1099 46.9955L10.555 46.614L10.1099 46.3596V46.9955ZM16.5954 38.0288L16.8498 38.6012L17.1677 38.156L16.5954 38.0288ZM1.97121 31.4787L0.0637048 30.8428L0.254458 32.6234L1.97121 31.4787ZM2.67063 29.6345L1.71687 27.9175L0.572375 29.3166L2.67063 29.6345ZM2.09838 33.1322L0.190869 32.6234L0.445199 34.3404L2.09838 33.1322ZM1.97121 34.8492L0.381622 34.404L0.572375 35.9303L1.97121 34.8492ZM4.57813 35.1036L4.95964 34.0861L3.9423 34.1497L4.57813 35.1036ZM2.67063 36.3118L2.92497 35.1671L1.97121 35.4215L2.67063 36.3118Z" fill="#562828"/>
<path d="M2.92502 35.6759L3.24294 34.5312L2.28919 34.722L2.92502 35.6759ZM3.30652 36.3118L4.57819 35.9939L3.87878 35.04L3.30652 36.3118ZM2.79786 37.7745L3.05219 36.6934L2.09844 36.8842L2.79786 37.7745ZM8.13887 31.5423L7.94812 28.9986L6.04061 30.0161L8.13887 31.5423ZM1.97127 36.439L0.50885 35.8031L0.826768 37.9653L1.97127 36.439ZM5.27761 33.4501L5.21402 32.0511L4.13311 32.687L5.27761 33.4501ZM3.94236 30.5884L3.87878 29.1894L2.79786 29.8253L3.94236 30.5884ZM9.34695 32.1147L8.20246 31.288L8.0117 32.4962L9.34695 32.1147ZM5.08686 38.1561L4.00594 37.3293L3.75161 38.5376L5.08686 38.1561ZM5.91345 40.3818L6.23136 39.0464L5.08686 39.3007L5.91345 40.3818ZM1.71693 40.5726L2.03485 39.2371L0.826768 39.5551L1.71693 40.5726ZM3.94236 25.1194L4.13311 27.0908L5.97703 26.2641L3.94236 25.1194Z" fill="#562828"/>
<path d="M2.67062 38.6012L0.763113 37.9653L0.953865 39.7459L2.67062 38.6012ZM5.21396 31.9875L3.30646 31.3515L3.49721 33.1322L5.21396 31.9875Z" fill="#562828"/>
</svg>
