<svg width="31" height="22" viewBox="0 0 31 22" fill="none" xmlns="http://www.w3.org/2000/svg">
<path d="M19.072 8.74003L18.3066 8.29346L18.9444 7.84689L19.072 8.74003ZM20.7305 7.97448L19.965 7.46411L20.6029 7.08134L20.7305 7.97448ZM15.6914 11.5471L14.7983 11.4195L15.1811 10.7815L15.6914 11.5471ZM20.2202 11.6747H19.3272L19.7099 10.9729L20.2202 11.6747ZM23.1543 7.84689L22.3251 7.7193L22.7078 7.08134L23.1543 7.84689ZM23.0268 6.95374L22.6441 6.18819L23.4095 6.1244L23.0268 6.95374Z" fill="#FFBCA4"/>
<path d="M22.0062 8.54864L21.6235 7.7193L22.3889 7.6555L22.0062 8.54864ZM26.6625 3.95533L26.2798 3.18978L26.9815 3.12598L26.6625 3.95533ZM28.0021 1.2759L27.6193 0.446554L28.3848 0.382764L28.0021 1.2759ZM24.6214 7.08134L23.7284 6.95374L24.1749 6.31578L24.6214 7.08134ZM24.5576 5.23125L24.0473 5.86921L23.6646 5.23125H24.5576ZM17.0946 12.504L16.5206 13.142L16.2016 12.4402L17.0946 12.504ZM13.6502 11.9298L13.0761 12.5678L12.7572 11.8022L13.6502 11.9298ZM13.714 14.7369L13.1399 15.3748L12.821 14.6093L13.714 14.7369ZM11.9918 13.2057L11.4177 13.8437L11.0988 13.0782L11.9918 13.2057ZM8.22838 15.8852L7.71808 16.3955L7.46294 15.8214L8.22838 15.8852ZM8.93003 14.4179L8.86624 15.1834L8.35594 14.8644L8.93003 14.4179ZM11.035 16.8421L10.5247 17.3525L10.2695 16.7783L11.035 16.8421Z" fill="#FFBCA4"/>
<path d="M8.99378 15.1834L8.4835 15.6938L8.22836 15.1196L8.99378 15.1834ZM25.8333 3.95534L25.3868 4.46571L25.0679 3.95534H25.8333ZM24.6851 5.29506H23.9835L24.2387 4.72089L24.6851 5.29506ZM26.0884 7.33652L25.1954 7.20893L25.6419 6.57098L26.0884 7.33652ZM24.8765 5.61404L25.1954 6.12441L24.6851 6.1882L24.8765 5.61404ZM25.5144 4.97608L25.1954 5.29506L25.0041 4.91228L25.5144 4.97608ZM20.3477 10.7815L20.1563 11.2919L19.7098 10.9091L20.3477 10.7815ZM15.0535 12.504L14.8621 13.0144L14.4794 12.6316L15.0535 12.504ZM20.9218 9.82456L20.7304 10.3349L20.3477 9.95216L20.9218 9.82456ZM22.4526 6.88996L21.9424 6.82616L22.1975 6.44339L22.4526 6.88996ZM21.8148 7.84689L21.3683 7.7193L21.5596 7.40032L21.8148 7.84689ZM23.9835 11.1643L23.9197 10.6539L24.3024 10.8453L23.9835 11.1643ZM19.4547 10.2073L19.3271 9.69697L19.7736 9.82456L19.4547 10.2073ZM17.6049 10.5901L18.0514 11.0367L17.5411 11.2281L17.6049 10.5901ZM16.1378 10.9091L16.5843 11.3557L16.1378 11.4833V10.9091ZM9.69543 13.9713L10.3971 14.0989L9.8868 14.2903L9.69543 13.9713Z" fill="#FFBCA4"/>
<path d="M17.2222 8.99523L17.1584 9.88837L16.4567 9.50559L17.2222 8.99523ZM15.9465 9.82457V10.7177L15.181 10.3349L15.9465 9.82457ZM19.5185 9.95217L18.753 10.3987L18.6893 9.56939L19.5185 9.95217ZM17.7325 11.6109L16.967 11.9936V11.1643L17.7325 11.6109ZM24.2386 7.14514L23.4732 7.65551L23.4094 6.82616L24.2386 7.14514ZM9.50406 17.4801L9.88678 17.2887L9.95055 17.7353L9.50406 17.4801ZM13.9053 13.4609L14.288 13.8437L13.9053 13.9713V13.4609ZM10.5884 13.3971L11.0349 13.142V13.5885L10.5884 13.3971ZM14.3518 11.8022L14.7983 11.6109L14.8621 11.9936L14.3518 11.8022ZM9.63162 13.9713V14.5455L9.18513 14.2903L9.63162 13.9713ZM25.323 9.05902V8.67625L25.6419 8.80384L25.323 9.05902ZM24.9403 10.7815L25.2592 10.7177L25.1954 10.9729L24.9403 10.7815ZM23.2819 8.61245L23.4732 8.86763H23.1543L23.2819 8.61245ZM18.0514 12.6316L18.6893 12.5678L18.5617 13.0782L18.0514 12.6316ZM15.3086 12.3764L15.4999 12.823H15.0534L15.3086 12.3764ZM17.9876 9.50559L17.6049 9.82457L17.4773 9.378L17.9876 9.50559Z" fill="#FFBCA4"/>
<path d="M8.4197 17.9904L8.80242 17.6715L8.93 18.118L8.4197 17.9904ZM7.20777 17.1611L7.59049 16.8421L7.65428 17.2887L7.20777 17.1611ZM5.93204 17.1611L6.31476 17.4163L5.99583 17.6077L5.93204 17.1611ZM9.3127 14.2903L9.18514 14.6731L8.93 14.4179L9.3127 14.2903ZM11.6728 14.992L11.3539 15.2472L11.2901 14.8644L11.6728 14.992ZM14.9897 15.3748H15.4362L15.3086 15.7576L14.9897 15.3748ZM18.179 11.4833L19.0082 11.4195L18.753 12.0574L18.179 11.4833ZM14.1604 16.3955L14.607 16.3318L14.5432 16.7145L14.1604 16.3955Z" fill="#FFBCA4"/>
<path d="M14.7345 15.311H15.2448L15.1172 15.6938L14.7345 15.311ZM9.7592 17.6077L10.0781 18.3732H9.31269L9.7592 17.6077ZM4.65632 17.3525V18.1818L3.95468 17.7991L4.65632 17.3525Z" fill="#FFBCA4"/>
<path d="M5.35801 16.9059V17.7353L4.65636 17.3525L5.35801 16.9059ZM7.33538 17.7353L7.65431 18.5646L6.88887 18.5008L7.33538 17.7353ZM6.44236 17.2249L6.82508 17.9904H6.05966L6.44236 17.2249ZM9.31273 15.3748L9.63166 16.1404H8.86624L9.31273 15.3748ZM23.4733 5.86923L22.8992 6.06062V5.55025L23.4733 5.86923ZM26.216 5.48646L25.8971 5.10368L26.3436 5.03988L26.216 5.48646ZM24.2387 8.93143L24.5576 8.54865L24.749 8.99523L24.2387 8.93143ZM24.6852 7.52792L25.323 7.59171L25.0679 8.03829L24.6852 7.52792ZM21.9424 6.69858L22.0699 7.20895L21.6235 7.08136L21.9424 6.69858ZM25.2593 4.46572L24.8128 4.65711V4.27433L25.2593 4.46572ZM28.6399 6.82617L28.5761 6.3158L29.0226 6.50719L28.6399 6.82617ZM29.9794 4.7209V4.40192L30.2984 4.52952L29.9794 4.7209ZM29.5967 6.4434L29.9156 6.3796L29.8519 6.63478L29.5967 6.4434ZM28.0021 4.33813L28.1296 4.59331L27.8745 4.52952L28.0021 4.33813ZM28.1296 1.59491L27.5556 1.7863L27.6193 1.27593L28.1296 1.59491ZM30.8724 1.21213L30.6173 0.829358L31 0.765558L30.8724 1.21213Z" fill="#FFBCA4"/>
<path d="M28.9589 4.5933L29.2778 4.33812L29.4692 4.6571L28.9589 4.5933ZM29.4054 3.2536L29.9795 3.31739L29.7243 3.76395L29.4054 3.2536ZM26.6626 2.42425L26.7902 2.93462L26.3436 2.80702L26.6626 2.42425ZM29.9795 0.19139L29.533 0.382779L29.4692 0L29.9795 0.19139ZM2.7428 18.6284L3.12552 18.437V18.8198L2.7428 18.6284ZM21.177 8.61245L20.5391 9.76078L19.9013 8.80384L21.177 8.61245ZM24.6214 3.76395L24.749 4.97608L23.6646 4.5933L24.6214 3.76395ZM25.8971 2.55184L26.0247 3.82775L24.9403 3.44498L25.8971 2.55184ZM26.7902 1.46731L27.0453 2.42425L26.1523 2.23286L26.7902 1.46731ZM23.4733 4.6571V5.93302L22.4527 5.42265L23.4733 4.6571ZM22.4527 5.48645L22.3889 6.76237L21.3683 6.252L22.4527 5.48645ZM21.177 6.252V7.59171L20.0926 7.08135L21.177 6.252ZM20.7305 8.03829L19.7099 8.86763L19.4548 7.71931L20.7305 8.03829ZM17.4136 10.2073L16.393 10.9729L16.1379 9.88837L17.4136 10.2073ZM15.6276 11.2281L14.5432 11.9298L14.3519 10.9091L15.6276 11.2281ZM18.3066 8.29347L18.179 9.56939L17.2222 8.99523L18.3066 8.29347Z" fill="#FFBCA4"/>
<path d="M9.88691 14.0989L10.5885 15.1834L9.4404 15.311L9.88691 14.0989ZM13.8416 12.7592L13.14 13.8437L12.5021 12.8868L13.8416 12.7592ZM4.59265 18.1818L3.891 19.2026L3.25314 18.3094L4.59265 18.1818ZM2.61527 19.2026L2.23257 20.0957L1.65848 19.3939L2.61527 19.2026ZM3.63586 19.2664L3.12557 20.0957L2.61527 19.3302L3.63586 19.2664ZM18.817 7.84689L19.6462 7.40032L19.71 8.22966L18.817 7.84689ZM18.1791 8.93142L19.0083 8.48485L19.0721 9.3142L18.1791 8.93142ZM13.5865 12.3764L12.8211 11.9298L13.4589 11.5471L13.5865 12.3764ZM15.0536 11.6746L14.3519 11.1643L14.926 10.7815L15.0536 11.6746ZM11.9918 13.9713L12.4384 14.3541L11.9281 14.5455L11.9918 13.9713ZM10.9075 14.4817L11.354 14.9282L10.8437 15.1196L10.9075 14.4817ZM11.8643 12.5678L11.8005 13.4609L11.035 13.0782L11.8643 12.5678ZM10.5885 13.3333V14.2265L9.88691 13.8437L10.5885 13.3333ZM12.247 15.0558L11.4178 15.5024V14.6731L12.247 15.0558ZM12.7573 16.3955L13.3314 16.3318L13.2038 16.8421L12.7573 16.3955ZM10.0145 16.1404L10.2058 16.6507L9.75933 16.5869L10.0145 16.1404Z" fill="#FFBCA4"/>
<path d="M12.7572 13.2695L12.3745 13.5247L12.3107 13.1419L12.7572 13.2695ZM15.3087 11.6746L14.2243 12.4402L14.033 11.3556L15.3087 11.6746ZM11.8004 13.5247L10.7161 14.2903L10.5247 13.3333L11.8004 13.5247ZM12.8848 11.866L12.7572 13.2057L11.7367 12.6316L12.8848 11.866ZM7.33542 15.5662L7.20784 16.9059L6.18726 16.3317L7.33542 15.5662Z" fill="#FFBCA4"/>
<path d="M8.16464 14.992L8.03706 16.0766L7.27164 15.63L8.16464 14.992ZM6.18727 16.3955L6.05971 17.4163L5.29427 16.9697L6.18727 16.3955ZM13.3313 11.6109L14.2243 10.9729V11.8022L13.3313 11.6109ZM12.6297 12.504L13.4589 12.0574L13.5227 12.8868L12.6297 12.504ZM18.6894 13.3333L18.8169 13.7799L18.3704 13.7161L18.6894 13.3333ZM6.95271 21.0526H7.3992L7.20785 21.3716L6.95271 21.0526ZM5.10292 20.6699L5.16669 20.9888L4.84776 20.9251L5.10292 20.6699ZM7.33543 18.8836L7.0165 19.075V18.8198L7.33543 18.8836ZM1.59468 20.2871L1.02059 20.7337L0.893032 20.0957L1.59468 20.2871ZM3.10081e-05 20.5423L0.446522 20.2871V20.7337L3.10081e-05 20.5423ZM12.3107 19.0112H12.7573L12.5659 19.3302L12.3107 19.0112ZM10.3972 18.6922L10.5247 18.9474H10.2058L10.3972 18.6922ZM12.6297 16.9059L12.3107 17.0973V16.7783L12.6297 16.9059Z" fill="#FFBCA4"/>
</svg>
