<svg width="40" height="28" viewBox="0 0 40 28" fill="none" xmlns="http://www.w3.org/2000/svg">
<path d="M7.5815 0.351072L8.63482 1.77743L9.02978 0.0877602L7.5815 0.351072ZM9.2712 4.08151L9.35893 3.88399L8.81034 3.99372L8.92009 3.20375L8.15205 3.57678L8.81034 3.99372L8.52506 4.10344L8.98592 4.67396L9.26022 4.07053L9.86365 4.5862L9.88562 3.75234L9.2712 4.08151ZM14.7571 2.27114L14.5157 3.80721L15.9859 2.92945L14.7571 2.27114ZM17.0611 3.49997L16.9515 4.26801L17.6865 3.82915L17.0611 3.49997ZM22.7335 5.45298L22.953 6.94513L23.9405 5.79311L22.7335 5.45298ZM19.3652 9.42477L18.5643 9.51253L19.1458 10.0611L19.3652 9.42477ZM17.1708 12.1458L16.5674 12.3652L17.0611 12.6943L17.1708 12.1458ZM12.8699 15.1301L12.2665 15.3495L12.7492 15.6787L12.8699 15.1301Z" fill="#8FC9C9"/>
<path d="M10.105 17.6426L9.51251 17.884L10.0172 18.1802L10.105 17.6426ZM15.3715 9.68808L14.779 9.92946L15.2837 10.2367L15.3715 9.68808ZM17.0172 7.74609L16.4247 7.98747L16.9294 8.29467L17.0172 7.74609ZM14.2413 3.26957L14.2085 3.44513L14.1207 3.99372L14.3072 4.02663L14.1975 4.75077L15.2179 4.16927L14.7351 3.7304L14.2413 3.26957ZM17.8401 4.54231L17.4012 4.47648L17.5987 5.11283L17.7962 4.83853L18.8056 5.16771L18.2351 4.01565L17.8401 4.54231ZM25.7179 5.13479L25.5533 6.9232L27.199 5.99059L25.7179 5.13479ZM9.50152 1.51408L10.0501 1.18494L9.31502 0.932577L9.40281 1.70062L8.63478 2.42476L10.0611 2.7978L9.50152 1.51408ZM18.9373 3.23666V4.91534L20.221 3.86206L18.9373 3.23666ZM24.2366 4.27899L22.7774 4.91534L24.2038 6.0674L24.2366 4.27899ZM16.9185 2.67709L17.1379 2.60031L16.6661 2.08464L16.337 2.69905L15.6348 2.91847L16.3699 3.81816L16.9185 2.67709ZM10.5548 6.2978L10.6865 4.98117L9.326 5.28838L10.5548 6.2978ZM12.047 9.06268L12.1128 8.40437L11.3229 8.547L12.047 9.06268ZM25.6849 3.85108L24.5109 3.92789L25.3448 4.89341L25.6849 3.85108ZM14.1426 5.57366L14.4718 4.95924L13.8134 4.84952L14.1426 5.57366ZM24.6317 5.61755L25.5642 5.68338L25.3009 4.95924L24.6317 5.61755ZM21.7571 3.81816L21.1207 3.59875V4.36675L21.7571 3.81816Z" fill="#8FC9C9"/>
<path d="M16.6223 9.96237L17.4123 9.85265L16.8089 9.41378L16.6223 9.96237ZM15.9201 6.70375L16.7211 6.59402L16.1176 6.15516L15.9201 6.70375ZM14.011 0.142602L12.8261 0.0109461L13.4185 1.56896L14.011 0.142602ZM10.1709 2.94043L10.3903 3.84012L11.0157 3.24764L10.1709 2.94043ZM9.18345 6.72568L9.49063 7.89967L10.2916 7.13166L9.18345 6.72568ZM13.3857 2.22727L12.9687 0.976469L12.5847 1.48116L11.7838 0.735088L11.5643 1.81034L12.475 1.59089L12.1897 2.21629L13.3857 2.22727ZM11.7399 5.01408L10.4013 4.38871L10.5769 5.85893L11.7399 5.01408ZM11.9264 10.2586L12.3652 10.3025L12.1897 9.8417L11.9264 10.2586ZM13.2979 8.13007L13.7367 8.17396L13.5612 7.71317L13.2979 8.13007ZM17.7086 15.3715L18.2242 15.174L17.7195 14.9216L17.7086 15.3715ZM21.0001 18.663L21.4829 18.4107L20.9562 18.2131L21.0001 18.663ZM7.97651 16.9295L8.43738 16.6003L7.88879 16.4686L7.97651 16.9295ZM19.2117 7.49372L19.7054 7.24135L19.1787 7.04387L19.2117 7.49372ZM16.4906 7.42789L16.9734 7.17553L16.4468 6.97804L16.4906 7.42789ZM17.4562 2.71003L16.9295 1.17395L16.6772 1.34951L16.2383 1.28368L16.4029 1.64577L15.8543 2.22727L17.4562 2.71003ZM22.0314 4.94825L22.4922 4.13635L21.6145 4.10344L22.0314 4.94825Z" fill="#8FC9C9"/>
<path d="M21.8888 9.08465L22.7335 9.32603L22.558 8.70063L21.8888 9.08465ZM21.4279 6.26489L22.3057 6.40752L22.0643 5.81504L21.4279 6.26489ZM12.2116 5.2116L12.2445 4.33384L11.4765 4.88243L12.2116 5.2116ZM20.8793 8.83228L21.2962 8.15204H20.4953L20.8793 8.83228ZM19.6724 6.44044L20.0016 5.72728L19.2116 5.81504L19.6724 6.44044ZM18.4875 3.47804L17.6317 3.3354L17.9389 4.16927L18.4875 3.47804ZM19.5408 4.33384L19.2116 5.40909L20.243 4.93731L19.5408 4.33384ZM20.9451 6.30878L20.7258 7.05486L21.4499 6.72568L20.9451 6.30878ZM21.8558 6.81348L21.5486 7.52664L22.2947 7.28526L21.8558 6.81348ZM22.953 7.5047L22.6458 8.20688L23.3919 7.9655L22.953 7.5047ZM2.98432 7.76802L3.75236 7.69121L3.20377 7.23041L2.98432 7.76802ZM10.3354 8.03133V8.47023L10.884 8.25078L10.3354 8.03133ZM9.19439 7.28526L8.49218 7.65829L9.23826 7.94357L9.19439 7.28526ZM14.0219 6.67084L13.2978 6.99998L14.0219 7.32915V6.67084ZM7.59249 7.39498L6.91224 7.81191L7.68028 8.06424L7.59249 7.39498ZM11.7179 5.77114L10.7634 6.27587L11.7727 6.68182L11.7179 5.77114ZM15.5251 5.4859L14.4499 5.97961L15.5251 6.49528V5.4859ZM15.3386 11.7179L14.2414 12.1567L15.2947 12.7053L15.3386 11.7179ZM8.95298 11.9044L7.91065 12.453L9.00782 12.8919L8.95298 11.9044ZM11.8495 13.1113L10.8072 13.6599L11.9044 14.0987L11.8495 13.1113ZM10.0721 9.27115L10.4013 10.3464L11.0157 9.4028L10.0721 9.27115ZM7.89973 5.9028L6.78059 6.58308L8.03139 6.99998L7.89973 5.9028ZM5.02513 5.73823L5.71629 6.8793L6.13322 5.59559L5.02513 5.73823ZM5.66144 0.965492L7.37304 2.94043L7.4828 0.449816L5.66144 0.965492ZM17.9499 8.8652L18.8057 9.11756L18.3888 8.26176L17.9499 8.8652ZM17.8402 10.884L18.6631 11.2132L18.3338 10.3354L17.8402 10.884ZM17.2258 6.56111L18.0705 6.81348L17.6536 5.96863L17.2258 6.56111ZM17.906 5.85894L19.2555 6.2539L18.5972 4.90439L17.906 5.85894ZM5.85893 8.93102L7.2304 9.23823L6.46243 7.92164L5.85893 8.93102ZM13.0126 3.11599L13.0674 4.12537L14.0549 3.51096L13.0126 3.11599ZM13.5283 4.12537L12.8151 4.45455L13.4734 5.11283L13.5283 4.12537ZM14.9216 1.49215L13.9342 2.11755L15.0314 2.85264L14.9216 1.49215Z" fill="#8FC9C9"/>
<path d="M1.97488 5.05798L1.42629 4.59715L1.28365 5.36519L1.97488 5.05798ZM22.0862 5.00314L22.9639 5.13479L22.6348 4.42163L22.0862 5.00314ZM25.3229 5.07991L26.9028 4.60813L25.8056 3.7304L25.3229 5.07991ZM24.3902 6.28682L24.3354 7.3401L25.257 7.05486L24.3902 6.28682ZM22.163 5.78212L22.7883 5.34326L22.0642 5.01409L22.163 5.78212ZM15.5031 5.61755L15.8323 5.00314L15.0642 4.89341L15.5031 5.61755ZM21.6473 2.89654L21.7131 3.22568L21.4059 3.06111L21.2194 3.47804L21.6912 3.3354V3.99372L22.7225 3.15985L21.6473 2.89654ZM20.188 4.93731L21.0658 5.06896L20.8464 4.36675L20.188 4.93731ZM8.83225 9.08465L9.32599 8.57992L8.66764 8.62382L8.83225 9.08465ZM19.4201 12.3542L19.4639 11.8056L18.9482 12.0031L19.4201 12.3542ZM20.2978 7.63636L20.2758 7.08777L19.7931 7.3401L20.2978 7.63636ZM19.3103 7.1975L19.2884 6.64891L18.8056 6.90124L19.3103 7.1975Z" fill="#8FC9C9"/>
<path d="M10.3244 10.9937L10.7633 10.8182L10.3573 10.5549L10.3244 10.9937ZM13.199 10.1818L14.3291 9.74292L13.2978 9.08464L13.199 10.1818ZM17.8291 7.1097L18.663 7.98746L18.8824 6.78056L17.8291 7.1097ZM20.2429 10.7523L20.978 11.7179L21.3072 10.5549L20.2429 10.7523ZM15.8871 11.279L16.721 12.1567L16.9404 10.9498L15.8871 11.279ZM20.967 2.67709L20.0673 2.7539L20.5062 2.16145L19.7382 2.13948L19.9796 2.73197L19.5407 2.77586L20.4185 4.24608L20.967 2.67709ZM2.72094 2.34795L2.78677 3.55485L3.96076 2.94043L2.72094 2.34795ZM5.7053 2.83071H5.92469L5.57365 2.39184L6.23193 2.13948L5.5407 1.6238L5.58456 2.39184L5.23346 2.08463L5.05794 2.85264L5.60653 2.81973L5.5407 3.58776L6.27579 3.105L5.7053 2.83071ZM5.1018 3.85108L5.79303 4.4655L5.9796 3.80721L5.1018 3.85108ZM6.92316 3.34638L6.15512 3.39028L6.73665 4.01565L6.92316 3.34638ZM0.88867 3.21473L1.56892 3.51095L1.53597 2.85264L0.88867 3.21473ZM4.32285 2.96236L3.57677 3.44513L4.36671 3.7304L4.32285 2.96236ZM7.10966 10.6755L7.65825 10.7853L7.32911 10.3464L7.10966 10.6755ZM13.8683 18.3339L14.3949 18.5094L14.1207 18.0266L13.8683 18.3339ZM15.4811 20.9122L16.0297 21.0548L15.7226 20.616L15.4811 20.9122ZM14.5814 11.0596V11.4984L15.0203 11.1693L14.5814 11.0596ZM15.163 8.20688L15.141 8.64575L15.6018 8.34952L15.163 8.20688ZM12.3322 12.7602L12.7711 12.9796L12.6614 12.5408L12.3322 12.7602ZM9.58929 14.8997L10.0282 15.0972L9.88555 14.6583L9.58929 14.8997ZM11.0376 7.52663L11.4764 7.74608L11.3667 7.30719L11.0376 7.52663ZM12.3761 2.66614L12.8589 3.30249L13.1441 2.55641L12.2884 2.60031L11.5642 1.92006L11.1912 3.1489L12.3761 2.66614ZM15.8871 3.26957L15.0642 4.09246L16.2492 4.49841L16.3589 4.71786L16.8307 4.20218L16.1943 3.93887L15.8871 3.26957ZM11.663 5.13479L11.5532 5.9028L12.2884 5.46393L11.663 5.13479ZM13.8573 5.52976L13.7476 6.2978L14.4827 5.85893L13.8573 5.52976ZM14.5156 6.99998L14.1865 6.94513L14.3291 7.41691L14.4718 7.19749L15.2068 7.43888L14.7899 6.58308L14.5156 6.99998ZM4.39966 10.6426L4.07045 10.6207L4.268 11.0596L4.37769 10.8401L5.14573 10.9827L4.63002 10.1928L4.39966 10.6426ZM15.9419 5.35421L15.6128 5.31034L15.7554 5.77114L15.8981 5.57366L16.6332 5.79311L16.2162 4.94826L15.9419 5.35421ZM13.7257 4.69593L13.9451 4.6301L13.4733 4.10344L13.1441 4.71786L12.4419 4.93731L13.188 5.83697L13.7257 4.69593Z" fill="#8FC9C9"/>
<path d="M12.3433 7.65829L12.6725 7.04387L11.9044 6.93415L12.3433 7.65829ZM12.7603 5.28838L11.9374 6.11126L13.1223 6.51721L13.2101 6.73666L13.6819 6.21L13.0456 5.95767L12.7603 5.28838ZM17.7195 4.84951L16.5894 4.55329L16.8308 5.78212L16.6881 5.97961L17.3794 6.12224L17.2697 5.442L17.7195 4.84951ZM21.1646 4.76175L20.3418 5.58464L21.5267 5.99059L21.6364 6.21L22.1082 5.68338L21.4499 5.43102L21.1646 4.76175ZM11.2462 3.40123L12.4202 3.9169L12.069 2.57834L11.2462 3.40123Z" fill="#8FC9C9"/>
<path d="M10.0941 3.92789L11.7399 4.76176L11.5863 3.29154L10.0941 3.92789ZM14.3402 2.50157L13.7916 2.57835L13.4624 2.44669L13.5722 2.66614L13.4624 2.77587L13.6819 2.90752L13.9891 3.23666L14.3402 2.50157ZM3.36842 2.33697L3.33547 2.44669L3.88406 2.85264L4.34486 3.22568L4.8167 1.2727L3.127 1.90909L3.36842 2.33697Z" fill="#8FC9C9"/>
<path d="M5.05806 2.43574L5.23357 1.77743L4.4875 2.04074L5.05806 2.43574ZM7.97652 3.4232L7.29628 3.0282L7.34021 3.79624L7.97652 3.4232ZM1.78848 3.36832L1.84333 4.44357L2.88566 3.85108L1.78848 3.36832ZM2.20542 8.0094L1.65683 8.15204L2.00793 8.56897L2.20542 8.0094ZM19.2117 2.60031L18.0706 1.64577L17.6318 3.26958L19.2117 2.60031ZM5.13487 7.64735L5.28849 8.41535L5.80413 7.84483L5.13487 7.64735ZM4.14738 6.08934L4.301 6.85738L4.81671 6.28682L4.14738 6.08934ZM7.15364 4.35581L6.79162 3.71942L6.50634 4.48746L7.15364 4.35581Z" fill="#8FC9C9"/>
<path d="M4.73982 3.94982L4.36675 5.28838L5.46393 5.11283L4.73982 3.94982ZM0.241347 3.51095L0 4.38872L0.713126 4.27899L0.241347 3.51095ZM4.05958 4.02663L2.77583 4.21316L3.32442 5.09089L4.05958 4.02663ZM7.384 5.26645L6.44044 3.99371L6.07835 5.55172L7.384 5.26645ZM8.61283 3.40123L9.09559 2.06267L7.99841 2.22727L8.41535 1.65672L7.20848 1.50313L7.46081 2.27113L6.82442 2.63322L7.61443 2.91847L7.60344 2.69905L7.91062 2.36988L8.61283 3.40123ZM9.92946 3.58776L9.27118 3.03917V3.9169L9.92946 3.58776ZM2.39184 3.03917L2.04074 2.60031L1.85424 3.1489L2.39184 3.03917ZM2.46865 5.40909L2.71 5.84795L2.90749 5.40909H2.46865Z" fill="#8FC9C9"/>
<path d="M13.989 8.78838L14.4279 9.22725V8.56897L13.989 8.78838ZM15.1959 14.8997L15.58 15.3934L15.6567 14.7351L15.1959 14.8997ZM6.08933 2.90752L6.85737 2.86362L6.60497 2.20531L6.08933 2.90752ZM4.69589 2.89654L4.72884 3.66457L5.36522 3.19276L4.69589 2.89654ZM7.00001 5.68338L8.64578 5.59559L7.72412 3.7304L7.00001 5.68338ZM9.30406 0.0877596L12.815 0L10.7853 2.91847L9.30406 0.0877596ZM14.1865 0.120674L16.6222 0.427883L15.2727 2.1285L14.1865 0.120674ZM18.5972 0.888713L20.6489 1.54699L18.6191 3.80721L18.5972 0.888713ZM22.6238 2.13948L24.895 3.3793L22.9968 4.69593L22.6238 2.13948ZM26.826 4.46549L28.3621 5.69433L26.1677 6.51721L26.826 4.46549Z" fill="#8FC9C9"/>
<path d="M16.732 0.471777L18.4107 0.800917L17.3135 1.67868L16.732 0.471777ZM20.9781 1.56896L22.7336 2.16144L21.0001 3.21473L20.9781 1.56896ZM30.8527 25.5752L30.6113 24.9828L30.3151 25.4875L30.8527 25.5752ZM25.4985 26.4859L25.2022 25.9154L24.9499 26.464L25.4985 26.4859ZM25.1912 20.1552L24.9718 19.5517L24.6426 20.0455L25.1912 20.1552ZM24.9937 21.0878L25.2461 21.5705L25.4436 21.0439L24.9937 21.0878ZM34.1662 24.2367L34.0345 25.0047L34.627 24.6207L34.1662 24.2367ZM23.1395 10.3903L22.7007 9.29311L22.1301 10.3354L23.1395 10.3903ZM24.0173 14.9984L23.4467 13.8244L22.8982 15.0313L24.0173 14.9984ZM37.7649 25.7508L37.5016 24.8291L36.953 25.6301L37.7649 25.7508ZM36.3166 23.5784L35.3511 23.8636L36.196 24.4122L36.3166 23.5784ZM19.1787 13.1113L18.7069 14.4279L20.0894 13.8464L19.1787 13.1113ZM37.0188 23.9953L37.6003 23.6113L36.8982 23.2602L37.0188 23.9953ZM39.0816 23.4467L38.6208 24.0172L39.279 24.1599L39.0816 23.4467ZM36.5141 26.5407L36.2947 27.0564L36.7994 26.837L36.5141 26.5407ZM20.7148 27.4514L20.6599 28L21.0659 27.627L20.7148 27.4514ZM28.395 26.9577L28.1207 27.3636L28.5596 27.3088L28.395 26.9577ZM38.7085 24.2586L37.6552 24.0392L37.9514 25.2022L38.7085 24.2586ZM34.1223 23.3151L34.1333 22.7665L33.6285 22.9859L34.1223 23.3151ZM34.1881 26.8699L33.4201 26.8918L33.9138 27.4953L34.1881 26.8699ZM32.8715 26.0799L33.5298 25.9263L33.1349 25.2351L32.8715 26.0799ZM32.1254 22.3166L31.116 22.9969L32.1254 23.4906V22.3166ZM23.9515 23.6332L24.4123 23.9295L24.3245 23.3809L23.9515 23.6332ZM29.6897 16.6113L30.0408 17.3025L30.2822 16.6442L29.6897 16.6113ZM31.2587 23.7978L30.8417 23.9514L31.2257 24.3903L31.2587 23.7978ZM31.5878 22.4812L31.0063 21.9326L30.9734 22.7336L31.5878 22.4812ZM31.2257 20.7038L30.6442 20.1552L30.6113 20.9561L31.2257 20.7038ZM28.9217 19.848L29.0863 21.2524L30.0737 20.1113L28.9217 19.848ZM29.7775 22.7445L30.4138 23.0408L30.1505 22.4263L29.7775 22.7445ZM28.4609 24.7853L28.79 25.1583L28.8997 24.6756L28.4609 24.7853ZM27.7148 21.6693L27.7916 22.2179L28.0988 21.779L27.7148 21.6693ZM25.301 22.6567L25.1912 23.1395L25.5863 22.9201L25.301 22.6567ZM31.9718 24.3464L31.906 24.8401L32.29 24.5878L31.9718 24.3464ZM26.9028 18.4655L26.837 18.1364L26.453 18.4326L26.6725 18.4984L26.7273 19.2665L27.3637 18.5643L26.9028 18.4655ZM30.2822 18.4545L29.6019 18.8056L30.2931 19.1348L30.2822 18.4545ZM35.4719 25.8276L34.7038 25.7727L35.1207 26.431L35.4719 25.8276ZM38.9828 22.7555L38.2148 22.2837L38.138 23.0079L38.9828 22.7555ZM39.3887 27.3636L39.4985 26.6285L38.9279 26.7931L39.3887 27.3636ZM38.906 24.9498L39.3997 24.7304L38.9169 24.4013L38.906 24.9498ZM36.5799 24.3793L36.0972 24.489L36.4812 24.7962L36.5799 24.3793ZM26.7493 8.3166L26.2555 8.90909H27.1333L26.7493 8.3166ZM30.8637 12.7602L30.6442 14.2523L31.9169 13.4514L30.8637 12.7602ZM25.7618 14.5925L25.0267 14.2633L25.2461 15.0313L25.7618 14.5925ZM23.3919 17.3135H22.7336L23.0847 17.7853L23.3919 17.3135ZM22.9091 12.8589L22.2508 12.8699L22.6129 13.3307L22.9091 12.8589ZM24.5768 11.9592L23.9515 11.8495L24.2367 12.3652L24.5768 11.9592ZM26.9028 9.60032L26.5518 9.31504L26.4091 9.97335L26.7053 9.8417L27.4295 10.6097L27.5063 9.32602L26.9028 9.60032ZM33.6834 13.1662L32.9812 14.8119L34.8465 14.4279L33.6834 13.1662Z" fill="#8FC9C9"/>
<path d="M28.5047 9.01882L27.6709 10.4781L29.3166 10.2147L28.5047 9.01882ZM32.6411 12.069L31.0612 12.2445L32.0816 13.7806L32.6411 12.069ZM27.0236 7.51565L27.2649 7.57053L27.1223 6.8793L26.5298 7.25234L25.8166 7.08777L26.0032 8.2398L27.0236 7.51565ZM33.6944 11.7947L32.5314 11.5533L33.08 12.7053L33.6944 11.7947Z" fill="#8FC9C9"/>
<path d="M32.2022 13.21L33.1128 13.4295L32.9592 12.6614L32.2022 13.21ZM30.732 10.7304L30.2931 10.2257L29.8871 10.884L30.732 10.7304ZM23.9733 13.5831L24.7414 13.7806L24.3464 13.1662L23.9733 13.5831ZM24.1598 10.511L24.895 10.8401L24.5877 10.1818L24.1598 10.511ZM23.8636 20.0893L24.4122 20.0455L24.0063 19.6614L23.8636 20.0893ZM25.0376 23.4248L25.5862 23.3809L25.1803 22.9969L25.0376 23.4248ZM26.6504 12.8919L27.199 12.9138L26.8479 12.4749L26.6504 12.8919ZM24.3244 11.4436L24.873 11.4655L24.5219 11.0266L24.3244 11.4436ZM27.5392 7.86676L27.8464 6.27587L27.5392 6.30878L27.21 6.0235L27.1662 6.41847L26.3981 6.63792L27.5392 7.86676ZM30.4247 11.8824L31.2476 11.4216L30.5016 10.9498L30.4247 11.8824ZM28.5595 16.2053L29.2179 16.7758L29.3276 16.1505L28.5595 16.2053ZM29.2179 12.7163L29.8762 13.2649L29.9859 12.6395L29.2179 12.7163ZM27.7147 15.0752L28.373 14.6364L27.6489 14.3072L27.7147 15.0752ZM27.5282 12.2006L28.1865 11.7398L27.4514 11.4107L27.5282 12.2006ZM28.0219 9.01881L27.3417 8.47022L27.1881 9.34795L28.0219 9.01881ZM28.4827 10.2915L27.6598 11.0596L28.79 11.1693L28.4827 10.2915ZM28.779 12.4639L28.2084 12.9906L28.9765 13.0674L28.779 12.4639ZM29.4373 13.616L28.8668 14.1316L29.6567 14.2194L29.4373 13.616ZM30.4686 14.757L29.953 15.3385H30.7429L30.4686 14.757ZM24.4341 8.42633L23.2492 8.49216L24.0721 9.36989L24.4341 8.42633ZM24.8072 13.3856L25.4106 14.0219L25.4765 13.0784L24.8072 13.3856ZM24.1269 15.9969L24.7084 16.6552L24.8182 15.7116L24.1269 15.9969ZM25.3338 11.0266L25.9482 11.685L26.0141 10.7414L25.3338 11.0266ZM26.2993 10.7523L27.2649 11.7727L27.3746 10.2806L26.2993 10.7523ZM30.4357 11.9592L31.116 12.5078L31.1928 11.7179L30.4357 11.9592ZM33.1787 12.9248L34.8244 12.815L33.9467 11.7179L33.1787 12.9248Z" fill="#8FC9C9"/>
<path d="M31.9827 13.8793L31.6865 14.8887L32.6521 14.8229L31.9827 13.8793ZM30.0737 12.6724L30.8417 12.5956L30.4028 11.9373L30.0737 12.6724ZM31.105 9.87462L30.9953 10.2038L30.8088 9.91848L30.4467 10.1818L30.9295 10.2915L30.6003 10.873L31.9169 10.6755L31.105 9.87462ZM28.801 10.884L29.4812 11.4326L29.6457 10.7194L28.801 10.884ZM24.906 18.0705L25.1912 17.5878L24.6426 17.5439L24.906 18.0705ZM27.5392 13.2649L27.8025 12.7712L27.2539 12.7382L27.5392 13.2649ZM26.837 12.6066L27.1003 12.1128L26.5517 12.0909L26.837 12.6066Z" fill="#8FC9C9"/>
<path d="M25.6192 11.8276L25.8935 13.0125L26.6615 12.0799L25.6192 11.8276ZM25.9922 15.7774L26.2336 16.9624L27.0455 16.0627L25.9922 15.7774ZM32.4875 17.0721L32.6302 16.3041L31.9389 16.6991L32.4875 17.0721ZM31.5 19.9686L31.0612 20.7367H31.7195L31.5 19.9686ZM31.9828 19.069L32.5314 19.6395L32.7508 18.8715L31.9828 19.069ZM32.7508 21.4169L32.1474 20.9232L32.1913 21.7132L32.7508 21.4169ZM33.4092 15.9639L32.8606 16.6552L33.7932 16.5784L33.4092 15.9639ZM30.8198 15.6897L30.348 16.4248L31.2697 16.2712L30.8198 15.6897ZM28.6913 16.6771L29.218 16.8746L29.174 16.326L28.6913 16.6771ZM31.4342 17.3793L30.3042 17.8401L31.3465 18.4655L31.4342 17.3793ZM19.5847 14.9655L19.9138 16.1395L20.649 15.152L19.5847 14.9655ZM30.5565 9.54544L29.7336 9.16142L30.3919 8.8652L29.7336 8.45925L29.6239 9.0956L29.218 8.89811V10.6097L30.5565 9.54544ZM18.3778 20.9342L18.8166 21.2853L18.707 20.7367L18.3778 20.9342ZM19.2555 23.7649L19.7163 24.0941L19.5847 23.5455L19.2555 23.7649ZM23.2603 11.4216L23.0737 11.8166L23.6223 11.7069L23.2603 11.4216ZM25.8935 7.52664L24.7634 7.83385L25.5863 8.77744L25.5533 9.01882L26.2117 8.79937L25.7728 8.25078L25.8935 7.52664ZM24.906 9.36989L24.6427 9.15048L24.533 9.63324L24.7524 9.52351L25.2791 10.105L25.3339 9.16142L24.906 9.36989ZM26.6615 9.80876L25.8276 8.98587L25.4327 10.1708L25.2132 10.2806L25.7398 10.7523L26.0032 10.094L26.6615 9.80876ZM29.7884 11.2351L28.6584 11.5313L29.4703 12.4859L29.4374 12.7273L30.0957 12.5078L29.6788 11.9593L29.7884 11.2351ZM29.0972 8.62382L28.5816 7.21943L27.3966 8.40437L29.0972 8.62382Z" fill="#8FC9C9"/>
<path d="M21.6693 18.4326L21.8888 19.0141L22.1521 18.3997L21.6693 18.4326ZM29.4592 6.58308L30.9953 8.11912L28.0988 9.06268L29.4592 6.58308ZM32.0925 9.60032L33.9028 11.6081L31.3793 12.0909L32.0925 9.60032ZM34.8355 13.1332L35.79 14.8558L33.453 14.779L34.8355 13.1332Z" fill="#8FC9C9"/>
<path d="M28.1866 5.57366L29.4813 6.69277L28.0988 6.91222L28.1866 5.57366ZM31.2148 8.40436L32.4217 9.80875L30.381 9.83072L31.2148 8.40436ZM35.4719 20.989L34.5941 22.1959L36.0972 22.0862L35.4719 20.989ZM37.8198 22.4483L36.5251 23.6771L38.3904 24.0611L37.8198 22.4483Z" fill="#8FC9C9"/>
<path d="M34.3417 16.8966L33.1348 18.0705L34.7806 18.268L34.3417 16.8966ZM37.3809 21.2194L35.8997 20.627L36.0862 22.4593L37.3809 21.2194ZM38.4122 21.5047L37.4248 20.8464L37.5126 22.1191L38.4122 21.5047Z" fill="#8FC9C9"/>
<path d="M36.5909 21.9765L37.3041 22.5799L37.5235 21.8339L36.5909 21.9765ZM35.8778 19.3432L35.5925 18.7398L35.0219 19.2884L35.8778 19.3432ZM35.2743 20.3636L36.174 20.1442L35.5925 19.4859L35.2743 20.3636ZM32.4216 23.4686L32.9263 24.1818L33.1897 23.6003L32.4216 23.4686ZM33.8919 20.8025L34.3855 21.5267L34.6489 20.9451L33.8919 20.8025ZM31.8072 22.6677L32.5752 22.4154L31.9608 21.9107L31.8072 22.6677ZM33.9577 18.1254L32.9702 18.6301L34.0344 19.047L33.9577 18.1254ZM33.5188 20.5172L32.8166 20.8464L33.5517 21.1426L33.5188 20.5172Z" fill="#8FC9C9"/>
<path d="M33.848 21.7022L33.1567 22.0533L33.8919 22.3386L33.848 21.7022ZM34.1771 22.4483L33.453 22.7226L34.1552 23.0846L34.1771 22.4483ZM35.2743 20.3856L35.768 21.0987L36.0643 20.3636L35.2743 20.3856ZM37.5564 22.163L39.0596 22.8432L38.8072 21.4718L37.5564 22.163ZM36.0643 22.4702L35.3292 23.2382L36.2069 23.6332L36.0643 22.4702ZM34.7477 20.989L35.5157 21.1316L35.2634 20.3636L34.7477 20.989ZM36.4593 18.6081L36.2398 18.8934L36.1301 18.5643L35.7132 18.7288L36.1521 18.9483L35.6693 19.4201L36.9859 19.5737L36.4593 18.6081ZM33.9796 18.9593L34.4734 19.6834L34.8245 19.0251L33.9796 18.9593Z" fill="#8FC9C9"/>
<path d="M36.1521 17.9718L35.4718 17.3683L36.1959 17.2586L35.6693 16.6881L35.4059 17.2696L35.0768 16.9734L34.638 18.6191L36.1521 17.9718ZM34.7915 19.5627L33.6285 19.5408L34.1771 20.6709L34.0674 20.8903L34.7696 20.8683L34.5063 20.21L34.7915 19.5627Z" fill="#8FC9C9"/>
<path d="M35.7899 14.9655L36.8542 16.8527L33.815 16.9624L35.7899 14.9655ZM37.732 18.8934L38.6646 21.4169L36.1411 20.9342L37.732 18.8934ZM39.3777 25.0815L39.5642 26.1568L38.3573 25.7179L39.3777 25.0815ZM36.9639 17.2038L37.7649 18.8824L35.7899 18.3668L36.9639 17.2038Z" fill="#8FC9C9"/>
</svg>
