<svg width="236" height="34" viewBox="0 0 236 34" fill="none" xmlns="http://www.w3.org/2000/svg">
<path d="M2.7076 5.41521C4.20297 5.41521 5.41521 4.20297 5.41521 2.7076C5.41521 1.21224 4.20297 0 2.7076 0C1.21224 0 0 1.21224 0 2.7076C0 4.20297 1.21224 5.41521 2.7076 5.41521Z" fill="white"/>
<path d="M233.292 5.41521C234.788 5.41521 236 4.20297 236 2.7076C236 1.21224 234.788 0 233.292 0C231.797 0 230.585 1.21224 230.585 2.7076C230.585 4.20297 231.797 5.41521 233.292 5.41521Z" fill="white"/>
<path d="M2.7076 33.4449C4.20297 33.4449 5.41521 32.2327 5.41521 30.7373C5.41521 29.2419 4.20297 28.0297 2.7076 28.0297C1.21224 28.0297 0 29.2419 0 30.7373C0 32.2327 1.21224 33.4449 2.7076 33.4449Z" fill="white"/>
<path d="M233.292 33.4449C234.788 33.4449 236 32.2327 236 30.7373C236 29.2419 234.788 28.0297 233.292 28.0297C231.797 28.0297 230.585 29.2419 230.585 30.7373C230.585 32.2327 231.797 33.4449 233.292 33.4449Z" fill="white"/>
</svg>
