<svg width="96" height="96" viewBox="0 0 96 96" fill="none" xmlns="http://www.w3.org/2000/svg">
<path d="M42.0119 93.86L46.3842 47.0885L42.0119 0L41.0614 0.12676L45.4337 47.1518L41.0614 93.7333L42.0119 93.86ZM53.9248 95.9515L54.8753 95.8247L50.4396 47.1518L54.8753 2.21816L53.9248 2.0914L49.4891 47.2152L53.9248 95.9515Z" fill="#595959"/>
<path d="M0.126759 54.8837L47.1446 50.5108L93.7188 54.8837L93.8455 53.9331L47.0812 49.5601L1.5402e-05 53.9331L0.126759 54.8837ZM47.1446 46.4547H47.2079L96 42.0817L95.8733 41.1311L47.1446 45.504L2.21784 41.1311L2.0911 42.0817L47.1446 46.4547Z" fill="#595959"/>
<path d="M75.4694 85.2409L76.2298 84.6071L46.2575 48.4194L9.88519 18.2523L9.25153 19.0128L45.6238 49.1165L75.4694 85.2409ZM86.1149 77.6991L86.7486 76.9386L49.1723 45.6308L20.5307 10.7106L19.7703 11.3443L48.5387 46.328L86.1149 77.6991Z" fill="#595959"/>
<path d="M11.3425 76.4316L47.5247 46.5181L77.6871 10.0768L76.9267 9.44305L46.8277 45.8843L10.7089 75.6711L11.3425 76.4316ZM19.0099 86.9521L50.3129 49.37L85.2277 20.724L84.594 19.9635L49.6158 48.7362L18.2495 86.3183L19.0099 86.9521Z" fill="#595959"/>
</svg>
