<svg width="11" height="11" viewBox="0 0 11 11" fill="none" xmlns="http://www.w3.org/2000/svg">
<path d="M8.48568 2.01175L8.35996 2.32609L8.10854 2.07462L8.48568 2.01175Z" fill="#A84D3B"/>
<path d="M8.48574 1.57165L8.61145 2.20032L7.98288 2.07459L8.48574 1.57165ZM5.09145 4.02346V4.715L4.40002 4.40067L5.09145 4.02346ZM6.78859 2.95473L6.91431 3.5834L6.16002 3.39479L6.78859 2.95473ZM7.73145 2.26319L7.85717 2.89186L7.10288 2.70326L7.73145 2.26319Z" fill="#A84D3B"/>
<path d="M8.86283 1.00586L9.17712 1.63453H8.42283L8.86283 1.00586ZM4.2114 5.46942L4.46282 5.15508L4.71426 5.59515L4.2114 5.46942ZM5.02854 4.84075L5.40568 4.33781L5.65712 4.90361L5.02854 4.84075ZM2.45139 6.16096L2.89139 5.65802L3.07996 6.22382L2.45139 6.16096ZM0.628533 6.85249L1.00567 6.34956L1.19425 6.91536L0.628533 6.85249ZM3.89711 4.58928L4.33711 4.40068V4.96648L3.89711 4.58928ZM3.0171 6.53816L3.39425 6.16096L3.58282 6.66389L3.0171 6.53816ZM5.46854 3.96061L5.90854 3.77201L5.9714 4.33781L5.46854 3.96061Z" fill="#A84D3B"/>
<path d="M2.20002 5.3437L2.76573 5.09223V5.84664L2.20002 5.3437ZM0.942876 5.5323L1.50859 5.46944L1.32001 6.03524L0.942876 5.5323ZM0.18858 6.53817H0.628589L0.440015 6.97825L0.18858 6.53817ZM1.88574 6.41244L2.13716 5.97237L2.45145 6.41244H1.88574ZM0.377153 7.85838L0.314302 7.35545L0.817152 7.54404L0.377153 7.85838ZM0.565727 8.67565L0.440015 8.23559L0.942876 8.36132L0.565727 8.67565ZM1.6343 8.67565L1.88574 8.86426L1.50859 9.05285L1.6343 8.67565ZM1.38288 6.22384L1.6343 6.47531L1.32001 6.66391L1.38288 6.22384ZM1.52783e-05 5.78377L0.314302 5.7209L0.25144 6.09811L1.52783e-05 5.78377ZM1.13144 9.43006L1.44573 9.61866L1.06859 9.80726L1.13144 9.43006ZM7.41717 2.82902L7.66861 3.08049L7.29146 3.20622L7.41717 2.82902ZM9.49147 0L9.7429 0.188603L9.42862 0.377206L9.49147 0ZM3.14288 5.9095L3.39431 5.7209L3.45717 6.03524L3.14288 5.9095ZM4.96574 5.40657L4.84003 5.1551H5.15431L4.96574 5.40657ZM4.02288 5.97237L3.96002 5.7209H4.27431L4.02288 5.97237ZM2.70287 7.22971L2.57716 7.54404L2.32573 7.22971H2.70287ZM0.880014 5.97237L1.13144 6.09811L0.817152 6.2867L0.880014 5.97237Z" fill="#A84D3B"/>
<path d="M0.754279 5.59514L1.13142 5.84661L0.691418 6.09808L0.754279 5.59514ZM1.57142 5.90948L1.82285 6.03522L1.50856 6.22381L1.57142 5.90948ZM1.31999 10.373L1.57142 10.4988L1.25714 10.6874L1.31999 10.373ZM1.94856 9.61863L1.88571 9.8701L1.63428 9.6815L1.94856 9.61863ZM2.01142 8.10982L1.94856 8.36129L1.69714 8.17269L2.01142 8.10982ZM0.817131 8.73849L1.0057 8.61276L1.13142 8.86423L0.817131 8.73849ZM9.55428 5.78375L9.42857 5.90948L9.30285 5.72088L9.55428 5.78375ZM8.42285 4.96647L8.54856 5.15508H8.29714L8.42285 4.96647ZM7.10285 7.22968L7.29142 7.16682V7.35542L7.10285 7.22968ZM7.73142 6.16095L7.85714 6.34955H7.60571L7.73142 6.16095ZM3.45714 8.17269V8.48702L3.07999 8.36129L3.45714 8.17269ZM4.02285 5.28081V5.65801L3.70856 5.46941L4.02285 5.28081ZM3.95999 4.715V5.02934L3.6457 4.84074L3.95999 4.715ZM8.86285 2.76613V3.08046L8.48571 2.95473L8.86285 2.76613ZM1.31999 7.35542L1.57142 7.41829L1.38285 7.66976L1.31999 7.35542ZM2.26285 9.99583L2.38856 9.74436L2.57713 9.99583H2.26285ZM2.01142 6.72675L1.88571 6.97822L1.63428 6.66389L2.01142 6.72675ZM1.06857 7.10395L0.879992 7.35542L0.628567 7.04109L1.06857 7.10395ZM0.377132 5.90948L0.565706 6.09808L0.25142 6.22381L0.377132 5.90948ZM0.754279 7.85835L1.0057 7.73262V8.04696L0.754279 7.85835ZM7.91999 2.32606L8.23428 2.57753L7.79428 2.829L7.91999 2.32606ZM9.11428 2.829L9.30285 2.6404L9.36571 2.89187L9.11428 2.829ZM10.3714 2.20033L10.56 2.07459L10.6229 2.32606L10.3714 2.20033ZM10.7486 4.14921L10.6857 3.89774H10.9371L10.7486 4.14921ZM8.29714 2.70326L8.23428 2.95473L7.98285 2.76613L8.29714 2.70326ZM9.05142 2.13746L8.92571 2.51466L8.54856 2.20033L9.05142 2.13746ZM9.24 0.440053L9.42857 0.817254H8.92571L9.24 0.440053ZM7.29142 3.45767L7.47999 3.5834L7.22857 3.70913L7.29142 3.45767ZM6.85142 3.2062L7.04 3.33193L6.78856 3.45767L6.85142 3.2062ZM6.34856 3.45767L6.53714 3.5834L6.28571 3.70913L6.34856 3.45767ZM7.22857 5.15508L7.41713 4.96647L7.47999 5.21794L7.22857 5.15508ZM11 2.95473L10.8743 3.2062L10.6857 2.95473H11ZM9.61713 1.50879L9.74286 1.69739L9.55428 1.76026L9.61713 1.50879ZM9.68 3.89774L9.86857 3.772V4.02347L9.68 3.89774ZM9.42857 1.25732L9.30285 1.50879L9.11428 1.25732H9.42857ZM8.86285 1.63453L8.73714 1.88599L8.54856 1.63453H8.86285ZM10.3086 1.00586L10.4971 1.13159L10.2457 1.25732L10.3086 1.00586ZM10.0571 0.377187L10.3086 0.25145V0.502919L10.0571 0.377187ZM6.72571 3.772V4.08633L6.47428 3.9606L6.72571 3.772ZM5.59428 4.3378L5.78285 4.40067L5.65714 4.58927L5.59428 4.3378ZM6.09714 3.83487L6.28571 3.89774L6.15999 4.08633L6.09714 3.83487ZM1.88571 5.72088L2.07427 5.78375L1.94856 5.97234L1.88571 5.72088ZM2.76571 5.34367L3.01713 5.40655L2.82857 5.59514L2.76571 5.34367ZM5.71999 5.78375L5.8457 5.59514L6.03428 5.78375H5.71999ZM2.2 8.9271L2.32571 8.73849L2.51428 8.9271H2.2ZM6.09714 5.15508L6.22285 4.90361L6.34856 5.15508H6.09714ZM4.46285 4.77788V5.02934L4.14856 4.90361L4.46285 4.77788ZM3.45714 5.02934V5.28081L3.14285 5.15508L3.45714 5.02934ZM2.32571 5.59514L2.51428 5.65801L2.38856 5.84661L2.32571 5.59514ZM3.14285 6.85248L3.26857 6.66389L3.45714 6.85248H3.14285ZM5.90857 6.78962V7.04109L5.65714 6.91535L5.90857 6.78962ZM4.65142 6.09808L4.90285 6.16095L4.71428 6.41242L4.65142 6.09808ZM2.51428 6.66389L2.63999 6.47528L2.76571 6.66389H2.51428Z" fill="#A84D3B"/>
</svg>
