<svg width="28" height="12" viewBox="0 0 28 12" fill="none" xmlns="http://www.w3.org/2000/svg">
<path d="M13.7212 4.14894L13.6574 4.97874L12.8277 4.46809L13.7212 4.14894ZM15.2529 2.1064L15.3805 2.93618L14.487 2.61703L15.2529 2.1064ZM3.89294 4.02129L3.19092 4.65959L2.808 3.63831L3.89294 4.02129ZM14.8061 5.10639L14.6147 4.14894L15.6358 4.34044L14.8061 5.10639ZM16.7207 4.02129L16.0825 4.65959L15.6996 3.63831L16.7207 4.02129ZM8.61562 3.19149L8.04123 3.89363L7.53067 2.93618L8.61562 3.19149Z" fill="#A05A3C"/>
<path d="M16.7207 3.44684L16.0187 4.08514L15.6358 3.06386L16.7207 3.44684ZM15.1891 2.36173L14.2956 2.61704L14.3594 1.53195L15.1891 2.36173Z" fill="#A05A3C"/>
<path d="M15.5081 3.70213L14.6146 4.02128L14.7423 2.93617L15.5081 3.70213ZM16.3378 3.12767L15.5719 3.6383L15.3805 2.61703L16.3378 3.12767ZM14.1041 3.06384L13.4021 3.6383L13.083 2.61703L14.1041 3.06384Z" fill="#A05A3C"/>
<path d="M13.5297 2.87236L12.7 3.31917L12.5724 2.29789L13.5297 2.87236ZM13.2106 3.70215L13.0191 4.4681L12.3171 3.8298L13.2106 3.70215ZM11.7427 9.70215L11.296 9.95747L11.2321 9.31917L11.7427 9.70215ZM10.5939 6.25535L10.7216 6.70214L10.211 6.63833L10.5939 6.25535ZM7.72203 9.70215H8.23259L8.04113 10.149L7.72203 9.70215ZM16.4654 6.76598L16.0186 6.95748L15.9548 6.38299L16.4654 6.76598ZM13.0191 5.9362L12.8915 5.48938L13.402 5.55321L13.0191 5.9362ZM16.0825 7.40427L16.2101 7.85109L15.6995 7.72342L16.0825 7.40427ZM16.6568 6.00003V6.51066L16.2101 6.25535L16.6568 6.00003ZM14.7422 1.53195L16.5292 1.72343L15.5719 3.44684L14.7422 1.53195Z" fill="#A05A3C"/>
<path d="M13.2745 1.34043L15.0614 1.53194L14.1041 3.25534L13.2745 1.34043ZM11.4237 1.14895L13.2106 1.34043L12.2534 3.06385L11.4237 1.14895ZM9.57291 0.957449L11.3599 1.14895L10.4664 2.87235L9.57291 0.957449ZM1.14867 3.76599L0.574296 3.25534L1.40396 2.87235L1.14867 3.76599ZM13.4021 5.04259L12.5725 5.48939L12.5086 4.40429L13.4021 5.04259ZM4.14822 2.42555L3.38237 2.93619L3.19092 1.9149L4.14822 2.42555ZM5.42462 4.14895L4.72259 4.59577L4.53113 3.63832L5.42462 4.14895ZM11.8704 4.53194L11.6152 3.63832L12.7001 3.76599L11.8704 4.53194Z" fill="#A05A3C"/>
<path d="M8.99853 1.78726L8.80707 0.893647L9.82819 1.08513L8.99853 1.78726ZM9.31763 3.1915L8.99853 2.29789L10.0835 2.42556L9.31763 3.1915ZM10.9131 3.25534L10.594 2.29789L11.679 2.48939L10.9131 3.25534ZM10.4664 4.21278L10.8493 4.59577L10.2749 4.85108L10.4664 4.21278ZM7.40303 6.06384L7.84977 5.87236L7.91359 6.38299L7.40303 6.06384ZM11.6151 8.10641L11.4875 7.65959L11.9981 7.72342L11.6151 8.10641ZM9.76436 3.25534L10.0197 4.27662L8.87089 4.0213L9.76436 3.25534ZM9.06235 4.78725L9.31763 5.7447L8.29652 5.48938L9.06235 4.78725ZM12.1895 4.4681L12.5086 5.36173L11.4237 5.17023L12.1895 4.4681ZM2.04216 3.70215L2.29744 4.6596L1.2125 4.40429L2.04216 3.70215ZM14.487 9.383L14.9976 9.25533L14.87 9.76598L14.487 9.383ZM12.8915 6.70214L12.5086 6.25535L13.083 6.06384L12.8915 6.70214ZM16.0187 4.91492L15.6358 5.1064L15.572 4.59577L16.0187 4.91492ZM11.8704 2.80854L11.9981 3.25534L11.4875 3.12769L11.8704 2.80854ZM4.78642 7.78726L4.59496 7.27663L5.23316 7.34044L4.78642 7.78726ZM8.42415 7.53194L7.91359 7.59578L8.10505 7.08513L8.42415 7.53194Z" fill="#A05A3C"/>
<path d="M5.55216 3.89362L5.48834 4.34044L5.0416 4.08512L5.55216 3.89362ZM13.0191 2.93618L11.9342 3.51064L11.8065 2.17023L13.0191 2.93618ZM13.9126 2.17023L13.2106 2.80853L12.8276 1.78725L13.9126 2.17023ZM11.1045 3.95746L10.3387 3.82979L10.7854 3.06384L11.1045 3.95746ZM15.2528 8.29787L14.8061 8.23406L15.1252 7.78724L15.2528 8.29787ZM13.1467 10.0851L12.5085 9.95745L12.8915 9.38299L13.1467 10.0851ZM14.6784 6.38298L14.487 6.8298L14.104 6.38298H14.6784ZM9.57282 7.21278L10.0196 7.53193L9.509 7.78724L9.57282 7.21278ZM18.6353 10.5319L19.082 10.4681L19.0182 10.9787L18.6353 10.5319ZM16.7845 10.9149L16.1463 10.7873L16.5292 10.2128L16.7845 10.9149ZM18.3162 7.21278L18.1247 7.65958L17.7418 7.21278H18.3162ZM13.2106 8.04256L13.6573 8.36171L13.1467 8.61702L13.2106 8.04256ZM16.4016 9.00001L15.891 8.61702L16.5292 8.23406L16.4016 9.00001ZM19.4649 6.38298L19.082 6.70213L18.8905 6.06383L19.4649 6.38298ZM14.487 4.78724L14.7422 5.29789H14.1679L14.487 4.78724ZM8.67934 1.91489L9.38136 2.36171L8.67934 2.87234V1.91489ZM7.72204 1.40426L7.78586 2.17023L6.9562 1.78725L7.72204 1.40426Z" fill="#A05A3C"/>
<path d="M7.3392 1.72343L8.04119 2.10641L7.3392 2.68088V1.72343Z" fill="#A05A3C"/>
<path d="M6.89247 2.61703L6.31809 1.53193L7.72213 1.4681L6.89247 2.61703Z" fill="#A05A3C"/>
<path d="M7.78594 2.10639L7.3392 0.76595L8.9347 0.957433L7.78594 2.10639ZM7.53065 3.06385L6.70101 3.44684V2.36171L7.53065 3.06385ZM6.06281 2.61703L5.16933 2.87235L5.23315 1.85107L6.06281 2.61703ZM6.31808 3.00002L6.25426 3.8298L5.48842 3.383L6.31808 3.00002ZM6.44572 1.34042L6.50954 2.10639L5.67989 1.78724L6.44572 1.34042ZM8.80705 4.53194L8.2965 4.40429L8.67941 4.02131L8.80705 4.53194Z" fill="#A05A3C"/>
<path d="M5.67981 0.638311L7.40295 0.765978L6.57329 2.5532L5.67981 0.638311ZM0.638028 0.957458V1.53194L0.127464 1.27661L0.638028 0.957458ZM1.40387 1.21279L0.701842 1.40427L0.765665 0.574497L1.40387 1.21279ZM2.80791 1.14896L2.16971 1.46811L2.10588 0.638311L2.80791 1.14896Z" fill="#A05A3C"/>
<path d="M1.14864 1.85108L0.574264 2.1064V1.40426L1.14864 1.85108ZM2.42504 3.31916L2.48886 2.42555L3.31852 2.87234L2.42504 3.31916ZM1.21246 2.80853V1.9149L2.10594 2.29788L1.21246 2.80853ZM4.40346 3.19149L4.33963 2.29788L5.29693 2.68086L4.40346 3.19149ZM4.97783 5.36173L4.65873 4.97874L5.23312 4.85108L4.97783 5.36173ZM8.04119 4.21278L7.65828 4.34044V3.89363L8.04119 4.21278ZM4.59492 1.78725L4.65873 2.17023L4.212 2.04256L4.59492 1.78725ZM3.06324 6.76597L2.74414 6.31918L3.31852 6.19151L3.06324 6.76597Z" fill="#A05A3C"/>
<path d="M6.1266 5.61706L5.74369 5.74471V5.29791L6.1266 5.61706ZM2.74415 3.1277V3.57449L2.29742 3.38301L2.74415 3.1277ZM2.16978 1.27661L2.04214 1.91491L1.46776 1.46811L2.16978 1.27661Z" fill="#A05A3C"/>
<path d="M3.25472 1.6596L2.68035 2.48939L2.04216 1.59576L3.25472 1.6596Z" fill="#A05A3C"/>
<path d="M3.31852 1.7234V2.3617L2.6165 2.04255L3.31852 1.7234ZM4.2758 0.702132L4.21198 1.40426L3.50998 1.02128L4.2758 0.702132Z" fill="#A05A3C"/>
<path d="M4.46728 1.91491L4.08436 1.85109L4.33963 1.46811L4.46728 1.91491ZM4.02053 0.446816L5.67985 0.574484L5.04165 2.23406L4.02053 0.446816Z" fill="#A05A3C"/>
<path d="M2.61646 0.319162L4.08432 0.446828L3.3823 1.78725L2.61646 0.319162ZM1.14861 0.127682L2.55265 0.255348L1.85063 1.65958L1.14861 0.127682Z" fill="#A05A3C"/>
<path d="M-4.65368e-05 0L1.21253 0.127667L0.638152 1.27659L-4.65368e-05 0ZM10.5941 11.1702L10.1473 11.4894L10.0197 10.8511L10.5941 11.1702ZM9.1262 7.85107L9.31766 8.29786L8.8071 8.23405L9.1262 7.85107ZM6.63722 11.5532H7.08396L6.95632 12L6.63722 11.5532ZM2.93566 9.38298L2.68039 8.87235H3.31859L2.93566 9.38298ZM6.50958 8.80851L6.06285 8.87235L6.19048 8.3617L6.50958 8.80851ZM3.31859 5.42553L3.25476 5.87234L2.80803 5.61703L3.31859 5.42553ZM22.4007 4.72342L21.8264 5.42553L21.3158 4.46808L22.4007 4.72342ZM25.2088 8.04255L24.7621 8.42553L24.5706 7.78723L25.2088 8.04255ZM27.3149 4.40427L26.4852 4.85106L26.3576 3.82978L27.3149 4.40427ZM26.7405 5.04256L26.549 5.80851L25.847 5.23405L26.7405 5.04256ZM24.9535 2.61702L26.7405 2.74469L25.847 4.46808L24.9535 2.61702Z" fill="#A05A3C"/>
<path d="M23.2941 2.42556L25.0811 2.61704L24.1876 4.34045L23.2941 2.42556ZM25.5917 7.02127L25.1449 7.27661V6.76596L25.5917 7.02127ZM17.9333 3.95746L17.1674 4.46809L16.976 3.383L17.9333 3.95746ZM19.2097 5.68087L18.5076 6.12766L18.3162 5.17022L19.2097 5.68087Z" fill="#A05A3C"/>
<path d="M25.6555 6.06382L25.4002 5.17021L26.4852 5.36171L25.6555 6.06382ZM22.7198 3.31915L22.4645 2.3617L23.5494 2.55318L22.7198 3.31915ZM23.1027 4.72341L22.7836 3.82978L23.8685 3.95744L23.1027 4.72341ZM24.6982 4.78723L24.3791 3.89361L25.464 4.02128L24.6982 4.78723ZM23.5494 4.78723L23.8047 5.80851L22.656 5.55319L23.5494 4.78723ZM22.8474 6.31916L23.1027 7.27661L22.0816 7.02127L22.8474 6.31916ZM24.06 6.25532L24.2515 6.95746L23.4218 6.82979L24.06 6.25532ZM19.7202 10.0851L19.5288 9.57447L20.167 9.6383L19.7202 10.0851Z" fill="#A05A3C"/>
<path d="M23.358 9.89362H22.9113L23.0389 9.44682L23.358 9.89362ZM20.4861 6.1915L20.4223 6.63832L19.9755 6.38298L20.4861 6.1915ZM26.8043 4.53192L25.7193 5.10639L25.5917 3.70214L26.8043 4.53192ZM27.6339 2.87234L27.1234 3.70214L26.549 2.80853L27.6339 2.87234ZM24.8897 5.48937L24.1238 5.36172L24.5706 4.59575L24.8897 5.48937ZM22.4645 3.44683L23.1665 3.89362L22.4645 4.40427V3.44683ZM21.4434 3.00001V3.82979L20.6137 3.44683L21.4434 3.00001Z" fill="#A05A3C"/>
<path d="M21.1243 3.25533L21.8263 3.63831L21.1243 4.21278V3.25533Z" fill="#A05A3C"/>
<path d="M20.5499 4.21278L19.9755 3.12768L21.3795 3.06384L20.5499 4.21278Z" fill="#A05A3C"/>
<path d="M21.5072 3.57448L21.0605 2.17023L22.7198 2.42555L21.5072 3.57448ZM21.3157 4.59576L20.4861 4.97874V3.89363L21.3157 4.59576ZM19.8479 4.08513L18.9544 4.40428L19.0182 3.38299L19.8479 4.08513ZM20.1032 4.53193L20.0393 5.36173L19.2735 4.91491L20.1032 4.53193ZM20.2308 2.87234L20.2946 3.63831L19.465 3.31916L20.2308 2.87234ZM22.5921 6.06384L22.0816 5.93619L22.4645 5.55321L22.5921 6.06384Z" fill="#A05A3C"/>
<path d="M19.5287 1.97875L21.2519 2.17025L20.2946 3.95748L19.5287 1.97875ZM14.4231 2.4894V3.00003L13.9126 2.80855L14.4231 2.4894ZM16.593 2.68088L15.9548 3.00003L15.891 2.10641L16.593 2.68088ZM16.2101 4.78726L16.2739 3.95748L17.1674 4.40429L16.2101 4.78726ZM18.1885 4.65961L18.1247 3.82981L19.082 4.21279L18.1885 4.65961ZM18.7629 6.89365L18.4438 6.51067L19.0182 6.383L18.7629 6.89365ZM21.8263 5.7447L21.4433 5.87237V5.42556L21.8263 5.7447ZM18.38 3.31918L18.4438 3.70216L17.9971 3.57449L18.38 3.31918Z" fill="#A05A3C"/>
<path d="M16.8483 8.23404L16.5292 7.85106L17.1036 7.72339L16.8483 8.23404ZM19.9117 7.14893L19.5288 7.2766V6.82978L19.9117 7.14893ZM16.5292 4.65958V5.04256L16.0825 4.9149L16.5292 4.65958ZM17.0398 3.19149L16.4654 4.02129L15.891 3.06384L17.0398 3.19149Z" fill="#A05A3C"/>
<path d="M17.1036 3.25534V3.89364L16.4016 3.57449L17.1036 3.25534ZM18.0609 2.23405V2.93619L17.2951 2.5532L18.0609 2.23405ZM18.2524 3.44684L17.8695 3.31917L18.1247 2.93619L18.2524 3.44684ZM17.9971 1.9149L19.6564 2.04257L19.0182 3.70216L17.9971 1.9149Z" fill="#A05A3C"/>
<path d="M16.3377 1.72343L17.8056 1.8511L17.1036 3.25534L16.3377 1.72343ZM18.7629 11.4894L18.5714 10.9787L19.2096 11.0426L18.7629 11.4894ZM22.3368 10.9149L21.8901 10.9787L22.0177 10.5319L22.3368 10.9149ZM19.1458 7.53193V7.97872L18.6991 7.72341L19.1458 7.53193Z" fill="#A05A3C"/>
</svg>
