<svg width="53" height="66" viewBox="0 0 53 66" fill="none" xmlns="http://www.w3.org/2000/svg">
<path d="M29.2309 19.4501L29.8823 20.0197L30.1266 19.0432L29.2309 19.4501ZM30.8594 17.4156L31.1037 16.9273L30.5337 16.8459L30.8594 17.4156ZM27.4396 18.7177L28.4167 18.8804L28.1724 17.7411L27.4396 18.7177ZM30.3709 20.0197L31.348 19.6942L30.5337 18.8804L30.3709 20.0197ZM28.661 21.2405L29.5566 20.7522L28.661 20.0197V21.2405ZM30.6151 18.799L31.5922 18.3921L30.6966 17.5783L30.6151 18.799ZM36.4776 22.4612L37.0476 22.7053V22.0543L36.4776 22.4612ZM29.4752 16.1135L28.1724 17.6597L30.2894 18.2294L29.4752 16.1135ZM37.7804 10.9865L38.2689 11.6375L38.7575 10.7423L37.7804 10.9865ZM36.2333 10.1726L36.8033 10.9051L37.2104 10.0099L36.2333 10.1726ZM37.3733 8.70778L37.9432 9.44021L38.4318 8.54502L37.3733 8.70778ZM37.2104 9.68435L37.7804 10.3354L38.1875 9.52159L37.2104 9.68435ZM37.129 12.8582L38.1061 12.5327L37.3733 11.6375L37.129 12.8582ZM34.6863 11.963L35.6634 11.6375L34.9306 10.7423L34.6863 11.963ZM32.8136 13.4279L33.7906 13.1024L33.0578 12.2072L32.8136 13.4279ZM37.0476 7.97535L36.0705 8.87054L37.4547 9.52159L37.0476 7.97535ZM38.5132 10.0099L39.5717 9.84712L38.8389 8.87054L38.5132 10.0099ZM36.0705 11.7189L37.0476 11.3934L36.3148 10.4982L36.0705 11.7189ZM39.4903 8.78916L40.5488 8.54502L39.816 7.64983L39.4903 8.78916ZM32.4879 18.3921L33.3835 17.9852L32.5693 17.1714L32.4879 18.3921ZM34.442 15.6252L33.7092 14.8114L33.2207 15.8693L34.442 15.6252ZM33.4649 16.6017L32.8136 15.8693L32.325 16.9273L33.4649 16.6017ZM34.5235 13.3465L35.1748 13.9162L35.5005 13.021L34.5235 13.3465ZM39.4903 9.27745L40.0602 9.9285L40.4674 9.03331L39.4903 9.27745ZM38.4318 7.89397L38.9203 8.54502L39.4088 7.73121L38.4318 7.89397ZM32.7321 16.9273L33.0578 17.4156L33.3835 16.8459L32.7321 16.9273ZM35.4191 13.9976L35.0934 14.4045L35.6634 14.6486L35.4191 13.9976ZM36.6405 18.9618L36.1519 18.7177V19.2873L36.6405 18.9618ZM32.7321 18.6363L33.7092 19.2059L33.8721 17.9852L32.7321 18.6363ZM37.129 17.7411L36.9662 18.3107L37.5361 18.2294L37.129 17.7411ZM38.0247 14.8927V15.5438L38.676 15.2996L38.0247 14.8927ZM42.2587 10.6609L42.0144 11.2306L42.6658 11.312L42.2587 10.6609Z" fill="#147A7C"/>
<path d="M46.0856 11.6375L45.597 11.5561L45.7599 12.1258L46.0856 11.6375ZM40.8745 14.73L40.3859 14.5672L40.4674 15.1369L40.8745 14.73ZM42.7472 15.0555V14.5672L42.1773 14.8113L42.7472 15.0555ZM43.6429 13.8348L43.1543 13.9975L43.48 14.4044L43.6429 13.8348ZM44.2943 16.2762L43.8057 16.3576L44.1314 16.8459L44.2943 16.2762ZM33.3021 12.6954L33.9535 13.3465L34.3606 12.4513L33.3021 12.6954Z" fill="#147A7C"/>
<path d="M33.2206 13.8348L34.5234 14.2417L34.3605 12.7768L33.2206 13.8348ZM35.419 13.2651L36.7218 12.8582L35.7447 11.7188L35.419 13.2651ZM29.3123 19.5314L30.5336 19.0431L29.4751 17.9852L29.3123 19.5314ZM32.325 14.73L32.9763 15.381L33.302 14.4044L32.325 14.73ZM31.2664 14.4044L31.9178 14.9741L32.2435 14.0789L31.2664 14.4044ZM40.4673 11.3933L40.3044 10.905L39.8973 11.3119L40.4673 11.3933Z" fill="#147A7C"/>
<path d="M31.755 15.381L32.0807 14.9741L31.5107 14.8927L31.755 15.381ZM36.1519 12.7768L36.6404 12.9396L36.559 12.3699L36.1519 12.7768ZM30.3708 17.3342L31.3479 16.9273L30.5337 16.1134L30.3708 17.3342Z" fill="#147A7C"/>
<path d="M30.8593 14.3231L29.5566 15.7879L31.6736 16.5203L30.8593 14.3231ZM32.4064 12.6141L31.1036 14.0789L33.1392 14.73L32.4064 12.6141ZM34.0348 10.7423L32.7321 12.2072L34.7676 12.8582L34.0348 10.7423ZM35.989 8.87053L34.4419 10.4982L36.5589 11.1492L35.989 8.87053ZM38.5131 6.83601L37.0475 8.05672L39.0016 9.0333L38.5131 6.83601ZM36.3147 17.09L36.2333 16.6017L35.8261 16.9273L36.3147 17.09ZM35.2562 15.7065L35.1748 14.8113L34.2791 15.2996L35.2562 15.7065ZM37.3732 13.8348V13.2651L36.8032 13.5906L37.3732 13.8348ZM35.9076 18.5549L35.8261 18.0666L35.3376 18.3921L35.9076 18.5549ZM43.1542 8.13811L43.2356 8.78915L43.8056 8.38225L43.1542 8.13811ZM46.2483 3.82492L46.0854 4.39458H46.7368L46.2483 3.82492ZM48.8538 3.74354L48.3653 3.66216L48.5281 4.23182L48.8538 3.74354ZM50.0752 1.87177L49.5866 1.70901V2.27868L50.0752 1.87177ZM52.1108 0.325531L51.6222 0.162771V0.813822L52.1108 0.325531ZM45.4341 7.89396L45.3526 7.40568L44.8641 7.7312L45.4341 7.89396ZM44.6198 5.94082L44.457 5.45253L43.9685 5.77806L44.6198 5.94082Z" fill="#147A7C"/>
<path d="M45.1899 4.23181L45.1084 5.37114L46.2484 4.88286L45.1899 4.23181ZM48.2839 6.42909L47.7954 6.67324L48.2025 6.99876L48.2839 6.42909ZM50.9709 1.38347H50.4824L50.8081 1.87176L50.9709 1.38347ZM52.7622 0L52.2737 0.0813798L52.5179 0.569664L52.7622 0ZM46.8183 5.94081L47.2254 5.61528L46.6555 5.45252L46.8183 5.94081ZM46.5741 4.88286L46.8997 4.47595L46.3298 4.31319L46.5741 4.88286ZM43.2357 10.1726L43.5614 9.76572L42.9914 9.68433L43.2357 10.1726ZM36.0705 17.1714L35.989 16.6831L35.5005 16.9272L36.0705 17.1714ZM45.1084 2.84833L45.3527 3.418L45.8413 2.92971L45.1084 2.84833ZM43.5614 4.96424L44.3756 5.04562L44.0499 4.15043L43.5614 4.96424Z" fill="#147A7C"/>
<path d="M41.8515 5.37116H42.6657L42.34 4.47597L41.8515 5.37116ZM45.1898 2.6042L45.7598 3.01111L45.9226 2.27868L45.1898 2.6042ZM43.0728 7.40569L42.5843 6.59188L41.9329 7.48707L43.0728 7.40569ZM41.5258 8.2195L41.0372 7.40569L40.4673 8.30088L41.5258 8.2195Z" fill="#147A7C"/>
<path d="M42.1772 10.7423L42.2586 10.1726L41.6886 10.4168L42.1772 10.7423ZM38.6759 11.4747L39.0831 11.312L38.8388 10.9051L38.6759 11.4747ZM40.3858 7.24292L40.5487 7.64983L40.8744 7.24292H40.3858ZM42.4214 5.2084L42.91 5.77807L43.2357 5.04564L42.4214 5.2084Z" fill="#147A7C"/>
<path d="M41.6072 6.02219L42.5843 6.42909L42.6657 5.20838L41.6072 6.02219ZM41.3629 6.34771L41.7701 6.99876L42.1772 6.34771H41.3629ZM39.9787 6.02219L40.4673 6.67324L40.9558 5.85943L39.9787 6.02219ZM40.5487 7.2429L40.8744 6.91738L40.3859 6.75462L40.5487 7.2429Z" fill="#147A7C"/>
<path d="M39.9788 5.77805L38.5946 6.836L40.2231 7.97533L39.9788 5.77805ZM41.6073 4.63871L40.3045 5.5339L41.8515 6.42909L41.6073 4.63871ZM43.3172 3.74352L42.0144 4.39457L43.2357 5.37114L43.3172 3.74352ZM47.144 1.54623L46.0041 2.03452L47.0626 3.01109L47.144 1.54623ZM44.7828 2.84833L43.5614 3.49938L44.7013 4.39457L44.7828 2.84833ZM49.1796 0.976563L49.0168 1.38347L49.5053 1.46485L49.1796 0.976563ZM47.9583 2.27866V3.17385L48.8539 2.76694L47.9583 2.27866ZM50.7267 0.325512L50.5638 1.22071L51.5409 0.976563L50.7267 0.325512Z" fill="#147A7C"/>
<path d="M47.4697 2.60418L48.1211 2.68556L47.9583 1.95313L47.4697 2.60418ZM48.5282 0.895183L47.4697 1.30209L48.3654 2.1159L48.5282 0.895183ZM50.3195 0.325512L49.5867 0.569658L50.1567 1.22071L50.3195 0.325512ZM17.8317 35.8076L18.4831 36.3773L18.7274 35.4821L17.8317 35.8076ZM19.2159 33.6104L19.4602 33.1221L18.8902 33.0407L19.2159 33.6104ZM16.2847 35.4007L17.2617 35.5635L17.0175 34.4242L16.2847 35.4007ZM18.9716 36.4587L19.8673 35.9704L18.9716 35.238V36.4587ZM20.2744 36.7028L21.1701 36.2145L20.2744 35.4821V36.7028ZM19.2159 35.238L20.1115 34.7497L19.2159 34.0173V35.238ZM25.4855 39.7953L25.974 40.1208L26.0554 39.3884L25.4855 39.7953ZM18.076 32.471L16.936 34.0986L19.053 34.5869L18.076 32.471ZM25.4855 26.6116L26.1369 27.2626L26.4626 26.2861L25.4855 26.6116ZM23.7756 25.8792L24.427 26.5302L24.7527 25.5536L23.7756 25.8792ZM24.5898 24.0888L25.2412 24.6584L25.5669 23.7632L24.5898 24.0888ZM24.5898 25.2281L25.2412 25.7978L25.5669 24.8212L24.5898 25.2281ZM25.1598 28.7275L26.1369 28.3206L25.2412 27.5068L25.1598 28.7275ZM22.5542 27.9951L23.5313 27.5882L22.6357 26.7743L22.5542 27.9951ZM20.8444 29.7041L21.8214 29.2972L20.9258 28.4834L20.8444 29.7041ZM23.857 23.5191L23.0428 24.6584L24.5898 24.984L23.857 23.5191ZM25.974 25.3095L26.8697 24.984L26.0554 24.1702L25.974 25.3095ZM23.9384 27.5882L24.8341 27.0999L24.0199 26.3674L23.9384 27.5882ZM26.4626 23.6005L27.4396 23.1122L26.544 22.3798L26.4626 23.6005ZM21.0072 34.7497L21.9843 34.2614L21.0886 33.529L21.0072 34.7497ZM22.7985 31.82L22.0657 31.0875L21.6586 32.2269L22.7985 31.82ZM21.6586 32.7965L20.9258 32.0641L20.5187 33.2035L21.6586 32.7965ZM22.6357 29.4599L23.287 30.0296L23.5313 29.053L22.6357 29.4599ZM26.6254 24.3329L27.3582 24.9026L27.6025 23.926L26.6254 24.3329ZM25.3226 23.0308L25.974 23.6005L26.2997 22.6239L25.3226 23.0308ZM21.2515 33.2848L21.6586 33.7731L21.9843 33.1221L21.2515 33.2848ZM23.6127 30.111L23.3685 30.5179L23.9384 30.5993L23.6127 30.111ZM25.4041 34.8311L24.9155 34.6683L24.9969 35.238L25.4041 34.8311ZM21.3329 34.9124L22.31 35.4821L22.3914 34.18L21.3329 34.9124Z" fill="#147A7C"/>
<path d="M25.6483 33.8545L25.5669 34.3428L26.1369 34.18L25.6483 33.8545ZM25.974 30.5993V31.2503L26.6254 30.9248L25.974 30.5993ZM29.8823 25.7164L29.7195 26.2861H30.3709L29.8823 25.7164ZM33.8721 26.2047L33.3835 26.1233L33.5464 26.693L33.8721 26.2047ZM29.0681 30.111L28.5796 30.0296L28.7424 30.5993L29.0681 30.111ZM30.6966 30.2737L30.6152 29.7855L30.1266 30.111L30.6966 30.2737ZM31.7551 28.8903L31.2665 29.053L31.5922 29.4599L31.7551 28.8903ZM32.4065 31.2503L31.9179 31.4131L32.2436 31.82L32.4065 31.2503ZM33.2207 23.3564L33.7092 23.5191V22.9495L33.2207 23.3564ZM31.6737 22.7053V23.275L32.1622 23.0308L31.6737 22.7053ZM30.778 20.7522V21.2405L31.2665 21.0777L30.778 20.7522ZM30.3709 24.0888L30.9409 24.0074L30.6152 23.5191L30.3709 24.0888ZM28.9867 23.0308L29.9638 22.9495L29.3938 21.9729L28.9867 23.0308ZM26.7883 29.2158L27.7653 29.1344L27.1954 28.1578L26.7883 29.2158ZM30.1266 21.4846L30.6966 21.4032L30.3709 20.9149L30.1266 21.4846ZM21.2515 28.8903L21.9029 29.4599L22.2286 28.5647L21.2515 28.8903ZM21.4143 30.1924L22.7985 30.4365L22.3914 28.9716L21.4143 30.1924ZM23.5313 29.3786L24.7527 28.8089L23.6128 27.7509L23.5313 29.3786ZM17.3432 35.889L18.4831 35.238L17.6689 34.5056L17.3432 35.889ZM20.6815 31.2503L21.3329 31.7386L21.5772 30.762L20.6815 31.2503ZM19.7859 30.762L20.5187 31.3317L20.6815 30.3551L19.7859 30.762ZM28.2539 26.693L28.0096 26.2047L27.6839 26.693H28.2539Z" fill="#147A7C"/>
<path d="M20.3558 31.7386L20.6001 31.3317L20.0301 31.2503L20.3558 31.7386ZM24.1827 28.7275L24.6713 28.8903L24.5898 28.3206L24.1827 28.7275ZM18.8088 33.6104L19.7044 33.1221L18.8088 32.3897V33.6104Z" fill="#147A7C"/>
<path d="M19.2973 30.762L18.2388 32.3896L20.3558 32.7965L19.2973 30.762ZM20.4372 28.8089L19.4601 30.4365L21.4143 30.8434L20.4372 28.8089ZM21.8214 26.7743L20.6815 28.402L22.7985 28.8089L21.8214 26.7743ZM23.1242 24.6584L21.9028 26.4488L24.1012 26.7743L23.1242 24.6584ZM24.9155 21.8915L23.857 23.4377L25.8926 23.926L24.9155 21.8915ZM24.5084 32.9593L24.4269 32.471L23.9384 32.7965L24.5084 32.9593ZM23.6127 31.7386L23.4499 30.9248L22.6356 31.4944L23.6127 31.7386ZM25.4855 29.7041L25.404 29.1344L24.9155 29.4599L25.4855 29.7041Z" fill="#147A7C"/>
<path d="M24.427 34.6683L24.3456 34.18L23.9385 34.5055L24.427 34.6683ZM24.2642 33.0407L24.1013 32.5524L23.6942 32.8779L24.2642 33.0407ZM28.3353 22.5425L27.6025 21.8915L27.2768 22.9494L28.3353 22.5425ZM29.5567 24.9026L29.4752 24.3329L28.9867 24.6584L29.5567 24.9026ZM26.2997 26.3674L26.7069 26.2047L26.2997 25.7978V26.3674ZM26.9511 21.8915L27.1954 22.217L27.4397 21.7287L26.9511 21.8915ZM27.4397 20.7522L27.9282 21.2404L28.1725 20.508L27.4397 20.7522ZM26.0555 20.8335L26.7069 21.3218L26.8697 20.4266L26.0555 20.8335Z" fill="#147A7C"/>
<path d="M27.1953 21.7287L27.4396 21.3218L26.8696 21.2404L27.1953 21.7287ZM26.0554 20.2639L24.9969 21.7287L26.8696 22.2984L26.0554 20.2639ZM27.4396 18.799L26.3811 19.9383L28.0096 20.508L27.4396 18.799ZM7.40948 53.5487L8.06087 54.037L8.30514 53.1418L7.40948 53.5487ZM8.79368 50.9445L8.95653 50.4562H8.38657L8.79368 50.9445ZM5.53676 52.8976H6.59525L6.10672 51.7583L5.53676 52.8976ZM8.63083 54.037L9.60792 53.6301L8.63083 52.8163V54.037ZM10.3407 52.7349L11.2364 52.1652L10.2593 51.5955L10.3407 52.7349ZM8.71226 52.2466L9.60792 51.6769L8.63083 51.0259L8.71226 52.2466ZM11.3178 56.7226L11.8063 57.1295L11.8878 56.397L11.3178 56.7226ZM7.32806 49.9679L6.35099 51.6769L8.46798 51.9211L7.32806 49.9679ZM14.5747 43.2947L15.2261 43.8644L15.4704 42.8878L14.5747 43.2947ZM13.0277 42.8064L13.6791 43.2947L13.9233 42.3995L13.0277 42.8064ZM13.7605 41.0974L14.4119 41.5857L14.6562 40.6905L13.7605 41.0974ZM13.8419 41.9926L14.4933 42.5623L14.7376 41.5857L13.8419 41.9926ZM14.3305 45.2478L15.3075 44.8409L14.4119 44.0271L14.3305 45.2478ZM11.7249 45.0851L12.6206 44.5154L11.6435 43.8644L11.7249 45.0851ZM10.1779 46.7127L11.0735 46.2244L10.0964 45.492L10.1779 46.7127ZM13.0277 40.4464L12.2949 41.5857L13.8419 41.7485L13.0277 40.4464ZM15.1447 42.074L16.1218 41.6671L15.1447 40.8533V42.074ZM13.0277 44.434L13.9233 43.9457L12.9463 43.2947L13.0277 44.434ZM15.6332 40.4464L16.5289 39.9581L15.5518 39.307L15.6332 40.4464ZM10.585 51.5955L11.4806 51.0259L10.4221 50.4562L10.585 51.5955ZM12.2949 48.5845L11.4806 47.9334L11.155 49.0727L12.2949 48.5845ZM11.2364 49.7238L10.4221 49.0727L10.1779 50.2121L11.2364 49.7238ZM11.8878 46.3058L12.6206 46.7941L12.702 45.8175L11.8878 46.3058ZM15.7961 41.016L16.5289 41.5043L16.6917 40.5277L15.7961 41.016ZM14.4119 39.9581L15.1447 40.5277L15.389 39.5512L14.4119 39.9581ZM10.8293 50.2121L11.2364 50.619L11.5621 49.9679L10.8293 50.2121ZM13.0277 46.7941L12.702 47.2824L13.272 47.3637L13.0277 46.7941ZM15.0633 51.4328L14.5747 51.27L14.6562 51.8397L15.0633 51.4328ZM13.272 47.6079L14.3305 48.0148L14.249 46.7127L13.272 47.6079Z" fill="#147A7C"/>
<path d="M14.819 50.0493L14.7376 50.619L15.3076 50.4562L14.819 50.0493ZM15.3076 47.1196V47.6893L15.9589 47.3637L15.3076 47.1196ZM18.8902 42.074L18.7273 42.6436L19.3787 42.5623L18.8902 42.074ZM21.8214 43.9457L21.3329 43.8644L21.5772 44.434L21.8214 43.9457ZM18.3202 46.4685L17.8317 46.3872L17.9945 46.9568L18.3202 46.4685ZM20.3558 44.1085L20.193 43.6202L19.7858 44.0271L20.3558 44.1085ZM17.9131 48.9914L17.4246 49.1541L17.8317 49.561L17.9131 48.9914ZM21.6586 47.4451L21.17 47.6079L21.5772 48.0148L21.6586 47.4451ZM22.5542 39.9581L23.0428 40.1208L22.9613 39.4698L22.5542 39.9581ZM20.9258 39.5512V40.0395L21.4957 39.7953L20.9258 39.5512ZM19.8673 37.1911V37.6794L20.3558 37.4353L19.8673 37.1911ZM19.5416 40.5277L20.0301 40.4464L19.7044 39.9581L19.5416 40.5277ZM18.3202 39.9581L19.2973 39.7953L18.6459 38.9001L18.3202 39.9581ZM17.9131 38.3304L18.5645 37.598L17.5874 37.1911L17.9131 38.3304ZM15.8775 44.8409L16.8546 44.6782L16.2032 43.783L15.8775 44.8409ZM18.9716 38.0049L19.5416 37.9235L19.2159 37.4353L18.9716 38.0049ZM10.5036 45.8175L11.2364 46.3872L11.3993 45.4106L10.5036 45.8175ZM10.7479 47.1196L12.1321 47.2824L11.6435 45.8175L10.7479 47.1196ZM12.7834 46.0616L13.9234 45.4106L12.702 44.5154L12.7834 46.0616ZM9.1194 51.8397L10.1779 51.0259L8.87513 50.2121L9.1194 51.8397ZM10.0965 48.2589L10.8293 48.6658L10.9921 47.6893L10.0965 48.2589ZM8.95655 48.0962L9.68936 48.5845L9.8522 47.5265L8.95655 48.0962Z" fill="#147A7C"/>
<path d="M17.3431 43.1319L17.0174 42.6437L16.7731 43.1319H17.3431ZM9.68929 48.9914L9.85213 48.5031H9.28217L9.68929 48.9914ZM13.3533 45.3292L13.8419 45.492L13.7604 44.9223L13.3533 45.3292ZM8.38653 51.0259L9.20076 50.3749L8.22367 49.8052L8.38653 51.0259Z" fill="#147A7C"/>
<path d="M8.38654 48.0148L7.49088 49.8052L9.6893 49.8866L8.38654 48.0148ZM9.60788 45.8175L8.6308 47.5265L10.8292 47.7707L9.60788 45.8175ZM10.9921 43.7016L10.015 45.4106L12.2134 45.6547L10.9921 43.7016ZM12.2134 41.6671L11.1549 43.6202H13.3533L12.2134 41.6671ZM14.0862 38.9001L13.0277 40.4464L15.2261 40.8533L14.0862 38.9001ZM14.0862 49.561L14.0047 49.1541L13.5162 49.4797L14.0862 49.561ZM13.1091 48.5031L12.8648 47.6893L12.132 48.2589L13.1091 48.5031ZM14.7375 46.2244L14.6561 45.6547L14.0862 46.0616L14.7375 46.2244Z" fill="#147A7C"/>
<path d="M12.702 52.8977L12.5392 52.4094L12.132 52.7349L12.702 52.8977ZM13.8419 49.6424L13.6791 49.2355L13.272 49.561L13.8419 49.6424ZM8.468 62.3378L9.03796 62.6634L9.11939 61.9309L8.468 62.3378ZM7.08381 58.8385L7.4095 59.3268L7.7352 58.7571L7.08381 58.8385ZM9.85219 55.9088L9.44508 56.3157L10.015 56.4784L9.85219 55.9088ZM10.9921 60.873L10.5036 60.6289L10.4222 61.1985L10.9921 60.873ZM10.9107 59.4895L10.6664 59.9778H11.2364L10.9107 59.4895ZM14.1676 59.164L13.5977 59.2454L13.9234 59.7337L14.1676 59.164ZM10.3407 58.9198L10.2593 58.4316L9.77078 58.6757L10.3407 58.9198Z" fill="#147A7C"/>
<path d="M10.015 58.9199L9.93357 58.4316L9.52646 58.6757L10.015 58.9199ZM17.5873 39.4698L16.8545 38.8187L16.5289 39.8767L17.5873 39.4698ZM18.8087 41.5857L18.6458 41.016L18.1573 41.4229L18.8087 41.5857ZM15.5518 43.2133L15.9589 43.0506L15.5518 42.725V43.2133ZM15.9589 38.7374L16.2846 39.0629L16.4474 38.5746L15.9589 38.7374ZM16.5289 37.3539L17.0988 37.7608L17.2617 37.0284L16.5289 37.3539ZM15.1446 37.4353L15.796 37.9235L15.9589 37.0284L15.1446 37.4353ZM16.2032 38.5746L16.4474 38.1677H15.8775L16.2032 38.5746Z" fill="#147A7C"/>
<path d="M15.1447 37.3539L14.0862 38.8187L16.0404 39.3884L15.1447 37.3539ZM16.0404 35.6449L15.1447 36.947L16.8546 37.2725L16.0404 35.6449ZM4.72258 54.2811L5.94393 54.3625L5.37395 53.3046L4.72258 54.2811ZM3.33838 62.5006L3.98976 63.0703L4.31546 62.0937L3.33838 62.5006ZM1.79134 61.8496L2.44273 62.4192L2.76842 61.524L1.79134 61.8496ZM2.60557 59.9778L3.33838 60.5475L3.50123 59.5709L2.60557 59.9778ZM2.687 60.9544L3.4198 61.4427L3.66408 60.4661L2.687 60.9544ZM3.01269 64.3724L3.98976 63.9655L3.09412 63.1517L3.01269 64.3724ZM0.651421 63.9655L1.54707 63.8027L0.569993 62.7448L0.651421 63.9655ZM1.87277 59.4895L1.22138 60.7102L2.84984 60.7916L1.87277 59.4895ZM4.07119 60.9544L4.96684 60.4661L4.07119 59.7337V60.9544ZM1.79134 63.5586L2.687 63.0703L1.79134 62.3378V63.5586ZM4.47831 59.3268L5.37395 58.7571L4.39688 58.106L4.47831 59.3268ZM4.64115 59.815L5.37395 60.3033L5.53681 59.3268L4.64115 59.815ZM3.25696 58.8385L3.98976 59.4081L4.15261 58.4316L3.25696 58.8385ZM4.64115 64.0469L5.53681 63.8841L4.96684 62.9889L4.64115 64.0469Z" fill="#147A7C"/>
<path d="M3.33834 66L4.47827 65.349L3.25692 64.3724L3.33834 66ZM6.26958 61.8496L5.94389 61.4427L5.69962 61.9309L6.26958 61.8496ZM2.03558 64.5352L2.60554 64.6165L2.44269 64.0469L2.03558 64.5352ZM1.0585 60.7102L0 62.6634H2.19842L1.0585 60.7102ZM8.54943 54.4439L9.28223 54.9322L9.44507 53.9556L8.54943 54.4439ZM6.92096 54.1184L7.65377 54.6066L7.81661 53.6301L6.92096 54.1184ZM8.468 56.5598L9.36366 55.9901L8.468 55.3391V56.5598ZM7.08381 55.8274L7.97947 55.2577L7.00238 54.6066L7.08381 55.8274Z" fill="#147A7C"/>
<path d="M8.22374 58.0247L9.20082 57.7805L8.54944 56.8853L8.22374 58.0247ZM6.51386 57.8619L7.57236 57.0481L6.26959 56.2343L6.51386 57.8619ZM7.49093 56.7226L7.97948 56.804L7.81662 56.2343L7.49093 56.7226ZM6.02532 53.0604L5.21108 55.0949L7.40951 54.9322L6.02532 53.0604ZM2.76839 57.7805L1.79132 59.4081L3.98974 59.7337L2.76839 57.7805ZM6.18816 58.106L5.45536 57.5364L5.21108 58.5129L6.18816 58.106ZM7.65378 60.3033L7.49093 59.7337L7.00239 60.1406L7.65378 60.3033ZM4.5597 62.0937L4.96681 61.8496L4.47828 61.524L4.5597 62.0937ZM4.72255 57.5364L5.04824 57.8619L5.29251 57.3736L4.72255 57.5364ZM5.45536 56.2343L6.02532 56.6412L6.18816 55.9088L5.45536 56.2343ZM3.98974 56.397L4.72255 56.8853L4.80397 55.9901L3.98974 56.397ZM5.04824 57.3736L5.21108 56.9667H4.64113L5.04824 57.3736Z" fill="#147A7C"/>
<path d="M3.74545 56.1529L2.76838 57.6991L4.72254 58.1061L3.74545 56.1529ZM4.80395 54.5253L3.98972 55.9088L5.69961 56.1529L4.80395 54.5253Z" fill="#147A7C"/>
</svg>
