<svg width="96" height="96" viewBox="0 0 96 96" fill="none" xmlns="http://www.w3.org/2000/svg">
<path d="M42.0332 93.9075L46.4077 47.1123L42.0332 0L41.0822 0.126824L45.4567 47.1757L41.0822 93.7807L42.0332 93.9075ZM53.9521 96L54.903 95.8732L50.4652 47.1757L54.903 2.21929L53.9521 2.09246L49.5142 47.2391L53.9521 96Z" fill="#595959"/>
<path d="M0.0634499 54.9115L47.105 50.5363L93.7663 54.9115L93.8297 53.9604L47.105 49.5852L4.62294e-05 53.9604L0.0634499 54.9115ZM47.105 46.4782H47.1684L95.9852 42.103L95.9218 41.1519L47.105 45.5271L2.15559 41.1519L2.09218 42.103L47.105 46.4782Z" fill="#595959"/>
<path d="M75.5076 85.284L76.205 84.6499L46.2175 48.4439L9.82684 18.2615L9.25626 19.0225L45.5835 49.1414L75.5076 85.284ZM86.1585 77.7384L86.7291 76.9775L49.1973 45.6539L20.4778 10.716L19.7804 11.3501L48.5633 46.3514L86.1585 77.7384Z" fill="#595959"/>
<path d="M11.2849 76.4703L47.4854 46.5416L77.6631 10.0819L76.9657 9.44783L46.788 45.9075L10.7144 75.7094L11.2849 76.4703ZM18.9562 86.9961L50.3384 49.395L85.2075 20.7345L84.6369 19.9736L49.641 48.7609L18.2588 86.362L18.9562 86.9961Z" fill="#595959"/>
</svg>
