<svg width="47" height="96" viewBox="0 0 47 96" fill="none" xmlns="http://www.w3.org/2000/svg">
<path d="M43.7476 7.63257L42.6307 8.64004L43.7476 9.09994V7.63257ZM40.2216 8.80429L40.3967 8.9138V8.36627L41.1633 8.62907L40.9443 7.80778L40.4187 8.35531L40.3639 8.04869L39.7069 8.39912L40.2544 8.7824L39.6303 9.27516L40.4516 9.45037L40.2216 8.80429ZM41.2837 14.6081L39.7288 14.2248L40.4953 15.8346L41.2837 14.6081ZM39.8164 16.9077L39.0498 16.7106L39.444 17.51L39.8164 16.9077ZM23.062 18.9226V18.0904L22.4268 18.616L23.062 18.9226ZM17.0392 16.185L16.8858 15.528L16.4916 15.9879L17.0392 16.185ZM14.5753 11.5857L14.4 10.9287L14.0277 11.4105L14.5753 11.5857ZM13.3379 5.49722L13.2831 4.86207L12.8451 5.26723L13.3379 5.49722Z" fill="#E8BF89"/>
<path d="M23.3029 14.6081L23.1058 13.973L22.7553 14.4767L23.3029 14.6081ZM25.1645 16.4916L24.9674 15.8565L24.606 16.3602L25.1645 16.4916ZM40.2763 13.973L40.1011 13.9292L39.5536 13.7868L39.4988 13.973L38.7541 13.7978L39.2798 14.8928L39.7835 14.4329L40.2763 13.973ZM38.5461 17.948L38.6775 17.51L37.9877 17.6414L38.2505 17.8604L37.7906 18.8679L39.0608 18.4299L38.5461 17.948ZM42.7074 9.51607L42.9263 10.1074L43.3206 9.45037L42.5321 9.38467L41.9627 8.50863L41.3385 9.82269L42.7074 9.51607ZM40.5391 19.1526L39.9916 17.8385L38.3162 19.0978L40.5391 19.1526Z" fill="#E8BF89"/>
<path d="M40.6924 16.7982L40.7472 17.0501L41.3276 16.6121L40.7143 16.2288L40.5501 15.4622L39.5645 16.1631L40.6924 16.7982Z" fill="#E8BF89"/>
<path d="M37.1554 9.538L38.4366 9.83365L38.3052 8.45387L37.1554 9.538ZM24.6936 11.0711L25.3506 11.2134L25.3068 10.425L24.6936 11.0711ZM37.9219 13.6992L38.5352 14.0934L38.6994 13.4364L37.9219 13.6992ZM22.8977 15.8893L22.9306 16.7216L23.4343 16.1412L22.8977 15.8893ZM36.5859 15.4513L36.6188 16.2835L37.1115 15.7032L36.5859 15.4513ZM42.9702 14.3891L43.5177 13.075L42.1269 13.294L42.9702 14.3891ZM41.218 9.96506L40.2872 10.0746L40.802 10.7645L41.218 9.96506ZM37.6043 8.54149L36.3998 8.71671L37.0787 9.59274L37.6043 8.54149ZM31.8553 11.6624L30.8698 12.3851L31.8881 12.8451L31.8553 11.6624ZM27.7378 12.1004L26.7523 12.8232L27.7707 13.2612L27.7378 12.1004ZM20.3571 17.729L19.3716 18.4518L20.39 18.8898L20.3571 17.729ZM41.5356 13.2612L42.8278 13.0093L42.3679 12.5713L43.211 11.8705L42.1708 11.5091L42.2803 12.4399L41.6889 12.0785L41.5356 13.2612ZM38.9732 11.2901L39.7616 10.0308H38.2833L38.9732 11.2901ZM23.5109 10.8302L23.4014 11.2682L23.8833 11.1587L23.5109 10.8302ZM35.3375 12.637L35.2609 13.075L35.7537 12.9327L35.3375 12.637ZM13.6883 16.3821L13.8306 16.9297L14.1591 16.4478L13.6883 16.3821ZM35.4142 4.99347L35.5895 5.541L35.8851 5.03729L35.4142 4.99347ZM14.641 3.67942L14.8161 4.20503L15.0899 3.7232L14.641 3.67942ZM23.4014 6.37326L23.5985 6.8989L23.8723 6.38422L23.4014 6.37326ZM35.7975 16.0098L36.0165 16.5354L36.2684 16.0098H35.7975ZM41.0209 16.8858L42.6635 16.4478L42.4993 16.1741L42.6088 15.736L42.2146 15.8784L41.667 15.2761L41.0209 16.8858ZM38.7213 11.6843L39.5973 11.8157L39.1594 11.0054L38.7213 11.6843ZM39.4002 18.5284L39.6521 17.6524L38.7541 17.8714L39.4002 18.5284ZM38.349 1.44549L38.1957 2.21205L38.787 1.83973L38.349 1.44549ZM40.1449 0.131405L40.0025 0.897961L40.5939 0.525644L40.1449 0.131405ZM41.678 0.219029L41.5247 0.985551L42.116 0.613234L41.678 0.219029ZM36.1698 9.43942L35.7318 9.38468L35.8851 9.9541L36.1698 9.43942ZM37.1225 8.08155L36.8816 7.33692L36.4436 7.99396L37.1225 8.08155ZM36.7721 13.4255L36.4983 12.6589L36.0822 13.3707L36.7721 13.4255ZM37.3853 5.95713L37.1882 5.19061L36.7283 5.84762L37.3853 5.95713ZM38.2395 11.082L37.8453 10.0746L37.3306 11.0382L38.2395 11.082ZM27.1137 7.99396L26.7194 6.98649L26.1938 7.95015L27.1137 7.99396ZM37.8891 15.0899L37.4729 13.9292L36.8487 15.0242L37.8891 15.0899ZM17.9152 14.3891L17.5538 13.2064L16.8968 14.2577L17.9152 14.3891ZM22.4487 5.95713L22.2078 4.80733L21.4741 5.73814L22.4487 5.95713ZM17.4333 10.3045L16.9953 9.20946L16.4259 10.2607L17.4333 10.3045ZM22.5801 7.6545L21.4632 8.03774L22.4816 8.65097L22.5801 7.6545ZM27.1356 5.02633L26.0186 5.4096L27.037 6.02283L27.1356 5.02633ZM19.273 7.18359L18.1452 7.55591L19.1745 8.16918L19.273 7.18359ZM23.8504 0.31758L22.7335 0.689896L23.7519 1.30313L23.8504 0.31758ZM24.7264 9.03425L23.6314 9.20946L24.5075 9.94317L24.7264 9.03425ZM38.7432 6.66892L38.4147 5.4096L37.6482 6.48277L38.7432 6.66892ZM39.7069 3.95319L38.4256 4.28169L39.5207 5.04825L39.7069 3.95319ZM43.7586 5.79288L41.7218 6.99745L43.7476 7.67638L43.7586 5.79288ZM23.8285 17.4662L23.4671 18.3094L24.3869 17.9809L23.8285 17.4662ZM21.7479 17.1158L21.3098 17.9152L22.2625 17.6962L21.7479 17.1158ZM36.3341 16.7873L35.9727 17.6414L36.9035 17.3129L36.3341 16.7873ZM37.1772 17.8057L36.6079 19.1526L38.0752 18.627L37.1772 17.8057Z" fill="#E8BF89"/>
<path d="M36.4217 3.87651L35.7318 5.10297L37.1882 4.77447L36.4217 3.87651ZM38.0314 4.27072L37.3525 5.47529L38.8089 5.14679L38.0314 4.27072ZM30.6398 6.02282L29.6214 6.98648L31.1106 7.09599L30.6398 6.02282ZM41.5356 1.33596L40.7034 1.88349L41.7437 2.13537L41.5356 1.33596ZM40.572 12.6917L39.5207 12.6698L40.0682 13.7649L40.572 12.6917ZM39.4769 13.1517L39.2031 12.3851L38.4366 13.0203L39.4769 13.1517ZM42.0832 14.8271L41.5356 13.7321L40.6815 14.8271H42.0832ZM41.0757 1.30311L41.667 0.930798L40.9771 0.569442L41.0757 1.30311ZM37.7467 15.1009L38.3599 15.4842L38.5461 14.7176L37.7467 15.1009ZM35.4033 7.41357L35.8084 7.99395L35.8851 7.3369L35.4033 7.41357ZM16.7435 18.616L17.3129 18.7255L17.1705 18.178L16.7435 18.616ZM36.2903 5.98997L36.8707 6.03378L36.6736 5.50814L36.2903 5.98997ZM22.9853 9.12186L23.0948 9.59273L23.4233 9.22041L22.9853 9.12186ZM22.9634 12.3194L23.3138 13.524L24.0804 12.5166L22.9634 12.3194ZM25.6244 17.6414L24.606 18.3861L25.8106 18.7584L25.6244 17.6414ZM21.6055 15.0352L20.6199 15.8236L21.8464 16.1521L21.6055 15.0352ZM43.441 2.77049L42.2693 2.4858L42.5211 3.79985L43.441 2.77049ZM42.2693 5.50814L42.2255 5.72717L42.7292 5.50814L42.784 6.19803L43.4738 5.68335L42.7292 5.50814L43.1235 5.26723L42.4336 4.87302L42.3022 5.39866L41.5794 5.11393L41.8313 5.96808L42.2693 5.50814ZM41.4699 4.63211L40.6815 5.11393L41.2619 5.48625L41.4699 4.63211ZM41.4261 6.51561L41.6123 5.77098L40.8457 6.14329L41.4261 6.51561Z" fill="#E8BF89"/>
<path d="M43.7148 2.61721L43.1673 3.10996L43.7805 3.32899L43.7148 2.61721ZM42.5431 4.15028L42.3022 3.29614L41.7985 3.95318L42.5431 4.15028ZM20.861 4.62115L20.5981 5.11394L21.1128 4.92777L20.861 4.62115ZM37.0678 1.51119L36.5203 1.47834L36.9035 1.87257L37.0678 1.51119ZM21.2989 0.668001L21.0361 1.16076L21.5508 0.974617L21.2989 0.668001ZM16.0755 5.76002L15.8127 6.25281L16.3274 6.06664L16.0755 5.76002ZM40.4954 0.755591L40.2983 1.60974L41.021 1.34693L40.4954 0.755591ZM42.9483 1.16076L42.7622 2.00398L43.4739 1.74114L42.9483 1.16076ZM11.1696 12.3304L10.9507 12.8779L11.4653 12.626L11.1696 12.3304ZM8.1911 13.3926L7.97207 13.9401L8.47582 13.6882L8.1911 13.3926ZM21.945 13.6992L21.507 13.6664L21.8136 14.1482L21.945 13.6992ZM24.836 14.5424L24.398 14.4767L24.6717 14.9804L24.836 14.5424ZM17.7181 10.9068L17.4444 11.312L17.8824 11.2572L17.7181 10.9068ZM16.0536 7.04126L15.7799 7.44643L16.2179 7.40261L16.0536 7.04126ZM19.6235 0.492788L19.1527 0.383275L19.3717 0.777514L19.6235 0.492788ZM19.2184 1.78495L18.8899 2.15727H19.3278L19.2184 1.78495ZM36.575 10.2498L36.3013 10.6549L36.7393 10.6002L36.575 10.2498ZM41.229 12.188L40.5391 12.5932L41.24 12.9655L41.2947 12.1114L42.0613 11.4762L40.8896 10.9616L41.229 12.188Z" fill="#E8BF89"/>
<path d="M40.1668 15.736L39.3783 14.8052L38.8527 16.0098L38.6118 16.0864L39.1155 16.634L39.444 15.9769L40.1668 15.736Z" fill="#E8BF89"/>
<path d="M38.8747 11.1806L38.141 10.9616L38.4695 11.75L38.8747 11.1806ZM37.9767 13.4473L37.2102 13.2502L37.5934 14.0606L37.9767 13.4473ZM36.3889 13.9949L36.4765 13.6664L35.9728 13.7759L36.1699 13.9401L35.8742 14.6848L36.7831 14.3234L36.3889 13.9949ZM21.6603 2.05872L21.7699 1.73021L21.288 1.79591L21.4523 1.97113L21.1018 2.66102L21.9998 2.39818L21.6603 2.05872ZM40.123 2.49674L40.2326 2.19012L39.7398 2.24489L39.9149 2.42011L39.5536 3.10997L40.4625 2.84716L40.123 2.49674ZM32.8299 0.306615L32.9394 0L32.4467 0.0547731L32.6219 0.229987L32.2715 0.919846L33.1694 0.657043L32.8299 0.306615ZM39.3127 1.83973L39.4222 1.53308L38.9294 1.59881L39.1046 1.77399L38.7542 2.46389L39.6521 2.19012L39.3127 1.83973ZM33.2899 6.63606L33.3994 6.32945L32.9176 6.38422L33.0818 6.55943L32.7314 7.24929L33.6293 6.98649L33.2899 6.63606ZM37.9658 15.6156L38.0424 15.2871L37.5497 15.3965L37.7468 15.5608L37.4402 16.3055L38.349 15.9441L37.9658 15.6156ZM38.8418 13.3488L38.8966 13.6007L39.477 13.1626L38.8747 12.7794L38.6994 12.0347L37.7139 12.7246L38.8418 13.3488ZM36.2794 11.531L36.8488 11.9252L37.0678 11.1915L36.2794 11.531ZM28.4387 14.5752L29.0082 14.9695L29.2272 14.2358L28.4387 14.5752ZM38.3162 12.2756L37.5277 11.3558L37.0131 12.5603L36.7721 12.637L37.2649 13.1845L37.5934 12.5275L38.3162 12.2756Z" fill="#E8BF89"/>
<path d="M31.2968 14.1482L30.5084 13.2283L29.9828 14.4329L29.7418 14.5095L30.2456 15.0571L30.5741 14.4L31.2968 14.1482Z" fill="#E8BF89"/>
<path d="M38.3709 17.4553L38.7651 16.3055L37.4729 16.4697L37.2868 16.2945L37.0677 17.0063L37.7905 16.9515L38.3709 17.4553ZM40.6376 10.9944L39.9806 12.0895L41.3495 11.9033L40.6376 10.9944Z" fill="#E8BF89"/>
<path d="M40.2762 9.75698L39.2469 11.2901L40.7252 11.3229L40.2762 9.75698ZM41.0757 14.1701L41.0428 13.5897L41.2071 13.2612L40.9661 13.3488L40.8566 13.2174L40.7033 13.4364L40.3201 13.7321L41.0757 14.1701ZM43.5286 3.59179L43.441 3.52609L42.8715 3.90937L42.3569 4.21598L43.7585 5.27819L43.7475 3.48231L43.5286 3.59179Z" fill="#E8BF89"/>
<path d="M42.8388 5.00444L43.4301 5.36579L43.3973 4.56642L42.8388 5.00444ZM41.1086 7.67638L41.6342 7.08504L40.8677 6.97553L41.1086 7.67638ZM42.7511 1.59882L41.6999 1.34694L41.9736 2.51866L42.7511 1.59882ZM38.2066 0.678935V0.131405L37.7029 0.35043L38.2066 0.678935ZM36.0603 1.33598L36.0822 0.788448L35.5785 1.00747L36.0603 1.33598ZM39.1265 0.83226L39.1484 0.28473L38.6556 0.503755L39.1265 0.83226ZM41.5575 18.5503L42.6854 17.4881L41.0648 16.8311L41.5575 18.5503ZM37.8124 3.58087L37.0459 3.51517L37.451 4.17218L37.8124 3.58087ZM39.5974 3.07712L38.8308 3.00049L39.236 3.6575L39.5974 3.07712ZM40.0025 1.21554L39.236 1.14984L39.6411 1.80685L40.0025 1.21554ZM40.4077 6.44992L41.1305 6.28567L40.4734 5.78192L40.4077 6.44992ZM41.4809 4.2598L40.3092 3.5261L40.1559 4.62116L41.4809 4.2598Z" fill="#E8BF89"/>
<path d="M42.9922 1.08413L42.3132 0.591336L42.2037 1.30312L42.9922 1.08413ZM41.5904 3.60275L41.7766 2.32152L40.7911 2.59528L41.5904 3.60275ZM39.466 6.42799L40.9443 5.88046L39.5646 5.09202L39.466 6.42799ZM40.8896 8.1582L42.0394 9.00139L42.1927 7.90633L42.6308 8.45386L43.1236 7.33691L42.3241 7.36976L42.1599 6.64702L41.6671 7.30406L41.8861 7.3588L42.127 7.75304L40.8896 8.1582ZM40.583 9.58177L41.24 9.03424L40.364 8.85902L40.583 9.58177ZM43.1236 2.74861L43.6492 2.25582L42.9155 1.74114L43.1236 2.74861ZM40.6049 1.67543L40.123 1.78495L40.5063 2.11349L40.6049 1.67543ZM40.9772 0.25187L40.5063 0.361383L40.8786 0.667998L40.9772 0.25187Z" fill="#E8BF89"/>
<path d="M24.3542 13.294L23.8614 13.7102L24.5403 13.7649L24.3542 13.294ZM14.63 14.0168L14.1044 14.3781L14.7614 14.5095L14.63 14.0168ZM42.0942 5.86953L41.9189 6.61416L42.6088 6.55942L42.0942 5.86953ZM42.5103 4.53355L41.7656 4.35834L42.0394 5.09201L42.5103 4.53355ZM39.1813 5.95712L38.7871 7.5559L40.8458 7.2055L39.1813 5.95712ZM43.7805 9.2423V12.9436L40.9772 10.3812L43.7805 9.2423ZM43.7148 13.6554L43.671 16.393L41.9189 14.8819L43.7148 13.6554ZM42.5103 18.4408L40.8239 19.0321L39.8383 16.9077L42.5103 18.4408ZM43.7367 16.6011L42.8388 18.1342L42.346 16.7654L43.7367 16.6011ZM38.2614 2.80334L36.9474 2.14633L37.3853 3.64656L38.2614 2.80334ZM37.9877 0.755583L36.6736 0.0985398L37.1116 1.5988L37.9877 0.755583ZM31.3735 0.021911H29.9061L30.9683 1.17171L31.3735 0.021911ZM1.8507 15.2432L1.30317 15.0242L1.55501 15.528L1.8507 15.2432ZM39.5426 7.88443L38.2943 8.12535L39.2251 8.97949L39.5426 7.88443ZM36.1808 8.81524L36.356 8.92472V8.37719L37.1007 8.64003L36.8817 7.81873L36.356 8.36626L36.3012 8.05965L35.6442 8.41007L36.1918 8.79332L35.5676 9.28611L36.3889 9.46132L36.1808 8.81524ZM37.2211 14.619L35.6662 14.2358L36.4546 15.8455L37.2211 14.619Z" fill="#E8BF89"/>
<path d="M35.7647 16.9077L34.9982 16.7106L35.3924 17.51L35.7647 16.9077ZM36.2246 13.9839L36.0385 13.9401L35.491 13.7978L35.4472 13.9839L34.7025 13.8087L35.2172 14.9038L35.7319 14.4438L36.2246 13.9839ZM34.4945 17.959L34.6259 17.521L33.936 17.6524L34.1878 17.8714L33.7498 18.8789L35.0201 18.4408L34.4945 17.959ZM36.4984 19.1636L35.9509 17.8495L34.2755 19.1088L36.4984 19.1636Z" fill="#E8BF89"/>
<path d="M36.6407 16.7982L36.6955 17.0501L37.2759 16.6121L36.6627 16.2288L36.4984 15.4622L35.5129 16.1631L36.6407 16.7982Z" fill="#E8BF89"/>
<path d="M33.8155 9.93219L35.1077 10.2169L34.9653 8.83713L33.8155 9.93219ZM25.4492 11.9799L26.7304 12.2756L26.599 10.8959L25.4492 11.9799ZM33.8812 13.6992L34.4944 14.0934L34.6586 13.4364L33.8812 13.6992ZM32.5671 15.4513L32.5999 16.2835L33.0927 15.7031L32.5671 15.4513ZM33.5526 8.53052L32.3481 8.70573L33.027 9.58177L33.5526 8.53052ZM29.501 3.98603L28.2963 4.15028L28.9753 5.02631L29.501 3.98603ZM26.0405 4.69781L24.836 4.87302L25.5149 5.74906L26.0405 4.69781ZM35.677 11.6843L36.4655 10.4359L34.9763 10.425L35.677 11.6843ZM31.2421 16.3273L32.0305 15.079L30.5522 15.068L31.2421 16.3273ZM31.264 12.637L31.1873 13.075L31.6801 12.9326L31.264 12.637ZM31.3406 5.00442L31.5158 5.55195L31.8115 5.04823L31.3406 5.00442ZM31.7349 16.0317L31.9539 16.5573L32.2057 16.0317H31.7349ZM27.4641 14.4438L27.6831 14.9695L27.9241 14.4219L27.4641 14.4438ZM34.6696 11.7062L35.5456 11.8376L35.1077 11.0273L34.6696 11.7062ZM35.3485 18.5503L35.6004 17.6743L34.7025 17.8933L35.3485 18.5503ZM34.2973 1.46737L34.144 2.23392L34.7353 1.86161L34.2973 1.46737ZM30.7165 2.06967L30.5631 2.83619L31.1654 2.46388L30.7165 2.06967ZM26.4457 9.51606L26.0077 9.46132L26.161 10.0307L26.4457 9.51606ZM33.0599 8.0925L32.8409 7.34787L32.4028 8.00488L33.0599 8.0925ZM32.7313 13.4364L32.4576 12.6698L32.0415 13.3816L32.7313 13.4364ZM21.4741 12.1661L21.1894 11.3996L20.7843 12.1223L21.4741 12.1661ZM30.4537 18.3204L30.1799 17.5538L29.7638 18.2765L30.4537 18.3204ZM33.3337 5.96808L33.1146 5.20153L32.6766 5.85857L33.3337 5.96808ZM34.1878 11.093L33.7936 10.0855L33.268 11.0491L34.1878 11.093ZM33.8374 15.1009L33.4212 13.9401L32.797 15.0352L33.8374 15.1009ZM35.1734 6.4061L34.8449 5.14679L34.0783 6.21996L35.1734 6.4061ZM35.6552 3.97506L34.3739 4.3036L35.469 5.07012L35.6552 3.97506ZM32.2824 16.8092L31.921 17.6633L32.8518 17.3348L32.2824 16.8092ZM31.1326 17.6195L30.7712 18.4736L31.702 18.1451L31.1326 17.6195ZM26.61 18.189L26.2596 19.0321L27.1794 18.7036L26.61 18.189ZM27.0918 16.8201L27.9241 17.2034L27.6174 16.2616L27.0918 16.8201ZM30.0156 17.1158L30.8588 17.4991L30.5522 16.5573L30.0156 17.1158Z" fill="#E8BF89"/>
<path d="M32.9394 18.0028L31.9539 19.076H33.5198L32.9394 18.0028ZM29.4024 18.0028L28.4168 19.076H29.9828L29.4024 18.0028ZM32.359 3.87652L31.6691 5.10298L33.1256 4.77447L32.359 3.87652ZM36.5202 12.6917L35.469 12.6698L36.0165 13.7649L36.5202 12.6917ZM35.4252 13.1517L35.1405 12.3851L34.3958 13.0203L35.4252 13.1517ZM33.695 15.1228L34.3082 15.506L34.4944 14.7395L33.695 15.1228ZM31.3516 7.43546L31.7568 8.01584L31.8334 7.3588L31.3516 7.43546ZM32.2276 6.0119L32.808 6.05568L32.6109 5.53007L32.2276 6.0119ZM32.9942 1.52214L32.4467 1.48929L32.8299 1.8835L32.9942 1.52214ZM32.4904 10.2826L32.2167 10.6878L32.6547 10.6331L32.4904 10.2826ZM26.2486 13.3159L25.9748 13.7321L26.4129 13.6773L26.2486 13.3159Z" fill="#E8BF89"/>
<path d="M36.1151 15.736L35.3266 14.8052L34.801 16.0098L34.5602 16.0864L35.0638 16.634L35.3923 15.9769L36.1151 15.736Z" fill="#E8BF89"/>
<path d="M34.823 11.1806L34.0893 10.9616L34.4178 11.75L34.823 11.1806ZM33.925 13.4473L33.1585 13.2502L33.5527 14.0606L33.925 13.4473Z" fill="#E8BF89"/>
<path d="M32.3371 14.0058L32.4248 13.6773L31.921 13.7868L32.1181 13.9511L31.8115 14.6957L32.7313 14.3343L32.3371 14.0058Z" fill="#E8BF89"/>
<path d="M29.0409 16.3273L29.1176 15.9988L28.6248 16.1084L28.8219 16.2726L28.5153 17.0172L29.4352 16.6559L29.0409 16.3273ZM27.3216 18.1342L26.9931 18.0685L27.1245 18.5613L27.2888 18.3642L28.0554 18.627L27.6502 17.729L27.3216 18.1342ZM26.5003 15.6156L26.588 15.2871L26.0843 15.3965L26.2814 15.5608L25.9857 16.3273L26.8946 15.966L26.5003 15.6156ZM36.0712 2.47485L36.1807 2.16823L35.6989 2.22297L35.8741 2.39818L35.5127 3.08808L36.4217 2.82527L36.0712 2.47485Z" fill="#E8BF89"/>
<path d="M33.9249 15.6265L34.0015 15.298L33.5087 15.4075L33.6949 15.5717L33.3993 16.3164L34.3081 15.955L33.9249 15.6265Z" fill="#E8BF89"/>
<path d="M34.8011 13.3597L34.8558 13.6116L35.4362 13.1736L34.823 12.7903L34.6587 12.0457L33.6732 12.7355L34.8011 13.3597ZM32.2387 11.5419L32.808 11.9361L33.0271 11.2025L32.2387 11.5419ZM28.1212 13.3597L28.6906 13.7539L28.9096 13.0203L28.1212 13.3597ZM30.2894 3.21947L29.8514 3.16473L30.0047 3.73415L30.2894 3.21947ZM30.6946 3.98603L30.4208 4.39119L30.8589 4.34738L30.6946 3.98603ZM30.4208 5.27819L30.9903 5.67243L31.2093 4.92776L30.4208 5.27819ZM34.2754 12.2866L33.487 11.3667L32.9723 12.5713L32.7205 12.648L33.2242 13.1955L33.5527 12.5384L34.2754 12.2866ZM29.1724 7.03029L29.041 5.82572L27.946 6.51561L27.7051 6.43895L27.8146 7.17265L28.4497 6.82223L29.1724 7.03029ZM34.3192 17.4553L34.7134 16.3055L33.4213 16.4697L33.2351 16.2945L33.0161 17.0063L33.7389 16.9515L34.3192 17.4553ZM34.1878 6.52657L33.3884 7.73111L34.5382 7.75303L34.1878 6.52657ZM32.151 2.36532L31.3517 3.5699L32.5015 3.59179L32.151 2.36532ZM34.144 0.667995V0.120465L33.6403 0.339457L34.144 0.667995ZM31.9977 1.32504L32.0196 0.777508L31.5159 0.9965L31.9977 1.32504ZM35.0639 0.821286L35.0858 0.273756L34.582 0.492781L35.0639 0.821286ZM33.7498 3.55894L32.9833 3.49324L33.3884 4.15028L33.7498 3.55894ZM35.5347 3.05522L34.7682 2.97856L35.1734 3.6356L35.5347 3.05522Z" fill="#E8BF89"/>
<path d="M35.94 1.21553L35.1734 1.14983L35.5786 1.80684L35.94 1.21553ZM35.4143 6.41707L36.8927 5.86954L35.5129 5.08109L35.4143 6.41707ZM37.1007 6.44992L36.7174 8.0487L38.7652 7.69827L37.1007 6.44992ZM34.1988 2.80335L32.8847 2.14634L33.3228 3.64657L34.1988 2.80335ZM25.274 0.306615L25.3836 0L24.9017 0.0547731L25.0769 0.229987L24.7156 0.919846L25.6245 0.657043L25.274 0.306615ZM28.4935 1.33597L28.5154 0.788445L28.0117 1.00747L28.4935 1.33597ZM26.7414 1.46738L26.5991 2.23393L27.1904 1.86162L26.7414 1.46738ZM25.4712 1.51119L24.9237 1.47834L25.2959 1.87258L25.4712 1.51119ZM17.1816 3.39469L16.6341 3.35088L17.0063 3.74512L17.1816 3.39469ZM19.4812 4.94969L18.9337 4.90588L19.3169 5.30009L19.4812 4.94969ZM24.1024 4.62115L23.5548 4.57738L23.9381 4.97158L24.1024 4.62115ZM28.5921 3.16474L28.7016 2.85812L28.2197 2.92382L28.384 3.09904L28.0336 3.78893L28.9316 3.51517L28.5921 3.16474ZM17.9262 0.865107L18.0357 0.558491L17.5429 0.624192L17.7182 0.799406L17.3677 1.4893L18.2657 1.21553L17.9262 0.865107ZM18.7365 13.1079L18.846 12.8013L18.3642 12.867L18.5394 13.0422L18.1781 13.7211L19.087 13.4583L18.7365 13.1079ZM25.1974 7.30407L25.3069 6.97553L24.8251 7.04126L24.9894 7.21644L24.6389 7.90633L25.5369 7.64353L25.1974 7.30407ZM26.5881 0.689893V0.142363L26.0844 0.361389L26.5881 0.689893Z" fill="#E8BF89"/>
<path d="M27.5189 0.832245L27.5408 0.284715L27.0371 0.50374L27.5189 0.832245ZM27.9898 3.0771L27.2232 3.00048L27.6284 3.65748L27.9898 3.0771ZM23.4124 2.26677L22.6459 2.19011L23.051 2.84715L23.4124 2.26677ZM28.384 1.21552L27.6174 1.14982L28.0116 1.80683L28.384 1.21552ZM26.4457 3.54801L26.3362 2.09156L25.274 3.24139L26.4457 3.54801ZM30.2565 0.919835L28.9425 0.262825L29.3804 1.76305L30.2565 0.919835ZM35.4581 7.87347L34.2207 8.11439L35.1514 8.96853L35.4581 7.87347ZM7.80782 16.4916L7.40265 16.9077L7.97204 16.8639L7.80782 16.4916ZM5.34393 15.9222L4.93876 16.3383L5.50815 16.2945L5.34393 15.9222ZM0.197136 5.08108L0.569453 4.64307L0 4.73066L0.197136 5.08108ZM5.62859 8.30056L5.97902 7.82966L5.43149 7.93917L5.62859 8.30056ZM10.9068 6.92078L11.3668 7.28213L11.2572 6.71271L10.9068 6.92078ZM5.67244 5.30007L6.17612 5.01538L5.62859 4.90587L5.67244 5.30007ZM8.2458 3.65748L8.76051 3.37279L8.21298 3.26328L8.2458 3.65748ZM43.7476 35.2281L42.6307 36.2355L43.7476 36.7064V35.2281ZM40.2216 36.3998L40.3967 36.5312V35.9837L41.1633 36.2465L40.9443 35.4142L40.4187 35.9837L40.3639 35.6771L39.7069 36.0275L40.2545 36.3998L39.6303 36.9035L40.4516 37.0787L40.2216 36.3998ZM41.2837 42.2036L39.7288 41.8203L40.4953 43.4301L41.2837 42.2036ZM39.8164 44.5032L39.0498 44.3171L39.444 45.1165L39.8164 44.5032ZM23.062 46.5182V45.6859L22.4268 46.2334L23.062 46.5182ZM17.0392 43.7805L16.8858 43.1235L16.4916 43.5943L17.0392 43.7805ZM14.5753 39.1812L14.4 38.5242L14.0277 39.006L14.5753 39.1812ZM13.3379 33.0927L13.2831 32.4576L12.8451 32.8518L13.3379 33.0927ZM23.3029 42.2255L23.1058 41.5904L22.7553 42.0832L23.3029 42.2255ZM25.1645 44.0871L24.9674 43.452L24.606 43.9448L25.1645 44.0871Z" fill="#E8BF89"/>
<path d="M20.6747 44.7989L20.4775 44.1638L20.1162 44.6675L20.6747 44.7989ZM9.5598 44.7442L9.3627 44.109L9.00131 44.6128L9.5598 44.7442ZM40.2762 41.5904L40.101 41.5357L39.5535 41.4042L39.4988 41.5904L38.7541 41.4042L39.2797 42.5212L39.7834 42.0503L40.2762 41.5904ZM38.546 45.5655L38.6775 45.1274L37.9876 45.2369L38.2504 45.4778L37.7905 46.4634L39.0607 46.0254L38.546 45.5655ZM42.7073 37.1116L42.9263 37.7139L43.3205 37.0568L42.532 36.9911L41.9627 36.1151L41.3385 37.4292L42.7073 37.1116ZM40.539 46.7481L39.9915 45.4341L38.3161 46.6934L40.539 46.7481ZM40.6814 44.3828L40.7361 44.6347L41.3165 44.1966L40.7033 43.8024L40.539 43.0578L39.5535 43.7586L40.6814 44.3828ZM37.1444 37.1335L38.4256 37.4182L38.2942 36.0384L37.1444 37.1335ZM24.6826 38.6666L25.3396 38.8089L25.2958 38.0096L24.6826 38.6666ZM37.9109 41.2947L38.5242 41.678L38.6884 41.021L37.9109 41.2947ZM22.8867 43.5067L22.9195 44.339L23.4232 43.7477L22.8867 43.5067ZM18.7583 43.8353L18.7912 44.6675L19.2839 44.0762L18.7583 43.8353ZM17.5756 44.7989L17.6085 45.6312L18.1013 45.0398L17.5756 44.7989ZM36.5859 43.0468L36.6188 43.8791L37.1115 43.2877L36.5859 43.0468ZM42.9701 41.9737L43.5176 40.6596L42.1269 40.8786L42.9701 41.9737ZM41.218 37.5606L40.2872 37.6701L40.8019 38.349L41.218 37.5606Z" fill="#E8BF89"/>
<path d="M37.5933 36.137L36.3888 36.3012L37.0677 37.1773L37.5933 36.137ZM31.8443 39.2689L30.8587 39.9916L31.8771 40.4296L31.8443 39.2689ZM27.7269 39.685L26.7413 40.4077L27.7597 40.8677L27.7269 39.685ZM20.3461 45.3136L19.3606 46.0363L20.379 46.4963L20.3461 45.3136ZM41.5246 40.8567L42.8168 40.5939L42.3569 40.1559L43.2 39.4441L42.1598 39.0937L42.2693 40.0245L41.6779 39.6521L41.5246 40.8567ZM38.9622 38.8856L39.7506 37.6372L38.2723 37.6263L38.9622 38.8856ZM23.4999 38.4257L23.3904 38.8637L23.8723 38.7542L23.4999 38.4257ZM35.3266 40.2544L35.25 40.6924L35.7427 40.5501L35.3266 40.2544ZM13.6773 43.9776L13.8196 44.5251L14.1481 44.0324L13.6773 43.9776ZM35.4032 32.589L35.5785 33.1365L35.8741 32.6328L35.4032 32.589ZM14.63 31.2968L14.8051 31.8115L15.0789 31.3297L14.63 31.2968ZM23.3904 33.9797L23.5875 34.5272L23.8613 34.0126L23.3904 33.9797ZM35.7865 43.6163L36.0055 44.1419L36.2574 43.6163H35.7865ZM41.0099 44.4923L42.6525 44.0762L42.4883 43.7915L42.5978 43.3534L42.2036 43.4958L41.656 42.8826L41.0099 44.4923ZM38.7103 39.2908L39.5863 39.4331L39.1484 38.6228L38.7103 39.2908ZM39.3892 46.1349L39.6411 45.2589L38.7432 45.4778L39.3892 46.1349ZM38.338 29.0739L38.1847 29.8404L38.776 29.4681L38.338 29.0739ZM40.1339 27.7379L39.9915 28.5044L40.5829 28.1321L40.1339 27.7379ZM41.667 27.8474L41.5137 28.6139L42.105 28.2416L41.667 27.8474ZM36.1588 37.0459L35.7208 36.9911L35.8741 37.5606L36.1588 37.0459ZM37.1115 35.699L36.8706 34.9324L36.4326 35.6114L37.1115 35.699ZM36.7611 41.0429L36.4874 40.2763L36.0712 40.9991L36.7611 41.0429ZM37.3744 33.5636L37.1772 32.7971L36.7173 33.4541L37.3744 33.5636ZM38.2285 38.7104L37.8343 37.7029L37.3196 38.6556L38.2285 38.7104ZM27.1027 35.6223L26.7084 34.6149L26.1828 35.5676L27.1027 35.6223ZM37.8781 42.6964L37.4619 41.5357L36.8377 42.6307L37.8781 42.6964ZM17.9042 41.9956L17.5428 40.8238L16.8858 41.8751L17.9042 41.9956ZM22.4377 33.5855L22.1968 32.4247L21.4631 33.3665L22.4377 33.5855ZM17.4223 37.9219L16.9844 36.8269L16.4149 37.8672L17.4223 37.9219ZM22.5691 35.2938L21.4522 35.6661L22.4706 36.2793L22.5691 35.2938ZM27.1246 32.6657L26.0076 33.038L27.026 33.6512L27.1246 32.6657ZM19.262 34.801L18.1342 35.1733L19.1635 35.7975L19.262 34.801Z" fill="#E8BF89"/>
<path d="M23.8504 27.946L22.7335 28.3183L23.7519 28.9425L23.8504 27.946ZM24.7265 36.6626L23.6314 36.8488L24.5075 37.5825L24.7265 36.6626ZM38.7433 34.3192L38.4147 33.0489L37.6482 34.144L38.7433 34.3192ZM39.7069 31.5815L38.4257 31.9101L39.5207 32.6766L39.7069 31.5815ZM43.7586 33.4213L41.7218 34.6477L43.7476 35.3048L43.7586 33.4213ZM23.8286 45.1055L23.4672 45.9487L24.387 45.6202L23.8286 45.1055ZM21.7479 44.7442L21.3099 45.5435L22.2626 45.3246L21.7479 44.7442ZM36.3341 44.4156L35.9727 45.2698L36.9035 44.9413L36.3341 44.4156ZM37.1773 45.4231L36.6079 46.77L38.0752 46.2554L37.1773 45.4231ZM36.4108 31.4611L35.7209 32.6875L37.1773 32.3371L36.4108 31.4611ZM38.0205 31.8553L37.3416 33.0818L38.798 32.7533L38.0205 31.8553ZM30.6288 33.6074L29.6104 34.5711L31.0997 34.6806L30.6288 33.6074ZM41.5247 28.9205L40.6924 29.4681L41.7328 29.7199L41.5247 28.9205ZM40.561 40.2873L39.5098 40.2654L40.0573 41.3385L40.561 40.2873ZM39.466 40.7472L39.1922 39.9807L38.4257 40.6377L39.466 40.7472ZM42.0722 42.4117L41.5247 41.3385L40.6705 42.4336L42.0722 42.4117ZM41.0648 28.8987L41.6561 28.5154L40.9662 28.1649L41.0648 28.8987ZM37.7358 42.6964L38.349 43.0797L38.5352 42.3131L37.7358 42.6964ZM35.3924 35.031L35.7976 35.6004L35.8742 34.9434L35.3924 35.031ZM16.7325 46.2225L17.302 46.332L17.1596 45.7845L16.7325 46.2225ZM36.2794 33.6074L36.8597 33.6512L36.6626 33.1037L36.2794 33.6074ZM22.9744 36.7283L23.0839 37.2102L23.4124 36.8269L22.9744 36.7283ZM22.9525 39.9368L23.3029 41.1414L24.0694 40.123L22.9525 39.9368ZM25.6134 45.2479L24.595 46.0144L25.7997 46.3758L25.6134 45.2479ZM21.5946 42.6416L20.6091 43.4301L21.8355 43.7586L21.5946 42.6416ZM4.84019 46.2115L3.96416 46.7043L5.38772 46.7372L4.84019 46.2115ZM43.4411 30.3989L42.2693 30.1142L42.5212 31.4282L43.4411 30.3989ZM42.2693 33.1146L42.2256 33.3336L42.7292 33.1146L42.784 33.8045L43.4739 33.3008L42.7292 33.1146L43.1235 32.8737L42.4336 32.4795L42.3022 33.027L41.5794 32.7423L41.8313 33.5855L42.2693 33.1146Z" fill="#E8BF89"/>
<path d="M41.481 32.2386L40.6925 32.7204L41.2729 33.0818L41.481 32.2386ZM41.4371 34.133L41.6233 33.3884L40.8568 33.7607L41.4371 34.133ZM43.7148 30.2127L43.1673 30.7055L43.7805 30.9464L43.7148 30.2127ZM42.5431 31.7458L42.3022 30.9026L41.7985 31.5596L42.5431 31.7458ZM20.861 32.2386L20.5981 32.7314L21.1128 32.5452L20.861 32.2386ZM37.0678 29.1176L36.5203 29.0739L36.9035 29.4681L37.0678 29.1176ZM21.2989 28.2745L21.0361 28.7672L21.5508 28.5811L21.2989 28.2745ZM16.0755 33.3665L15.8127 33.8593L16.3274 33.6622L16.0755 33.3665ZM40.4954 28.3511L40.2983 29.2053L41.021 28.9425L40.4954 28.3511ZM42.9483 28.7563L42.7622 29.6104L43.4739 29.3476L42.9483 28.7563ZM11.1696 39.9478L10.9507 40.4953L11.4653 40.2435L11.1696 39.9478ZM8.1911 40.999L7.97207 41.5466L8.47582 41.2838L8.1911 40.999ZM21.945 41.3276L21.507 41.2838L21.8136 41.7765L21.945 41.3276ZM24.836 42.1598L24.398 42.0941L24.6717 42.5978L24.836 42.1598ZM17.7181 38.5242L17.4444 38.9294L17.8824 38.8746L17.7181 38.5242ZM16.0536 34.6696L15.7799 35.0748L16.2179 35.031L16.0536 34.6696ZM19.6235 28.0992L19.1527 27.9897L19.3717 28.3949L19.6235 28.0992ZM19.2184 29.3805L18.8899 29.7528H19.3278L19.2184 29.3805ZM36.575 37.8562L36.3013 38.2614L36.7393 38.2067L36.575 37.8562ZM41.229 39.7835L40.5391 40.1778L41.24 40.5501L41.2947 39.7069L42.0613 39.0498L40.8896 38.5352L41.229 39.7835Z" fill="#E8BF89"/>
<path d="M40.1668 43.3315L39.3784 42.4117L38.8528 43.6163L38.6118 43.6929L39.1156 44.2404L39.4441 43.5834L40.1668 43.3315Z" fill="#E8BF89"/>
<path d="M38.8747 38.7761L38.141 38.5571L38.4695 39.3236L38.8747 38.7761ZM37.9767 41.0429L37.2102 40.8567L37.5934 41.6561L37.9767 41.0429ZM36.3889 41.5904L36.4765 41.2619L35.9728 41.3714L36.1699 41.5357L35.8742 42.3022L36.7831 41.9408L36.3889 41.5904ZM21.6603 29.6542L21.7699 29.3476L21.288 29.4133L21.4523 29.5885L21.1018 30.2675L21.9998 30.0046L21.6603 29.6542ZM40.123 30.0923L40.2326 29.7638L39.7398 29.8295L39.9149 30.0046L39.5536 30.6945L40.4625 30.4317L40.123 30.0923ZM32.8299 27.9021L32.9394 27.5736L32.4467 27.6393L32.6219 27.8145L32.2715 28.5044L33.1694 28.2416L32.8299 27.9021ZM39.3127 29.4352L39.4222 29.1067L38.9294 29.1724L39.1046 29.3476L38.7542 30.0375L39.6521 29.7747L39.3127 29.4352ZM33.2899 34.2206L33.3994 33.914L32.9176 33.9797L33.0818 34.1549L32.7314 34.8448L33.6293 34.5711L33.2899 34.2206ZM37.9658 43.2001L38.0424 42.8716L37.5497 42.9811L37.7468 43.1454L37.4402 43.9119L38.349 43.5396L37.9658 43.2001ZM38.8418 40.9443L38.8966 41.1852L39.477 40.7472L38.8747 40.3639L38.6994 39.5974L37.7139 40.2982L38.8418 40.9443ZM36.2794 39.1155L36.8488 39.5098L37.0678 38.7761L36.2794 39.1155ZM28.4387 42.1598L29.0082 42.554L29.2272 41.8203L28.4387 42.1598Z" fill="#E8BF89"/>
<path d="M38.3271 39.8821L37.5386 38.9623L37.024 40.1668L36.783 40.2544L37.2758 40.7801L37.6043 40.123L38.3271 39.8821Z" fill="#E8BF89"/>
<path d="M31.2968 41.7656L30.5083 40.8348L29.9827 42.0393L29.7418 42.116L30.2455 42.6635L30.574 42.0065L31.2968 41.7656Z" fill="#E8BF89"/>
<path d="M38.3709 45.0508L38.7651 43.901L37.4729 44.0543L37.2868 43.89L37.0677 44.5908L37.7905 44.5471L38.3709 45.0508Z" fill="#E8BF89"/>
<path d="M40.6377 38.5899L39.9806 39.685L41.3495 39.4988L40.6377 38.5899Z" fill="#E8BF89"/>
<path d="M40.2762 37.3634L39.2469 38.8966H40.7252L40.2762 37.3634ZM41.0757 41.7656L41.0428 41.1743L41.2071 40.8458L40.9661 40.9224L40.8566 40.791L40.7033 41.01L40.3201 41.2947L41.0757 41.7656ZM43.5286 31.1873L43.441 31.1216L42.8715 31.5158L42.3569 31.8115L43.7585 32.8737L43.7475 31.0778L43.5286 31.1873Z" fill="#E8BF89"/>
<path d="M42.8388 32.6L43.4301 32.9723L43.3973 32.1729L42.8388 32.6ZM41.1086 35.2719L41.6342 34.6806L40.8677 34.571L41.1086 35.2719ZM42.7511 29.2053L41.6999 28.9534L41.9736 30.1251L42.7511 29.2053ZM38.2066 28.2745V27.7269L37.7029 27.9459L38.2066 28.2745ZM36.0603 28.9534L36.0822 28.4059L35.5785 28.6249L36.0603 28.9534ZM39.1265 28.4387L39.1484 27.8912L38.6556 28.1102L39.1265 28.4387ZM41.5575 46.1458L42.6854 45.0727L41.0648 44.4156L41.5575 46.1458ZM37.8124 31.1873L37.0459 31.1107L37.451 31.7677L37.8124 31.1873ZM39.5974 30.6726L38.8308 30.6069L39.236 31.264L39.5974 30.6726ZM40.0025 28.811L39.236 28.7344L39.6411 29.3914L40.0025 28.811ZM40.4077 34.0454L41.1305 33.8702L40.4734 33.3774L40.4077 34.0454ZM41.4809 31.8553L40.3092 31.1216L40.1559 32.2167L41.4809 31.8553Z" fill="#E8BF89"/>
<path d="M42.9922 28.6906L42.3132 28.1869L42.2037 28.8987L42.9922 28.6906ZM41.5904 31.1873L41.7766 29.9171L40.7911 30.1908L41.5904 31.1873ZM39.466 34.0345L40.9443 33.487L39.5646 32.7204L39.466 34.0345ZM40.8896 35.7537L42.0394 36.586L42.1927 35.4909L42.6308 36.0384L43.1236 34.9215L42.3241 34.9543L42.1599 34.2426L41.6671 34.8996L41.8861 34.9543L42.127 35.3485L40.8896 35.7537ZM40.583 37.1773L41.24 36.6298L40.364 36.4546L40.583 37.1773ZM43.1236 30.3441L43.6492 29.8514L42.9155 29.3367L43.1236 30.3441ZM40.6049 29.2929L40.123 29.4024L40.5063 29.7309L40.6049 29.2929ZM40.9772 27.8364L40.5063 27.946L40.8786 28.2745L40.9772 27.8364Z" fill="#E8BF89"/>
<path d="M24.3542 40.8895L23.8614 41.3276L24.5403 41.3823L24.3542 40.8895ZM14.63 41.6123L14.1044 41.9737L14.7614 42.1051L14.63 41.6123ZM42.0942 33.476L41.9189 34.2206L42.6088 34.1659L42.0942 33.476ZM42.5103 32.1291L41.7656 31.9429L42.0394 32.6875L42.5103 32.1291ZM39.1813 33.5527L38.7871 35.1514L40.8458 34.801L39.1813 33.5527ZM43.7805 36.8378V40.5282L40.9772 37.9767L43.7805 36.8378ZM43.7148 41.2509L43.671 43.9886L41.9189 42.4883L43.7148 41.2509ZM42.5103 46.0363L40.8239 46.6277L39.8383 44.4923L42.5103 46.0363ZM43.7367 44.1966L42.8388 45.7297L42.346 44.3609L43.7367 44.1966ZM38.2614 30.3989L36.9474 29.7418L37.3853 31.2421L38.2614 30.3989ZM37.9877 28.362L36.6736 27.705L37.1116 29.2053L37.9877 28.362ZM31.3735 27.6174H29.9061L30.9683 28.7672L31.3735 27.6174ZM1.8507 42.8387L1.30317 42.6197L1.55501 43.1344L1.8507 42.8387ZM39.5426 35.4799L38.2943 35.699L39.2251 36.5531L39.5426 35.4799ZM36.1808 36.3998L36.356 36.5312V35.9837L37.1007 36.2465L36.8817 35.4142L36.356 35.9837L36.3012 35.6771L35.6442 36.0275L36.1918 36.3998L35.5676 36.9035L36.3889 37.0787L36.1808 36.3998ZM37.2211 42.2036L35.6662 41.8203L36.4546 43.4301L37.2211 42.2036Z" fill="#E8BF89"/>
<path d="M35.7646 44.5033L34.998 44.3171L35.3923 45.1165L35.7646 44.5033ZM36.2245 41.5904L36.0383 41.5357L35.4908 41.4042L35.447 41.5904L34.7024 41.4042L35.2171 42.5212L35.7318 42.0503L36.2245 41.5904ZM34.4943 45.5655L34.6257 45.1275L33.9359 45.2369L34.1877 45.4778L33.7497 46.4634L35.0199 46.0254L34.4943 45.5655ZM36.4983 46.77L35.9507 45.456L34.2753 46.7153L36.4983 46.77ZM24.2336 46.7591L23.9051 45.9597L22.8867 46.7262L24.2336 46.7591ZM21.9997 46.7591L21.6712 45.9597L20.6637 46.7262L21.9997 46.7591ZM31.8005 46.7591L31.472 45.9597L30.4536 46.7262L31.8005 46.7591ZM36.6516 44.4047L36.7063 44.6566L37.2867 44.2185L36.6735 43.8243L36.5092 43.0797L35.5237 43.7805L36.6516 44.4047ZM33.8263 37.5387L35.1185 37.8234L34.9762 36.4546L33.8263 37.5387ZM25.4601 39.6193L26.7413 39.904L26.6099 38.5242L25.4601 39.6193ZM33.892 41.3276L34.5053 41.7108L34.6695 41.0538L33.892 41.3276ZM32.578 43.0797L32.6108 43.9119L33.1036 43.3206L32.578 43.0797ZM33.5635 36.1589L32.359 36.3232L33.0379 37.1992L33.5635 36.1589ZM29.5118 31.6253L28.3072 31.7896L28.9862 32.6657L29.5118 31.6253ZM26.0514 32.3262L24.8469 32.4904L25.5258 33.3665L26.0514 32.3262ZM35.6879 39.3127L36.4764 38.0533H34.9871L35.6879 39.3127Z" fill="#E8BF89"/>
<path d="M31.2421 43.9338L32.0305 42.6745L30.5522 42.6636L31.2421 43.9338ZM31.264 40.2544L31.1873 40.6924L31.6801 40.5501L31.264 40.2544ZM31.3406 32.589L31.5158 33.1365L31.8115 32.6328L31.3406 32.589ZM31.7349 43.6162L31.9539 44.1419L32.2057 43.6162H31.7349ZM27.4641 42.0284L27.6831 42.554L27.9241 42.0284H27.4641ZM34.6696 39.2907L35.5456 39.4331L35.1077 38.6228L34.6696 39.2907ZM35.3485 46.1349L35.6004 45.2588L34.7025 45.4778L35.3485 46.1349ZM34.2973 29.0739L34.144 29.8404L34.7353 29.4681L34.2973 29.0739ZM30.7165 29.6652L30.5631 30.4317L31.1654 30.0594L30.7165 29.6652ZM26.4457 37.1116L26.0077 37.0568L26.161 37.6263L26.4457 37.1116ZM33.0599 35.688L32.8409 34.9215L32.4028 35.6004L33.0599 35.688ZM32.7313 41.0319L32.4576 40.2654L32.0415 40.9881L32.7313 41.0319ZM21.4741 39.7726L21.1894 39.006L20.7843 39.7288L21.4741 39.7726ZM30.4537 45.9049L30.1799 45.1384L29.7638 45.8501L30.4537 45.9049ZM33.3337 33.5526L33.1146 32.7861L32.6766 33.4431L33.3337 33.5526ZM34.1878 38.6994L33.7936 37.692L33.268 38.6447L34.1878 38.6994Z" fill="#E8BF89"/>
<path d="M33.8373 42.7073L33.4211 41.5466L32.7969 42.6416L33.8373 42.7073ZM35.1733 34.0235L34.8448 32.7532L34.0782 33.8483L35.1733 34.0235ZM35.6551 31.5815L34.3738 31.9101L35.4689 32.6766L35.6551 31.5815ZM32.2823 44.4266L31.9209 45.2807L32.8517 44.9522L32.2823 44.4266ZM31.1325 45.2369L30.7711 46.0801L31.7019 45.7516L31.1325 45.2369ZM26.6099 45.7845L26.2595 46.6386L27.1793 46.3101L26.6099 45.7845ZM27.0917 44.4156L27.924 44.7989L27.6173 43.8681L27.0917 44.4156ZM30.0155 44.7113L30.8587 45.0946L30.5521 44.1638L30.0155 44.7113ZM25.931 44.8865L26.7741 45.2698L26.4675 44.328L25.931 44.8865ZM32.9393 45.6092L31.9538 46.6824H33.5197L32.9393 45.6092ZM29.5118 45.664L28.5262 46.7372L30.0922 46.7481L29.5118 45.664ZM18.7802 45.664L17.7727 46.7372L19.3387 46.7481L18.7802 45.664ZM15.4622 45.664L14.4766 46.7372L16.0425 46.7481L15.4622 45.664ZM12.9107 45.664L11.9251 46.7372L13.4911 46.7481L12.9107 45.664ZM7.56678 45.9159L6.97547 46.7372L8.5414 46.7481L7.56678 45.9159ZM32.3809 31.4611L31.691 32.6875L33.1474 32.3371L32.3809 31.4611Z" fill="#E8BF89"/>
<path d="M36.5202 40.2982L35.469 40.2763L36.0165 41.3495L36.5202 40.2982ZM35.4252 40.7581L35.1405 39.9916L34.3958 40.6486L35.4252 40.7581ZM33.695 42.7073L34.3082 43.0906L34.4944 42.3241L33.695 42.7073ZM31.3516 35.0419L31.7568 35.6114L31.8334 34.9543L31.3516 35.0419ZM32.2276 33.6184L32.808 33.6622L32.6109 33.1146L32.2276 33.6184ZM32.9942 29.1286L32.4467 29.0848L32.8299 29.479L32.9942 29.1286ZM32.4904 37.8891L32.2167 38.2943L32.6547 38.2395L32.4904 37.8891ZM26.2486 40.9115L25.9748 41.3166L26.4129 41.2619L26.2486 40.9115Z" fill="#E8BF89"/>
<path d="M36.1151 43.3315L35.3267 42.4117L34.8011 43.6163L34.5602 43.6929L35.0639 44.2404L35.3924 43.5834L36.1151 43.3315Z" fill="#E8BF89"/>
<path d="M34.8228 38.7761L34.0892 38.5571L34.4177 39.3236L34.8228 38.7761ZM33.9249 41.0429L33.1583 40.8567L33.5525 41.6561L33.9249 41.0429ZM32.337 41.5904L32.4247 41.2619L31.9209 41.3714L32.118 41.5357L31.8114 42.3022L32.7312 41.9408L32.337 41.5904ZM15.8016 44.3828L15.8893 44.0543L15.3855 44.1638L15.5826 44.339L15.2869 45.0836L16.1959 44.7222L15.8016 44.3828ZM29.03 43.9119L29.1066 43.5834L28.6139 43.6929L28.811 43.8572L28.5043 44.6237L29.4242 44.2623L29.03 43.9119ZM24.1679 44.4594L24.2445 44.1309L23.7518 44.2404L23.9489 44.4047L23.6422 45.1712L24.5621 44.8099L24.1679 44.4594ZM27.3107 45.7407L26.9822 45.675L27.1136 46.1677L27.2779 45.9487L28.0444 46.2225L27.6392 45.3246L27.3107 45.7407ZM26.4894 43.222L26.577 42.8935L26.0733 43.003L26.2704 43.1673L25.9747 43.9119L26.8836 43.5506L26.4894 43.222ZM11.0491 45.9597L11.1367 45.6312L10.6329 45.7407L10.83 45.9049L10.5344 46.6496L11.4433 46.2882L11.0491 45.9597ZM36.0493 30.1032L36.1588 29.7747L35.6769 29.8404L35.8522 30.0156L35.4908 30.7055L36.3997 30.4427L36.0493 30.1032Z" fill="#E8BF89"/>
<path d="M33.9249 43.222L34.0015 42.8935L33.5087 43.003L33.6949 43.1673L33.3993 43.9338L34.3081 43.5615L33.9249 43.222Z" fill="#E8BF89"/>
<path d="M34.801 40.9662L34.8558 41.2071L35.4362 40.7691L34.8229 40.3858L34.6587 39.6193L33.6731 40.3201L34.801 40.9662ZM32.2386 39.1375L32.808 39.5317L33.027 38.798L32.2386 39.1375ZM28.1212 40.9662L28.6906 41.3604L28.9096 40.6267L28.1212 40.9662ZM30.2894 30.815L29.8514 30.7602L30.0047 31.3297L30.2894 30.815Z" fill="#E8BF89"/>
<path d="M30.6946 31.6034L30.4208 32.0086L30.8589 31.9539L30.6946 31.6034ZM30.4208 32.8737L30.9903 33.2679L31.2093 32.5343L30.4208 32.8737ZM34.2754 39.8821L33.487 38.9623L32.9723 40.1668L32.7205 40.2544L33.2242 40.7801L33.5527 40.123L34.2754 39.8821ZM29.1724 34.6477L29.041 33.4431L27.946 34.144L27.7051 34.0673L27.8146 34.7901L28.4497 34.4396L29.1724 34.6477Z" fill="#E8BF89"/>
<path d="M34.3192 45.0508L34.7134 43.901L33.4212 44.0543L33.2351 43.89L33.0161 44.5908L33.7388 44.5471L34.3192 45.0508Z" fill="#E8BF89"/>
<path d="M29.0628 46.102L29.457 44.9522L28.1649 45.1055L27.9677 44.9413L27.7487 45.6421L28.4715 45.5983L29.0628 46.102ZM34.1877 34.1221L33.3883 35.3266L34.5381 35.3485L34.1877 34.1221ZM32.1509 29.9827L31.3515 31.1873L32.5013 31.2092L32.1509 29.9827ZM34.1439 28.2745V27.7269L33.6402 27.9459L34.1439 28.2745ZM31.9976 28.9534L32.0195 28.4059L31.5157 28.6249L31.9976 28.9534ZM35.0637 28.4387L35.0856 27.8912L34.5819 28.1102L35.0637 28.4387ZM33.7497 31.1764L32.9831 31.0997L33.3883 31.7567L33.7497 31.1764ZM35.5346 30.6617L34.7681 30.596L35.1733 31.253L35.5346 30.6617Z" fill="#E8BF89"/>
<path d="M35.94 28.822L35.1734 28.7453L35.5786 29.4024L35.94 28.822ZM35.4143 34.0235L36.8927 33.476L35.5129 32.7094L35.4143 34.0235ZM37.1007 34.0564L36.7174 35.6442L38.7652 35.3157L37.1007 34.0564ZM34.1988 30.3989L32.8847 29.7418L33.3228 31.2421L34.1988 30.3989ZM25.274 27.9131L25.3836 27.5846L24.9017 27.6503L25.0769 27.8255L24.7156 28.5154L25.6245 28.2526L25.274 27.9131ZM28.4935 28.9534L28.5154 28.4059L28.0117 28.6249L28.4935 28.9534ZM26.7414 29.0848L26.5991 29.8513L27.1904 29.479L26.7414 29.0848ZM25.4712 29.1176L24.9237 29.0739L25.2959 29.4681L25.4712 29.1176ZM17.1816 31.0011L16.6341 30.9574L17.0063 31.3516L17.1816 31.0011ZM19.4812 32.5343L18.9337 32.5014L19.3169 32.8956L19.4812 32.5343ZM24.1024 32.2057L23.5548 32.1729L23.9381 32.5671L24.1024 32.2057ZM28.5921 30.7602L28.7016 30.4536L28.2197 30.5084L28.384 30.6836L28.0336 31.3735L28.9316 31.1107L28.5921 30.7602ZM17.9262 28.4606L18.0357 28.154L17.5429 28.2088L17.7182 28.384L17.3677 29.0739L18.2657 28.811L17.9262 28.4606ZM18.7365 40.7034L18.846 40.3749L18.3642 40.4406L18.5394 40.6158L18.1781 41.3057L19.087 41.0429L18.7365 40.7034ZM25.1974 34.8777L25.3069 34.571L24.8251 34.6367L24.9894 34.812L24.6389 35.4909L25.5369 35.2281L25.1974 34.8777ZM26.5881 28.2635V27.716L26.0844 27.935L26.5881 28.2635Z" fill="#E8BF89"/>
<path d="M27.5189 28.4387L27.5408 27.8912L27.0371 28.1102L27.5189 28.4387ZM27.9898 30.6726L27.2232 30.6069L27.6284 31.264L27.9898 30.6726ZM23.4124 29.8732L22.6459 29.7966L23.051 30.4536L23.4124 29.8732ZM28.384 28.822L27.6174 28.7453L28.0116 29.4024L28.384 28.822ZM26.4457 31.1654L26.3362 29.698L25.274 30.8479L26.4457 31.1654ZM30.2565 28.5154L28.9425 27.8583L29.3804 29.3586L30.2565 28.5154ZM35.4581 35.4799L34.2207 35.699L35.1514 36.5531L35.4581 35.4799ZM7.80782 44.0871L7.40265 44.5251L7.97204 44.4813L7.80782 44.0871ZM5.34393 43.5177L4.93876 43.9338L5.50815 43.9009L5.34393 43.5177ZM0.197136 32.6766L0.569453 32.2167L0 32.3262L0.197136 32.6766ZM5.62859 35.8961L5.97902 35.4362L5.43149 35.5457L5.62859 35.8961ZM10.9068 34.5382L11.3668 34.8886L11.2572 34.3411L10.9068 34.5382ZM5.67244 32.8956L6.17612 32.6109L5.62859 32.4795L5.67244 32.8956ZM8.2458 31.2749L8.76051 30.9902L8.21298 30.8588L8.2458 31.2749ZM46.9014 84.0349L45.7735 85.0205L46.9014 85.4913V84.0349ZM43.3753 85.1957L43.5505 85.3271L43.5287 84.7796L44.2952 85.0424L44.0762 84.2101L43.5287 84.7796L43.4739 84.4729L42.8169 84.8234L43.3644 85.1957L42.7402 85.6994L43.5615 85.8746L43.3753 85.1957ZM44.4266 90.9995L42.8716 90.6162L43.6601 92.226L44.4266 90.9995ZM39.8274 93.5181L39.0608 93.321L39.455 94.1314L39.8274 93.5181ZM23.073 95.5549V94.7227L22.4378 95.2702L23.073 95.5549ZM20.182 92.5983L20.0396 91.9413L19.6454 92.4121L20.182 92.5983ZM17.7291 87.999L17.5648 87.342L17.1815 87.8238L17.7291 87.999ZM26.4457 91.0323L26.2486 90.3972L25.8872 90.9009L26.4457 91.0323ZM25.1755 93.1129L24.9784 92.4778L24.617 92.9815L25.1755 93.1129ZM20.6857 93.8248L20.4886 93.1896L20.1272 93.6933L20.6857 93.8248Z" fill="#E8BF89"/>
<path d="M9.5598 93.7481L9.3627 93.1129L9.00131 93.6167L9.5598 93.7481ZM43.43 90.3863L43.2439 90.3424L42.6963 90.2001L42.6525 90.3863L41.9079 90.2001L42.4226 91.3171L42.9372 90.8462L43.43 90.3863ZM38.546 94.5475L38.6775 94.1095L37.9876 94.2409L38.2504 94.4599L37.7905 95.4674L39.0607 95.0293L38.546 94.5475ZM45.8611 85.8965L46.08 86.4988L46.4743 85.8418L45.6858 85.7761L45.1383 84.9L44.5031 86.2141L45.8611 85.8965Z" fill="#E8BF89"/>
<path d="M40.3421 95.4783L39.7946 94.1642L38.4477 95.7411L40.3421 95.4783ZM43.8463 93.2006L43.901 93.4415L44.4814 93.0035L43.8682 92.6092L43.693 91.8646L42.7074 92.5654L43.8463 93.2006ZM40.3093 85.9294L41.5905 86.2141L41.4481 84.8343L40.3093 85.9294ZM27.8475 87.4624L28.4826 87.6048L28.4388 86.8164L27.8475 87.4624ZM41.0758 90.0906L41.6891 90.4738L41.8533 89.8168L41.0758 90.0906ZM22.8978 92.4997L22.9307 93.321L23.4344 92.7406L22.8978 92.4997ZM18.7694 92.8283L18.8023 93.6605L19.2951 93.0692L18.7694 92.8283ZM17.5868 93.7919L17.6196 94.6132L18.1124 94.0328L17.5868 93.7919ZM39.7289 91.8208L39.7508 92.653L40.2545 92.0727L39.7289 91.8208ZM45.6422 90.8024L46.1897 89.4883L44.799 89.7073L45.6422 90.8024ZM44.35 86.3345L43.4302 86.444L43.9449 87.123L44.35 86.3345ZM40.7363 84.8891L39.5317 85.0533L40.2107 85.9294L40.7363 84.8891ZM34.9982 88.0319L34.0127 88.7546L35.0311 89.1926L34.9982 88.0319ZM33.1366 86.9916L32.1511 87.7143L33.1695 88.1523L33.1366 86.9916ZM20.3572 94.3066L19.3717 95.0293L20.3901 95.4674L20.3572 94.3066ZM44.6676 89.6197L45.9817 89.3569L45.5218 88.9189L46.354 88.218L45.3137 87.8567L45.4232 88.7875L44.8428 88.4261L44.6676 89.6197Z" fill="#E8BF89"/>
<path d="M42.0941 87.6815L42.8825 86.4221H41.3933L42.0941 87.6815ZM26.6537 87.2106L26.5442 87.6486L27.0151 87.5391L26.6537 87.2106ZM38.4804 89.0393L38.4038 89.4774L38.8856 89.335L38.4804 89.0393ZM13.6883 92.9815L13.8306 93.5291L14.1591 93.0472L13.6883 92.9815ZM26.5552 82.7756L26.7523 83.3231L27.0261 82.8084L26.5552 82.7756ZM35.8084 92.6311L36.0274 93.1568L36.2793 92.6311H35.8084ZM32.1181 93.0363L33.7607 92.5983L33.5964 92.3245L33.7059 91.8865L33.3117 92.0289L32.7642 91.4266L32.1181 93.0363ZM41.886 88.0866L42.7621 88.229L42.324 87.4187L41.886 88.0866ZM39.4222 95.1498L39.674 94.2737L38.776 94.4927L39.4222 95.1498ZM39.3126 85.8418L38.8746 85.787L39.017 86.3564L39.3126 85.8418ZM40.2763 84.4839L40.0573 83.7174L39.6193 84.3963L40.2763 84.4839ZM39.9478 89.8278L39.663 89.0612L39.2579 89.784L39.9478 89.8278ZM40.55 82.3595L40.3529 81.5929L39.893 82.25L40.55 82.3595ZM41.4042 87.5062L41.0209 86.4988L40.4953 87.4515L41.4042 87.5062ZM30.2784 84.4072L29.8951 83.3998L29.3695 84.3525L30.2784 84.4072ZM41.0757 91.5032L40.6377 90.3425L40.0244 91.4156L41.0757 91.5032ZM21.0909 90.8024L20.7295 89.6197L20.0506 90.671L21.0909 90.8024ZM33.7169 85.4038L33.2788 84.3087L32.7094 85.3599L33.7169 85.4038ZM33.7388 86.2469L32.6218 86.6193L33.6402 87.2325L33.7388 86.2469ZM30.2893 81.4506L29.1724 81.8229L30.1908 82.4471L30.2893 81.4506ZM30.9683 87.8019L29.8514 88.1743L30.8697 88.7984L30.9683 87.8019ZM27.9021 85.4585L26.8071 85.6447L27.6612 86.3783L27.9021 85.4585ZM41.9189 83.0932L41.5904 81.8229L40.8238 82.9179L41.9189 83.0932ZM47 81.4725L45.3574 81.7572L46.9343 84.1116L47 81.4725ZM23.8613 94.1095L23.5 94.9636L24.4198 94.6351L23.8613 94.1095ZM21.7807 93.7481L21.3427 94.5475L22.2954 94.3285L21.7807 93.7481ZM36.3669 93.4196L36.0056 94.2628L36.9364 93.9342L36.3669 93.4196ZM37.2101 94.427L36.6407 95.774L38.1081 95.2593L37.2101 94.427ZM33.8155 82.4033L32.7861 83.356L34.2863 83.4655L33.8155 82.4033ZM43.7367 89.0612H42.6745L43.222 90.1563L43.7367 89.0612ZM42.6416 89.5321L42.3569 88.7656L41.6123 89.4226L42.6416 89.5321ZM33.6074 89.2802L33.0599 88.1852L32.2057 89.2802H33.6074Z" fill="#E8BF89"/>
<path d="M40.8896 91.4813L41.5028 91.8755L41.689 91.109L40.8896 91.4813ZM38.5571 83.8159L38.9514 84.3853L39.0389 83.7283L38.5571 83.8159ZM16.7654 95.2264L17.3348 95.3359L17.1925 94.7884L16.7654 95.2264ZM39.455 82.3923L40.0355 82.4361L39.8384 81.8886L39.455 82.3923ZM26.1391 85.5132L26.2486 85.9841L26.5553 85.6009L26.1391 85.5132ZM26.1282 88.7218L26.4896 89.9263L27.2561 88.9079L26.1282 88.7218ZM25.6464 94.2518L24.628 95.0184L25.8325 95.3797L25.6464 94.2518ZM24.7703 91.4266L23.7847 92.215L25.0112 92.5435L24.7703 91.4266ZM4.86214 95.2045L3.98604 95.6973L5.40967 95.7192L4.86214 95.2045ZM44.5909 82.9179L44.7661 82.1733L43.9996 82.5456L44.5909 82.9179ZM24.4418 83.4326L24.1899 83.9254L24.6937 83.7283L24.4418 83.4326ZM14.3234 88.7437L14.1044 89.2912L14.6191 89.0503L14.3234 88.7437ZM11.312 89.8059L11.093 90.3534L11.6077 90.0906L11.312 89.8059ZM25.0879 90.1015L24.628 90.0687L24.9345 90.5505L25.0879 90.1015ZM27.9788 90.9338L27.5408 90.8681L27.8146 91.3718L27.9788 90.9338ZM20.861 87.3201L20.5872 87.7253L21.0252 87.6705L20.861 87.3201ZM24.4309 84.7358L24.1571 85.1409L24.5951 85.0971L24.4309 84.7358ZM39.7398 86.6631L39.466 87.0682L39.9041 87.0135L39.7398 86.6631ZM44.3719 88.5794L43.682 88.9846L44.3938 89.3569L44.4485 88.5028L45.2151 87.8676L44.0434 87.342L44.3719 88.5794ZM43.3206 92.1164L42.5212 91.1966L42.0066 92.4012L41.7656 92.4888L42.2584 93.0144L42.5869 92.3574L43.3206 92.1164ZM42.0394 87.561L41.2947 87.342L41.6452 88.1086L42.0394 87.561ZM41.1305 89.8387L40.364 89.6416L40.7582 90.441L41.1305 89.8387Z" fill="#E8BF89"/>
<path d="M39.5317 90.3863L39.6193 90.0578L39.1155 90.1672L39.3126 90.3315L39.006 91.0762L39.9259 90.7148L39.5317 90.3863Z" fill="#E8BF89"/>
<path d="M36.4436 83.0493L36.5531 82.7208L36.0603 82.7865L36.2355 82.9618L35.8742 83.6517L36.7831 83.3888L36.4436 83.0493ZM41.1305 92.007L41.2071 91.6784L40.7034 91.7879L40.9005 91.9522L40.6048 92.7187L41.5137 92.3574L41.1305 92.007Z" fill="#E8BF89"/>
<path d="M41.9956 89.7511L42.0503 90.003L42.6308 89.565L42.0175 89.1817L41.8532 88.4151L40.8677 89.116L41.9956 89.7511Z" fill="#E8BF89"/>
<path d="M39.4331 87.9224L40.0025 88.3166L40.2216 87.5829L39.4331 87.9224ZM31.5925 90.9885L32.1619 91.3828L32.381 90.6381L31.5925 90.9885Z" fill="#E8BF89"/>
<path d="M41.481 88.6779L40.6925 87.7472L40.1669 88.9517L39.926 89.0284L40.4297 89.5759L40.7582 88.9189L41.481 88.6779Z" fill="#E8BF89"/>
<path d="M34.4396 90.5396L33.6402 89.6197L33.1256 90.8243L32.8846 90.9009L33.3774 91.4485L33.7059 90.7914L34.4396 90.5396Z" fill="#E8BF89"/>
<path d="M38.3709 94.0657L38.7651 92.9158L37.4729 93.0692L37.2868 92.9049L37.0677 93.6057L37.7905 93.562L38.3709 94.0657Z" fill="#E8BF89"/>
<path d="M43.7805 87.3639L43.1235 88.4589L44.4923 88.2728L43.7805 87.3639Z" fill="#E8BF89"/>
<path d="M43.4081 86.1484L42.3679 87.6815L43.8572 87.7143L43.4081 86.1484ZM44.2185 90.5505L44.1966 89.9701L44.3499 89.6416L44.109 89.7183L43.9995 89.6088L43.8572 89.8278L43.7476 89.8059L43.8572 89.8278L43.4738 90.1125L44.2185 90.5505ZM44.2514 84.0568L44.777 83.4764L44.0105 83.3669L44.2514 84.0568ZM41.5575 95.1388L42.6854 94.0766L41.0648 93.4196L41.5575 95.1388ZM43.5615 82.8303L44.2733 82.6661L43.6162 82.1623L43.5615 82.8303Z" fill="#E8BF89"/>
<path d="M42.6089 82.8084L44.0872 82.2609L42.6965 81.4944L42.6089 82.8084ZM44.0324 84.5277L45.1823 85.3709L45.3356 84.2758L45.7736 84.8234L46.5839 83.1479L45.4889 83.7283L45.3246 83.0165L44.8209 83.6735L45.0399 83.7283L45.2808 84.1225L44.0324 84.5277ZM43.7258 85.9513L44.3829 85.4037L43.5287 85.2285L43.7258 85.9513ZM27.519 89.6745L27.0262 90.0906L27.7051 90.1453L27.519 89.6745Z" fill="#E8BF89"/>
<path d="M17.7728 90.3863L17.2253 90.7476L17.9042 90.879L17.7728 90.3863ZM45.237 82.2609L45.0508 83.0056L45.7406 82.9508L45.237 82.2609ZM42.3241 82.3376L41.9408 83.9254L43.9995 83.5969L42.3241 82.3376ZM46.9014 85.6227L46.2444 89.2365L44.109 86.7506L46.9014 85.6227ZM45.8063 90.6381L44.7113 92.4559L43.7586 90.6162L45.8063 90.6381ZM42.1927 94.7993L40.5501 95.4235L39.8274 93.4853L42.1927 94.7993ZM43.8134 93.551L42.7731 94.3942L42.0065 92.7297L43.8134 93.551ZM4.98254 91.6127L4.43501 91.3937L4.69782 91.9084L4.98254 91.6127ZM42.6745 84.243L41.4261 84.4839L42.3679 85.338L42.6745 84.243ZM39.3017 85.1847L39.4879 85.3161L39.466 84.7686L40.2325 85.0314L40.0135 84.1992L39.466 84.7686L39.4112 84.462L38.7542 84.8124L39.3017 85.1847L38.6885 85.6884L39.4989 85.8637L39.3017 85.1847ZM40.3749 90.9885L38.8199 90.6053L39.6083 92.215L40.3749 90.9885ZM35.7756 93.5072L35.0091 93.3101L35.4033 94.1204L35.7756 93.5072Z" fill="#E8BF89"/>
<path d="M39.3783 90.3863L39.1921 90.3424L38.6446 90.2001L38.6008 90.3863L37.8562 90.2001L38.3708 91.3171L38.8746 90.8462L39.3783 90.3863ZM34.4943 94.5475L34.6257 94.1095L33.9359 94.2409L34.1877 94.4599L33.7497 95.4674L35.0199 95.0293L34.4943 94.5475ZM36.4983 95.752L35.9507 94.438L34.2753 95.7082L36.4983 95.752ZM24.2336 95.752L23.9051 94.9636L22.8867 95.7302L24.2336 95.752ZM21.9997 95.752L21.6712 94.9636L20.6637 95.7302L21.9997 95.752ZM31.8005 95.752L31.472 94.9636L30.4536 95.7302L31.8005 95.752ZM39.7944 93.2006L39.8601 93.4415L40.4295 93.0035L39.8273 92.6092L39.652 91.8646L38.6665 92.5654L39.7944 93.2006ZM36.9692 86.3017L38.2504 86.5974L38.108 85.2176L36.9692 86.3017ZM30.4645 86.6302L31.7457 86.9149L31.6034 85.5352L30.4645 86.6302ZM37.0349 90.0796L37.6481 90.4629L37.8014 89.8059L37.0349 90.0796ZM35.6989 91.8317L35.7318 92.664L36.2354 92.0836L35.6989 91.8317ZM36.7063 84.9L35.5018 85.0643L36.1807 85.9403L36.7063 84.9ZM38.8307 88.0757L39.6192 86.8164H38.1408L38.8307 88.0757ZM34.3848 92.7078L35.1733 91.4485H33.6949L34.3848 92.7078ZM34.4286 89.0284L34.341 89.4664L34.8338 89.324L34.4286 89.0284ZM31.7567 92.6202L31.9757 93.1458L32.2276 92.6202H31.7567Z" fill="#E8BF89"/>
<path d="M30.596 90.8243L30.8149 91.3499L31.0668 90.8243H30.596ZM37.8233 88.0866L38.6994 88.229L38.2614 87.4187L37.8233 88.0866ZM35.3594 95.1498L35.6113 94.2737L34.7133 94.4927L35.3594 95.1498ZM29.5885 85.8965L29.1505 85.8418L29.3038 86.4112L29.5885 85.8965ZM36.2136 84.4948L35.9946 83.7283L35.5565 84.4072L36.2136 84.4948ZM35.8851 89.8387L35.6004 89.0722L35.1843 89.7949L35.8851 89.8387ZM24.6388 88.5685L24.3541 87.8019L23.938 88.5246L24.6388 88.5685ZM30.4755 94.9198L30.2017 94.1533L29.7856 94.876L30.4755 94.9198ZM36.4983 82.3704L36.3012 81.6039L35.8413 82.2609L36.4983 82.3704ZM37.3525 87.5172L36.9692 86.5097L36.4435 87.4624L37.3525 87.5172ZM37.002 91.5142L36.5859 90.3534L35.9727 91.4266L37.002 91.5142ZM38.338 82.8194L38.0095 81.5601L37.243 82.6332L38.338 82.8194ZM32.3152 93.4415L31.9538 94.2847L32.8846 93.9562L32.3152 93.4415ZM31.1653 94.2518L30.804 95.095L31.7348 94.7665L31.1653 94.2518ZM26.6427 94.7993L26.2924 95.6425L27.2122 95.314L26.6427 94.7993ZM27.1246 93.4305L27.9568 93.8138L27.6502 92.883L27.1246 93.4305Z" fill="#E8BF89"/>
<path d="M30.0155 93.7262L30.8587 94.1095L30.5521 93.1677L30.0155 93.7262ZM25.931 93.8905L26.7741 94.2737L26.4675 93.3429L25.931 93.8905ZM32.9393 94.6241L31.9538 95.6973H33.5197L32.9393 94.6241ZM29.5118 94.6789L28.5262 95.7521H30.0922L29.5118 94.6789ZM18.7802 94.6789L17.7727 95.7521H19.3387L18.7802 94.6789ZM15.4622 94.6789L14.4766 95.7521H16.0425L15.4622 94.6789ZM12.9107 94.6789L11.9251 95.7521H13.4911L12.9107 94.6789ZM7.56678 94.9308L6.97547 95.7521H8.5414L7.56678 94.9308ZM39.652 89.0722H38.6008L39.1483 90.1672L39.652 89.0722ZM38.5789 89.5431L38.2942 88.7765L37.5495 89.4336L38.5789 89.5431ZM36.8268 91.4813L37.4291 91.8755L37.6262 91.109L36.8268 91.4813ZM34.4943 83.8159L34.8885 84.3853L34.9762 83.7283L34.4943 83.8159ZM35.3704 82.3923L35.9507 82.4361L35.7318 81.8886L35.3704 82.3923ZM35.6332 86.6631L35.3704 87.0682L35.8084 87.0135L35.6332 86.6631ZM29.4132 89.6745L29.1395 90.0797L29.5775 90.0249L29.4132 89.6745ZM39.225 92.1164L38.4365 91.1966L37.9219 92.4012L37.6809 92.4888L38.1737 93.0144L38.5022 92.3574L39.225 92.1164Z" fill="#E8BF89"/>
<path d="M37.9548 87.561L37.2211 87.342L37.5496 88.1085L37.9548 87.561ZM37.0787 89.8387L36.3122 89.6416L36.7064 90.441L37.0787 89.8387ZM35.4909 90.3863L35.5675 90.0578L35.0747 90.1672L35.2718 90.3315L34.9653 91.0762L35.8742 90.7148L35.4909 90.3863ZM15.8236 93.3867L15.9112 93.0582L15.4075 93.1677L15.6046 93.332L15.3089 94.0985L16.2178 93.7262L15.8236 93.3867ZM29.0519 92.9268L29.1286 92.5983L28.6358 92.7078L28.8329 92.872L28.5263 93.6167L29.4461 93.2553L29.0519 92.9268ZM24.1898 93.4524L24.2665 93.1239L23.7737 93.2334L23.9708 93.3977L23.6642 94.1423L24.584 93.781L24.1898 93.4524ZM27.3327 94.7446L27.0042 94.6679L27.1356 95.1607L27.2998 94.9636L28.0664 95.2374L27.6612 94.3394L27.3327 94.7446ZM29.6651 92.007L29.7418 91.6784L29.249 91.7879L29.4461 91.9522L29.1395 92.7187L30.0593 92.3464L29.6651 92.007ZM11.082 94.9417L11.1696 94.6132L10.6659 94.7227L10.863 94.8869L10.5673 95.6535L11.4762 95.2921L11.082 94.9417ZM37.0787 92.007L37.1663 91.6784L36.6626 91.7879L36.8597 91.9522L36.564 92.7187L37.4729 92.3574L37.0787 92.007Z" fill="#E8BF89"/>
<path d="M37.9438 89.7511L37.9985 90.003L38.579 89.565L37.9657 89.1817L37.8014 88.4151L36.8159 89.116L37.9438 89.7511Z" fill="#E8BF89"/>
<path d="M35.3814 87.9224L35.9508 88.3166L36.1698 87.5829L35.3814 87.9224ZM31.253 89.7511L31.8225 90.1453L32.0415 89.4116L31.253 89.7511Z" fill="#E8BF89"/>
<path d="M37.4292 88.6779L36.6407 87.7472L36.1151 88.9517L35.8742 89.0284L36.3779 89.5759L36.7064 88.9189L37.4292 88.6779Z" fill="#E8BF89"/>
<path d="M32.3153 83.4217L32.1838 82.2171L31.0888 82.918L30.8369 82.8413L30.9465 83.564L31.5706 83.2136L32.3153 83.4217Z" fill="#E8BF89"/>
<path d="M34.3192 94.0657L34.7134 92.9158L33.4212 93.0692L33.2351 92.9049L33.0161 93.6057L33.7388 93.562L34.3192 94.0657Z" fill="#E8BF89"/>
<path d="M29.0629 95.095L29.4571 93.9562L28.1649 94.1095L27.9678 93.9452L27.7488 94.6461L28.4716 94.5913L29.0629 95.095ZM37.3196 82.9179L36.5093 84.1225L37.67 84.1554L37.3196 82.9179ZM38.5461 82.8084L40.0354 82.2609L38.6447 81.4944L38.5461 82.8084ZM40.2325 82.8303L39.8383 84.4291L41.897 84.0787L40.2325 82.8303ZM21.8574 89.5102L21.9669 89.2036L21.4851 89.2583L21.6493 89.4336L21.2989 90.1235L22.1968 89.8606L21.8574 89.5102ZM28.3402 83.6735L28.4497 83.3669L27.9569 83.4326L28.1321 83.6078L27.7707 84.2977L28.6796 84.024L28.3402 83.6735ZM38.6119 84.2539L37.3635 84.4948L38.3052 85.349L38.6119 84.2539ZM7.80781 93.0911L7.40264 93.5072L7.97202 93.4743L7.80781 93.0911ZM5.34392 92.5107L4.93875 92.9268L5.50814 92.894L5.34392 92.5107ZM13.9949 85.9622L14.3453 85.5023L13.7978 85.6118L13.9949 85.9622ZM19.2731 84.5825L19.733 84.9328L19.6235 84.3853L19.2731 84.5825Z" fill="#E8BF89"/>
</svg>
