<svg width="43" height="16" viewBox="0 0 43 16" fill="none" xmlns="http://www.w3.org/2000/svg">
<path d="M33.9716 12.5984C33.9716 12.5984 33.9716 10.3937 36.4279 7.74804C38.6323 5.54332 41.7814 4.9764 41.8444 4.9134C41.8526 4.9134 41.8608 4.91176 41.8685 4.9086C41.8761 4.90543 41.8831 4.9008 41.8889 4.89495C41.8948 4.8891 41.8994 4.88216 41.9026 4.87451C41.9057 4.86687 41.9074 4.85868 41.9074 4.85041L41.6554 3.77954C39.3596 4.16913 37.2444 5.27097 35.6091 6.92913C32.8379 9.82676 32.8379 12.4724 32.8379 12.5354L33.9716 12.5984ZM15.2658 2.07877L19.5486 7.30709C19.6042 7.36826 19.6468 7.44008 19.6738 7.51818C19.7008 7.59629 19.7117 7.67908 19.7058 7.76152C19.6999 7.84396 19.6774 7.92434 19.6395 7.99781C19.6017 8.07129 19.5493 8.13632 19.4856 8.18897C19.4227 8.25197 19.3597 8.25197 19.2337 8.31496C19.1116 8.34392 18.9843 8.34179 18.8632 8.30877C18.7422 8.27576 18.6314 8.21291 18.5409 8.12598L14.0691 2.64569L15.2658 2.07877Z" fill="white"/>
<path d="M19.2966 0L23.6424 5.35433C23.698 5.41551 23.7406 5.48732 23.7676 5.56543C23.7946 5.64354 23.8055 5.72632 23.7996 5.80876C23.7937 5.8912 23.7712 5.9716 23.7333 6.04508C23.6955 6.11855 23.6431 6.18357 23.5794 6.23622C23.5164 6.29921 23.4535 6.29922 23.3275 6.36221C23.2054 6.39117 23.078 6.38903 22.957 6.35602C22.836 6.32301 22.7252 6.26017 22.6347 6.17324L18.0999 0.629921L19.2966 0ZM42.5271 12.1575L42.4641 11.5276L6.12348e-05 15.3701L0.0630488 16L42.5271 12.1575Z" fill="white"/>
</svg>
