<svg width="30" height="28" viewBox="0 0 30 28" fill="none" xmlns="http://www.w3.org/2000/svg">
<path d="M25.6522 23.5022L25.1455 24.1357L24.7655 23.2489L25.6522 23.5022ZM27.9958 22.6154L27.6791 23.3756L27.109 22.6787L27.9958 22.6154ZM26.1589 25.086L26.4756 24.1991L27.2357 24.9593L26.1589 25.086ZM21.9786 19.8914L21.0918 20.1448L21.1551 19.0678L21.9786 19.8914Z" fill="#A05A3C"/>
<path d="M29.3258 25.4027L28.3757 25.5294L28.6924 24.4525L29.3258 25.4027ZM27.869 22.8054L26.9189 22.552L27.6157 21.7285L27.869 22.8054ZM28.3757 24.1357L27.489 24.0724L27.869 23.1222L28.3757 24.1357ZM26.6022 22.8054L25.7155 22.9321L25.9688 21.9185L26.6022 22.8054Z" fill="#A05A3C"/>
<path d="M26.2222 22.2986L25.2721 22.2353L25.7155 21.2851L26.2222 22.2986ZM25.4622 22.8054L24.8921 23.3122L24.6387 22.4253L25.4622 22.8054ZM24.1954 24.8326L24.322 24.3258L24.7021 24.7059L24.1954 24.8326ZM14.7579 20.8416L14.6312 21.2851L14.2512 20.905L14.7579 20.8416ZM27.869 21.9185L29.2625 23.0588L27.5523 24.009L27.869 21.9185Z" fill="#A05A3C"/>
<path d="M26.7922 21.0317L28.1224 22.2353L26.4122 23.1222L26.7922 21.0317ZM25.1455 19.7013L26.5389 20.7783L24.8921 21.7285L25.1455 19.7013Z" fill="#A05A3C"/>
<path d="M23.8153 18.5611L25.2087 19.7013L23.4986 20.6516L23.8153 18.5611ZM18.8115 17.0407H17.8614L18.3048 16.0271L18.8115 17.0407Z" fill="#A05A3C"/>
<path d="M18.9382 19.1946L18.1149 19.1312L18.4315 18.2443L18.9382 19.1946ZM22.9286 18.9412L23.1819 18.0543L24.0053 18.8145L22.9286 18.9412ZM22.4852 20.2715L22.7386 19.3846L23.562 20.0814L22.4852 20.2715ZM23.8153 21.1584L24.0687 20.2715L24.8921 20.9683L23.8153 21.1584ZM22.9286 21.7918L23.0553 22.2986L22.4219 22.1719L22.9286 21.7918ZM19.3816 21.6018L19.825 21.6651L19.635 22.1719L19.3816 21.6018ZM21.7251 25.5927L21.9152 25.1493L22.2952 25.466L21.7251 25.5927ZM13.6178 16.5339L14.1879 16.5973L13.8712 17.1041L13.6178 16.5339Z" fill="#A05A3C"/>
<path d="M12.541 20.0181L12.6677 19.5747L13.0477 19.9548L12.541 20.0181ZM16.848 18.8145L16.468 18.5611L16.9114 18.3077L16.848 18.8145ZM27.4256 26.6697L27.8056 26.8597L27.4889 27.2398L27.4256 26.6697ZM23.3719 24.0091L23.2452 23.5023L23.8786 23.629L23.3719 24.0091ZM26.9189 24.2624L26.4755 24.1991L26.6655 23.7557L26.9189 24.2624ZM24.6387 20.2715L24.512 20.7149L24.132 20.3348L24.6387 20.2715ZM17.4814 22.362L17.6081 21.8552L18.1148 22.2353L17.4814 22.362ZM20.585 24.1991L20.205 23.9457L20.585 23.6923V24.1991ZM20.2683 19.5747L19.9516 19.9548L19.7616 19.448L20.2683 19.5747ZM25.7154 22.1086L24.512 21.9819L25.1454 20.7783L25.7154 22.1086ZM27.1722 21.8552L26.2221 21.9819L26.5388 20.9683L27.1722 21.8552ZM23.5619 21.8552L23.0552 21.3484L23.8153 20.9683L23.5619 21.8552ZM24.7653 28L24.4487 27.6833L24.892 27.4932L24.7653 28ZM21.4084 21.7285L20.965 21.2217L21.5984 20.9683L21.4084 21.7285ZM25.6521 26.2896L25.272 26.543L25.1454 25.9729L25.6521 26.2896ZM21.7251 22.362L21.9151 22.8688L21.3451 22.8054L21.7251 22.362ZM22.6752 18.8778L23.0552 19.5747L22.1685 19.638L22.6752 18.8778ZM22.0418 17.9276L21.6618 18.6244L21.155 17.8009L22.0418 17.9276Z" fill="#A05A3C"/>
<path d="M21.6618 17.991L22.0418 18.6878L21.1551 18.7511L21.6618 17.991Z" fill="#A05A3C"/>
<path d="M20.7118 18.4977L20.8384 17.2308L22.0418 17.991L20.7118 18.4977Z" fill="#A05A3C"/>
<path d="M21.7251 18.5611L22.0418 17.1674L23.3086 18.181L21.7251 18.5611ZM21.2817 19.3846L20.3317 19.2579L20.9017 18.371L21.2817 19.3846ZM20.2683 18.2443L19.3816 17.9909L20.015 17.1674L20.2683 18.2443ZM20.2683 18.6878L19.7616 19.3213L19.3816 18.5611L20.2683 18.6878ZM21.3451 17.4208L20.9017 18.1176L20.395 17.2941L21.3451 17.4208ZM21.3451 21.095L21.0917 20.7149L21.5984 20.6516L21.3451 21.095Z" fill="#A05A3C"/>
<path d="M20.7751 16.1539L22.1686 17.2308L20.4584 18.2444L20.7751 16.1539ZM16.6581 13.9367L16.4048 14.3801L16.0881 13.8733L16.6581 13.9367ZM17.2282 14.5068L16.4681 14.3167L17.0382 13.6832L17.2282 14.5068ZM18.4316 15.2036L17.7349 15.0769L18.1149 14.3801L18.4316 15.2036Z" fill="#A05A3C"/>
<path d="M16.6581 14.9502L16.0247 14.8235L16.4047 14.2534L16.6581 14.9502ZM16.9115 16.8507L17.4182 16.0905L17.8615 16.9774L16.9115 16.8507ZM16.2147 15.7104L16.5948 15.0136L17.1648 15.7738L16.2147 15.7104ZM18.6216 17.8009L19.065 17.0407L19.5717 17.8642L18.6216 17.8009ZM17.8615 19.9548V19.448L18.3682 19.638L17.8615 19.9548ZM21.0285 20.6516L20.6484 20.5249L20.9018 20.1448L21.0285 20.6516ZM19.5083 16.724L19.3183 17.1041L19.065 16.724H19.5083ZM14.3779 19.5113L14.3146 19.0679L14.8846 19.1946L14.3779 19.5113Z" fill="#A05A3C"/>
<path d="M17.6082 19.9548L17.1648 19.8914L17.4182 19.5113L17.6082 19.9548ZM15.7714 16.2172L15.6447 16.5973L15.328 16.2805L15.7714 16.2172ZM15.518 20.0181V19.5113L16.0247 19.7013L15.518 20.0181ZM18.6849 20.7149L18.3049 20.6516L18.5583 20.2715L18.6849 20.7149ZM17.2282 16.8507L17.0381 17.1674L16.7848 16.8507H17.2282ZM17.7982 15.0136L17.3548 15.457L17.1015 14.7602L17.7982 15.0136Z" fill="#A05A3C"/>
<path d="M18.4316 15.9004L17.5449 16.2805V15.2036L18.4316 15.9004Z" fill="#A05A3C"/>
<path d="M18.4949 16.0271L18.1149 16.5339L17.7348 15.9004L18.4949 16.0271ZM19.8884 15.6471L19.445 16.2805L19.065 15.5204L19.8884 15.6471Z" fill="#A05A3C"/>
<path d="M19.3816 16.7873L19.0649 16.4706L19.5083 16.3439L19.3816 16.7873ZM19.825 15.3303L21.1551 16.3439L19.6983 17.3575L19.825 15.3303ZM18.6849 14.3801L19.825 15.267L18.4315 16.0271L18.6849 14.3801ZM17.5448 13.4299L18.6215 14.3167L17.2914 15.0769L17.5448 13.4299ZM16.5947 12.6697L17.4814 13.4299L16.3413 14.0633L16.5947 12.6697ZM15.7713 15.6471L15.3279 16.2805L14.8846 15.457L15.7713 15.6471ZM16.088 13.7466L15.708 14.4434L15.2013 13.7466H16.088Z" fill="#A05A3C"/>
<path d="M16.3414 14.3167L15.898 15.0136L15.3913 14.2534L16.3414 14.3167ZM15.2647 15.0769L14.3779 15.0136L14.8213 14.0634L15.2647 15.0769ZM13.6812 13.3032L12.7945 13.0498L13.3645 12.2262L13.6812 13.3032ZM14.5046 13.6833L14.0612 14.3167L13.6179 13.5566L14.5046 13.6833ZM15.138 13.0498L14.7579 13.7466L14.2512 12.9864L15.138 13.0498ZM13.9345 15.9005L14.1246 15.457L14.4412 15.8371L13.9345 15.9005Z" fill="#A05A3C"/>
<path d="M15.2013 11.5294L16.5314 12.6063L14.8213 13.5566L15.2013 11.5294ZM10.451 18.0543L10.5143 17.5475L11.021 17.8009L10.451 18.0543ZM13.5545 19.0045L13.1745 18.8778L13.4912 18.4977L13.5545 19.0045ZM12.4145 15.0136L12.1611 15.3303L11.9077 14.9502L12.4145 15.0136Z" fill="#A05A3C"/>
<path d="M13.7445 10.2624L15.2013 11.5294L13.8712 12.6697L13.7445 10.2624ZM10.3875 11.086L9.88084 11.7195L9.50081 10.8326L10.3875 11.086ZM12.7944 10.1991L12.4144 10.9593L11.8443 10.2624L12.7944 10.1991ZM11.211 13.81L10.3242 13.9367L10.5776 12.9231L11.211 13.81ZM10.8309 12.4796L11.1476 11.5928L11.9077 12.353L10.8309 12.4796ZM12.9844 12.6063L12.0977 12.7964L12.3511 11.7195L12.9844 12.6063Z" fill="#A05A3C"/>
<path d="M6.71385 7.4751L5.82711 7.72849L5.95378 6.65157L6.71385 7.4751ZM13.2377 12.0995L12.351 12.2896L12.6043 11.2127L13.2377 12.0995ZM12.6043 10.3891L11.7176 10.1357L12.351 9.3122L12.6043 10.3891ZM12.161 11.7195L11.2742 11.466L11.9076 10.6425L12.161 11.7195Z" fill="#A05A3C"/>
<path d="M13.1744 11.7195L12.2243 11.6561L12.6677 10.7059L13.1744 11.7195ZM11.3376 10.3891L10.4509 10.5158L10.7042 9.50226L11.3376 10.3891Z" fill="#A05A3C"/>
<path d="M10.9576 9.88235L10.0709 9.819L10.5143 8.86877L10.9576 9.88235ZM10.2609 10.3891L9.62751 10.8959L9.37414 10.009L10.2609 10.3891ZM6.14389 14.8235L5.57383 14.7602L5.89052 14.2534L6.14389 14.8235ZM7.09397 11.3394L6.96728 11.7828L6.58725 11.4661L7.09397 11.3394ZM2.85027 12.6063L3.23031 12.8597L2.78693 13.1765L2.85027 12.6063ZM11.2743 14.7602L10.7676 14.6968L11.021 14.1267L11.2743 14.7602ZM8.86744 12.1629L8.99413 11.7195L9.37414 12.0995L8.86744 12.1629ZM10.5776 15.0136L10.4509 15.457L10.0709 15.1403L10.5776 15.0136ZM11.781 14.2534L11.5277 14.6335L11.2743 14.1267L11.781 14.2534ZM12.6678 9.50226L13.9979 10.6425L12.2877 11.5928L12.6678 9.50226Z" fill="#A05A3C"/>
<path d="M11.5276 8.61539L12.9211 9.819L11.2109 10.7059L11.5276 8.61539ZM9.88082 7.28507L11.3376 8.36199L9.62747 9.31221L9.88082 7.28507Z" fill="#A05A3C"/>
<path d="M8.61402 6.14479L10.0075 7.28507L8.29733 8.23529L8.61402 6.14479ZM11.4009 14.1267L11.2109 13.3665L12.0343 13.4932L11.4009 14.1267ZM9.69077 11.6561L8.74069 11.5294L9.24741 10.5792L9.69077 11.6561ZM3.4836 4.37104H2.53352L2.9769 3.42081L3.4836 4.37104Z" fill="#A05A3C"/>
<path d="M3.61036 6.52489H2.7236L3.10364 5.57467L3.61036 6.52489ZM8.67744 10.3891L8.93079 9.50226L9.75418 10.1991L8.67744 10.3891ZM7.66402 6.52489L7.98071 5.63802L8.74076 6.3982L7.66402 6.52489ZM7.28399 7.85521L7.53734 6.96833L8.36075 7.66516L7.28399 7.85521ZM8.55076 8.74208L8.86745 7.85521L9.62752 8.55204L8.55076 8.74208ZM7.72736 9.37556L7.79069 9.88235L7.22064 9.75566L7.72736 9.37556ZM4.11706 9.18552L4.62376 9.24887L4.37041 9.69231L4.11706 9.18552ZM6.52392 13.1765L6.6506 12.733L7.03064 13.0498L6.52392 13.1765ZM7.60068 8.17195L7.28399 9.12217L6.46059 8.29865L7.60068 8.17195ZM6.20722 9.05882L5.95387 9.94569L5.13048 9.18552L6.20722 9.05882ZM8.99413 10.5158L8.74076 11.4027L7.91737 10.6425L8.99413 10.5158ZM1.33017 4.24435L1.01348 5.19458L0.253406 4.4344L1.33017 4.24435ZM8.17072 15.8371L8.6141 16.0271L8.29741 16.3439L8.17072 15.8371ZM8.36075 12.733L8.23406 12.1629L8.80411 12.2896L8.36075 12.733ZM11.9077 12.9864L11.401 12.9231L11.6543 12.4796L11.9077 12.9864ZM9.62752 8.93213L9.50083 9.37556L9.1208 9.05882L9.62752 8.93213Z" fill="#A05A3C"/>
<path d="M1.58347 10.4525L1.71015 9.88235L2.15351 10.3258L1.58347 10.4525ZM4.68705 12.2262L4.30702 12.0362L4.68705 11.7195V12.2262ZM4.30702 7.66515L3.99033 7.9819L3.86366 7.47511L4.30702 7.66515ZM10.5142 9.6923L9.31078 9.56561L9.94417 8.36198L10.5142 9.6923ZM11.9077 9.43891L11.0209 9.56561L11.2743 8.55203L11.9077 9.43891ZM8.36071 9.43891L7.79064 8.93212L8.61406 8.55203L8.36071 9.43891ZM9.43745 15.3303L9.05741 15.0769L9.56414 14.8869L9.43745 15.3303ZM6.96725 15.8371L6.52387 15.3937L7.15726 15.1403L6.96725 15.8371ZM10.3242 13.6199L9.88083 13.9367L9.81749 13.3032L10.3242 13.6199ZM5.63713 11.4661L5.82716 11.9729L5.2571 11.9095L5.63713 11.4661ZM10.9576 19.0679L11.401 19.2579L11.0209 19.638L10.9576 19.0679ZM9.75414 19.1312L9.31078 18.6244L9.94417 18.3711L9.75414 19.1312ZM13.0478 16.914L12.6677 17.1674L12.541 16.5339L13.0478 16.914ZM8.42403 14.7602L8.61406 15.2036H8.04401L8.42403 14.7602ZM10.7676 16.9774L10.3242 16.5339L10.9576 16.2805L10.7676 16.9774ZM14.0612 14.7602L13.6178 15.0769L13.5545 14.4434L14.0612 14.7602ZM9.43745 12.6063L9.62748 13.1131L8.99409 13.0498L9.43745 12.6063ZM7.47395 6.46153L7.85398 7.15836L6.96725 7.22172L7.47395 6.46153ZM6.84056 5.5113L6.3972 6.20814L5.95383 5.3846L6.84056 5.5113Z" fill="#A05A3C"/>
<path d="M6.46053 5.57466L6.84055 6.2715L5.95381 6.33485L6.46053 5.57466Z" fill="#A05A3C"/>
<path d="M5.51045 6.08144L5.57377 4.81449L6.84055 5.57466L5.51045 6.08144Z" fill="#A05A3C"/>
<path d="M6.52395 6.14479L6.84064 4.75113L8.04409 5.76471L6.52395 6.14479ZM5.9539 6.77827L5.00383 6.65158L5.57387 5.70136L5.9539 6.77827ZM4.94048 5.57466L4.05375 5.32127L4.68713 4.49774L4.94048 5.57466ZM4.94048 6.08145L4.43378 6.71493L4.05375 5.8914L4.94048 6.08145ZM5.9539 4.75113L5.57387 5.44797L5.06717 4.68779L5.9539 4.75113ZM6.14393 8.67872L5.82724 8.29863L6.33394 8.23528L6.14393 8.67872Z" fill="#A05A3C"/>
<path d="M5.57374 3.73756L6.90386 4.81448L5.25705 5.82805L5.57374 3.73756ZM1.33008 1.26697L1.07673 1.71041L0.760034 1.20363L1.33008 1.26697ZM1.83678 1.90045L1.14005 1.64706L1.71011 1.01358L1.83678 1.90045ZM3.0402 2.59729L2.3435 2.47059L2.72351 1.77376L3.0402 2.59729Z" fill="#A05A3C"/>
<path d="M1.33007 2.28055L0.696683 2.15385L1.07672 1.58371L1.33007 2.28055ZM1.58342 4.181L2.0268 3.48416L2.5335 4.30769L1.58342 4.181ZM0.886692 3.04072L1.26673 2.34389L1.83677 3.16742L0.886692 3.04072ZM3.29357 5.13122L3.67359 4.37104L4.24366 5.19456L3.29357 5.13122ZM2.5335 7.28506V6.77827L3.0402 6.96832L2.5335 7.28506ZM5.70044 7.9819L5.25706 7.8552L5.57375 7.47511L5.70044 7.9819ZM4.18031 4.0543L3.99029 4.43439L3.73693 4.0543H4.18031ZM0.189962 7.34841V6.84162L0.696683 7.03167L0.189962 7.34841Z" fill="#A05A3C"/>
<path d="M3.35691 8.1086L2.91355 7.9819L3.23024 7.60181L3.35691 8.1086ZM1.90013 4.181L1.71012 4.56108L1.39343 4.181H1.90013ZM2.47017 2.34388L2.02681 2.78733L1.77344 2.09049L2.47017 2.34388Z" fill="#A05A3C"/>
<path d="M3.10356 3.29411L2.21686 3.67421V2.53394L3.10356 3.29411Z" fill="#A05A3C"/>
<path d="M3.16691 3.35746L2.78687 3.86424L2.40684 3.23077L3.16691 3.35746ZM4.49702 3.04073L4.11699 3.61085L3.73695 2.85068L4.49702 3.04073Z" fill="#A05A3C"/>
<path d="M3.99037 4.11764L3.73702 3.86425L4.1804 3.67421L3.99037 4.11764ZM4.43375 2.72398L5.76387 3.73756L4.30707 4.75113L4.43375 2.72398ZM3.29366 1.77376L4.43375 2.66063L3.04029 3.42082L3.29366 1.77376ZM2.15356 0.823531L3.23032 1.7104L1.90021 2.47059L2.15356 0.823531ZM1.26682 0L2.15356 0.760179L1.01347 1.39366L1.26682 0ZM5.0038 15.1403H4.43375L4.6871 14.5701L5.0038 15.1403ZM5.57384 11.5294L5.51052 12.0362L5.13048 11.7195L5.57384 11.5294ZM1.52017 13.2398L1.90021 13.4932L1.52017 13.8099V13.2398ZM4.61858e-05 11.086L0.126731 10.5792L0.633433 10.8959L4.61858e-05 11.086ZM3.29366 12.6063L2.85029 12.4163L3.23032 12.0362L3.29366 12.6063ZM2.53359 8.04524L2.2169 8.42533L1.96355 7.91855L2.53359 8.04524Z" fill="#A05A3C"/>
</svg>
