<svg width="574" height="383" viewBox="0 0 574 383" fill="none" xmlns="http://www.w3.org/2000/svg">
<path d="M66.4175 382.748C66.3259 382.749 66.2357 382.726 66.1553 382.682C66.075 382.638 66.0071 382.574 65.9582 382.497C58.5231 371.969 49.0375 363.053 38.0708 356.283C26.4546 349.188 13.7641 344.024 0.494017 340.994C0.418652 340.986 0.345628 340.964 0.279568 340.927C0.213508 340.89 0.155855 340.839 0.110258 340.779C0.0646621 340.718 0.0321127 340.649 0.0146817 340.575C-0.00274921 340.502 -0.00467906 340.425 0.0089997 340.351C0.0226785 340.276 0.0516689 340.205 0.0941468 340.143C0.136625 340.08 0.191662 340.027 0.255764 339.987C0.319866 339.946 0.391634 339.92 0.466533 339.909C0.541432 339.898 0.617825 339.902 0.690869 339.922C14.0928 342.971 26.9097 348.179 38.6395 355.342C49.7501 362.197 59.3589 371.23 66.8878 381.895C66.9403 381.977 66.97 382.071 66.974 382.168C66.9779 382.265 66.9559 382.362 66.9103 382.448C66.8646 382.533 66.7969 382.605 66.7141 382.656C66.6314 382.707 66.5365 382.735 66.4394 382.737L66.4175 382.748ZM210.283 47.5096H228.077C228.077 47.5096 247.652 48.4938 246.428 34.7142C245.29 22.0282 232.254 24.8716 232.254 24.8716C232.254 24.8716 231.051 -0.905027 200.036 0.0245513C169.874 0.932257 167.818 27.5838 167.818 27.5838C167.818 27.5838 158.194 27.715 157.243 36.6827C156.51 43.5726 163.148 47.5096 169.294 47.5096H210.283Z" fill="white"/>
<path d="M562.659 73.4175C568.923 73.4175 574 68.34 574 62.0766C574 55.8132 568.923 50.7357 562.659 50.7357C556.396 50.7357 551.318 55.8132 551.318 62.0766C551.318 68.34 556.396 73.4175 562.659 73.4175Z" fill="white"/>
<path d="M520.62 50.7248C522.81 53.0737 524.745 55.647 526.395 58.402C535.034 73.0347 533.634 89.6577 533.634 89.6577C533.634 89.6577 546.014 84.6271 556.163 92.7855C565.196 100.025 561.85 117.829 541.399 117.829H407.102C407.102 117.829 393.541 120.017 393.104 108.14C392.557 93.1573 410.875 95.9132 410.875 95.9132C410.875 95.9132 405.484 82.921 418.006 75.3969C430.528 67.8728 440.316 79.0058 440.316 79.0058C440.316 79.0058 445.565 28.9945 494.8 37.667C498.184 38.2575 501.508 39.1543 504.73 40.3463C504.741 40.3573 514.857 44.4255 520.62 50.7139V50.7248Z" fill="white"/>
</svg>
