<svg width="28" height="64" viewBox="0 0 28 64" fill="none" xmlns="http://www.w3.org/2000/svg">
<path d="M12.1676 1.57566L11.6205 3.08567L10.7889 2.10086L12.1676 1.57566ZM12.277 5.60232L12.1019 5.46007L12.6162 5.28499L12.1129 4.60659L12.9554 4.54094L12.6272 5.28499L12.9335 5.2303L12.8241 5.99622L12.277 5.59137L12.0253 6.4011L11.5877 5.63515L12.277 5.60232ZM7.05767 7.1342L8.26127 8.22841L6.57622 8.51291L7.05767 7.1342ZM6.34641 9.60711L7.00297 10.0776L6.18232 10.3183L6.34641 9.60711ZM4.89116 15.5158L6.09476 16.5881L4.56285 16.7741L4.89116 15.5158ZM10.1214 14.8374L10.6029 14.1809L10.7889 15.0125L10.1214 14.8374ZM13.984 15.1L14.4763 14.6952L14.5201 15.3189L13.984 15.1ZM18.3827 11.6861L18.8532 11.2484L18.9189 11.8721L18.3827 11.6861Z" fill="#F1F9ED"/>
<path d="M22.3327 11.1609L22.825 10.767L22.8579 11.3907L22.3327 11.1609ZM12.2113 12.8569L12.7802 12.5724L12.6708 13.1961L12.2113 12.8569ZM9.71648 11.2156L10.2089 10.8217L10.2526 11.4454L9.71648 11.2156ZM8.11892 7.6047L8.68792 8.12993L8.57853 8.27219L9.14747 8.79742L7.99857 9.01624L8.06422 8.30501L8.11892 7.6047ZM6.63081 10.9639L6.84967 10.57L7.21078 11.1937L6.88253 11.1499L6.46672 12.1566L5.95241 10.8654L6.63081 10.9639ZM2.97621 17.4854L4.58466 18.503L2.8558 19.2689L2.97621 17.4854ZM10.745 3.30449H10.1104L10.6028 2.66987L10.931 3.43579L11.9486 3.68747L10.942 4.8145L10.745 3.30449ZM4.89107 10.8545L6.18222 12.1019L4.54091 12.3208L4.89107 10.8545ZM3.07465 16.1067L4.38771 15.1985L4.69412 17.1352L3.07465 16.1067ZM5.70077 8.91776L5.48191 9.02719L5.49287 8.26123L6.14936 8.55669L6.80592 8.26123L6.84967 9.51956L5.70077 8.91776ZM12.3097 8.33784L11.5219 7.18894L12.8349 6.72935L12.3097 8.33784ZM13.8963 9.67277L13.3492 9.23509L13.9729 8.74269L13.8963 9.67277Z" fill="#F1F9ED"/>
<path d="M1.98053 16.3036L2.77934 15.4283L3.03099 16.7741L1.98053 16.3036ZM9.69466 9.43203L9.03816 9.14753L9.45396 8.60042L9.69466 9.43203ZM4.08138 16.7413L3.53428 17.5073L3.11854 16.7851L4.08138 16.7413ZM3.92824 13.6994L4.03764 13.0101L4.73794 13.4478L3.92824 13.6994ZM11.9159 12.1238L11.4454 12.7803L11.336 12.0143L11.9159 12.1238ZM9.54152 11.0952L8.9506 11.6423L9.01625 10.8764L9.54152 11.0952ZM6.11665 5.40537L7.01391 4.28926L7.42971 5.68984L6.11665 5.40537ZM10.8983 5.18651L11.1719 6.17129L10.3403 5.95247L10.8983 5.18651ZM14.1809 6.89347L14.728 8.0971L13.6119 7.98767L14.1809 6.89347ZM7.7798 6.31354L7.48441 4.91296L8.07525 5.17556L8.37071 4.03761L9.13667 4.91296L8.23941 5.19746L8.81931 5.63514L7.7798 6.31354ZM10.6466 7.84542L11.4564 6.53239L12.0801 7.99862L10.6466 7.84542ZM14.8812 10.6247L14.6295 10.9967L14.3888 10.5262L14.8812 10.6247ZM12.3427 10.1323L12.091 10.5044L11.8503 10.0338L12.3427 10.1323ZM16.5882 17.4416L16.1505 17.7699V17.179L16.5882 17.4416ZM17.748 21.2166L17.3103 21.523L17.365 20.943L17.748 21.2166ZM22.5625 12.4849L22.0373 12.5943L22.289 12.08L22.5625 12.4849Z" fill="#F1F9ED"/>
<path d="M8.44725 13.6338L7.97675 13.9073L8.06424 13.3384L8.44725 13.6338ZM9.69459 12.1019L9.18035 12.2989L9.36635 11.7518L9.69459 12.1019ZM5.27403 9.3664L4.66128 7.72509L4.96769 7.71414L5.25213 7.35307L5.36159 7.76887L6.14938 7.87826L5.27403 9.3664ZM4.77067 14.6186L3.80777 14.5529L4.22357 13.7542L4.77067 14.6186ZM8.89585 17.4088L8.67699 18.2842L8.21744 17.7808L8.89585 17.4088ZM6.26973 14.8046L5.96339 15.6471L5.54758 15.1L6.26973 14.8046ZM10.9201 7.82357L10.3073 7.11234L11.2375 7.04669L10.9201 7.82357ZM8.81924 15.8112L8.00954 15.7784L8.41439 15.0781L8.81924 15.8112ZM7.2874 12.8569L6.47763 12.7475L6.93724 12.091L7.2874 12.8569ZM5.38343 10.6685L5.84304 9.90255L6.28068 10.756L5.38343 10.6685ZM5.42724 11.5439L6.55423 11.8502L5.62419 12.5068L5.42724 11.5439ZM6.54328 14.3888L7.30924 14.6076L6.65274 15.0453L6.54328 14.3888ZM6.54328 15.483L7.33114 15.6252L6.72934 16.1395L6.54328 15.483ZM6.95908 17.4197L7.74695 17.562L7.14515 18.0763L6.95908 17.4197ZM19.4987 5.31783L18.8093 5.67894L19.0282 4.95676L19.4987 5.31783ZM14.2465 8.70987L14.531 9.0819L13.9839 9.26792L14.2465 8.70987ZM14.5967 7.33116L15.3626 7.16704L15.0015 7.91109L14.5967 7.33116ZM10.8217 9.41018L11.5438 9.0819L11.325 9.89163L10.8217 9.41018ZM15.483 7.70322L16.2708 7.71414L15.7565 8.37067L15.483 7.70322ZM11.697 7.76887L12.7584 7.55002L12.2551 8.57857L11.697 7.76887ZM8.9068 9.84785L10.001 9.3664L9.67276 10.57L8.9068 9.84785ZM14.1262 11.9268L15.0562 11.1828V12.4411L14.1262 11.9268ZM18.1309 9.33357L19.247 8.92872L18.8531 10.1324L18.1309 9.33357ZM17.1461 12.6162L18.2622 12.2113L17.8683 13.415L17.1461 12.6162Z" fill="#F1F9ED"/>
<path d="M15.3845 8.29405L16.0082 9.33356L14.8702 9.11471L15.3845 8.29405ZM14.4215 6.49958L15.7346 6.5105L14.892 7.6047L14.4215 6.49958ZM16.8069 4.74884V6.1932L15.7783 5.24125L16.8069 4.74884ZM13.9839 0.99573L13.3273 3.44674L12.1565 1.51001L13.9839 0.99573ZM10.3511 13.218L10.1323 14.1152L9.58518 13.2399L10.3511 13.218ZM12.1894 14.3122L12.08 15.2313L11.4563 14.4216L12.1894 14.3122ZM8.57853 10.7341L8.39247 11.6314L7.82353 10.7779L8.57853 10.7341ZM7.59372 10.9311L7.29827 12.3536L6.40108 11.0077L7.59372 10.9311ZM17.737 8.19558L16.7304 9.23509L16.6975 7.61565L17.737 8.19558ZM23.1533 3.96101L22.1248 4.97862V3.35922L23.1533 3.96101ZM8.95052 6.609L9.57423 7.48435L8.41438 7.64848L8.95052 6.609ZM9.21312 7.79073L9.97908 7.57187L9.91343 8.57856L9.21312 7.79073ZM6.14936 6.42297L7.30922 6.44485L6.76212 7.73603L6.14936 6.42297ZM18.9516 2.29784L19.1704 1.57566L19.6956 2.21028L18.9516 2.29784ZM20.7023 3.47956L21.0962 2.24311L21.9716 3.35922L20.7023 3.47956ZM4.83631 14.6405L4.52996 15.483L4.04851 14.7827L4.83631 14.6405Z" fill="#F1F9ED"/>
<path d="M2.95435 17.2447L1.6413 18.2513L1.5319 16.7741L2.95435 17.2447ZM5.06616 17.7261L5.99621 18.3608L5.23032 18.9516L5.06616 17.7261ZM5.47101 15.1876L4.75982 15.472L4.81451 14.6405L5.47101 15.1876ZM8.99438 9.97915L8.30503 9.7822L8.70988 9.1038L8.99438 9.97915ZM3.1294 12.66L3.4139 12.9007V12.5396L3.87352 12.6052L3.51241 12.9335L4.11421 13.3055L2.87775 13.7432L3.1294 12.66ZM5.71177 12.9335L5.40536 13.776L4.89112 13.1742L5.71177 12.9335ZM16.0411 8.60044L15.3298 8.51292L15.8769 8.09711L16.0411 8.60044ZM13.0429 17.179L12.5286 16.8836L12.9663 16.5553L13.0429 17.179ZM8.05332 14.6076L7.57186 14.2794L8.04243 13.9949L8.05332 14.6076ZM8.11897 12.9663L7.62663 12.6381L8.08617 12.3426L8.11897 12.9663ZM16.5116 9.76029L16.0739 9.97915L16.1395 9.46487L16.5116 9.76029ZM13.9949 11.5329L12.9007 12.1019L13.0757 10.8217L13.9949 11.5329Z" fill="#F1F9ED"/>
<path d="M8.7536 11.6205L9.1475 12.8679L7.9658 12.3755L8.7536 11.6205ZM11.1937 16.9821L11.697 18.1857L10.4934 17.8027L11.1937 16.9821ZM13.4368 12.2004L13.8417 13.4368L12.638 12.9554L13.4368 12.2004ZM3.15128 12.0253L3.80777 11.3907L3.07467 11.2813L3.56708 10.6685L3.87349 11.2922L4.20174 10.9639L4.77068 12.7147L3.15128 12.0253ZM16.9382 0.372039L17.5182 1.53189L16.2051 1.6085L16.9382 0.372039ZM14.6404 2.45102L14.4544 2.56045L14.531 1.98052L13.8526 2.08995L14.1809 1.21456L14.542 1.95865L14.6733 1.4772L15.2204 2.10087L14.7389 2.37442L15.1985 3.05285L14.3231 3.02003L14.6404 2.45102ZM15.6909 3.07472L15.4173 4.03763L14.914 3.5124L15.6909 3.07472ZM13.8745 3.62183L14.5529 3.2279L14.3778 4.1361L13.8745 3.62183ZM18.9297 0.17509L18.5139 0.831619L18.1856 0.196962L18.9297 0.17509ZM15.8878 1.8164L16.7632 1.84922L16.2489 2.54949L15.8878 1.8164ZM18.3498 8.7646L18.0215 9.2351L17.9777 8.64422L18.3498 8.7646ZM21.129 15.7456L21.0197 16.3146L20.7351 15.8003L21.129 15.7456ZM22.6171 18.7L22.475 19.2689L22.2123 18.7218L22.6171 18.7ZM13.8307 10.9311L14.2246 11.1828L13.7213 11.4016L13.8307 10.9311ZM11.1718 11.6314L11.5329 11.9378L10.9858 12.0691L11.1718 11.6314ZM16.5115 12.8131L16.4021 13.3055L16.1395 12.9007L16.5115 12.8131ZM19.9582 12.2332L19.816 12.7256L19.5643 12.3098L19.9582 12.2332ZM13.3164 8.84117L13.1414 9.32262L12.9225 8.88495L13.3164 8.84117ZM8.85211 6.17131L8.7755 7.04669L8.14085 6.49959L8.9068 6.06191L9.1694 5.03336L10.1214 5.97436L8.85211 6.17131ZM6.88255 8.57857L8.06424 8.5567L7.59374 9.7603L7.7032 10.001L7.0029 9.97915L7.22175 9.2898L6.88255 8.57857ZM11.2594 7.26551L11.8502 7.81261L11.0077 7.94395L11.2594 7.26551ZM9.94631 8.688L10.6028 9.14754L9.78215 9.39922L9.94631 8.688ZM10.6575 10.2746L10.8217 9.9901L11.0952 10.4278L10.8436 10.395L10.5372 11.139L10.1652 10.198L10.6575 10.2746ZM20.199 6.77314L20.4397 6.55429L20.571 7.06856L20.3522 6.95914L19.8598 7.58284L19.7503 6.56524L20.199 6.77314Z" fill="#F1F9ED"/>
<path d="M19.7285 3.1732L20.0021 2.98717L20.0568 3.5124L19.8379 3.37015L19.258 3.91725L19.3018 2.89965L19.7285 3.1732ZM8.49102 10.1433L8.65518 9.84785L8.91778 10.3074L8.67702 10.2746L8.37067 11.0187L7.99862 10.0667L8.49102 10.1433ZM9.42107 8.44727L9.20228 8.5567L9.21317 7.79074L9.86973 8.08616L10.5481 7.79074L10.5809 9.03815L9.42107 8.44727ZM12.452 9.80407L11.7955 9.50865L12.2879 8.8959L12.452 9.80407ZM10.57 8.11899L11.7408 8.25032L11.1171 9.38827L11.1937 9.6509L10.4934 9.54147L10.7998 8.88494L10.57 8.11899ZM6.95911 11.1062L7.48437 10.012L8.25033 11.1062L8.49102 11.139L8.16277 11.7955L7.70323 11.2047L6.95911 11.1062ZM5.0552 13.6994L6.2041 13.4478L5.96341 14.728L6.11662 14.9468L5.41631 15.0563L5.5257 14.3341L5.0552 13.6994ZM10.2199 6.20413L9.48672 7.33116L9.09282 5.88684L10.2199 6.20413Z" fill="#F1F9ED"/>
<path d="M11.5001 5.88682L10.5153 7.58283L9.88068 6.12755L11.5001 5.88682ZM7.14517 7.09042L7.64846 6.84973L7.86732 6.55427L7.90018 6.81687L8.05331 6.84973L7.94392 7.06855L7.99862 7.17798L7.94392 7.06855L7.85636 7.56096L7.14517 7.09042ZM16.4021 0.722179L16.4787 0.8097L16.2051 1.4881L16.0082 2.08993L14.6951 0.8097L16.4677 0.481452L16.4021 0.722179Z" fill="#F1F9ED"/>
<path d="M15.0125 1.73978L14.5092 1.2255L15.2751 1.05042L15.0125 1.73978ZM13.0429 4.28926L13.415 3.54521L13.7761 4.27834L13.0429 4.28926ZM18.2951 0.831602L18.8094 1.86012L17.6058 1.88203L18.2951 0.831602ZM20.2209 5.20842L20.768 5.04426L20.6805 5.63514L20.2209 5.20842ZM4.24553 10.6466L4.26743 9.04905L5.79928 9.92444L4.24553 10.6466ZM17.6824 6.65274L17.945 7.44057L17.2009 7.19985L17.6824 6.65274ZM17.7042 4.65036L17.9778 5.43819L17.2337 5.18651L17.7042 4.65036ZM14.2356 4.68319L14.2137 3.89536L14.8703 4.46433L14.2356 4.68319Z" fill="#F1F9ED"/>
<path d="M16.0739 2.97624L17.0805 4.01571L16.0629 4.45342L16.0739 2.97624ZM18.9516 0L20.7789 0.0766023L20.1443 1.49905L18.9516 0ZM16.6976 2.69173L17.9012 2.14463L17.8793 3.26071L16.6976 2.69173ZM14.5092 5.6461L14.6514 3.95006L15.7675 5.19747L14.5092 5.6461ZM12.4849 4.60659L11.3907 3.62181L12.3973 3.18414L11.7408 2.87776L12.7037 2.06803L12.8678 2.91059L13.6119 2.89963L13.0867 3.59994L12.9772 3.38109L12.5396 3.22788L12.4849 4.60659ZM11.4454 5.50385L11.7189 4.62846L12.1785 5.4382L11.4454 5.50385ZM17.5948 0.820653L17.6714 0.240726L18.1091 0.645576L17.5948 0.820653ZM18.7766 3.07471V3.59994L18.3826 3.29357L18.7766 3.07471ZM24.3898 5.75553L23.6239 5.93057L23.9849 5.27407L24.3898 5.75553ZM27.1582 3.95006L26.3922 4.12514L26.7533 3.46861L27.1582 3.95006ZM24.4664 2.63704L24.8165 1.98051L25.1886 2.71361L24.4664 2.63704ZM22.9017 0.120346L23.2299 1.37871L21.9169 1.15985L22.9017 0.120346ZM24.9041 0.393898L24.357 0.919128L24.1819 0.229774L24.9041 0.393898ZM21.5777 1.26928L22.4531 1.51001L21.7965 2.05711L21.5777 1.26928Z" fill="#F1F9ED"/>
<path d="M22.2779 0.31732L22.3436 0.426714L21.9387 1.02855L21.6105 1.57565L20.5819 0.0218634L22.3765 0.109418L22.2779 0.31732ZM24.1163 0.864422L24.4007 1.99145L23.219 1.72882L24.1163 0.864422ZM25.67 0.711217L26.1733 1.53187L25.4621 1.6413L25.67 0.711217ZM22.1686 2.30875L23.4488 2.06802L23.1971 3.16222L22.1686 2.30875ZM23.4269 0.700265L23.6239 0.153163L23.9849 0.66744L23.4269 0.700265ZM24.1381 3.18413L24.0287 3.69841L23.7005 3.30448L24.1381 3.18413ZM27.3113 2.41817L27.2238 2.93245L26.8955 2.53855L27.3113 2.41817ZM12.4083 11.1171L12.452 11.7736L11.9487 11.2922L12.4083 11.1171ZM17.4197 14.914L17.6604 15.5377L17.0477 15.2094L17.4197 14.914ZM14.3559 2.74645L13.6775 3.1294L13.5681 2.38535L14.3559 2.74645ZM15.5596 1.95863L15.9316 2.69172L15.1438 2.6042L15.5596 1.95863ZM15.0343 5.81021L13.59 6.64182L13.404 4.38776L15.0343 5.81021ZM10.57 2.2431L7.3968 4.0157L10.6357 5.60231L10.57 2.2431ZM5.89774 5.15368L4.14704 7.19984L6.36824 7.38587L5.89774 5.15368ZM3.30449 8.7208L2.35253 10.7451L5.41629 10.8545L3.30449 8.7208ZM1.73978 13.5025L1.47718 16.3146L3.84063 15.3298L1.73978 13.5025Z" fill="#F1F9ED"/>
<path d="M1.73979 18.5467L1.90388 20.6258L3.85159 19.3346L1.73979 18.5467ZM4.36584 7.18893L3.31544 8.61138H4.71599L4.36584 7.18893ZM2.22124 11.3141L1.91483 13.218L3.69839 12.2551L2.22124 11.3141ZM16.8835 39.6759L16.6647 39.0193L17.2337 39.2381L16.8835 39.6759ZM23.3175 35.3866L23.0658 34.73L23.6457 34.9161L23.3175 35.3866ZM16.0519 27.3989L15.669 26.819L16.2708 26.8846L16.0519 27.3989ZM18.2185 26.3484L18.5467 26.8408L17.9777 26.7314L18.2185 26.3484ZM13.6228 41.3937L14.1699 42.0065H13.4696L13.6228 41.3937ZM9.44296 19.3127L8.677 18.2951L9.90251 18.4045L9.44296 19.3127ZM14.1918 34.5003L13.4259 33.2966L14.7608 33.5155L14.1918 34.5003ZM9.48671 45.7925L9.55235 44.7639L10.2417 45.5079L9.48671 45.7925ZM10.6247 42.6192L11.6314 42.5645L11.0296 43.4399L10.6247 42.6192ZM13.8417 17.4088L15.2641 17.7699L14.0605 18.6452L13.8417 17.4088ZM9.84781 43.7791L9.19132 43.4837L9.80407 42.9803L9.84781 43.7791ZM7.82356 43.5931L8.32685 44.184L7.69226 44.37L7.82356 43.5931ZM10.8654 46.4052L11.1937 46.8976L10.6466 46.7553L10.8654 46.4052ZM27.0925 29.8937L27.5849 30.2219L27.0378 30.3313L27.0925 29.8937ZM19.6737 39.1397L20.1443 39.3038L19.7613 39.5555L19.6737 39.1397ZM8.29406 44.4137L9.2788 43.9542L9.22411 45.2672L8.29406 44.4137ZM13.1523 40.5403L12.8241 40.0479L13.3712 39.9603L13.1523 40.5403ZM14.7498 43.4946L15.4064 43.0569L15.3407 43.8885L14.7498 43.4946ZM15.7346 41.4813L15.1438 41.7877L14.9796 40.9451L15.7346 41.4813ZM13.7979 37.8047L15.0015 37.6953L14.5638 38.7895L13.7979 37.8047ZM21.0197 26.7533L21.0744 27.3332L20.6148 26.9503L21.0197 26.7533ZM10.5372 28.1429L10.9749 28.8542L10.2636 28.69L10.5372 28.1429ZM15.4173 38.4503L15.8222 38.2862L15.8331 38.9209L15.4173 38.4503ZM14.2793 37.575L14.3669 36.7324L14.914 37.3889L14.2793 37.575ZM13.6009 35.5507L13.5791 34.7082L14.2137 35.2771L13.6009 35.5507ZM11.2703 34.5331L12.3645 35.5616L10.8545 35.6711L11.2703 34.5331ZM16.5553 35.9555L16.3802 36.6668L16.0738 36.0103L16.5553 35.9555ZM18.1747 37.3561L18.1856 37.9032L17.7808 37.575L18.1747 37.3561ZM16.0301 29.3028L16.4896 29.6858L15.9425 29.7076L16.0301 29.3028ZM18.6561 33.8219L19.061 34.1282L18.6234 34.2377L18.6561 33.8219ZM15.2313 39.3694L15.6033 39.7306L15.1656 39.7852L15.2313 39.3694ZM13.6228 27.6177L13.404 27.3442L13.8854 27.2347L13.7979 27.4755L14.4216 28.0226L13.4587 28.0773L13.6228 27.6177ZM11.8721 29.7405L12.5286 29.3356L12.4849 30.1453L11.8721 29.7405ZM12.2004 44.5779L12.9116 44.2496L12.7475 45.0593L12.2004 44.5779ZM7.69226 42.8271L8.34876 42.1706L8.56761 42.9147L7.69226 42.8271ZM7.82356 47.7839L7.67036 46.9961L8.25032 47.1493L7.82356 47.7839ZM8.15181 45.1578L7.6375 44.939L8.10806 44.556L8.15181 45.1578ZM10.6685 43.4837L11.1499 43.4399L10.8983 43.8776L10.6685 43.4837ZM5.4382 20.9431L6.226 20.9212L5.73359 21.6324L5.4382 20.9431ZM6.68555 27.4426L8.1299 28.0992L6.78405 28.7557L6.68555 27.4426ZM11.3907 24.4007L11.5329 23.5801L12.0472 24.2694L11.3907 24.4007ZM15.483 22.8032L15.7675 22.2123L16.041 22.7923L15.483 22.8032ZM11.8721 20.0458L12.1457 19.4549L12.4301 20.0349L11.8721 20.0458ZM9.77121 21.5011L10.0557 20.9102L10.3293 21.4792L9.77121 21.5011ZM6.4558 21.906L6.40111 21.4355L7.0576 21.7309L6.76215 21.895L7.02475 22.9892L5.8868 22.2233L6.4558 21.906Z" fill="#F1F9ED"/>
<path d="M5.8649 31.338L7.61567 31.9179L6.19322 33.1544L5.8649 31.338ZM4.93486 23.1752L6.65276 23.416L5.49291 24.6196L4.93486 23.1752ZM5.20841 28.69L6.14941 27.377L7.00292 29.1715L5.20841 28.69ZM4.61756 20.7023L4.53001 20.9431L4.02665 20.3741L4.68321 20.1224L4.95676 19.4221L5.83211 20.3194L4.61756 20.7023Z" fill="#F1F9ED"/>
<path d="M4.42065 29.4559L4.78168 28.2852L5.54764 29.445L4.42065 29.4559ZM6.43394 28.9526L6.16039 29.8827L5.56955 29.3028L6.43394 28.9526ZM5.296 26.1077L5.12089 25.4183L5.90875 25.5059L5.296 26.1077ZM12.0801 21.4464L11.9378 22.2671L11.533 21.5777L12.0801 21.4464ZM8.79746 20.2646L8.64426 21.0853L8.25036 20.3959L8.79746 20.2646ZM17.8246 24.7947L17.5292 25.2652L17.365 24.6852L17.8246 24.7947ZM20.3413 27.6396L20.0568 28.1101L19.8817 27.5302L20.3413 27.6396ZM9.43205 24.0944L9.14755 24.5649L8.97251 23.9849L9.43205 24.0944ZM9.47586 20.9978L9.18041 21.4683L9.01625 20.8883L9.47586 20.9978ZM4.44248 21.3917L2.91064 20.6257L3.12943 20.385L3.08568 19.9254L3.43584 20.1443L4.05954 19.6628L4.44248 21.3917ZM6.4449 26.611L5.56955 26.9831L5.59139 26.053L6.4449 26.611ZM10.767 27.4536L10.8545 28.3837L10.2637 28.0554L10.767 27.4536ZM7.83456 26.1186L7.94395 27.0378L7.35311 26.7095L7.83456 26.1186ZM10.7014 26.3703L9.93541 26.6329L10.0777 25.8123L10.7014 26.3703ZM8.3488 24.3679L7.58285 24.6196L7.7251 23.7989L8.3488 24.3679ZM5.17558 22.5406L5.08809 21.6215L5.90875 22.0592L5.17558 22.5406Z" fill="#F1F9ED"/>
<path d="M6.1932 23.9302L7.28741 23.7333L6.74031 24.7509L6.1932 23.9302ZM7.87826 25.5934L8.64421 25.4512L8.2612 26.1624L7.87826 25.5934ZM8.49101 26.8737L9.25696 26.7314L8.8849 27.4426L8.49101 26.8737ZM8.99436 28.1648L9.76025 28.0226L9.38826 28.7338L8.99436 28.1648ZM7.1123 19.2252L7.68131 18.1638L8.11895 19.3674L7.1123 19.2252ZM10.9201 22.8579L11.1171 23.788L10.2855 23.2409L10.9201 22.8579ZM13.2399 23.7114L13.4368 24.6415L12.6052 24.0944L13.2399 23.7114ZM8.56761 21.5777L8.78646 22.4968L7.9439 21.9497L8.56761 21.5777ZM7.83451 22.3874L8.16276 23.8646L6.8278 22.9892L7.83451 22.3874ZM6.2479 26.6767L6.31355 27.6067L5.61324 27.1472L6.2479 26.6767ZM5.81019 30.3313L4.80354 31.6444L4.36584 30.2219L5.81019 30.3313ZM7.15611 29.1277L8.19555 29.456L7.67035 30.2766L7.15611 29.1277ZM7.04665 26.8955L6.53241 27.4755L6.25885 26.6657L7.04665 26.8955ZM4.36584 25.867L4.71599 25.9764L4.56278 25.6481L5.00049 25.5168L4.82545 25.9873L5.50385 26.0749L4.59564 27.0378L4.36584 25.867ZM6.52145 24.5977L6.60901 25.5278L5.9087 25.1995L6.52145 24.5977ZM14.4872 25.7576L13.9183 25.67L14.2027 25.1886L14.4872 25.7576ZM9.25696 25.0791L8.68796 24.9697L8.98341 24.4992L9.25696 25.0791ZM9.11471 24.0725L8.5457 23.9631L8.84116 23.4926L9.11471 24.0725Z" fill="#F1F9ED"/>
<path d="M9.14752 22.5406L10.001 23.5254L8.76457 23.5801L9.14752 22.5406ZM11.9268 25.101L12.7803 26.0858L11.5438 26.1405L11.9268 25.101ZM9.58523 31.9398L8.84117 31.5459L9.56332 31.2176L9.58523 31.9398ZM12.8678 35.2553L13.7432 35.4741L13.3055 35.9555L12.8678 35.2553ZM11.5548 32.7823L11.7408 33.6249L10.9749 33.2966L11.5548 32.7823ZM12.7256 37.4874L12.8569 36.6668L13.3493 37.3561L12.7256 37.4874ZM7.72506 32.0492L8.62232 32.0711L8.00957 32.7933L7.72506 32.0492ZM9.14752 28.6572H10.0557L9.45393 29.3903L9.14752 28.6572ZM11.0733 27.8913L10.9311 28.4603L10.4934 28.0554L11.0733 27.8913ZM10.4387 31.2286L11.4454 30.5721L11.4016 31.8632L10.4387 31.2286ZM15.1 18.6124L15.9535 19.6191L14.717 19.6628L15.1 18.6124ZM4.2455 25.2105L4.3768 24.2804L3.74215 24.6415L3.775 23.8318L4.36585 24.16L4.4315 23.7005L5.88681 24.8165L4.2455 25.2105ZM20.965 21.1838L21.0415 21.7747L20.6039 21.3698L20.965 21.1838ZM23.2628 22.5515L23.3394 23.1424L22.9017 22.7376L23.2628 22.5515ZM10.373 19.6847L10.8107 19.7175L10.4825 20.1552L10.373 19.6847ZM5.27406 19.7504L6.17131 19.0063L6.49956 20.3194L6.71842 20.4507L6.14941 20.8665L5.93055 20.1552L5.27406 19.7504ZM7.39682 20.1115L7.36396 19.7613L7.83453 19.9802L7.61567 20.1115L7.81262 20.9102L6.97006 20.3631L7.39682 20.1115ZM6.77311 21.8622L6.55426 20.6367L7.79071 21.0744L8.00957 20.943L8.11896 21.6871L7.42968 21.4683L6.77311 21.8622ZM6.28071 25.6262L7.17796 24.8603L7.50621 26.1733L7.72506 26.3047L7.17796 26.7424L6.95911 26.0311L6.28071 25.6262ZM4.2236 23.1643L3.32641 21.8294L5.01146 21.6105L4.2236 23.1643ZM17.2994 21.906L17.7371 22.4202L17.0587 22.3327L17.2994 21.906ZM8.65518 48.9L10.1542 49.2939L8.77552 50.3881L8.65518 48.9ZM8.69892 52.5437L9.35542 52.9813L8.54572 53.2877L8.69892 52.5437ZM5.54761 59.1417L6.07281 60.6736L4.65035 60.0937L5.54761 59.1417Z" fill="#F1F9ED"/>
<path d="M11.7737 58.5837L12.3536 57.9928L12.3864 58.8682L11.7737 58.5837ZM15.2423 58.7259L15.7894 58.3649L15.7237 58.9995L15.2423 58.7259ZM21.2276 52.4671L21.6652 51.9528L21.7747 52.5765L21.2276 52.4671ZM14.5092 55.4981L15.0563 55.1698L14.9687 55.7935L14.5092 55.4981ZM11.9925 55.4762L12.5396 55.1479L12.4521 55.7716L11.9925 55.4762ZM9.7822 48.8015L9.95731 48.8562L10.5044 48.9985L10.4606 49.1845L11.1719 49.3815L10.2527 50.1474L10.0338 49.4909L9.7822 48.8015ZM9.01625 53.9114L9.2351 53.4956L9.59621 54.1084L9.26796 54.0756L8.86311 55.126L8.3488 53.8458L9.01625 53.9114ZM7.26555 54.0756L8.38166 55.4324L6.74035 55.5199L7.26555 54.0756ZM3.67652 58.7807L5.25218 58.6165L4.57378 60.4548L3.67652 58.7807ZM8.1628 51.8325L7.94395 51.9747L7.83455 51.2307L8.51295 51.3948L9.12571 50.9571L9.34456 52.2045L8.1628 51.8325ZM2.61518 58.3977L3.74217 58.0366L3.30453 59.3278L2.61518 58.3977ZM11.9159 50.8258L11.2375 50.6617L11.5658 50.0489L11.9159 50.8258ZM4.22363 59.7983L3.37018 60.2141V59.3715L4.22363 59.7983ZM5.5805 56.5704L5.90874 55.9467L6.45585 56.5594L5.5805 56.5704ZM13.9183 56.6798L13.3384 57.2707L13.3931 56.4719L13.9183 56.6798ZM11.8831 53.8348L11.3032 54.4148L11.3579 53.627L11.8831 53.8348Z" fill="#F1F9ED"/>
<path d="M7.83449 47.9152V46.4271L8.9834 47.2259L7.83449 47.9152ZM9.61805 47.4556L8.54569 46.5803L9.15844 46.3614L8.68794 45.2672L9.78214 45.4204L9.27879 46.263L9.96814 46.1864L9.61805 47.4556ZM14.6185 52.7297L14.3669 53.1236L14.148 52.6531L14.6185 52.7297ZM17.3322 61.4286L16.8507 61.7022L16.9601 61.1222L17.3322 61.4286ZM10.3512 57.1612L9.83684 57.3801L10.0229 56.833L10.3512 57.1612ZM12.0362 54.8634L11.5329 55.0823L11.7189 54.5133L12.0362 54.8634ZM7.80164 52.3686L6.98098 50.8586L7.27644 50.7711L7.49529 50.3662L7.65938 50.7601L8.44725 50.7164L7.80164 52.3686ZM6.10563 57.7302L5.23028 57.402L5.85399 56.7454L6.10563 57.7302ZM9.00523 60.9034L8.54569 61.7022L8.2503 61.0785L9.00523 60.9034ZM7.47339 58.3211L6.92629 59.0542L6.70743 58.3977L7.47339 58.3211ZM10.3402 59.4481L9.55234 59.3059L10.0666 58.6494L10.3402 59.4481ZM9.30069 56.7783L8.53473 56.5594L9.11469 55.9686L9.30069 56.7783ZM7.76884 53.7145L8.20649 52.9048L8.64419 53.7364L7.76884 53.7145ZM7.76884 55.1698L8.78645 55.6403L7.76884 56.1655V55.1698ZM7.84538 58.0147L8.50194 58.4524L7.73599 58.7041L7.84538 58.0147ZM7.51713 59.0651L8.22839 59.4153L7.50618 59.7436L7.51713 59.0651ZM7.18888 60.4001L7.88919 60.7283L7.16698 61.0785L7.18888 60.4001ZM13.0976 52.2483L13.8088 51.8872L13.59 52.7188L13.0976 52.2483ZM11.2046 51.723L12.277 51.1759L11.9706 52.4233L11.2046 51.723ZM16.4896 52.9485L17.5291 52.3577L17.2775 53.616L16.4896 52.9485ZM12.266 56.9971L11.9159 57.8725L11.5329 56.9315L12.266 56.9971ZM13.8635 58.332L13.6009 59.2512L13.1304 58.3758L13.8635 58.332ZM10.9749 54.7868L10.6137 55.6622L10.2417 54.7212L10.9749 54.7868ZM9.99004 54.8525L9.42104 56.2421L8.81924 54.7431L9.99004 54.8525ZM10.3839 46.8867L11.325 47.3024L10.4278 48.0903L10.3839 46.8867ZM11.3688 48.1997L11.9159 47.576L12.3536 48.4952L11.3688 48.1997ZM7.88919 48.7031L8.84114 47.9809L9.09279 49.3815L7.88919 48.7031ZM6.13842 57.7521L5.59132 58.4852L5.35063 57.6755L6.13842 57.7521ZM3.26066 59.6998L1.61936 59.9405L2.24306 58.6056L3.26066 59.6998ZM4.60658 60.4658L5.10987 61.4724L4.15792 61.6147L4.60658 60.4658ZM6.61988 58.4415L5.85399 58.529L6.16033 57.7412L6.61988 58.4415ZM11.3578 52.7516L10.6794 52.5875L11.0733 51.8762L11.3578 52.7516Z" fill="#F1F9ED"/>
<path d="M5.04422 55.7606L5.23028 56.0889L5.33967 55.7388L5.75548 55.9576L5.31777 56.1764L5.75548 56.7235L4.44242 56.7892L5.04422 55.7606ZM7.50618 56.3406L6.95907 57.0846L6.65273 56.3625L7.50618 56.3406ZM13.9401 60.6955L13.5025 60.3344L13.9839 60.0499L13.9401 60.6955ZM9.78214 58.0913L9.37729 57.6865L9.88065 57.4676L9.78214 58.0913ZM10.0776 56.9752L9.67275 56.5703L10.176 56.3515L10.0776 56.9752ZM16.7741 46.9632L15.7675 47.6745L15.8331 46.3614L16.7741 46.9632ZM11.4672 45.5408L10.7013 46.5475L10.4058 45.2672L11.4672 45.5408ZM15.1 45.497L14.3341 46.5037L14.0386 45.2235L15.1 45.497Z" fill="#F1F9ED"/>
<path d="M10.9639 55.7169L11.1062 57.0299L10.0557 56.3734L10.9639 55.7169ZM12.1894 60.2469L12.452 61.5271L11.3578 60.98L12.1894 60.2469ZM15.2204 50.793L15.3626 52.106L14.3122 51.4495L15.2204 50.793ZM5.39439 55.0932L6.10565 54.5023L5.39439 54.3272L5.94149 53.7583L6.16035 54.4148L6.52145 54.1193L6.87161 55.9357L5.39439 55.0932ZM23.777 54.8087L23.7223 55.4105L23.3941 54.929L23.777 54.8087ZM25.5278 57.5223L25.4402 58.1241L25.1448 57.6208L25.5278 57.5223ZM16.0301 55.8263L16.3583 56.1327L15.8331 56.264L16.0301 55.8263ZM13.5134 54.2944L13.8635 54.5789L13.3383 54.7431L13.5134 54.2944ZM10.3949 45.2782L10.8326 46.0004L10.0338 46.0222L10.3402 45.1688L9.92441 44.184L11.2046 44.2496L10.3949 45.2782ZM9.24601 51.4495L10.4059 51.3401L9.94632 52.5984L10.0557 52.8172L9.35541 52.8501L9.57426 52.1388L9.24601 51.4495ZM13.1851 49.3486L13.8417 49.7863L13.0429 50.0817L13.1851 49.3486ZM14.9359 48.8562L15.5924 49.2939L14.7827 49.5894L14.9359 48.8562ZM11.7627 45.4095L12.5286 45.5517L11.8721 46.1535L11.7627 45.4095ZM12.9663 52.9376L13.1304 52.6312L13.393 53.0689L13.1523 53.047L12.8569 53.813L12.4739 52.872L12.9663 52.9376ZM10.7998 52.9595L10.9639 52.6531L11.2375 53.0908H10.9858L10.6904 53.8567L10.3074 52.9267L10.7998 52.9595ZM12.2004 43.5493L12.0581 43.7682L11.7299 43.1117L12.4083 43.0022L12.8459 42.3457L13.4696 43.4399L12.2004 43.5493ZM12.5067 46.4271L13.5462 45.88L13.5572 47.2368L13.7432 47.4119L13.1085 47.7073L13.0538 46.9632L12.5067 46.4271ZM9.30071 54.0318L9.80407 52.8938L10.57 53.9552L10.8107 53.9771L10.4825 54.6336L10.0229 54.0647L9.30071 54.0318ZM6.61989 56.9315L7.77975 57.0081L7.17795 58.1788L7.25455 58.4305L6.55425 58.3539L6.86065 57.6974L6.61989 56.9315ZM9.57426 48.5061L9.81502 47.959L9.79311 47.5869L9.96816 47.762L10.1104 47.6745L10.1542 47.9371L10.2636 47.9699L10.1542 47.9371L10.3949 48.3748L9.57426 48.5061ZM6.61989 53.7035V52.0951L8.15181 52.861L6.61989 53.7035ZM14.6842 53.7364L14.7389 54.3929L14.2356 53.9334L14.6842 53.7364ZM18.5905 59.0104L18.7 59.667L18.1528 59.273L18.5905 59.0104ZM6.99195 47.576L6.26974 50.3115L8.30501 49.3596L6.99195 47.576Z" fill="#F1F9ED"/>
<path d="M5.79926 51.9747L4.86921 54.0975L7.90018 54.0099L5.79926 51.9747ZM4.00481 55.9139L2.3963 58.2445L4.93486 58.5399L4.00481 55.9139Z" fill="#F1F9ED"/>
<path d="M6.33541 50.3115L5.98526 52.117L7.21076 51.4057L6.33541 50.3115ZM4.63934 54.2069L3.74209 55.9576L5.73355 55.5528L4.63934 54.2069ZM21.709 60.1593L21.1947 60.3454L21.4135 59.7983L21.709 60.1593ZM8.97242 62.8949L8.53471 61.6913L9.66177 62.1289L8.97242 62.8949ZM14.6841 61.0347L15.9972 61.5818L14.6623 62.304L14.6841 61.0347ZM23.219 60.2359L22.8579 59.7983H23.405L23.219 60.2359ZM20.0786 61.932L19.7175 61.4943L20.2646 61.5052L20.0786 61.932ZM6.6308 60.8597L7.6484 60.2031L7.45146 61.4724L6.6308 60.8597ZM15.6908 62.4244L16.3473 63.5405L15.1437 63.431L15.6908 62.4244ZM26.5016 61.1113L26.6438 61.7022L26.2061 61.3739L26.5016 61.1113ZM2.39624 60.4548L3.54514 60.2359L3.19498 61.549L3.32635 61.7678L2.637 61.8773L2.79013 61.1442L2.39624 60.4548ZM16.5115 43.7901L16.3364 44.3372L16.0628 43.7901H16.5115ZM18.678 37.4984L18.9516 38.0455L18.4373 37.8267L18.678 37.4984ZM24.9369 47.3462L24.335 47.1055L24.8274 46.7772L24.9369 47.3462ZM19.5534 47.6526L20.0786 47.8386L19.5862 48.1341L19.5534 47.6526ZM25.3964 40.398L25.9107 40.1792L25.67 40.6935L25.3964 40.398ZM21.8731 46.1207L22.2342 46.5584L21.6871 46.5365L21.8731 46.1207ZM18.5357 51.3182L18.3717 51.8872L18.0872 51.362L18.5357 51.3182ZM21.8512 47.3134L21.9059 47.9043L21.4682 47.5323L21.8512 47.3134ZM19.1595 40.6825L19.5972 41.0765L19.0501 41.0874L19.1595 40.6825ZM21.4354 39.8728L21.8731 40.2777H21.326L21.4354 39.8728ZM16.3802 44.4904L16.993 44.6545L16.4458 45.0156L16.3802 44.4904ZM2.33059 22.3874L2.7683 24.6634L5.1974 22.8579L2.33059 22.3874ZM3.29349 26.7642L4.16884 29.5326L5.85396 27.563L3.29349 26.7642Z" fill="#F1F9ED"/>
<path d="M4.98959 32.1477L5.64615 34.172L7.15616 32.3447L4.98959 32.1477ZM1.98053 20.7023L2.19938 22.5078L3.18419 21.4902L1.98053 20.7023ZM2.80118 25.0463L3.30454 26.9721L4.47535 25.287L2.80118 25.0463ZM10.6357 39.7087L11.9925 40.4746L10.6029 41.0545L10.6357 39.7087Z" fill="#F1F9ED"/>
<path d="M8.77546 42.3019L10.3073 43.3524L8.55661 44.1183L8.77546 42.3019ZM7.94386 33.4607L9.62891 33.2419L8.81921 34.7519L7.94386 33.4607ZM9.03806 40.7919L10.0776 39.5336L10.756 41.3937L9.03806 40.7919ZM8.20646 41.5141L8.67695 40.3652L9.30066 41.5688L8.20646 41.5141Z" fill="#F1F9ED"/>
<path d="M10.0995 41.164L9.74938 42.094L9.20228 41.4594L10.0995 41.164ZM9.00526 37.8813L8.81927 37.181L9.58522 37.2358L9.00526 37.8813ZM10.1214 38.319L9.28977 38.7567L9.30072 37.8047L10.1214 38.319ZM14.3231 38.9755L14.4325 39.9165L13.8417 39.6102L14.3231 38.9755ZM11.4563 37.75L11.5657 38.691L10.9858 38.3847L11.4563 37.75ZM14.2575 37.8813L13.5134 38.1768L13.6447 37.3342L14.2575 37.8813ZM7.84541 36.3495L8.93961 36.0978L8.42537 37.1592L7.84541 36.3495ZM11.5329 37.2248L12.2988 37.0497L11.9268 37.7938L11.5329 37.2248Z" fill="#F1F9ED"/>
<path d="M12.1019 38.4941L12.846 38.319L12.4849 39.0521L12.1019 38.4941ZM12.5943 39.7852L13.3384 39.6102L12.9773 40.3433L12.5943 39.7852ZM10.2418 38.7348L10.209 39.6759L9.5524 39.1616L10.2418 38.7348ZM8.9725 41.9518L7.65945 42.9694L7.62665 41.4703L8.9725 41.9518ZM10.5044 41.3828L11.4454 41.8861L10.767 42.5974L10.5044 41.3828ZM10.9421 38.4941L10.4606 39.1288L10.1543 38.319L10.9421 38.4941ZM8.07525 37.6844L8.4035 37.7719L8.26124 37.4218L8.69895 37.2686L8.52391 37.761L9.18041 37.8266L8.30506 38.8442L8.07525 37.6844ZM10.1871 36.2947L10.2965 37.2358L9.60716 36.9403L10.1871 36.2947Z" fill="#F1F9ED"/>
<path d="M7.61565 36.1963L7.58279 35.2334L7.03569 35.7367L6.92629 34.9051L7.55 35.124L7.52809 34.6316L9.12565 35.4632L7.61565 36.1963ZM9.95726 37.3342L10.8326 36.5355L11.1828 37.8485L11.4016 37.958L10.8544 38.4175L10.6138 37.7063L9.95726 37.3342Z" fill="#F1F9ED"/>
<path d="M5.48195 33.7562L6.30261 35.9446L8.31597 33.614L5.48195 33.7562ZM6.90441 38.319L7.80166 41.0983L9.44297 39.074L6.90441 38.319ZM7.69227 45.3548L7.58281 46.5256L8.75361 45.9785L7.69227 45.3548ZM6.30261 36.1306L6.81685 38.0674L7.95487 36.3167L6.30261 36.1306ZM1.54285 62.4572L2.66984 63.5842L0.973838 63.8031L1.54285 62.4572ZM0.94098 61.0785L1.70694 59.853L2.25404 61.1879L0.94098 61.0785ZM3.4358 61.9867L4.01569 62.8948L2.85584 63.0043L3.4358 61.9867ZM3.65465 63.1903L4.42061 62.9934L4.31115 64L3.65465 63.1903Z" fill="#F1F9ED"/>
<path d="M0.94098 61.8444L2.08995 61.735L1.6851 63.0918L0.94098 61.8444ZM5.3397 62.2274L5.12085 62.3149L5.17555 61.549L5.79925 61.8772L6.4886 61.5928L6.45581 62.862L5.3397 62.2274Z" fill="#F1F9ED"/>
<path d="M2.00241 62.3915L2.48386 62.0851L2.65891 61.7569L2.72456 62.0085L2.87776 62.0195L2.79021 62.2712L2.85586 62.3587L2.79021 62.2712L2.75742 62.7635L2.00241 62.3915ZM1.0176 61.0457L0 63.5842L2.14466 63.0371L1.0176 61.0457Z" fill="#F1F9ED"/>
</svg>
