<svg width="50" height="19" viewBox="0 0 50 19" fill="none" xmlns="http://www.w3.org/2000/svg">
<path d="M29.9188 10.6449L29.2684 10.1573L29.1058 10.8887L29.9188 10.6449ZM33.496 9.91354H32.5204L33.0082 10.9699L33.496 9.91354ZM21.6261 1.21888L22.6017 0.162502L21.4635 0L21.6261 1.21888ZM25.1221 0.893825L23.9838 0.568796L24.1464 1.9502L25.1221 0.893825ZM35.6099 5.20055L35.7725 6.2569L36.6668 5.28181L37.2359 5.68811L37.3172 4.71299L36.5855 5.11929V5.20055L36.0164 5.03802L36.2603 4.79426L35.2847 4.46923L35.4473 5.60684L35.6099 5.20055ZM17.9676 4.63173L16.992 5.36305L18.2115 6.01314L17.9676 4.63173ZM18.8619 3.73788L19.0245 3.90041L18.8619 4.3067H19.1871L19.5936 5.03802L20.0814 3.65664L18.8619 3.73788ZM27.4798 3.65664L26.3416 3.73788L26.992 5.03802L27.4798 3.65664ZM27.3985 5.20055L28.0489 6.50069L28.618 5.20055H27.3985ZM38.6993 5.44432H37.7237L38.2928 6.50069L38.6993 5.44432ZM30.6505 6.6632L31.87 6.82572L31.4635 7.06949L32.1952 7.71957L32.2765 6.6632L32.0326 6.82572L31.3822 5.68811L30.6505 6.6632ZM19.7562 9.18222L18.4554 8.53216L18.5367 9.75104L19.7562 9.18222ZM15.6911 6.17564L15.7724 7.39452L16.992 6.82572L15.6911 6.17564ZM14.309 11.8637L13.0082 11.2137L13.0895 12.4326L14.309 11.8637ZM10.9757 10.1573L12.2765 10.4011L12.1139 9.99481L12.7643 9.83228L12.1139 9.42598L12.8456 9.01969L11.5448 8.36963L11.6261 9.26348L10.9757 10.1573ZM11.9513 9.66978L11.7887 9.26348L12.0326 9.10095L11.9513 9.66978ZM19.7562 6.2569H19.9188L20.6505 7.06949L20.8944 6.41943L20.9757 6.50069L20.8944 6.33817L21.057 5.76935L20.6505 5.85061L20.3253 5.20055L19.7562 6.2569Z" fill="#E9F9FF"/>
<path d="M5.69106 10.5636L4.63416 9.99482V10.9699L5.69106 10.5636ZM9.10571 13.4077L8.04881 12.8389V13.814L9.10571 13.4077ZM1.46343 9.8323V10.8074L2.52033 10.2386L1.46343 9.8323ZM34.2277 5.28182L33.7399 6.17565L34.8781 6.25691L34.2277 5.28182ZM50.0001 11.295L49.431 10.2386L48.9432 11.1324L50.0001 11.295ZM49.6749 10.0761L48.5367 9.75106L48.618 10.7262L49.6749 10.0761ZM45.0407 8.85721L44.4716 7.80082L43.9838 8.69468L45.0407 8.85721ZM43.8212 11.5387V12.1888L44.309 11.7825L43.8212 11.5387ZM44.309 10.3199L44.8781 9.8323L44.309 9.66979V10.3199ZM45.3659 11.3762L45.8537 11.7013L45.935 11.0512L45.3659 11.3762ZM48.2928 10.2386L48.374 9.58853L47.6423 9.75106L48.2928 10.2386ZM29.5936 3.90041H28.6179L29.187 4.95676L29.5936 3.90041ZM31.3822 7.0695L30.2439 7.15076L30.8943 8.45091L31.3822 7.0695ZM32.2765 4.63173L31.7887 5.20055L31.87 5.28182L31.1383 5.44432L31.6261 6.17565L32.0326 5.44432L32.5204 5.60685L32.2765 4.63173ZM35.0407 7.39453V8.12588L35.7724 7.63832L35.0407 7.39453ZM42.0326 7.55706L42.6017 7.63832L43.0082 8.53217L43.496 7.47579L42.7643 7.55706L42.5204 6.98824L42.0326 7.55706ZM47.0732 8.93847L46.5041 8.69468V9.426L47.0732 8.93847ZM41.7887 11.945L41.057 12.1076L41.6261 12.5139L41.7887 11.945ZM17.8049 11.3762L16.9919 10.8887V11.7013L17.8049 11.3762ZM22.1952 9.8323L21.5447 9.91356L22.0326 10.6449L22.1952 9.8323ZM19.187 16.333H20L19.6748 15.6829L19.187 16.333ZM20.0813 4.38797L21.057 4.14417L20.3252 3.57538L20.0813 4.38797ZM17.6423 9.426L16.6667 9.34476L16.9919 10.1574L17.6423 9.426ZM22.7643 3.98167L22.0326 3.41285L21.9512 4.3067L22.7643 3.98167ZM27.8049 2.43776H27.1545L27.4797 3.16908L27.8049 2.43776ZM24.0651 7.88209L23.4147 8.36965L24.2277 8.45091L24.0651 7.88209ZM21.626 2.519L21.3822 1.86893L20.8943 2.43776L21.626 2.519ZM24.3903 16.4143H25.2033L24.7968 15.5204L24.3903 16.4143ZM23.8212 11.2137L23.0895 10.9699L23.2521 11.7013L23.8212 11.2137ZM29.5122 13.5702L28.9431 13.8952L29.5122 14.3828V13.5702ZM20.5691 8.69468L20.1626 7.80082L19.7561 8.69468H20.5691ZM9.83742 9.34476L9.43091 8.45091L9.10571 9.34476H9.83742ZM13.0895 13.7327L13.4147 13.5702L12.9269 13.4077L13.0081 13.7327L12.2764 13.4889L12.6016 15.0329L13.9025 13.9765L13.0895 13.7327ZM15.6098 16.008L16.1789 16.4955V15.6829L15.6098 16.008ZM7.1545 13.4889L6.34149 13.6515L6.91058 14.139L7.1545 13.4889ZM15.0407 11.0512H15.6911L15.2846 10.3199L15.0407 11.0512ZM11.3821 8.28838L10.5691 8.45091L11.1382 9.01971L11.3821 8.28838ZM17.7236 7.96335L16.9919 8.12588L17.561 8.69468L17.7236 7.96335ZM6.34149 9.426L5.69106 9.2635L5.77237 9.8323L6.34149 9.426ZM18.374 7.63832L18.4553 6.98824L17.9675 7.31329L18.374 7.63832ZM21.626 7.31329L21.2195 7.23203L21.4635 7.63832L21.626 7.31329ZM26.9919 9.01971L26.9106 8.45091L26.4228 8.85721L26.9919 9.01971ZM24.309 10.3199L23.9838 9.99482V10.4824L24.309 10.3199ZM24.5529 6.01314L24.7968 6.33817L24.9594 5.85062L24.5529 6.01314ZM32.7643 13.2452L33.3334 13.4077L33.2521 12.9202L32.7643 13.2452ZM30.1626 14.9516L30.4066 14.7891L30.8943 14.9516L30.7318 14.3828L30.4066 14.6266L30.1626 14.4641V14.9516ZM31.3822 10.3199L30.8943 10.4824L31.1383 10.8074L31.3822 10.3199ZM36.1789 7.15076L36.748 7.31329L36.6667 6.82573L36.1789 7.15076ZM34.0651 8.61341L33.7399 8.28838V8.77594L34.0651 8.61341ZM34.7968 4.3067L34.309 4.46923L34.5529 4.79426L34.7968 4.3067ZM40.9757 8.28838L41.4635 8.45091V8.04462L40.9757 8.28838ZM39.187 9.426L38.8619 9.18224V9.58853L39.187 9.426ZM39.7562 5.93188H39.3497L39.5936 6.25691L39.7562 5.93188ZM17.9675 13.0014V12.5139L17.561 12.6764L17.9675 13.0014ZM11.1382 14.4641L11.5447 15.3579L12.0326 14.7078L11.1382 14.4641ZM6.50407 13.0827L7.1545 13.3264L7.07319 12.5139L6.50407 13.0827ZM3.17076 14.8704L3.82115 15.2767L3.90246 14.5453L3.17076 14.8704ZM4.14635 11.7013L3.41465 12.0263L4.06505 12.4326L4.14635 11.7013ZM0.813009 10.9699L1.38213 10.8074L0.975621 10.3199L0.813009 10.9699ZM3.25204 10.2386L3.73985 9.75106L3.00814 9.66979L3.25204 10.2386ZM11.2195 11.1324L10.7317 10.8074V11.3762L11.2195 11.1324ZM16.4228 13.6515L16.0163 13.4889L16.0976 13.4077L15.3659 13.2452L15.7724 13.9765L15.8537 13.814L16.0163 14.2203L16.4228 13.6515ZM18.9431 14.6266L17.6423 14.2203L18.2114 15.5204L18.9431 14.6266ZM13.9025 14.4641L14.309 15.1954L14.6342 14.7078L13.9025 14.4641ZM0.48781 7.0695L1.62602 7.47579L1.54474 6.17565L0.48781 7.0695ZM1.78863 14.5453L0 14.3828L0.243918 13.2452L1.78863 14.5453ZM8.45532 14.9516L8.2927 15.4392L8.86182 15.2767L8.45532 14.9516ZM9.43091 17.3081L9.91872 18.3645L10.4878 17.7144L9.43091 17.3081ZM4.47155 15.4392L5.20328 15.8455V14.9516L4.47155 15.4392ZM11.5447 12.1888L10.813 11.5387L10.7317 12.3513L11.5447 12.1888ZM34.6342 11.1324L35.4472 10.8887L35.0407 10.3199L34.6342 11.1324ZM28.7805 11.8638L29.187 11.295L28.4553 11.1324L28.7805 11.8638ZM29.7561 3.33158L29.8374 2.27523L29.1057 2.68152L29.7561 3.33158ZM32.3578 6.907L33.1708 6.6632L32.7643 6.09441L32.3578 6.907ZM26.0976 6.82573L26.5041 7.55706L26.8293 6.98824L26.0976 6.82573ZM32.8456 4.713L33.5773 5.36306V4.713L34.3903 4.79426L33.7399 3.73788L33.2521 4.55047L32.8456 4.713ZM36.1789 8.69468L36.9919 8.45091L36.5041 7.96335L36.1789 8.69468ZM30.4878 8.69468L29.6748 8.53217L30.0813 9.2635L30.4878 8.69468ZM32.1952 7.96335L33.1708 7.80082L32.4391 7.15076L32.1952 7.96335ZM37.1545 7.0695L37.561 7.80082L37.8862 7.15076L37.1545 7.0695ZM34.309 12.9202L34.1464 12.1888L33.496 12.6764L34.309 12.9202ZM36.0163 9.66979L36.748 9.50727L36.1789 9.01971L36.0163 9.66979ZM40.5692 8.93847L40.244 8.53217L39.9188 9.18224L40.3253 9.10097L40.4879 9.50727L40.7318 8.93847H40.5692ZM37.0732 13.6515L37.8049 13.7327L37.6423 13.1639L37.0732 13.6515ZM37.2358 6.74447H38.0488L37.561 6.09441L37.2358 6.74447ZM41.9513 6.82573L41.3009 6.74447L41.4635 7.39453L41.9513 6.82573ZM38.1301 10.4824L37.561 10.8074L38.2114 11.0512L38.1301 10.4824ZM33.3334 9.01971L33.7399 9.75106L34.1464 9.18224L33.3334 9.01971ZM38.6179 8.20712L40.6505 7.96335L39.1057 6.41944L38.6179 8.20712ZM21.87 3.16908L23.9025 2.92529L22.3578 1.38138L21.87 3.16908ZM8.86182 10.8887L8.45532 8.85721L7.2358 10.3199L6.17887 11.2137L7.31708 11.62L7.2358 10.4824L8.86182 10.8887ZM14.2277 8.93847L15.935 7.71959L13.9025 7.23203L14.2277 8.93847Z" fill="#E9F9FF"/>
</svg>
