<svg width="37" height="13" viewBox="0 0 37 13" fill="none" xmlns="http://www.w3.org/2000/svg">
<path d="M36.9888 0.31233L35.851 1.38317L36.9888 1.87397V0.31233ZM33.397 1.56165L33.5755 1.6955L33.5643 1.11547L34.3452 1.39433L34.1221 0.524271L33.5866 1.11547L33.5309 0.780806L32.8616 1.14893L33.4193 1.55048L32.7835 2.08591L33.6201 2.26439L33.397 1.56165ZM34.479 7.6967L32.9174 7.87518L33.6982 9.58184L34.479 7.6967ZM32.9843 10.1284L32.2035 9.92763L32.605 10.7754L32.9843 10.1284ZM15.9177 12.2701V11.3777L15.2819 11.9355L15.9177 12.2701ZM9.78262 9.3699L9.62646 8.67831L9.22489 9.16912L9.78262 9.3699ZM7.27283 4.51762L7.09435 3.82604L6.71509 4.33914L7.27283 4.51762ZM16.1519 7.719L15.9623 7.04971L15.5942 7.58515L16.1519 7.719Z" fill="#E8BF89"/>
<path d="M18.0706 9.69339L17.8698 9.02411L17.5017 9.55951L18.0706 9.69339ZM33.464 7.03858L33.2743 6.98279L32.7166 6.8378L32.6608 7.03858L31.9023 6.84894L32.4377 8.02019L32.9509 7.52939L33.464 7.03858ZM31.6792 11.2439L31.8131 10.7642L31.1103 10.8981L31.3781 11.1546L30.9096 12.2143L32.2035 11.7458L31.6792 11.2439ZM35.918 2.29786L36.1411 2.93368L36.5427 2.23093L35.7395 2.16401L35.1595 1.23815L34.5237 2.63248L35.918 2.29786ZM33.7094 12.5155L33.1516 11.1323L31.445 12.4709L33.7094 12.5155ZM33.9548 10.7865L34.0217 11.0543L34.6129 10.5857L33.9882 10.173L33.8098 9.39219L32.8058 10.1284L33.9548 10.7865ZM30.2514 2.33132L31.5565 2.64365L31.4227 1.19352L30.2514 2.33132ZM17.5574 3.94872L18.2267 4.09374L18.1821 3.25714L17.5574 3.94872ZM31.0323 6.73738L31.6569 7.15013L31.8242 6.44739L31.0323 6.73738ZM15.7504 9.07987V9.97226L16.2635 9.3476L15.7504 9.07987ZM29.6937 8.58906L29.7272 9.48145L30.2291 8.86792L29.6937 8.58906ZM36.1857 7.47359L36.7434 6.06813L35.3268 6.2912L36.1857 7.47359ZM34.3787 2.78866L33.4305 2.90018L33.9548 3.62526L34.3787 2.78866ZM30.6976 1.27161L29.4706 1.45009L30.1622 2.38708L30.6976 1.27161ZM24.8526 4.58454L23.8487 5.34305L24.8861 5.82273L24.8526 4.58454ZM20.6584 5.03072L19.6545 5.78927L20.6919 6.26891L20.6584 5.03072Z" fill="#E8BF89"/>
<path d="M13.1625 10.9762L12.1585 11.7347L13.1959 12.2143L13.1625 10.9762ZM34.624 7.01625L36.0406 5.99004L35.5721 5.52153L36.431 4.77419L35.3714 4.39494L35.4829 5.37652L34.8806 4.99726L34.624 7.01625ZM32.103 4.17183L32.9062 2.83326H31.4003L32.103 4.17183ZM16.375 3.69219L16.2634 4.13837L16.7543 4.02682L16.375 3.69219ZM28.422 5.62192L28.3328 6.1016L28.8347 5.94542L28.422 5.62192ZM6.33582 9.57068L6.48084 10.1507L6.81546 9.6376L6.33582 9.57068ZM28.8905 9.19142L29.1136 9.74915L29.3702 9.19142H28.8905ZM34.4455 10.8646L36.1187 10.4184L35.9514 10.1284L36.0629 9.65993L35.6614 9.80491L35.1036 9.15796L34.4455 10.8646ZM31.88 4.61801L32.7723 4.77419L32.3261 3.90413L31.88 4.61801ZM32.5492 11.8685L32.8058 10.9315L31.8911 11.1547L32.5492 11.8685ZM29.2698 2.25323L28.8236 2.19747L28.9798 2.7998L29.2698 2.25323ZM30.2402 0.825439L29.9948 0.0445997L29.5486 0.758513L30.2402 0.825439ZM29.8833 6.46969L29.6044 5.65538L29.1805 6.41393L29.8833 6.46969ZM31.3891 4.01565L30.9876 2.94481L30.4633 3.94873L31.3891 4.01565ZM31.0211 8.25444L30.5972 7.02742L29.9614 8.16518L31.0211 8.25444ZM10.675 7.50706L10.3069 6.25775L9.63759 7.37321L10.675 7.50706Z" fill="#E8BF89"/>
<path d="M10.1954 3.19022L9.7492 2.01899L9.16916 3.13446L10.1954 3.19022ZM22.577 4.72956L21.4393 5.13111L22.4767 5.7781L22.577 4.72956ZM21.9524 1.41663L20.8369 1.60628L21.7293 2.38708L21.9524 1.41663ZM16.6874 10.7531L16.3193 11.6455L17.2563 11.3108L16.6874 10.7531ZM14.568 10.385L14.1218 11.2327L15.0923 11.0096L14.568 10.385ZM29.4371 10.0503L29.0802 10.9427L30.0172 10.5858L29.4371 10.0503ZM30.2961 11.1212L29.7049 12.549L31.1996 11.9912L30.2961 11.1212ZM33.754 5.68885L32.6832 5.65538L33.2409 6.80431L33.754 5.68885ZM32.6385 6.16852L32.3597 5.35422L31.6012 6.02351L32.6385 6.16852ZM35.4495 8.5556L34.8918 7.40667L34.3898 9.50375L35.4495 8.5556ZM30.8761 8.22097L31.5008 8.63369L31.6904 7.80826L30.8761 8.22097ZM28.489 0.100393L28.9017 0.702753L28.9798 0.0111363L28.489 0.100393ZM9.49265 11.9466L10.0727 12.0582L9.92768 11.467L9.49265 11.9466ZM15.8508 1.88514L15.9624 2.38708L16.297 1.99666L15.8508 1.88514ZM15.8396 5.2873L16.1966 6.58124L16.9774 5.49924L15.8396 5.2873ZM18.5391 10.9204L17.5017 11.7012L18.7287 12.0916L18.5391 10.9204Z" fill="#E8BF89"/>
<path d="M14.4341 8.15404L13.4302 8.99064L14.6795 9.32527L14.4341 8.15404ZM3.80372 5.28729L3.58063 5.86732L4.1049 5.59962L3.80372 5.28729ZM0.758504 6.43622L0.535414 6.99395L1.04852 6.71509L0.758504 6.43622ZM14.7687 6.73738L14.3226 6.70392L14.6349 7.20589L14.7687 6.73738ZM17.7247 7.62977L17.2785 7.56285L17.5574 8.09825L17.7247 7.62977ZM10.4742 3.79257L10.1953 4.23875L10.6415 4.17183L10.4742 3.79257ZM29.6937 3.10099L29.4148 3.52487L29.861 3.46908L29.6937 3.10099ZM34.4344 5.14228L33.7316 5.56616L34.4455 5.95658L34.5125 5.06419L35.2933 4.39493L34.0997 3.8372L34.4344 5.14228ZM33.3524 8.89025L32.5492 7.90864L32.0138 9.18025L31.7684 9.25834L32.2815 9.81608L32.6162 9.14679L33.3524 8.89025ZM32.0361 4.06027L31.2888 3.8372L31.6234 4.6738L32.0361 4.06027ZM31.1437 6.46968L30.3629 6.26891L30.7533 7.11667L31.1437 6.46968ZM29.5152 7.07204L29.6044 6.71509L29.0913 6.82664L29.2921 7.00512L28.9909 7.78592L29.9167 7.39554L29.5152 7.07204ZM31.1437 8.76754L31.2218 8.43291L30.7199 8.54446L30.9207 8.72291L30.6083 9.50375L31.5453 9.12449L31.1437 8.76754ZM32.0361 6.38046L32.0919 6.63699L32.6831 6.16852L32.0696 5.76693L31.8911 4.98613L30.8872 5.72234L32.0361 6.38046ZM29.4148 4.43953L29.9948 4.86341L30.2179 4.08261L29.4148 4.43953ZM21.4392 7.6744L22.0193 8.08712L22.2423 7.30628L21.4392 7.6744Z" fill="#E8BF89"/>
<path d="M31.4672 5.24266L30.6641 4.26105L30.1398 5.53269L29.8944 5.61078L30.3964 6.16852L30.731 5.49923L31.4672 5.24266ZM24.3059 7.21706L23.5028 6.23544L22.9674 7.49592L22.722 7.58514L23.2351 8.14288L23.5697 7.45129L24.3059 7.21706ZM31.5007 10.7196L31.9023 9.49258L30.586 9.65993L30.3964 9.48145L30.1733 10.2177L30.9095 10.173L31.5007 10.7196ZM33.8209 3.8595L33.1516 5.01959L34.5459 4.82995L33.8209 3.8595Z" fill="#E8BF89"/>
<path d="M33.4416 2.56555L32.3931 4.19412L33.899 4.22759L33.4416 2.56555ZM34.2671 7.21706L34.2336 6.60353L34.4009 6.26891L34.1555 6.347L34.044 6.21311L33.8878 6.43622L33.7763 6.41392L33.8878 6.43622L33.4974 6.73738L34.2671 7.21706ZM35.3156 12.2924L36.4645 11.1769L34.8137 10.4854L35.3156 12.2924ZM33.754 2.36478L34.4232 1.80705L33.5309 1.6174L33.754 2.36478ZM17.2116 6.30237L16.7097 6.74855L17.4124 6.80431L17.2116 6.30237ZM7.32861 7.08317L6.77088 7.47359L7.44014 7.60744L7.32861 7.08317ZM37 2.01899V5.92311L34.1444 3.21254L37 2.01899ZM36.9553 6.70392L36.9107 9.60413L35.126 8.02019L36.9553 6.70392Z" fill="#E8BF89"/>
<path d="M36.2972 12.4709L33.7317 12.5155L33.542 10.8423L36.2972 12.4709ZM36.9665 9.79378V12.0247L35.5499 9.98339L36.9665 9.79378ZM32.6943 0.557733L31.4227 0.814268L32.3708 1.70666L32.6943 0.557733ZM29.2698 1.56164L29.4483 1.69549L29.4371 1.11547L30.1957 1.39433L29.9726 0.52427L29.4371 1.11547L29.3814 0.780805L28.7121 1.14893L29.2698 1.55048L28.634 2.08591L29.4706 2.26439L29.2698 1.56164ZM30.3518 7.6967L28.7567 7.29511L29.5598 9.00177L30.3518 7.6967ZM28.8571 10.1284L28.0763 9.92763L28.4778 10.7754L28.8571 10.1284Z" fill="#E8BF89"/>
<path d="M29.3367 7.03858L29.1471 6.98279L28.5894 6.8378L28.5448 7.03858L27.7862 6.84894L28.3105 8.02019L28.8348 7.52939L29.3367 7.03858ZM27.552 11.2439L27.6858 10.7642L26.9831 10.8981L27.2397 11.1546L26.7935 12.2143L28.0874 11.7458L27.552 11.2439ZM29.5933 12.5155L29.0356 11.1323L27.3289 12.4709L29.5933 12.5155ZM29.7383 10.028L29.7941 10.2846L30.3853 9.81608L29.7606 9.41452L29.5933 8.63369L28.5894 9.3699L29.7383 10.028ZM26.8381 2.74403L28.1543 3.0452L28.0093 1.59511L26.8381 2.74403ZM22.4878 3.03407L23.7929 3.33523L23.659 1.88514L22.4878 3.03407ZM26.9162 6.73738L27.5408 7.15013L27.7082 6.44738L26.9162 6.73738ZM25.5776 8.58906L25.6111 9.48145L26.113 8.86792L25.5776 8.58906Z" fill="#E8BF89"/>
<path d="M26.5927 1.27162L25.3657 1.4501L26.0573 2.38708L26.5927 1.27162ZM28.7679 4.61801L29.571 3.27947H28.054L28.7679 4.61801ZM24.2502 9.52605L25.0534 8.18751H23.5475L24.2502 9.52605ZM24.2725 5.62192L24.1944 6.1016L24.6964 5.94542L24.2725 5.62192ZM24.7633 9.19142L24.9864 9.74915L25.243 9.19142H24.7633ZM20.3907 7.51823L20.6138 8.07596L20.8592 7.51823H20.3907ZM27.7528 4.61801L28.6452 4.77419L28.199 3.90413L27.7528 4.61801ZM28.4221 11.8685L28.6786 10.9315L27.7639 11.1547L28.4221 11.8685ZM19.3422 2.30899L18.896 2.25323L19.0522 2.85559L19.3422 2.30899ZM26.1019 0.825439L25.8788 0.0445997L25.4326 0.758513L26.1019 0.825439ZM25.7673 6.46969L25.4884 5.65538L25.0645 6.41393L25.7673 6.46969ZM14.3003 5.13112L14.0214 4.30568L13.5975 5.08652L14.3003 5.13112ZM23.4471 11.6231L23.1682 10.7977L22.7443 11.5785L23.4471 11.6231ZM27.262 4.00452L26.8604 2.93368L26.325 3.93759L27.262 4.00452ZM26.8939 8.24327L26.47 7.01625L25.8342 8.15405L26.8939 8.24327ZM25.3322 10.0503L24.9641 10.9427L25.9123 10.5858L25.3322 10.0503Z" fill="#E8BF89"/>
<path d="M24.1387 10.8981L23.7706 11.7904L24.7187 11.4335L24.1387 10.8981ZM19.5318 11.4893L19.1749 12.3816L20.1119 12.0247L19.5318 11.4893ZM20.0115 10.0392L20.8592 10.4407L20.5469 9.43682L20.0115 10.0392ZM23.0009 10.3403L23.8598 10.7531L23.5475 9.74915L23.0009 10.3403ZM25.9681 11.2997L24.9641 12.4151H26.5593L25.9681 11.2997ZM22.3763 11.2997L21.3724 12.4151H22.9675L22.3763 11.2997ZM29.6268 5.66654L28.5559 5.63308L29.1137 6.78201L29.6268 5.66654ZM28.5113 6.14619L28.2213 5.33192L27.4628 6.0012L28.5113 6.14619ZM26.7266 8.2098L27.3512 8.62252L27.5409 7.79709L26.7266 8.2098ZM24.3395 0.0892222L24.7522 0.691583L24.8303 0L24.3395 0.0892222ZM25.533 3.10099L25.2542 3.52487L25.7004 3.46908L25.533 3.10099ZM19.1749 6.2912L18.896 6.71508L19.3422 6.65932L19.1749 6.2912ZM29.1806 8.89025L28.3775 7.90864L27.8421 9.18025L27.5966 9.25834L28.1098 9.81607L28.4444 9.14679L29.1806 8.89025ZM27.8644 4.06027L27.117 3.8372L27.4516 4.6738L27.8644 4.06027ZM26.9497 6.46968L26.1689 6.26891L26.5704 7.11667L26.9497 6.46968ZM25.3323 7.07204L25.4215 6.71508L24.9084 6.82664L25.1092 7.00512L24.7968 7.78592L25.7338 7.39554L25.3323 7.07204Z" fill="#E8BF89"/>
<path d="M22.0193 9.52604L22.0974 9.16912L21.5954 9.28064L21.7962 9.45912L21.4839 10.24L22.4208 9.84954L22.0193 9.52604ZM20.2568 11.4223L19.9222 11.3443L20.0561 11.8685L20.2234 11.6455L21.0042 11.9355L20.5915 10.9873L20.2568 11.4223ZM19.4202 8.76754L19.5095 8.41058L18.9964 8.52213L19.1972 8.70061L18.896 9.48145L19.8218 9.09103L19.4202 8.76754ZM27.0054 8.76754L27.0835 8.43291L26.5815 8.54446L26.7711 8.72291L26.47 9.50375L27.3958 9.12449L27.0054 8.76754ZM27.8978 6.38046L27.9536 6.637L28.5447 6.16852L27.9201 5.76693L27.7528 4.98613L26.7489 5.72234L27.8978 6.38046ZM25.2764 4.43953L25.8565 4.86341L26.0796 4.08261L25.2764 4.43953ZM21.0823 6.38046L21.6623 6.79318L21.8854 6.01234L21.0823 6.38046ZM27.3623 5.24266L26.5592 4.26105L26.035 5.5327L25.7784 5.61079L26.2915 6.16852L26.6261 5.49923L27.3623 5.24266ZM27.3958 10.7084L27.7974 9.48145L26.4811 9.64876L26.2915 9.47028L26.0684 10.2065L26.8046 10.1619L27.3958 10.7084ZM11.5228 6.10159L11.6343 5.76693L11.1435 5.82273L11.322 6.01234L10.9539 6.73738L11.8797 6.45852L11.5228 6.10159ZM28.5894 0.557734L27.3289 0.814269L28.277 1.70666L28.5894 0.557734ZM0.412733 9.67106L0 10.1172L0.580046 10.0726L0.412733 9.67106Z" fill="#E8BF89"/>
</svg>
