<svg width="36" height="26" viewBox="0 0 36 26" fill="none" xmlns="http://www.w3.org/2000/svg">
<path d="M9.53916 2.40429L8.79262 1.74105L8.54377 2.90173L9.53916 2.40429ZM8.70966 1.65814L8.12902 1.40942L7.54838 1.32651L8.04607 2.65301L8.70966 1.65814ZM8.54377 5.1402L8.29492 5.47183L8.79262 5.55473L8.54377 5.1402ZM4.894 6.4667L5.2258 6.88123L5.3917 6.38379L4.894 6.4667Z" fill="#724539"/>
<path d="M10.2027 3.23334L9.53914 2.40428L9.1244 3.48206L10.2027 3.23334ZM10.1198 3.89659L10.4516 3.81369L10.2857 3.48206L10.1198 3.89659ZM8.9585 5.22309L9.6221 4.80856L8.9585 4.47694V5.22309ZM10.2857 4.47694L9.87094 4.39403L10.0368 4.89147L10.2857 4.47694ZM10.6175 5.80343V5.3889L10.1198 5.55472L10.6175 5.80343ZM7.96311 7.21284V6.71541L7.46541 6.96412L7.96311 7.21284ZM9.20735 6.21797L8.87555 6.05215L8.79261 6.46668L9.20735 6.21797ZM7.46541 3.06753L6.47003 3.64787L7.46541 4.39403V3.06753ZM5.88938 6.96412L5.55758 6.6325L5.39168 7.04703L5.88938 6.96412ZM8.54376 5.96925L8.12901 5.47181L7.88016 6.21797L8.54376 5.96925ZM7.46541 2.81881L7.71426 3.81369L8.4608 3.15043L7.46541 2.81881ZM8.29491 2.48718L8.6267 3.15043L8.9585 2.653L8.29491 2.48718ZM9.37325 3.48206L9.6221 4.22822L10.0368 3.56497L9.37325 3.48206ZM5.64053 5.88634L6.55297 5.96925L6.22117 4.97437L5.64053 5.88634ZM6.05528 7.04703L6.22117 7.46156L6.55297 7.21284L6.05528 7.04703ZM8.04606 3.73078L8.21195 4.31112L8.9585 3.89659L8.04606 3.73078Z" fill="#724539"/>
<path d="M5.3917 4.89146L6.63593 4.97436L6.13823 3.73077L5.3917 4.89146ZM6.30414 3.31624L7.29953 3.39915L6.96772 2.23846L6.30414 3.31624ZM9.04145 3.06752L8.37787 3.39915L9.04145 3.97949V3.06752ZM8.70966 4.72565L8.29491 4.47693V5.14018L8.70966 4.72565ZM5.80644 6.46668L6.38708 6.7154V6.05214L5.80644 6.46668ZM5.30874 3.81368L5.2258 4.1453L5.80644 4.0624L5.30874 3.81368ZM4.81106 3.64786V4.39402L5.2258 4.0624L4.81106 3.64786ZM5.97234 6.05214L5.30874 5.96924L5.55759 6.54958L5.97234 6.05214ZM7.21657 4.64274L6.71889 4.72565L7.05068 5.14018L7.21657 4.64274ZM5.0599 3.39915L4.894 2.57008L4.56221 2.90171L4.39631 3.31624L5.0599 3.39915Z" fill="#724539"/>
<path d="M5.8894 4.31114L5.05991 4.14532V4.72567L5.8894 4.31114ZM5.22581 3.73079L4.39632 3.31626L4.23042 3.73079L4.14747 4.14532L5.22581 3.73079ZM4.894 4.47695L4.14747 4.22823L4.23042 4.97439L4.894 4.47695ZM7.13364 2.90173L7.71428 2.81882L7.46543 2.32138L7.13364 2.90173ZM6.2212 3.15045L5.3917 3.06754L5.64055 3.97951L6.2212 3.15045Z" fill="#724539"/>
<path d="M4.894 2.48719L5.3917 3.15044L5.47465 2.48719H4.894ZM8.04607 1.90684L7.05068 2.23847L7.79722 2.5701L8.04607 1.90684ZM5.47465 7.29575L5.80644 7.46156L5.8894 7.12994L5.47465 7.29575ZM7.96313 4.64275H7.21658L7.71428 5.47182L7.96313 4.64275Z" fill="#724539"/>
<path d="M6.63588 4.39404L7.13358 4.47695L6.96767 3.97951L6.63588 4.39404ZM6.38703 1.49232L7.21652 2.4872L7.46537 1.32651H6.88473L6.38703 1.49232ZM6.63588 4.97439L6.71883 5.80345L7.46537 5.22311L6.63588 4.97439ZM5.05985 2.32139L5.80639 2.81883L6.30409 1.57523L5.64049 1.82395L5.05985 2.32139Z" fill="#724539"/>
<path d="M4.56225 5.88635L5.05995 5.05728H4.23046L4.3134 5.47182L4.56225 5.88635ZM7.38251 5.88635H6.88483L7.13368 6.46669L7.38251 5.88635ZM7.05072 6.6325L6.63598 6.71541L6.80187 7.12994L7.05072 6.6325ZM5.47469 2.73591L6.63598 3.31625L6.55302 1.90684L5.47469 2.73591Z" fill="#724539"/>
<path d="M4.56225 5.96925L4.89405 6.46669L5.30879 5.80344L4.56225 5.96925ZM5.1429 4.97437L4.977 5.47181H5.6406L5.1429 4.97437ZM4.4793 4.64275L4.8111 5.05728L5.1429 4.47694L4.4793 4.64275ZM7.96318 4.06241H7.54843L7.79727 4.39403L7.96318 4.06241ZM14.765 17.4932L16.0922 18.4052L15.6774 16.7471L14.765 17.4932ZM17.8341 16.4983L18 17.5761L18.9954 16.9129L17.8341 16.4983ZM19.5761 15.6693L19.742 16.5812L20.4885 16.0838L19.5761 15.6693ZM18.6636 18.2394L18.3318 17.9078L18.083 18.3223L18.6636 18.2394ZM18.9125 19.1513L18.4977 18.4881L18.3318 19.2343L18.9125 19.1513ZM20.8203 17.3274L20.9862 17.5761L21.235 17.3274H20.8203ZM20.1567 19.0684L19.8249 19.2343L20.1567 19.4001V19.0684ZM18.5807 20.312L18.3318 20.5607L18.7466 20.6437L18.5807 20.312ZM20.1567 20.312L19.9079 20.5607L20.3226 20.6437L20.1567 20.312ZM19.8249 14.3428L20.7373 15.006L20.8203 13.8453L19.8249 14.3428ZM14.1844 19.7317L13.5208 19.3172L13.6037 20.312L14.1844 19.7317ZM13.7696 20.5607L13.106 20.1462L13.189 21.1411L13.7696 20.5607Z" fill="#724539"/>
<path d="M20.4056 17.3274L20.0737 17.7419L20.7373 17.9907L20.4056 17.3274ZM16.9217 16.3325L16.5899 16.7471L17.2535 16.9958L16.9217 16.3325ZM21.0691 13.8453L20.6544 14.2599L21.318 14.5086L21.0691 13.8453ZM20.9862 16.4983L20.8203 16.9958L21.5668 16.83L20.9862 16.4983Z" fill="#724539"/>
<path d="M19.3272 15.5035L18.8295 16.0838L19.576 16.4154L19.3272 15.5035ZM17.4193 16.6642L16.258 17.4932L17.3364 18.0736L17.4193 16.6642ZM14.3502 20.1462L14.1843 20.7266L14.7649 20.6437L14.3502 20.1462ZM19.2442 17.1616L18.4147 16.9958L18.5806 18.0736L19.2442 17.1616Z" fill="#724539"/>
<path d="M15.7603 18.8197L16.3409 19.483L16.6728 18.571L15.7603 18.8197ZM20.2396 14.9231L19.6589 15.5864L20.4055 15.8351L20.2396 14.9231ZM18.4147 16.6642L18.5806 15.918L17.7511 16.0838L18.4147 16.6642ZM18.9953 15.918L18.8294 14.8402L17.834 15.5035L18.9953 15.918ZM20.4884 16.83L20.0737 16.6642V17.1616L20.4884 16.83ZM19.576 16.6642L19.1612 17.1616L19.9907 17.3274L19.576 16.6642ZM21.3179 15.6693L21.4009 14.7573L20.4055 15.1719L21.3179 15.6693ZM18.2488 17.8249L17.4193 17.4932L17.2534 18.4881L18.2488 17.8249ZM14.1843 19.1514L15.0967 19.7317L15.4285 18.8197L14.1843 19.1514ZM16.5898 16.1667L15.7603 16.7471L16.9216 17.3274L16.5898 16.1667ZM14.7649 17.4932L13.8525 18.2394L14.8479 18.6539L14.7649 17.4932Z" fill="#724539"/>
<path d="M13.9355 18.1565L13.2719 18.8197L14.1843 19.1513L13.9355 18.1565ZM13.023 18.9855L12.3594 19.6488L13.1889 19.9804L13.023 18.9855ZM17.4193 18.6539H16.8387L17.0046 19.4001L17.4193 18.6539ZM14.3502 21.1411H13.6866L13.9355 21.8872L14.3502 21.1411ZM17.7511 19.4001L17.3364 19.3172L17.5023 19.8146L17.7511 19.4001ZM18.8295 14.8402L19.659 15.4206L19.8248 14.3428L18.8295 14.8402ZM16.7557 16.0838L17.8341 16.83L17.7511 15.4206L16.7557 16.0838ZM20.3226 18.9026L20.7373 19.1513L20.9032 18.571L20.3226 18.9026ZM21.3179 16.0009L20.8203 15.5864L20.9032 16.3325L21.3179 16.0009ZM22.6451 14.3428L22.5622 15.1718L23.4746 14.8402L22.6451 14.3428ZM23.0599 13.0163L23.8064 13.8453L24.0553 12.6847L23.0599 13.0163ZM22.3963 14.0941L21.8156 14.5915L22.4792 15.006L22.3963 14.0941ZM23.3087 13.6795L22.6451 14.177L23.3917 14.5915L23.3087 13.6795ZM21.9815 14.4257V13.4308L20.8203 13.8453L21.9815 14.4257Z" fill="#724539"/>
<path d="M22.4793 16.0009L22.6452 15.2548L21.7327 15.5035L22.4793 16.0009ZM21.9816 13.4308L22.7281 14.0941L22.977 13.0163L21.9816 13.4308ZM24.3042 14.9231L23.8065 14.4257L23.8894 15.1719L24.3042 14.9231ZM18.8295 20.2291L19.1613 20.4779L19.2442 19.9804L18.8295 20.2291ZM19.3272 17.659L19.0784 18.3223L19.8249 18.2394L19.3272 17.659ZM15.7604 18.6539L15.6774 17.7419L14.8479 18.571L15.7604 18.6539ZM16.5899 17.9078L16.1751 18.3223L16.8387 18.4881L16.5899 17.9078ZM16.7558 21.6385L17.0046 21.8873L17.1705 21.4727L16.7558 21.6385ZM15.5115 19.5659L15.7604 19.7317L15.9263 19.3172L15.5115 19.5659ZM19.0784 18.9855L19.659 19.4001L19.7419 18.571L19.0784 18.9855ZM12.8572 19.3172L13.4378 19.6488L13.5208 18.9026L12.8572 19.3172ZM10.7834 21.8873L11.3641 22.2189L11.53 21.4727L10.7834 21.8873ZM17.6682 19.9804L17.5023 20.3949H18L17.6682 19.9804ZM6.13826 5.05729L5.22583 4.72566L5.39172 5.80344L6.13826 5.05729ZM7.29956 7.37866L6.88481 7.46157L7.13366 7.7932L7.29956 7.37866ZM7.46546 8.12482L7.13366 8.29063L7.29956 8.53935L7.46546 8.12482ZM9.70508 6.79832L9.45623 6.96413L9.62214 7.21285L9.70508 6.79832ZM10.7834 9.70004L10.4516 9.78294L10.7005 10.0317L10.7834 9.70004ZM8.46084 7.62738L8.21199 7.71029L8.46084 7.95901V7.62738ZM9.62214 8.04191L9.37329 8.20773L9.53919 8.37354L9.62214 8.04191ZM15.1797 20.1462L15.4286 20.4779L15.6774 19.9804L15.1797 20.1462ZM11.53 20.4779L13.0231 21.1411L12.2765 19.6488L11.53 20.4779ZM11.2811 22.7163L10.5346 22.4676L10.7834 23.4625L11.2811 22.7163ZM11.53 23.1309L11.447 23.7941L11.9447 23.6283L11.53 23.1309Z" fill="#724539"/>
<path d="M12.6912 21.6385L13.4377 22.2189L13.6036 21.224L12.6912 21.6385ZM11.1981 22.136L12.1935 22.6334L12.3594 21.7214L11.1981 22.136ZM11.5299 20.4779L10.7834 21.3069L11.6958 21.5556L11.5299 20.4779Z" fill="#724539"/>
<path d="M10.7834 21.3069L10.2028 21.9702L11.1152 22.2189L10.7834 21.3069ZM9.95393 22.2189L9.45623 22.965L10.3687 23.1309L9.95393 22.2189ZM9.37329 23.048L8.95854 23.5454L9.62214 23.7112L9.37329 23.048ZM12.6913 21.3898L12.4424 20.5608L11.7788 21.4727L12.6913 21.3898ZM12.2765 23.048L12.6083 23.2967L12.7742 22.7163L12.2765 23.048ZM7.8802 5.80345L7.63135 5.55474L7.3825 5.88636L7.8802 5.80345ZM9.53919 5.80345L9.70508 5.38892L9.29033 5.30602L9.53919 5.80345ZM11.0323 7.29577L10.7834 7.21286V7.54449L11.0323 7.29577ZM10.5346 6.3838L10.2857 6.30089V6.63252L10.5346 6.3838ZM10.9493 4.80858L10.6175 4.64277V5.0573L10.9493 4.80858ZM3.81569 6.3838L2.82029 6.30089L3.31799 7.37867L3.81569 6.3838ZM2.73735 6.30089L2.1567 6.3838L1.57605 6.63252L2.73735 7.46158V6.30089ZM4.47927 9.36842L4.56223 9.78295L4.97697 9.53423L4.47927 9.36842ZM2.57145 12.2701L3.06914 12.436L2.9862 11.9385L2.57145 12.2701ZM4.97697 6.71542L3.98158 6.3838L4.14748 7.54449L4.97697 6.71542ZM5.14287 7.37867L5.39172 7.12996L5.05993 6.96414L5.14287 7.37867Z" fill="#724539"/>
<path d="M4.81102 8.95389L5.05987 8.20773L4.31332 8.29064L4.81102 8.95389ZM5.55756 7.7932L5.22577 7.95901L5.64051 8.29064L5.55756 7.7932ZM6.6359 8.70517L6.38705 8.37354L6.1382 8.78808L6.6359 8.70517ZM5.47462 11.0265L5.14281 10.612L4.97692 11.1094L5.47462 11.0265ZM5.80641 9.53423H5.39166L5.64051 9.94876L5.80641 9.53423ZM2.48844 8.20773L1.99074 9.20261L3.23498 9.28551L2.48844 8.20773ZM3.64973 12.1043L3.23498 11.9385L3.31793 12.5189L3.64973 12.1043ZM5.14281 9.70004L4.47922 9.61714L4.72807 10.2804L5.14281 9.70004Z" fill="#724539"/>
<path d="M2.3226 8.04191L3.06914 8.62226L3.40095 7.71029L2.3226 8.04191ZM3.31799 6.88122L3.48389 7.54448L3.89864 6.88122H3.31799ZM4.31338 7.46157L4.89403 7.95901V7.21285L4.31338 7.46157ZM2.82029 11.3582L3.56684 10.8607L2.73735 10.2804L2.82029 11.3582ZM3.89864 12.0214L4.23044 12.2701L4.31338 11.8556L3.89864 12.0214ZM3.31799 8.37354L3.81569 8.78807L4.23044 8.04191L3.31799 8.37354ZM1.9908 10.6949L3.06914 10.0317L1.90785 9.36841L1.9908 10.6949ZM1.659 9.03679L2.4885 8.53935L1.57605 7.7932L1.659 9.03679Z" fill="#724539"/>
<path d="M3.81566 7.29576L3.40091 7.95902L4.31335 8.04192L3.81566 7.29576ZM4.3963 8.87098H3.8986L4.31335 9.45133L4.3963 8.87098ZM3.31796 11.7727L3.8986 11.6069L3.48385 11.1095L3.31796 11.7727ZM1.24422 9.86586L1.41011 10.1975L1.74192 9.86586H1.24422Z" fill="#724539"/>
<path d="M0.829494 10.1146L1.24424 10.6949L1.41014 10.1146H0.829494ZM3.23502 11.2753L2.57144 11.6898L3.15208 11.9385L3.23502 11.2753ZM3.23502 9.36842L2.90323 9.78295L3.40093 9.94876L3.23502 9.36842ZM0.829494 9.61714L0 9.20261L0.165896 10.0317L0.829494 9.61714Z" fill="#724539"/>
<path d="M2.07369 10.0316L1.32715 10.3633L1.65895 10.7778L2.07369 10.0316ZM1.16124 9.86583L0.165853 10.1146L0.414704 10.612L0.663556 10.9436L1.16124 9.86583Z" fill="#724539"/>
<path d="M1.41013 10.6949L0.580641 10.9436L1.16128 11.524L1.41013 10.6949ZM2.15668 8.20773L2.57143 7.8761L1.99077 7.54448L2.15668 8.20773ZM1.49309 8.78808L0.829491 9.28551L1.57603 9.78295L1.49309 8.78808ZM0 9.1197L0.829491 9.45132L0.4977 8.87098L0 9.1197Z" fill="#724539"/>
<path d="M2.32264 6.88122L1.65904 7.71029L2.48853 7.54448L2.32264 6.88122ZM3.56688 12.6018L3.98163 12.5189L3.73277 12.1872L3.56688 12.6018ZM3.89867 8.95388L3.23507 9.36841L4.14752 9.78294L3.89867 8.95388ZM2.32264 9.61713L2.73738 9.36841L2.32264 9.11969V9.61713Z" fill="#724539"/>
<path d="M0.746573 7.46156L1.90787 7.87609L1.49312 6.7154L0.995424 7.04703L0.746573 7.46156ZM3.06916 10.0317L3.6498 10.612L3.89865 9.70003L3.06916 10.0317ZM0.0829895 8.87096L0.912482 8.95387L0.663632 7.54447L0.331827 8.12481L0.0829895 8.87096ZM1.99081 12.0214L1.90787 11.0265L1.24427 11.6069L1.49312 11.8556L1.99081 12.0214Z" fill="#724539"/>
<path d="M4.23036 10.3633L3.81561 10.612L4.3133 10.9436L4.23036 10.3633ZM4.39626 11.1094L4.06445 11.4411L4.4792 11.6898L4.39626 11.1094ZM0.66354 9.03679L1.90778 8.87097L1.07829 7.71028L0.66354 9.03679ZM1.99072 12.1043L2.48842 12.353L2.57137 11.6069L1.99072 12.1043ZM1.82482 10.9436L2.07367 11.524L2.57137 11.0265L1.82482 10.9436ZM1.07829 11.1094L1.65893 11.2753L1.57597 10.5291L1.07829 11.1094ZM3.48381 8.70516L3.15202 8.95388L3.48381 9.11969V8.70516ZM3.15202 7.12994L2.82021 7.37866L3.15202 7.62738V7.12994Z" fill="#724539"/>
<path d="M2.65435 10.4462L1.82486 10.6949L2.65435 11.4411V10.4462ZM5.05988 11.6069L4.81103 11.9385L5.14282 12.0214L5.05988 11.6069ZM5.64052 12.1043L5.47463 12.353L5.80642 12.4359L5.64052 12.1043ZM6.38706 10.0317L6.30412 10.2804L6.63591 10.4462L6.38706 10.0317ZM6.47001 12.0214L6.30412 12.2701H6.63591L6.47001 12.0214ZM5.88937 11.3582L5.80642 11.6069H6.13821L5.88937 11.3582ZM7.05065 11.1094L6.88476 11.3582L7.13361 11.4411L7.05065 11.1094ZM4.47923 10.0317L4.14744 9.86584L4.06448 10.2804L4.47923 10.0317ZM5.72346 9.2855L5.64052 8.87096L5.22578 9.11968L5.72346 9.2855ZM2.4055 12.1872L1.49307 12.6017L2.4055 13.3479V12.1872ZM1.32718 12.6847L0.912431 13.0163L0.497686 13.5137L1.90782 13.6795L1.32718 12.6847ZM4.39629 14.5086L4.64514 14.8402L4.89397 14.5086H4.39629ZM3.81565 16.9958L4.39629 16.9129L3.98154 16.4983L3.81565 16.9958ZM3.5668 11.9385L2.48846 12.1872L3.23499 13.0163L3.5668 11.9385ZM3.98154 12.5188L4.14744 12.1043H3.73269L3.98154 12.5188ZM4.39629 14.0112V13.265L3.73269 13.6795L4.39629 14.0112Z" fill="#724539"/>
<path d="M4.64517 12.6017L4.39632 12.9334L4.89401 13.0992L4.64517 12.6017ZM5.64056 14.0941L5.30875 14.2599L5.7235 14.5086L5.64056 14.0941ZM2.07374 15.1718L2.73734 15.3377L2.57144 14.5915L2.07374 15.1718ZM4.81107 16.4154L4.31337 16.5813L4.72811 16.9129L4.81107 16.4154ZM1.82489 14.3428L2.82028 14.5915L2.65438 13.5966L1.82489 14.3428ZM2.23964 12.9334L2.65438 13.4308L2.73734 12.6017L2.23964 12.9334ZM3.31798 12.9334L4.14747 13.0992L3.73272 12.4359L3.31798 12.9334ZM3.56683 16.4154L3.81568 15.918L3.15208 15.8351L3.56683 16.4154ZM4.23042 17.7419L4.64517 17.5761L4.31337 17.2445L4.23042 17.7419ZM2.90323 14.177L3.48387 14.3428V13.5137L2.90323 14.177Z" fill="#724539"/>
<path d="M0.995372 15.2548L1.99076 15.5035L1.82487 14.3428L0.995372 15.2548ZM2.82026 13.0163L2.73732 13.7625L3.56681 13.5137L2.82026 13.0163ZM4.0645 14.0941L3.64975 14.3428L4.23041 14.6744L4.0645 14.0941ZM4.14746 16.2496L4.5622 15.8351L3.8986 15.5035L4.14746 16.2496ZM1.90782 16.4984L2.23961 16.7471L2.32257 16.2496L1.90782 16.4984Z" fill="#724539"/>
<path d="M1.65901 16.9129L2.32261 17.2445L2.15671 16.6642L1.65901 16.9129ZM3.31799 16.2496L2.9862 16.83H3.64978L3.31799 16.2496ZM3.48389 15.0889L3.31799 15.5864L3.81569 15.5035L3.48389 15.0889ZM1.41016 16.5812L0.580676 16.4983L0.746571 16.9129L0.99542 17.2445L1.41016 16.5812Z" fill="#724539"/>
<path d="M2.73735 16.2496L2.23965 16.9129L2.82029 17.0787L2.73735 16.2496ZM1.74196 16.5812L1.07836 17.3274L1.49311 17.659L1.90786 17.8248L1.74196 16.5812Z" fill="#724539"/>
<path d="M2.4055 17.1616L1.90782 17.8248L2.7373 17.9907L2.4055 17.1616ZM1.82486 14.5915L1.99076 14.0941H1.41012L1.82486 14.5915ZM1.65897 15.4206L1.24422 16.1667L2.15666 16.2496L1.65897 15.4206ZM0.497686 16.4154L1.32718 16.3325L0.746523 15.918L0.497686 16.4154Z" fill="#724539"/>
<path d="M1.32713 13.3479L1.16123 14.4257L1.74188 13.9283L1.32713 13.3479ZM4.64511 16.3325L4.9769 16.1667L4.56215 15.918L4.64511 16.3325Z" fill="#724539"/>
<path d="M3.06907 15.4206L3.31792 15.006H2.90317L3.06907 15.4206ZM0.165853 14.5915L1.41009 14.4257L0.497657 13.5966L0.248808 14.177L0.165853 14.5915ZM0.414703 16.2496L1.16124 15.8351L0.165853 14.8402L0.248808 15.5035L0.414703 16.2496ZM3.64971 17.9907L2.98613 17.1616L2.73728 17.9907H3.64971Z" fill="#724539"/>
<path d="M3.89859 14.7573L3.7327 15.1718H4.31334L3.89859 14.7573ZM2.73731 15.5864L2.57141 16.0009H3.15206L2.73731 15.5864ZM5.05989 15.006L4.97693 15.3377L5.47463 15.4206L5.05989 15.006ZM1.32718 15.8351L1.57601 14.8402L0.497686 15.1718L1.32718 15.8351ZM3.64974 17.9907L4.2304 17.7419L3.7327 17.1616L3.64974 17.9907ZM2.98616 17.1616L3.40091 17.4932L3.64974 16.83L2.98616 17.1616ZM2.40551 17.659L2.98616 17.4932L2.48846 16.9958L2.40551 17.659ZM3.15206 14.4257L2.98616 14.8402H3.40091L3.15206 14.4257ZM2.15667 13.1821L1.99076 13.5966H2.40551L2.15667 13.1821ZM6.47002 15.0889L6.38707 15.5035L6.80181 15.4206L6.47002 15.0889ZM6.05528 14.3428V14.6744L6.38707 14.5915L6.05528 14.3428ZM5.64053 12.9334V13.265L5.97232 13.1821L5.64053 12.9334ZM8.2949 12.1043V12.4359L8.54375 12.353L8.2949 12.1043ZM8.4608 9.20259V9.53421L8.70965 9.45131L8.4608 9.20259ZM6.88477 14.177V14.4257L7.13362 14.2599L6.88477 14.177ZM6.71887 13.0163V13.265L7.05066 13.1821L6.71887 13.0163ZM4.81104 15.006L4.47923 15.0889L4.64514 15.5035L4.81104 15.006ZM5.39168 13.9282L5.22578 13.5137L4.89398 13.9282H5.39168ZM11.2811 2.57009L10.3686 1.82393L10.1198 2.81881L11.2811 2.57009ZM11.5299 2.07265L11.1152 0.746152L10.7004 1.24359L10.3686 1.74103L11.5299 2.07265ZM12.8571 4.80856L13.1889 4.47693L12.7741 4.31112L12.8571 4.80856ZM14.682 3.56496L15.0967 3.89659L15.1797 3.31624L14.682 3.56496ZM11.1152 3.48206L10.1198 2.90171V3.97949L11.1152 3.48206ZM11.8617 3.81368L11.5299 4.55984L12.2765 4.47693L11.8617 3.81368Z" fill="#724539"/>
<path d="M11.447 5.0573L11.2811 4.55986L11.0323 4.89148L11.447 5.0573ZM13.023 5.63764L12.6912 5.22311L12.6083 5.63764H13.023ZM12.5253 2.57011H13.2719L13.023 1.90685L12.5253 2.57011ZM15.2626 4.14532L14.765 3.89661V4.39404L15.2626 4.14532ZM11.6129 2.73592H12.5253L12.1935 1.82395L11.6129 2.73592ZM10.6175 2.98464L11.364 2.81882L10.7834 2.4872L10.6175 2.98464ZM10.6175 4.06242L11.364 4.31114L11.1152 3.56498L10.6175 4.06242ZM13.9355 2.90173L14.0184 3.48207L14.5161 3.15045L13.9355 2.90173ZM15.6774 3.73079L16.0921 3.97951V3.56498L15.6774 3.73079ZM11.6959 3.64789L12.4424 3.48207L12.1935 2.90173L11.6959 3.64789Z" fill="#724539"/>
<path d="M12.1106 1.82394H13.2718L12.94 0.911974L12.1106 1.82394ZM11.6958 3.73079L11.7787 2.90172L11.0322 3.06754L11.6958 3.73079ZM12.94 4.14532L12.5253 3.64788L12.3594 4.14532H12.94ZM13.6866 3.73079L14.1013 4.22822L14.4331 3.73079H13.6866ZM14.1013 1.98976L14.599 1.82394L14.3502 1.49232L14.1013 1.98976Z" fill="#724539"/>
<path d="M14.5161 1.74104L15.0968 1.82395L14.682 1.1607L14.5161 1.74104ZM14.9309 3.15045L14.8479 2.4872L14.3502 2.90173L14.9309 3.15045ZM13.6866 3.64789V3.06754L13.1889 3.31626L13.6866 3.64789ZM14.9309 0.497448L14.1014 0.165822L14.3502 0.994885L14.9309 0.497448Z" fill="#724539"/>
<path d="M15.0138 2.23846L14.7649 1.74102L14.1843 2.32136L15.0138 2.23846ZM15.5944 1.24358L15.3456 0.911957L15.0138 0.58033L14.4331 1.40939L15.5944 1.24358ZM16.0092 1.98974L15.6774 1.24358L15.0967 1.90683L16.0092 1.98974ZM11.8617 1.40939L11.9447 1.98974L12.4424 1.74102L11.8617 1.40939Z" fill="#724539"/>
<path d="M14.1014 1.82395L13.8525 0.994885L13.1889 1.40942L14.1014 1.82395ZM13.6037 0.497448L14.0184 0.994885V0.165822L13.6037 0.497448ZM11.6959 1.82395L12.1106 1.1607L11.1152 1.49232L11.6959 1.82395ZM14.2673 4.22823L14.5161 4.55985L14.5991 4.22823H14.2673Z" fill="#724539"/>
<path d="M13.0231 2.73591L13.106 3.23335L13.4378 2.81881L13.0231 2.73591ZM11.6129 0.248718L11.1982 0.580344L12.1106 1.40941V0.0829082L11.6129 0.248718ZM13.0231 0L12.2765 0.0829082L13.4378 0.911971L13.6867 0.0829082L13.0231 0ZM16.0922 2.40428L16.0093 1.98975L15.2627 2.48719L16.1752 2.90172L16.0922 2.40428ZM13.4378 4.14531L13.3549 3.56497L12.9401 3.81369L13.4378 4.14531ZM14.0185 2.81881L13.9355 2.23847L13.5208 2.48719L14.0185 2.81881ZM13.8526 5.22309L13.7696 4.72566L13.3549 4.89147L13.8526 5.22309ZM12.4424 0.497439V1.16069L13.189 0.829063L12.4424 0.497439Z" fill="#724539"/>
<path d="M15.4286 3.23336L16.1751 3.48207V2.90173L15.4286 3.23336ZM15.0968 3.15045L15.6774 2.81882L15.2627 2.4872L15.0968 3.15045ZM14.8479 2.07267L15.5115 2.40429V1.82395L14.8479 2.07267ZM12.9401 3.31626L12.8571 2.90173L12.5253 3.15045L12.9401 3.31626ZM11.5299 2.4872L11.447 2.07267L11.1152 2.32139L11.5299 2.4872ZM15.1797 5.2231V4.80857L14.765 4.97439L15.1797 5.2231ZM14.8479 6.4667L14.9309 6.05217L14.5161 6.21798L14.8479 6.4667ZM13.6866 5.72054V5.38892L13.3548 5.47183L13.6866 5.72054ZM13.106 7.54448L13.1889 7.21286L12.7742 7.29576L13.106 7.54448ZM11.7788 6.13508V5.80345L11.5299 5.88636L11.7788 6.13508ZM15.4286 4.64276L15.5115 4.31114L15.2627 4.39404L15.4286 4.64276ZM11.9447 7.12995L12.0276 6.88123L11.6959 6.96414L11.9447 7.12995ZM13.7696 4.39404L13.3548 4.31114V4.64276L13.7696 4.39404ZM12.3594 4.97439L12.0276 5.30601L12.4424 5.47183L12.3594 4.97439ZM15.5115 5.30601L15.3456 5.05729L15.0968 5.38892L15.5115 5.30601ZM17.3364 3.64789L17.1705 2.4872L16.4239 2.81882L17.3364 3.64789Z" fill="#724539"/>
<path d="M17.7511 3.48205L18.4147 2.23846L17.7511 2.32136L17.2534 2.48718L17.7511 3.48205ZM17.0046 6.63249L17.4193 6.54958L17.2534 6.13505L17.0046 6.63249ZM19.1613 6.7983L19.3272 7.29574L19.7419 6.88121L19.1613 6.7983ZM16.6728 3.48205L16.424 2.90171L16.0921 3.31624L16.6728 3.48205ZM16.8387 5.22308L16.1751 5.55471L16.7557 5.96924L16.8387 5.22308ZM15.7604 5.88633L15.9263 5.38889L15.5115 5.4718L15.7604 5.88633ZM16.5898 7.37865V6.88121L16.2581 7.04702L16.5898 7.37865ZM18.1659 4.64274L18.8295 5.14018L18.9954 4.47693L18.1659 4.64274ZM19.2442 7.62736L19.0783 7.12993L18.7465 7.46155L19.2442 7.62736ZM17.3364 4.22821L18.0829 4.80855L18.3318 3.89658L17.3364 4.22821ZM16.424 3.81368L17.1705 4.1453L16.9216 3.48205L16.424 3.81368ZM15.7604 4.64274L16.1751 5.22308L16.424 4.55983L15.7604 4.64274Z" fill="#724539"/>
<path d="M15.8433 3.73077L16.2581 4.39402L16.5069 3.64787L15.8433 3.73077ZM18.9954 5.80343L18.7466 6.38377H19.3272L18.9954 5.80343ZM19.9078 7.12993L20.0737 7.54446L20.4055 7.21284L19.9078 7.12993ZM16.8387 4.97437L17.5023 5.30599L17.6682 4.72565L16.8387 4.97437ZM18.3318 3.89658L19.2442 4.55983L19.576 3.64787L18.3318 3.89658ZM16.7558 4.97437L17.4194 4.39402L16.7558 4.0624V4.97437ZM17.5023 6.13505V5.47181L17.0046 5.72052L17.5023 6.13505ZM18.3318 6.30087V6.96412L18.9125 6.7983L18.3318 6.30087ZM19.7419 5.30599L20.2396 5.3889V4.97437L19.7419 5.30599Z" fill="#724539"/>
<path d="M20.2395 5.306L20.6543 5.72053L20.7372 4.97437L20.2395 5.306ZM19.6589 6.6325L19.9907 6.13506H19.3271L19.6589 6.6325ZM18.4147 6.21797L18.7465 5.80344L18.2488 5.63762L18.4147 6.21797ZM21.3179 4.55984L21.2349 4.22822L20.9861 3.81369L20.5714 4.55984H21.3179Z" fill="#724539"/>
<path d="M20.3226 6.05216L20.4055 5.47182L19.576 5.55472L20.3226 6.05216ZM21.4009 5.55472V5.2231L21.3179 4.72566L20.4055 4.97438L21.4009 5.55472ZM21.235 6.46669L21.4009 5.72054L20.5714 5.80344L21.235 6.46669ZM18.4147 3.31625L18.0829 3.8966L18.6636 3.9795L18.4147 3.31625Z" fill="#724539"/>
<path d="M19.9078 5.1402L20.2396 4.31114L19.4101 4.22823L19.9078 5.1402ZM20.3225 3.7308L20.4055 4.39404L20.8202 3.7308H20.3225ZM17.9999 3.56498L18.7465 3.31626L17.7511 2.98464L17.9999 3.56498ZM18.4147 7.04705V7.46158L18.7465 7.29576L18.4147 7.04705Z" fill="#724539"/>
<path d="M18.4147 5.14018L18.2488 5.55471L18.7465 5.4718L18.4147 5.14018ZM19.0783 2.32136L18.4977 2.23846L18.7465 3.48205L19.4931 2.48718L19.0783 2.32136ZM20.3226 2.98461L19.659 2.48718L20.0737 3.89658L20.7373 3.39915L20.3226 2.98461ZM17.8341 6.46668L18.1659 5.96924L17.6682 5.88633L17.8341 6.46668ZM19.1613 5.80343L19.4931 5.30599L18.9954 5.22308L19.1613 5.80343ZM17.5023 7.54446L17.7511 7.12993L17.3364 7.04702L17.5023 7.54446ZM19.4931 2.98461L18.9954 3.48205L19.8249 3.73077L19.4931 2.98461ZM20.7373 6.46668L20.9862 6.96412L21.1521 6.46668H20.7373ZM19.7419 6.7983L20.4055 6.88121L20.3226 6.30087L19.7419 6.7983ZM20.3226 5.80343L20.5714 6.38377L20.9862 5.96924L20.3226 5.80343ZM18 5.4718L18.2488 5.14018L17.8341 5.05727L18 5.4718ZM17.4193 3.97949L17.6682 3.64786L17.2535 3.56496L17.4193 3.97949ZM18.4977 8.37352L18.7465 8.1248L18.4147 7.95899L18.4977 8.37352ZM16.424 8.78805L16.7558 8.53933L16.341 8.37352L16.424 8.78805ZM17.0046 7.79318L17.2535 7.54446L16.9216 7.46155L17.0046 7.79318ZM15.3456 6.96412L15.5115 6.63249L15.2627 6.54958L15.3456 6.96412Z" fill="#724539"/>
<path d="M19.0783 8.12482L19.3272 7.95901L19.0783 7.7932V8.12482ZM14.765 7.7932L15.0138 7.62738L14.765 7.46157V7.7932ZM18 6.88123L17.7511 6.5496L17.5023 6.79832L18 6.88123ZM16.5069 6.38379H16.0092L16.2581 6.79832L16.5069 6.38379ZM21.235 8.04192L21.0691 6.88123L20.3226 7.21285L21.235 8.04192ZM22.2304 7.21285L22.894 6.5496H22.4793L22.0645 6.46669L22.2304 7.21285Z" fill="#724539"/>
<path d="M20.5714 7.87611L20.3225 7.21286L19.9078 7.7103L20.5714 7.87611ZM21.152 8.53936L21.5668 8.78808L21.6497 8.37355L21.152 8.53936ZM21.235 6.79833L21.6497 7.29577L21.3179 7.7103L21.235 6.79833ZM21.4009 6.63252L21.8156 7.29577L21.8986 6.54961L21.4009 6.63252ZM19.8248 8.20774L20.0737 8.62227L20.2396 8.12483L19.8248 8.20774ZM20.7373 9.28552L21.3179 9.61714L21.4838 9.20261L20.7373 9.28552ZM22.5622 8.29064L22.894 8.53936L22.9769 8.20774L22.5622 8.29064ZM23.6405 9.61714L24.1382 9.78295V9.36842L23.6405 9.61714Z" fill="#724539"/>
<path d="M22.5622 7.62738L22.3134 8.20773L22.8111 8.29063L22.5622 7.62738ZM23.7235 9.45132L24.1383 8.62226H23.3088L23.7235 9.45132ZM24.553 8.29063L23.9724 8.45645L24.553 8.78807V8.29063ZM21.8157 7.71029L22.6452 7.46157L21.9816 7.21285L21.8157 7.71029ZM22.4793 8.78807L22.2304 9.28551L22.7281 9.2026L22.4793 8.78807ZM23.3088 6.79832L22.894 6.63251V7.46157L23.5576 6.96413L23.3088 6.79832ZM24.1383 7.46157L23.7235 7.04704L23.8065 8.12482L24.3871 7.8761L24.1383 7.46157ZM23.3088 7.37867L22.894 7.8761L23.7235 8.12482L23.3088 7.37867ZM21.8986 9.86585L22.0645 9.45132H21.6498L21.8986 9.86585ZM5.05996 20.395L4.23046 20.312L4.39636 20.6437L4.64521 20.9753L5.05996 20.395ZM5.22585 21.3898L5.4747 20.6437L4.81111 21.0582L5.22585 21.3898ZM5.72354 19.0684V18.6539L5.39175 18.8197L5.72354 19.0684ZM5.80649 17.3274L5.55764 16.9129L5.30879 17.1616L5.80649 17.3274ZM5.22585 19.8146L5.80649 19.6488L5.55764 19.2343L5.22585 19.8146ZM5.72354 17.8249L5.1429 18.0736L5.4747 18.4881L5.72354 17.8249ZM4.39636 17.9078L4.89405 18.2394L4.72815 17.5761L4.39636 17.9078ZM5.72354 20.312L5.30879 20.1462V20.5608L5.72354 20.312ZM4.89405 17.659L5.30879 17.4932L4.977 17.1616L4.89405 17.659ZM3.98161 19.9804L4.14751 20.312L4.81111 19.7317L3.98161 19.6488V19.9804ZM3.98161 18.8197V19.4001L4.72815 18.6539L4.14751 18.4052L3.98161 18.8197ZM4.4793 19.483H5.1429L4.81111 18.7368L4.4793 19.483ZM6.22124 16.83L5.80649 16.9129L6.05534 17.2445L6.22124 16.83ZM21.318 8.37354L21.4839 7.95901H21.0691L21.318 8.37354ZM7.88022 9.2026L7.63137 9.28551L7.79727 9.53423L7.88022 9.2026ZM6.88484 9.2026L6.63599 9.36841L6.88484 9.61713V9.2026ZM6.30419 7.71029L5.97239 7.7932L6.22124 8.12482L6.30419 7.71029ZM16.341 19.8975L16.6728 20.312L17.0046 19.9804L16.341 19.8975ZM14.3503 19.7317L14.6821 20.2291L15.0139 19.8146L14.3503 19.7317ZM17.8341 21.8873L17.6682 22.0531L18 22.136L17.8341 21.8873ZM18.7466 21.6385L18.4977 21.7214L18.6636 22.0531L18.7466 21.6385ZM14.5162 21.8044L14.5991 22.136L14.848 21.8044H14.5162ZM15.3457 21.0582L15.5115 21.3898L15.7604 21.0582H15.3457ZM14.5162 21.5556L14.848 21.3069L14.4332 21.0582L14.5162 21.5556ZM15.0139 24.5403L15.3457 24.3745L15.0139 24.0428V24.5403ZM13.7696 22.5505L14.1014 22.7992L14.2673 22.3847L13.7696 22.5505ZM13.189 23.7112L13.6867 23.6283L13.5208 23.1309L13.189 23.7112ZM16.0922 23.4625L16.2581 23.6283L16.424 23.3796L16.0922 23.4625ZM15.7604 22.2189V22.4676L16.0922 22.3847L15.7604 22.2189ZM14.6821 22.6334V22.965L15.0139 22.8821L14.6821 22.6334ZM12.0277 23.9599L11.7788 24.2086L12.1106 24.2915L12.0277 23.9599ZM13.6037 23.877L13.3549 24.1257L13.6867 24.2086L13.6037 23.877ZM12.1936 23.7941L12.6083 24.0428L12.6913 23.5454L12.1936 23.7941ZM10.2028 24.7061L10.4517 24.9548L10.6175 24.5403L10.2028 24.7061ZM11.1152 23.5454L10.9493 23.9599H11.3641L11.1152 23.5454ZM9.20742 24.789L8.54382 24.4574L8.70972 25.4522L9.20742 24.789ZM9.37331 24.0428L9.29036 24.6232L9.78806 24.4574L9.37331 24.0428ZM9.53921 25.2864L9.29036 25.5351L9.7051 25.618L9.53921 25.2864ZM8.29497 25.4522L8.12907 25.8668L8.62676 25.7839L8.29497 25.4522ZM9.78806 23.4625L10.0369 23.9599L10.3687 23.5454L9.78806 23.4625ZM8.79267 23.7112L8.62676 24.2086L9.12446 24.2915L8.79267 23.7112ZM11.1982 25.4522L11.1152 25.7009H11.3641L11.1982 25.4522ZM12.1936 25.2864L11.8618 25.3693L12.1106 25.618L12.1936 25.2864ZM24.0553 16.0009L23.8894 16.2496L24.2212 16.4154L24.0553 16.0009ZM24.553 16.9129L24.3042 17.1616L24.7189 17.2445L24.553 16.9129ZM23.1429 15.3377L23.4747 15.5864L23.6406 15.0889L23.1429 15.3377ZM21.4009 15.0889L21.7327 15.2548L21.8157 14.7573L21.4009 15.0889ZM23.8065 14.0112L24.1383 14.2599L24.2212 13.7624L23.8065 14.0112ZM21.8986 17.8249L22.1475 17.9907L22.3134 17.5761L21.8986 17.8249ZM22.8111 16.0838L22.6452 16.4984H23.1429L22.8111 16.0838ZM21.4839 16.0009L21.8157 16.4154L22.1475 16.0838L21.4839 16.0009ZM22.977 18.4881L22.7281 18.571L22.894 18.8197L22.977 18.4881ZM27.6221 15.0889V15.3377L27.9539 15.2548L27.6221 15.0889ZM28.6175 12.1043L29.0323 13.265L29.6959 12.2701L28.6175 12.1043ZM33.5945 13.5966L33.0968 13.6795L33.4286 14.2599L33.5945 13.5966Z" fill="#724539"/>
<path d="M29.9446 12.353L29.3639 12.5189L29.6957 13.0992L29.9446 12.353ZM33.9261 14.2599L33.5114 14.5915L34.175 14.8402L33.9261 14.2599ZM29.0322 13.9283L29.6128 13.3479L28.5345 13.0163L29.0322 13.9283ZM32.7649 14.4257L32.9308 14.9231L33.3455 14.5086L32.7649 14.4257ZM28.7833 14.2599L28.7004 13.6795L28.2856 14.3428L28.7833 14.2599ZM30.857 13.6795L30.3593 14.3428L31.2718 14.5915L30.857 13.6795ZM32.1013 12.8505L32.2672 13.8454L33.0967 13.265L32.1013 12.8505ZM30.7741 13.3479L30.0275 13.4308L30.3593 14.177L30.7741 13.3479Z" fill="#724539"/>
<path d="M31.7695 13.5137L30.94 13.5966L31.3548 14.3428L31.7695 13.5137ZM30.2764 13.3479L30.8571 12.5188L29.6958 12.2701L30.2764 13.3479ZM29.7787 14.9231L30.3594 14.5086L29.4469 14.0941L29.7787 14.9231ZM27.5391 12.6846L27.8709 13.5137L28.7004 12.6017L27.5391 12.6846Z" fill="#724539"/>
<path d="M30.8571 12.5189L31.023 13.5137L31.9355 12.8505L30.8571 12.5189ZM32.0184 15.2548L31.9355 14.5915L31.5207 15.1719L32.0184 15.2548ZM35.0046 14.5086L34.6728 14.5915L34.9216 14.8402L35.0046 14.5086ZM36 15.3377L35.6682 15.4206L35.917 15.6693L36 15.3377ZM30.6912 14.7573L30.8571 15.1719L31.1889 14.8402L30.6912 14.7573ZM29.447 13.5137L29.6129 13.9283L29.9447 13.5966L29.447 13.5137ZM32.0184 14.177L32.2672 14.5915L32.599 14.2599L32.0184 14.177ZM28.2027 16.0838L28.2857 16.3325L28.7004 16.0838H28.2027ZM29.9447 15.2548L29.6129 15.5035L30.0276 15.7522L29.9447 15.2548ZM28.9493 14.3428V14.9231L29.447 14.7573L28.9493 14.3428ZM24.0553 12.6847L24.8018 13.5137L25.0507 12.353L24.0553 12.6847Z" fill="#724539"/>
<path d="M25.2994 12.5189L24.8847 12.8505L25.4653 13.265L25.2994 12.5189ZM25.1335 14.2599L25.4653 13.4308L24.387 13.5966L25.1335 14.2599ZM25.0506 14.5915L24.7188 14.0941L24.6358 14.8402L25.0506 14.5915ZM26.7096 13.265L26.4607 14.0941L27.4561 13.9283L26.7096 13.265Z" fill="#724539"/>
<path d="M26.5437 13.0163L25.8801 13.3479L26.3778 13.9282L26.5437 13.0163ZM27.5391 12.7676L26.7926 13.1821L27.4562 13.6795L27.5391 12.7676ZM26.046 13.0992L26.212 12.1043L25.0507 12.353L26.046 13.0992ZM26.212 14.8402L26.5437 14.177H25.5484L26.212 14.8402ZM26.2949 12.1043L26.7096 13.0163L27.2903 12.1043H26.2949ZM27.4562 12.0214L27.8709 12.8505L28.5345 12.1043L27.4562 12.0214ZM25.3825 13.6795L25.6313 13.9282L25.8801 13.5137L25.3825 13.6795ZM25.2166 14.5915L25.3825 15.0889L25.7972 14.8402L25.2166 14.5915ZM28.7004 17.2445L28.4516 17.1616V17.4932L28.7004 17.2445ZM24.553 15.918L24.7189 16.0838L24.9677 15.8351L24.553 15.918ZM27.5391 14.7573L27.2903 15.006L27.705 15.0889L27.5391 14.7573ZM26.8755 16.4154L26.7096 16.6641L27.1244 16.7471L26.8755 16.4154ZM27.5391 14.3428L27.9539 14.5086V14.0111L27.5391 14.3428ZM25.5484 16.7471L25.7972 16.9129L25.8801 16.4983L25.5484 16.7471ZM26.212 14.9231L26.129 15.4206L26.6267 15.3376L26.212 14.9231ZM26.7096 17.2445L26.4608 17.4103L26.6267 17.659L26.7096 17.2445Z" fill="#724539"/>
</svg>
