<svg width="23" height="39" viewBox="0 0 23 39" fill="none" xmlns="http://www.w3.org/2000/svg">
<path d="M17.9093 13.1482L18.3539 13.4658L18.4174 12.9576L17.9093 13.1482ZM18.862 10.3534L18.6079 11.0521L19.4335 10.9886L18.862 10.3534ZM7.36698 15.8795L7.11295 16.5782L7.93856 16.5146L7.36698 15.8795ZM3.23895 22.1042L2.98492 22.8029L3.81053 22.7394L3.23895 22.1042ZM8.38311 17.912L8.12908 18.6107L8.95468 18.5472L8.38311 17.912ZM9.14521 13.4023L8.89119 14.101L9.71678 14.0374L9.14521 13.4023ZM11.241 14.1645L10.9869 14.8632L11.8126 14.7997L11.241 14.1645ZM9.33573 12.7671L9.71678 13.3387L10.1613 12.7036L9.33573 12.7671ZM5.71578 20.0716L6.09681 20.5798L6.54138 19.9446L5.71578 20.0716ZM4.76316 22.1677L5.14419 22.8029L5.58875 22.1042L4.76316 22.1677ZM6.03332 24.8355L6.47786 25.4707L6.85892 24.7085L6.03332 24.8355ZM2.34984 23.5651L3.11194 24.6449L3.81053 23.3746L2.34984 23.5651ZM2.22283 26.4234L2.60386 26.9951L3.04843 26.2964L2.22283 26.4234ZM5.39824 26.8046L5.84278 27.3762L6.22384 26.741L5.39824 26.8046ZM4.63094e-05 28.1384L1.07967 28.6466L1.14318 27.3762L4.63094e-05 28.1384ZM14.7339 8.51139L15.1785 9.08305L15.623 8.38435L14.7339 8.51139Z" fill="#562828"/>
<path d="M16.5121 4.06515L16.8932 4.63681L17.3378 3.93811L16.5121 4.06515ZM21.2118 0.127034L21.5928 0.762214L22.0374 0L21.2118 0.127034ZM12.7017 8.25733L11.749 9.52769L13.5273 9.9088L12.7017 8.25733ZM15.4325 5.14495L14.5434 6.3518L16.3216 6.7329L15.4325 5.14495ZM10.4789 11.1792L9.52627 12.513L11.3045 12.8306L10.4789 11.1792ZM6.47786 16.9593L5.52524 18.2297L7.30348 18.6108L6.47786 16.9593ZM3.87403 21.1515L2.98492 22.4218L4.76316 22.8029L3.87403 21.1515ZM1.77827 24.7085L0.889156 26.0424L2.66738 26.3599L1.77827 24.7085ZM14.2259 6.7329L13.9718 7.4316L14.7974 7.36808L14.2259 6.7329ZM11.114 10.9251L10.8599 11.6238L11.622 11.5603L11.114 10.9251ZM8.76416 14.228L8.3196 15.5619L9.9073 15.4349L8.76416 14.228ZM10.8599 13.3388L11.9396 14.228L12.3841 12.7671L10.8599 13.3388ZM10.0978 17.5945L11.1775 18.4837L11.5585 16.9593L10.0978 17.5945ZM13.3367 8.70196L14.4799 9.59121L14.8609 8.06678L13.3367 8.70196ZM18.989 3.11238L19.9416 3.87459L20.2591 2.54072L18.989 3.11238ZM16.1946 8.44789L17.4013 8.32085L16.7662 7.17753L16.1946 8.44789Z" fill="#562828"/>
<path d="M15.5596 11.8143L16.7662 11.7508L16.0676 10.4805L15.5596 11.8143ZM8.70068 20.0081L9.84383 19.9446L9.20875 18.7378L8.70068 20.0081ZM7.81157 24.2638L9.01822 24.1368L8.31962 22.93L7.81157 24.2638ZM7.81157 27.3127L9.01822 27.2492L8.31962 26.0423L7.81157 27.3127ZM3.62003 30.3616L5.14422 31.1238V29.2818L3.62003 30.3616ZM3.23898 26.0423L4.44565 25.9153L3.74705 24.7085L3.23898 26.0423ZM6.41438 21.2785L7.62105 21.1515L6.92246 20.0081L6.41438 21.2785ZM6.41438 23.5651L6.60492 22.3583L5.27124 22.7394L6.41438 23.5651ZM16.8932 4.50977L16.6392 5.20847L17.4648 5.14495L16.8932 4.50977ZM21.5293 13.4658L21.0848 13.4023L21.2753 13.8469L21.5293 13.4658ZM14.7975 11.1792L15.369 11.1156L14.988 10.544L14.7975 11.1792ZM13.0827 7.62215L13.2733 8.06677L13.6543 7.62215H13.0827ZM18.0364 8.32085L17.6553 8.63844L18.1634 8.89251L18.0364 8.32085ZM18.9255 16.9593L19.1795 17.1498L19.243 16.7687L18.9255 16.9593ZM19.6241 15.0537L19.4971 15.2443H19.8146L19.6241 15.0537ZM21.1483 17.1498L20.8942 17.0863L21.0213 17.4039L21.1483 17.1498ZM18.5444 4.70033L18.989 4.9544L19.0525 4.38274L18.5444 4.70033ZM19.6876 1.58795L19.5606 2.03257L20.0686 1.96906L19.6876 1.58795ZM22.2279 4.9544H21.7833L21.9104 5.39902L22.2279 4.9544ZM4.63616 21.215L4.9537 21.6596L5.27124 21.1515L4.63616 21.215ZM6.98597 18.9283L6.66843 19.2459L7.11297 19.4365L6.98597 18.9283ZM7.87508 22.9935L7.49403 22.7394L7.43051 23.2476L7.87508 22.9935ZM8.38314 17.8485L8.8277 18.1661L8.89121 17.5309L8.38314 17.8485ZM4.00108 20.5163L4.38213 20.7704L4.50914 20.1987L4.00108 20.5163ZM8.8277 16.8322L9.20875 17.0863L9.33576 16.5782L8.8277 16.8322ZM9.52629 14.7362L9.39927 15.1808L9.84383 15.1173L9.52629 14.7362ZM8.89121 15.6889L8.76419 16.07H9.20875L8.89121 15.6889ZM12.0031 18.1026H11.6221L11.7491 18.5472L12.0031 18.1026ZM8.25613 16.8322L7.81157 16.7687L8.00208 17.2134L8.25613 16.8322ZM10.3519 24.0098L10.7329 23.6922L10.2884 23.3746L10.3519 24.0098ZM7.87508 21.7866L8.19262 22.1042L8.31962 21.6596L7.87508 21.7866ZM11.8126 20.6433L11.6221 21.0244L12.1301 21.088L11.8126 20.6433ZM8.19262 32.2671L8.70068 31.9495L8.12911 31.6319L8.19262 32.2671ZM6.41438 18.4837L6.79543 18.1661L6.35089 17.9121L6.41438 18.4837ZM10.0344 23.184L10.987 22.4853L9.78032 21.8502L10.0344 23.184ZM11.6221 30.8697L11.495 29.6629L10.3519 30.3616L11.6221 30.8697ZM7.87508 18.2296L8.31962 17.9121L7.81157 17.5945L7.87508 18.2296ZM5.39827 19.1824L5.84281 18.8648L5.33476 18.6107L5.39827 19.1824ZM1.90532 25.3437L2.28636 25.0261L1.7783 24.772L1.90532 25.3437ZM2.98495 23.3746L3.42951 23.057L2.92144 22.8029L2.98495 23.3746Z" fill="#562828"/>
<path d="M13.5273 35.5065L14.0354 35.1889L13.4638 34.8713L13.5273 35.5065ZM18.989 38.3648L19.497 38.0472L18.9255 37.6661L18.989 38.3648ZM5.77929 29.9169L6.09683 30.171L6.22386 29.7264L5.77929 29.9169ZM9.78031 28.7736L9.58978 29.1547H10.0343L9.78031 28.7736ZM8.31962 29.9169L8.1291 30.298H8.57366L8.31962 29.9169ZM7.87507 31.5049L7.68453 31.886L8.19261 31.9495L7.87507 31.5049ZM5.27123 27.8844L5.14421 27.4397L4.69967 27.8208L5.27123 27.8844ZM1.90532 29.0912L2.73091 28.5831L1.77829 27.9479L1.90532 29.0912ZM3.68353 21.9137L4.06459 21.6596L3.62002 21.4055L3.68353 21.9137ZM4.31862 24.3274L4.2551 23.8827L3.87405 24.2003L4.31862 24.3274ZM6.60491 21.7231L6.47788 21.2785L6.09683 21.5961L6.60491 21.7231ZM2.60389 25.4707L2.85794 25.7883L3.04845 25.3437L2.60389 25.4707ZM9.78031 21.4055L10.0343 21.215L9.7168 21.0244L9.78031 21.4055ZM8.19261 20.0717L8.38313 20.1987L8.44664 19.9446L8.19261 20.0717ZM10.7329 19.373L10.6059 19.5635L10.9234 19.627L10.7329 19.373ZM12.8922 16.0065L12.5747 15.943L12.6382 16.3241L12.8922 16.0065ZM12.9557 18.1026L12.8922 17.8485L12.6382 17.9756L12.9557 18.1026ZM10.6694 16.7052L10.9234 16.6417L10.7329 16.3876L10.6694 16.7052ZM16.8297 14.101L16.5122 14.0375L16.5757 14.4186L16.8297 14.101ZM16.8932 16.1971L16.8297 15.943L16.5757 16.07L16.8932 16.1971ZM14.6069 14.7997L14.861 14.7362L14.6704 14.4821L14.6069 14.7997ZM14.3529 10.8616L14.0354 10.7345L14.0989 11.1156L14.3529 10.8616ZM14.4164 12.9577V12.7036L14.1624 12.8306L14.4164 12.9577ZM12.1301 11.5603L12.3841 11.4332L12.1936 11.2427L12.1301 11.5603ZM20.0686 4.70033L19.7511 4.63681L19.8781 5.01792L20.0686 4.70033ZM20.1321 6.7329V6.47883L19.8781 6.60587L20.1321 6.7329ZM17.9093 5.39903L18.1634 5.33551L17.9728 5.08144L17.9093 5.39903ZM18.989 31.2508L18.7349 30.9332L18.5444 31.3143L18.989 31.2508ZM15.242 33.0293L15.4325 32.8388L15.115 32.7117L15.242 33.0293ZM15.1785 29.4723L15.496 29.5993L15.4325 29.2182L15.1785 29.4723ZM15.7501 26.2329L16.0041 26.1694L15.8771 25.9153L15.7501 26.2329ZM17.9728 24.0098L18.0364 24.2638L18.2904 24.0733L17.9728 24.0098ZM17.8458 26.0423L17.6553 25.7248L17.4648 26.1059L17.8458 26.0423ZM14.6069 27.6303L14.7974 27.4397L14.4799 27.3762L14.6069 27.6303ZM14.4799 24.5814L14.7339 24.7085L14.6704 24.3909L14.4799 24.5814ZM17.7188 19.8176L17.5283 19.5L17.3378 19.8176H17.7188ZM14.5434 21.4691L14.6704 21.215L14.3529 21.1515L14.5434 21.4691ZM14.3529 18.3567L14.6069 18.4202V18.1661L14.3529 18.3567ZM13.2733 30.044L13.4638 29.7264L13.0827 29.6629L13.2733 30.044ZM11.8761 25.6612L12.1301 25.7248L12.0666 25.4072L11.8761 25.6612ZM12.5112 22.5489L12.5747 22.8029L12.8287 22.6759L12.5112 22.5489ZM6.79543 26.487V25.9788L6.28737 26.1694L6.79543 26.487ZM3.55651 27.0586L4.00107 26.9316L3.68353 26.5505L3.55651 27.0586ZM5.14421 23.184L5.33475 23.5651L5.58878 23.2476L5.14421 23.184ZM8.1291 20.0717L8.19261 19.5635L7.62104 19.7541L8.1291 20.0717ZM4.89018 20.5163L5.33475 20.4528L5.01721 20.1352L4.89018 20.5163ZM6.47788 16.7687L6.66842 17.1498L6.98596 16.7687H6.47788ZM4.82667 29.0912L4.1281 27.6938L3.04845 29.0912H4.82667ZM2.79443 27.9479L2.5404 27.5033L2.22286 27.9479H2.79443ZM0.698647 28.5831L1.01619 28.2655L0.571643 28.0749L0.698647 28.5831ZM1.0797 26.741L1.46075 26.9951L1.52426 26.5505L1.0797 26.741ZM16.6392 36.3958L17.0202 36.1417L16.5757 35.8241L16.6392 36.3958ZM15.0515 35.8876L15.369 36.1417L15.496 35.7606L15.0515 35.8876ZM17.0837 37.158L17.3378 37.4756L17.4648 37.0309L17.0837 37.158ZM18.862 34.9984L18.6079 35.316L19.116 35.3795L18.862 34.9984ZM14.6704 34.1091L14.4799 33.601L14.0989 33.9821L14.6704 34.1091ZM13.2097 34.8078L13.0827 34.4267L12.7017 34.6808L13.2097 34.8078ZM9.58978 33.4104L9.46277 32.9658L9.01821 33.2834L9.58978 33.4104ZM12.5112 34.4267L12.8287 34.2362L12.4476 33.9821L12.5112 34.4267ZM11.5585 34.4902L11.8761 34.3632L11.5585 34.1091V34.4902ZM12.1936 31.6319L12.5112 31.9495L12.6382 31.5049L12.1936 31.6319ZM20.6402 35.2524L20.4497 34.8078L20.1321 35.2524H20.6402ZM18.2269 37.158L18.5444 36.9039L18.0999 36.6498L18.2269 37.158ZM17.9093 33.2834L18.2269 33.5375L18.2904 33.0928L17.9093 33.2834ZM13.5273 34.1091L13.7813 33.728L13.2733 33.6645L13.5273 34.1091ZM10.6694 33.0293L10.987 33.2199L10.9234 32.7752L10.6694 33.0293ZM13.7178 30.6792L13.6543 31.0603L14.0989 30.9332L13.7178 30.6792ZM22.4819 39L22.2914 38.5554L21.9103 38.9365L22.4819 39Z" fill="#562828"/>
<path d="M20.3228 38.6824L20.6403 38.4919L20.1957 38.2378L20.3228 38.6824ZM19.7512 36.9674L20.0052 37.2215L20.1322 36.7769L19.7512 36.9674ZM11.1776 33.4104L11.2411 32.9658L10.733 33.0928L11.1776 33.4104ZM9.27233 32.7752L9.71689 32.7117L9.46286 32.3306L9.27233 32.7752ZM10.0979 33.6645L10.479 33.601L10.2249 33.2199L10.0979 33.6645ZM9.65338 30.2981L9.7804 30.6156L10.0344 30.2981H9.65338ZM3.74713 29.9169L3.87413 30.2345L4.12818 29.9169H3.74713ZM4.50921 25.0896L4.82675 25.9153L5.52535 25.0896H4.50921ZM10.2885 31.4414L10.4155 31.8225L10.733 31.5049L10.2885 31.4414ZM7.24008 31.1873V30.7427L6.79551 30.9332L7.24008 31.1873ZM6.16043 31.2508V30.8062L5.71588 30.9967L6.16043 31.2508ZM7.36708 27.8844V27.4397L6.98605 27.6303L7.36708 27.8844ZM8.1927 25.3437L8.25621 24.899L7.81165 25.0896L8.1927 25.3437ZM4.57273 30.2981L4.89027 30.2345L4.63624 29.9169L4.57273 30.2981ZM6.22394 29.9169L7.43059 29.6629L6.60499 28.456L6.22394 29.9169ZM5.9064 28.5195L6.03343 28.7736L6.28745 28.5195H5.9064ZM10.7965 28.1384L10.86 27.7573L10.4155 27.8844L10.7965 28.1384ZM8.1927 28.5831H8.51024L8.3197 28.202L8.1927 28.5831ZM9.46286 25.5342L9.65338 25.8518L9.84391 25.5342H9.46286ZM12.3207 13.3388L12.3842 13.8469L12.8923 13.5928L12.3207 13.3388ZM15.4961 12.4495L15.0516 12.5765L15.3691 12.9577L15.4961 12.4495ZM14.353 16.3876L14.0989 16.0065L13.8449 16.3876H14.353ZM9.97092 13.5928L10.0344 14.101L10.5425 13.8469L9.97092 13.5928ZM13.1463 12.7671L12.7018 12.8941L13.0193 13.1482L13.1463 12.7671ZM11.9397 16.7052L11.7491 16.3241L11.4951 16.7052H11.9397ZM12.1937 16.0065L12.3842 15.5619H11.8127L12.1937 16.0065ZM8.95478 15.5619L9.39935 15.6254L9.20883 15.1173L8.95478 15.5619ZM11.6856 12.513V12.8941L12.1302 12.6401L11.6856 12.513ZM15.1151 8.76547L15.1786 9.40065L15.7502 9.08306L15.1151 8.76547ZM18.9256 7.68567L18.4175 7.8127L18.7986 8.25733L18.9256 7.68567ZM17.5284 12.4495L17.2744 12.0049L16.9568 12.513L17.5284 12.4495ZM16.7663 10.3534L17.2744 10.671L17.4014 10.0358L16.7663 10.3534Z" fill="#562828"/>
<path d="M18.1634 6.66938L17.9729 7.114L18.5445 7.05048L18.1634 6.66938ZM21.1483 10.671H20.6402L20.8308 11.1792L21.1483 10.671ZM18.989 8.32084L19.4336 8.63843L19.4971 8.06677L18.989 8.32084ZM20.1322 5.3355L20.0052 5.71661L20.5132 5.65309L20.1322 5.3355ZM22.609 8.63843L22.2279 8.57491L22.355 9.01954L22.609 8.63843ZM17.0203 5.90716L17.4648 6.22475L17.5283 5.71661L17.0203 5.90716ZM18.1634 2.92182L18.0364 3.30292H18.481L18.1634 2.92182ZM20.6402 6.22475L20.1957 6.16123L20.3862 6.60586L20.6402 6.22475ZM15.3691 6.60586L15.4326 7.17752L16.0041 6.85993L15.3691 6.60586ZM19.1796 5.52605L18.6715 5.71661L19.0525 6.09771L19.1796 5.52605ZM17.7824 10.2899L17.4648 9.84527L17.1473 10.2899H17.7824ZM10.2884 12.3225L10.3519 12.7671L10.86 12.5765L10.2884 12.3225ZM7.93863 15.3078V15.816L8.44669 15.5619L7.93863 15.3078ZM12.3842 9.65472V10.1629L12.8923 9.90879L12.3842 9.65472ZM16.3217 6.09771L16.0041 6.47882L16.5122 6.66938L16.3217 6.09771ZM5.27128 19.4365L4.95374 19.7541L5.4618 20.0081L5.27128 19.4365ZM13.4638 11.4332L13.0828 11.4967L13.4003 11.8778L13.4638 11.4332ZM12.3207 15.3078L12.0666 14.9267L11.8126 15.3078H12.3207ZM7.93863 20.5798V21.088L8.44669 20.8339L7.93863 20.5798ZM5.52531 23.6922V24.1368L6.03339 23.8827L5.52531 23.6922ZM9.90737 18.0391L9.97088 18.5472L10.479 18.2296L9.90737 18.0391ZM13.9084 14.4821L13.5908 14.7997L14.0989 15.0537L13.9084 14.4821ZM2.85798 27.7573L2.54044 28.0749L3.0485 28.329L2.85798 27.7573ZM11.0505 19.7541L10.6695 19.8811L10.987 20.1352L11.0505 19.7541ZM9.90737 23.6922L9.65334 23.3111L9.39931 23.6922H9.90737Z" fill="#562828"/>
</svg>
