<svg width="83" height="85" viewBox="0 0 83 85" fill="none" xmlns="http://www.w3.org/2000/svg">
<path d="M12.5277 0.711169L13.7313 1.58649L13.9501 0.382946L12.5277 0.711169ZM14.4206 3.92789L14.4971 3.70908L13.972 3.84037L14.0814 3.0526L13.3155 3.44647L13.972 3.84037L13.6875 3.94979L14.158 4.49685L14.4206 3.89506L15.0333 4.39835V3.55589L14.4206 3.92789ZM19.8583 2.01318L19.6395 3.54494L21.0947 2.64778L19.8583 2.01318ZM22.156 3.19484L22.0466 3.96071L22.7687 3.52307L22.156 3.19484ZM27.8673 5.05483L28.1299 6.5319L29.0818 5.36118L27.8673 5.05483ZM24.5631 9.07027L23.7753 9.17969L24.3661 9.70484L24.5631 9.07027ZM22.4514 11.8274L21.8496 12.0463L22.3529 12.3745L22.4514 11.8274ZM18.2172 14.8691L17.6154 15.0879L18.1078 15.4162L18.2172 14.8691Z" fill="#E9F4E9"/>
<path d="M15.4818 17.3856L14.891 17.6372L15.4052 17.9217L15.4818 17.3856ZM20.5913 9.3985L20.0005 9.65016L20.5148 9.94556L20.5913 9.3985ZM22.1997 7.4291L21.6089 7.68072L22.1231 7.97616L22.1997 7.4291ZM19.355 3.00884L19.3222 3.19485L19.2456 3.74191L19.4316 3.76378L19.3222 4.48591L20.3397 3.89507L19.8473 3.45743L19.355 3.00884ZM22.9656 4.21238L22.5279 4.14673L22.7468 4.78131L22.9437 4.50778L23.9503 4.80321L23.3595 3.66532L22.9656 4.21238ZM30.515 4.36554L30.526 6.14896L32.0577 5.05484L30.515 4.36554ZM14.5737 1.32388L15.1207 0.99566L14.3877 0.744L14.4971 1.53177L13.7531 2.26484L15.1755 2.59307L14.5737 1.32388ZM24.0269 2.87755L24.0707 4.5625L25.3398 3.49025L24.0269 2.87755ZM29.3224 3.81848L27.9001 4.47496L29.3443 5.59098L29.3224 3.81848ZM21.9918 2.36331L22.2106 2.28671L21.7402 1.78343L21.4119 2.39613L20.7226 2.61497L21.4885 3.49025L21.9918 2.36331ZM15.7225 6.08332L15.8319 4.77039L14.4862 5.09861L15.7225 6.08332ZM17.2543 8.81862L17.298 8.16214L16.5322 8.31533L17.2543 8.81862Z" fill="#E9F4E9"/>
<path d="M30.0773 2.99788L28.9285 3.27141L29.9132 4.08108L30.0773 2.99788ZM19.3112 5.29554L19.6175 4.67188L18.961 4.58437L19.3112 5.29554ZM29.3333 4.9345L30.2633 4.82508L29.8694 4.1686L29.3333 4.9345ZM26.8606 3.4246L26.237 3.22767L26.226 3.99353L26.8606 3.4246ZM21.8495 9.6392L22.6373 9.52978L22.0355 9.09214L21.8495 9.6392ZM21.0836 6.40061L21.8823 6.2912L21.2696 5.87542L21.0836 6.40061ZM19.4753 0.426724L18.1623 0.0328231L18.5125 1.32388L19.4753 0.426724ZM15.2957 2.75717L15.5474 3.65436L16.1492 3.05261L15.2957 2.75717ZM14.3767 6.5319L14.7049 7.70262L15.4708 6.91485L14.3767 6.5319ZM18.5015 1.99131L18.0639 0.743995L17.6919 1.25823L16.8822 0.525191L16.6634 1.61931L17.5606 1.36765L17.287 2.00226L18.5015 1.99131ZM16.926 4.80321L15.5693 4.1905L15.7662 5.65662L16.926 4.80321ZM17.1995 10.0222L17.6372 10.0659L17.4621 9.60638L17.1995 10.0222ZM18.5343 7.86673L18.972 7.89955L18.786 7.44001L18.5343 7.86673ZM23.0531 15.0113L23.5564 14.7925L23.064 14.5518L23.0531 15.0113ZM25.5695 17.681L26.0619 17.4403L25.5477 17.2215L25.5695 17.681ZM13.381 16.7291L13.8187 16.4009L13.2716 16.2915L13.381 16.7291ZM24.4317 7.13366L24.9131 6.87108L24.3879 6.6851L24.4317 7.13366ZM21.6963 7.10083L22.1778 6.83826L21.6526 6.65227L21.6963 7.10083ZM22.5935 2.39613L22.0465 0.864366L21.7948 1.05035L21.3572 0.984703L21.5213 1.34578L20.9961 1.92566L22.5935 2.39613ZM27.167 4.55155L27.6046 3.73096L26.7293 3.72L27.167 4.55155ZM27.0575 8.6545L27.9 8.87334L27.725 8.2606L27.0575 8.6545ZM26.5542 5.86451L27.4295 5.99579L27.1888 5.40496L26.5542 5.86451ZM17.3636 4.98919L17.3746 4.11391L16.6306 4.66097L17.3636 4.98919ZM26.0619 8.45757L26.4667 7.76827L25.668 7.79014L26.0619 8.45757ZM24.8255 6.10521L25.1538 5.38309L24.366 5.49248L24.8255 6.10521ZM23.6001 3.15107L22.7248 3.01979L23.0531 3.84038L23.6001 3.15107ZM24.6614 3.99353L24.3551 5.06579L25.3726 4.57342L24.6614 3.99353ZM26.0838 5.93015L25.8649 6.67414L26.5761 6.34589L26.0838 5.93015ZM27.0028 6.42248L26.7074 7.13366L27.4514 6.87108L27.0028 6.42248ZM28.097 7.07896L27.7906 7.79014L28.5565 7.53851L28.097 7.07896ZM8.18396 7.69167L8.94984 7.60415L8.40278 7.16648L8.18396 7.69167ZM15.5146 7.83391L15.5255 8.27155L16.0726 8.05275L15.5146 7.83391ZM14.3876 7.11179L13.6983 7.49473L14.4423 7.77922L14.3876 7.11179ZM19.1689 6.42248L18.4578 6.75074L19.1908 7.07896L19.1689 6.42248ZM12.7683 7.25403L12.1118 7.6698L12.8777 7.91051L12.7683 7.25403ZM16.8603 5.5472L15.9194 6.07236L16.9369 6.45531L16.8603 5.5472ZM20.646 5.21894L19.5847 5.72226L20.6788 6.2146L20.646 5.21894ZM20.5804 11.4336L19.4862 11.8931L20.5475 12.4401L20.5804 11.4336ZM14.2126 11.718L13.1731 12.2979L14.2892 12.7137L14.2126 11.718ZM17.1229 12.8778L16.0944 13.4468L17.2105 13.8844L17.1229 12.8778ZM15.2848 9.09214L15.613 10.1644L16.2148 9.21251L15.2848 9.09214ZM13.0528 5.75509L11.9587 6.45531L13.2169 6.84921L13.0528 5.75509ZM10.1643 5.64567L10.8755 6.77261L11.2803 5.49248L10.1643 5.64567ZM10.7114 1.24731L12.4839 2.8119L12.5167 0.689302L10.7114 1.24731ZM23.1296 8.54508L23.9831 8.78579L23.5454 7.94333L23.1296 8.54508ZM23.064 10.5583L23.8846 10.8865L23.5564 10.0112L23.064 10.5583ZM22.3638 6.26933L23.2172 6.48813L22.7795 5.65662L22.3638 6.26933ZM23.0421 5.5472L24.3988 5.90825L23.7095 4.59532L23.0421 5.5472ZM11.0724 8.82956L12.451 9.11405L11.6851 7.82296L11.0724 8.82956ZM4.33265 8.50131L5.71124 8.78579L4.94536 7.50569L4.33265 8.50131ZM18.1186 2.92132L18.1952 3.92789L19.1799 3.29332L18.1186 2.92132ZM18.6438 3.90602L17.9326 4.23424L18.6219 4.89072L18.6438 3.90602ZM19.9786 1.28014L18.9939 1.91471L20.1099 2.62588L19.9786 1.28014ZM7.17737 5.08766L6.63031 4.65001L6.52089 5.41591L7.17737 5.08766ZM6.24736 6.89295L5.31736 6.12708L5.09854 7.44001L6.24736 6.89295ZM27.2217 4.65001L28.097 4.7813L27.7687 4.07013L27.2217 4.65001Z" fill="#E9F4E9"/>
<path d="M30.143 4.34366L31.6748 3.72001L30.515 2.95414L30.143 4.34366ZM29.3334 5.63472L29.3771 6.6851L30.2524 6.32402L29.3334 5.63472ZM27.2983 5.38309L27.922 4.91259L27.1889 4.58437L27.2983 5.38309ZM20.657 5.32836L20.9852 4.71566L20.2193 4.60624L20.657 5.32836ZM26.7294 2.50555L26.795 2.85567L26.4887 2.69153L26.3136 3.1292L26.7841 2.96506L26.795 3.62154L27.8016 2.77908L26.7294 2.50555ZM25.307 4.58437L26.1823 4.69379L25.9635 3.99354L25.307 4.58437ZM14.0594 8.89521L14.5409 8.38097L13.8844 8.44662L14.0594 8.89521ZM24.6724 11.9587L24.7052 11.4117L24.2019 11.6305L24.6724 11.9587ZM25.4711 7.25403L25.4383 6.70697L24.9569 6.96955L25.4711 7.25403ZM24.4864 6.81639L24.4536 6.26933L23.9722 6.5319L24.4864 6.81639ZM15.6022 10.7552L16.0398 10.5802L15.624 10.3176L15.6022 10.7552ZM18.4469 9.87991L19.5738 9.44227L18.5344 8.80766L18.4469 9.87991Z" fill="#E9F4E9"/>
<path d="M23.0312 6.77261L23.8846 7.6479L24.0597 6.44439L23.0312 6.77261ZM25.493 10.3504L26.237 11.3132L26.5652 10.1425L25.493 10.3504ZM21.1384 10.9522L21.9918 11.8274L22.1778 10.6239L21.1384 10.9522ZM26.0619 2.28671L25.1648 2.37426L25.6024 1.77247H24.8365L25.0882 2.36331L24.6505 2.40708L25.5258 3.86225L26.0619 2.28671ZM7.86671 2.28671L7.95424 3.49025L9.11401 2.85567L7.86671 2.28671ZM10.8537 2.72435H11.0725L10.7114 2.30861L11.346 2.046L10.6567 1.54272L10.7114 2.30861L10.3613 2.00226L10.1972 2.76813L10.7442 2.7353L10.6895 3.5012L11.4226 3.00883L10.8537 2.72435ZM10.2738 3.74191L10.974 4.34366L11.1381 3.68718L10.2738 3.74191ZM12.0791 3.21672L11.3132 3.27141L11.904 3.88412L12.0791 3.21672ZM6.0833 3.19485L6.76165 3.46838L6.71788 2.8119L6.0833 3.19485ZM9.47507 2.86659L8.742 3.35896L9.52977 3.63249L9.47507 2.86659ZM12.4073 10.5036L12.9544 10.613L12.6261 10.1753L12.4073 10.5036ZM19.2674 18.0311L19.7926 18.1952L19.5082 17.7248L19.2674 18.0311ZM20.9415 20.5695L21.4885 20.7008L21.1822 20.2412L20.9415 20.5695ZM19.8692 10.7443V11.1819L20.3069 10.8537L19.8692 10.7443ZM20.3944 7.89956L20.3725 8.3372L20.832 8.03084L20.3944 7.89956ZM17.6591 12.4949L18.0967 12.7137L17.9873 12.276L17.6591 12.4949ZM14.9457 14.6831L15.3833 14.8691L15.252 14.4315L14.9457 14.6831ZM16.2586 7.31967L16.6963 7.53851L16.5869 7.10084L16.2586 7.31967ZM17.5169 2.4399L18.0092 3.06353L18.2827 2.29766L17.4293 2.36331L16.6963 1.70683L16.3461 2.94319L17.5169 2.4399ZM21.0399 2.96506L20.2303 3.80755L21.4338 4.1905L21.5432 4.40931L22.0027 3.88412L21.3463 3.64344L21.0399 2.96506ZM16.8385 4.91259L16.7291 5.67849L17.4621 5.24085L16.8385 4.91259ZM19.0596 5.26272L18.9502 6.02862L19.6832 5.59098L19.0596 5.26272ZM19.7598 6.72884L19.4316 6.67415L19.5847 7.14461L19.727 6.92581L20.471 7.14461L20.0333 6.31307L19.7598 6.72884ZM9.71578 10.5254L9.38754 10.5145L9.60636 10.9522L9.71578 10.7333L10.4817 10.8646L9.95648 10.0987L9.71578 10.5254Z" fill="#E9F4E9"/>
<path d="M6.91483 6.11614H6.5866L6.80542 6.55378L6.91483 6.33498L7.68072 6.46627L7.15554 5.6785L6.91483 6.11614ZM21.1384 5.05484L20.8102 5.0111L20.9634 5.47061L21.1056 5.27368L21.8496 5.49248L21.4119 4.65002L21.1384 5.05484ZM18.9064 4.44214L19.1252 4.36554L18.6438 3.8513L18.3375 4.47496L17.6372 4.6938L18.4031 5.56908L18.9064 4.44214ZM17.5716 7.39628L17.8779 6.77262L17.112 6.6632L17.5716 7.39628ZM17.9217 5.03297L17.123 5.86451L18.3046 6.24743L18.414 6.46627L18.8845 5.94108L18.228 5.68945L17.9217 5.03297ZM22.8452 4.50778L21.7074 4.23425L21.9809 5.43779L21.8386 5.63473L22.5279 5.76601L22.4185 5.08766L22.8452 4.50778ZM26.2917 4.35462L25.493 5.19708L26.6747 5.58003L26.7841 5.79884L27.2436 5.27368L26.5871 5.02202L26.2917 4.35462ZM16.3899 3.17295L17.5716 3.66532L17.1996 2.35236L16.3899 3.17295Z" fill="#E9F4E9"/>
<path d="M15.2301 3.70909L16.9041 4.51873L16.7291 3.05262L15.2301 3.70909ZM19.4425 2.2539L18.8954 2.33049L18.5672 2.22107L18.6766 2.43991L18.5672 2.54933L18.786 2.65871L19.1142 2.98697L19.4425 2.2539ZM8.50127 2.26485L8.46844 2.37427L9.03739 2.76813L9.50786 3.12921L9.98928 1.45521L8.31527 2.11165L8.50127 2.26485Z" fill="#E9F4E9"/>
<path d="M10.1862 2.34144L10.3613 1.66306L9.59539 1.93659L10.1862 2.34144ZM13.1185 3.27142L12.4292 2.87755L12.4839 3.64345L13.1185 3.27142ZM6.94761 3.34802L7.01327 4.42027L8.05268 3.80756L6.94761 3.34802ZM7.43997 7.94334L6.89291 8.0965L7.25397 8.51227L7.43997 7.94334ZM24.3113 2.25389L23.1515 1.32389L22.7467 2.96507L24.3113 2.25389ZM10.3613 7.53852L10.5254 8.30438L11.0287 7.7245L10.3613 7.53852ZM9.3328 6.00672L9.49692 6.77262L10.0002 6.19274L9.3328 6.00672ZM12.3088 4.21238L11.9368 3.57777L11.6633 4.36554L12.3088 4.21238Z" fill="#E9F4E9"/>
<path d="M9.90177 3.85129L9.55165 5.18612L10.6458 5.00014L9.90177 3.85129ZM6.07235 3.19485L4.5187 4.17955L5.74411 4.97823L6.07235 3.19485ZM9.22341 3.96071L7.95424 4.17955L8.5013 5.03296L9.22341 3.96071ZM12.5605 5.13143L11.5977 3.88411L11.2694 5.44873L12.5605 5.13143ZM13.764 3.24954L14.2017 1.90376L13.1075 2.08977L13.5124 1.50989L12.3088 1.3786L12.5824 2.12259L11.9478 2.49459L12.7355 2.76812L12.7137 2.54932L13.02 2.19919L13.764 3.24954ZM15.077 3.41365L14.4205 2.86659V3.74191L15.077 3.41365ZM7.52753 2.97601L7.17741 2.56024L6.99141 3.1292L7.52753 2.97601ZM7.63694 5.35026L7.88858 5.78791L8.07459 5.32836L7.63694 5.35026ZM4.09198 10.5145L4.82505 10.2738L4.21234 9.94555L4.09198 10.5145ZM0.864331 10.4926L1.59739 10.2519L0.984685 9.92368L0.864331 10.4926ZM2.56022 8.08557L1.94751 7.75731L1.9694 8.52321L2.56022 8.08557ZM2.7134 5.28462L3.04163 6.44439L4.05916 5.60189L2.7134 5.28462ZM1.13786 6.52095L1.85999 6.66319L1.68492 6.02861L1.13786 6.52095ZM4.42022 5.53625L3.79658 6.1599L4.61717 6.26932L4.42022 5.53625Z" fill="#E9F4E9"/>
<path d="M3.33707 5.13143V5.24085L3.97166 5.51438L4.51872 5.77696L4.66096 4.02636L3.15107 5.01109L3.33707 5.13143ZM2.02412 6.49908L2.3086 7.53851L3.20577 6.73979L2.02412 6.49908ZM0.623649 7.15556L0.568948 8.05275L1.2473 7.80109L0.623649 7.15556ZM4.38743 6.65227L3.1839 7.08991L3.90601 7.82296L4.38743 6.65227ZM2.5493 6.01766L2.11165 5.68944L2.04601 6.26932L2.5493 6.01766ZM3.11824 8.31532L3.44648 8.68732L3.55589 8.20591L3.11824 8.31532ZM0 9.33285L0.32824 9.70485L0.43765 9.22343L0 9.33285ZM19.2018 8.49039L19.6395 8.92803V8.27155L19.2018 8.49039ZM20.5148 14.5627L20.9087 15.0442L20.9743 14.3877L20.5148 14.5627ZM11.2476 2.76812L12.0134 2.71343L11.7509 2.07882L11.2476 2.76812ZM9.82521 2.78999L9.87991 3.55589L10.5036 3.07448L9.82521 2.78999ZM12.1885 5.5253L13.8297 5.41591L12.8778 3.55589L12.1885 5.5253ZM14.1142 0.295401L17.7029 0L15.7335 2.95414L14.1142 0.295401ZM19.3003 0.0218704L21.9262 0.284482L20.3616 1.84907L19.3003 0.0218704ZM23.6002 0.612705L25.7118 1.12694L23.7205 3.4246L23.6002 0.612705ZM27.6922 1.70683L30.1759 2.75717L28.097 4.26706L27.6922 1.70683Z" fill="#E9F4E9"/>
<path d="M31.6966 3.45742L33.3378 4.55154L31.259 5.56907L31.6966 3.45742ZM21.9371 0.3173L23.6111 0.601749L22.5498 1.50989L21.9371 0.3173ZM26.04 1.19258L27.8125 1.73964L26.0947 2.83376L26.04 1.19258ZM36.2482 23.6549L36.0075 23.0641L35.712 23.5783L36.2482 23.6549ZM29.7929 25.6243L29.5084 25.0554L29.2458 25.5805L29.7929 25.6243ZM31.4887 18.9174L31.2043 18.3484L30.9417 18.8736L31.4887 18.9174ZM29.4756 20.2303L29.6944 20.7226L29.9132 20.2084L29.4756 20.2303ZM39.8369 22.7686L39.7822 23.5345L40.3292 23.0969L39.8369 22.7686ZM28.3814 9.96745L27.9438 8.87333L27.3967 9.93463L28.3814 9.96745ZM28.7316 14.519L28.2392 13.3155L27.6265 14.4752L28.7316 14.519ZM45.1653 23.7753L44.5744 23.0094L44.3884 23.9612L45.1653 23.7753ZM42.5612 21.9809L41.6859 22.4951L42.6488 22.8234L42.5612 21.9809ZM24.4864 12.7465L24.0487 14.0595L25.4164 13.4577L24.4864 12.7465ZM43.8304 22.4513L44.2134 21.8605L43.4475 21.8277L43.8304 22.4513ZM45.395 21.1931L45.2856 21.9152L45.9092 21.6964L45.395 21.1931ZM44.3337 24.9897L44.3228 25.5368L44.6948 25.132L44.3337 24.9897ZM24.9678 26.434L24.9021 26.981L25.3179 26.62L24.9678 26.434ZM33.7973 25.0444L33.5347 25.4493L33.9724 25.3945L33.7973 25.0444ZM45.4388 22.0465L44.3775 22.2435L45.0996 23.2063L45.4388 22.0465ZM39.6618 21.8715L39.6071 21.3244L39.1366 21.5979L39.6618 21.8715ZM39.5743 24.935H38.8084L39.2898 25.5368L39.5743 24.935ZM38.2614 24.1691L38.8959 24.005L38.502 23.3157L38.2614 24.1691ZM37.4736 20.3944L36.4889 21.0837L37.4736 21.5651V20.3944ZM28.3158 22.7249L28.7534 23.0312L28.6878 22.4842L28.3158 22.7249ZM34.9899 14.705L35.34 15.3943L35.5808 14.7378L34.9899 14.705ZM36.6311 21.8715L36.2153 22.0247L36.6092 22.4623L36.6311 21.8715ZM36.9375 20.5585L36.3576 20.0115L36.3248 20.8102L36.9375 20.5585ZM36.5655 18.7751L35.9856 18.2281L35.9528 19.0268L36.5655 18.7751ZM34.2897 17.9545L34.4538 19.344L35.4385 18.2062L34.2897 17.9545ZM35.1431 20.8211L35.7777 21.1165L35.5151 20.5038L35.1431 20.8211ZM33.852 22.8562L34.1803 23.2282L34.2897 22.7577L33.852 22.8562ZM33.0862 19.7598L33.1627 20.3069L33.4691 19.8692L33.0862 19.7598ZM31.8826 21.3463L31.8279 21.8386L32.1999 21.587L31.8826 21.3463ZM37.3532 22.3966L37.2876 22.8781L37.6596 22.6264L37.3532 22.3966ZM32.9439 17.0026L32.8345 16.6963L32.4844 17.0464L32.7251 17.0792L32.8673 17.8451L33.4144 17.0792L32.9439 17.0026ZM35.6245 16.5322L34.9352 16.8932L35.6355 17.2214L35.6245 16.5322ZM42.2658 24.3442L41.4999 24.4864L42.047 25.0116L42.2658 24.3442ZM45.1105 20.5366L44.2134 20.4272L44.4322 21.1165L45.1105 20.5366ZM47.6051 24.388L47.3097 23.7096L46.9158 24.1472L47.6051 24.388ZM45.964 22.5717L46.2922 22.1341L45.7014 22.1012L45.964 22.5717ZM42.9879 22.6811L42.5503 22.8999L42.9879 23.1188V22.6811ZM31.8717 7.41813L31.434 8.05274L32.2765 7.96519L31.8717 7.41813ZM36.2919 11.4336L36.0403 12.9106L37.3313 12.1447L36.2919 11.4336ZM31.4778 13.7312L30.7119 13.4796L31.0073 14.2126L31.4778 13.7312ZM27.9766 16.4118L27.342 16.379L27.6703 16.8604L27.9766 16.4118ZM27.7578 12.2979L27.1232 12.2651L27.4514 12.7465L27.7578 12.2979ZM30.0554 11.2257L29.4208 11.1929L29.7491 11.6743L30.0554 11.2257ZM32.1343 8.66545L31.7623 8.41379L31.6747 9.07027L31.9592 8.90615L32.747 9.60637L32.7142 8.32627L32.1343 8.66545Z" fill="#E9F4E9"/>
<path d="M39.0602 11.915L38.3271 13.5343L40.1871 13.2061L39.0602 11.915ZM33.7865 7.83391L33.0862 9.36568L34.6946 8.94991L33.7865 7.83391ZM38.0536 10.7881L36.478 10.9303L37.4627 12.4621L38.0536 10.7881ZM32.0578 6.59755L32.2985 6.63037L32.0797 5.9739L31.5326 6.41157L30.8105 6.30215L31.1059 7.42909L32.0578 6.59755Z" fill="#E9F4E9"/>
<path d="M39.1148 10.5255L37.966 10.2629L38.4912 11.4226L39.1148 10.5255ZM37.5831 11.915L38.4912 12.1338L38.3489 11.3679L37.5831 11.915ZM36.0513 9.45323L35.5699 8.99369L35.2416 9.68299L36.0513 9.45323ZM28.7535 13.0857L29.5194 13.3264L29.1583 12.6918L28.7535 13.0857ZM29.4866 9.83615L30.2524 10.0769L29.8914 9.44228L29.4866 9.83615ZM28.3706 19.1909L28.9176 19.169L28.5347 18.7642L28.3706 19.1909ZM29.41 22.5499L29.957 22.528L29.5741 22.1341L29.41 22.5499ZM32.189 11.9587L32.7361 11.9259L32.3422 11.5321L32.189 11.9587ZM29.7382 10.7552L30.2853 10.7224L29.8914 10.3285L29.7382 10.7552ZM32.7142 6.78358L32.8783 5.17522L32.572 5.22991L32.2109 4.9892V5.3831L31.4779 5.6785L32.7142 6.78358ZM35.8325 10.613L36.5984 10.0659L35.8325 9.66112V10.613ZM34.3007 14.5737L35.0228 15.066L35.0556 14.4315L34.3007 14.5737ZM34.7055 11.5758L35.4276 12.0682L35.4714 11.4117L34.7055 11.5758ZM33.4254 14.0376L34.0381 13.5234L33.2722 13.2717L33.4254 14.0376ZM32.9877 11.1929L33.6005 10.6786L32.8346 10.427L32.9877 11.1929ZM33.2941 7.86675L32.561 7.37438L32.5063 8.24969L33.2941 7.86675ZM33.7536 9.21253L33.0096 10.044H34.1366L33.7536 9.21253ZM34.2569 11.346L33.7318 11.9259H34.5195L34.2569 11.346ZM35.0009 12.4402L34.4867 13.0091H35.2745L35.0009 12.4402ZM35.8106 13.4249L35.2963 13.9938H36.0841L35.8106 13.4249ZM29.5084 7.97616H28.3268L29.0927 8.88427L29.5084 7.97616ZM30.3837 12.6262L31.0402 13.2061L31.0074 12.2761L30.3837 12.6262ZM29.8805 14.9238L30.5369 15.5146L30.515 14.5737L29.8805 14.9238ZM30.6901 10.241L31.3466 10.8209L31.3137 9.87992L30.6901 10.241ZM31.6092 9.87992L32.6595 10.8099L32.6267 9.31099L31.6092 9.87992ZM35.8325 10.6896L36.5546 11.1819L36.5655 10.3942L35.8325 10.6896ZM38.5678 11.6415L40.209 11.5649L39.3665 10.4708L38.5678 11.6415ZM37.3642 12.5715L37.036 13.5781L37.9988 13.5343L37.3642 12.5715Z" fill="#E9F4E9"/>
<path d="M35.5698 11.4445L36.3357 11.2913L35.8215 10.6786L35.5698 11.4445ZM36.3357 8.567L36.2263 8.89522L36.0075 8.62169L35.6793 8.91709L36.1716 8.98273L35.8871 9.58452L37.1673 9.25626L36.3357 8.567ZM34.1475 9.79241L34.8696 10.2847L34.979 9.5517L34.1475 9.79241ZM30.9417 16.8823L31.1605 16.368L30.6135 16.39L30.9417 16.8823ZM33.1081 12.2651L33.3269 11.7509L32.7798 11.7837L33.1081 12.2651ZM32.3422 11.6962L32.561 11.1819L32.014 11.2038L32.3422 11.6962Z" fill="#E9F4E9"/>
<path d="M31.0512 11.0178L31.4451 12.1666L32.1234 11.1819L31.0512 11.0178ZM31.7077 14.4752L32.0906 15.6241L32.7908 14.6393L31.7077 14.4752ZM37.791 15.1536L37.9223 14.3877L37.2439 14.7925L37.791 15.1536ZM36.8281 18.042L36.3905 18.8079H37.047L36.8281 18.042ZM37.3096 17.1449L37.8566 17.7138L38.0536 16.9479L37.3096 17.1449ZM38.0754 19.4644L37.4627 18.983L37.5065 19.7708L38.0754 19.4644ZM38.6882 14.0376L38.1411 14.7378L39.0711 14.6503L38.6882 14.0376ZM36.117 13.775L35.6356 14.519L36.5656 14.3549L36.117 13.775ZM34.4977 15.0223L35.0447 15.1645L34.9353 14.6175L34.4977 15.0223ZM36.7297 15.4599L35.6137 15.9195L36.6531 16.5431L36.7297 15.4599ZM24.8038 14.3111L25.1867 15.4599L25.876 14.4752L24.8038 14.3111ZM35.8325 8.18404L34.99 7.87769L35.6246 7.51661L34.9353 7.18839L34.8915 7.82296L34.4758 7.6698L34.6508 9.36568L35.8325 8.18404ZM23.8628 20.2959L24.3005 20.6242L24.1911 20.0771L23.8628 20.2959ZM23.644 22.703L24.0816 23.0312L23.9722 22.4842L23.644 22.703ZM28.1627 10.8865L27.9439 11.2694L28.4909 11.1929L28.1627 10.8865ZM30.898 6.70697L29.8039 7.11179L30.712 7.98708L30.7011 8.22778L31.3575 7.95425L30.8871 7.45097L30.898 6.70697ZM30.0884 8.62168L29.8148 8.43567L29.7601 8.91708L29.979 8.80767L30.5588 9.33286L30.526 8.39193L30.0884 8.62168ZM31.8827 8.88426L30.9746 8.15122L30.6901 9.35473L30.4713 9.46415L31.0184 9.87992L31.2153 9.22344L31.8827 8.88426ZM35.0994 10.044L34.0053 10.4379L34.9025 11.3132V11.5649L35.559 11.2913L35.0885 10.7881L35.0994 10.044ZM34.2898 7.37437L33.6333 6.03954L32.572 7.31968L34.2898 7.37437ZM26.2152 17.4622L26.434 18.042L26.7185 17.4403L26.2152 17.4622ZM46.9488 25.9307L45.8328 26.981L47.5286 27.1999L46.9488 25.9307ZM48.5899 28.8629L48.2179 29.5194L49.0495 29.3662L48.5899 28.8629ZM54.3888 32.5829L54.6295 34.0709L55.5923 32.9112L54.3888 32.5829Z" fill="#E9F4E9"/>
<path d="M48.7431 35.2198L47.9772 35.0337L48.3383 35.7449L48.7431 35.2198ZM45.7671 37.036L45.1325 37.025L45.4826 37.4955L45.7671 37.036ZM37.6925 35.0009L37.0798 34.7821L37.2767 35.3292L37.6925 35.0009ZM44.9137 34.0928L44.2791 34.1147L44.6511 34.5742L44.9137 34.0928ZM47.1019 32.8346L46.4673 32.8564L46.8393 33.316L47.1019 32.8346ZM45.9422 26.4121L45.8109 26.5434L45.417 26.9154L45.5264 27.0467L44.9793 27.55L46.15 27.7141L46.0406 27.0576L45.9422 26.4121ZM48.9619 30.1102L48.5681 29.8914L48.5462 30.5479L48.8197 30.3619L49.6622 30.9965L49.5199 29.7273L48.9619 30.1102ZM50.5703 29.3881L50.2202 31.0293L51.6972 30.2634L50.5703 29.3881ZM55.8549 31.3903L54.3997 32.0468L55.844 33.1738L55.8549 31.3903ZM48.7431 28.0423L48.9838 28.0533L48.7212 27.3968L48.2179 27.8673L47.4849 27.8344L47.8678 28.9286L48.7431 28.0423ZM56.6208 30.5588L55.472 30.8214L56.4567 31.642L56.6208 30.5588ZM45.0231 29.0927L45.5373 28.6222L44.9575 28.294L45.0231 29.0927ZM55.8549 32.4844L56.7849 32.3969L56.391 31.7405L55.8549 32.4844ZM53.1853 30.5588L52.6163 30.2306L52.4412 30.9965L53.1853 30.5588ZM45.9859 34.7821L46.7518 34.9681L46.336 34.3554L45.9859 34.7821ZM46.4455 31.4778L47.2113 31.6639L46.7956 31.0621L46.4455 31.4778Z" fill="#E9F4E9"/>
<path d="M47.6489 24.4646L46.883 23.3267L46.3359 24.563L47.6489 24.4646ZM45.9202 25.0991L46.3578 23.8409L45.7451 24.016L45.5591 22.9219L44.7276 23.644L45.6029 24.005L44.9902 24.3332L45.9202 25.0991ZM43.5459 31.9374L43.9398 32.1234V31.631L43.5459 31.9374ZM45.1871 40.2308L45.7342 40.2199L45.3512 39.8041L45.1871 40.2308ZM46.6095 43.6226L47.1565 43.5789L46.7408 43.1959L46.6095 43.6226ZM49.3229 33.3597L49.87 33.2941L49.4323 32.9221L49.3229 33.3597ZM46.7736 32.375L47.3207 32.3094L46.883 31.9483L46.7736 32.375ZM49.2901 28.283L49.312 26.6747L49.0165 26.7513L48.6336 26.5324L48.6664 26.9263L47.9662 27.2874L49.2901 28.283ZM53.2617 31.7405L53.8854 31.0402L53.032 30.8214L53.2617 31.7405ZM52.1895 35.7012L52.9554 36.106L52.9226 35.4714L52.1895 35.7012ZM52.3536 32.8783L53.1742 33.2066L53.0648 32.572L52.3536 32.8783ZM50.3623 35.176L50.986 34.6836L50.242 34.4101L50.3623 35.176ZM50.056 32.5501L50.6249 32.003L49.859 31.8171L50.056 32.5501ZM49.9684 29.3553L49.2026 28.9176L49.2135 29.7929L49.9684 29.3553ZM50.6468 30.526L49.9684 31.4013L51.1063 31.3137L50.6468 30.526ZM51.8722 32.8236L51.4893 33.502L52.2551 33.3269L51.8722 32.8236ZM52.6381 33.5129L52.2004 34.1366L52.9882 34.06L52.6381 33.5129ZM53.5462 34.4101L53.0867 35.0337L53.8744 34.9572L53.5462 34.4101ZM44.6401 30.8214L43.8523 30.8761L44.3993 31.445L44.6401 30.8214ZM46.0624 29.4647L44.8808 29.5522L45.7232 30.3947L46.0624 29.4647ZM42.0361 33.0425L40.8544 33.0753L41.6531 33.9506L42.0361 33.0425ZM47.5723 34.2022L48.2835 34.7274L48.1741 33.7974L47.5723 34.2022ZM46.8064 36.0622L47.4629 36.6531V35.7121L46.8064 36.0622ZM47.6817 31.7952L48.3929 32.3203L48.2835 31.3794L47.6817 31.7952ZM48.557 31.3575L49.684 32.1891L49.5198 30.701L48.557 31.3575ZM44.9902 25.0882L44.4212 25.9197L45.581 26.0292L44.9902 25.0882ZM44.8479 26.62L44.0821 26.4449L44.2133 27.3749L44.8479 26.62ZM47.5285 25.3836L46.3688 25.2742L46.8064 26.5324L47.5285 25.3836ZM53.2508 31.7623L54.0604 32.0906L53.8963 31.3247L53.2508 31.7623ZM56.6426 31.8936L58.1743 31.2919L57.0255 30.526L56.6426 31.8936ZM55.8329 33.1847L55.8657 34.2351L56.741 33.874L55.8329 33.1847ZM53.1414 32.5501L53.8526 32.2437L53.218 31.7623L53.1414 32.5501Z" fill="#E9F4E9"/>
<path d="M46.4236 30.329L46.9378 29.8586L46.2813 29.4866L46.4236 30.329ZM53.2727 29.6397L53.2509 29.9899L52.9883 29.771L52.7257 30.143L53.2181 30.0993L53.0758 30.7558L54.2465 30.154L53.2727 29.6397ZM51.4127 31.3137L52.2224 31.642L52.1568 30.9089L51.4127 31.3137ZM47.8021 37.9879L48.021 37.4736L47.4739 37.4846L47.8021 37.9879ZM50.2092 33.8631L50.3843 33.316L49.8372 33.3926L50.2092 33.8631ZM49.4433 33.0972L49.6075 32.5501L49.0604 32.6267L49.4433 33.0972ZM39.6838 28.655H40.8873L40.1433 27.6922L39.6838 28.655ZM43.371 24.6724L44.5307 25.0007L44.115 23.8628L43.371 24.6724Z" fill="#E9F4E9"/>
<path d="M40.3183 26.6309L41.4891 26.9592L41.0514 25.8213L40.3183 26.6309ZM48.1085 32.5392L48.5899 33.6552L49.1917 32.6048L48.1085 32.5392ZM49.1369 36.7625L49.4871 37.9222L50.1982 36.9375L49.1369 36.7625ZM42.1346 30.6901L42.616 31.8061L43.2178 30.7448L42.1346 30.6901ZM52.671 29.2896L51.7738 29.1802L52.3208 28.6879L51.555 28.5128L51.6644 29.1365L51.2267 29.0818L51.7738 30.701L52.671 29.2896ZM36.5436 38.1301L36.8719 38.5896L36.9375 38.0426L36.5436 38.1301ZM36.281 41.1608L36.6312 41.5985L36.664 41.0514L36.281 41.1608ZM43.7211 35.1213L43.5788 35.5261L44.093 35.373L43.7211 35.1213ZM45.2528 32.6595L45.0778 33.0643L45.6029 32.9331L45.2528 32.6595ZM44.1587 23.8847V24.6834L44.8371 24.2457L44.1368 23.7643L43.9727 22.7796L42.9333 23.5455L44.1587 23.8847ZM47.6271 28.2612L46.5767 28.7535L47.5614 29.5194V29.771L48.1741 29.4428L47.6708 28.9833L47.6271 28.2612ZM43.2506 28.5456L42.8676 29.2021L43.7101 29.0489L43.2506 28.5456ZM41.5 28.9833L41.128 29.6616L41.9705 29.4975L41.5 28.9833ZM43.0646 24.7162L42.5175 25.2633L43.3709 25.3727L43.0646 24.7162ZM45.0778 31.3028L44.7824 31.1387L44.7605 31.631L44.9793 31.4888L45.592 31.9593L45.4826 31.0293L45.0778 31.3028ZM46.9706 30.2415L46.6861 30.0774V30.5697L46.8831 30.4275L47.5067 30.898L47.3973 29.968L46.9706 30.2415ZM41.7188 23.5455L41.9376 23.6221L41.872 22.9219L41.2483 23.2173L40.559 22.9656L40.6028 24.1254L41.7188 23.5455ZM42.9661 25.8979L41.8173 26.062L42.5066 27.1014L42.4409 27.3202L43.1302 27.2108L42.7801 26.609L42.9661 25.8979ZM48.7431 30.3509L47.7802 29.6945L47.6052 30.9308L47.3864 31.0621L47.9772 31.4341L48.1194 30.7558L48.7431 30.3509ZM52.4193 31.3356L51.4346 31.9702L52.5068 32.6267L52.5506 32.8674L53.1195 32.4626L52.5506 32.0687L52.4193 31.3356ZM46.4892 25.865L46.0078 25.5915L45.8327 25.2852L45.7671 25.5259L45.6139 25.5368L45.7233 25.7556L45.6467 25.8322L45.7233 25.7556L45.7561 26.2151L46.4892 25.865ZM50.9313 28.7535L50.1873 27.4734L49.2245 28.8411L50.9313 28.7535ZM43.9289 32.7689L44.1915 33.316L44.4104 32.7033L43.9289 32.7689ZM42.9771 38.896L43.174 39.4868L43.4694 38.896H42.9771Z" fill="#E9F4E9"/>
<path d="M47.7802 24.0597L49.6621 25.8979L47.4739 26.1495L47.7802 24.0597ZM50.8766 26.992L52.66 28.2174L49.9794 29.6397L50.8766 26.992ZM54.2465 29.2568L56.7192 30.329L54.6403 31.8061L54.2465 29.2568ZM49.6512 25.9197L50.789 27.1999L49.3886 27.2436L49.6512 25.9197Z" fill="#E9F4E9"/>
<path d="M52.9007 28.2174L54.4982 29.1693L52.5834 29.8257L52.9007 28.2174ZM46.1172 42.3862L45.4935 42.5176L45.9312 42.9005L46.1172 42.3862ZM40.8107 41.3687L41.3578 41.2593L40.9201 40.9311L40.8107 41.3687ZM53.1414 37.2767L52.9664 36.106L52.2005 37.0141L53.1414 37.2767ZM50.6578 41.7845L50.6359 40.4715L49.6512 41.3468L50.6578 41.7845ZM65.8661 55.8439L65.8333 54.531L64.8485 55.4063L65.8661 55.8439ZM52.9992 48.2945L52.9773 46.9816L51.9926 47.8568L52.9992 48.2945ZM47.3317 38.6115L46.4564 39.7057L47.9444 39.6291L47.3317 38.6115ZM35.8106 48.2617L35.4057 48.6446L35.9528 48.6227L35.8106 48.2617ZM42.9552 43.0974L43.371 42.7364L42.8239 42.6707L42.9552 43.0974ZM49.2792 43.3162L48.6993 43.0537L48.8306 43.6226L49.2792 43.3162ZM50.5374 39.3774L49.9575 39.1148L50.0889 39.6947L50.5374 39.3774ZM56.5223 38.7975L55.8877 38.7647L56.2159 39.2461L56.5223 38.7975ZM52.8023 40.395L53.4916 40.8107L53.2727 40.1105L52.8023 40.395ZM55.9752 37.408L56.7411 37.6597L56.391 37.0032L55.9752 37.408ZM39.5415 42.1783L39.6509 41.6313L39.1695 41.9048L39.5415 42.1783ZM43.0646 42.0033L43.174 41.4563L42.6926 41.7298L43.0646 42.0033ZM56.2159 38.3052L56.763 38.2833L56.38 37.8785L56.2159 38.3052ZM54.2684 34.5086L53.0867 34.4867L53.8526 35.4058L54.2684 34.5086ZM53.9401 38.3161L54.5966 38.896L54.5747 37.9551L53.9401 38.3161ZM53.5025 42.441L54.0058 43.1631L54.2027 42.244L53.5025 42.441ZM47.1238 40.2199L47.0691 41.4234L48.0757 40.7341L47.1238 40.2199ZM39.5415 46.8174L39.9792 46.4564L39.4321 46.4345L39.5415 46.8174ZM37.1016 44.5198L37.2439 45.0668L37.4955 44.5745L37.1016 44.5198ZM52.7804 38.1411L52.485 38.4693L53.032 38.5131L52.7804 38.1411ZM57.7805 32.1234L56.6864 32.5173L57.5617 33.3926L57.5507 33.6333L58.2072 33.3597L57.7367 32.8564L57.7805 32.1234ZM56.6098 36.2154L56.3363 36.0294L56.2706 36.5108L56.4895 36.4014L57.0584 36.9266L57.0365 35.9857L56.6098 36.2154ZM47.2879 43.6554L47.277 44.2791L47.7584 43.8195L47.2879 43.6554ZM38.3161 26.1276L38.7538 26.4558L38.6991 25.9088L38.3161 26.1276ZM33.6114 23.3048L33.7427 23.8518L34.0053 23.3704L33.6114 23.3048ZM33.1737 33.4801L33.5457 32.9768H32.9659L33.1737 33.4801ZM37.8238 30.7448L37.4955 31.1824L38.0426 31.1496L37.8238 30.7448ZM30.2743 29.5631L29.7491 29.7601L30.2524 29.957L30.2743 29.5631ZM35.0885 30.8542L35.0119 31.4013L35.4714 31.073L35.0885 30.8542ZM39.5525 32.758L39.9573 33.13L39.9682 32.5829L39.5525 32.758ZM35.723 31.7514L35.9966 32.2219L36.1716 31.6967L35.723 31.7514ZM35.1979 25.7994L35.1213 26.3464L35.537 25.9963L35.1979 25.7994ZM32.9659 26.6965L32.8783 27.2436L33.316 26.8935L32.9659 26.6965ZM38.7975 26.5871L38.3599 27.0467L39.0163 27.0138L38.7975 26.5871ZM34.5633 5.36119L36.2373 6.73979L33.4473 7.94333L34.5633 5.36119Z" fill="#E9F4E9"/>
<path d="M37.5502 8.32628L39.3008 10.3613L36.7844 10.799L37.5502 8.32628ZM40.2308 11.6962L41.2812 13.3592L38.9507 13.4249L40.2308 11.6962ZM33.1519 4.43118L34.5414 5.41591L33.1847 5.76601L33.1519 4.43118ZM36.4671 6.91485L37.8019 8.19496L35.7887 8.4138L36.4671 6.91485ZM41.0842 19.6832L40.5153 21.0728L41.9377 20.5914L41.0842 19.6832ZM43.929 20.7117L43.2178 22.3529L45.0778 21.9809L43.929 20.7117Z" fill="#E9F4E9"/>
<path d="M39.6618 14.9566L38.4583 16.1383L40.0995 16.3243L39.6618 14.9566ZM42.9661 19.4425L41.3905 19.2237L42.0251 20.9524L42.9661 19.4425ZM44.0383 19.4097L42.977 18.9064L43.2396 20.1537L44.0383 19.4097Z" fill="#E9F4E9"/>
<path d="M42.3753 20.3616L43.2178 20.7774L43.2396 20.0115L42.3753 20.3616ZM41.1936 17.3856L40.8982 16.7838L40.3512 17.3309L41.1936 17.3856ZM40.6138 18.4031L41.5219 18.1624L40.9201 17.5059L40.6138 18.4031ZM37.8019 21.5433L38.3052 22.2544L38.5568 21.6636L37.8019 21.5433ZM39.2242 18.8517L39.7275 19.5629L39.9792 18.983L39.2242 18.8517ZM37.1782 20.7117L37.9222 20.4491L37.2986 19.9458L37.1782 20.7117ZM39.2789 16.1711L38.2942 16.6854L39.3555 17.0902L39.2789 16.1711ZM38.8632 18.5344L38.1739 18.8845L38.9179 19.169L38.8632 18.5344Z" fill="#E9F4E9"/>
<path d="M39.2023 19.7708L38.524 20.1209L39.2571 20.4053L39.2023 19.7708ZM39.6181 20.9962L38.9288 21.3463L39.6619 21.6308L39.6181 20.9962ZM40.7779 18.7532L41.3797 19.3878L41.5547 18.6219L40.7779 18.7532ZM43.5788 20.5585L45.22 20.6023L44.4541 19.4425L43.5788 20.5585ZM42.0033 20.9524L41.4781 21.8715L42.43 22.0356L42.0033 20.9524ZM40.0995 19.0268L40.8654 19.1581L40.6028 18.4141L40.0995 19.0268ZM41.7735 16.6525L41.5547 16.937L41.4453 16.6087L41.0295 16.7729L41.4672 16.9917L40.9967 17.4622L42.3097 17.6044L41.7735 16.6525ZM39.3008 17.0355L39.8041 17.7576L40.1542 17.1011L39.3008 17.0355Z" fill="#E9F4E9"/>
<path d="M41.4671 16.018L40.7778 15.4271L41.5109 15.3177L40.9638 14.7706L40.7122 15.3505L40.3621 15.0551L39.9244 16.6963L41.4671 16.018ZM40.1214 17.6044H38.9616L39.5087 18.7314L39.4211 18.9502L40.1214 18.9174L39.8588 18.2828L40.1214 17.6044Z" fill="#E9F4E9"/>
<path d="M41.0842 13.0091L42.1565 14.891L39.1257 15.0223L41.0842 13.0091ZM42.9989 16.9151L44.29 19.2784L41.7298 19.169L42.9989 16.9151ZM46.4235 22.4404L47.1347 23.2719L45.8655 23.4908L46.4235 22.4404ZM42.2659 15.2521L43.0755 16.9151L41.1061 16.4228L42.2659 15.2521ZM59.4217 33.2722L58.9622 34.7274L60.5377 34.0709L59.4217 33.2722ZM61.5224 34.804L61.3036 35.5261L62.0913 35.1979L61.5224 34.804ZM66.7742 37.3205L66.7961 38.8194L67.9121 37.8128L66.7742 37.3205ZM62.9666 40.9748L62.1679 40.9529L62.6603 41.5656L62.9666 40.9748Z" fill="#E9F4E9"/>
<path d="M60.4173 43.371L59.7936 43.4804L60.2313 43.8743L60.4173 43.371ZM58.9621 40.6685L58.3494 40.8217L58.7871 41.1936L58.9621 40.6685ZM60.8659 38.9835L60.2422 39.1258L60.7018 39.4978L60.8659 38.9835ZM58.7542 34.1694L58.5354 34.8696L58.7105 34.9244L58.4916 35.6246L59.5858 35.1869L59.17 34.6727L58.7542 34.1694ZM62.1241 35.92L61.6865 35.7887L61.7959 36.4452L62.0147 36.2045L62.9666 36.664L62.5727 35.4386L62.1241 35.92ZM69.4766 37.036L69.214 38.7866L70.9099 37.966L69.4766 37.036ZM63.3167 34.5524L63.0979 36.2154L64.5203 35.362L63.3167 34.5524ZM68.3934 36.3357L66.8617 36.7734L68.1199 38.1083L68.3934 36.3357Z" fill="#E9F4E9"/>
<path d="M61.4786 33.9615L61.7193 33.9178L61.3254 33.3379L60.9206 33.9068L60.1985 34.0162L60.8112 35.0009L61.4786 33.9615ZM69.2469 35.6355L68.0652 35.723L68.9186 36.6749L69.2469 35.6355ZM58.3385 36.4233L58.7433 35.8543L58.1197 35.6574L58.3385 36.4233ZM68.2075 37.4299L69.1375 37.4736L68.853 36.7625L68.2075 37.4299ZM66.0192 35.548L65.4284 35.2526L65.2971 36.0185L66.0192 35.548ZM60.1547 41.128H60.9535L60.4283 40.6138L60.1547 41.128ZM59.9359 37.791L60.7237 37.8128L60.1985 37.2986L59.9359 37.791ZM59.2794 31.631L58.0431 31.0293L58.1744 32.3641L59.2794 31.631Z" fill="#E9F4E9"/>
<path d="M57.1896 38.8303L57.6273 38.9398L57.5179 38.4583L57.1896 38.8303ZM60.5158 46.5986L61.0409 46.4892L60.6033 46.161L60.5158 46.5986ZM62.5946 49.6622L63.1198 49.498L62.6493 49.2136L62.5946 49.6622ZM63.1417 39.0492L63.6668 38.8632L63.1745 38.6006L63.1417 39.0492ZM60.4611 38.5896L60.9753 38.4146L60.4939 38.1411L60.4611 38.5896ZM62.1022 34.0819L61.7959 32.4954L61.5114 32.6376L61.0957 32.5063L61.2051 32.8893L60.5923 33.3816L62.1022 34.0819ZM66.1833 36.7077L66.7523 35.9637L65.877 35.8106L66.1833 36.7077ZM65.4174 40.7341L66.2161 41.0842L66.1286 40.4496L65.4174 40.7341ZM65.3627 37.8894L66.2052 38.152L66.052 37.5283L65.3627 37.8894ZM64.4655 40.3402L64.9688 39.7275L64.1811 39.6181L64.4655 40.3402ZM63.6997 38.0754L64.1373 37.4189L63.3386 37.397L63.6997 38.0754ZM62.9666 34.9572L62.1351 34.6946L62.3211 35.5699L62.9666 34.9572ZM63.7762 35.7449L63.2948 36.7515L64.389 36.4233L63.7762 35.7449ZM64.8704 37.8675L64.5421 38.5678L65.308 38.3489L64.8704 37.8675ZM65.7128 38.4802L65.308 39.1367L66.0739 39.0054L65.7128 38.4802ZM66.6975 39.3227L66.2818 39.9792L67.0477 39.8479L66.6975 39.3227ZM58.054 37.4955L57.2881 37.7143L57.9446 38.152L58.054 37.4955ZM59.6952 36.5108L58.5573 36.8391L59.542 37.4955L59.6952 36.5108ZM58.6448 42.6379L57.496 42.9224L58.4588 43.6226L58.6448 42.6379ZM61.5989 40.198L62.3977 40.5591L62.1022 39.6837L61.5989 40.198ZM61.216 42.1674L61.9819 42.6051L61.7959 41.686L61.216 42.1674ZM61.216 37.8238L62.0256 38.1848L61.7302 37.3095L61.216 37.8238ZM61.9819 37.2111L63.262 37.7909L62.7915 36.3686L61.9819 37.2111ZM57.5398 33.8193L57.4522 34.8259L58.5245 34.3554L57.5398 33.8193ZM57.9336 34.8806L57.1678 35.0994L57.7367 35.8653L57.9336 34.8806ZM59.6624 32.4735L58.5901 32.944L59.5748 33.8193L59.6624 32.4735ZM66.1724 36.7406L67.0039 37.0032L66.7851 36.2373L66.1724 36.7406ZM69.0937 36.85L70.6911 36.478L69.6736 35.548L69.0937 36.85Z" fill="#E9F4E9"/>
<path d="M68.109 38.1192L67.9996 39.1695L68.9296 38.9507L68.109 38.1192ZM66.1396 37.5502L66.8179 37.1892L66.1614 36.7515L66.1396 37.5502ZM59.6842 36.6749L60.0891 36.106L59.356 35.8872L59.6842 36.6749ZM66.0301 34.6289V34.9572L65.7457 34.7602L65.5269 35.1432L66.0083 35.0666L65.9207 35.723L67.0477 35.0447L66.0301 34.6289ZM64.3014 36.4233L65.133 36.6749L65.0235 35.9528L64.3014 36.4233ZM62.5946 43.8633L62.704 43.3162L62.1788 43.4257L62.5946 43.8633ZM64.1264 39.3337L64.192 38.7866L63.6668 38.9726L64.1264 39.3337ZM63.2183 38.7538L63.2729 38.2067L62.7587 38.3818L63.2183 38.7538Z" fill="#E9F4E9"/>
<path d="M56.763 40.8326L57.9447 40.57L57.0147 39.7823L56.763 40.8326ZM61.7632 38.4803L62.4634 39.465L62.8463 38.3052L61.7632 38.4803ZM63.5575 42.1674L64.1374 43.2397L64.6407 42.1237L63.5575 42.1674ZM59.2467 42.2987L59.9469 43.2834L60.3189 42.1346L59.2467 42.2987ZM65.3956 34.3117L64.4985 34.2679L65.0018 33.7208L64.2359 33.6114L64.3781 34.2351L63.9405 34.2022L64.5969 35.7887L65.3956 34.3117ZM56.2707 48.9947L56.763 49.2354L56.5442 48.7322L56.2707 48.9947ZM57.518 51.7738L58.0322 51.9926L57.7915 51.5003L57.518 51.7738ZM58.0213 41.9048L57.9556 42.3425L58.437 42.0799L58.0213 41.9048ZM59.006 39.2024L58.9184 39.64L59.4108 39.4212L59.006 39.2024ZM60.4283 34.4101L59.4983 35.1103L60.6143 35.6793L60.68 35.8981L61.227 35.4605L60.6253 35.1103L60.4283 34.4101ZM58.1307 36.3577L57.9119 37.0907L58.6996 36.7625L58.1307 36.3577ZM58.5683 37.9113L58.2401 37.8019L58.3167 38.2833L58.4917 38.1083L59.192 38.4365L58.8966 37.5393L58.5683 37.9113ZM60.2095 36.4889L59.8813 36.3795L59.9579 36.8609L60.1329 36.6859L60.8332 37.0141L60.5377 36.1169L60.2095 36.4889ZM56.019 34.9572L56.2597 34.9244L55.8659 34.3335L55.461 34.9025L54.7389 35.0119L55.3516 35.9966L56.019 34.9572ZM57.0366 35.9419L56.1066 36.6421L57.2226 37.1892L57.2882 37.4299L57.8353 36.9922L57.2335 36.6421L57.0366 35.9419ZM61.982 36.1935L60.9098 35.7559L60.9863 37.0032L60.8113 37.1782L61.4678 37.419V36.7187L61.982 36.1935ZM65.33 36.3795L64.4 37.0798L65.4941 37.6487L65.5598 37.8675L66.1068 37.4299L65.516 37.1017L65.33 36.3795ZM58.9841 33.4254H58.437L58.1307 33.2504L58.1963 33.4692L58.065 33.5567L58.262 33.7099L58.2401 33.8193L58.262 33.7099L58.5136 34.1038L58.9841 33.4254ZM63.7982 34.1913L62.7916 33.0972L62.1352 34.6289L63.7982 34.1913ZM57.7806 39.5525L58.1526 40.0448L58.2401 39.3884L57.7806 39.5525Z" fill="#E9F4E9"/>
<path d="M58.0649 45.778L58.3713 46.3251L58.5464 45.6905L58.0649 45.778ZM59.2028 31.2262L61.7521 31.9046L59.9468 33.1956L59.2028 31.2262ZM63.3605 32.4954L65.3518 33.3379L63.0323 35.2854L63.3605 32.4954ZM67.1352 34.0053L69.4329 35.4276L67.1571 36.5874L67.1352 34.0053Z" fill="#E9F4E9"/>
<path d="M70.7787 36.3577L72.2339 37.6706L70.0019 38.3271L70.7787 36.3577ZM61.7303 31.9374L63.3496 32.4845L62.1461 33.2066L61.7303 31.9374ZM65.5597 33.2175L67.2009 34.049L65.3409 34.8478L65.5597 33.2175ZM67.0915 50.1326L67.0259 49.498L66.5882 49.9029L67.0915 50.1326ZM64.575 50.5703L64.6188 51.1173L65.0017 50.7016L64.575 50.5703ZM66.4788 42.2549L66.2162 41.0952L65.505 42.058L66.4788 42.2549ZM65.8442 44.9574L65.8004 43.6445L64.8157 44.5417L65.8442 44.9574ZM62.2664 44.5964L61.61 45.8437L63.0542 45.4498L62.2664 44.5964ZM72.1135 53.4916L70.91 53.7542L71.6759 54.5748L72.1135 53.4916ZM71.6759 47.1894L71.7415 47.9553L72.201 47.4301L71.6759 47.1894ZM71.4571 53.4478L71.1288 52.7366L70.8006 53.4697L71.4571 53.4478ZM71.8509 51.6316L71.5227 50.9204L71.1945 51.6425L71.8509 51.6316ZM69.969 50.0451L69.5971 51.4018L70.91 50.7125L69.969 50.0451ZM69.6846 53.0211L70.155 53.5353L70.1441 52.8789L69.6846 53.0211ZM68.1747 51.2705L68.0324 51.8176L68.492 51.5112L68.1747 51.2705ZM68.8749 48.568L68.8968 48.2398L68.4592 48.4367L68.678 48.5461L68.5358 49.312L69.3235 48.8088L68.8749 48.568ZM71.7196 49.2245L70.9537 49.2901L71.4789 49.8701L71.7196 49.2245ZM78.3391 56.9162L77.6279 56.3472L77.4528 57.0365L78.3391 56.9162ZM70.2973 40.2855L69.7721 40.8545L70.6255 40.8982L70.2973 40.2855ZM73.9735 44.662L73.2076 45.9749L74.6847 45.6905L73.9735 44.662ZM68.6561 45.1763L68.0324 44.6839L68.0543 45.4717L68.6561 45.1763ZM65.0455 48.568L64.4218 48.4258L64.6735 48.9729L65.0455 48.568ZM65.6691 42.5504L65.0783 42.2987L65.2206 42.8677L65.6691 42.5504ZM67.8902 43.7539L67.2666 43.6226L67.5182 44.1478L67.8902 43.7539Z" fill="#E9F4E9"/>
<path d="M70.3629 41.5656L70.0346 41.2702L69.8377 41.9048L70.1659 41.7954L70.8224 42.6269L70.9974 41.3468L70.3629 41.5656ZM76.4899 46.1281L75.1989 47.3536L77.0589 47.7365L76.4899 46.1281ZM72.1681 41.0186L71.2382 42.4081L72.8793 42.2659L72.1681 41.0186ZM75.8882 44.673L74.3564 44.2572L74.7503 46.0406L75.8882 44.673Z" fill="#E9F4E9"/>
<path d="M70.6255 39.5087L70.8662 39.5853L70.7568 38.8851L70.1441 39.2133L69.4439 38.9945L69.5533 40.1543L70.6255 39.5087ZM76.9714 44.7824L75.9867 44.1478L76.0961 45.417L76.9714 44.7824ZM75.0567 45.5701L75.8226 46.0844L75.9539 45.3185L75.0567 45.5701ZM74.1267 42.9442L73.7219 42.4191L73.2842 43.0427L74.1267 42.9442ZM66.3584 43.6007L66.9821 44.0931L66.8727 43.371L66.3584 43.6007ZM67.5948 42.2878L68.295 42.6488L68.0434 41.9595L67.5948 42.2878ZM63.8967 49.2136L64.4109 49.3777L64.1921 48.8744L63.8967 49.2136ZM69.969 43.743L70.4942 43.9071L70.2535 43.3928L69.969 43.743Z" fill="#E9F4E9"/>
<path d="M67.6932 43.2287L68.2403 43.2944L67.912 42.8348L67.6932 43.2287ZM71.26 39.7822L71.6758 38.2176L71.3476 38.2286L71.0193 37.9332L70.9537 38.3161L70.1878 38.5021L71.26 39.7822ZM73.7437 44.0821L74.5752 43.6773L73.875 43.1521L73.7437 44.0821ZM71.0631 46.8174L71.5445 47.5505L71.818 46.9706L71.0631 46.8174ZM72.4636 44.2353L72.9778 44.9465L73.2295 44.3666L72.4636 44.2353ZM70.4066 46.1172L71.1725 45.8437L70.5489 45.3513L70.4066 46.1172ZM70.8224 44.1916L71.5117 43.7758L70.8005 43.4147L70.8224 44.1916ZM71.6539 40.9639L71.0193 40.3731L70.8005 41.2265L71.6539 40.9639ZM71.8946 42.3644L71.0193 43.0646L72.1463 43.2506L71.8946 42.3644ZM72.1134 43.8961L71.4242 44.2572L72.1682 44.5307L72.1134 43.8961ZM72.4417 45.1653L71.7524 45.5264L72.4855 45.7999L72.4417 45.1653ZM72.8575 46.3907L72.1682 46.7408L72.9012 47.0253L72.8575 46.3907ZM67.8792 40.4825L66.7085 40.2965L67.3212 41.314L67.8792 40.4825ZM68.0324 43.7648L68.47 44.5307L68.7654 43.6335L68.0324 43.7648ZM66.7632 45.7342L67.179 46.5001L67.4853 45.6249L66.7632 45.7342ZM68.6998 42.8895L69.2469 43.5679L69.3781 42.6379L68.6998 42.8895Z" fill="#E9F4E9"/>
<path d="M69.6736 42.6817L70.5708 43.7758L70.7678 42.2878L69.6736 42.6817ZM73.8313 43.8086L74.3455 44.5198L74.6191 43.7867L73.8313 43.8086ZM76.0524 45.6358L77.6169 46.1391L77.2121 44.8261L76.0524 45.6358ZM74.5644 45.9859L73.8751 46.7846L74.7722 47.1128L74.5644 45.9859Z" fill="#E9F4E9"/>
<path d="M73.328 44.4104L74.0939 44.5416L73.8313 43.7758L73.328 44.4104ZM74.5315 42.1346L74.3783 42.4628L74.2142 42.1565L73.8313 42.3972L74.3017 42.5394L73.9297 43.0865L75.2427 42.9771L74.5315 42.1346ZM72.1791 42.988L72.8137 43.5898L73.0326 42.8895L72.1791 42.988ZM67.0696 47.6927L67.4635 47.2989L66.9492 47.1128L67.0696 47.6927ZM70.7021 44.3447L71.085 43.9399L70.5598 43.7758L70.7021 44.3447ZM70.1988 43.5351L70.5708 43.1303L70.0456 42.9661L70.1988 43.5351Z" fill="#E9F4E9"/>
<path d="M69.225 42.4738L69.1922 43.6773L70.1769 42.9661L69.225 42.4738ZM68.6233 45.5373L68.5139 46.7408L69.5423 46.0844L68.6233 45.5373ZM74.0939 48.6774L74.5096 47.9882L73.7437 48.1195L74.0939 48.6774ZM72.398 51.0626L71.7087 51.6097L72.2995 51.8504L72.398 51.0626ZM73.0873 50.428L73.3827 51.1611L73.8641 50.5265L73.0873 50.428ZM73.0107 52.8679L72.6387 52.1896L72.3761 52.9336L73.0107 52.8679ZM75.3521 47.9772L74.5862 48.4149L75.4834 48.6774L75.3521 47.9772ZM73.0544 46.7737L72.3323 47.2879L73.2623 47.4739L73.0544 46.7737ZM71.085 47.3207L71.5227 47.649L71.6321 47.1019L71.085 47.3207ZM72.9998 48.579H71.7962L72.5293 49.5418L72.9998 48.579ZM62.3539 46.2266L62.5509 47.4302L63.3824 46.5548L62.3539 46.2266ZM74.1157 41.686L73.328 41.2484L74.0173 40.9967L73.3827 40.5591L73.2514 41.1827L72.8575 40.9639L72.7481 42.6707L74.1157 41.686ZM60.4721 51.9707L60.855 52.3646L60.8331 51.8176L60.4721 51.9707ZM66.1287 43.1521L65.8661 43.4804L66.4131 43.4913L66.1287 43.1521ZM69.4876 39.454L68.3497 39.6728L69.0937 40.6575L69.05 40.8982L69.7283 40.7232L69.3454 40.1543L69.4876 39.454ZM68.3716 41.2265L68.1309 41.0077L67.9887 41.4781L68.2075 41.3906L68.6998 41.9924L68.8093 41.0624L68.3716 41.2265ZM70.0894 41.7735L69.3235 40.8982L68.853 42.058L68.6123 42.1346L69.1047 42.6379L69.4001 42.0142L70.0894 41.7735ZM73.3499 42.9771H72.1901L72.7372 44.0931L72.6277 44.3119L73.328 44.2791L73.0654 43.6445L73.3499 42.9771ZM72.7153 40.6794L72.2995 39.2571L71.0303 40.3512L72.7153 40.6794ZM63.2292 49.5856L63.3387 50.1983L63.6997 49.6512L63.2292 49.5856Z" fill="#E9F4E9"/>
<path d="M73.2732 38.6553L74.6956 40.2965L71.7415 41.0295L73.2732 38.6553ZM75.8554 42.1127L77.0042 44.4323L74.5971 44.3776L75.8554 42.1127Z" fill="#E9F4E9"/>
<path d="M77.6716 46.2704L78.1311 48.1851L75.9101 47.4958L77.6716 46.2704ZM72.0478 37.5393L73.2514 38.7428L71.8618 38.8741L72.0478 37.5393ZM76.4243 57.1459L74.9144 56.8724L75.7569 58.3604L76.4243 57.1459ZM74.9254 60.2313L74.1595 60.0891L74.5971 60.8331L74.9254 60.2313ZM74.3783 68.3279L73.2295 69.3126L74.7175 69.5314L74.3783 68.3279ZM65.2971 63.5466L64.1483 64.5313L65.6363 64.7501L65.2971 63.5466ZM65.3299 59.75L65.5159 60.7565L66.1505 59.9688L65.3299 59.75ZM70.1878 65.9864L70.3629 66.993L70.9975 66.2053L70.1878 65.9864ZM60.3407 66.3913L60.5267 67.3979L61.1613 66.6101L60.3407 66.3913ZM71.2163 73.6891L71.3914 74.6956L72.0478 73.8969L71.2163 73.6891ZM70.0565 57.4195L69.8377 56.8177L69.5095 57.321L70.0565 57.4195ZM54.3012 54.6185L54.0824 54.0167L53.776 54.5201L54.3012 54.6185ZM58.7215 59.2466L58.5026 58.6449L58.1744 59.1482L58.7215 59.2466ZM73.875 60.9754L73.9625 60.5377L73.3061 60.7237L73.5796 60.9206L73.2514 61.9054L74.4111 61.3583L73.875 60.9754ZM76.5009 70.6583L75.188 71.8619L77.0261 72.2776L76.5009 70.6583ZM75.56 62.529L73.9188 62.7916L75.1551 63.8857L75.56 62.529Z" fill="#E9F4E9"/>
<path d="M76.1726 68.9953L74.8597 68.0872L74.6409 69.9034L76.1726 68.9953ZM75.7678 60.1001L75.8335 60.3189L76.3805 59.8594L75.7678 59.5311L75.5709 58.8309L74.6518 59.553L75.7678 60.1001ZM77.2668 69.2032L76.4462 68.3607L76.2492 69.6189L77.2668 69.2032ZM75.2536 70.166L75.9538 70.7896L76.1726 70.0456L75.2536 70.166ZM75.4396 65.9646V65.3081L74.6956 65.5488L75.4396 65.9646ZM71.7633 57.2991L71.8399 58.0869L72.2776 57.4961L71.7633 57.2991ZM69.5532 60.1657L69.7939 60.6581L70.0127 60.1438L69.5532 60.1657ZM71.0303 59.6186L71.2819 60.111L71.4789 59.5968L71.0303 59.6186Z" fill="#E9F4E9"/>
<path d="M75.7131 60.7128L77.2449 60.2204L77.0698 59.9688L77.1464 59.5311L76.7854 59.6952L76.2383 59.1482L75.7131 60.7128ZM74.4549 66.621L75.374 66.7961L75.1223 65.9536L74.4549 66.621ZM73.0325 66.4241L73.1748 67.2775L73.6562 66.8727L73.0325 66.4241ZM68.7873 62.0476L69.4438 62.4853L69.4548 61.6865L68.7873 62.0476ZM72.2885 63.9076L73.0544 64.1264L72.8356 63.3605L72.2885 63.9076ZM74.9144 61.6647L75.0785 60.8113L74.247 61.0957L74.9144 61.6647ZM74.5315 63.3059L73.4374 63.1417L74.061 64.0827L74.5315 63.3059ZM72.8028 65.9646L72.0369 65.9864L72.5839 66.5663L72.8028 65.9646ZM72.6277 67.004L71.8618 66.9383L72.3323 67.562L72.6277 67.004ZM72.8465 70.7021L72.1135 70.9647L72.8028 71.3476L72.8465 70.7021ZM68.6451 57.8681L68.3716 58.7105L69.225 58.3166L68.6451 57.8681ZM60.0672 54.8045L59.8046 55.6361L60.6471 55.2422L60.0672 54.8045ZM68.6779 54.4763L68.4153 55.3188L69.2688 54.9139L68.6779 54.4763ZM66.6429 52.5069L66.3803 53.3493L67.2337 52.9554L66.6429 52.5069ZM62.7369 58.6339L62.4743 59.4764L63.3277 59.0716L62.7369 58.6339ZM72.5621 60.9972L72.1244 62.3321L73.4811 61.6975L72.5621 60.9972Z" fill="#E9F4E9"/>
<path d="M74.433 66.621L74.5752 67.4963L75.1551 66.9493L74.433 66.621ZM76.3149 70.2754L77.792 70.9756L77.5731 69.6189L76.3149 70.2754ZM74.7394 70.6364L73.9735 71.3804L74.8488 71.7853L74.7394 70.6364ZM73.7109 66.9493L74.3345 67.3869L74.4221 66.5991L73.7109 66.9493ZM73.328 56.3034L73.9297 56.6317L74.072 55.8658L73.328 56.3034ZM76.2821 65.5488L75.9757 65.7129L76.0304 65.3847L75.5928 65.3518L75.8773 65.7457L75.2427 65.9646L76.3587 66.6648L76.2821 65.5488ZM74.061 64.017V64.8923L74.7175 64.5641L74.061 64.017ZM71.2382 64.6954L71.7853 64.586L71.457 64.1483L71.2382 64.6954ZM71.2163 62.3977L71.7634 62.3868L71.5227 61.8944L71.2163 62.3977ZM80.3194 78.8095L80.4288 77.3106L79.2253 78.2078L80.3194 78.8095ZM83 81.4901L82.1575 80.9212L82.2669 81.9278L83 81.4901ZM80.6804 80.3632L79.838 79.7942L79.9474 80.8008L80.6804 80.3632ZM78.5688 79.1378L77.7373 78.5688L77.8467 79.5754L78.5688 79.1378ZM73.8094 77.0589L72.9778 76.49L73.0872 77.4966L73.8094 77.0589ZM79.8708 82.0919L79.3566 81.9278L79.5754 82.4311L79.8708 82.0919ZM82.5842 84.4442L82.059 84.2801L82.2779 84.7834L82.5842 84.4442ZM76.2383 77.8248L75.4724 78.0108L76.0195 78.5579L76.2383 77.8248ZM71.9713 80.2866L71.6649 80.7461L72.212 80.8227L71.9713 80.2866ZM75.4396 82.4092L75.0457 82.814L75.5709 82.9781L75.4396 82.4092ZM73.7437 53.8198L72.8465 54.6294L74.0501 54.8702L73.7437 53.8198ZM76.4243 64.4547L76.2055 63.5794L76.862 63.9076L76.7526 63.1417L76.2055 63.47L76.0961 63.0323L74.7831 64.1264L76.4243 64.4547ZM74.8926 57.9556L74.0938 57.1131L73.6562 58.2838L73.4374 58.3932L73.9407 58.8746L74.2142 58.2401L74.8926 57.9556ZM69.1703 68.6561L68.3716 67.8245L67.9339 68.9953L67.7151 69.0828L68.2184 69.5642L68.4919 68.9296L69.1703 68.6561ZM72.9669 55.6798L73.0326 55.3516L72.5621 55.4938L72.759 55.6361L72.5074 56.3691L73.3608 55.9643L72.9669 55.6798ZM73.8203 60.3298L74.1485 59.2029L72.9122 59.4217L72.7262 59.2685L72.5621 59.9578L73.2514 59.8703L73.8203 60.3298ZM74.3674 65.691L73.328 65.1768L73.317 66.4241L73.131 66.5882L73.7875 66.8727L73.8313 66.1834L74.3674 65.691ZM75.7679 62.4087L76.7526 61.2817L75.1442 60.8222L75.7679 62.4087ZM78.2077 57.507L77.8357 60.1329L76.3368 58.4917L78.2077 57.507Z" fill="#E9F4E9"/>
<path d="M77.5513 61.9601L77.3325 64.1155L74.7942 62.4524L77.5513 61.9601ZM77.1903 66.5116L77.5404 69.1922L75.199 68.1637L77.1903 66.5116ZM77.8249 71.5118L78.3719 73.3936L76.118 72.8137L77.8249 71.5118ZM77.803 60.111L77.4529 61.7741L76.5776 60.6799L77.803 60.111ZM77.2997 64.4875V66.3475L75.7679 65.0345L77.2997 64.4875ZM75.8445 75.6147L75.1662 75.9758L75.9539 76.304L75.8445 75.6147ZM76.0633 74.1267L76.2275 74.3018L76.501 73.6453L75.8117 73.6124L75.3193 73.0654L74.816 74.1157L76.0633 74.1267Z" fill="#E9F4E9"/>
<path d="M76.9167 75.4834L77.8139 74.1486L77.5185 74.0392L77.3216 73.6562L77.1246 74.0064L76.3587 73.9188L76.9167 75.4834ZM76.8949 76.7198L76.49 75.9539L76.0196 76.6979L76.8949 76.7198ZM73.1092 72.3433L72.3214 71.468L72.1573 72.6496L73.1092 72.3433ZM75.1114 73.4702L74.0173 73.0654L74.1267 74.3127L73.9626 74.4878L74.6191 74.7066L74.5863 74.0173L75.1114 73.4702ZM78.6564 76.6213L78.3282 75.3084L77.4091 76.2165L78.6564 76.6213ZM79.5317 75.6913L80.1882 76.9496L78.9518 77.0589L79.5317 75.6913ZM80.8118 77.9343L81.5339 79.1049L80.5164 78.9956L80.8118 77.9343ZM78.4047 73.6125L79.1706 75.1442L77.8139 74.816L78.4047 73.6125ZM74.7504 40.5481L75.8664 42.0252L73.8423 41.9158L74.7504 40.5481ZM75.4944 53.8089L74.2909 54.7061L75.757 55.0343L75.4944 53.8089ZM77.3982 56.1613L75.9539 57.2007L77.7264 57.8571L77.3982 56.1613ZM76.0852 49.2683L74.5535 49.9248L76.0086 50.7125L76.0852 49.2683Z" fill="#E9F4E9"/>
<path d="M77.234 54.5857L75.9867 53.601L75.6585 55.3954L77.234 54.5857ZM78.175 55.1109L77.5185 54.1262L77.1137 55.3297L78.175 55.1109Z" fill="#E9F4E9"/>
<path d="M76.2493 55.078L76.7526 55.8658L77.1902 55.2093L76.2493 55.078ZM76.6869 52.0911L76.6432 51.4346L75.921 51.7191L76.6869 52.0911ZM75.7679 52.8132L76.6979 52.9226L76.3915 52.0911L75.7679 52.8132ZM74.3017 52.7257L74.5206 53.5791L74.9582 53.1415L74.3017 52.7257ZM71.6977 53.6666L72.4964 53.7104L72.1026 53.0102L71.6977 53.6666ZM75.2755 50.2749L74.1595 50.3843L74.991 51.1501L75.2755 50.2749ZM74.072 52.288L73.3061 52.3537L73.875 52.9007L74.072 52.288ZM73.8313 52.9445L73.0654 52.9007L73.5468 53.5244L73.8313 52.9445Z" fill="#E9F4E9"/>
<path d="M75.7679 53.1962L76.0961 54.0167L76.5338 53.3603L75.7679 53.1962ZM77.1137 55.7455L78.4047 56.752L78.4813 55.3735L77.1137 55.7455ZM75.6257 55.3953L74.7066 55.9096L75.4287 56.5332L75.6257 55.3953ZM75.0239 53.2071L75.6804 53.6119L75.7241 52.8242L75.0239 53.2071ZM77.4857 51.6316L77.1902 51.8176L77.2231 51.4675H76.7854L77.1137 51.8395L76.49 52.0911L77.6498 52.7257L77.4857 51.6316ZM75.0567 51.0626L75.2537 51.9051L75.8007 51.4456L75.0567 51.0626Z" fill="#E9F4E9"/>
<path d="M77.3543 50.9532L76.9385 50.1545L77.6606 50.3186L77.3762 49.5965L76.9166 50.0342L76.6978 49.6293L75.6693 50.997L77.3543 50.9532ZM75.6037 51.9051L74.5096 51.4675L74.5862 52.7147L74.422 52.8898L75.0785 53.1305V52.4303L75.6037 51.9051Z" fill="#E9F4E9"/>
<path d="M78.1203 48.021L78.4157 50.1655L75.5491 49.1588L78.1203 48.021ZM78.6126 52.5616L78.4594 55.2531L76.3478 53.8089L78.6126 52.5616ZM78.4594 50.5156L78.5688 52.3756L76.9277 51.172L78.4594 50.5156Z" fill="#E9F4E9"/>
</svg>
