<svg width="37" height="21" viewBox="0 0 37 21" fill="none" xmlns="http://www.w3.org/2000/svg">
<path d="M14.597 12.6949L14.0259 12.8853L14.2162 12.2506L14.597 12.6949ZM11.995 14.2183L11.2334 13.647L11.995 13.2662V14.2183ZM14.597 3.42761L15.4221 2.60243L15.9298 3.87192L14.597 3.42761ZM13.6451 5.77616L12.5662 5.39533L13.2008 4.6971L13.3912 5.26837L13.5816 5.14141L13.6451 5.33185L14.0893 5.14141V5.77616L13.6451 5.39533L13.7085 5.64922H13.5816L13.6451 5.77616Z" fill="#C4412C"/>
<path d="M21.0703 3.80846L22.0223 3.99888L21.4511 4.88752L21.0703 3.80846ZM20.0549 3.49109L20.9434 3.80846L20.2453 4.63362L20.0549 3.49109ZM18.2779 4.18929L19.1664 3.87192L19.1029 4.95099L18.2779 4.18929ZM12.3122 7.29956L13.2007 6.91871V6.98219L14.0257 6.60134V7.74387L13.2007 7.04565L13.2641 7.99776L12.3122 7.29956ZM6.66381 13.0757L5.9657 12.5045L6.66381 12.1871V13.0757ZM10.0909 7.80735L10.9794 8.31514L10.0909 8.94988V7.80735ZM21.705 7.99776H20.6261L21.3242 7.10912L21.705 7.99776ZM21.705 5.26837L22.3396 4.37973L22.7839 5.26837H21.705ZM25.3859 7.87083L26.0206 6.98219L26.4648 7.87083H25.3859ZM18.6586 5.14141L19.4837 5.64922L19.1664 5.90311L19.8645 5.77616L19.6106 6.79175L18.9125 6.09353L18.6586 6.28396V5.14141ZM17.1355 7.1726L16.3105 7.80735V6.66482L17.1355 7.1726ZM31.0343 3.6815L31.542 2.9198L31.9228 3.61803L31.0343 3.6815ZM30.59 6.98219H29.7015L30.2727 6.22049L30.59 6.98219ZM34.0171 2.34854H33.0651L33.6363 1.65031L34.0171 2.34854ZM9.01202 10.6637L9.71011 11.0446L9.01202 11.6158V10.6637ZM0.253872 19.8675L0.951988 20.2484L0.190402 20.7561L0.253872 19.8675ZM0.634665 18.7884L0.888518 19.5501L1.54259e-05 19.4867L0.634665 18.7884ZM3.49058 16.6938L2.79246 17.2016V16.3129L3.49058 16.6938ZM4.88681 19.1058L4.31561 19.0423L4.63293 18.6615L4.88681 19.1058ZM3.74443 18.0268L3.23672 17.8998L3.55405 17.5189L3.74443 18.0268ZM3.23672 19.6136L2.9194 19.2328L3.49058 19.1693L3.23672 19.6136ZM1.01546 19.4232L0.761601 19.0423L1.26931 18.9789L1.01546 19.4232ZM8.82161 9.01336L9.45626 8.50557L9.77358 9.39421L8.82161 9.01336ZM11.741 10.0924L12.566 9.64811L12.6295 10.7907L11.741 10.0924ZM14.8508 15.7417L15.1681 15.8051L15.2316 15.6147L15.4219 15.9956H15.2316L14.9142 16.186L14.8508 15.7417ZM11.0429 9.33073L11.741 9.07684L11.6775 9.71158L11.0429 9.33073ZM9.51973 13.0123L8.88508 12.9488L9.2024 12.5045L9.51973 13.0123ZM3.87137 14.9165L4.37908 15.1704L4.12523 15.4243V16.2495L3.36364 15.6782L3.87137 15.4243V14.9165ZM1.96743 18.0902L1.39625 17.9633L1.71357 17.5824L1.96743 18.0902ZM6.40996 18.5345L6.09264 18.1537L6.66381 18.0268L6.40996 18.5345ZM23.1646 8.1882L23.482 8.75947L22.7839 8.82294L23.1646 8.1882ZM19.6106 9.902L19.1664 9.39421L19.6741 9.26725L19.6106 9.902ZM23.7358 12.8218L23.1646 13.1392V12.5679L23.7358 12.8218ZM18.1509 4.25277L18.5952 4.82404L17.8971 4.95099L18.1509 4.25277ZM22.8473 6.91871L22.9108 7.61693L22.2127 7.36302L22.8473 6.91871ZM17.2624 4.37973L17.6432 4.95099L16.9451 5.07795L17.2624 4.37973ZM12.9468 6.66482L12.4391 6.28396L12.9468 6.03007V6.66482ZM17.7067 8.88642L17.199 9.26725L17.072 8.75947L17.7067 8.88642ZM16.8182 4.06236L16.7547 3.49109L17.2624 3.6815L17.3259 2.53897L18.5952 3.23717L17.2624 4.18929L17.3259 3.74498L16.8182 4.06236ZM20.0549 14.853L19.4837 15.1704V14.4087L20.0549 14.853ZM19.1029 11.0446L18.4683 10.9176L18.976 10.5367L19.1029 11.0446ZM15.9297 14.7261L15.7393 15.2973L15.4219 14.7261H15.9297ZM18.976 8.50557L18.3413 8.82294V8.06124L18.976 8.50557ZM20.1818 6.4109L20.753 6.91871L20.1818 7.1726V6.4109ZM27.6072 3.6815L28.1784 4.18929L27.6072 4.44321V3.6815ZM26.9725 8.75947L26.7187 8.69599L26.9725 8.44209L27.0995 8.69599L27.4802 8.25168L27.7976 9.45769L26.4648 9.2038L26.9725 8.75947ZM26.084 11.235L25.8302 11.8062L25.5763 11.235H26.084ZM31.4151 6.72827L31.0343 6.28396L31.6055 6.09353L31.4151 6.72827ZM24.0531 7.10912L24.5609 7.48998L24.1166 7.74387L24.0531 7.10912ZM26.1475 4.18929L26.7187 3.99888L26.5283 4.57014L26.1475 4.18929ZM21.9588 6.79175L21.578 6.34744L22.1492 6.15701L21.9588 6.79175ZM30.0823 3.17372L30.4631 2.79286L30.59 3.23717L30.0823 3.17372ZM21.6415 5.64922L21.4511 6.03007L21.1338 5.58574L21.6415 5.64922ZM19.6106 3.61803L19.8645 3.87192L19.4837 3.99888L19.6106 3.61803ZM15.4854 7.4265L15.1681 7.23608L15.4219 7.04565L15.4854 7.4265ZM14.7873 11.6158L15.295 11.6793L14.9777 11.9967L14.7873 11.6158ZM17.7067 11.9332L17.3259 11.8697L17.4528 11.5523L17.7067 11.9332ZM15.4854 9.33073L15.1681 9.07684L15.5489 9.01336L15.4854 9.33073ZM13.0738 15.7417L12.693 16.1225L12.566 15.6782L13.0738 15.7417ZM13.2007 13.3931L12.8834 13.1392L13.2641 13.0123L13.2007 13.3931ZM7.86964 12.6949L8.37737 12.7584L8.06005 13.0757L7.86964 12.6949ZM10.789 13.0123H10.4082L10.5352 12.6314L10.789 13.0123ZM8.25043 10.1559L8.63122 10.0924L8.56776 10.4098L8.25043 10.1559ZM5.01373 15.2973H5.39452L5.14066 15.6147L5.01373 15.2973Z" fill="#C4412C"/>
<path d="M7.42545 15.4243L7.10813 15.4878L7.23504 15.1704L7.42545 15.4243ZM5.3311 13.2027L5.64843 13.0758L5.58496 13.3931L5.3311 13.2027ZM23.1012 9.64813L23.4185 9.58466L23.2916 9.96551L23.1012 9.64813ZM28.7496 9.26728L28.1149 8.94991L28.6861 8.44212L28.7496 9.26728ZM31.3516 5.83966L31.0343 6.28399L30.7805 5.64924L31.3516 5.83966ZM25.8302 5.71272L26.0841 5.14143H25.4494L26.0841 4.18931L26.3379 4.82406L27.163 5.26839L26.2745 5.90313V5.52228L25.8302 5.71272ZM26.2745 5.4588V5.20491H26.0841L26.2745 5.4588ZM19.9915 11.5524L19.4203 11.2985L19.9915 10.7907V11.5524ZM22.2762 8.56908L22.0223 7.99779L22.657 8.12475L22.2762 8.56908ZM17.3894 7.49L17.7067 7.93433L17.1355 8.06127L17.3894 7.49ZM34.0172 6.34746L33.7633 5.83966L34.3345 5.77618L34.0172 6.34746ZM32.8113 4.37975L32.494 3.87194L33.1286 3.80848L32.8113 4.37975ZM34.3979 1.7138L34.7787 2.09466L34.3345 2.22161L34.3979 1.7138ZM32.5575 2.09466V2.53899L32.0498 2.34855L32.5575 2.09466ZM27.5438 5.71272L27.7976 6.09355L27.3534 6.15703L27.5438 5.71272ZM24.1167 11.8697L23.2282 11.4889L23.9897 10.7272L24.1167 11.8697ZM26.7187 10.1559L26.211 9.90203L26.6552 9.5212L26.7187 10.1559ZM24.7513 9.58466L25.1956 9.20382L25.259 9.83857L25.0686 9.77509L25.1321 10.0925L24.6244 9.90203L24.8782 9.64813L24.7513 9.58466ZM32.2401 4.88754L31.669 5.64924L31.1612 4.63364L32.2401 4.88754ZM34.271 0L35.3499 0.190416L34.7787 0.888641L34.271 0ZM36.9365 4.69712L36.3019 5.4588L35.8576 4.50668L36.9365 4.69712ZM37 2.85636L36.5557 3.80848L35.7942 3.04678L37 2.85636ZM31.0343 7.80737L30.5901 7.93433L30.7805 7.55348L31.0343 7.80737ZM30.4631 9.64813L29.8285 9.33076L30.3997 8.75949L30.4631 9.64813ZM33.9537 6.85525L33.5729 7.36304L33.2556 6.66484L33.9537 6.85525ZM27.9245 6.4744L28.3688 6.98221L27.6707 7.17263L27.9245 6.4744ZM10.916 14.2818L10.2814 14.4722L10.4083 13.9009L10.916 14.2818ZM15.2951 12.568L14.7873 12.3141L15.2316 11.9332L15.2951 12.568ZM11.6141 6.34746H12.2488L11.9949 7.04567L11.6141 6.34746ZM11.0429 10.0925L11.1064 10.1559H11.6776L11.4237 10.8541L11.2333 10.5368L10.916 10.6003L11.0429 10.0925ZM15.3585 8.5056L15.8662 8.06127L15.9297 8.69601L15.3585 8.5056ZM14.9143 6.03009L15.5489 6.53788L14.9777 6.79178L14.9143 6.03009ZM10.5352 9.07687L10.2814 9.58466L10.6621 9.71161L10.2179 10.1559L10.1544 9.5212L10.2179 9.58466L9.96404 9.01339L10.5352 9.07687ZM9.77363 9.71161L9.51978 10.4098L9.26592 9.96551L8.75819 10.2829L8.82166 9.33076L9.45631 9.71161H9.77363ZM8.88513 13.8375L8.31395 14.0279L8.37742 13.4566L8.88513 13.8375ZM13.3911 11.2985V11.9332L12.8834 11.6793L13.3911 11.2985ZM10.9795 11.362L11.4237 11.8697L10.7256 12.0602L10.9795 11.362ZM7.10813 13.2662L7.61584 13.0123V13.647L7.10813 13.2662ZM12.3122 15.6782L11.8045 16.0591L11.741 15.5513L12.3122 15.6782ZM9.39284 14.4722L8.75819 14.5992L9.01207 14.0279L9.39284 14.4722ZM10.1544 17.6459L9.71016 17.9633L9.58325 17.519L10.1544 17.6459ZM7.04466 12.5045L7.42545 12.8219L6.91772 13.1392L7.04466 12.5045ZM4.12528 14.6626L4.50607 14.3453L4.56954 14.9165L4.12528 14.6626ZM8.75819 15.8052L8.44087 16.2495L8.25048 15.8052H8.75819ZM7.36198 11.4889L7.80622 10.9811L7.17157 10.7907L7.74277 10.2194L8.0601 11.0446H7.99663L8.31395 11.9332L7.29851 11.6159L7.10813 12.1236L6.72733 11.4254H7.42545L7.36198 11.4889ZM6.02922 15.1704L6.53693 15.5513L6.2196 15.6147V15.9321L5.77536 15.6147L5.96575 15.5513L6.02922 15.1704ZM10.9795 13.647L10.4717 13.3931L10.9795 13.0123V13.647ZM36.2384 4.12585L35.0326 4.25279L35.5403 3.49111L36.2384 4.12585ZM5.96575 13.3297L6.98119 14.3453L5.45804 14.9165L5.96575 13.3297ZM28.813 5.14143L28.3688 3.61804L29.8285 4.18931H29.765L30.8439 4.37975L30.2727 5.14143L29.892 4.31627L28.813 5.14143ZM22.7204 4.06237L24.3705 4.18931L23.2916 5.4588L22.7204 4.06237Z" fill="#C4412C"/>
</svg>
