<svg width="45" height="39" viewBox="0 0 45 39" fill="none" xmlns="http://www.w3.org/2000/svg">
<path d="M32.8688 11.5514L32.377 10.5683L31.6393 11.5514H32.8688ZM34.4262 10.9779L33.7705 10.0767L33.1147 11.1417L34.4262 10.9779Z" fill="#084C4F"/>
<path d="M36.8033 9.25748L35.8197 8.68401L35.7377 9.91288L36.8033 9.25748ZM35.3278 10.4044L34.3442 9.83097L34.2623 11.0598L35.3278 10.4044ZM41.7213 5.73473L40.7377 5.16125L40.6557 6.39012L41.7213 5.73473ZM31.3934 13.2718L32.7869 12.2068L31.1475 11.3056L31.3934 13.2718ZM31.0656 11.2237L29.8361 11.4695L30.5738 12.6983L31.0656 11.2237ZM29.2623 7.61899L29.3443 8.27439L29.918 7.78285L29.2623 7.61899ZM30.9016 10.0767L31.0656 10.7321L31.5574 10.2406L30.9016 10.0767ZM36.8852 7.70092L37.1311 8.27439L37.541 7.78285L36.8852 7.70092ZM35 6.88167L35.2459 7.45514L35.6557 6.88167H35ZM41.5574 3.44084L41.8033 4.01431L42.2951 3.52275L41.5574 3.44084ZM34.4262 9.09363L34.6721 9.66711L35.1639 9.17556L34.4262 9.09363ZM24.5902 18.0234L24.0984 17.45L23.7705 18.1873L24.5902 18.0234ZM25.4098 16.6307L24.4262 16.8765L25.1639 17.7777L25.4098 16.6307ZM27.0492 15.0741L25.9836 15.1561L26.6393 16.2211L27.0492 15.0741Z" fill="#084C4F"/>
<path d="M24.5902 16.6307L23.7705 16.8765L24.3443 17.6138L24.5902 16.6307ZM25.1639 12.4526L25.8197 13.4356L26.4754 12.2887L25.1639 12.4526ZM23.9344 14.5007L24.5902 15.4838L25.2459 14.3368L23.9344 14.5007ZM27.8689 11.7152L28.3607 12.7803L29.2623 11.7152H27.8689ZM27.0492 8.68401L26.9672 9.33941L27.7049 9.17557L27.0492 8.68401ZM31.4754 8.11054L30.9016 8.19247L31.2295 8.68401L31.4754 8.11054ZM29.0164 13.1899L28.8525 12.6983L28.3607 13.1899H29.0164ZM20.7377 9.58519V10.2406L21.3935 9.99481L20.7377 9.58519ZM25.1639 8.68401L24.5902 8.84786L25 9.33941L25.1639 8.68401ZM23.0328 14.0091L22.7869 13.4356L22.3771 14.0091H23.0328ZM14.0984 19.4981L13.8525 20.1535L14.5902 20.0716L14.0984 19.4981ZM18.5246 19.7439H17.9508L18.1967 20.3173L18.5246 19.7439ZM15.164 24.3316L15.082 23.7582L14.5082 24.1678L15.164 24.3316ZM23.9344 7.20937L23.8525 7.9467L24.5902 7.70092L23.9344 7.20937ZM28.4426 6.6359L27.8689 6.71782L28.1967 7.2913L28.4426 6.6359ZM25.9836 11.7972L25.7377 11.2237L25.3279 11.7152L25.9836 11.7972ZM38.6885 1.63849L38.9344 2.29388L39.4262 1.72041L38.6885 1.63849ZM36.6393 2.94928V3.68661L37.377 3.35891L36.6393 2.94928ZM40.9836 1.88426L40.4098 2.04812L40.8197 2.53966L40.9836 1.88426ZM39.1803 7.2913L38.9344 6.71782L38.5246 7.2913H39.1803ZM41.1475 0L40.6557 0.491541L41.3115 0.819247L41.1475 0ZM45 2.29388L44.5082 2.04812L44.4262 2.70351L45 2.29388ZM39.918 4.83355L40.082 4.342L39.4262 4.42393L39.918 4.83355ZM30.4918 5.07933L30.5738 5.81665L31.2295 5.40702L30.4918 5.07933ZM34.6721 3.52275L34.1803 3.76853L34.5902 4.17815L34.6721 3.52275ZM33.4426 9.09364L33.1148 8.6021L32.7869 9.17557L33.4426 9.09364ZM33.4426 1.96619V2.62159L34.0984 2.29388L33.4426 1.96619ZM37.7869 0.819247L37.2131 0.983094L37.6229 1.47464L37.7869 0.819247ZM35.9836 6.22627L35.7377 5.73473L35.3279 6.22627H35.9836ZM26.2295 15.4018L25.5738 14.8284L25.2459 15.7295L26.2295 15.4018Z" fill="#084C4F"/>
<path d="M27.0491 14.091L25.7377 13.5995L25.8196 15.1561L27.0491 14.091Z" fill="#084C4F"/>
<path d="M27.459 13.9272L27.0491 13.1899L26.4754 13.9272H27.459ZM29.4262 14.7465L28.8524 13.8453L28.2786 14.8284L29.4262 14.7465Z" fill="#084C4F"/>
<path d="M28.7705 13.108L28.3607 13.5176L28.9345 13.7633L28.7705 13.108ZM29.3443 14.8284L31.2295 13.4356L29.1803 12.0429L29.3443 14.8284ZM27.3771 16.2211L28.9345 15.0741L27.0492 14.0091L27.3771 16.2211ZM25.4918 17.8596L27.0492 16.7126L25.164 15.6476L25.4918 17.8596ZM24.0984 19.0065L25.4099 17.9415L23.7705 17.1223L24.0984 19.0065ZM23.0328 15.4838L22.3771 14.5826L21.8033 15.7295L23.0328 15.4838Z" fill="#084C4F"/>
<path d="M23.6886 18.4331L23.1148 17.5319L22.4591 18.5969L23.6886 18.4331ZM23.9345 17.1223L23.2787 16.2211L22.623 17.2861L23.9345 17.1223ZM22.3771 16.7126L21.1476 16.9584L21.9673 18.1873L22.3771 16.7126ZM21.0656 18.5969L19.8361 18.9246L20.6558 20.0716L21.0656 18.5969ZM20.9836 17.9415L20.3279 17.0403L19.7541 18.1873L20.9836 17.9415ZM22.541 19.4981L21.8853 18.5969L21.2295 19.6619L22.541 19.4981Z" fill="#084C4F"/>
<path d="M19.754 15.0741L19.918 15.6476L20.4098 15.1561L19.754 15.0741ZM22.1311 20.7269L23.9344 19.1704L21.4753 17.9415L22.1311 20.7269ZM14.9999 26.6255L14.5081 26.0521L14.1803 26.7894L14.9999 26.6255ZM15.9016 25.2328L14.836 25.4786L15.5737 26.3798L15.9016 25.2328Z" fill="#084C4F"/>
<path d="M18.1147 23.8401L17.0491 23.922L17.6229 24.9051L18.1147 23.8401ZM14.9999 25.2328L14.1803 25.4786L14.754 26.2159L14.9999 25.2328ZM16.3114 21.1366L16.8852 22.1197L17.6229 21.0547L16.3114 21.1366ZM18.6885 19.2523L19.3442 20.2354L20.0819 19.0885L18.6885 19.2523ZM17.0491 16.7126V17.368L17.7868 17.0403L17.0491 16.7126ZM21.3114 15.3199L20.8196 15.4838L21.2294 15.9753L21.3114 15.3199ZM19.836 20.8089L19.5081 20.3173L19.1803 20.8908L19.836 20.8089ZM17.213 24.3316L16.5573 23.7582L16.2294 24.7413L17.213 24.3316Z" fill="#084C4F"/>
<path d="M18.1148 22.857L16.8853 22.3654V23.8401L18.1148 22.857ZM18.4426 22.3654L17.9508 21.71L17.3771 22.5293L18.4426 22.3654ZM20.4918 22.2016L19.8361 21.3823L19.3443 22.4473L20.4918 22.2016ZM19.7541 20.645L19.3443 21.0546L19.918 21.3004L19.7541 20.645Z" fill="#084C4F"/>
<path d="M20.4918 22.2016L22.2131 20.645L20 19.4981L20.4918 22.2016ZM18.5246 23.922L20 22.6112L18.1147 21.6281L18.5246 23.922ZM15.9836 26.3797L17.377 25.0689L15.4098 24.1678L15.9836 26.3797ZM14.5902 27.6905L15.7377 26.5436L14.0983 25.8882L14.5902 27.6905ZM9.67212 22.6931L9.34425 23.3485H10.082L9.67212 22.6931ZM14.0164 23.6762L13.4426 23.5943L13.6065 24.1678L14.0164 23.6762ZM9.99999 27.6905V27.1171L9.42622 27.4448L9.99999 27.6905ZM4.67212 28.5917L4.34426 29.1652H5.16393L4.67212 28.5917ZM9.09834 29.2471L8.52458 29.1652L8.68851 29.8206L9.09834 29.2471ZM5.32786 33.5072L5.24589 32.9337L4.67212 33.2614L5.32786 33.5072ZM0.0819596 34.3264L0 34.9818L0.737699 34.818L0.0819596 34.3264ZM4.59015 33.753L4.01638 33.8349L4.34426 34.4084L4.59015 33.753ZM2.13114 38.8323L1.88525 38.3408L1.47541 38.8323H2.13114ZM10.1639 30.8037L9.75408 30.2302L9.34425 30.9675L10.1639 30.8037ZM11.0656 29.4929L10.082 29.9025L10.9016 30.7218L11.0656 29.4929ZM9.09834 31.2133L8.11474 31.6229L9.01638 32.4422L9.09834 31.2133Z" fill="#084C4F"/>
<path d="M13.1147 28.0182L12.0491 28.1002L12.6229 29.1652L13.1147 28.0182ZM10.2458 29.411L9.34419 29.6567L9.99993 30.3941L10.2458 29.411ZM7.70485 34.0807L6.88517 33.8349L7.04911 34.7361L7.70485 34.0807ZM5.24583 36.4565L4.3442 36.2926L4.59009 37.1938L5.24583 36.4565ZM4.3442 37.3577L3.44256 37.1938L3.68846 38.095L4.3442 37.3577ZM11.3934 25.3147L11.9671 26.2978L12.7868 25.2328L11.3934 25.3147ZM12.213 28.5098L11.5573 27.9363L11.2294 28.8375L12.213 28.5098ZM13.1966 27.1171L11.9671 26.5436L11.8852 28.0182L13.1966 27.1171Z" fill="#084C4F"/>
<path d="M13.5245 26.6255L13.0327 25.8882L12.459 26.7074L13.5245 26.6255ZM12.9508 29.0833L14.5081 27.7725L12.5409 26.8713L12.9508 29.0833ZM11.3114 30.7218L12.7868 29.411L10.8196 28.5098L11.3114 30.7218ZM9.75404 32.1964L10.9835 31.1314L9.3442 30.394L9.75404 32.1964ZM5.40978 36.2926L6.47535 35.0638L4.75405 34.4903L5.40978 36.2926ZM7.86879 33.9987L8.93436 32.8518L7.29502 32.1964L7.86879 33.9987Z" fill="#084C4F"/>
</svg>
