<svg width="61" height="20" viewBox="0 0 61 20" fill="none" xmlns="http://www.w3.org/2000/svg">
<path d="M17.618 9.66298L17.4286 9.09456L16.8603 9.53666L17.618 9.66298ZM14.0818 11.4314L14.9659 10.9893L14.0186 10.2945L14.0818 11.4314ZM29.6791 15.5997L30.8158 15.4734L30.1211 14.3366L29.6791 15.5997ZM25.7008 15.9786L26.8375 15.8523L26.1429 14.7787L25.7008 15.9786ZM13.2609 16.6102L14.4607 16.4839L13.7029 15.3471L13.2609 16.6102Z" fill="#870F34"/>
<path d="M14.0187 16.926L14.9659 16.7997L14.3344 15.8523L14.0187 16.926ZM34.4783 15.0945L35.6149 14.9682L34.9203 13.7682L34.4783 15.0945ZM28.9845 11.5577L29.9317 10.9893L28.7951 10.2314L28.9845 11.5577ZM22.4804 14.526L23.4276 13.9576L22.4172 13.1998L22.4804 14.526ZM19.6387 14.2103L20.6491 13.705L19.5756 12.884L19.6387 14.2103ZM11.4296 17.2418L12.3137 16.7997L11.4296 16.105V17.2418ZM19.4493 16.105L19.5124 14.9682L18.3127 15.3471L19.4493 16.105ZM34.4151 11.6208V10.4209L33.2153 10.9261L34.4151 11.6208ZM38.7092 14.526L38.7723 13.3892L37.5725 13.8313L38.7092 14.526ZM40.6667 11.1787L40.7299 10.0419L39.5301 10.484L40.6667 11.1787ZM34.0363 3.47362L34.0994 2.27363L32.8996 2.65258L34.0363 3.47362ZM27.9742 10.2946L28.0373 9.15773L26.8375 9.53666L27.9742 10.2946ZM25.2588 11.7472L25.3851 10.6103L24.1222 10.9893L25.2588 11.7472ZM42.0559 14.1471V12.9471L40.8561 13.3892L42.0559 14.1471ZM48.939 13.0734L49.0021 12.1261L47.9286 12.505L48.939 13.0734ZM45.7816 10.0419L45.8448 9.09457L44.8344 9.47351L45.7816 10.0419Z" fill="#870F34"/>
<path d="M50.9596 12.884V11.9366L49.9493 12.3787L50.9596 12.884ZM16.6708 16.7365L16.7339 15.7892L15.7236 16.105L16.6708 16.7365ZM15.471 15.5997L15.5342 14.6524L14.5238 14.9682L15.471 15.5997ZM1.64181 18.1892L1.57867 17.2418L0.568312 17.6839L1.64181 18.1892ZM1.07349 19.1997L0.378871 18.5049L-1.53487e-05 19.5154L1.07349 19.1997ZM3.91511 18.1892L4.86231 18.126L4.29399 17.1786L3.91511 18.1892ZM3.72566 14.2103L4.29399 14.1471L3.97826 13.5787L3.72566 14.2103ZM4.10455 16.0418L4.67287 15.9787L4.35713 15.4103L4.10455 16.0418ZM3.47308 15.0945L3.78881 15.5997L4.16769 15.0945H3.47308ZM2.52587 17.5576L2.77846 17.9997L3.15734 17.4944L2.52587 17.5576ZM18.2495 16.2313L19.1335 15.7892L18.2495 15.0945V16.2313ZM17.9969 13.3892L19.0072 12.884L17.9337 12.0629L17.9969 13.3892ZM5.99896 17.9997L6.88301 17.5576L5.93581 16.8629L5.99896 17.9997ZM14.1449 6.31567L14.5238 6.69461L14.7764 6.1262L14.1449 6.31567ZM19.0072 14.1471L18.3126 13.705L18.2495 14.5892L19.0072 14.1471ZM17.4286 15.3471L17.618 14.7155L16.8602 14.8418L17.4286 15.3471Z" fill="#870F34"/>
<path d="M13.0714 14.1479H13.7661L13.4503 13.4531L13.0714 14.1479ZM12.9452 2.90595L12.8189 2.4007L12.3768 2.77964L12.9452 2.90595ZM10.1667 4.35856L10.5456 4.16909L10.1035 3.91646L10.1667 4.35856ZM10.3561 0.253368L10.6719 0.569152L10.8613 0.127056L10.3561 0.253368ZM7.51451 17.5583L7.6408 16.8636L6.8199 16.9899L7.51451 17.5583ZM2.65219 17.7478H3.28366L2.96793 17.1162L2.65219 17.7478ZM5.68325 12.5058L5.87269 13.0742L6.44101 12.6321L5.68325 12.5058ZM36.8779 11.1163L36.941 10.3585L36.1201 10.6111L36.8779 11.1163ZM31.6998 11.6848L32.3944 11.6216L31.9524 10.9269L31.6998 11.6848ZM34.4151 5.74801L34.6677 6.37958L35.1729 5.81117L34.4151 5.74801ZM28.8582 11.6216L28.6056 10.8637L27.911 11.4321L28.8582 11.6216ZM37.0673 12.6953L36.8147 11.8742L36.1832 12.5058L37.0673 12.6953ZM27.3427 12.5058L27.0901 11.6848L26.3955 12.3163L27.3427 12.5058ZM22.7329 15.6636L23.3013 15.411L22.6698 14.9057L22.7329 15.6636ZM24.4379 15.2847L25.0694 14.9689L24.4379 14.4637V15.2847ZM23.1118 9.09532L23.5538 9.60058L23.8064 8.90585L23.1118 9.09532ZM28.0373 13.0742L28.5425 13.5163L28.795 12.8216L28.0373 13.0742ZM27.2795 15.0952L27.7847 15.6005L28.0373 14.9057L27.2795 15.0952ZM31.1315 3.91646L30.3737 3.8533L30.6263 4.7375L31.1315 3.91646ZM32.0155 9.15848L31.8892 8.52691L31.2578 8.90585L32.0155 9.15848ZM25.9534 6.19011L26.5849 5.93748L26.0166 5.43222L25.9534 6.19011ZM32.0155 12.8216L31.1946 12.7584L31.5735 13.6426L32.0155 12.8216ZM33.9099 13.011L33.1522 12.9479L33.5311 13.7689L33.9099 13.011ZM44.5186 13.2637L43.6977 13.2005L44.0766 14.0847L44.5186 13.2637ZM33.6574 14.2742L32.8996 13.3268L32.3313 14.5268L33.6574 14.2742ZM41.677 9.09532L41.4244 7.64271L40.0984 8.52691L41.677 9.09532ZM61 8.33744L59.5476 8.08482L59.8634 9.60058L61 8.33744ZM38.0145 6.75852L38.646 6.5059L38.0777 6.00064L38.0145 6.75852ZM46.9182 9.03217L46.6656 9.60058L47.4234 9.53742L46.9182 9.03217ZM38.7723 11.2427L38.1408 11.1795L38.3934 11.9374L38.7723 11.2427ZM42.3716 13.5163L42.1822 14.1479H42.94L42.3716 13.5163ZM36.1832 13.2637L35.9306 13.8952L36.6884 13.8321L36.1832 13.2637Z" fill="#870F34"/>
<path d="M29.2371 7.57881L28.732 7.51565L28.9214 8.08407L29.2371 7.57881ZM29.8055 10.9261L29.6792 10.484L29.3003 10.7367L29.8055 10.9261ZM25.8903 9.03142L26.2692 8.84195L25.9535 8.52616L25.8903 9.03142ZM19.5125 10.2946L19.8282 10.7367L20.0808 10.2314L19.5125 10.2946ZM21.5963 7.76828L21.3438 8.08407L21.7858 8.21038L21.5963 7.76828ZM22.9224 11.8735L22.5435 11.684V12.1893L22.9224 11.8735ZM12.6926 8.27353L13.0083 8.71564L13.2609 8.21038L12.6926 8.27353ZM14.7765 5.74726L14.5239 6.06304L14.9659 6.18937L14.7765 5.74726ZM16.1026 9.85245L15.7237 9.66299V10.1682L16.1026 9.85245ZM12.3137 14.8418L12.6295 15.2839L12.9452 14.7155L12.3137 14.8418ZM14.3976 12.3156L14.145 12.6313L14.6502 12.7577L14.3976 12.3156ZM15.7868 16.4208L15.3448 16.2313L15.4079 16.6734L15.7868 16.4208ZM7.704 15.8523L7.95659 16.1681L8.20918 15.7892L7.704 15.8523ZM9.53526 13.7682L9.28267 14.0208L9.7247 14.1471L9.53526 13.7682ZM10.6088 17.0523L10.293 16.926V17.305L10.6088 17.0523ZM17.3023 0.82104V1.38945L17.8707 1.19997L17.3023 0.82104ZM23.0487 2.3368L22.6067 2.39996L22.8593 2.77889L23.0487 2.3368ZM20.0177 6.18937L19.8282 5.81042L19.5125 6.18937H20.0177ZM30.9421 0.315784L30.6895 0L30.5001 0.378935L30.9421 0.315784ZM26.9638 3.22099L27.2164 2.90521L26.7744 2.77889L26.9638 3.22099ZM42.8769 6.88408L42.3717 7.4525L43.2558 7.76828L42.8769 6.88408ZM47.6129 9.41036L46.9814 9.09457V9.85245L47.6129 9.41036ZM41.9928 12.5682L42.056 11.9366L41.3614 12.0629L41.9928 12.5682ZM31.5736 8.9051L31.0684 9.47351L31.9524 9.72614L31.5736 8.9051ZM36.2464 11.4314L35.6781 11.1156V11.8735L36.2464 11.4314ZM30.6264 14.5892L30.7527 13.8945L29.9949 14.0208L30.6264 14.5892ZM48.6233 9.15773L48.497 9.7893L49.2547 9.59983L48.6233 9.15773ZM49.5705 10.9261L49.5073 11.6208L50.2019 11.3682L49.5705 10.9261ZM52.2226 11.5577L51.6543 11.6208L51.9701 12.1261L52.2226 11.5577ZM43.0032 11.8735L43.1295 11.3051L42.498 11.4314L43.0032 11.8735ZM38.0777 8.14722L37.6357 8.58932L38.3303 8.9051L38.0777 8.14722ZM36.057 6.69461L35.2992 7.51565L36.499 8.02091L36.057 6.69461Z" fill="#870F34"/>
<path d="M39.8458 7.38934L39.4038 7.89459L40.1615 8.08406L39.8458 7.38934ZM38.3303 8.39985L37.8882 8.84194L38.646 9.09457L38.3303 8.39985ZM48.1812 8.463L47.1708 7.95774L47.1077 9.22088L48.1812 8.463ZM54.8748 11.4945L53.8013 10.9893V12.2524L54.8748 11.4945ZM51.4648 9.72614L50.4545 9.22088L50.3913 10.484L51.4648 9.72614ZM52.3489 11.0524L51.3385 10.5472L51.2754 11.8103L52.3489 11.0524ZM47.4234 11.8103L46.3499 11.3051L46.2868 12.5682L47.4234 11.8103ZM46.6657 7.89459L46.792 7.51565L46.2868 7.57881L46.6657 7.89459Z" fill="#870F34"/>
<path d="M35.1729 4.29466L34.5415 4.86306L35.5518 5.24201L35.1729 4.29466ZM40.351 7.4525L39.6564 7.07355L39.5932 7.89459L40.351 7.4525ZM33.7205 10.6103L33.91 9.85245L33.0891 9.97877L33.7205 10.6103ZM17.4286 14.0208L17.8706 13.3892L16.9866 13.1366L17.4286 14.0208ZM12.6294 11.684L13.1978 11.9998V11.2419L12.6294 11.684ZM18.0601 8.27353L17.9969 8.96826L18.6915 8.77878L18.0601 8.27353ZM19.9545 16.4839L21.1543 16.3576L20.5228 15.0945L19.9545 16.4839ZM23.4276 16.1681L24.5642 16.105L23.9959 14.8418L23.4276 16.1681ZM17.3655 16.7365L18.5653 16.6102L17.9338 15.3471L17.3655 16.7365ZM15.7868 13.8945L16.4183 14.2103V13.4524L15.7868 13.8945ZM21.2806 10.484L21.2174 11.1787L21.912 10.9893L21.2806 10.484ZM20.0808 11.3682L19.3862 11.7472L20.0808 12.3156V11.3682ZM23.617 15.4734L23.175 14.9682L22.8593 15.6629L23.617 15.4734ZM17.0497 16.1681L17.4286 15.6629L16.6708 15.5366L17.0497 16.1681Z" fill="#870F34"/>
<path d="M16.4814 16.1681L16.9866 15.5366L16.1025 15.2839L16.4814 16.1681ZM11.6191 13.9576L12.2505 14.2103V13.4524L11.6191 13.9576ZM17.3023 10.5472L17.176 11.1787L17.9338 10.9893L17.3023 10.5472ZM16.2288 13.1998L15.9762 12.4419L15.2816 13.0103L16.2288 13.1998ZM11.4928 15.5997L12.1242 15.2839L11.4928 14.8418V15.5997ZM12.0611 9.15773L12.5031 9.59983L12.8189 8.9051L12.0611 9.15773ZM11.4928 12.9471L11.3665 12.3156L10.735 12.7577L11.4928 12.9471ZM7.64081 14.905L8.08284 14.6524L7.57766 14.2734L7.64081 14.905ZM8.08284 9.53667L8.46172 9.91561L8.71431 9.3472L8.08284 9.53667ZM12.2505 16.2313L12.1874 15.5997L11.4928 15.9155L12.2505 16.2313ZM7.95654 17.4313L8.52487 17.305L8.08284 16.8629L7.95654 17.4313ZM9.47207 12.2524L9.78781 12.7577L10.1035 12.1893L9.47207 12.2524ZM12.9452 17.1155L13.4503 16.4839L12.5663 16.2945L12.9452 17.1155ZM8.08284 14.905L8.71431 15.1576V14.4629L8.08284 14.905ZM13.7661 11.4945L13.6398 12.1261L14.3975 11.9998L13.7661 11.4945ZM21.2805 14.8418L21.7226 14.2103L20.8385 14.0208L21.2805 14.8418Z" fill="#870F34"/>
<path d="M27.2795 13.4524L27.7216 12.8208L26.8375 12.6313L27.2795 13.4524ZM16.2288 16.1049L16.6708 15.4734L15.7236 15.2839L16.2288 16.1049ZM7.70397 16.4839L8.46173 16.4207L7.95655 15.5997L7.70397 16.4839ZM34.5414 10.9893L35.3623 10.9261L34.8572 10.1682L34.5414 10.9893ZM16.4183 12.8208L16.9866 13.1366L16.9234 12.3155L16.4183 12.8208ZM21.5963 9.09455L21.5331 9.72612L22.2278 9.53665L21.5963 9.09455ZM53.8012 9.4735L53.8644 8.52615L52.7909 8.90508L53.8012 9.4735ZM58.6004 9.41034L58.6636 8.71562L57.9689 8.96824L58.6004 9.41034ZM54.1801 9.91559L54.7485 9.85243L54.3696 9.28402L54.1801 9.91559ZM56.5797 5.05253L56.8323 5.55779L57.2743 5.11568L56.5797 5.05253ZM56.4534 2.71574L55.7588 2.65258L56.0114 3.3473L56.4534 2.71574ZM57.0849 6.94723L57.0217 6.37881L56.4534 6.75776L57.0849 6.94723ZM51.97 4.61044L52.4752 4.42096L52.0331 3.97887L51.97 4.61044ZM51.0228 3.3473L50.3913 3.28414L50.5807 3.97887L51.0228 3.3473ZM51.6543 7.5788L51.5911 7.01038L51.0228 7.38933L51.6543 7.5788ZM46.5393 5.242L47.0445 5.05253L46.6025 4.61044L46.5393 5.242ZM43.1926 12.2524L43.6977 11.6208L42.8137 11.3682L43.1926 12.2524ZM49.2547 11.5577L49.823 10.9893L48.9389 10.6735L49.2547 11.5577ZM37.9514 12.8208L38.4565 12.2524L37.6356 11.9998L37.9514 12.8208ZM29.4265 12.1892L30.2474 12.2524L29.8686 11.3682L29.4265 12.1892ZM56.8323 9.97875H57.6532L57.2743 9.15771L56.8323 9.97875ZM38.5197 9.66297L39.1512 9.97875V9.22086L38.5197 9.66297ZM44.2029 6.56829L44.0766 7.19985L44.8344 7.07354L44.2029 6.56829ZM10.6087 16.6734L10.3561 14.9681L8.65118 15.9786L10.6087 16.6734Z" fill="#870F34"/>
<path d="M27.2164 14.3997L26.9638 12.6945L25.2589 13.705L27.2164 14.3997ZM45.8448 12.1892L44.1398 11.684L44.3924 13.5787L45.8448 12.1892ZM39.7827 13.2629L39.5301 11.6208L37.8251 12.6313L39.7827 13.2629ZM56.2009 11.5577L55.9483 9.85245L54.2433 10.9261L56.2009 11.5577Z" fill="#870F34"/>
</svg>
