<svg width="31" height="238" viewBox="0 0 31 238" fill="none" xmlns="http://www.w3.org/2000/svg">
<path d="M19.4621 12.6755V238H11.2307V14.5035" fill="#FFD593"/>
<path d="M24.6943 14.405H5.97653C4.39146 14.405 2.87131 13.7753 1.75049 12.6545C0.62967 11.5337 0 10.0135 0 8.42846V5.97653C0 4.39146 0.62967 2.87131 1.75049 1.75049C2.87131 0.62967 4.39146 0 5.97653 0H24.6943C26.2794 0 27.7995 0.62967 28.9203 1.75049C30.0412 2.87131 30.6708 4.39146 30.6708 5.97653V8.42846C30.6679 10.0126 30.0373 11.5311 28.9171 12.6513C27.7969 13.7715 26.2785 14.4021 24.6943 14.405Z" fill="#FFD593"/>
</svg>
