<svg width="29" height="27" viewBox="0 0 29 27" fill="none" xmlns="http://www.w3.org/2000/svg">
<path d="M20.5436 11.2673C23.5278 13.0454 24.4802 16.1571 24.5436 19.9038C24.6071 23.6505 24.0992 24.476 24.0992 24.476C23.7105 24.071 23.2324 23.7624 22.7033 23.575C22.1741 23.3875 21.6085 23.3264 21.0515 23.3965C20.0407 23.5596 19.1313 24.1053 18.5118 24.9205C18.3213 25.0476 18.1308 26.3176 17.8133 26.6351C17.3689 27.1432 16.607 26.8892 16.5435 26.0636C16.4165 24.73 16.4165 20.6023 12.3529 18.0622C11.9719 17.8082 5.36859 16.7921 5.36859 16.7921C4.59241 17.0409 3.87813 17.4522 3.27329 17.9987C2.90923 18.5016 2.68966 19.0945 2.63836 19.7133C1.74945 18.3797 2.82885 14.125 4.47968 12.6644C6.19401 11.0768 9.36869 9.87024 12.6069 9.74323C15.7815 9.55272 18.4483 9.93374 20.5436 11.2673Z" fill="#4F211E"/>
<path d="M24.7976 18.1257C24.7976 18.1257 28.6708 19.1417 28.9882 15.522C29.2422 11.9024 25.3056 12.0294 25.3056 12.0294C25.3056 12.0294 28.4168 10.0607 26.512 7.52061C24.6707 5.10748 22.0674 7.2666 22.0674 7.2666C22.0674 7.2666 23.9722 3.96442 21.242 2.50384C18.8292 1.17027 16.9879 3.83741 16.9879 3.83741C16.9879 3.83741 17.5594 0.344726 14.5117 0.0272087C11.083 -0.353812 11.2735 3.39289 11.2735 3.39289C11.2735 3.39289 10.0671 0.0907135 6.89244 1.36078C4.22571 2.44034 5.43208 5.61551 5.43208 5.61551C4.76587 5.0707 3.91118 4.81166 3.05466 4.89495C2.19813 4.97824 1.40936 5.39708 0.860543 6.06003C-1.29824 8.40966 1.05102 11.4578 3.01932 11.4578C3.15541 11.4473 3.29214 11.4664 3.42015 11.5138C3.54816 11.5611 3.66441 11.6356 3.76092 11.7322C3.85743 11.8287 3.93192 11.945 3.97927 12.073C4.02661 12.201 4.04571 12.3378 4.03523 12.4739L20.7975 17.9987L24.7976 18.1257Z" fill="#4F211E"/>
</svg>
