<svg width="10" height="13" viewBox="0 0 10 13" fill="none" xmlns="http://www.w3.org/2000/svg">
<path d="M7.87245 5.55922V4.875H7.18788L7.87245 5.55922ZM5.21975 3.84869L5.47647 3.07894L4.62076 3.16448L5.21975 3.84869ZM6.24661 5.38817L6.76003 5.98685L7.18788 5.2171L6.24661 5.38817ZM7.10232 6.07237L7.78688 6.92763L8.38588 5.90132L7.10232 6.07237ZM0.941217 0.0855186L1.45465 0.855264L1.96808 0L0.941217 0.0855186ZM7.35902 4.27632L6.33218 3.50658L6.24661 4.61842L7.35902 4.27632ZM3.67949 1.2829L2.65263 0.513151L2.56707 1.53948L3.67949 1.2829ZM8.47145 7.86843L9.49829 6.75658L8.21473 6.58553L8.47145 7.86843Z" fill="#AD5C44"/>
<path d="M9.75508 6.24343L8.55709 5.38816V6.67106L9.75508 6.24343ZM5.3054 2.48026L4.02184 1.53948V2.82238L5.3054 2.48026ZM8.2148 5.73026L8.12924 5.2171L7.70139 5.55921L8.2148 5.73026ZM3.76513 4.27632L4.02184 4.5329L4.19298 4.10527L3.76513 4.27632ZM5.64768 4.27632L5.21983 4.44737L5.56212 4.78947L5.64768 4.27632ZM3.67957 2.30921L3.25171 2.48026L3.50841 2.82238L3.67957 2.30921ZM7.87253 7.35526L8.2148 7.01316L7.70139 6.84211L7.87253 7.35526ZM4.36412 5.55921L4.19298 5.30263L3.93627 5.55921H4.36412ZM7.3591 8.125L8.04366 8.38158L7.9581 7.52632L7.3591 8.125ZM5.64768 9.92104L6.41783 10.0921L6.33225 9.32236L5.64768 9.92104ZM3.50841 12.7434L4.27856 13L4.19298 12.1447L3.50841 12.7434ZM5.3054 8.38158L5.47654 9.15131L6.16111 8.63815L5.3054 8.38158ZM5.3054 11.8881L5.98997 10.8618L4.96313 10.9474L5.3054 11.8881ZM6.7601 10.0921L7.70139 8.89473L6.41783 8.80921L6.7601 10.0921ZM6.50339 8.21052L6.7601 8.125L6.50339 7.86842V8.21052ZM5.47654 6.67106L5.64768 6.84211L5.73326 6.58552L5.47654 6.67106Z" fill="#AD5C44"/>
<path d="M7.8725 6.67105L7.70137 6.8421L7.95808 6.92762L7.8725 6.67105ZM6.76008 7.86841L6.67452 7.44078L6.24667 7.69736L6.76008 7.86841ZM5.30538 10.4342L5.21981 10.0066L4.79195 10.2632L5.30538 10.4342ZM4.1074 9.06578L4.44967 8.89473L4.1074 8.63815V9.06578ZM6.58894 6.24342L6.33223 5.81579L6.07551 6.24342H6.58894ZM5.47652 5.47367L5.30538 5.13157L5.04867 5.55921L5.47652 5.47367ZM4.79195 7.69736L5.04867 7.44078L4.62081 7.35525L4.79195 7.69736ZM3.59397 7.09868L3.85068 6.75657L3.50839 6.67105L3.59397 7.09868ZM2.9094 9.57894L3.25169 9.74999V9.32236L2.9094 9.57894ZM4.3641 11.7171L4.62081 11.8881L4.70639 11.4605L4.3641 11.7171ZM2.99498 3.9342L2.82384 3.50657L2.48155 3.84868L2.99498 3.9342ZM1.19798 2.99342L1.54028 2.82237L1.19798 2.56578V2.99342ZM1.88255 1.62499L2.13927 1.36841L1.71141 1.28289L1.88255 1.62499ZM0 3.50657L0.342278 3.67763V3.25L0 3.50657Z" fill="#AD5C44"/>
</svg>
