<svg width="46" height="61" viewBox="0 0 46 61" fill="none" xmlns="http://www.w3.org/2000/svg">
<path d="M22.978 9.34034L22.8684 10.8422L21.805 10.2502L22.978 9.34034ZM24.2387 12.8484L24.0195 12.7826L24.458 12.4538L23.8003 12.0153L24.5895 11.6864L24.4799 12.4538L24.754 12.3003L24.8636 13.0238L24.2387 12.8375V13.6377L23.581 13.0896L24.2387 12.8484ZM19.0424 15.7207L20.2812 16.6416L18.6148 17.0362L19.0424 15.7207ZM18.2421 18.2092L18.867 18.6697L18.0338 18.867L18.2421 18.2092ZM14.9203 23.4714L15.4466 24.8966L14.0214 24.3703L14.9203 23.4714ZM20.1386 24.6444L20.8403 24.2497L20.6868 25.0171L20.1386 24.6444ZM24.4142 24.7321L24.9952 24.48L24.8636 25.05L24.4142 24.7321ZM31.2659 22.0791L31.7921 21.7173L31.7593 22.3093L31.2659 22.0791Z" fill="#F1F9ED"/>
<path d="M35.2783 21.0486L35.8265 20.6978L35.7827 21.2898L35.2783 21.0486ZM24.458 21.1144L25.0281 20.8184L24.9185 21.3994L24.458 21.1144ZM21.235 21.224L21.827 20.9828L21.6735 21.5529L21.235 21.224ZM20.1058 16.0715L20.2593 16.1811L20.6978 16.51L20.5882 16.6635L21.1802 17.102L20.0401 17.398L20.0729 16.7402L20.1058 16.0715ZM18.2092 19.6892L18.5162 19.3603L18.7355 19.9852L18.4066 19.8756L17.7926 20.7307L17.5734 19.47L18.2092 19.6892ZM12.399 24.1072L13.1664 25.7188L11.3027 25.4118L12.399 24.1072ZM22.1339 11.3136L21.52 11.5L21.8051 10.7874L22.3532 11.3575L23.3947 11.2698L22.7369 12.5853L22.1339 11.3136ZM16.521 19.3165L17.5295 20.6649L15.8632 20.5991L16.521 19.3165ZM13.0129 23.1863L14.6025 23.0329L13.9118 24.7321L13.0129 23.1863ZM17.7708 17.5296L17.5515 17.6392L17.5295 16.9376L18.1874 17.1568L18.8451 16.8279L18.9548 17.99L17.7708 17.5296ZM25.0391 15.2602L23.9647 14.4928L25.0829 13.6706L25.0391 15.2602ZM26.1573 18.1983L25.6091 17.8255L26.234 17.3213L26.1573 18.1983Z" fill="#F1F9ED"/>
<path d="M11.9604 22.8246L13.0896 22.4738L12.6511 23.6797L11.9604 22.8246ZM21.7612 17.672L21.1034 17.4528L21.498 16.9047L21.7612 17.672ZM13.5829 24.1401L12.7278 24.5238V23.7564L13.5829 24.1401ZM14.6572 21.5529L15.0958 21.0486L15.5014 21.7064L14.6572 21.5529ZM23.3179 22.7588L22.6601 23.2302L22.8026 22.5067L23.3179 22.7588ZM21.2788 19.744L20.643 20.2264L20.7745 19.5029L21.2788 19.744ZM18.1654 14.3723L18.8231 13.1663L19.5029 14.3394L18.1654 14.3723ZM22.7697 12.8375L23.3179 13.6049L22.4628 13.6816L22.7697 12.8375ZM26.2779 14.5586L26.9575 15.5672L25.8613 15.6549L26.2779 14.5586ZM20.1386 14.8108L19.459 13.6706L20.0948 13.7145L20.0619 12.6182L21.0157 13.1663L20.2483 13.6926L20.9061 13.8899L20.1386 14.8108ZM23.3179 15.4028L23.7235 13.9776L24.7102 15.0739L23.3179 15.4028ZM27.1549 18.9657L26.9027 19.3165L26.6835 18.878L27.1549 18.9657ZM24.6334 18.6149L24.3812 18.9657L24.1401 18.5271L24.6334 18.6149ZM34.3355 11.4233L33.8312 11.6425L34.0066 11.1163L34.3355 11.4233ZM26.7054 26.7273L26.1572 26.837L26.4423 26.3656L26.7054 26.7273ZM35.9141 18.9876L35.3989 19.174L35.6181 18.6587L35.9141 18.9876ZM36.5938 4.9881L36.0786 5.17445L36.2759 4.65919L36.5938 4.9881ZM19.0972 23.0767L18.549 23.1535L18.856 22.6821L19.0972 23.0767ZM21.3555 20.6978L20.8293 20.8622L21.0705 20.3579L21.3555 20.6978ZM17.3761 18.0119L16.6854 16.5429L16.9923 16.4991L17.2554 16.1482L17.387 16.521L18.1763 16.5539L17.3761 18.0119ZM14.9642 22.7259L14.153 22.2655L14.8875 21.7831L14.9642 22.7259ZM17.4199 26.234L16.806 26.8589L16.6525 26.234H17.4199ZM16.4332 23.5591L15.7535 24.1072L15.6659 23.4824L16.4332 23.5591ZM23.1424 15.8523L22.4518 15.3041L23.3617 15.0848L23.1424 15.8523ZM18.56 25.0939L17.8255 24.7869L18.4833 24.3265L18.56 25.0939ZM17.8803 22.3861L17.1678 22.0133L17.8584 21.6187L17.8803 22.3861ZM17.0033 19.3165L17.6172 18.6806L17.8584 19.5248L17.0033 19.3165ZM16.7073 20.632L17.6172 21.2898L16.5209 21.5419L16.7073 20.632ZM17.0362 23.1096L17.6501 23.581L16.8827 23.7345L17.0362 23.1096ZM16.3346 24.2717L16.9595 24.7431L16.1921 24.8966L16.3346 24.2717ZM15.7316 25.4009L16.3456 25.8722L15.5781 26.0257L15.7316 25.4009ZM31.3536 9.59246L30.8384 10.1845L30.7726 9.48283L31.3536 9.59246ZM26.53 16.2798L26.8589 16.5648L26.3436 16.8389L26.53 16.2798ZM27.1658 14.4819L27.8784 14.153L27.6591 14.9204L27.1658 14.4819ZM23.1096 18.1873L23.8331 17.8584L23.6139 18.6258L23.1096 18.1873ZM28.4265 13.1444L29.1501 12.8155L28.9308 13.5829L28.4265 13.1444ZM23.9318 15.8523L24.9404 15.4576L24.5786 16.4991L23.9318 15.8523ZM20.7526 18.6258L21.8708 18.2312L21.4322 19.3494L20.7526 18.6258ZM26.0476 22.4847L27.1001 21.9366L26.8369 23.1096L26.0476 22.4847ZM31.2769 5.98572L32.3293 5.45949L32.0442 6.61057L31.2769 5.98572ZM37.2187 8.72642L38.2821 8.22211L37.9752 9.38416L37.2187 8.72642ZM44.9255 0.504313L46 0L45.6711 1.15112L44.9255 0.504313ZM32.2855 15.8961L33.3598 15.3918L33.0309 16.5429L32.2855 15.8961ZM40.7049 3.28884L41.7683 2.77359L41.4613 3.93565L40.7049 3.28884ZM39.192 1.31555L40.2664 0.811271L39.9594 1.96235L39.192 1.31555ZM36.6486 2.90514L37.723 2.40086L37.3941 3.55197L36.6486 2.90514ZM35.1139 2.57627L36.1882 2.07199L35.8593 3.22307L35.1139 2.57627ZM28.2512 16.3894L28.9089 17.2884L27.7798 17.2226L28.2512 16.3894Z" fill="#F1F9ED"/>
<path d="M43.6101 0.263134L44.2678 1.16206L43.1387 1.08534L43.6101 0.263134ZM38.9509 3.02575L39.6087 3.92471L38.4795 3.85894L38.9509 3.02575ZM36.8679 1.68829L37.5476 2.58724L36.4075 2.52147L36.8679 1.68829ZM35.6949 3.3656L36.3527 4.26455L35.2235 4.19878L35.6949 3.3656ZM30.6739 5.22929L31.3537 6.12821L30.2135 6.06244L30.6739 5.22929ZM26.9686 12.4647L28.1744 11.9385L27.8017 13.2102L26.9686 12.4647ZM37.8217 1.58962L39.0277 1.0634L38.6549 2.32411L37.8217 1.58962ZM28.5033 10.031L29.0295 11.2369L27.7469 10.8422L28.5033 10.031ZM24.5128 8.01382L24.7541 10.3708L23 9.16493L24.5128 8.01382ZM21.6187 22.8356L21.1582 23.6029L20.8951 22.704L21.6187 22.8356ZM23.0439 24.2388L22.6821 25.0391L22.3094 24.1621L23.0439 24.2388ZM20.2702 20.5115L19.8318 21.2788L19.5467 20.3799L20.2702 20.5115ZM18.9328 20.7745L18.0886 21.9037L17.8146 20.4237L18.9328 20.7745ZM30.6191 12.5524L30.071 13.868L29.4461 12.5086L30.6191 12.5524ZM30.6191 8.54004L30.071 9.85559L29.4461 8.48524L30.6191 8.54004ZM32.8117 6.9614L32.2636 8.27695L31.6387 6.9066L32.8117 6.9614ZM34.6754 2.57627L34.182 3.73833L33.5024 3.02575L34.6754 2.57627ZM20.8623 15.1068L21.52 15.8742L20.3799 16.1263L20.8623 15.1068ZM21.4433 16.0605L22.1668 15.7316L22.2326 16.6745L21.4433 16.0605ZM18.3737 15.2712L19.5138 15.0191L19.2397 16.3127L18.3737 15.2712ZM29.7093 7.18067L29.6325 6.49L30.3451 6.81887L29.7093 7.18067ZM15.2383 22.7478L14.5477 23.296L14.4819 22.5067L15.2383 22.7478ZM12.388 23.9209L10.7435 24.0086L11.4671 22.8246L12.388 23.9209ZM13.9228 24.7212L14.4271 25.653L13.4733 25.7846L13.9228 24.7212Z" fill="#F1F9ED"/>
<path d="M15.5563 23.4604L14.7888 23.3837L15.2493 22.7259L15.5563 23.4604ZM20.8403 18.6368L20.1826 18.4175L20.643 17.7927L20.8403 18.6368ZM14.2846 20.6759L14.4161 21.0047L14.5915 20.7088L14.9643 20.9828L14.4819 21.0925L14.8108 21.6625L13.4952 21.4761L14.2846 20.6759ZM16.5648 21.4104L15.9509 22.0462L15.7098 21.3556L16.5648 21.4104ZM28.8103 15.2054L28.1087 15.2931L28.5472 14.7889L28.8103 15.2054ZM21.7941 27.0453L21.4433 26.6068L21.9695 26.4642L21.7941 27.0453ZM18.3299 23.7126L18.0229 23.2412L18.571 23.1644L18.3299 23.7126ZM18.6258 22.6821L18.297 22.2216L18.8451 22.1339L18.6258 22.6821Z" fill="#F1F9ED"/>
<path d="M29.4462 17.5515L29.0296 17.8146L29.0625 17.3322L29.4462 17.5515ZM26.245 19.7769L25.1707 20.358L25.3571 19.152L26.245 19.7769ZM40.0582 5.93089L38.9838 6.50098L39.1702 5.29506L40.0582 5.93089ZM19.7441 21.7502L19.6125 22.9561L18.7355 22.123L19.7441 21.7502ZM20.1826 26.245L20.1607 27.4509L19.2069 26.7054L20.1826 26.245ZM24.7322 23.1973L24.7212 24.4032L23.7565 23.6578L24.7322 23.1973ZM14.5697 20.0839L15.337 19.6015L14.6355 19.3823L15.2384 18.8999L15.4138 19.5138L15.7975 19.2726L15.9839 20.9719L14.5697 20.0839ZM27.0672 6.21594L28.021 6.9614L26.837 7.56434L27.0672 6.21594ZM25.6749 8.98953L25.5325 9.15396L25.4228 8.60582L24.8309 8.97855V8.12345L25.4228 8.60582L25.379 8.1454L26.1135 8.47427L25.7627 8.91278L26.4205 9.3184L25.5873 9.62535L25.6749 8.98953ZM26.9247 9.01144L27.0344 9.94328L26.3766 9.7021L26.9247 9.01144ZM25.3461 10.2722L25.8394 9.68019L25.9929 10.5243L25.3461 10.2722ZM28.9967 5.28409L28.8542 6.00764L28.339 5.60202L28.9967 5.28409ZM26.6616 7.87133L27.4838 7.54243L27.2646 8.34272L26.6616 7.87133ZM31.3318 14.6025L31.1125 15.1068L30.9481 14.5915L31.3318 14.6025ZM33.5901 7.49857L33.3709 8.00288L33.1955 7.48763L33.5901 7.49857ZM33.4366 25.1926L33.2393 25.7188L33.042 25.2035L33.4366 25.1926ZM41.0448 5.306L41.571 4.94424L41.5382 5.53625L41.0448 5.306ZM45.0791 4.26456L45.6273 3.91374L45.5835 4.50574L45.0791 4.26456ZM43.2154 8.4085L43.0291 8.93469L42.8098 8.41947L43.2154 8.4085ZM37.756 4.84558L37.5148 5.34986L37.3613 4.82364L37.756 4.84558ZM33.6997 8.7922L34.0287 9.08819L33.4805 9.19782L33.6997 8.7922ZM33.4476 6.1611L33.7765 6.44614L33.2503 6.55578L33.4476 6.1611ZM22.8685 20.3032L23.1974 20.5882L22.6493 20.6978L22.8685 20.3032ZM28.7555 20.8513L28.6459 21.3227L28.3828 20.9609L28.7555 20.8513ZM33.338 19.0424L33.2283 19.5248L32.9543 19.163L33.338 19.0424ZM25.664 16.4333L25.5544 16.9047L25.3023 16.5429L25.664 16.4333ZM21.1035 14.2736L21.2679 15.041L20.5225 14.7669L21.1144 14.153L21.0706 13.1664L22.2436 13.6926L21.1035 14.2736ZM18.889 17.2555H20.062L19.492 18.3737L19.5796 18.593L18.8781 18.5491L19.163 17.9132L18.889 17.2555ZM23.4386 15.337L24.0963 15.7426L23.2851 16.0167L23.4386 15.337ZM21.9037 17.4747L22.5177 17.9352L21.6955 18.1325L21.9037 17.4747ZM22.4738 18.9766L22.6711 18.7135L22.8904 19.152L22.6493 19.1082L22.2765 19.7879L21.9915 18.9109L22.4738 18.9766ZM32.8337 12.377L33.0091 12.103L33.2613 12.5196L33.02 12.4976L32.6912 13.1992L32.3404 12.3222L32.8337 12.377Z" fill="#F1F9ED"/>
<path d="M20.2922 18.7903L20.4895 18.5272L20.7088 18.9657L20.4676 18.9218L20.0949 19.6015L19.8098 18.7026L20.2922 18.7903ZM21.7612 16.6306L21.542 16.7402L21.4652 16.0496L22.123 16.203L22.7478 15.8194L22.9452 16.9704L21.7612 16.6306ZM24.8966 17.5076L24.2388 17.3432L24.6335 16.6854L24.8966 17.5076ZM22.8465 16.2798L24.0086 16.203L23.5372 17.3651L23.6468 17.5844H22.9452L23.1644 16.9266L22.8465 16.2798ZM18.7135 19.6344L19.3165 18.6478L19.9962 19.7002L20.2374 19.7331L19.8427 20.3141L19.437 19.766L18.7135 19.6344ZM15.644 21.8708L16.806 22.0353L16.1044 23.0658L16.1592 23.307L15.4685 23.1754L15.8303 22.5834L15.644 21.8708ZM22.386 13.9118L22.0133 15.1177L21.224 13.9776L22.386 13.9118Z" fill="#F1F9ED"/>
<path d="M23.5481 13.3527L23.1096 15.1506L22.0901 14.0763L23.5481 13.3527ZM19.4919 15.6111L19.9304 15.2822L20.0729 14.9533L20.1606 15.1725H20.3141L20.2484 15.4137L20.3251 15.4795L20.2484 15.4137L20.2702 15.8742L19.4919 15.6111ZM26.6945 6.81888L26.8041 6.85176V7.54243L26.8369 8.13443L25.1706 7.58629L26.6616 6.59964L26.6945 6.81888Z" fill="#F1F9ED"/>
<path d="M25.7298 8.23309L25.072 7.98093L25.7298 7.54242V8.23309ZM24.7869 11.1711L24.8746 10.3818L25.4557 10.8751L24.7869 11.1711ZM28.4485 6.0515L29.2927 6.70924L28.1964 7.21355L28.4485 6.0515ZM31.9895 9.0553L32.428 8.69354L32.5705 9.24168L31.9895 9.0553ZM15.929 18.9766L16.2579 17.5296L17.5734 18.5601L15.929 18.9766ZM30.0162 11.2479L30.5424 11.796L29.775 11.8837L30.0162 11.2479ZM29.3036 9.52669L29.8517 10.0748L29.0844 10.1845L29.3036 9.52669ZM26.0147 11.0615L25.7188 10.4037L26.5191 10.623L26.0147 11.0615Z" fill="#F1F9ED"/>
<path d="M27.1987 8.78122L28.5143 9.25261L27.7469 10.0419L27.1987 8.78122ZM29.4461 5.01001L30.3012 5.31696L29.8079 5.83222L29.4461 5.01001ZM27.6701 8.29885L28.5691 7.35606L28.9528 8.30982L27.6701 8.29885ZM26.7603 11.6973L26.2669 10.2064L27.7469 10.8093L26.7603 11.6973ZM24.3813 11.6644L23.0219 11.2478L23.7893 10.4804L23.0877 10.4585L23.6906 9.39513L24.1292 10.0529L24.8088 9.75689L24.5677 10.5572L24.4032 10.4147L23.9428 10.4585L24.3813 11.6644ZM23.4166 13.0348L23.4275 12.1797L24.0853 12.7278L23.4166 13.0348ZM27.8017 6.34747L27.6592 5.82124L28.2073 5.98571L27.8017 6.34747ZM29.7093 7.77262L29.9285 8.21116L29.4461 8.10153L29.7093 7.77262Z" fill="#F1F9ED"/>
<path d="M24.6773 19.4919L24.7211 20.1058L24.2279 19.6673L24.6773 19.4919ZM28.7336 24.7102L28.8432 25.3241L28.295 24.9404L28.7336 24.7102ZM25.4776 9.36225L24.9843 9.95425L24.6225 9.36225H25.4776ZM26.3547 8.13442L26.9576 8.60581L26.2121 8.85797L26.3547 8.13442ZM27.144 11.7302L26.1025 12.9909L25.1487 11.1272L27.144 11.7302ZM36.6158 5.85414L35.5634 7.11489L34.6206 5.2512L36.6158 5.85414ZM33.8422 9.69112L32.7898 10.9519L32.0224 9.81173L33.8422 9.69112ZM42.8975 0.241183L42.1301 1.63348L41.3627 0.482366L42.8975 0.241183ZM21.6296 10.305L19.0863 12.8704L22.6163 13.2431L21.6296 10.305ZM17.9791 13.9666L16.3346 16.0167L18.5491 15.9947L17.9791 13.9666ZM15.4576 17.2555L14.1201 18.9547L17.102 19.5467L15.4576 17.2555ZM13.0238 20.5114L11.4671 22.704L14.0215 22.9013L13.0238 20.5114Z" fill="#F1F9ED"/>
<path d="M10.93 23.9099L9.83368 25.5543L12.1578 25.6859L10.93 23.9099ZM16.6087 15.9947L15.4576 17.2555L16.8608 17.3103L16.6087 15.9947ZM14.1749 19.1959L12.969 20.6211L14.9971 20.632L14.1749 19.1959ZM12.2893 45.1558L12.4537 44.5419L12.8155 45.0024L12.2893 45.1558ZM25.949 36.7145L25.8942 36.0786L26.3985 36.4075L25.949 36.7145ZM17.1787 38.1177L17.2226 37.4819L17.6611 37.8656L17.1787 38.1177ZM23.4604 31.9018L23.5043 32.4499L23.0658 32.1211L23.4604 31.9018ZM7.2355 45.386L7.2903 46.1535L6.74216 45.7149L7.2355 45.386ZM16.9704 27.9552L16.795 26.7931L17.8036 27.418L16.9704 27.9552ZM18.9657 32.0662L18.7683 30.7726L19.8975 31.4743L18.9657 32.0662ZM3.50811 46.5372L3.83698 45.6601L4.30838 46.5043L3.50811 46.5372ZM5.15254 44.5419L6.08435 44.9037L5.20734 45.386L5.15254 44.5419ZM34.0724 4.19878L35.3331 4.8127L33.9409 5.36084L34.0724 4.19878ZM32.3403 3.68353L33.601 4.29744L32.1978 4.84558L32.3403 3.68353ZM31.3537 5.15254L30.0381 4.64826L31.3865 3.99049L31.3537 5.15254ZM4.40707 44.8708L3.85893 44.4323L4.59342 44.1582L4.40707 44.8708ZM2.41183 44.1473L2.81745 44.7502L2.15971 44.8379L2.41183 44.1473ZM4.69212 47.458L4.86749 47.9843L4.38512 47.7102L4.69212 47.458ZM11.2917 48.6859L11.4671 49.234L10.9957 48.9599L11.2917 48.6859ZM0.98668 59.4842L1.16206 60.0105L0.690663 59.7364L0.98668 59.4842ZM3.67258 59.8899L3.84796 60.4161L3.37657 60.142L3.67258 59.8899ZM7.3451 52.0624L7.52047 52.5886L7.04908 52.3255L7.3451 52.0624ZM36.9118 13.0787L37.3503 13.4075L36.8022 13.4404L36.9118 13.0787ZM42.7221 3.51909L43.1606 3.84796L42.6124 3.89182L42.7221 3.51909ZM40.5076 1.84178L40.9461 2.17066L40.398 2.21452L40.5076 1.84178ZM15.4027 45.693L15.7317 46.0548L15.2931 46.0658L15.4027 45.693ZM6.11727 48.9819L6.44614 49.3436L6.0076 49.3655L6.11727 48.9819ZM2.75168 44.9914L3.82601 44.8598L3.42039 45.989L2.75168 44.9914ZM7.3999 44.4761L7.44379 43.928L7.91519 44.2021L7.3999 44.4761ZM7.54242 47.5457L8.30983 47.5677L7.83844 48.1706L7.54242 47.5457ZM8.56195 49.6067H9.32936L8.847 50.2206L8.56195 49.6067ZM3.92471 53.2245H4.69212L4.22072 53.8384L3.92471 53.2245ZM3.81504 51.3937L4.58245 51.4047L4.10008 52.0186L3.81504 51.3937ZM0.197323 55.4828L0.964733 55.4938L0.482366 56.1077L0.197323 55.4828ZM3.10249 49.0148L4.2426 49.0367L3.54097 49.9356L3.10249 49.0148ZM2.28028 50.6811L3.42039 50.703L2.71876 51.602L2.28028 50.6811ZM8.85797 46.7674L8.20016 46.6248L8.5839 45.9232L8.85797 46.7674ZM2.85037 53.652L2.21451 53.4986L2.59818 52.8079L2.85037 53.652ZM3.1573 57.182L2.52143 57.0286L2.90517 56.3379L3.1573 57.182ZM10.612 42.1191L11.7083 42.6673L10.7765 43.2812L10.612 42.1191ZM25.7407 33.5024L25.5215 33.9957L25.3022 33.4804L25.7407 33.5024ZM11.6206 35.8703L11.4452 36.6377L11.0505 36.0567L11.6206 35.8703ZM11.6754 43.4566L12.1139 43.5443L11.785 44.0376L11.6754 43.4566ZM11.1711 42.1959L11.6754 41.5929L11.8179 42.3603L11.1711 42.1959ZM11.3136 40.08L11.774 39.4223L11.9714 40.1897L11.3136 40.08ZM13.3966 38.7974L13.5281 40.2007L12.3222 39.2907L13.3966 38.7974ZM1.07433 56.7764L1.20595 58.1797L0 57.2698L1.07433 56.7764ZM1.49093 53.7945L1.62247 55.1868L0.416592 54.2879L1.49093 53.7945ZM6.99428 35.9252L7.16972 37.3284L5.96377 36.4514L6.99428 35.9252ZM13.3527 41.8231L12.7717 42.2178L12.9252 41.56L13.3527 41.8231ZM14.9971 43.5991L14.756 44.0157L14.5586 43.5772L14.9971 43.5991ZM16.3346 39.5758L16.4442 40.1239L16.0057 39.795L16.3346 39.5758ZM18.2531 40.8146L18.4724 41.2531L18.0338 41.1434L18.2531 40.8146ZM9.75693 44.9804L9.8227 45.4628L9.43897 45.2216L9.75693 44.9804ZM15.1287 36.9447L15.1068 36.6158L15.5672 36.8022L15.3479 36.9118L15.5124 37.6792L14.7121 37.1749L15.1287 36.9447ZM11.4781 37.8217L12.2454 37.9971L11.6425 38.4905L11.4781 37.8217ZM5.85417 46.866L6.62158 46.877L6.13922 47.4909L5.85417 46.866ZM1.27172 50.6153H2.03907L1.5567 51.2292L1.27172 50.6153ZM2.64208 43.4895L3.46429 43.1058L3.47519 43.8184L2.64208 43.4895ZM1.81986 48.0281L1.78694 47.2826L2.33508 47.5019L1.81986 48.0281ZM2.53241 45.6821L2.06101 45.408L2.5763 45.1229L2.53241 45.6821ZM4.88944 45.3312L5.34986 45.4957L4.94424 45.7697L4.88944 45.3312ZM12.4319 27.6811L13.0896 28.0977L12.2674 28.3499L12.4319 27.6811ZM9.61441 33.031L10.2173 34.4123L8.7922 33.9738L9.61441 33.031Z" fill="#F1F9ED"/>
<path d="M15.2054 33.3269L15.8084 32.8007V33.601L15.2054 33.3269ZM22.8136 27.8455L23.3399 27.4948L23.307 28.0867L22.8136 27.8455ZM18.7135 29.6654L19.2617 29.3146L19.2179 29.8956L18.7135 29.6654ZM16.1921 29.9065L16.7402 29.5558L16.6964 30.1477L16.1921 29.9065ZM12.6292 28.9199L12.8703 28.5472L13.1993 29.1172L12.8703 29.0843L12.4319 30.0381L11.9605 28.8322L12.6292 28.9199ZM6.99429 34.3136L8.04674 35.7607L6.15013 35.7936L6.99429 34.3136ZM10.9409 28.8322L12.1688 29.9723L10.5243 30.2135L10.9409 28.8322ZM7.7069 32.7788L9.28555 32.5377L8.69351 34.2698L7.7069 32.7788ZM11.9056 26.9685L11.6864 27.0782L11.6206 26.3765L12.2784 26.5519L12.9142 26.1902L13.0786 27.3413L11.9056 26.9685ZM6.67639 32.9542L7.75073 32.4718L7.46568 33.7216L6.67639 32.9542ZM8.43041 34.0286L7.58626 34.4342V33.6668L8.43041 34.0286ZM9.34035 31.0028L9.69117 30.4328L10.1954 31.0248L9.34035 31.0028ZM18.2421 30.8494L17.716 31.4523L17.705 30.7178L18.2421 30.8494ZM15.94 28.4375L15.4137 29.0405L15.3918 28.295L15.94 28.4375ZM23.877 30.4437L23.3947 30.7068L23.5262 30.1587L23.877 30.4437ZM24.6993 33.8861L24.2169 34.1382L24.3484 33.5901L24.6993 33.8861Z" fill="#F1F9ED"/>
<path d="M13.8241 31.9676L13.3089 32.1539L13.5281 31.6277L13.8241 31.9676ZM16.1921 29.3365L15.6988 29.5887L15.8413 29.0405L16.1921 29.3365ZM11.4781 27.4509L10.7107 26.0257L11.0176 25.96L11.2588 25.5982L11.4123 25.96L12.2016 25.949L11.4781 27.4509ZM9.75693 32.0772L8.87992 31.7483L9.53766 31.1673L9.75693 32.0772ZM12.8813 35.1906L12.4099 35.9252L12.1249 35.3551L12.8813 35.1906ZM11.3466 32.5596L10.8642 33.2941L10.5901 32.724L11.3466 32.5596ZM13.4842 34.3465L12.7169 34.1272L13.3198 33.601L13.4842 34.3465ZM12.7936 31.551L12.0262 31.3098L12.6292 30.7945L12.7936 31.551ZM11.3684 28.6787L11.8508 27.9442L12.2454 28.7336L11.3684 28.6787ZM11.3027 30.0272L12.3222 30.4986L11.2698 30.9371L11.3027 30.0272ZM11.6644 32.1978L12.3771 32.5267L11.6425 32.8556L11.6644 32.1978ZM11.3904 33.4695L12.092 33.7984L11.3684 34.1053L11.3904 33.4695ZM10.4695 34.785L11.1273 35.2235L10.3599 35.4428L10.4695 34.785ZM14.9643 26.826L15.9838 26.2231L15.7865 27.3961L14.9643 26.826ZM16.0824 31.5181L15.7317 32.3294L15.3479 31.4523L16.0824 31.5181ZM18.1873 33.009L17.9133 33.8532L17.4528 33.031L18.1873 33.009Z" fill="#F1F9ED"/>
<path d="M14.5587 29.797L14.164 30.5972L13.8351 29.7202L14.5587 29.797ZM13.572 29.8189L12.9471 31.0906L12.399 29.6873L13.572 29.8189ZM9.81177 32.1649L9.23071 32.8227L9.0115 32.0553L9.81177 32.1649ZM7.42188 33.9409L5.79941 34.204L6.40235 32.9542L7.42188 33.9409ZM8.78126 34.6206L9.28557 35.5415L8.34272 35.6949L8.78126 34.6206ZM10.2503 32.8227L9.4829 32.8665L9.83372 32.154L10.2503 32.8227ZM8.82509 30.2135L9.00053 30.5095L9.13208 30.1806L9.5377 30.3999L9.07728 30.5753L9.49387 31.1015L8.17832 31.0906L8.82509 30.2135ZM11.1931 30.7178L10.7107 31.4523L10.338 30.8165L11.1931 30.7178ZM16.8938 36.0238L16.4882 35.6291L17.0034 35.4428L16.8938 36.0238ZM13.1116 32.6034L12.7169 32.2088L13.2322 32.0224L13.1116 32.6034ZM13.6049 31.7812L13.1993 31.3865L13.7145 31.2002L13.6049 31.7812Z" fill="#F1F9ED"/>
<path d="M14.5257 30.652L14.6135 31.8579L13.583 31.2002L14.5257 30.652ZM15.2493 34.1053L15.3589 35.3112L14.3284 34.6535L15.2493 34.1053ZM8.86896 37.2407L8.58392 36.5062L9.32938 36.7583L8.86896 37.2407ZM10.6449 39.7293L11.1931 40.387L10.5682 40.4966L10.6449 39.7293ZM10.031 38.929L9.59248 39.5867L9.2636 38.8522L10.031 38.929ZM9.65825 41.3737L10.1735 40.7926L10.2612 41.582L9.65825 41.3737ZM7.76171 36.3308L8.41945 36.9118L7.47666 37.0214L7.76171 36.3308ZM10.2831 35.2345L10.919 35.8484L9.97621 35.9142L10.2831 35.2345ZM12.1688 36.0567L11.6754 36.3088L11.6425 35.7607L12.1688 36.0567ZM10.0858 37.0434L11.2917 37.2188L10.4147 38.0739L10.0858 37.0434ZM31.3756 7.3999L31.7702 8.55101L30.6191 8.18922L31.3756 7.3999ZM9.14303 29.9833L9.80077 29.3694L9.06628 29.2817L9.5815 28.7007L9.85557 29.2707L10.1845 28.9747L10.6778 30.6192L9.14303 29.9833ZM35.6511 6.96139L35.6072 7.50953L35.2783 7.07103L35.6511 6.96139ZM35.958 9.35128L35.8813 9.89942L35.5744 9.46091L35.958 9.35128ZM17.6173 28.6897L18.0009 28.9089L17.4857 29.1282L17.6173 28.6897ZM13.0677 26.4204L14.2297 26.3107L13.7913 27.4728L13.9009 27.6921L13.1993 27.725L13.4185 27.0672L13.0677 26.4204ZM14.8218 27.714L14.9643 27.418L15.2712 27.8017L15.0191 27.8126L14.7998 28.5472L14.3613 27.725L14.8218 27.714ZM13.1444 28.8103L13.6487 27.7578L14.4161 28.7445L14.6573 28.7555L14.3284 29.3804L13.857 28.8651L13.1444 28.8103ZM10.4037 31.3317L11.5658 31.2769L11.0725 32.417L11.1821 32.6363H10.4805L10.7217 31.9785L10.4037 31.3317ZM10.2722 28.6239L10.3489 27.133L11.8398 27.9004L10.2722 28.6239Z" fill="#F1F9ED"/>
<path d="M26.0586 26.9027L26.245 27.5057L25.664 27.1768L26.0586 26.9027ZM9.24163 26.8151L8.23307 28.7336L11.2698 28.7555L9.24163 26.8151ZM7.57532 30.2683L6.34749 32.6801L8.90178 32.4938L7.57532 30.2683ZM5.79935 34.3574L5.09772 36.1992L7.39988 35.7936L5.79935 34.3574Z" fill="#F1F9ED"/>
<path d="M9.98711 25.5872L9.08822 27.0343L10.4695 26.837L9.98711 25.5872ZM8.23309 28.7665L7.35607 30.4109L9.35131 29.9943L8.23309 28.7665ZM6.25979 42.0314L7.04908 43.3141L5.55816 43.0619L6.25979 42.0314ZM3.79316 43.2593L4.95522 44.6077L3.09152 44.827L3.79316 43.2593Z" fill="#F1F9ED"/>
<path d="M7.02716 37.4271L8.43037 38.337L6.85172 38.8522L7.02716 37.4271ZM4.34126 42.0753L5.87602 41.6368L5.52527 43.4347L4.34126 42.0753ZM3.24498 42.2178L4.23159 41.56L4.16582 42.8427L3.24498 42.2178Z" fill="#F1F9ED"/>
<path d="M5.05389 42.9085L4.28654 43.4566L4.13305 42.6892L5.05389 42.9085ZM5.52535 40.2554L5.77747 39.6415L6.36944 40.1458L5.52535 40.2554ZM6.15017 41.2421L5.22933 41.0557L5.77747 40.3761L6.15017 41.2421ZM9.25266 44.1144L8.75932 44.8379L8.49622 44.2569L9.25266 44.1144ZM7.77271 41.4504L7.27937 42.1739L7.0053 41.5929L7.77271 41.4504ZM9.87755 43.2812L9.11014 43.029L9.72405 42.5248L9.87755 43.2812ZM7.61921 38.5233L8.69355 38.8303L7.73979 39.4442L7.61921 38.5233ZM8.12353 41.1325L8.81419 41.4614L8.07963 41.7573L8.12353 41.1325Z" fill="#F1F9ED"/>
<path d="M7.79451 42.3603L8.49615 42.6892L7.76166 42.9852L7.79451 42.3603ZM7.42181 43.5991L8.11248 43.928L7.38889 44.224L7.42181 43.5991ZM6.39131 41.0448L5.89797 41.7683L5.60195 41.0448H6.39131ZM4.0672 42.9962L2.51049 43.5443L2.89417 42.2068L4.0672 42.9962Z" fill="#F1F9ED"/>
<path d="M5.53622 43.4347L6.19403 44.2569L5.28409 44.5638L5.53622 43.4347ZM6.91754 41.6587L6.15013 41.8012L6.39135 41.0338L6.91754 41.6587ZM4.91133 39.5758L5.1306 39.8389L5.20735 39.51L5.64588 39.6525L5.22929 39.9046L5.73354 40.3432L4.41805 40.5624L4.91133 39.5758ZM7.39991 39.8169L6.93949 40.5624L6.55575 39.9376L7.39991 39.8169Z" fill="#F1F9ED"/>
<path d="M4.90039 39.214L5.53619 38.5562L4.8017 38.5014L5.28406 37.8985L5.59105 38.4466L5.91992 38.1177L6.48995 39.7293L4.90039 39.214ZM6.61059 40.4199L7.77264 40.3541L7.29028 41.5052L7.39988 41.7245L6.69824 41.7354L6.91751 41.0777L6.61059 40.4199Z" fill="#F1F9ED"/>
<path d="M0.7455 52.1172L1.90756 52.0514L1.42519 53.2025L1.53486 53.4218H0.833221L1.05249 52.764L0.7455 52.1172ZM5.05388 36.1883L4.13304 38.1615L7.16976 38.0519L5.05388 36.1883ZM3.65067 39.8937L2.83943 42.47L5.32795 41.867L3.65067 39.8937ZM1.45811 48.039L1.12924 49.4971L2.53244 49.234L1.45811 48.039Z" fill="#F1F9ED"/>
<path d="M2.00619 45.7369L1.71017 46.7893L2.97092 46.4604L2.00619 45.7369ZM3.71638 46.7235L2.59816 47.4361L4.00143 48.1487L3.71638 46.7235ZM4.04526 38.5343L3.38751 40.2664L5.30601 39.6086L4.04526 38.5343Z" fill="#F1F9ED"/>
</svg>
