<svg width="39" height="32" viewBox="0 0 39 32" fill="none" xmlns="http://www.w3.org/2000/svg">
<path d="M0.635131 31.5657C0.635131 31.5657 0.158854 31.4344 0.0767378 31.1061C-0.00187948 30.885 -0.0204999 30.647 0.022771 30.4163C0.066042 30.1856 0.169663 29.9705 0.32309 29.7929C1.01287 28.6931 3.03294 27.9873 4.34681 27.4948L4.59315 27.4128C5.8249 27.0024 11.6552 25.6892 11.9015 25.6892C12.1479 25.6071 12.3121 25.7713 12.3942 26.0175C12.4764 26.2637 12.3121 26.4279 12.0658 26.5099C11.9837 26.5099 5.98914 27.8231 4.92162 28.2335L4.67527 28.3156C3.60775 28.7259 1.52199 29.4482 1.06214 30.2854C0.980025 30.4495 0.897904 30.5316 0.897904 30.6957L6.97454 29.0542L13.1333 28.1514C13.2381 28.154 13.34 28.1862 13.4272 28.2443C13.5144 28.3024 13.5833 28.384 13.626 28.4797C13.7081 28.6439 13.4618 28.8901 13.2975 28.9722L7.22089 29.875L0.98002 31.5985C0.866498 31.5757 0.75092 31.5647 0.635131 31.5657Z" fill="#CC7A5E"/>
<path d="M5.00374 27.741C4.91316 27.7253 4.82802 27.687 4.75624 27.6296C4.68446 27.5722 4.62835 27.4976 4.59316 27.4127C4.51876 27.0681 4.54071 26.7097 4.65658 26.3768C4.77246 26.0438 4.97779 25.7491 5.25009 25.525C5.90702 25.1147 8.86322 23.7194 14.4472 22.6524C17.5284 22.048 20.6763 21.8548 23.8085 22.0779C24.7117 20.8468 29.9672 13.7884 32.0201 10.0951C34.3194 5.99141 38.1789 0.164139 38.261 0.164139C38.3263 0.0770697 38.4236 0.0195183 38.5314 0.00412639C38.6392 -0.0112655 38.7487 0.0167705 38.8358 0.0820727C38.9229 0.147375 38.9805 0.244587 38.9959 0.35233C39.0113 0.460073 38.9832 0.569519 38.9179 0.656589C38.9179 0.738663 35.0584 6.48385 32.7592 10.5876C30.4599 14.6913 24.3833 22.7345 24.3833 22.8166C24.2709 22.9193 24.1249 22.9776 23.9727 22.9807C20.8405 22.7694 17.6942 22.9625 14.6114 23.5553C9.19169 24.6222 6.39972 25.8533 5.74279 26.2637C5.33221 26.5099 5.41432 27.3307 5.41432 27.3307C5.41432 27.4948 5.33221 27.659 5.00374 27.741Z" fill="#CC7A5E"/>
</svg>
