<svg width="20" height="55" viewBox="0 0 20 55" fill="none" xmlns="http://www.w3.org/2000/svg">
<path d="M10.6638 25.7914L11.4778 25.6287L10.9894 24.8151L10.6638 25.7914ZM9.11714 27.5814L9.93117 27.4187L9.44274 26.6051L9.11714 27.5814ZM8.38451 24.2456L8.2217 23.7574L7.81468 24.0829L8.38451 24.2456ZM12.3733 26.361L12.6989 25.3846L11.5592 25.466L12.3733 26.361ZM9.93117 29.6968L10.2568 28.7204L9.11714 28.8832L9.93117 29.6968ZM10.4196 31.8122L10.6638 30.8358L9.52415 30.9985L10.4196 31.8122ZM8.87294 27.4187L9.19854 26.4423L8.05891 26.5237L8.87294 27.4187ZM10.0126 26.6051L10.3382 25.7101L9.19854 25.7914L10.0126 26.6051ZM10.501 28.4763L10.7452 27.5L9.60556 27.5814L10.501 28.4763ZM9.19854 24.0829L9.52415 23.1065L8.38451 23.1879L9.19854 24.0829ZM9.27995 25.3033L9.60556 24.2456L8.46592 24.4083L9.27995 25.3033ZM13.8385 35.3107L14.0827 34.3343L12.9431 34.4971L13.8385 35.3107ZM13.3501 31.6494H12.2919L12.7803 32.7071L13.3501 31.6494ZM13.1059 33.4394H12.1291L12.6175 34.4971L13.1059 33.4394ZM12.2104 29.2086L13.1059 29.1272L12.6175 28.2323L12.2104 29.2086ZM10.8266 24.6524L11.722 24.4897L11.1522 23.6761L10.8266 24.6524ZM15.3038 35.392L16.1992 35.3107L15.7108 34.4971L15.3038 35.392ZM12.2104 30.5917L12.7803 30.5104L12.4547 29.9409L12.2104 30.5917ZM11.0708 26.8491L11.2336 27.3373L11.6406 26.9305L11.0708 26.8491ZM15.7922 28.1509L15.3852 28.4763L15.8736 28.8018L15.7922 28.1509ZM17.3389 26.361V25.7914L16.6876 26.1169L17.3389 26.361ZM13.5943 27.5L14.0827 27.3373L13.7571 26.9305L13.5943 27.5ZM14.9782 22.7811L15.2224 23.1879L15.548 22.6997L14.9782 22.7811ZM15.2224 34.1716L16.2806 33.8462L15.4666 32.9512L15.2224 34.1716Z" fill="#F9CFE1"/>
<path d="M16.4435 31.2426L16.7691 31.6494L17.0133 31.1613L16.4435 31.2426ZM16.4435 36.2056L15.7923 36.1243L16.0365 36.7752L16.4435 36.2056ZM15.5481 34.0089L14.9782 33.6834L14.8968 34.3343L15.5481 34.0089ZM14.327 37.6701L14.4898 37.182L13.92 37.2633L14.327 37.6701ZM11.2337 33.9275H11.7221L11.4779 33.358L11.2337 33.9275ZM16.2807 35.148L16.1179 34.3343L15.3853 34.8225L16.2807 35.148ZM11.5593 37.3447L12.1291 37.0192L11.6407 36.5311L11.5593 37.3447ZM12.4547 30.7545L12.9432 31.324L13.2688 30.5917L12.4547 30.7545ZM19.0484 46.2944L19.2112 45.6435L18.3972 45.7249L19.0484 46.2944ZM14.1642 45.8876L14.8154 45.969L14.5712 45.3181L14.1642 45.8876ZM17.9087 41.0873L18.0716 41.6568L18.6414 41.25L17.9087 41.0873ZM18.3158 44.4231L18.8042 44.5045L18.56 43.9349L18.3158 44.4231ZM14.327 29.6968L13.8386 29.3713L13.7572 30.0222L14.327 29.6968ZM13.106 33.4394L13.2688 32.9512L12.6989 33.0326L13.106 33.4394ZM10.0126 29.534L10.5011 29.6154L10.3383 29.0459L10.0126 29.534ZM10.0126 30.9172L10.8267 30.8358L10.3383 30.0222L10.0126 30.9172ZM11.1523 31.5681L12.2919 30.8358L11.0709 30.0222L11.1523 31.5681ZM11.4779 29.7781L11.8035 28.5577L10.2568 28.7204L11.4779 29.7781ZM12.9432 36.3684L13.2688 35.148L11.8035 35.3107L12.9432 36.3684ZM13.8386 39.216L14.1642 37.9142L12.6989 38.1583L13.8386 39.216ZM14.5712 41.3314L13.7572 40.3551L13.0245 41.6568L14.5712 41.3314ZM15.7109 37.9142L14.8154 38.4838L15.7923 39.0533L15.7109 37.9142ZM15.7109 47.4335L14.9782 46.7012L14.6526 47.7589L15.7109 47.4335ZM14.2456 35.7988L13.4316 36.287L14.327 36.9379L14.2456 35.7988Z" fill="#F9CFE1"/>
<path d="M16.0364 45.7249L15.3038 45.074L14.8968 46.1317L16.0364 45.7249ZM13.3501 40.1923L13.6757 38.9719L12.1291 39.1346L13.3501 40.1923ZM11.3964 32.7885L12.2105 32.7071L11.7221 31.8121L11.3964 32.7885ZM10.4196 33.358L11.3151 33.2766L10.7452 32.463L10.4196 33.358ZM14.1642 25.466L14.0828 24.8964L13.5129 25.2219L14.1642 25.466ZM12.9431 24.4896L12.4547 24.4083L12.5361 24.8964L12.9431 24.4896ZM15.2224 25.466L15.7108 25.3033L15.3038 24.8964L15.2224 25.466ZM11.4778 33.8462L11.3151 33.358L10.908 33.7648L11.4778 33.8462ZM12.0477 28.8018L12.5361 28.5577L12.0477 28.2323V28.8018ZM11.3964 36.4497L11.7221 35.4734L10.5824 35.6361L11.3964 36.4497Z" fill="#F9CFE1"/>
<path d="M9.93118 34.253L10.4196 36.1243L12.1291 34.7412L9.93118 34.253ZM10.8266 37.2633L11.315 39.1346L13.0245 37.7515L10.8266 37.2633ZM9.19856 31.8935L9.76837 33.7648L11.3964 32.3817L9.19856 31.8935ZM12.1291 41.4127L12.6989 43.2841L14.3269 41.8195L12.1291 41.4127ZM16.8504 50.6065L14.8968 50.3624L15.548 52.3965L16.8504 50.6065ZM8.54732 29.3713L9.03574 31.2426L10.7452 29.9409L8.54732 29.3713ZM7.8961 27.4187L8.46594 29.29L9.36135 27.8255L7.8961 27.4187ZM7.32627 25.3033L7.8961 27.1746L9.52417 25.7101L7.32627 25.3033Z" fill="#F9CFE1"/>
<path d="M13.2687 40.6805L13.5943 39.7042L12.4547 39.8669L13.2687 40.6805ZM11.8848 39.0533L12.8617 38.9719L12.2919 37.9956L11.8848 39.0533ZM14.0827 44.8299L13.4315 45.5621L14.4898 45.8876L14.0827 44.8299ZM13.5943 46.0503L14.0827 47.5148L15.141 46.6199L13.5943 46.0503ZM12.6989 43.5281L13.1873 44.9926L14.3269 44.0977L12.6989 43.5281ZM14.4898 48.7352L14.9782 50.1997L15.8736 49.3048L14.4898 48.7352ZM15.7108 45.8876L16.362 47.6775L17.6645 46.5385L15.7108 45.8876ZM14.0013 42.8772L14.5712 44.6672L15.955 43.5281L14.0013 42.8772Z" fill="#F9CFE1"/>
<path d="M14.327 42.9586L16.0365 42.0636L14.6526 40.9246L14.327 42.9586ZM12.8618 37.9142L13.3502 36.0429L11.5593 36.287L12.8618 37.9142ZM13.92 40.355L15.7923 40.1923L14.9783 38.5651L13.92 40.355ZM15.6295 52.7219L16.1993 54.2678L17.3389 53.2914L15.6295 52.7219ZM16.0365 51.4201L16.4435 52.6405L17.4204 51.8269L16.0365 51.4201ZM16.7691 48.5725L17.1761 49.8743L18.153 49.0607L16.7691 48.5725ZM16.3621 54.3491L17.2575 55L17.5017 53.9423L16.3621 54.3491ZM16.6877 45.8876L17.5831 46.5385L17.8274 45.4808L16.6877 45.8876Z" fill="#F9CFE1"/>
<path d="M16.5249 42.6332L17.5017 43.2841L17.746 42.2263L16.5249 42.6332ZM12.0478 41.3314L12.8618 40.4364L11.8035 40.111L12.0478 41.3314ZM13.8386 35.7988L15.1411 35.7175L14.5713 34.5784L13.8386 35.7988ZM15.7109 41.5755L17.0947 41.4941L16.4435 40.3551L15.7109 41.5755ZM16.9319 47.108L17.9088 48.003L18.3158 46.7826L16.9319 47.108ZM15.2225 48.003L15.7923 49.8743L17.1761 48.6539L15.2225 48.003ZM19.2112 46.7826L19.374 46.2131H18.7228L19.2112 46.7826ZM15.3039 46.4571H15.7923L15.6295 45.969L15.3039 46.4571ZM18.3158 42.5518L18.3972 43.04L18.8856 42.7145L18.3158 42.5518ZM15.4667 31.4053L15.0597 31.1612L14.9783 31.6494L15.4667 31.4053ZM16.0365 29.9408L15.3853 29.4527L15.2225 30.3476L16.0365 29.9408ZM16.2807 32.6257L15.8737 32.3817L15.7923 32.9512L16.2807 32.6257Z" fill="#F9CFE1"/>
<path d="M15.3038 31.6494L14.8968 31.4054L14.8153 31.8935L15.3038 31.6494ZM17.0946 37.2634L17.4203 36.287L16.2806 36.4498L17.0946 37.2634ZM17.5016 40.4365L17.8273 39.4601L16.6876 39.6228L17.5016 40.4365ZM17.3388 35.8802H17.7459L17.583 35.4734L17.3388 35.8802ZM17.7459 29.0459L17.176 28.6391L17.0132 29.3713L17.7459 29.0459ZM16.1178 33.114L16.362 32.6258H15.7108L16.1178 33.114ZM12.9431 28.5577L13.4315 28.6391L13.2687 28.0696L12.9431 28.5577ZM7.08204 13.8314L7.89607 13.6687L7.40765 12.8551L7.08204 13.8314ZM5.53539 15.6213L6.34942 15.54L5.861 14.645L5.53539 15.6213ZM8.79151 14.4009L9.11712 13.4246L7.97748 13.5059L8.79151 14.4009ZM6.34942 17.8181L6.67503 16.7604L5.53539 16.9231L6.34942 17.8181ZM6.67503 20.1776L7.00063 19.2012L5.861 19.3639L6.67503 20.1776ZM5.29116 15.4586L5.6168 14.4823L4.47713 14.5636L5.29116 15.4586ZM6.51221 14.7264L6.83784 13.75L5.6168 13.8314L6.51221 14.7264ZM6.91923 16.5163L7.16345 15.54L6.02381 15.6213L6.91923 16.5163ZM5.69818 13.3432L6.02381 12.3669L4.88415 12.4483L5.69818 13.3432ZM10.1754 23.5947L10.501 22.6184L9.36132 22.7811L10.1754 23.5947ZM9.68695 20.0148H8.6287L9.11712 21.0725L9.68695 20.0148ZM9.52414 21.7234H8.46591L8.9543 22.7811L9.52414 21.7234ZM8.6287 17.574L9.44273 17.4926L8.9543 16.679L8.6287 17.574ZM7.24486 12.6923L8.14027 12.611L7.57047 11.716L7.24486 12.6923ZM8.6287 18.6317L9.19853 18.5503L8.87292 17.9808L8.6287 18.6317ZM7.48906 14.8891L7.65187 15.3772L8.05889 14.9704L7.48906 14.8891ZM12.2104 16.2722L11.8034 16.5163L12.2918 16.8417L12.2104 16.2722ZM13.7571 14.4009V13.8314L13.1059 14.1568L13.7571 14.4009ZM10.0126 15.54L10.501 15.4586L10.1754 14.9704L10.0126 15.54ZM11.3964 10.821L11.6406 11.2278L11.9662 10.821H11.3964ZM11.4778 22.6997L12.5361 22.3743L11.6406 21.4793L11.4778 22.6997Z" fill="#F9CFE1"/>
<path d="M12.6989 19.7707L12.9431 20.1776L13.2687 19.6894L12.6989 19.7707ZM11.8848 22.2929L11.3964 21.9675L11.315 22.6184L11.8848 22.2929ZM10.6638 26.0355L10.8266 25.5473L10.2568 25.6287L10.6638 26.0355ZM7.57048 22.2116H8.0589L7.89608 21.642L7.57048 22.2116ZM12.6989 23.432L12.5361 22.6997L11.8034 23.1879L12.6989 23.432ZM7.89608 25.6287L8.5473 25.3033L7.97749 24.8151L7.89608 25.6287ZM8.87293 19.0385L9.36133 19.608L9.68696 18.8758L8.87293 19.0385ZM12.7803 25.2219L12.1291 24.8151L12.0476 25.6287L12.7803 25.2219Z" fill="#F9CFE1"/>
<path d="M11.315 29.7781L11.4778 29.2086L10.7452 29.2899L11.315 29.7781ZM7.40768 25.0592H8.05892L7.8147 24.4083L7.40768 25.0592ZM10.908 17.6553L10.4196 17.3299L10.3382 17.9808L10.908 17.6553ZM9.68699 21.3166L9.84978 20.8284L9.27997 20.9098L9.68699 21.3166ZM6.59365 17.4926H7.08208L6.83788 17.0044L6.59365 17.4926ZM6.34945 19.3639L7.16348 19.2012L6.67506 18.3876L6.34945 19.3639ZM7.65191 19.8521L8.71014 19.1198L7.48909 18.3062L7.65191 19.8521ZM7.89611 17.8994L8.22171 16.5976L6.75647 16.7603L7.89611 17.8994ZM9.27997 24.7337L9.60558 23.432L8.14031 23.5947L9.27997 24.7337ZM7.73329 21.0725L8.62873 20.9911L8.14031 20.0962L7.73329 21.0725ZM6.83788 21.642L7.65191 21.5606L7.16348 20.747L6.83788 21.642ZM10.5824 13.5059L10.501 12.9364L9.93119 13.2618L10.5824 13.5059ZM9.36135 12.5296L8.87295 12.4482L8.95434 12.9364L9.36135 12.5296ZM11.6407 13.5059L12.1291 13.3432L11.7221 12.9364L11.6407 13.5059ZM7.8147 22.1302L7.73329 21.642L7.24489 22.0488L7.8147 22.1302ZM8.46594 16.8417L8.95434 16.5976L8.46594 16.2722V16.8417Z" fill="#F9CFE1"/>
<path d="M8.05893 24.4897L8.38454 23.5133L7.2449 23.6761L8.05893 24.4897ZM6.43087 22.1302L6.91927 24.0015L7.89612 22.6184L6.43087 22.1302ZM5.69822 19.8521L6.34946 21.8861L7.4891 20.1776L5.69822 19.8521ZM5.12841 17.7367L5.61684 19.5267L7.32628 18.2249L5.12841 17.7367ZM4.55858 15.6213L5.12841 17.4113L6.75648 16.0281L4.55858 15.6213ZM3.82596 13.2619L4.39579 15.1332L6.02385 13.6687L3.82596 13.2619ZM11.6407 19.9335L11.2337 19.608L11.1522 20.1776L11.6407 19.9335ZM12.4547 18.3062L11.7221 17.8181L11.5593 18.713L12.4547 18.3062Z" fill="#F9CFE1"/>
<path d="M12.4547 21.1538L12.0477 20.9098L11.9663 21.4793L12.4547 21.1538ZM11.4779 20.1775L11.0709 19.9334L10.9895 20.4216L11.4779 20.1775Z" fill="#F9CFE1"/>
<path d="M14.0828 17.4112L13.5944 17.0044L13.4315 17.7367L14.0828 17.4112ZM12.4547 21.4793L12.6989 20.9911L12.0477 21.0725L12.4547 21.4793ZM9.28001 16.9231L9.84982 17.0044L9.60562 16.4349L9.28001 16.9231ZM6.02389 9.43789L6.83792 9.27516L6.3495 8.46155L6.02389 9.43789ZM4.47722 11.2278L5.37265 11.0651L4.80285 10.2515L4.47722 11.2278ZM3.74459 7.89204L3.5818 7.40387L3.17479 7.72931L3.74459 7.89204ZM7.73333 9.92606L7.97756 8.94972L6.83792 9.11245L7.73333 9.92606ZM4.23302 11.0651L4.55862 10.0888L3.41899 10.2515L4.23302 11.0651ZM5.45406 10.2515L5.69826 9.27516L4.55862 9.43789L5.45406 10.2515ZM5.77967 12.3669L6.10527 11.3905L4.96564 11.5533L5.77967 12.3669ZM4.55862 7.72931L4.80285 6.75299L3.66319 6.9157L4.55862 7.72931ZM4.64003 8.94972L4.96564 7.9734L3.826 8.05474L4.64003 8.94972ZM6.18668 8.29884L7.00071 8.13611L6.51229 7.3225L6.18668 8.29884ZM7.57054 14.4823L8.14035 14.4009L7.81474 13.8314L7.57054 14.4823ZM6.3495 10.7397L6.51229 11.2278L6.9193 10.821L6.3495 10.7397ZM11.1523 12.0414L10.6638 12.3669L11.1523 12.611V12.0414Z" fill="#F9CFE1"/>
<path d="M8.95436 11.4719L9.44278 11.3092L9.03577 10.9024L8.95436 11.4719ZM9.44278 9.03107L9.36137 8.46154L8.79157 8.787L9.44278 9.03107ZM8.22173 8.05473L7.73331 7.97339L7.89613 8.5429L8.22173 8.05473ZM3.33754 11.0651L3.82597 12.9364L5.53544 11.6346L3.33754 11.0651ZM2.68633 8.94971L3.25613 10.7397L4.8842 9.35651L2.68633 8.94971ZM1.9537 4.06804L2.1979 3.09172L1.05826 3.25443L1.9537 4.06804ZM5.53544 7.24112L5.77964 6.2648L4.64 6.42751L5.53544 7.24112ZM4.8842 3.90533H3.90737L4.3958 4.96302L4.8842 3.90533Z" fill="#F9CFE1"/>
<path d="M4.80277 5.36982L3.74451 5.45119L4.31435 6.42751L4.80277 5.36982ZM6.75644 6.2648L7.81467 5.93936L6.91923 5.04438L6.75644 6.2648ZM8.05889 9.11243L7.40765 8.70563L7.32625 9.6006L8.05889 9.11243ZM6.59362 13.75L6.83785 13.1805L6.1052 13.2619L6.59362 13.75ZM2.68628 9.03107H3.3375L3.0933 8.46153L2.68628 9.03107ZM14.1641 47.8403L14.4897 48.6539L15.141 48.003L14.1641 47.8403ZM5.20978 5.12575L6.26802 4.39348L5.04697 3.57987L5.20978 5.12575ZM1.70943 1.78994L2.68628 1.95265L2.36067 0.976335L1.70943 1.78994Z" fill="#F9CFE1"/>
<path d="M2.52351 3.74259L3.66315 3.01035L2.36071 2.19675L2.52351 3.74259ZM0.407016 1.38314L1.54668 0.6509L0 0L0.407016 1.38314ZM4.64 8.38016L4.9656 7.07838L3.50035 7.32246L4.64 8.38016ZM3.01193 4.963L3.82596 4.88164L3.33754 3.98667L3.01193 4.963ZM2.03508 5.61388L2.93052 5.45117L2.36071 4.63757L2.03508 5.61388Z" fill="#F9CFE1"/>
<path d="M3.17476 5.85798L3.01194 5.36981L2.60493 5.69525L3.17476 5.85798ZM3.41895 8.21747L3.66315 7.15977L2.60493 7.32248L3.41895 8.21747Z" fill="#F9CFE1"/>
<path d="M1.87227 6.0207L2.36069 7.89202L4.07013 6.59024L1.87227 6.0207ZM1.13965 3.57987L1.70945 5.45119L3.33751 4.14941L1.13965 3.57987ZM0.48841 1.62721L0.814016 2.92899L2.03506 1.95265L0.48841 1.62721ZM4.47715 2.68492L3.82593 2.19675L3.66312 3.09173L4.47715 2.68492Z" fill="#F9CFE1"/>
</svg>
