<svg width="13" height="7" viewBox="0 0 13 7" fill="none" xmlns="http://www.w3.org/2000/svg">
<path d="M5.40101 2.32401L5.46382 2.51245H5.21262L5.40101 2.32401ZM5.27541 2.95213L5.40101 2.76369L5.52663 3.07775L5.27541 2.95213ZM3.64257 2.51245L3.83097 2.32401L3.95658 2.63807L3.64257 2.51245ZM1.6329 2.13558L1.3817 2.32401L1.31889 2.00995L1.6329 2.13558ZM0.314071 2.19839L0.0628576 2.38682L6.10592e-05 2.07277L0.314071 2.19839ZM0.879284 2.38682L0.62808 2.2612L0.816487 2.07277L0.879284 2.38682ZM4.9614 2.2612L5.08701 2.07277L5.21262 2.32401L4.9614 2.2612ZM2.57493 2.38682L2.70054 2.19839L2.82614 2.44963L2.57493 2.38682ZM5.71502 2.70088L5.90343 2.57526L5.96624 2.82651L5.71502 2.70088ZM12.686 0.251228L12.6232 0.879344L11.9952 0.502476L12.686 0.251228ZM8.85512 2.19839L8.98073 2.51245L8.60391 2.44963L8.85512 2.19839ZM9.48314 3.07775V3.39181L9.10633 3.26618L9.48314 3.07775ZM9.60875 2.63807V3.01494L9.29474 2.82651L9.60875 2.63807ZM10.8648 4.08274V4.45961L10.5508 4.27117L10.8648 4.08274ZM7.47348 2.13558L7.85029 2.19839L7.66189 2.51245L7.47348 2.13558ZM8.60391 2.19839L8.35271 2.57526L8.0387 2.19839H8.60391ZM4.33339 2.13558L4.20778 2.44963L3.95658 2.13558H4.33339ZM5.84064 2.2612L5.71502 2.51245L5.52663 2.19839L5.84064 2.2612ZM10.6136 1.88433L10.4252 2.38682L10.0484 2.00995L10.6136 1.88433ZM3.45416 2.13558L3.26576 2.44963L3.01455 2.13558H3.45416ZM6.53145 2.13558L6.40585 2.51245L6.09184 2.19839L6.53145 2.13558ZM7.41068 2.63807L7.15947 2.76369V2.44963L7.41068 2.63807ZM9.98555 4.64804L10.0484 4.89929L9.73435 4.83647L9.98555 4.64804ZM10.4252 4.20836L10.5508 4.45961L10.174 4.3968L10.4252 4.20836ZM7.97589 2.57526H7.78749L7.85029 2.38682L7.97589 2.57526ZM4.773 2.38682L4.7102 2.51245L4.5846 2.38682H4.773ZM10.4252 5.08772L10.6136 5.21335L10.4252 5.33897V5.08772ZM10.7392 3.01494L10.6764 3.51743L10.2368 3.20337L10.7392 3.01494ZM10.3624 4.83647L10.6136 4.89929L10.3624 5.08772V4.83647Z" fill="#A84D3B"/>
<path d="M10.5508 4.89928L10.6764 4.58523L10.9276 4.89928H10.5508ZM9.10633 3.64305L8.85512 3.76868V3.45462L9.10633 3.64305ZM9.42034 2.32401L9.16913 2.51244V2.19838L9.42034 2.32401ZM9.73435 3.3918V3.64305L9.48314 3.58024L9.73435 3.3918ZM7.41068 2.44963H7.15947L7.22228 2.19838L7.41068 2.44963ZM10.2368 5.71584V5.96708L9.98556 5.84146L10.2368 5.71584ZM9.79715 4.08273L9.98556 4.14554L9.85995 4.33398L9.79715 4.08273ZM10.802 1.69589L10.9904 1.7587L10.8648 1.94714L10.802 1.69589ZM10.9904 5.21334V5.65302L10.5508 5.33897L10.9904 5.21334ZM10.6136 5.90427L10.3624 5.65302L10.7392 5.59021L10.6136 5.90427ZM10.8648 6.34395L10.6136 6.0927L10.9904 5.96708L10.8648 6.34395ZM8.35271 3.20337L8.1643 3.32899L8.1015 3.07775L8.35271 3.20337ZM10.9904 6.72082L10.802 6.5952L11.0532 6.46957L10.9904 6.72082ZM8.98073 3.01494L8.79232 2.8265L9.04353 2.70088L8.98073 3.01494ZM11.0532 2.44963L10.9904 3.01494L10.5508 2.76369L11.0532 2.44963Z" fill="#A84D3B"/>
<path d="M10.8647 2.2612L10.8019 2.76369L10.2995 2.57526L10.8647 2.2612ZM11.6184 1.69589L11.5555 2.19839L11.1159 2.00995L11.6184 1.69589ZM11.4299 1.1934L11.3671 1.63308L10.9275 1.50746L11.4299 1.1934ZM10.6135 3.76868L10.3623 3.95711L10.2995 3.64305L10.6135 3.76868ZM9.9855 2.07277L10.0483 2.57526L9.48308 2.44963L9.9855 2.07277ZM10.2995 3.51743L10.1111 3.64305L9.9855 3.39181L10.2995 3.51743ZM11.3043 2.32401L11.1159 2.44963L10.9903 2.19839L11.3043 2.32401ZM6.7826 2.63807L6.53138 2.51245L6.7826 2.32401V2.63807Z" fill="#A84D3B"/>
<path d="M2.13528 2.32403L1.88407 2.44965V2.13559L2.13528 2.32403ZM10.8647 3.95713L10.4251 3.8315L10.9275 3.45463L10.8647 3.95713ZM12.1208 0.81655L12.3092 1.25623H11.744L12.1208 0.81655ZM9.35749 4.52243H9.6087L9.5459 4.77368L9.35749 4.52243ZM12.686 0L13 0.125621L12.686 0.314058V0ZM11.744 0.81655L11.8068 1.06779L11.4928 1.00498L11.744 0.81655ZM11.4928 1.44467L11.9324 1.31904L11.8696 1.82153L11.4928 1.44467ZM9.48309 3.2662H9.73431L9.6087 3.51745L9.48309 3.2662Z" fill="#A84D3B"/>
<path d="M10.4251 3.70587V3.95712L10.1739 3.89431L10.4251 3.70587ZM9.85992 2.7637L10.1739 2.57526L10.2367 3.01495L9.85992 2.7637Z" fill="#A84D3B"/>
</svg>
