<svg width="50" height="35" viewBox="0 0 50 35" fill="none" xmlns="http://www.w3.org/2000/svg">
<path d="M11.8034 1.18145L13.0517 2.07313L13.2746 0.847088L11.8034 1.18145ZM13.7539 4.43603L13.8431 4.23542L13.2858 4.36916L13.3973 3.56666L12.6171 3.9679L13.2858 4.36916L12.996 4.48063L13.4864 5.03792L13.7428 4.42488L14.378 4.92645V4.07936L13.7539 4.43603ZM19.2711 2.09541L19.2265 3.73384L20.6531 2.59699L19.2711 2.09541ZM21.8792 3.06509L21.8569 3.87874L22.5702 3.32146L21.8792 3.06509ZM28.6336 4.84842L29.0236 6.40883L29.9376 5.09363L28.6336 4.84842ZM25.3232 9.08385L24.4984 9.26215L25.1672 9.77488L25.3232 9.08385ZM23.2056 12.4276L22.5926 12.7174L23.1498 13.0072L23.2056 12.4276ZM19.1708 15.8828L18.5689 16.1948L19.1262 16.4624L19.1708 15.8828Z" fill="#8FC9C9"/>
<path d="M14.9576 18.1565L14.3669 18.424L14.8908 18.7138L14.9576 18.1565ZM20.9986 9.79717L20.4079 10.1315L20.9875 10.3879L20.9986 9.79717ZM22.4476 7.53457L21.8569 7.86893L22.4365 8.11414L22.4476 7.53457ZM18.881 3.23231V3.42177L18.8587 4.0125H19.0593V4.79272L20.0624 4.03478L19.5051 3.63355L18.881 3.23231ZM23.2278 4.07937L22.7485 4.04593L23.0272 4.71469L23.2055 4.41376L24.3201 4.63666L23.5956 3.47749L23.2278 4.07937ZM31.2528 3.77845L31.4534 5.67321L32.9693 4.36917L31.2528 3.77845ZM13.9099 1.7945L14.4672 1.43782L13.7205 1.21489L13.8319 1.99511L13.0963 2.75302L14.5452 3.08741L13.9099 1.7945ZM24.2755 2.59699L24.4539 4.38033L25.7022 3.13197L24.2755 2.59699ZM30.1048 3.44405L28.6335 4.25771L30.2608 5.33885L30.1048 3.44405ZM21.6339 2.21804L21.8569 2.10658L21.2996 1.63844L21.0544 2.32947L20.3411 2.66387L21.255 3.4998L21.6339 2.21804ZM15.3923 6.54258V5.20511L14.0548 5.65093L15.3923 6.54258ZM17.1756 9.2176V8.54884L16.3954 8.77174L17.1756 9.2176Z" fill="#8FC9C9"/>
<path d="M30.8181 2.51896L29.6255 2.89792L30.7401 3.67813L30.8181 2.51896ZM19.115 5.63977L19.3602 4.94874L18.658 4.93761L19.115 5.63977ZM30.0379 4.52519L31.0188 4.3023L30.5283 3.63354L30.0379 4.52519ZM27.4521 3.21L26.7611 3.04282L26.8168 3.85647L27.4521 3.21ZM22.3584 9.89747L23.1832 9.67458L22.4922 9.30675L22.3584 9.89747ZM21.1658 6.55373L21.9906 6.33084L21.2996 5.96301L21.1658 6.55373ZM18.6915 0.445861L17.2425 0.200652L17.7664 1.53813L18.6915 0.445861ZM14.7013 3.1654L15.0357 4.05709L15.5929 3.38833L14.7013 3.1654ZM14.0548 7.06643L14.5007 8.23676L15.2251 7.36739L14.0548 7.06643ZM17.889 2.16229L17.3317 0.936245L16.9973 1.49353L16.1057 0.824814L15.9942 1.93939L16.8858 1.605L16.663 2.27375L17.889 2.16229ZM16.4846 5.12707L15.0691 4.62553L15.3812 6.09675L16.4846 5.12707ZM17.1868 10.4102H17.6326L17.4097 9.96434L17.1868 10.4102ZM18.6357 8.43738L19.1039 8.42622L18.8475 7.98039L18.6357 8.43738ZM24.1306 15.7156L24.6433 15.4481L24.086 15.2475L24.1306 15.7156ZM27.1177 18.5801L27.6081 18.2791L27.0509 18.1008L27.1177 18.5801ZM12.8177 17.4655L13.2634 17.1311L12.7062 17.0197L12.8177 17.4655ZM25.0334 7.033L25.5127 6.69864L24.9554 6.54258L25.0334 7.033ZM21.8903 7.22249L22.3584 6.88813L21.7788 6.77666L21.8903 7.22249ZM22.2247 2.12885L21.4445 0.601884L21.2216 0.824814H20.7535L20.9764 1.18145L20.4971 1.85021L22.2247 2.12885ZM27.8756 4.33573L28.288 3.44405L27.3517 3.4998L27.8756 4.33573ZM28.0539 8.70486L28.9679 8.87208L28.745 8.23676L28.0539 8.70486ZM27.3072 5.78467L28.2323 5.85154L27.9313 5.23854L27.3072 5.78467ZM16.9416 5.2497L16.897 4.35801L16.1837 4.98217L16.9416 5.2497ZM26.9728 8.54884L27.3517 7.79094L26.5047 7.86893L26.9728 8.54884ZM25.3344 5.89614L25.6242 5.11592L24.7994 5.29425L25.3344 5.89614ZM23.5956 3.08741L22.6705 3.03166L23.094 3.87875L23.5956 3.08741ZM24.9777 3.67813L24.7548 4.83727L25.7914 4.23542L24.9777 3.67813ZM26.8056 5.87386L26.6273 6.67636L27.3629 6.26393L26.8056 5.87386ZM27.831 6.31968L27.5635 7.09987L28.3437 6.76551L27.831 6.31968ZM29.0348 6.94384L28.7673 7.72406L29.5475 7.38967L29.0348 6.94384ZM7.43421 8.28135L8.21443 8.19217L7.65714 7.74634L7.43421 8.28135ZM4.29109 6.20822L5.07131 6.09675L4.51402 5.65093L4.29109 6.20822ZM3.51087 5.4949L4.29109 5.38344L3.7338 4.93761L3.51087 5.4949ZM15.2697 8.28135L15.3143 8.72718L15.8493 8.45966L15.2697 8.28135ZM13.7093 7.64603L13.0071 8.03614L13.765 8.31479L13.7093 7.64603ZM19.0927 6.8101L18.3794 7.25592L19.193 7.51229L19.0927 6.8101ZM12.0709 7.81321L11.4021 8.25904L12.1823 8.48197L12.0709 7.81321ZM16.4512 5.88498L15.5372 6.48686L16.5961 6.79894L16.4512 5.88498ZM20.4971 5.35L19.4383 6.01876L20.642 6.39771L20.4971 5.35ZM21.2104 11.926L20.1181 12.5502L21.3107 12.996L21.2104 11.926ZM13.5756 12.3718L12.5278 12.9737L13.6759 13.3861L13.5756 12.3718ZM17.2871 13.3081L16.284 13.9768L17.4431 14.3112L17.2871 13.3081ZM15.1137 9.60767L15.5372 10.6665L16.0722 9.64114L15.1137 9.60767ZM12.3495 6.30853L11.235 7.02187L12.5278 7.41198L12.3495 6.30853ZM9.40704 6.21937L10.1426 7.35623L10.5328 6.05219L9.40704 6.21937ZM9.90862 1.73874L11.7365 3.32146L11.7476 1.14802L9.90862 1.73874ZM23.696 8.64915L24.621 8.82749L24.0972 7.98039L23.696 8.64915ZM23.8074 10.7892L24.699 11.0566L24.2532 10.165L23.8074 10.7892ZM22.5368 6.53146L23.4619 6.69864L22.9269 5.85154L22.5368 6.53146ZM23.3615 5.47259L24.8105 5.75124L23.9746 4.41376L23.3615 5.47259ZM10.3544 9.42937L11.7476 9.70801L10.9674 8.4151L10.3544 9.42937ZM2.27371 5.60634L3.07624 6.24165L2.98705 5.14935L2.27371 5.60634ZM17.51 3.23231L17.7107 4.29114L18.658 3.48864L17.51 3.23231ZM18.2011 4.21311L17.4877 4.65897L18.2902 5.26082L18.2011 4.21311ZM19.271 1.24833L18.3237 2.02854L19.5943 2.64155L19.271 1.24833ZM6.37535 5.75124L5.81806 5.30541L5.70663 6.08563L6.37535 5.75124ZM27.8868 4.41376L28.8118 4.48063L28.3995 3.74501L27.8868 4.41376ZM30.8181 3.81188L32.3562 2.9871L31.041 2.31835L30.8181 3.81188Z" fill="#8FC9C9"/>
<path d="M30.116 5.26082L30.272 6.3754L31.1637 5.89613L30.116 5.26082ZM28.0763 5.23854L28.6893 4.70353L27.9091 4.41376L28.0763 5.23854ZM20.5529 5.50603L20.8092 4.81499L19.9956 4.80383L20.5529 5.50603ZM27.2404 2.24032L27.3296 2.59699L26.9951 2.46324L26.8391 2.90907L27.3184 2.70845L27.3853 3.41061L28.3884 2.42981L27.2404 2.24032ZM25.9029 4.52519L26.828 4.59206L26.527 3.86759L25.9029 4.52519ZM13.4419 9.51852L13.9323 8.99466L13.2635 9.05038L13.4419 9.51852ZM25.7023 12.1712L25.6911 11.5805L25.1784 11.8368L25.7023 12.1712ZM26.2595 7.37851L26.1815 6.78778L25.6911 7.09987L26.2595 7.37851ZM25.0335 6.76551L24.9443 6.17478L24.4651 6.48686L25.0335 6.76551ZM15.5819 11.3353L16.0277 11.1124L15.5819 10.8895V11.3353Z" fill="#8FC9C9"/>
<path d="M18.7918 10.6219L19.9287 9.99778L18.7472 9.4628L18.7918 10.6219ZM23.5064 6.8101L24.4761 7.65716L24.5876 6.3754L23.5064 6.8101ZM26.5158 10.6554L27.3852 11.6139L27.6304 10.3433L26.5158 10.6554ZM21.7789 11.3799L22.782 12.1824L22.8266 10.9006L21.7789 11.3799ZM26.5158 2.07314L25.5685 2.24032L25.9697 1.57156L25.1449 1.62731L25.457 2.24032L24.9889 2.31835L26.0477 3.7896L26.5158 2.07314ZM7.09987 2.96479L7.2113 4.19083L8.39275 3.52208L7.09987 2.96479ZM10.1092 3.24343L10.3322 3.22115L9.96435 2.80876L10.6331 2.53012L9.91972 2.02854L9.97551 2.80876L9.61883 2.49668L9.46277 3.29918L10.0201 3.25459L9.97551 4.03477L10.7223 3.53323L10.1092 3.24343ZM9.52965 4.3023L10.243 4.9153L10.4213 4.24655L9.52965 4.3023ZM11.3687 3.74501L10.5885 3.80072L11.2015 4.42488L11.3687 3.74501ZM5.29426 3.88991L5.98529 4.17967L5.92958 3.51095L5.29426 3.88991ZM8.71603 3.41061L7.96921 3.91219L8.77174 4.19083L8.71603 3.41061ZM11.7588 11.1681L12.3161 11.2795L11.9817 10.8337L11.7588 11.1681ZM4.29111 10.4994L4.42485 11.0566L4.69234 10.5551L4.29111 10.4994ZM2.32944 13.3973L2.88673 13.4864L2.55237 13.0406L2.32944 13.3973ZM2.21801 9.71914L3.10966 9.62998L2.6304 9.01695L2.21801 9.71914ZM0.267495 7.51229L1.15914 7.43426L0.679884 6.82122L0.267495 7.51229ZM20.6643 19.1039L21.255 19.2154L20.8984 18.7695L20.6643 19.1039ZM22.3808 21.8458L22.9603 21.935L22.5926 21.4891L22.3808 21.8458ZM20.3745 11.3687L20.4414 11.8146L20.8537 11.4022L20.3745 11.3687ZM20.5974 8.30363L20.6309 8.77174L21.0767 8.38166L20.5974 8.30363ZM17.811 12.9403L18.2791 13.1186L18.1231 12.6728L17.811 12.9403ZM14.3558 15.4258L14.8016 15.6041L14.6567 15.1583L14.3558 15.4258ZM0.624168 11.3464L0.668727 11.848L1.00309 11.5136L0.624168 11.3464ZM5.21623 16.3843L5.68433 16.5627L5.52828 16.1168L5.21623 16.3843ZM15.983 7.77978L16.4512 7.95812L16.2952 7.51229L15.983 7.77978ZM16.8748 2.71958L17.432 3.3103L17.6549 2.53012L16.7967 2.66386L15.9942 2.0397L15.7379 3.32146L16.8748 2.71958ZM20.6197 2.9871L19.8841 3.9679L21.177 4.22427L21.3108 4.4472L21.7343 3.83416L21.021 3.65582L20.6197 2.9871ZM16.3843 5.28313L16.3286 6.06332L17.0307 5.55062L16.3843 5.28313ZM18.8364 5.66208L18.8253 6.47571L19.5385 5.91842L18.8364 5.66208ZM19.7503 7.11102H19.3936L19.6166 7.57916L19.7281 7.35623L20.5417 7.48998L19.9844 6.6652L19.7503 7.11102ZM9.00583 11.235H8.6714L8.89433 11.6808L9.00583 11.4579L9.78598 11.5693L9.22869 10.7892L9.00583 11.235ZM1.56038 6.53145L1.22602 6.5203L1.44895 6.96612L1.56038 6.74323L2.3406 6.85469L1.78331 6.07447L1.56038 6.53145Z" fill="#8FC9C9"/>
<path d="M21.021 5.16051L20.6643 5.14935L20.8873 5.61749L20.9987 5.39456L21.8124 5.52834L21.2551 4.70352L21.021 5.16051ZM18.5689 4.79271L18.7919 4.68124L18.2346 4.20198L17.9782 4.89302L17.276 5.22738L18.19 6.06331L18.5689 4.79271ZM17.3094 7.73518L17.577 7.08874L16.7968 7.03299L17.3094 7.73518ZM17.6104 5.55061L16.8748 6.55373L18.1677 6.8101L18.3014 7.03299L18.725 6.40883L18.0116 6.23049L17.6104 5.55061ZM22.7374 4.36916L21.5114 4.23542L21.9573 5.48374L21.8458 5.70664L22.5815 5.76239L22.3808 5.0602L22.7374 4.36916ZM26.8949 4.2577L26.1147 5.2051L27.3964 5.51718L27.5079 5.74011L27.9537 5.14935L27.2515 4.92645L26.8949 4.2577ZM15.7936 3.55551L17.0197 3.9679L16.5404 2.63042L15.7936 3.55551Z" fill="#8FC9C9"/>
<path d="M14.7013 4.19083L16.4624 4.88186L16.1614 3.39949L14.7013 4.19083ZM18.881 2.40749L18.3237 2.56355L17.967 2.47437L18.1008 2.6973L17.9894 2.80876L18.2345 2.92019L18.2457 3.03166L18.2345 2.92019L18.6024 3.25459L18.881 2.40749ZM7.71291 2.80876L7.6795 2.92019L8.2702 3.32146L8.74946 3.67813L9.22872 1.96167L7.52345 2.6527L7.71291 2.80876Z" fill="#8FC9C9"/>
<path d="M9.4293 2.85332L9.60767 2.1846L8.82745 2.46325L9.4293 2.85332ZM12.4387 3.80072L11.7365 3.41061L11.8034 4.19083L12.4387 3.80072ZM6.19706 4.04593L6.28624 5.13823L7.33395 4.50291L6.19706 4.04593ZM6.75435 8.72718L6.19706 8.8832L6.56489 9.30675L6.75435 8.72718ZM0.55729 8.23676L0 8.39278L0.36783 8.81633L0.55729 8.23676ZM4.95989 6.72092L4.4026 6.87697L4.77036 7.30052L4.95989 6.72092ZM24.5207 1.8948L23.2056 1.00315L22.9157 2.76417L24.5207 1.8948ZM9.69685 8.15873L9.87516 8.93895L10.3879 8.34823L9.69685 8.15873ZM8.63799 6.59833L8.81629 7.37851L9.32902 6.77667L8.63799 6.59833ZM2.0397 7.4677L2.20685 8.24792L2.71958 7.65716L2.0397 7.4677ZM11.6474 4.73697L11.2684 4.09052L10.9897 4.90418L11.6474 4.73697ZM9.19528 4.40261L8.86092 5.77355L9.9755 5.5729L9.19528 4.40261Z" fill="#8FC9C9"/>
<path d="M4.61437 4.22427L4.39144 5.11592L5.11588 5.00449L4.61437 4.22427ZM8.45961 4.52519L7.15557 4.74812L7.73518 5.61749L8.45961 4.52519ZM11.8702 5.68437L10.8671 4.42489L10.555 6.0076L11.8702 5.68437ZM13.0963 3.76729L13.5421 2.38522L12.4498 2.58584L12.84 1.99511L11.6139 1.88365L11.9037 2.64155L11.2572 3.03166L12.0598 3.29918V3.07625L12.3606 2.71958L13.0963 3.76729ZM14.4338 3.91219L13.765 3.3549L13.7873 4.24655L14.4338 3.91219ZM6.7989 3.66698L6.43114 3.24343L6.25277 3.82304L6.7989 3.66698ZM6.93265 6.08563L7.18904 6.50914L7.3785 6.06332L6.93265 6.08563ZM3.62238 6.14135L3.87871 6.56489L4.06817 6.09675L3.62238 6.14135Z" fill="#8FC9C9"/>
<path d="M19.4383 9.03926L19.9622 9.44049L19.8507 8.74945L19.4383 9.03926ZM21.5783 15.2809L22.0576 15.7267L22.0353 15.0357L21.5783 15.2809ZM10.5105 3.28802L11.2908 3.23231L11.0121 2.56355L10.5105 3.28802ZM9.0616 3.33262L9.12848 4.1128L9.76379 3.62238L9.0616 3.33262ZM11.4914 6.07447L13.1632 5.96301L12.1601 4.06824L11.4914 6.07447ZM13.2747 0.780219L16.8971 0.20065L15.1138 3.34374L13.2747 0.780219ZM18.4463 0.0557494L21.2328 0L19.7839 1.85021L18.4463 0.0557494ZM23.5957 0.211773L25.8694 0.579603L23.9524 3.17656L23.5957 0.211773ZM28.1655 1.32635L30.8962 2.19572L28.8454 3.97906L28.1655 1.32635ZM32.2448 2.83104L34.1062 3.80072L31.9885 5.10479L32.2448 2.83104Z" fill="#8FC9C9"/>
<path d="M21.2773 0.0668737L23.0829 0.156059L22.0798 1.24833L21.2773 0.0668737ZM26.4044 0.902808L28.2992 1.34867L26.5715 2.61927L26.4044 0.902808ZM38.5979 22.6148L38.3526 21.9795L38.0183 22.5145L38.5979 22.6148ZM30.729 27.0063L30.4392 26.3933L30.1494 26.9506L30.729 27.0063ZM33.7606 19.2042L33.4039 18.6469L33.181 19.2377L33.7606 19.2042ZM30.5283 21.2662L30.7735 21.8012L30.9964 21.2439L30.5283 21.2662ZM43.0562 21.9126L43.0339 22.7374L43.5912 22.2359L43.0562 21.9126ZM29.5252 10.0312L28.9679 8.91664L28.4663 10.0758L29.5252 10.0312ZM29.893 15.1806L29.4026 13.8765L28.7338 15.1026L29.893 15.1806ZM47.0241 23.0718L46.6117 22.1356L46.1659 23.0718H47.0241ZM45.2185 20.8872L44.2488 21.3331L45.2185 21.7789V20.8872ZM25.5127 13.4753L25.1449 14.9242L26.5381 14.1663L25.5127 13.4753ZM45.9987 21.3553L46.556 20.8649L45.7758 20.6086L45.9987 21.3553ZM48.0718 20.4637L47.6817 21.1325L48.3727 21.1882L48.0718 20.4637ZM46.021 23.5288L45.7089 24.6768L46.6786 24.0415L46.021 23.5288ZM25.6019 27.7419L25.5127 28.3326L25.9585 27.9648L25.6019 27.7419ZM35.8783 24.0972L35.5885 24.5207L36.0678 24.465L35.8783 24.0972ZM47.782 21.3553L46.634 21.2773L47.1355 22.4588L47.782 21.3553ZM42.8444 20.943L42.7664 20.3522L42.2871 20.6866L42.8444 20.943ZM42.8778 24.1975L42.0531 24.2533L42.588 24.8774L42.8778 24.1975ZM41.4512 23.4173L42.1199 23.2278L41.6741 22.5034L41.4512 23.4173ZM40.3366 19.5163L39.3001 20.2965L40.3812 20.7758L40.3366 19.5163ZM29.2466 23.8632L29.7258 24.1975L29.6589 23.6068L29.2466 23.8632ZM37.0151 13.8097L37.4387 14.523L37.6394 13.7985L37.0151 13.8097ZM39.0437 20.6977L38.5979 20.8427L38.9991 21.3219L39.0437 20.6977ZM39.4227 19.3268L38.8208 18.7472L38.765 19.5832L39.4227 19.3268ZM38.9991 17.7998L38.3526 17.2425L38.3638 18.0896L38.9991 17.7998ZM36.4913 17.0976L36.7142 18.5689L37.6951 17.3206L36.4913 17.0976ZM37.4387 19.6278L38.1075 19.9621L37.8511 19.2934L37.4387 19.6278ZM35.9897 21.7789L36.3241 22.1802L36.4356 21.6786L35.9897 21.7789ZM35.2764 18.4352L35.3433 19.0259L35.6777 18.5466L35.2764 18.4352ZM34.4739 21.712V22.2247L34.8418 21.9238L34.4739 21.712ZM40.2474 21.6451L40.2029 22.1578L40.593 21.8792L40.2474 21.6451ZM34.9867 16.4066L34.8529 16.0945L34.5185 16.4846L34.786 16.4958L34.9867 17.2983L35.5216 16.4512L34.9867 16.4066ZM37.8065 15.7379L37.1043 16.1614L37.8622 16.4624L37.8065 15.7379ZM44.65 23.3616L43.8253 23.4173L44.3826 24.0415L44.65 23.3616ZM47.6594 19.6612L46.7677 19.2934L46.79 20.0736L47.6594 19.6612ZM49.1529 24.8997L49.1307 23.473L48.0941 23.9523L49.1529 24.8997ZM48.0941 22.0687L48.5734 21.7343L48.0161 21.4668L48.0941 22.0687ZM45.5863 21.8123L45.107 22.0129L45.5529 22.2805L45.5863 21.8123ZM32.9915 6.87697L32.6126 7.59028L33.5043 7.41198L32.9915 6.87697ZM38.0852 10.6665L37.9737 12.2604L39.2555 11.3019L38.0852 10.6665ZM33.1476 13.7539L32.3116 13.5756L32.7129 14.3112L33.1476 13.7539ZM29.0459 17.1868L28.3771 17.1422L28.7116 17.6661L29.0459 17.1868ZM29.0571 12.5613L28.3883 12.5836L28.7784 13.074L29.0571 12.5613ZM31.4757 11.1124L30.807 11.1458L31.2194 11.6251L31.4757 11.1124ZM33.4039 8.19217L32.9804 7.96927L32.9693 8.68259L33.259 8.45966L34.1507 9.12841L33.9724 7.76862L33.4039 8.19217ZM41.2952 10.7L40.6933 12.4833L42.6215 11.926L41.2952 10.7ZM34.9643 7.24477L34.4071 8.93895L36.0789 8.32591L34.9643 7.24477ZM39.9576 9.69686L38.3081 10.0089L39.5119 11.5359L39.9576 9.69686ZM33.103 6.01876H33.3705L33.0696 5.35L32.5346 5.85154L31.7544 5.82926L32.2002 6.98844L33.103 6.01876ZM41.05 9.30675L39.8016 9.16185L40.4927 10.3322L41.05 9.30675Z" fill="#8FC9C9"/>
<path d="M39.5787 10.9229L40.5818 11.0566L40.3588 10.2764L39.5787 10.9229ZM37.6282 8.58228L37.0709 8.13645L36.7811 8.91664L37.6282 8.58228ZM30.0824 13.5087L30.8627 13.7873L30.506 13.0963L30.0824 13.5087ZM30.7512 9.69686L31.576 9.8752L31.1302 9.23988L30.7512 9.69686ZM29.4137 20.1405H29.9933L29.592 19.6946L29.4137 20.1405ZM30.4168 23.7406L31.0076 23.7294L30.5952 23.3059L30.4168 23.7406ZM33.8163 11.6697L34.3959 11.5805L33.95 11.2015L33.8163 11.6697ZM31.0856 10.6331L31.6651 10.5439L31.2193 10.1761L31.0856 10.6331ZM33.7048 6.25281V4.53635L33.3705 4.62554L32.9692 4.40261L33.0026 4.82615L32.267 5.21626L33.7048 6.25281ZM37.5501 9.81945L38.2969 9.173L37.4052 8.83864L37.5501 9.81945ZM36.2349 14.2778L37.0597 14.7236L37.0151 14.0549L36.2349 14.2778ZM36.4356 10.9563L37.2492 11.4022L37.2158 10.7334L36.4356 10.9563ZM35.3544 13.6982L35.9451 13.0963L35.1204 12.9069L35.3544 13.6982ZM34.5742 10.7446L35.1649 10.1427L34.329 9.95322L34.5742 10.7446ZM34.4182 7.34508L33.5934 6.89925L33.6156 7.8355L34.4182 7.34508ZM35.1649 8.57112L34.4627 9.52968L35.6665 9.41821L35.1649 8.57112Z" fill="#8FC9C9"/>
<path d="M35.9452 10.7668L35.4547 11.4356L36.2907 11.3687L35.9452 10.7668ZM36.8368 11.8368L36.3464 12.5056L37.1823 12.4387L36.8368 11.8368ZM37.8065 12.8065L37.3161 13.4753L38.152 13.3973L37.8065 12.8065ZM31.041 8.09185L29.7815 8.04726L30.5617 9.05037L31.041 8.09185ZM31.9661 12.5502L32.724 13.1075L32.6126 12.1043L31.9661 12.5502ZM31.5983 15.1806L32.3785 15.7156L32.2447 14.7125L31.5983 15.1806ZM32.0441 9.98665L32.802 10.5216L32.6906 9.51851L32.0441 9.98665ZM32.9692 9.51851L34.1953 10.3767L33.9723 8.79404L32.9692 9.51851ZM37.539 9.90862L38.3526 10.3544L38.2746 9.51851L37.539 9.90862ZM40.5484 10.5439L42.276 10.2876L41.2728 9.20643L40.5484 10.5439ZM39.3892 11.6585L39.1663 12.7508L40.1694 12.6059L39.3892 11.6585ZM37.3384 10.7334L38.1186 10.5105L37.5167 9.91978L37.3384 10.7334ZM37.8176 7.61259L37.7508 7.98039L37.5055 7.70174L37.1712 8.05842L37.6839 8.08069L37.461 8.74945L38.7762 8.27019L37.8176 7.61259ZM35.6442 9.13956L36.4578 9.58538L36.4801 8.8052L35.6442 9.13956ZM32.9358 17.12L33.103 16.5627L32.5457 16.6518L32.9358 17.12ZM34.8083 11.8814L34.9866 11.3241L34.407 11.4133L34.8083 11.8814ZM33.95 11.3464L34.1172 10.7891L33.5376 10.8783L33.95 11.3464Z" fill="#8FC9C9"/>
<path d="M32.5346 10.7668L33.0696 11.9372L33.6826 10.8226L32.5346 10.7668ZM33.5043 14.4784L34.0392 15.6599L34.6522 14.523L33.5043 14.4784ZM40.058 14.4004L40.1025 13.5533L39.4338 14.0549L40.058 14.4004ZM39.2778 17.0308L38.8319 17.8556L39.5007 17.8221L39.2778 17.0308ZM39.8351 16.5403L40.5038 17.0754L40.6153 16.2283L39.8351 16.5403ZM40.9496 18.5466L40.2809 18.0562L40.37 18.8921L40.9496 18.5466ZM41.3955 12.5502L40.6487 13.7762L42.1534 13.4753L41.3955 12.5502ZM38.1967 13.1521L37.7731 13.988L38.7316 13.7093L38.1967 13.1521ZM36.5248 14.7347L37.1043 14.8128L36.926 14.2555L36.5248 14.7347ZM38.9546 14.5118L37.7954 15.0691L38.9434 15.6599L38.9546 14.5118ZM26.0254 15.1026L26.527 16.284L27.1735 15.1694L26.0254 15.1026ZM37.1712 7.37851L36.235 7.15561L36.8814 6.70978L36.1012 6.41998L36.1346 7.08874L35.6889 6.97727L36.0566 8.76061L37.1712 7.37851ZM25.5238 21.5337L26.0366 21.8458L25.8693 21.2885L25.5238 21.5337ZM25.5016 24.0972L26.0032 24.4093L25.8359 23.852L25.5016 24.0972ZM29.514 11.1681L29.2911 11.5693L29.8707 11.5025L29.514 11.1681ZM31.8993 6.26393L30.7847 6.82122L31.8324 7.63487V7.89124L32.5011 7.53456L31.9438 7.0553L31.8993 6.26393ZM31.2305 8.38165L30.9296 8.21444L30.9073 8.73829L31.1302 8.59343L31.7989 9.07269L31.6652 8.06957L31.2305 8.38165ZM33.1476 8.44853L32.111 7.77977L31.9438 9.09497L31.7209 9.25102L32.3674 9.62998L32.5011 8.90551L33.1476 8.44853ZM36.6808 9.34018L35.5662 9.87519L36.6028 10.7L36.6251 10.9563L37.2715 10.5997L36.7142 10.1092L36.6808 9.34018ZM35.4325 6.74322L34.6077 5.40571L33.6045 6.87696L35.4325 6.74322Z" fill="#8FC9C9"/>
<path d="M27.7753 18.3237L28.0539 18.9256L28.2769 18.2568L27.7753 18.3237ZM35.4659 4.52519L37.383 5.79582L34.5631 7.35623L35.4659 4.52519ZM39.144 7.13333L41.2394 9.09497L38.6201 9.8306L39.144 7.13333ZM42.4878 10.3656L43.7806 12.0152L41.3286 12.3272L42.4878 10.3656Z" fill="#8FC9C9"/>
<path d="M33.9166 3.72269L35.477 4.61437L34.0838 5.13823L33.9166 3.72269ZM37.6282 6.06331L39.1885 7.26708L37.0931 7.7129L37.6282 6.06331ZM43.9255 18.2902L43.1676 19.7058L44.728 19.3491L43.9255 18.2902ZM46.5782 19.6054L45.4079 21.099L47.4141 21.2104L46.5782 19.6054Z" fill="#8FC9C9"/>
<path d="M42.1868 13.6313L41.0053 14.9688L42.7664 15.0468L42.1868 13.6313ZM45.9541 18.2345L44.3045 17.8444L44.7838 19.7392L45.9541 18.2345Z" fill="#8FC9C9"/>
<path d="M46.8904 18.3906L45.8204 17.7553L45.9653 19.0928L46.8904 18.3906Z" fill="#8FC9C9"/>
<path d="M45.0179 19.2376L45.8538 19.7727L45.9653 18.959L45.0179 19.2376ZM44.1262 16.1837L43.7361 15.593L43.2234 16.2283L44.1262 16.1837ZM43.6469 17.3428L44.5609 16.9639L43.8475 16.362L43.6469 17.3428ZM40.8605 20.6531L41.4178 21.3999L41.6742 20.7646L40.8605 20.6531ZM42.2314 17.9559L42.8333 18.6581L43.0562 18.0116L42.2314 17.9559ZM40.0023 19.9064L40.7824 19.5943L40.1137 19.0927L40.0023 19.9064ZM41.8748 14.9354L40.8716 15.5484L42.0197 15.9051L41.8748 14.9354ZM41.8079 17.6772L41.1169 18.1231L41.9305 18.346L41.8079 17.6772ZM42.2872 18.7361L41.5738 19.1373L42.354 19.416L42.2872 18.7361ZM42.7887 20.0179L42.0642 20.4191L42.8445 20.6977L42.7887 20.0179ZM43.6247 17.3652L44.2377 18.0673L44.4606 17.2537L43.6247 17.3652ZM46.0767 19.2599L47.7486 19.7392L47.2693 18.346L46.0767 19.2599Z" fill="#8FC9C9"/>
<path d="M44.7615 19.7281L44.0928 20.642L45.0736 20.9207L44.7615 19.7281ZM43.1453 18.0562L43.9702 18.1231L43.6135 17.3429L43.1453 18.0562ZM44.6278 15.3366L44.4495 15.671L44.2934 15.3366L43.8699 15.5596L44.3603 15.7379L43.9144 16.2951L45.3188 16.2617L44.6278 15.3366ZM42.0642 16.0834L42.6996 16.7744L42.9782 16.0388L42.0642 16.0834Z" fill="#8FC9C9"/>
<path d="M44.1819 14.6233L43.4017 14.0437L44.1819 13.8765L43.5688 13.3192L43.346 13.9546L42.9558 13.6648L42.6215 15.4481L44.1819 14.6233ZM43.045 16.5627L41.819 16.6741L42.51 17.811L42.432 18.0562L43.1788 17.9447L42.8221 17.2983L43.045 16.5627Z" fill="#8FC9C9"/>
<path d="M43.5466 11.6585L44.8841 13.531L41.6964 13.9991L43.5466 11.6585ZM45.8426 15.593L47.1244 18.1565L44.416 17.9336L45.8426 15.593ZM48.6068 22.1133L48.9746 23.2278L47.6371 22.9381L48.6068 22.1133ZM40.1137 28.6893L40.0691 28.0205L39.5899 28.4218L40.1137 28.6893ZM44.6834 29.7258L44.416 30.506L45.0847 30.2051L44.6834 29.7258ZM35.1204 27.519L34.8418 28.2992L35.5105 27.9982L35.1204 27.519ZM48.1387 32.1333L48.0272 31.1302L47.325 31.877L48.1387 32.1333ZM46.8569 29.5029L45.798 29.6144L46.5782 30.3612L46.8569 29.5029ZM47.6928 30.1717L48.3616 29.8596L47.6928 29.3915V30.1717ZM49.922 29.9711L49.3424 30.4949L49.9889 30.7512L49.922 29.9711ZM46.6897 32.7575L46.3553 33.2479L46.9126 33.103L46.6897 32.7575ZM49.3647 30.729L48.3058 30.3054L48.4173 31.5761L49.3647 30.729ZM44.6612 28.3883L44.7726 27.8088L44.2153 27.9648L44.6612 28.3883ZM43.6804 31.5092L42.9001 31.3085L43.2345 32.0665L43.6804 31.5092ZM38.1075 25.4013L37.3272 25.2007L37.6616 25.9586L38.1075 25.4013ZM42.5658 30.3389L43.2568 30.3612L43.0562 29.5364L42.5658 30.3389ZM42.6995 26.2929L41.4734 26.7053L42.3652 27.4855L42.6995 26.2929ZM41.1168 27.0286H40.6487L40.8716 27.6082L41.1168 27.0286ZM41.897 25.8248L41.4958 25.0892L41.1837 25.8694L41.897 25.8248ZM41.9528 24.2421L41.5069 23.5399L41.2506 24.3424L41.9528 24.2421ZM39.7793 22.8154L39.5564 24.2867L40.8939 23.395L39.7793 22.8154ZM39.8908 25.5127L40.4258 26.0366L40.37 25.3232L39.8908 25.5127ZM41.9639 28.2992L41.7632 28.7673L42.2091 28.6224L41.9639 28.2992ZM45.5752 31.6764L44.7726 31.4869L45.107 32.2448L45.5752 31.6764Z" fill="#8FC9C9"/>
<path d="M43.959 34.2399L43.1565 34.0393L43.4909 34.7972L43.959 34.2399ZM49.6433 28.7116L48.9077 28.0874L48.6848 28.823L49.6433 28.7116ZM49.5541 34.0615L49.7771 33.3148L49.1529 33.3928L49.5541 34.0615ZM49.4427 31.4757L50 31.3308L49.5541 30.885L49.4427 31.4757ZM47.1355 30.4949L46.6229 30.5284L46.9572 30.9185L47.1355 30.4949ZM42.4543 23.5845L41.7855 24.231L42.432 24.4093L42.4543 23.5845ZM43.1565 23.2836L43.6246 23.9969L43.959 23.2167L43.1565 23.2836ZM43.6023 25.5127L43.1231 24.844L42.9336 25.6688L43.6023 25.5127Z" fill="#8FC9C9"/>
<path d="M46.2884 26.2595L45.1404 27.3741L46.7231 27.519L46.2884 26.2595ZM48.774 28.667L47.2135 29.737L49.086 30.4615L48.774 28.667Z" fill="#8FC9C9"/>
<path d="M48.2502 26.8391L46.8012 25.9697L46.6898 27.9091L48.2502 26.8391ZM49.309 27.2626L48.4842 26.3264L48.2168 27.6639L49.309 27.2626Z" fill="#8FC9C9"/>
<path d="M47.2693 27.4855L47.9046 28.2434L48.2613 27.5078L47.2693 27.4855ZM46.7344 25L48.1499 24.8886L47.4365 23.7517L46.7344 25ZM42.8556 27.5078L43.1677 28.3995L43.6135 27.8756L42.8556 27.5078ZM44.7727 25.4459L45.1405 26.2929L45.5417 25.7356L44.7727 25.4459ZM42.2872 26.527L43.1343 26.4713L42.6439 25.7802L42.2872 26.527ZM44.6835 24.9666L43.9033 25.1895L44.6055 25.6353L44.6835 24.9666ZM44.795 26.1369L43.9925 26.2929L44.6613 26.7945L44.795 26.1369ZM44.873 27.4967L44.0705 27.6527L44.7393 28.1543L44.873 27.4967ZM46.2885 25.3232L46.6563 26.1703L47.1022 25.4681L46.2885 25.3232ZM48.4062 28.054L49.9332 28.8899L49.7883 27.4409L48.4062 28.054Z" fill="#8FC9C9"/>
<path d="M46.6451 27.9091L45.7534 28.5778L46.6005 29.1351L46.6451 27.9091ZM45.6197 25.8137L46.3999 26.1257L46.2884 25.2787L45.6197 25.8137ZM44.951 22.5257L45.3522 23.3727L45.8315 22.7597L44.951 22.5257ZM45.8203 23.7851L44.6165 23.5176L44.9175 24.8105L44.7726 25.0335L45.5083 25.1449L45.3744 24.4204L45.8203 23.7851ZM49.3647 24.5876L49.699 26.7276L47.8043 25.9474L49.3647 24.5876ZM49.9219 31.6986V32.8578L48.7293 32.1668L49.9219 31.6986ZM44.9732 13.7539L45.9429 15.4704L43.8252 15.0691L44.9732 13.7539Z" fill="#8FC9C9"/>
</svg>
