<svg width="34" height="25" viewBox="0 0 34 25" fill="none" xmlns="http://www.w3.org/2000/svg">
<path d="M4.37475 12.7408L20.9751 6.16349C21.7615 5.84901 22.3913 5.23555 22.7264 4.45754C23.0615 3.67953 23.0746 2.80042 22.7628 2.01277C22.4484 1.22619 21.835 0.596319 21.0571 0.261177C20.2792 -0.0739648 19.4002 -0.0870648 18.6127 0.224755L2.01239 6.80207C1.22593 7.11655 0.596179 7.72999 0.261091 8.508C-0.0740001 9.28601 -0.0870981 10.1651 0.224673 10.9528C0.377865 11.3442 0.607161 11.7013 0.899291 12.0035C1.19142 12.3057 1.54059 12.5469 1.92656 12.7132C2.31254 12.8795 2.72764 12.9675 3.14788 12.9723C3.56812 12.977 3.98513 12.8983 4.37475 12.7408Z" fill="#283749"/>
<path d="M29.7222 24.6821C27.3597 24.6821 25.4445 22.7666 25.4445 20.4037C25.4445 18.0407 27.3597 16.1252 29.7222 16.1252C32.0848 16.1252 34 18.0407 34 20.4037C34 22.7666 32.0848 24.6821 29.7222 24.6821Z" fill="#283749"/>
</svg>
