<svg width="3" height="3" viewBox="0 0 3 3" fill="none" xmlns="http://www.w3.org/2000/svg">
<path d="M1.58515e-05 1.95676V1.76109L0.260874 1.82631L1.58515e-05 1.95676ZM1.10868 0.0652133L1.43476 0.130443L1.23911 0.391342L1.10868 0.0652133Z" fill="#964C38"/>
<path d="M1.17403 0.130443L1.50011 0.521796L0.978385 0.652246L1.17403 0.130443ZM1.76096 0.0652133L2.15226 0.195668L1.82618 0.521796L1.76096 0.0652133ZM0.0653775 1.0436L0.261015 1.17405L0.000158515 1.3045L0.0653775 1.0436ZM0.717529 0.71747L0.847957 0.91315L0.65231 0.978374L0.717529 0.71747Z" fill="#964C38"/>
<path d="M0.261014 1.17407L0.391454 1.36975L0.130585 1.43498L0.261014 1.17407ZM1.76098 0.652259L1.89141 0.782715L1.63055 0.913165L1.76098 0.652259Z" fill="#964C38"/>
<path d="M2.02181 0.456571L2.28267 0.782699L1.82616 0.913149L2.02181 0.456571ZM0.978349 1.63063L0.782699 1.76108V1.5654L0.978349 1.63063ZM0.26097 0.847924V0.978373H0.0653309L0.26097 0.847924ZM0.0653309 1.43496L0.130541 1.5654H0.000110961L0.0653309 1.43496ZM2.4131 0.326117L2.67397 0.652245L2.28267 0.71747L2.4131 0.326117ZM1.89137 1.36973H2.02181L1.95659 1.50018L1.89137 1.36973ZM1.50008 1.89153L1.56529 1.76108L1.69573 1.89153H1.50008ZM1.04357 0.326117L0.847919 0.130443L1.10878 0.0652133L1.04357 0.326117Z" fill="#964C38"/>
<path d="M1.76099 0.32613L1.95664 0.521809L1.69578 0.587034L1.76099 0.32613ZM2.08707 0.521809L2.34793 0.391355V0.652259L2.08707 0.521809Z" fill="#964C38"/>
<path d="M2.08697 0.521801V0.260896L2.28262 0.326121L2.08697 0.521801ZM0.587024 0.782706L0.391386 0.978381L0.260948 0.782706H0.587024ZM0.782671 0.195671L0.847891 0.652251L0.391386 0.521801L0.782671 0.195671Z" fill="#964C38"/>
<path d="M0.978303 0.521808L0.847872 0.652257L0.717441 0.391353L0.978303 0.521808ZM2.60872 1.10884L2.67394 1.30451H2.47828L2.60872 1.10884ZM1.36961 0.0652247L1.56525 0V0.195679L1.36961 0.0652247ZM1.7609 1.23929L1.63047 1.43497L1.50004 1.17406L1.7609 1.23929ZM1.23917 2.022L1.36961 2.21767L1.10873 2.2829L1.23917 2.022ZM2.60872 0.652257L2.73915 0.847936L2.47828 0.913161L2.60872 0.652257Z" fill="#964C38"/>
<path d="M2.02179 2.08724L2.21742 2.02201L2.15221 2.21769L2.02179 2.08724ZM2.73915 1.04362L2.5435 0.978392L2.67394 0.782718L2.73915 1.04362Z" fill="#964C38"/>
<path d="M3 1.7611H2.80435L2.93478 1.56543L3 1.7611ZM2.86956 1.10885L2.67392 1.04362L2.73913 0.913171L2.86956 1.10885ZM2.41305 0.913171L2.34784 1.10885L2.15219 0.978396L2.41305 0.913171ZM3 1.43498L2.73913 1.5002L2.86956 1.2393L3 1.43498ZM2.67392 1.5002L2.6087 1.69588L2.41305 1.56543L2.67392 1.5002ZM1.36961 0.717493L1.50004 0.847947L1.36961 0.978396V0.717493ZM0.391374 1.69588L0.326155 1.95678L0.130506 1.7611L0.391374 1.69588ZM1.69569 0.260916V0.521819L1.43482 0.326141L1.69569 0.260916ZM1.04353 0.978396L1.17396 0.847947L1.30439 1.04362L1.04353 0.978396Z" fill="#964C38"/>
</svg>
