<svg width="41" height="44" viewBox="0 0 41 44" fill="none" xmlns="http://www.w3.org/2000/svg">
<path d="M25.0404 15.9046L26.4136 15.6624L25.6866 14.6936L25.0404 15.9046ZM25.6059 12.3523L26.8175 11.7872L25.929 11.0605L25.6059 12.3523ZM28.433 15.178L29.887 15.9046V14.4514L28.433 15.178ZM27.7868 13.4826L26.4136 14.2899L27.6253 15.0972L27.7868 13.4826ZM28.0291 11.8679L29.4831 12.5138V11.1413L28.0291 11.8679ZM18.0129 19.8605L19.4669 20.5064V19.1339L18.0129 19.8605ZM26.8175 9.68807L28.2715 10.4147V9.0422L26.8175 9.68807ZM30.4524 6.13578L31.4217 7.42752L32.0679 6.21651L30.4524 6.13578Z" fill="#0A4049"/>
<path d="M24.6366 11.3027L25.6059 12.5137L26.2521 11.3027H24.6366ZM25.4443 12.8367L26.3329 14.0477L27.0598 12.8367H25.4443ZM26.5752 11.3835L27.7868 12.3523L28.1907 11.0605L26.5752 11.3835ZM23.8288 14.6128L25.0404 15.5009L25.3636 14.1284L23.8288 14.6128Z" fill="#0A4049"/>
<path d="M23.1018 14.2092L24.2327 15.2587L24.7174 13.967L23.1018 14.2092ZM31.0986 11.6257L32.1487 10.7376L31.0179 10.2532L31.0986 11.6257ZM34.0066 5.89358L35.1374 5.16698L34.0873 4.60183L34.0066 5.89358ZM32.8757 9.68807L33.9258 8.88073L32.7949 8.39634L32.8757 9.68807ZM36.1875 1.04954L36.9953 0.484409L36.2683 0L36.1875 1.04954ZM34.6528 2.98715L35.7836 2.34129L35.1374 1.29175L34.6528 2.98715ZM35.1374 6.86238L35.8644 5.73211L34.6528 5.65138L35.1374 6.86238ZM33.1988 5.48991L33.845 4.35964L32.7142 4.19816L33.1988 5.48991ZM24.2327 16.3083H25.5251L25.1212 15.2587L24.2327 16.3083ZM31.1794 9.84954L31.8256 9.20368L31.0986 8.88073L31.1794 9.84954ZM28.7561 13.4018L28.3523 12.6752L27.9484 13.2404L28.7561 13.4018ZM35.0567 12.8367L34.2489 12.9982L34.7335 13.5633L35.0567 12.8367ZM28.5946 23.2514L29.2408 23.8973L29.4831 23.1706L28.5946 23.2514ZM24.9597 20.9908L25.6059 20.5872L25.0405 20.2642L24.9597 20.9908ZM25.7674 27.2073L25.5251 26.4807L25.0405 26.9651L25.7674 27.2073ZM32.3911 12.0294L31.9064 12.8367L32.7142 12.9174L32.3911 12.0294Z" fill="#0A4049"/>
<path d="M33.8451 8.07338L34.4105 8.55779L34.572 7.91191L33.8451 8.07338ZM27.9484 10.1725L28.5946 9.84952L28.0292 9.44585L27.9484 10.1725ZM28.9985 8.39632L29.9678 7.50824L29.6447 6.62017L28.9985 8.39632ZM29.9678 8.88072L31.9064 8.31558L30.7756 6.86237L29.9678 8.88072ZM28.2715 10.4147L30.1294 11.3835L30.2909 9.52659L28.2715 10.4147ZM32.7142 7.75045L34.0066 7.4275L33.2796 6.4587L32.7142 7.75045ZM32.3911 6.2165L33.6835 5.89357L32.9565 5.00549L32.3911 6.2165ZM31.2602 16.066L31.8257 16.7119L32.1488 15.9853L31.2602 16.066Z" fill="#0A4049"/>
<path d="M27.0599 17.2771L26.4137 17.6807L26.9792 18.0037L27.0599 17.2771ZM32.7142 15.9853L33.3604 15.6624L32.795 15.2587L32.7142 15.9853ZM17.3668 30.7596L18.0131 30.356L17.4476 30.033L17.3668 30.7596ZM2.908 36.8147L3.63497 36.5725L3.15033 36.0881L2.908 36.8147ZM30.291 11.8679L31.0987 11.6257L30.6141 11.1413L30.291 11.8679ZM30.2102 9.68806L28.9178 7.34678L26.9792 8.88072L30.2102 9.68806ZM26.9792 12.1101L26.333 9.28439L24.2328 10.8991L26.9792 12.1101ZM34.4105 4.44035L35.8645 5.00549L35.7837 3.55228L34.4105 4.44035Z" fill="#0A4049"/>
<path d="M34.4105 3.79448L33.7643 2.42201L32.795 3.47155L34.4105 3.79448ZM36.6722 3.22934L36.1068 2.42201L35.7029 3.14862L36.6722 3.22934ZM14.3781 26.077L15.5897 25.9963L15.1051 25.0275L14.3781 26.077ZM32.7142 6.29724L31.9064 4.52109L30.6948 5.7321L32.7142 6.29724ZM24.879 13.4018L24.2327 10.8183L22.2941 12.433L24.879 13.4018Z" fill="#0A4049"/>
<path d="M22.8596 15.2587L22.2942 12.2715L20.1132 13.8055L22.8596 15.2587ZM21.0017 16.7119L20.1132 13.8862L18.1746 15.2587L21.0017 16.7119ZM30.5333 12.756L30.0486 13.967H31.1795L30.5333 12.756ZM24.9598 16.1468L26.1714 17.1963L26.5753 15.8238L24.9598 16.1468ZM12.1972 22.767L13.4088 23.8165L13.8127 22.444L12.1972 22.767ZM15.3474 23.4936L16.4783 24.4624L16.8822 23.2514L15.3474 23.4936ZM24.6366 15.9046L23.2635 16.7119L24.3943 17.5193L24.6366 15.9046ZM18.1746 15.3394L16.963 16.2275L18.0938 17.0349L18.1746 15.3394ZM20.4363 16.8734L19.1439 17.6807L20.2748 18.4881L20.4363 16.8734ZM22.2942 15.3394L20.921 16.1468L22.0518 16.9541L22.2942 15.3394ZM22.8596 19.3761L23.3442 18.5688L22.5365 18.4881L22.8596 19.3761ZM21.6479 23.4128L21.0017 22.8477L20.8402 23.4936L21.6479 23.4128ZM27.4638 21.0716L26.8176 21.4752L27.383 21.8789L27.4638 21.0716ZM23.2635 27.8532L24.152 28.1761L24.0712 27.3688L23.2635 27.8532ZM19.0631 27.2881L19.467 26.7229L18.8208 26.5615L19.0631 27.2881ZM22.3749 32.6165L21.8095 32.0514L21.5672 32.6972L22.3749 32.6165Z" fill="#0A4049"/>
<path d="M20.4362 19.6991L21.8902 18.8918L20.6786 18.0037L20.4362 19.6991ZM21.0825 21.9596L22.4556 21.233L21.3248 20.4257L21.0825 21.9596ZM24.475 18.7303L25.8482 17.9229L24.7174 17.1156L24.475 18.7303ZM12.5202 27.1266L13.8934 26.3193L12.7625 25.5119L12.5202 27.1266ZM32.6334 20.7486L32.2295 20.1028L31.8256 20.5872L32.6334 20.7486ZM26.656 17.9229L26.2521 18.7303L27.0599 18.811L26.656 17.9229ZM27.9484 13.8862L28.5138 14.3706L28.6754 13.7248L27.9484 13.8862ZM22.1325 16.2275L22.7787 15.8239L22.2133 15.4202L22.1325 16.2275ZM39.257 5.08624L39.8224 5.81284L40.2263 5.08624H39.257ZM36.026 2.42202L36.6722 2.01835L36.1875 1.61468L36.026 2.42202ZM35.9452 8.71927L35.8644 7.91193L35.2182 8.3156L35.9452 8.71927ZM38.9339 7.66973L39.4993 8.39634L39.9032 7.66973H38.9339ZM35.7029 4.92478L36.3491 4.60183L35.8644 4.19816L35.7029 4.92478ZM35.6221 11.222L35.5413 10.4954L34.9759 10.8991L35.6221 11.222ZM21.5671 26.8844L20.8401 27.4495L21.4863 27.8532L21.5671 26.8844ZM24.6366 23.8973L24.8789 24.6239L25.3636 24.1395L24.6366 23.8973ZM18.3361 23.3321L19.0631 23.2514L18.7399 22.6055L18.3361 23.3321ZM22.1325 14.8551L23.5057 16.3083L24.2327 14.6128L22.1325 14.8551ZM22.698 13.4018L23.9904 14.2092L24.2327 12.8367L22.698 13.4018ZM21.8094 16.7927L21.971 18.1651L22.9403 17.5193L21.8094 16.7927ZM31.0179 18.2459L31.0986 18.9725L31.6641 18.6495L31.0179 18.2459ZM30.3717 21.7982L30.5332 22.767L31.341 22.3633L30.3717 21.7982ZM28.9985 17.1963L29.8062 17.3578L29.6447 16.6312L28.9985 17.1963ZM25.1212 23.0899L25.4443 22.2826L24.6366 22.3633L25.1212 23.0899ZM16.7206 27.934L17.3668 28.822L17.8514 28.0147L16.7206 27.934ZM13.2472 24.6239L14.055 24.3816L13.5703 23.8165L13.2472 24.6239ZM12.7625 31.7284L12.6818 30.8404L12.0356 31.244L12.7625 31.7284ZM19.2246 18.7303L19.5477 17.3578L18.4168 17.6L19.2246 18.7303ZM16.2359 19.3761L17.6091 18.9725L16.8013 18.0844L16.2359 19.3761Z" fill="#0A4049"/>
<path d="M17.6091 19.6991L17.8514 18.4073L16.7205 18.6496L17.6091 19.6991Z" fill="#0A4049"/>
<path d="M16.8821 18.1651L15.2666 19.5376L17.0436 20.2642L16.8821 18.1651Z" fill="#0A4049"/>
<path d="M16.8822 16.3082L15.4282 17.3578L17.2861 18.5688L16.8822 16.3082ZM16.5591 20.022L17.6092 21.233L18.1746 19.9413L16.5591 20.022ZM14.4589 20.8293L15.3474 22.0404L16.0744 20.8293H14.4589ZM16.1552 22.2826L17.4476 22.0404L16.8014 21.0715L16.1552 22.2826ZM14.8628 20.2642L16.1552 19.8605L15.3474 18.9725L14.8628 20.2642ZM20.194 19.8605L20.1132 20.5871L20.7594 20.4257L20.194 19.8605Z" fill="#0A4049"/>
<path d="M16.1552 20.2642L15.509 17.4385L13.4088 18.8917L16.1552 20.2642ZM8.31991 25.189L9.12767 24.9468L8.64301 24.3009L8.31991 25.189ZM8.64301 23.8972L9.37 24.9468L9.93543 23.978L8.64301 23.8972ZM9.93543 22.5248L10.824 23.4936L11.2278 22.444L9.93543 22.5248Z" fill="#0A4049"/>
<path d="M8.96607 24.8661L9.61227 25.6734L10.0969 24.8661H8.96607ZM13.4087 23.8973L12.0355 24.3009L12.8433 25.2697L13.4087 23.8973Z" fill="#0A4049"/>
<path d="M4.84649 29.0642L3.7964 28.0954L3.39252 29.3064L4.84649 29.0642ZM11.4701 24.4624L10.0969 24.8661L10.9854 25.8349L11.4701 24.4624ZM15.2666 21.7174L13.8934 22.1211L14.7819 23.0899L15.2666 21.7174ZM17.286 24.2202L16.8013 24.8661L17.4475 25.1083L17.286 24.2202ZM19.063 20.8294L19.4669 21.3945L19.79 20.8294H19.063ZM13.4895 21.9596L14.1357 21.7174L13.7318 21.3138L13.4895 21.9596ZM15.1858 29.145L14.7011 29.7908L15.5089 29.9523L15.1858 29.145ZM16.7205 25.5927L17.1244 26.0771L17.4475 25.5119L16.7205 25.5927ZM11.2278 27.1266L11.874 26.8844L11.3893 26.4807L11.2278 27.1266ZM16.3974 27.611L15.832 28.2569L16.559 28.4991L16.3974 27.611ZM18.2553 24.2202L18.6591 24.7853L18.9822 24.3009L18.2553 24.2202ZM12.6817 25.3505L13.3279 25.1083L12.8433 24.6238L12.6817 25.3505ZM10.0161 24.1395L11.0662 24.0587L10.6623 23.1706L10.0161 24.1395Z" fill="#0A4049"/>
<path d="M10.824 23.655L12.3587 24.1394L12.1971 22.6862L10.824 23.655Z" fill="#0A4049"/>
<path d="M11.8741 23.655L12.9241 23.4128L12.3587 22.6862L11.8741 23.655ZM11.8741 21.6367L13.0857 21.3945L12.4395 20.5064L11.8741 21.6367Z" fill="#0A4049"/>
<path d="M13.0857 21.1523L13.1664 21.8789L13.7319 21.5559L13.0857 21.1523ZM14.2973 21.3945L13.4895 18.8917L11.5509 20.3449L14.2973 21.3945Z" fill="#0A4049"/>
<path d="M12.1971 22.6055L11.7124 20.345L10.0969 21.7174L12.1971 22.6055ZM10.6624 23.978L10.0162 21.7174L8.40064 23.0092L10.6624 23.978ZM8.88529 24.9468L8.40064 23.0899L6.94667 24.1395L8.88529 24.9468ZM10.0969 27.611L11.3893 27.2881L10.6624 26.4L10.0969 27.611ZM7.75443 26.4L9.04684 25.9963L8.23908 25.1083L7.75443 26.4Z" fill="#0A4049"/>
<path d="M8.56228 26.3193L9.85468 25.9963L9.04693 25.0275L8.56228 26.3193ZM8.07762 27.0459L9.20849 28.1761L9.69314 26.8844L8.07762 27.0459ZM6.13901 27.8532L7.02753 29.0642L7.75452 27.9339L6.13901 27.8532ZM7.67374 29.4679L8.96616 29.1449L8.23917 28.1761L7.67374 29.4679ZM6.62365 27.2881L7.91607 26.9651L7.10831 26.0771L6.62365 27.2881ZM10.2586 29.6293L9.61237 29.9523L10.1778 30.356L10.2586 29.6293Z" fill="#0A4049"/>
<path d="M8.07751 27.2073L7.02743 24.3009L5.33114 25.7541L8.07751 27.2073ZM6.86588 28.9027L5.41191 29.145L6.1389 30.1945L6.86588 28.9027ZM8.15829 31.6477L7.67364 32.2936L8.31984 32.5358L8.15829 31.6477ZM10.1777 28.3376L10.5816 28.9835L10.9047 28.4183L10.1777 28.3376ZM4.60415 29.2257L5.25036 28.9835L4.84648 28.4991L4.60415 29.2257ZM7.02743 36.4917L6.54278 37.1376L7.18899 37.3798L7.02743 36.4917ZM9.04682 33.1816L9.4507 33.8275L9.77381 33.2624L9.04682 33.1816ZM3.39252 34.0697L4.11951 33.8275L3.63485 33.3431L3.39252 34.0697ZM8.88527 33.8275L8.31984 34.4734L9.04682 34.7156L8.88527 33.8275ZM10.8239 30.5174L11.2278 31.0826L11.5509 30.5982L10.8239 30.5174ZM5.25036 31.3248L5.89657 31.1633L5.49269 30.6789L5.25036 31.3248ZM28.5946 25.1083L29.3215 25.7541L29.4831 24.9468L28.5946 25.1083ZM24.7981 23.2514L25.3635 22.8477L24.7173 22.5248L24.7981 23.2514ZM26.2521 29.3872L25.929 28.6605L25.4443 29.2257L26.2521 29.3872ZM17.9322 33.666L18.5784 33.2624L17.9322 32.9394V33.666ZM23.5865 30.1945L24.3942 30.4367L24.2327 29.6293L23.5865 30.1945Z" fill="#0A4049"/>
<path d="M19.2246 30.033L19.6285 29.3872H18.9823L19.2246 30.033ZM23.1019 35.0385L22.5364 34.5541L22.3749 35.1193L23.1019 35.0385ZM12.7626 30.5174L14.055 29.6294L12.8433 28.9027L12.7626 30.5174ZM5.81585 32.6972L7.26981 32.0514L6.21973 31.1633L5.81585 32.6972ZM3.71569 36.0073L5.16965 35.2807L4.03878 34.3927L3.71569 36.0073ZM4.92732 32.6165L4.68499 34.2312L6.05818 33.8275L4.92732 32.6165ZM6.70439 29.145L6.6236 30.7596L7.91602 30.1138L6.70439 29.145ZM0.24233 42.9505L0 44L0.969306 43.7578L0.24233 42.9505ZM0.32311 42.3046L1.77706 41.6587L0.646208 40.7706L0.32311 42.3046ZM11.3894 29.8716L12.6818 28.9835L11.3894 28.2569V29.8716ZM1.77706 36.1688L3.23103 35.4422L2.18094 34.5541L1.77706 36.1688ZM0.807757 40.044L2.3425 39.3174L1.21164 38.4294L0.807757 40.044ZM2.01939 38.9138L2.58482 38.0257L1.45396 37.945L2.01939 38.9138ZM2.90793 34.7963L3.47336 33.9083L2.3425 33.8275L2.90793 34.7963ZM3.71569 32.778L4.28111 31.8899L3.15026 31.8092L3.71569 32.778ZM21.8094 29.3872L21.0825 30.033L21.8094 30.356V29.3872Z" fill="#0A4049"/>
<path d="M24.4751 26.1578L24.7982 26.8037L25.2021 26.3193L24.4751 26.1578ZM18.1746 26.1578L18.9016 25.9963L18.5785 25.4312L18.1746 26.1578ZM17.0437 30.9211L17.7707 31.7284L18.1746 30.9211H17.0437ZM13.2473 28.0147L14.055 27.611L13.4896 27.1266L13.2473 28.0147ZM13.4896 35.1193L13.328 34.2312L12.6818 34.7156L13.4896 35.1193ZM15.5898 32.2128L15.2667 32.9394L15.9937 33.0202L15.5898 32.2128ZM16.8014 28.5798L17.2861 29.0642L17.5284 28.4183L16.8014 28.5798ZM11.551 30.6789L12.1164 30.356L11.551 30.033V30.6789ZM16.6399 30.6789L16.236 31.4055L16.963 31.4862L16.6399 30.6789ZM18.1746 27.1266L18.6593 27.611L18.9016 27.0459L18.1746 27.1266ZM12.7626 28.7413L13.328 28.4183L12.8434 28.0147L12.7626 28.7413ZM8.31996 30.9211L9.61237 31.9706L9.93547 30.5982L8.31996 30.9211ZM8.15841 33.3431L9.45081 32.9394L8.64305 32.0514L8.15841 33.3431ZM1.61557 37.5413L2.90798 37.2991L2.34256 36.3303L1.61557 37.5413ZM3.23108 34.9578L4.60427 34.7963L3.95807 33.7468L3.23108 34.9578ZM10.824 33.2624L10.097 33.666L10.7432 33.989L10.824 33.2624ZM8.88538 35.5229L8.40074 36.1688L9.12771 36.3303L8.88538 35.5229ZM10.5817 32.0514L10.9856 32.5358L11.3087 31.9706L10.5817 32.0514ZM5.08893 33.4239L5.65435 33.1009L5.25048 32.6972L5.08893 33.4239ZM8.23918 40.4477L7.75453 41.0936L8.48151 41.255L8.23918 40.4477ZM9.93547 36.9761L10.3393 37.4606L10.6624 36.8954L9.93547 36.9761ZM4.44272 38.3486L5.00815 38.0257L4.60427 37.622L4.44272 38.3486ZM4.68505 33.2624L5.25048 32.2936L4.28117 32.2128L4.68505 33.2624ZM3.71574 30.9211L4.5235 30.033L3.47341 29.7101L3.71574 30.9211Z" fill="#0A4049"/>
<path d="M4.44265 27.9339L4.2811 28.6605L4.92731 28.4991L4.44265 27.9339ZM6.62359 28.3376L5.41196 25.7541L4.03877 26.9651L6.62359 28.3376ZM5.08886 31.4862L3.15024 30.1945L2.74637 32.2936L5.08886 31.4862Z" fill="#0A4049"/>
</svg>
