<svg width="25" height="74" viewBox="0 0 25 74" fill="none" xmlns="http://www.w3.org/2000/svg">
<path d="M10.0815 37.4837L11.1299 37.9673V36.6776L10.0815 37.4837ZM7.0167 38.3704L8.06518 38.8541V37.5643L7.0167 38.3704ZM8.71039 34.0174L8.87169 33.3726L8.14583 33.4532L8.71039 34.0174ZM11.6139 39.4183L12.6623 38.5316L11.2912 37.8061L11.6139 39.4183ZM6.37148 41.4336L7.41996 40.5468L5.96822 39.8214L6.37148 41.4336ZM5.08106 44.1743L6.12954 43.207L4.6778 42.5621L5.08106 44.1743ZM6.8554 37.9673L7.98452 37.1612L6.61344 36.4357L6.8554 37.9673ZM8.79104 38.0479L9.83951 37.1612L8.46843 36.4357L8.79104 38.0479ZM7.90387 40.3856L8.95235 39.4989L7.58126 38.7734L7.90387 40.3856ZM9.75887 34.4205L10.8073 33.5338L9.43625 32.8889L9.75887 34.4205ZM8.95235 35.8715L10.0008 34.9848L8.62974 34.3399L8.95235 35.8715ZM6.5328 50.6231L7.58126 49.7364L6.12954 49.0915L6.5328 50.6231ZM8.71039 46.109L7.58126 45.3834L7.33931 46.9151L8.71039 46.109ZM7.09736 47.963L5.96822 47.2375L5.72628 48.8497L7.09736 47.963ZM9.35561 42.4815L10.4041 43.0458V41.756L9.35561 42.4815ZM11.1299 36.3551L12.1784 36.8388L12.2591 35.549L11.1299 36.3551ZM7.90387 51.9129L8.95235 52.3965V51.1068L7.90387 51.9129ZM8.22648 44.0131L8.95235 44.4161L9.033 43.5294L8.22648 44.0131ZM9.75887 38.9346L9.59756 39.5795L10.3234 39.4989L9.75887 38.9346ZM14.1141 44.0131H13.3882L13.7108 44.7386L14.1141 44.0131ZM17.1788 43.1264L17.5821 42.4815L16.6949 42.4009L17.1788 43.1264ZM12.0978 41.6754L12.743 41.8366L12.6623 41.1111L12.0978 41.6754ZM17.1788 37.3225V37.9673L17.9047 37.7255L17.1788 37.3225ZM17.0982 52.9608L17.5014 52.2353L16.6143 52.1547L17.0982 52.9608ZM12.0171 51.4292L12.6623 51.6711L12.501 50.8649L12.0171 51.4292ZM17.0982 47.0763L17.0175 47.7212L17.7434 47.4793L17.0982 47.0763ZM9.75887 68.5185L10.4847 68.1155L9.67821 67.6318L9.75887 68.5185ZM6.04888 64.7299L6.5328 65.2135L6.77474 64.488L6.04888 64.7299ZM12.5817 63.4401L12.2591 64.0044L12.9849 64.085L12.5817 63.4401ZM9.92017 65.4554L10.5654 65.0523L9.83951 64.488L9.92017 65.4554ZM6.21018 61.6667L6.6941 62.1504L6.93605 61.4249L6.21018 61.6667ZM12.743 60.2963L12.4204 60.9412L13.1462 61.0218L12.743 60.2963ZM4.59714 62.231L5.40366 62.3922L5.24236 61.5055L4.59714 62.231ZM4.5165 56.9913V57.6362L5.1617 57.3138L4.5165 56.9913ZM10.1621 60.4575L9.51691 60.6188L10.0008 61.2636L10.1621 60.4575ZM8.79104 50.4619L10.1621 50.8649L9.92017 49.1721L8.79104 50.4619Z" fill="#AF5F83"/>
<path d="M12.3398 48.0436V48.6885L12.985 48.4466L12.3398 48.0436ZM8.54917 53.6863L7.90395 53.0414L7.66199 53.9281L8.54917 53.6863ZM9.43633 50.3813L9.11373 49.6558L8.46851 50.3007L9.43633 50.3813ZM5.3231 53.6863L5.807 53.2833L5.16179 52.9608L5.3231 53.6863ZM4.59723 47.0763L5.16179 47.4793L5.3231 46.7538L4.59723 47.0763ZM9.43633 52.2353L9.83959 51.268H8.62981L9.43633 52.2353ZM2.41963 51.268L3.38745 51.3486L3.06485 50.3813L2.41963 51.268ZM8.38786 44.4968L8.54917 45.4641L9.35569 44.8998L8.38786 44.4968ZM8.95243 58.926L9.03307 57.9586L7.9846 58.3617L8.95243 58.926ZM2.50029 60.0545L3.30681 59.9739L2.82289 59.1678L2.50029 60.0545ZM5.807 52.4772L6.12962 53.2026L6.77482 52.4772H5.807ZM11.5333 44.658L11.2107 43.8519L10.6461 44.5774L11.5333 44.658ZM7.42004 47.8824L7.90395 47.4793L7.25874 47.1569L7.42004 47.8824ZM6.77482 41.2724L7.33939 41.6754L7.50069 40.9499L6.77482 41.2724ZM5.4844 42.8039L6.53288 43.3682L6.61352 41.9978L5.4844 42.8039ZM6.37156 44.4161H8.14591L7.33939 42.5621L6.37156 44.4161Z" fill="#AF5F83"/>
<path d="M7.98459 42.6427L9.27503 41.4336L7.50069 40.5468L7.98459 42.6427ZM4.67788 51.1874L6.04896 49.9782L4.19397 49.1721L4.67788 51.1874ZM3.62941 55.0567L5.00048 53.8475L3.14549 52.9608L3.62941 55.0567ZM4.27462 55.9434L2.82289 54.8955L2.41963 56.8301L4.27462 55.9434ZM6.45222 54.9761H5.08114L5.6457 56.427L6.45222 54.9761ZM5.00048 61.5055L3.87137 60.8606L3.71006 62.3922L5.00048 61.5055ZM6.37156 51.5098H5.08114L5.6457 52.8802L6.37156 51.5098ZM4.83918 59.2484L3.62941 58.6035L3.46811 60.0545L4.83918 59.2484Z" fill="#AF5F83"/>
<path d="M2.01631 55.8627L3.38739 54.6536L1.5324 53.7669L2.01631 55.8627ZM5.64564 45.9477L6.69412 46.4314V45.1416L5.64564 45.9477ZM4.11326 45.9477L5.16173 46.4314V45.1416L4.11326 45.9477ZM14.2754 39.7408L14.598 39.0153L13.7108 38.9347L14.2754 39.7408ZM13.6302 37.7255L13.1463 37.2419L12.9043 37.9673L13.6302 37.7255ZM15.4852 40.5469L16.211 40.7081L16.0497 39.9826L15.4852 40.5469ZM4.91978 47.2375L5.16173 46.5926L4.35521 46.6732L4.91978 47.2375ZM9.43628 41.9172L10.0815 41.9978L9.83954 41.2724L9.43628 41.9172ZM2.98413 50.1395L4.03261 49.1721L2.66153 48.5273L2.98413 50.1395Z" fill="#AF5F83"/>
<path d="M3.14542 46.3508L2.3389 48.8497L5.24237 48.5273L3.14542 46.3508ZM1.85499 50.4619L1.04848 52.9608L3.95193 52.719L1.85499 50.4619ZM4.19389 43.0458L3.38737 45.5447L6.29084 45.3028L4.19389 43.0458ZM2.0163 55.7822L0 57.5556L2.66151 58.7647L2.0163 55.7822ZM7.33932 65.3748L4.75845 65.6972L6.29084 68.1961L7.33932 65.3748ZM5.16171 40.0632L4.27455 42.5621L7.17801 42.3203L5.16171 40.0632ZM5.96823 37.3224L5.24237 39.8213L8.14584 39.4183L5.96823 37.3224ZM6.8554 34.3399L6.04889 36.9194L9.033 36.4357L6.8554 34.3399Z" fill="#AF5F83"/>
<path d="M1.6131 56.3464L2.74222 55.4597L1.37114 54.8148L1.6131 56.3464ZM1.45179 53.4445L2.74222 54.0087L2.82287 52.4771L1.45179 53.4445ZM2.01635 58.6035L1.37114 59.8127L2.90353 59.9739L2.01635 58.6035ZM1.6131 60.5381L2.66157 62.3116L3.87135 60.78L1.6131 60.5381ZM3.62939 63.6819L4.75851 65.4554L5.56503 64.0044L3.62939 63.6819ZM4.51657 59.4902L5.88765 61.6667L7.33938 59.6514L4.51657 59.4902ZM2.58092 56.8301L3.95199 59.0066L5.40373 56.9913L2.58092 56.8301ZM5.96829 58.4423L7.90394 56.7495L5.72635 55.6209L5.96829 58.4423ZM3.46809 52.7996L5.48439 51.1068L3.22613 50.0588L3.46809 52.7996ZM4.03265 54.0087L6.29091 55.2179L6.53287 52.7996L4.03265 54.0087ZM6.53287 68.9216L7.74264 70.7756L8.95242 69.0022L6.53287 68.9216ZM8.22655 71.6623L9.11372 73.1133L10.0815 71.7429L8.22655 71.6623ZM6.77481 66.5839L7.74264 68.1155L8.71046 66.7451L6.77481 66.5839ZM6.77481 62.7146L7.74264 64.2462L8.71046 62.7952L6.77481 62.7146ZM8.1459 70.3726L9.59763 70.9368V69.4859L8.1459 70.3726ZM9.67828 73.4357L11.13 74L11.0494 72.549L9.67828 73.4357Z" fill="#AF5F83"/>
<path d="M5.72631 59.1678L7.17803 59.7321V58.2811L5.72631 59.1678ZM0.080691 56.1852L1.61307 55.7822L0.645251 54.573L0.080691 56.1852ZM5.88761 51.268L7.41999 52.0741L7.58129 50.3813L5.88761 51.268ZM6.45217 60.6994L8.06521 61.5861L8.22651 59.8127L6.45217 60.6994ZM4.51654 62.4728L5.96826 64.6493L7.33935 62.634L4.51654 62.4728ZM9.35564 59.4902L9.43629 58.6841L8.54912 59.0066L9.35564 59.4902ZM4.11328 60.3769L4.75848 60.2157L4.35522 59.6514L4.11328 60.3769ZM6.77478 54.17L7.09739 54.8148L7.58129 54.2506L6.77478 54.17ZM11.0493 47.4793L10.8074 46.8344L10.2428 47.3987L11.0493 47.4793ZM13.0656 46.1895L12.6624 45.1416L11.7752 46.109L13.0656 46.1895Z" fill="#AF5F83"/>
<path d="M10.9687 49.4946L10.7268 48.8497L10.2428 49.414L10.9687 49.4946ZM10.7268 47.6405L10.4041 47.0763L9.92023 47.5599L10.7268 47.6405ZM8.46849 55.2985L9.59762 54.4118L8.14589 53.7669L8.46849 55.2985ZM9.83958 53.9281L10.3235 54.3312L10.4041 53.6863L9.83958 53.9281Z" fill="#AF5F83"/>
<path d="M15.6464 46.512L15.3238 45.6253L14.5979 46.3508L15.6464 46.512ZM10.8073 49.8976L11.3719 49.414L10.646 49.0109L10.8073 49.8976ZM10.5653 42.3203L11.1299 42.8846L11.3719 41.9978L10.5653 42.3203ZM15.0012 21.281L16.0497 21.7647V20.4749L15.0012 21.281ZM11.8558 22.1678L12.9042 22.732L12.9849 21.3617L11.8558 22.1678ZM16.5336 23.2157L17.582 22.329L16.1303 21.6035L16.5336 23.2157ZM11.2105 25.2309L12.259 24.3442L10.8879 23.6993L11.2105 25.2309ZM9.75883 28.2135L10.8073 27.3268L9.43621 26.6013L9.75883 28.2135ZM11.7751 21.8453L12.9042 20.9586L11.4525 20.2331L11.7751 21.8453ZM13.6301 21.8453L14.7592 20.9586L13.3075 20.2331L13.6301 21.8453ZM12.7429 24.183L13.7914 23.2963L12.4203 22.6514L12.7429 24.183ZM13.7914 19.7495L14.9205 18.8627L13.5495 18.1373L13.7914 19.7495ZM11.1299 34.7429L12.259 33.7756L10.8073 33.1307L11.1299 34.7429ZM13.3075 30.2288L12.0977 29.5033L11.8558 31.0349L13.3075 30.2288ZM11.8558 32.0828L10.646 31.3573L10.404 32.8889L11.8558 32.0828ZM13.8721 26.6819L14.9205 27.2462L15.0012 25.8758L13.8721 26.6819ZM16.0497 20.1525L17.0981 20.7168V19.3464L16.0497 20.1525ZM13.1462 27.8911L13.7914 28.2135L13.9527 27.3268L13.1462 27.8911ZM14.5979 22.8126L14.4366 23.4575L15.2431 23.3769L14.5979 22.8126ZM18.9531 27.8911H18.3079L18.6305 28.536L18.9531 27.8911ZM22.0985 27.0044L22.5018 26.2789L21.6146 26.1983L22.0985 27.0044ZM17.0175 25.4728L17.6627 25.7146L17.582 24.9085L17.0175 25.4728ZM22.0985 21.1198V21.8453L22.7438 21.5229L22.0985 21.1198ZM21.6146 37.0806L22.0179 36.3551L21.1307 36.2745L21.6146 37.0806ZM16.6142 35.6296L17.2594 35.7909L17.0981 35.0654L16.6142 35.6296ZM21.6146 31.2767V31.841L22.2599 31.5991L21.6146 31.2767ZM13.3075 34.5817L14.7592 34.9848L14.4366 33.3726L13.3075 34.5817ZM16.8562 32.1634V32.8889L17.582 32.5665L16.8562 32.1634Z" fill="#AF5F83"/>
<path d="M14.1141 34.5011L13.7915 33.7756L13.1463 34.4205L14.1141 34.5011ZM9.92021 37.8061L10.4848 37.3225L9.75891 37L9.92021 37.8061ZM9.27499 31.1155L9.83955 31.5185L10.0009 30.793L9.27499 31.1155ZM14.1141 36.3551L14.5174 35.3878H13.3076L14.1141 36.3551ZM7.09739 35.2266L7.98456 35.3878L7.74261 34.4205L7.09739 35.2266ZM13.1463 28.6166L13.2269 29.5033L14.1141 29.0196L13.1463 28.6166ZM12.9043 38.451L12.5011 37.4837L11.7752 38.3704L12.9043 38.451ZM7.82325 42.4815L8.46847 41.9978L7.5813 41.5142L7.82325 42.4815Z" fill="#AF5F83"/>
<path d="M7.0167 34.2593L7.66192 34.7429L7.90388 33.8562L7.0167 34.2593ZM16.453 28.4553L16.1304 27.7298L15.4852 28.3747L16.453 28.4553ZM12.2591 31.7604L12.8236 31.3573L12.1784 30.9543L12.2591 31.7604ZM11.6945 25.0697L12.1784 25.4728L12.3397 24.7473L11.6945 25.0697ZM10.0008 27.0044L11.0493 27.488L11.13 26.1983L10.0008 27.0044ZM11.13 28.536H12.9043L12.0978 26.6013L11.13 28.536ZM12.8236 26.4401L14.1947 25.2309L12.3397 24.4248L12.8236 26.4401ZM9.35561 35.2266L10.7267 34.0981L8.8717 33.2113L9.35561 35.2266Z" fill="#AF5F83"/>
<path d="M10.3235 29.9869L11.3719 30.5512L11.4526 29.1808L10.3235 29.9869ZM8.79106 29.9869L9.83954 30.4706L9.9202 29.1808L8.79106 29.9869ZM19.1145 23.5381L19.5178 22.8126H18.5499L19.1145 23.5381ZM18.4693 21.5229L17.9854 21.0392L17.7434 21.7647L18.4693 21.5229ZM20.4049 24.3442L21.0501 24.5054L20.8888 23.78L20.4049 24.3442ZM9.59758 31.2767L9.83954 30.6318L9.11368 30.7124L9.59758 31.2767ZM14.2754 25.7952L14.9206 25.8758L14.6786 25.1503L14.2754 25.7952ZM8.14586 34.0981L9.19432 33.2113L7.82324 32.5665L8.14586 34.0981Z" fill="#AF5F83"/>
<path d="M8.2265 30.2288L7.33934 32.7277L10.2428 32.4858L8.2265 30.2288ZM9.19432 27.085L8.30716 29.5839L11.2106 29.342L9.19432 27.085ZM10.0815 24.183L9.27498 26.6819L12.1784 26.4401L10.0815 24.183ZM10.888 21.281L10.2428 23.78L13.0656 23.3769L10.888 21.281ZM11.8558 18.1373L11.13 20.7168L14.0334 20.2331L11.8558 18.1373ZM15.5658 31.5991L15.3239 31.0349L14.8399 31.5185L15.5658 31.5991ZM17.6628 30.39L17.2595 29.342L16.3723 30.2288L17.6628 30.39ZM15.5658 33.6144L15.3239 33.0501L14.8399 33.6144H15.5658Z" fill="#AF5F83"/>
<path d="M15.2432 31.7603L15.0012 31.1961L14.5173 31.6797L15.2432 31.7603ZM20.2436 30.6318L19.921 29.7451L19.1951 30.4706L20.2436 30.6318ZM15.3238 34.0174L15.969 33.6144L15.1625 33.1307L15.3238 34.0174ZM15.0819 26.4401L15.6464 27.0044L15.8884 26.1176L15.0819 26.4401ZM17.0175 15.4771L18.1467 15.9608V14.671L17.0175 15.4771ZM13.9528 16.4444L15.0819 16.9281V15.6383L13.9528 16.4444ZM15.6464 12.0915L15.8078 11.4466L15.0819 11.5272L15.6464 12.0915ZM18.6306 17.4118L19.679 16.5251L18.2273 15.7996L18.6306 17.4118ZM13.8721 16.0414L14.9206 15.2353L13.5495 14.5098L13.8721 16.0414ZM15.7271 16.0414L16.8562 15.2353L15.4045 14.5098L15.7271 16.0414ZM14.598 18.7821L15.6464 17.8148L14.2754 17.1699L14.598 18.7821ZM16.6949 12.4946L17.6627 11.6078L16.2917 10.963L16.6949 12.4946ZM15.8884 13.9455L16.9369 13.0588L15.5658 12.4139L15.8884 13.9455ZM18.066 14.3486L19.1951 14.8322V13.5425L18.066 14.3486ZM19.7597 0L20.5662 1.04793L21.6953 0H19.7597ZM15.0012 22.4096L15.7271 22.8126L15.8078 21.9259L15.0012 22.4096Z" fill="#AF5F83"/>
<path d="M16.453 17.3312L16.2917 17.976L17.0176 17.8954L16.453 17.3312ZM20.8889 22.329H20.163L20.4856 23.0545L20.8889 22.329ZM23.9537 21.3617L24.3569 20.7168L23.4697 20.6362L23.9537 21.3617ZM18.8726 19.9913L19.5178 20.1525L19.3565 19.427L18.8726 19.9913ZM23.873 15.5577V16.2026L24.5182 15.9608L23.873 15.5577ZM21.2921 17.6536L21.6147 17.0087L20.7276 16.9281L21.2921 17.6536ZM20.5663 15.719L20.0824 15.2353L19.8404 15.9608L20.5663 15.719ZM22.26 18.7821L22.9052 18.9434L22.7439 18.2179L22.26 18.7821ZM12.7431 15.3965L11.9365 17.8954L14.84 17.6536L12.7431 15.3965ZM13.6302 12.5752L12.9044 14.9935L15.8078 14.671L13.6302 12.5752ZM16.3724 6.4488L17.4209 5.56208L16.0498 4.91721L16.3724 6.4488ZM18.0661 12.7364L19.1146 11.8497L17.7435 11.1242L18.0661 12.7364ZM19.9211 8.46405L18.7919 7.73856L18.55 9.35076L19.9211 8.46405ZM18.7113 10.0763L17.5015 9.35076L17.3402 10.8824L18.7113 10.0763ZM20.2437 12.5752L21.6954 12.9782L21.3728 11.2854L20.2437 12.5752ZM21.5341 6.4488V7.17428L22.26 6.85185L21.5341 6.4488Z" fill="#AF5F83"/>
<path d="M23.3084 5.6427L22.9052 4.91722L22.3406 5.6427H23.3084ZM19.1952 9.02832L19.6791 8.54467L19.0339 8.22222L19.1952 9.02832ZM18.4693 2.4183L19.0339 2.74074L19.1146 2.01525L18.4693 2.4183ZM19.5985 16.6863L19.1146 15.7996L18.4693 16.6863H19.5985ZM14.5174 20.878L15.1626 20.3943L14.3561 19.9107L14.5174 20.878ZM13.6302 12.6558L14.2754 13.1394L14.5174 12.2527L13.6302 12.6558ZM2.90353 62.7146L3.6294 63.6013L4.27461 62.4728L2.90353 62.7146ZM19.2758 10.0763H21.1309L20.3243 8.22222L19.2758 10.0763ZM18.1467 0L19.1952 1.77342L19.5985 0H18.1467ZM17.9048 3.78867L18.8726 4.59477L19.2758 3.2244L17.9048 3.78867ZM20.405 2.49892L21.2921 1.6122L20.0017 1.04793L20.405 2.49892ZM17.3402 6.52942H19.1146L18.308 4.67539L17.3402 6.52942ZM17.0176 2.09587L18.7919 2.01525L17.6628 0.161218L17.0176 2.09587ZM16.2917 13.3007L17.6628 12.0915L15.8078 11.2854L16.2917 13.3007ZM16.937 8.30284L18.0661 8.78649V7.41612L16.937 8.30284ZM15.4852 8.30284L16.5337 8.78649V7.41612L15.4852 8.30284Z" fill="#AF5F83"/>
<path d="M16.5336 9.35075L16.6949 8.70587L15.969 8.78647L16.5336 9.35075ZM15.0819 12.1721L16.1303 11.2854L14.7593 10.6405L15.0819 12.1721Z" fill="#AF5F83"/>
<path d="M14.8399 8.62526L14.0334 11.1242L16.9369 10.8823L14.8399 8.62526ZM15.969 5.32026L15.1625 7.81916L17.9853 7.57733L15.969 5.32026ZM16.8562 2.33767L16.0497 4.83659L18.9532 4.51416L16.8562 2.33767ZM22.0986 10.6405L21.8566 9.99563L21.2921 10.5599L22.0986 10.6405ZM20.4049 6.77123L20.0016 5.72331L19.1145 6.61001L20.4049 6.77123ZM22.5018 11.6078L22.2599 10.963L21.6953 11.5272L22.5018 11.6078Z" fill="#AF5F83"/>
</svg>
