<svg width="52" height="20" viewBox="0 0 52 20" fill="none" xmlns="http://www.w3.org/2000/svg">
<path d="M18.6667 7.42971L19.7461 7.93773L18.8572 8.50924L18.6667 7.42971ZM10.1588 7.0487L9.84129 6.15968L10.8572 6.47719L10.1588 7.0487ZM9.26987 3.7466L8.38098 3.6831L8.88891 2.79407L9.26987 3.7466ZM5.39684 0.0634896L6.5397 1.90505L4.69844 1.07952L5.39684 0.0634896ZM9.46035 5.27064L9.07939 4.44513L10.1588 4.50862L9.46035 5.27064ZM21.3334 8.44574L20.4445 9.33477L20 8.31874L21.3334 8.44574ZM32.635 11.2398L32.1905 10.2873L33.5238 10.3508L32.635 11.2398ZM11.9365 4.50862V4.25462L12.381 4.50862L12.254 3.93711L12.1905 4.25462L11.7461 3.8736L12.254 3.6831L12.1905 3.04808L12.4445 3.11158L12.635 2.98458L12.6984 3.23858L13.1429 3.30209L12.8889 2.54007L13.8413 2.92108L13.2699 3.36559L14.0953 3.6196L12.381 4.76264V4.57213L12.254 4.63562L11.6191 5.27064L11.3016 4.44513L11.9365 4.50862ZM14.0953 5.08015L15.1111 5.14364L14.4127 5.84217L14.0953 5.08015ZM19.0476 15.812L18.4127 15.939L18.6032 15.2404L19.0476 15.812ZM19.1746 11.9383L19.1111 12.4464L18.6032 12.1924L19.1746 11.9383ZM14.8572 15.0499L14.7302 14.4784L15.2381 14.6054L14.8572 15.0499ZM26.7302 15.4945L26.0953 15.6215L26.2857 14.9864L26.7302 15.4945ZM26.2857 11.8748L26.8572 11.6843L26.7937 12.1289L26.2857 11.8748ZM22.5397 14.7959L22.4127 14.2244L22.9207 14.3514L22.5397 14.7959ZM25.0159 13.9704L24.381 14.0339L24.5715 13.3989L25.0159 13.9704ZM25.1429 10.0968V10.6048L24.5715 10.3508L25.1429 10.0968ZM20.8254 13.2084L20.6984 12.6369L21.2064 12.7639L20.8254 13.2084ZM19.1111 10.5413L17.9683 9.96979L18.6032 9.71578L18.4127 9.58877L19.1111 9.33477L19.0476 9.52528L19.1746 9.46177L19.1111 10.5413ZM16.6984 11.9383L16.5715 11.3668L17.0794 11.5573L16.6984 11.9383ZM6.09526 7.23921L5.46034 7.36621L5.65082 6.73119L6.09526 7.23921ZM0.571449 2.28606L1.54326e-05 2.41306L0.127006 1.77804L0.571449 2.28606ZM9.07939 10.0333L8.44447 10.1603L8.63495 9.52528L9.07939 10.0333ZM6.22224 3.36559L6.15876 3.8736L5.65082 3.6196L6.22224 3.36559ZM1.90478 6.47719L1.7778 5.90566L2.28573 6.09617L1.90478 6.47719ZM7.87304 4.63562L7.74606 4.06411L8.25399 4.25462L7.87304 4.63562ZM3.74606 3.42909L3.61907 2.85758L4.127 2.98458L3.74606 3.42909ZM21.2699 9.46177H21.9683L21.5873 10.0333L21.2699 9.46177ZM22.2857 7.81072L21.8413 8.12823L21.7778 7.55672L22.2857 7.81072ZM20.3175 10.4143L19.4286 10.4778L19.7461 9.65228L20.3175 10.4143ZM13.9048 10.2873L13.4603 9.84279L14.0953 9.58877L13.9048 10.2873ZM16.8254 7.74722L17.3334 8.06473L16.8889 8.31874L16.8254 7.74722ZM12.5715 6.09617L12.7619 6.54068H12.1905L12.5715 6.09617ZM13.0794 6.60419L12.8254 5.65166L13.7778 6.03267L13.0794 6.60419ZM11.6826 4.25462L10.7302 3.93711L11.5556 3.36559L11.6826 4.25462ZM11.3651 5.58815L11.1111 6.15968L10.7302 5.77866L11.3651 5.58815ZM11.9365 7.93773L11.873 7.36621L12.381 7.68372L11.9365 7.93773ZM17.3334 5.65166L17.4603 5.96917L17.5238 5.90566L17.7143 6.35018H17.1429L17.2699 6.15968H17.0794L17.3334 5.65166ZM14.4762 6.9217L14.5397 6.35018L14.9842 6.79469L14.4762 6.9217ZM19.1746 6.28668L18.9842 5.33415L18.8572 5.46115L18.6667 4.31812L19.7461 4.88964L19.1111 5.27064L20.0635 5.71516L19.1746 6.28668ZM17.5873 3.23858L19.0476 4.00061L17.8413 4.69913L17.5873 3.23858ZM27.2381 8.44574L27.4286 9.58877L26.0953 9.27127L27.2381 8.44574ZM22.0953 10.4778L21.6508 10.0968L22.2857 9.84279L22.0953 10.4778ZM25.0159 8.06473L25.5238 8.38224L25.0794 8.63625L25.0159 8.06473ZM20.9524 6.9217L20.381 6.85819L20.7619 6.41368L20.9524 6.9217ZM36.127 4.00061L35.5556 3.93711L35.9365 3.4926L36.127 4.00061ZM16.4445 10.3508L16.0635 10.0968L16.5715 9.84279L16.4445 10.3508ZM15.0477 11.5573L14.3492 10.9858L15.2381 10.6048L15.0477 11.5573ZM17.9048 10.7953L17.5238 10.4778L18.0953 10.2873L17.9048 10.7953ZM21.4603 10.9858L21.6508 11.3668H21.1429L21.4603 10.9858ZM44.127 16.1295L43.4921 16.2565L43.6191 15.6215L44.127 16.1295ZM46.0953 15.685L45.4604 15.812L45.5873 15.1769L46.0953 15.685ZM44.1905 12.7639L43.6826 12.5099L44.1905 12.2559V12.7639ZM39.9366 15.3675L39.8096 14.7959L40.3175 14.9864L39.9366 15.3675ZM44.254 9.77928L44.1905 10.8588L43.0477 10.3508L44.254 9.77928ZM50.5397 3.42909V4.50862L49.3969 3.93711L50.5397 3.42909ZM50.7302 5.52466L49.9683 5.71516L50.1588 4.82613L50.7302 5.52466ZM50.2858 1.71454L50.7302 3.30209L49.2699 2.98458L50.2858 1.71454ZM41.7143 12.3194L41.6508 11.7478L42.1588 11.8748L41.7143 12.3194ZM46.3492 9.84279L47.0477 9.77928L46.6667 10.3508L46.3492 9.84279ZM45.1429 10.2873L44.9524 10.9223L44.4445 10.5413L45.1429 10.2873ZM47.8731 9.08076L47.8096 8.50924L48.3175 8.82675L47.8731 9.08076ZM45.2699 9.33477L45.7778 10.0968L44.9524 10.1603L45.2699 9.33477ZM41.6508 10.1603L41.5239 10.7318L41.1429 10.4143L41.6508 10.1603Z" fill="#8E163B"/>
<path d="M39.4286 11.3668L40.3175 10.9223L40.0635 11.8749L39.4286 11.3668ZM42.9841 11.1763L42.6032 10.7953L43.1746 10.6048L42.9841 11.1763ZM46.7302 11.7479L46.2222 11.6843L46.5397 11.3668L46.7302 11.7479ZM32.9524 15.558L32.3175 15.685L32.4445 15.05L32.9524 15.558ZM33.0159 11.7479V12.1924L32.5079 11.9383L33.0159 11.7479ZM28.6349 14.2879L29.1429 14.4149L28.7619 14.7959L28.6349 14.2879ZM38.9206 13.7164L38.3492 13.8434L38.4762 13.2084L38.9206 13.7164ZM34.6032 12.4464L35.1111 12.5734L34.7302 12.9544L34.6032 12.4464ZM31.873 9.77929L33.0794 9.27127L33.0159 10.2873L31.873 9.77929ZM41.4603 8.69976L41.3968 9.71578L40.254 9.20777L41.4603 8.69976ZM30.4762 11.1763L30.9841 11.3033L30.6032 11.7479L30.4762 11.1763ZM35.1746 9.27127H35.9365L35.4921 9.77929L35.1746 9.27127ZM32.9524 18.6061L32.5079 18.225L33.1429 17.971L32.9524 18.6061ZM35.9365 16.701L35.8095 16.193L36.381 16.447L35.9365 16.701ZM31.8095 14.9864H31.1746L31.6191 14.5419L31.8095 14.9864ZM30.3492 10.1603L29.9683 9.84279L30.4762 9.65229L30.3492 10.1603ZM29.1429 10.3508L28.9524 11.3033L28.254 10.7953L29.1429 10.3508ZM32 10.0333L31.8095 10.6048L31.4286 10.2873L32 10.0333ZM35.4286 10.7953L35.5556 11.1763L35.0476 11.1128L35.4286 10.7953ZM42.7937 8.76325L42.1587 9.39827L41.7778 8.44574L42.7937 8.76325ZM39.0476 9.90629L38.9841 10.3508L38.4762 10.0968L38.9841 9.84279L38.7937 9.27127L40.3175 9.71578L39.3016 10.6048L39.0476 9.90629ZM23.6191 8.76325L22.6667 8.89026L22.9841 7.93774L23.6191 8.76325ZM28.3175 14.3514L28.1905 13.5259L28.9524 13.7799L28.3175 14.3514ZM36.5079 9.84279H37.5873L36.8889 10.6683L36.5079 9.84279ZM26.7937 6.54069L25.9048 7.68372L25.3968 6.54069H26.7937ZM31.6826 13.6529L30.8572 13.2084L31.746 12.8909L31.6826 13.6529ZM41.0794 15.05L40.381 14.4784L41.3333 14.2879L41.0794 15.05ZM32.7619 8.63625L33.2699 8.19174L32.9524 8.12823L34.2857 7.30272L34.4762 8.57275L34.0953 8.50925L34.2222 8.82676L32.7619 8.63625ZM30.2857 12.7004L29.7143 12.1924L30.6032 11.8749L30.2857 12.7004ZM36 11.3668L37.2064 12.0654L36.1905 12.6369L36 11.3668ZM29.9048 8.06474L29.9683 9.33478L28.8889 8.89026L29.9048 8.06474ZM31.3016 9.20777H32.127L30.9206 9.84279L31.3016 9.20777ZM26.0318 7.55672L27.3016 8.06474L26.0952 8.69976L26.0318 7.55672ZM47.2381 8.89026L46.0952 8.19174L47.1111 7.68372L47.2381 8.89026ZM48.5079 7.87423L47.3651 7.1757L48.381 6.60419L48.5079 7.87423ZM24.8254 7.11221L25.1429 6.98521V7.49321L24.8889 7.36621V7.81072L23.746 7.11221L24.8254 6.54069V7.11221ZM16.8254 5.71517L16.9524 6.9217L16.5714 6.73119L16.4445 7.23921L16.0635 6.9217L16.5714 6.6677L15.8095 6.22318L16.8254 5.71517ZM18.2857 8.06474L18.3492 8.82676L17.6508 8.38225L18.2857 8.06474ZM13.3968 4.38162V4.69913L13.4603 4.63563L13.3968 4.88964L13.4603 5.20715L13.3333 5.14364L13.2699 5.58816L12.5714 5.08015L12.9524 4.88964L12.6984 4.76264L13.3968 4.38162ZM35.1111 9.84279L35.1746 10.6683L34.4127 10.1603L35.1111 9.84279ZM45.3333 7.62023H45.2064L45.0159 7.74723V7.68372H44.9524V7.81072L45.7143 8.25525L44.6984 8.76325L44.5714 7.68372V7.55672L44.4444 7.49321L44.6349 7.42972L44.1905 7.11221V7.74723L43.4921 7.42972L43.3016 7.49321L43.873 7.81072L43.3016 8.12823L44.381 8.50925L43.1746 9.14427V8.25525L42.4762 8.63625L42.2857 6.85819L42.8571 7.1757L43.0476 6.6677L43.3016 7.11221H43.3651L43.5556 6.85819L43.6191 6.98521L43.8095 6.85819L43.6191 6.7947L45.1429 6.28668L45.0794 6.60419L46.0318 7.1757L45.3333 7.62023ZM46.7937 7.30272V7.1757L46.7302 7.30272L46.6032 6.98521L46.3492 7.42972L45.2698 6.03268L46.7937 6.09617V6.03268L46.8572 6.09617H47.1746L47.1111 6.22318L47.9365 6.73119L46.7937 7.30272ZM46.6032 6.73119H46.6667V6.6677L46.6032 6.73119ZM49.2064 5.65166L48.1905 6.22318L48.127 5.84217L48.0635 5.90567L48.127 6.15968L46.3492 5.90567L46.7937 5.52466L46.5397 5.39766L46.4762 5.58816L45.8413 5.20715L46.0952 5.14364L47.1111 4.57213L47.1746 5.14364L47.4921 4.88964L47.9365 4.44513L47.3651 4.06411L48.381 3.5561L48.4445 3.93711L49.3968 2.92108L49.2699 5.14364L47.8095 4.95314L47.9365 5.52466L48.127 5.58816L48.0635 5.01664L49.2064 5.65166ZM36.4445 7.62023L36.9524 8.76325L35.8095 8.69976L36.4445 7.62023ZM37.9683 7.11221L37.3333 7.49321L37.2699 7.55672L36.5714 7.87423L36.381 6.15968L37.9683 7.11221ZM8.50794 1.90505L9.84127 2.28606L8.63493 3.11158L8.57143 2.47657L7.87302 2.98458L7.61905 2.09555L8.57143 2.41306L8.50794 1.90505ZM6.79366 2.54007L6.66667 1.27003L8.06351 1.71454L6.79366 2.54007ZM23.873 6.9217L22.6667 7.62023L22.5397 6.09617L23.873 6.9217ZM35.746 13.2719L35.9365 13.8434L35.1746 13.7164L35.746 13.2719ZM26.6032 13.8434L25.9048 13.2719L26.8571 12.9544L26.6032 13.8434ZM30.6032 10.3508L31.3651 10.7318L30.7302 11.1128L30.6032 10.3508ZM24.8254 8.76325L24 8.69976L24.5714 8.12823L24.8254 8.76325ZM9.26985 0.0634896H10.4762L9.84127 1.46053L9.26985 0.0634896ZM10.0318 3.04808L10.2222 2.92108V3.11158L10.3492 3.17509L10.2857 2.41306L10.9206 2.54007L11.4286 2.41306L11.3016 2.66707L11.6191 2.79407L10.8571 3.36559H10.9206L10.2222 3.93711L10.2857 4.06411L9.26985 3.6196L9.96827 3.11158L9.90477 2.98458L10.0318 3.04808ZM9.46033 0.762015H9.20635L8.57143 1.27003L8.25397 0.317503L8.69842 0.508001L9.14287 0.0634896L9.46033 0.762015ZM9.26985 1.46053L10.3492 1.52404L9.6508 2.22256L9.26985 1.46053ZM21.0794 5.33415H21.3333L21.0159 5.58816V5.96917L20.8254 5.84217L20.4445 6.22318L20 5.27065L21.0794 5.33415ZM33.5238 7.23921L32.6984 7.55672V8.12823L32.381 8.63625H31.9365L31.3651 8.57275L30.6032 8.25525L31.6191 7.42972V8.50925L32.5714 8.12823L32.1905 7.1757L33.5238 7.23921ZM11.4286 1.52404L12.4445 1.58754L11.8095 2.28606L11.4286 1.52404ZM25.0159 10.8588L24.381 10.9858L24.5714 10.3508L25.0159 10.8588ZM20.8254 10.0968L20.6984 9.52528L21.2064 9.71578L20.8254 10.0968ZM18.6032 6.60419L18.4127 6.47719L19.1111 6.22318L19.0476 6.41368L19.1746 6.35019L19.1111 6.6677L20.0635 6.22318L20.1905 7.42972L19.1111 6.7947V7.42972L17.9683 6.9217L18.6032 6.60419ZM21.9683 6.35019L21.5873 6.9217L21.2698 6.41368L21.9683 6.35019ZM21.8413 5.01664L21.7778 4.44513L22.2857 4.76264L21.8413 5.01664Z" fill="#8E163B"/>
<path d="M13.9683 7.11221L13.4604 6.66769L14.1588 6.41368L13.9683 7.11221ZM16.8254 4.69913L17.3334 4.95313L16.8889 5.20715L16.8254 4.69913ZM17.3969 2.54007L17.5239 2.79407H17.5873L17.7778 3.23859L17.2064 3.17509L17.3334 3.04808H17.1429L17.3969 2.54007ZM15.0477 3.6196L14.5397 3.81011L14.6032 3.23859L15.0477 3.6196ZM20.127 2.60357L19.1746 3.17509V2.92108L18.6667 3.42909L18.2223 2.41306L19.1112 2.47656L19.0477 2.03205L20.127 2.60357ZM20.6985 3.36559L22.0953 4.12762L20.9524 4.82613L20.6985 3.36559ZM22.9842 4.82613L22.5397 4.69913L23.4921 4.06411L21.7778 3.6831L23.1746 2.66707L23.4921 4.06411L24.508 3.42909L24.635 4.12762L25.5873 4.69913L24.7619 5.14364V5.33415L24.508 5.27064L24.3175 5.33415V5.20715L23.4286 4.95313L23.6826 6.03268L21.9048 5.58815L22.9842 4.82613ZM15.1111 8.00123L15.4921 8.19174L14.8572 8.69975V8.19174L14.3492 7.81072L15.2381 7.42972L15.1111 8.00123ZM17.9048 7.68372L17.5239 7.42972L18.0953 7.1757L17.9048 7.68372ZM43.1746 4.19111L43.5556 3.81011L43.7461 4.25462L43.1746 4.19111ZM41.5239 7.62022L41.3969 7.55672L40.8889 7.81072L40.635 6.09617L42.2858 7.0487L41.5239 7.42972V7.62022ZM38.4762 10.0968L38.9207 10.6683H38.7302L39.1747 10.7953L38.2858 11.4303L38.0953 10.5413L38.3493 10.6048L38.4762 10.0968ZM35.1112 9.46177L34.7302 9.84279L34.6667 9.65228L33.9048 10.0968V8.95376L35.0477 9.46177H35.1112ZM35.1747 6.15968H35.9366L35.4921 6.66769L35.1747 6.15968ZM30.3493 7.0487L29.9683 6.73119L30.4762 6.54068L30.3493 7.0487ZM28.635 7.55672V7.36621L28.7619 7.42972L29.1429 7.30271L29.0794 7.62022L29.7778 8.00123L28.7619 8.57275L28.6985 8.06473L28.254 7.68372L28.635 7.55672ZM32 6.9852L31.8096 7.49321L31.4286 7.1757L32 6.9852ZM35.4286 7.68372L35.5556 8.06473L35.0477 8.00123L35.4286 7.68372ZM41.7778 5.33415L42.7937 5.65166L42.1588 6.28668L41.7778 5.33415ZM45.1429 3.17509L45.0794 3.55609L46.0318 4.12762L45.0159 4.63563L44.9524 4.31812V4.44513H44.8254L44.762 4.38162L43.6191 3.6831L45.1429 3.17509ZM40.3175 6.60419L39.3016 7.55672L39.0477 6.7947L38.9842 7.30271L38.4762 7.0487L38.9842 6.7947L38.7937 6.15968L40.3175 6.60419ZM28.0635 6.15968L28.9524 6.60419L27.3651 6.7947L28.0635 6.15968ZM38.0953 7.49321L39.1747 7.68372L38.7302 8.00123L39.3651 8.25524L39.3016 8.00123L40.3175 8.19174V7.68372L40.9524 7.93773L40.381 8.44574L40.3175 8.25524L39.4921 8.89026L39.3651 8.31874L38.4127 9.20777L37.9048 7.74723L38.2223 7.87423L38.0953 7.49321ZM44.5715 4.44513L45.7143 5.14364L44.6985 5.71517L44.5715 4.44513ZM28.7619 5.46115L28.635 4.25462L29.7778 4.88964L28.7619 5.46115ZM29.9683 6.28668L28.8889 5.77866L29.9048 4.95313L29.9683 6.28668ZM34.2223 6.35018H35.1112L34.2858 6.66769L34.2223 6.35018ZM43.1746 6.09617V5.14364L42.4762 5.52466L42.2858 4.06411L41.3334 3.55609L42.5397 3.04808L42.4762 3.8736L43.8731 4.69913L43.3016 5.01664L44.381 5.46115L43.1746 6.09617ZM25.5239 6.47719L24.4445 5.77866L25.4604 5.27064L25.5239 6.47719ZM12.8889 1.71454L13.5873 1.33353L13.6508 2.15905L12.8889 1.71454ZM35.1112 6.73119L35.1747 7.55672L34.4128 7.11221L35.1112 6.73119ZM49.2064 2.60357L48.1905 3.17509L48.0635 2.15905H47.8731L48.0635 1.96855V1.90505H48.127L49.7778 0.190491L49.7143 2.41306L48.635 2.28606L49.2064 2.60357ZM5.58734 0.0634896H8.19052L7.42861 1.39703L5.58734 0.0634896ZM2.92067 3.6831L2.03179 3.6196L2.53972 2.79407L2.92067 3.6831ZM3.04765 5.20715L2.73019 4.44513L3.74607 4.50862L3.04765 5.20715ZM5.39686 2.73057L5.01591 1.96855L6.09528 2.03205L5.39686 2.73057ZM0.952414 1.58754L0.571468 0.762015L1.65083 0.825511L0.952414 1.58754ZM2.92067 0.0634896H4.12702L3.42861 1.39703L2.92067 0.0634896ZM3.04765 0.698509H2.79369L2.15877 1.27003L1.90479 0.317503L2.34925 0.508001L2.73019 0.0634896L3.04765 0.698509ZM2.92067 1.39703L3.93655 1.46053L3.23813 2.22256L2.92067 1.39703ZM29.7143 7.55672L29.0794 6.9852L29.9683 6.60419L29.7143 7.55672ZM28.4445 1.20653L28.635 0.190491L29.3334 0.952522L28.4445 1.20653ZM15.4286 0.0634896H17.7778L16.4445 1.20653L15.4286 0.0634896ZM20 1.65104L20.508 1.90505L20.127 2.15905L20 1.65104Z" fill="#8E163B"/>
<path d="M11.8096 1.07952V1.27003L10.8572 0.952523L11.3016 0.698509L11.0477 0.508001L11.1747 0.762015L10.6032 0.698509L10.8572 0.380999L10.4762 0.0634896L12.1905 0.126995L12.0635 1.33353L11.8096 1.07952ZM34.7937 0.825511L35.1747 1.58754L34.1588 1.65104L34.7937 0.825511ZM10.2858 1.58754L10.7937 1.84155L10.2858 2.09555V1.58754ZM20.4445 1.46053L19.3016 2.15906L19.1112 1.07952L18.7302 1.01602L19.0477 0.762015V0.698509L18.6667 0.126995L20.635 0.190492L19.7461 1.07952L20.4445 1.46053ZM25.7143 3.6831L24.9524 3.30209L25.4604 2.54007L25.7143 3.6831ZM20.5715 3.93711L20.381 4.57213L19.8731 4.19112L20 4.12762L19.8096 4.06411L19.7461 4.00061L19.1112 3.6196L20.127 3.04808L20.1905 3.5561H20.254L20.1905 3.6196V4.06411L20.5715 3.93711ZM23.7461 2.41306L23.3651 2.73057L23.2381 2.15906L23.7461 2.41306ZM14.3493 4.06411L14.8572 3.81011L14.7302 4.38162L14.3493 4.06411ZM33.3969 3.36559H34.0953L33.6508 3.93711L33.3969 3.36559ZM28.127 4.00061L28.635 3.7466L28.5715 4.31812L28.127 4.00061ZM42.7302 1.65104L43.8731 2.34956L42.8572 2.92108L42.7302 1.65104ZM32.0635 3.11158L33.3334 3.5561L32.127 4.19112L32.0635 3.11158Z" fill="#8E163B"/>
<path d="M18.0953 2.03205L17.5874 1.71454L17.4604 1.77804L18.1588 2.09555L17.2699 2.66707L17.2064 1.96855L16.6985 2.28606L16.762 2.79408L17.0159 2.66707L17.0794 3.6196L17.5239 3.42909L17.4604 3.6196H17.5874L17.5239 4.69913L16.508 4.19112L16.6985 5.52466L14.6032 4.88964L16.4445 3.7466L16.508 4.06411L17.0159 3.87361L16.254 3.36559L15.6826 3.93711L15.3651 3.17509H16.0001L16.635 2.85758L16.1905 2.66707L15.4921 3.11158L15.3651 2.47657L15.3016 2.54007L15.2381 2.22256L14.6032 2.85758L14.2858 2.09555L15.2381 2.15906L15.1747 1.96855L15.3651 2.09555L15.2381 1.39703L13.9048 2.28606L13.7778 0.952523L12.508 1.84155L12.3175 0.126995L14.0318 0.571507L13.7143 0.0634896L15.4286 0.126995L14.9207 0.952523L15.2381 1.01602V0.952523L17.3969 1.58754H17.3334L18.0318 1.20653L17.4604 0.889017L18.5397 0.317503L18.6032 1.58754L18.0318 1.20653L18.0953 2.03205ZM45.9683 0.825511L44.9524 1.39703V1.33353L44.3175 1.90505L44.0636 1.46053L43.2382 1.90505L43.1747 1.46053V1.71454L42.2223 1.14302L41.7778 1.77804L42.0953 1.96855L41.5239 2.28606L42.5397 2.66707L41.3969 3.30209L41.3334 2.34956L40.635 2.73057L40.4445 1.01602L40.762 1.14302L39.7461 0.0634896L43.0477 0.126995L42.6032 0.635013L43.3016 0.380999V0.762015L43.8731 1.14302L43.3016 0.126995H46.3493L45.7143 0.698509L45.9683 0.825511ZM47.0477 2.15906L47.6826 1.58754L48.127 3.04808L46.5397 2.79408L46.4763 2.85758L46.5397 2.92108H46.6667V2.85758L46.7302 2.92108H47.0477L46.9842 3.04808L47.8096 3.5561L46.7937 4.12762L46.7302 3.4926L46.2223 4.25462L45.1429 2.85758H45.2064L44.8255 2.60357L44.508 2.54007L44.635 2.47657L44.381 2.34956L44.254 2.92108L43.6191 2.47657L44.3175 2.28606L45.3334 1.77804V1.90505L45.8413 1.46053L45.5874 1.27003L46.6032 0.762015L46.7302 1.96855L47.0477 2.15906ZM45.6509 2.92108L45.3969 2.73057V2.85758L45.6509 2.92108ZM46.3493 2.79408L46.2858 1.71454L45.9683 1.52404L46.3493 2.79408ZM35.1747 2.92108L34.0318 2.79408L34.6667 1.77804L35.1747 2.92108Z" fill="#8E163B"/>
<path d="M40.3174 0.825517L39.8095 2.54008L40.1905 2.79408L40 2.15906L41.0158 2.47657L40.5079 2.92108L41.3968 3.4291L40.7619 3.81011L42.1587 3.5561L41.5238 5.71517L40.6984 5.08015L40.3174 5.33416L39.9365 5.65167L39.873 5.14365L39.5555 5.39766V5.71517L38.8571 5.39766L38.4127 5.84217L38.2857 5.46116L38.1587 5.58816V5.52466L37.0793 6.09618L36.9524 4.95314L36.8254 5.08015L36.9524 5.46116L35.8095 5.33416L36.3174 4.50863V4.44513H36.3809L36.4444 4.31812L36.5079 4.50863L36.8889 4.57214V4.44513L36 4.19112L37.0793 3.5561L36.9524 3.1751L37.4603 3.3021L37.9047 3.04808L37.9682 3.4291L38.6031 3.61961L38.0952 4.12762L38.1587 4.50863L39.3651 4.88965L39.4285 4.82614L39.3651 4.63563L39.619 4.69914H39.6825L40.3174 4.82614L39.8095 4.44513V4.63563L39.4285 4.31812L39.9365 4.06412V4.19112H40.0635L39.9365 2.85759L39.873 3.1751L38.6666 2.22257L37.8412 2.85759L37.7143 2.28606L36.7619 3.1751L36.2539 2.73057L35.4285 3.4926L35.2381 1.77805L35.746 2.03206L34.9206 0.190498L33.9682 1.33353L33.5238 0.825517L33.9047 1.71455H34.6031L33.7778 3.3021L32.5714 1.90506L32.3174 1.96855L32.6349 2.92108L32.127 2.85759L32.2539 2.98459L31.492 3.1751V3.36559H31.5555L31.492 4.44513L31.1746 4.31812L31.1111 4.44513L31.6825 4.50863L31.8095 4.38163V4.50863H31.9365L31.873 4.63563V5.08015L32.9524 4.44513L32.8889 4.38163L33.5238 4.00061L33.5873 4.82614L33.1428 4.50863L33.2698 5.33416L34.1587 4.57214L34.0952 4.06412L34.5397 4.31812L34.4762 3.74661L35.2381 4.50863L34.6666 5.46116L34.6031 4.69914L34.2857 4.88965L34.6031 5.84217L33.3968 5.65167V6.03268H33.3333V6.28668H33.3968L33.3333 7.36622L32.1905 6.8582L32.6349 6.6677L32.1905 6.41369L31.2381 6.9217L31.1746 5.84217L32.2539 6.28668L33.0158 5.96918H32.9524V6.03268L31.9365 5.71517V5.84217L31.2381 5.52466L31.1111 5.65167L31.0476 5.46116L30.9206 5.39766L30.9841 5.33416L30.9206 5.20715L30.6032 5.77867L29.6508 4.38163L30.9206 4.44513L30.3492 4.19112L30.7936 4.00061L30.3492 3.74661L29.3968 4.25463L29.3333 3.1751L30.4127 3.61961L31.1746 3.3021L30.0952 2.98459V3.11159L29.0159 2.60357L30.0317 1.77805V2.47657L31.2381 1.71455L30.6666 0.952529L31.6825 1.01602L31.4285 0.508008L32.8889 0.444511L32 1.65104L31.6825 1.07953L31.3016 1.71455L31.4285 2.79408L31.492 2.73057L31.5555 2.54008L31.619 2.60357L32.127 2.15906L32.2539 1.39704L32.8889 2.03206H32.9524L33.4603 0.952529L32.6349 0.127002L34.8571 0.190498H37.7778L39.873 0.254004L38.8571 1.65104L40.3174 0.825517ZM37.2698 4.50863L38.0317 4.95314V4.69914L37.9682 4.57214L36.9524 4.25463L37.2698 4.50863ZM40.1905 5.01665V4.88965L40.0635 4.95314L40.1905 5.01665ZM40.1905 4.82614L40.5714 5.01665L40.2539 4.76264L40.1905 4.82614ZM36.8254 2.34957L36.3174 1.65104L35.873 1.96855V2.66708L36.8254 2.34957ZM37.5873 0.254004L35.873 1.46054L37.4603 1.96855L37.3968 1.71455L38.3492 1.90506L37.5873 1.33353L38.2857 1.20653L37.5873 0.254004ZM27.3651 1.33353L27.1746 1.58755L27.6825 1.90506L27.8095 1.77805L27.9365 2.03206L28.0635 2.09556L28 2.15906L28.0635 2.34957L28.2539 2.22257L28.3174 3.4926L27.2381 2.98459L27.9365 2.41306H27.5555L27.0476 2.73057L26.9841 1.96855L26.4127 2.66708L27.3016 3.93712L26.0317 4.06412H26.7936L26.3492 4.57214L26.9206 4.82614H26.9841L26.8571 4.76264L28.1905 3.93712L28.3174 5.27065L27.3651 4.95314V5.01665L27.3016 5.46116L27.3651 5.39766L27.619 6.54069L26.2222 6.22318L27.2381 5.46116L26.9206 5.20715L26.5397 4.82614L26.1587 4.69914L25.8413 4.44513L25.3333 4.00061H25.7143L26.0952 3.04808L25.6508 2.22257L24.5079 2.85759L24.4444 1.96855L24.127 2.34957L23.619 1.27004H24.3809L23.746 0.254004L22.0317 0.508008L23.1111 2.66708L21.7778 2.28606L21.9682 3.36559L20.1905 2.92108L21.2698 2.15906L20.9524 2.34957L20.8889 2.03206L20.7619 1.96855L20.8254 1.90506L20.6349 0.127002L21.3333 0.31751L21.2063 0.0634961H23.5555V0L26.0317 0.444511L25.8413 0H28.4444L27.3016 1.27004L27.3651 1.33353ZM25.2063 1.65104L24.9524 1.96855L25.4603 2.15906L25.2063 1.65104ZM24.4444 1.71455L24.5714 1.77805L24.4444 1.71455ZM26.0317 0.698515L25.7143 1.07953L26.2222 1.20653L26.0317 0.698515Z" fill="#8E163B"/>
<path d="M29.2064 1.39704L28.508 2.73058L27.5556 1.33353L29.2064 1.39704ZM46.8571 0.190498L49.7143 0.127002L47.9365 1.58755L46.8571 0.190498ZM28.9524 0H31.3016L30.1587 1.33353L28.9524 0ZM44.381 17.463L43.5556 17.6535L43.8095 16.828L44.381 17.463ZM44.7619 12.6369L44.6984 13.2084L44.0635 12.8909L44.7619 12.6369ZM39.0476 16.32L38.9841 15.6215L39.6191 15.812L39.0476 16.32ZM35.2381 19.6221L34.4127 19.7491L34.6667 18.9236L35.2381 19.6221ZM35.6191 14.7324L35.5556 15.3675L34.9206 15.05L35.6191 14.7324ZM48.5714 11.4938L48 11.6208L48.127 10.9223L48.5714 11.4938ZM50.6032 8.19175L49.9683 8.31875L50.1587 7.68373L50.6032 8.19175ZM48.6349 14.4784L48.127 14.0974L48.7619 13.8434L48.6349 14.4784ZM51.5556 12.6369L51.4921 12.0654L52 12.3194L51.5556 12.6369ZM47.4286 10.9223L46.8571 10.8588L47.2381 10.4143L47.4286 10.9223ZM49.6508 10.9223L49.0794 10.8588L49.4603 10.4778L49.6508 10.9223ZM50.8571 15.558L50.0952 15.685L50.2857 14.8595L50.8571 15.558ZM51.2381 10.6683L51.1746 11.2398L50.5397 10.9223L51.2381 10.6683ZM29.9683 18.4156L29.8413 17.717L30.4762 17.971L29.9683 18.4156ZM29.4603 17.082L28.508 17.209L28.7619 16.2565L29.4603 17.082ZM29.8413 11.9384L29.0794 11.5574L29.9048 11.1763L29.8413 11.9384ZM23.1111 15.6215L22.9842 14.7959L23.7461 15.05L23.1111 15.6215Z" fill="#8E163B"/>
</svg>
