<svg width="23" height="17" viewBox="0 0 23 17" fill="none" xmlns="http://www.w3.org/2000/svg">
<path d="M15.3817 9.88976L14.8647 10.7947L14.1538 9.82512L15.3817 9.88976ZM18.7424 8.66162L18.4839 9.69584L17.5791 8.92017L18.7424 8.66162ZM17.0621 13.0571L15.9634 13.4449L16.028 12.1521L17.0621 13.0571ZM16.2219 11.5057L16.4158 10.2776L17.5145 11.0533L16.2219 11.5057Z" fill="#B7654F"/>
<path d="M19.5825 11.635L18.4838 12.0875L18.5484 10.6654L19.5825 11.635ZM9.75893 6.14068L8.66024 6.72244L8.53097 5.36502L9.75893 6.14068ZM20.8751 9.95438L19.7118 10.4068L19.841 8.9848L20.8751 9.95438ZM18.5484 8.92015L17.3205 8.85552L17.9668 7.62738L18.5484 8.92015ZM17.7083 10.2129L16.545 10.1483L17.1266 8.92015L17.7083 10.2129ZM19.5825 10.4068L18.3546 10.6008L18.6777 9.30799L19.5825 10.4068ZM16.4157 8.72623L15.2524 9.11407L15.3816 7.8213L16.4157 8.72623Z" fill="#B7654F"/>
<path d="M15.7695 8.27378L14.5415 8.40305L14.9293 7.11028L15.7695 8.27378ZM22.2323 10.7947V11.8936L21.1983 11.3118L22.2323 10.7947ZM14.9939 9.04944L14.3476 9.88975L13.8306 8.85553L14.9939 9.04944ZM10.8577 15.6426L10.1467 15.7072L10.4053 14.9316L10.8577 15.6426ZM11.1808 11.0532L11.1162 11.635L10.5992 11.3118L11.1808 11.0532ZM6.07514 13.7034L6.65679 13.962L6.2044 14.4145L6.07514 13.7034ZM22.9432 9.95439L22.8786 10.9886L21.8446 10.4715L22.9432 9.95439ZM21.1336 11.6996L19.6472 12.2167L19.7118 10.4715L21.1336 11.6996Z" fill="#B7654F"/>
<path d="M17.9668 14.673L17.2559 14.7376L17.5144 13.962L17.9668 14.673ZM13.6367 11.635L13.7013 11.0532L14.283 11.3764L13.6367 11.635ZM19.2594 14.8669L19.1948 15.5133L18.6777 15.1255L19.2594 14.8669ZM0.581654 8.98479L0.517022 9.56654L0 9.17871L0.581654 8.98479ZM19.9703 12.4753L19.7764 12.9924L19.324 12.4753H19.9703ZM20.4227 8.85552L22.4908 9.8251L20.6812 11.5703L20.4227 8.85552ZM18.3546 7.82129L20.4227 8.92015L18.4838 10.4715L18.3546 7.82129ZM16.1572 6.52851L18.2253 7.62737L16.2218 9.17871L16.1572 6.52851ZM13.7659 5.23574L15.8341 6.20532L13.9598 7.88593L13.7659 5.23574Z" fill="#B7654F"/>
<path d="M11.8271 4.26616L13.8306 5.23574L11.9564 6.85171L11.8271 4.26616ZM17.9668 13.8327L17.5144 12.9277H18.6131L17.9668 13.8327ZM14.5415 10.7947L13.3136 10.8593L13.766 9.56654L14.5415 10.7947ZM4.78256 3.23193L3.61924 3.42585L3.87776 2.13308L4.78256 3.23193Z" fill="#B7654F"/>
<path d="M5.49346 5.75286L4.39477 6.01141L4.65328 4.84791L5.49346 5.75286ZM12.9904 9.50191L13.1197 8.27377L14.283 8.9848L12.9904 9.50191ZM10.7284 4.84791L10.8576 3.61978L12.021 4.39544L10.7284 4.84791ZM10.5345 6.52852L10.5991 5.30039L11.8271 5.94678L10.5345 6.52852ZM12.4087 7.43346L12.538 6.26997L13.7659 6.91636L12.4087 7.43346ZM11.4393 8.40304L11.7624 9.04943H10.9223L11.4393 8.40304ZM6.91528 9.17871L7.49696 9.11407L7.36769 9.76046L6.91528 9.17871ZM10.9223 13.4449L10.9869 12.8631L11.5686 13.1863L10.9223 13.4449ZM11.0515 6.78707L10.8576 8.07985L9.6297 7.30418L11.0515 6.78707ZM9.50044 8.27377L9.37119 9.50191L8.20786 8.72623L9.50044 8.27377ZM13.4428 9.50191L13.2489 10.73L12.0856 9.95438L13.4428 9.50191ZM13.7659 16.3536L14.3476 16.4182L13.9598 17L13.7659 16.3536ZM13.1843 12.4106L12.8611 11.8289H13.6367L13.1843 12.4106ZM17.7083 11.8289L17.1266 11.8935L17.3205 11.3118L17.7083 11.8289ZM13.8306 7.43346L13.7659 8.01521L13.1843 7.62738L13.8306 7.43346ZM3.94238 11.2472V10.5361L4.65328 10.924L3.94238 11.2472Z" fill="#B7654F"/>
<path d="M8.33718 12.6046L7.75552 12.4107L8.20792 12.0228L8.33718 12.6046ZM6.72146 7.04563L6.39831 7.4981L6.07517 6.98099L6.72146 7.04563ZM15.1232 8.14449L13.5721 8.27376L14.0245 6.59316L15.1232 8.14449ZM16.8682 7.43346L15.7049 7.82129L15.8341 6.46388L16.8682 7.43346ZM12.3442 8.33841L11.504 7.82129L12.4088 7.23955L12.3442 8.33841ZM15.1878 15.4487L14.6708 15.1255L15.2525 14.8023L15.1878 15.4487ZM12.2149 16.6768L11.5686 16.2243L12.2795 15.7072L12.2149 16.6768ZM15.8988 13.057L15.3817 13.5095L15.1878 12.7338L15.8988 13.057ZM9.43588 11.635L9.75902 12.2167L9.0481 12.2814L9.43588 11.635ZM10.4053 4.78327L11.0516 5.49429L9.9529 5.81749L10.4053 4.78327ZM9.37125 3.74905L8.98347 4.71863L8.20792 3.81369L9.37125 3.74905Z" fill="#B7654F"/>
<path d="M8.91877 3.94296L9.56507 4.71862L8.46638 4.97718L8.91877 3.94296Z" fill="#B7654F"/>
<path d="M7.82006 4.78328L7.62615 3.16732L9.37116 3.8137L7.82006 4.78328Z" fill="#B7654F"/>
<path d="M9.11268 4.58935L9.17729 2.77946L10.9869 3.74905L9.11268 4.58935ZM8.53101 5.49429L7.3677 5.55893L7.8201 4.3308L8.53101 5.49429ZM6.97992 4.3308L5.75198 4.26616L6.33363 3.03803L6.97992 4.3308ZM7.10918 4.91255L6.65677 5.81748L5.88124 4.97719L7.10918 4.91255ZM8.07862 3.03803L7.75547 4.00761L6.91529 3.1673L8.07862 3.03803ZM9.24193 7.82129L8.78954 7.43345L9.43582 7.1749L9.24193 7.82129Z" fill="#B7654F"/>
<path d="M7.30307 1.87454L9.30656 2.84412L7.43233 4.52472L7.30307 1.87454ZM2.32666 3.42587L2.77905 2.45628L3.61924 3.36123L2.32666 3.42587ZM4.71791 4.20153L5.10569 3.16732L6.01049 4.00762L4.71791 4.20153ZM4.33014 7.04564L4.20089 6.39925L4.91181 6.52853L4.33014 7.04564ZM8.53101 7.11028L8.01399 7.04564L8.2725 6.52853L8.53101 7.11028ZM5.62271 2.6502L5.49347 3.16732L5.04106 2.77948L5.62271 2.6502ZM1.35723 7.69203L1.22796 7.11028L1.93888 7.23956L1.35723 7.69203ZM5.5581 7.82131H5.04106L5.29957 7.23956L5.5581 7.82131Z" fill="#B7654F"/>
<path d="M2.77914 3.36124L2.58526 3.87835L2.13286 3.49052L2.77914 3.36124ZM4.13634 2.00382L3.8132 2.77949L3.16691 2.06846L4.13634 2.00382ZM5.81668 1.22815L5.42891 2.06846L4.71799 1.22815H5.81668ZM5.42891 2.77949L4.9765 2.45629L5.49354 2.13309L5.42891 2.77949Z" fill="#B7654F"/>
<path d="M5.62274 0.904949L7.56161 1.80989L5.94589 3.4905L5.62274 0.904949ZM3.94241 0L5.55813 0.840306L4.07165 2.13308L3.94241 0ZM9.50047 16.1597L8.78957 16.289L8.91882 15.5133L9.50047 16.1597ZM9.3066 11.5704L9.37123 12.1521L8.72494 11.8935L9.3066 11.5704ZM4.52406 14.7376L5.10572 14.8669L4.71794 15.384L4.52406 14.7376Z" fill="#B7654F"/>
</svg>
