<svg width="28" height="10" viewBox="0 0 28 10" fill="none" xmlns="http://www.w3.org/2000/svg">
<path d="M25.1345 4.65371L23.5573 4.26497L24.357 5.89766L25.1345 4.65371ZM23.6462 6.98611L22.8687 6.7973L23.2575 7.60809L23.6462 6.98611ZM6.65291 9.04086V8.19674L6.00874 8.72988L6.65291 9.04086ZM0.544218 6.26418L0.399842 5.59777L0 6.07537L0.544218 6.26418Z" fill="#E8BF89"/>
<path d="M6.89729 4.67592L6.69738 4.03173L6.33085 4.54264L6.89729 4.67592ZM8.80765 6.58627L8.60773 5.94208L8.24121 6.4419L8.80765 6.58627ZM4.25391 7.2971L4.05398 6.63071L3.69857 7.14161L4.25391 7.2971ZM24.1349 4.03173L23.9461 3.98731L23.3908 3.84291L23.3463 4.03173L22.5911 3.84291L23.1131 4.9758L23.6351 4.49822L24.1349 4.03173ZM22.3578 8.06347L22.4689 7.61921L21.7803 7.73026L22.0357 7.97461L21.5915 8.99643L22.8687 8.55217L22.3578 8.06347Z" fill="#E8BF89"/>
<path d="M24.6458 9.25189L23.2686 7.58589L22.3578 9.2741L24.6458 9.25189ZM24.5347 6.89726L24.6014 7.14161L25.19 6.69735L24.5681 6.30861L24.3904 5.53114L23.3908 6.24197L24.5347 6.89726ZM8.31894 1.06623L8.96313 1.21063L8.91871 0.410943L8.31894 1.06623ZM21.7359 3.73186L22.3578 4.12058L22.5244 3.45419L21.7359 3.73186ZM6.49744 5.9532L6.53076 6.7973L7.03058 6.20865L6.49744 5.9532ZM2.32132 6.28639L2.35464 7.13051L2.85444 6.54185L2.32132 6.28639ZM1.09958 7.26378L1.1218 8.1079L1.63271 7.51923L1.09958 7.26378ZM20.392 5.48672L20.4142 6.33082L20.9251 5.74217L20.392 5.48672ZM26.8672 4.39825L27.4225 2.24354L26.0119 3.28758L26.8672 4.39825ZM25.5343 0.0333188L24.1238 0.0444194L24.6458 0.744148L25.5343 0.0333188ZM28 0.0333188L26.2452 0L27.578 1.62157L28 0.0333188ZM15.5827 1.64379L14.5831 2.37684L15.6161 2.8211L15.5827 1.64379Z" fill="#E8BF89"/>
<path d="M11.3955 2.11026L10.3959 2.84331L11.4288 3.28757L11.3955 2.11026ZM3.92071 7.80801L2.92109 8.54106L3.95402 8.98532L3.92071 7.80801ZM25.3789 3.28757L26.7117 3.02102L26.2452 2.57674L27.5558 1.94367L26.1897 0.466476L26.1564 2.44347L25.5566 2.07695L25.3789 3.28757ZM22.7799 1.28836L23.5796 0.0110962H22.0691L22.7799 1.28836ZM7.09723 0.821881L6.98615 1.26616L7.46375 1.15509L7.09723 0.821881ZM19.0925 2.6656L19.0147 3.10988L19.5034 2.96549L19.0925 2.6656ZM19.5701 6.08647L19.7922 6.61959L20.0365 6.08647H19.5701ZM24.868 6.99723L26.2341 7.00833L26.3452 6.28638L26.4562 5.84212L26.0675 5.98651L25.5122 5.36454L24.868 6.99723ZM22.5356 1.6882L23.4241 1.8326L22.9798 1.01069L22.5356 1.6882ZM23.2242 8.64102L23.4685 7.75248L22.58 7.97461L23.2242 8.64102ZM20.5586 3.46528L20.2698 2.68782L19.8588 3.42087L20.5586 3.46528ZM22.0358 1.11067L21.647 0.0888513L21.1139 1.05513L22.0358 1.11067ZM21.7025 5.16461L21.2583 3.9873L20.6363 5.07575L21.7025 5.16461ZM14.4832 0.277663L13.2392 0.144371L13.939 1.18841L14.4832 0.277663ZM14.0389 1.64378L12.906 2.02141L13.939 2.64338L14.0389 1.64378ZM7.40821 7.56366L7.03059 8.41889L7.97465 8.08568L7.40821 7.56366Z" fill="#E8BF89"/>
<path d="M5.32006 7.23048L4.85358 8.05238L5.83097 7.83025L5.32006 7.23048ZM20.1364 6.91949L19.7699 7.78581L20.7029 7.45261L20.1364 6.91949ZM20.9805 7.9413L20.3919 9.30743L21.8913 8.77431L20.9805 7.9413ZM24.4236 2.72115L23.3462 2.69893L23.9016 3.80961L24.4236 2.72115ZM23.3129 3.18763L23.0242 2.41017L22.2689 3.07656L23.3129 3.18763ZM25.9785 4.87586L25.4232 3.76519L24.5569 4.87586H25.9785ZM21.5581 5.16463L22.1801 5.56447L22.3689 4.787L21.5581 5.16463ZM0.255399 8.74099L0.844053 8.85206L0.69966 8.29673L0.255399 8.74099ZM11.6731 0.255461L11.9285 0.999608L12.4284 0.388736L11.6731 0.255461ZM9.27404 7.75249L8.23003 8.50774L9.45176 8.88538L9.27404 7.75249ZM5.209 5.08689L4.20939 5.88657L5.45335 6.21976L5.209 5.08689ZM5.54219 3.75407L5.07571 3.72075L5.38669 4.20945L5.54219 3.75407ZM8.46326 4.60929L8.019 4.54265L8.29666 5.05357L8.46326 4.60929ZM1.2439 0.92187L0.966228 1.33281L1.41049 1.27728L1.2439 0.92187ZM20.3808 0.255461L20.1031 0.666404L20.5474 0.610884L20.3808 0.255461ZM25.1011 2.21024L24.4014 2.6212L25.1233 2.99882L25.1789 2.1325L26.4894 1.35503L25.1344 0.388736L25.1011 2.21024Z" fill="#E8BF89"/>
<path d="M24.0016 5.80883L23.2019 4.87587L22.6799 6.0976L22.4356 6.18646L22.9354 6.71959L23.2686 6.0754L24.0016 5.80883ZM22.691 1.17733L21.9469 0.955203L22.2801 1.73267L22.691 1.17733ZM21.8025 3.47641L21.025 3.2765L21.4248 4.08729L21.8025 3.47641ZM20.192 4.05397L20.2698 3.72076L19.77 3.83184L19.9699 3.99843L19.6589 4.7537L20.5918 4.38717L20.192 4.05397ZM21.8025 5.69776L21.8913 5.36457L21.3804 5.47563L21.5803 5.65334L21.2805 6.40859L22.2023 6.04208L21.8025 5.69776Z" fill="#E8BF89"/>
<path d="M22.6799 3.39864L22.7354 3.65411L23.3241 3.20985L22.7021 2.82111L22.5355 2.04362L21.5359 2.75447L22.6799 3.39864Z" fill="#E8BF89"/>
<path d="M20.092 1.54384L20.6695 1.94368L20.8917 1.19954L20.092 1.54384ZM12.1285 4.65373L12.706 5.05357L12.9281 4.2983L12.1285 4.65373Z" fill="#E8BF89"/>
<path d="M22.1468 2.31018L21.3471 1.36613L20.8139 2.58785L20.5696 2.6656L21.0805 3.22094L21.4137 2.55453L22.1468 2.31018Z" fill="#E8BF89"/>
<path d="M15.0162 4.19835L14.2054 3.26539L13.6834 4.48712L13.4391 4.56488L13.9389 5.12021L14.2721 4.4538L15.0162 4.19835ZM22.2022 7.55258L22.6021 6.38638L21.2915 6.55297L21.0916 6.37526L20.8694 7.08609L21.6025 7.04167L22.2022 7.55258ZM24.4791 0.977396L23.8127 2.08807L25.2011 1.89926L24.4791 0.977396Z" fill="#E8BF89"/>
<path d="M24.0349 0.0666392L23.0575 1.31059L24.568 1.3439L24.0349 0.0666392ZM24.9235 4.20944L24.8901 3.62078L25.0567 3.28758L24.8124 3.36533L24.7013 3.25426L24.5569 3.47639L24.4459 3.45419L24.5569 3.47639L24.1682 3.76518L24.9235 4.20944ZM24.9235 9.02975L25.6676 7.41928L24.5903 7.58589L24.9235 9.02975ZM7.98572 3.3209L7.48591 3.74296L8.17454 3.7985L7.98572 3.3209Z" fill="#E8BF89"/>
<path d="M27.0893 3.72076L26.5672 5.9199L25.2566 4.97583L27.0893 3.72076ZM25.7565 7.7414L24.1571 8.66326L23.1575 6.49744L25.7565 7.7414Z" fill="#E8BF89"/>
<path d="M26.1229 7.55259L25.6231 9.32966L25.1122 7.94132L26.1229 7.55259ZM21.0139 4.66484L19.4367 4.2761L20.2364 5.90879L21.0139 4.66484Z" fill="#E8BF89"/>
<path d="M19.5367 6.97503L18.7592 6.78622L19.1479 7.597L19.5367 6.97503ZM20.0254 4.03174L19.8366 3.98732L19.2812 3.84293L19.2368 4.03174L18.4815 3.84293L19.0036 4.97582L19.5145 4.49824L20.0254 4.03174ZM18.2483 8.06348L18.3816 7.61922L17.693 7.73028L17.9484 7.97463L17.5041 8.99644L18.7814 8.55218L18.2483 8.06348ZM20.2919 9.28523L19.7144 7.95241L18.0262 9.22969L20.2919 9.28523ZM7.85241 9.26301L7.5192 8.45222L6.48629 9.22969L7.85241 9.26301ZM5.58665 9.26301L5.25344 8.45222L4.22052 9.22969L5.58665 9.26301ZM15.5272 9.26301L15.1939 8.45222L14.161 9.22969L15.5272 9.26301ZM20.4363 6.90839L20.4919 7.15274L21.0805 6.70846L20.4696 6.31974L20.2919 5.54225L19.2923 6.25308L20.4363 6.90839ZM14.4609 1.13289L15.3717 1.35503L15.2828 0.355419L14.4609 1.13289ZM17.6374 3.76519L18.2483 4.15391L18.4149 3.48752L17.6374 3.76519ZM16.2824 5.54225L16.3157 6.38637L16.8266 5.79772L16.2824 5.54225ZM19.4589 1.72156L20.2586 0.455376L18.7592 0.444275L19.4589 1.72156ZM14.9607 6.43079L15.7604 5.15353H14.261L14.9607 6.43079ZM14.994 2.69894L14.9052 3.14322L15.405 2.99882L14.994 2.69894ZM15.4716 6.11981L15.6937 6.65292L15.9381 6.11981H15.4716ZM11.14 4.49824L11.3621 5.03135L11.6176 4.49824H11.14Z" fill="#E8BF89"/>
<path d="M18.4261 1.69933L19.3146 1.84371L18.8703 1.02182L18.4261 1.69933ZM19.1147 8.65213L19.359 7.76359L18.4705 7.98574L19.1147 8.65213ZM16.4491 3.4764L16.1603 2.69893L15.7382 3.43198L16.4491 3.4764ZM5.03136 2.19913L4.74257 1.42166L4.32053 2.15471L5.03136 2.19913ZM14.1389 8.4189L13.8501 7.64141L13.428 8.37446L14.1389 8.4189ZM17.9151 1.11068L17.5264 0.0888626L16.9933 1.05514L17.9151 1.11068ZM17.5597 5.16462L17.1377 3.98731L16.5157 5.07577L17.5597 5.16462ZM16.0048 6.90838L15.6494 7.77471L16.5823 7.4415L16.0048 6.90838ZM14.8275 7.71917L14.4721 8.58549L15.405 8.25229L14.8275 7.71917ZM10.2515 8.2745L9.88498 9.14083L10.8291 8.80762L10.2515 8.2745ZM10.7291 6.89727L11.5843 7.28601L11.2733 6.33083L10.7291 6.89727ZM13.7057 7.18605L14.5498 7.57478L14.2499 6.63072L13.7057 7.18605ZM9.574 7.36375L10.4181 7.75249L10.1182 6.80841L9.574 7.36375ZM16.6601 8.09679L15.6383 9.18525L17.2265 9.19636L16.6601 8.09679ZM13.1948 8.15233L12.1952 9.24078L13.7723 9.2519L13.1948 8.15233ZM2.288 8.15233L1.2884 9.24078L2.87665 9.2519L2.288 8.15233Z" fill="#E8BF89"/>
<path d="M20.3142 2.72115L19.248 2.69893L19.8033 3.80961L20.3142 2.72115ZM19.2035 3.18763L18.9148 2.41017L18.1595 3.07656L19.2035 3.18763ZM17.4487 5.16463L18.0595 5.56447L18.2595 4.787L17.4487 5.16463ZM16.2491 0.255461L15.9826 0.666404L16.4269 0.610884L16.2491 0.255461ZM9.94054 3.32091L9.66287 3.73187L10.1071 3.67633L9.94054 3.32091ZM19.8922 5.80882L19.0925 4.87586L18.5705 6.09759L18.3261 6.18644L18.8259 6.71958L19.1591 6.07538L19.8922 5.80882ZM18.5816 1.17732L17.8374 0.955189L18.1706 1.73266L18.5816 1.17732ZM17.693 3.4764L16.9156 3.27649L17.3154 4.08727L17.693 3.4764Z" fill="#E8BF89"/>
<path d="M16.0713 4.05395L16.1491 3.72074L15.6493 3.83182L15.8492 3.99841L15.5382 4.75368L16.4601 4.38715L16.0713 4.05395ZM12.7393 6.40857L12.8171 6.07538L12.3062 6.18644L12.5061 6.36415L12.2062 7.1194L13.1281 6.75289L12.7393 6.40857ZM7.81905 6.9639L7.8968 6.63071L7.397 6.74177L7.58581 6.91948L7.28593 7.67473L8.20779 7.30822L7.81905 6.9639ZM10.9956 8.2634L10.6624 8.19675L10.7957 8.69656L10.9511 8.49663L11.7286 8.7632L11.3177 7.85244L10.9956 8.2634ZM10.1626 5.70886L10.2403 5.37565L9.7405 5.48672L9.94043 5.65332L9.62945 6.43078L10.5624 6.05316L10.1626 5.70886ZM17.6929 5.70886L17.7818 5.37565L17.2709 5.48672L17.4708 5.66442L17.1598 6.41968L18.0928 6.05316L17.6929 5.70886ZM18.5815 3.40976L18.637 3.66522L19.2256 3.22095L18.6037 2.83222L18.426 2.05474L17.4264 2.76557L18.5815 3.40976ZM15.9936 1.55494L16.5711 1.95478L16.7933 1.21063L15.9936 1.55494Z" fill="#E8BF89"/>
<path d="M11.762 3.39867L12.3395 3.79851L12.5617 3.05436L11.762 3.39867ZM18.0373 2.31021L17.2265 1.36613L16.7045 2.58788L16.4601 2.66562L16.971 3.22095L17.3042 2.55456L18.0373 2.31021ZM18.0928 7.55258L18.4926 6.38637L17.1821 6.55297L16.9821 6.37526L16.76 7.08609L17.493 7.04167L18.0928 7.55258Z" fill="#E8BF89"/>
<path d="M12.7394 8.60771L13.1392 7.44148L11.8286 7.59699L11.6398 7.4304L11.4177 8.14121L12.1508 8.09681L12.7394 8.60771Z" fill="#E8BF89"/>
<path d="M12.6727 1.27729L12.7838 0.9663L12.284 1.02184L12.4617 1.19955L12.1063 1.89926L13.017 1.63271L12.6727 1.27729Z" fill="#E8BF89"/>
</svg>
