<svg width="76" height="23" viewBox="0 0 76 23" fill="none" xmlns="http://www.w3.org/2000/svg">
<path d="M3.83571 16.1012H5.35241L4.80288 15.0022L3.83571 16.1012ZM7.5725 17.5849L7.52853 17.3651L7.17682 17.7828L6.78118 17.0904L6.3965 17.8597L7.16586 17.7828L7.001 18.0465L7.71539 18.2224L7.5615 17.5629L8.36383 17.5959L7.86924 16.9365L7.5725 17.5849ZM27.5754 3.16529L27.8282 4.74794L29.0042 3.39609L27.5754 3.16529ZM30.5428 3.54994L30.7187 4.31929L31.2682 3.60491L30.5428 3.54994ZM37.9945 3.33015L39.0056 4.53912L39.2584 2.97844L37.9945 3.33015ZM35.1039 8.38583L34.3676 8.79247L35.1369 9.07821L35.1039 8.38583ZM34.0708 11.9028L33.5653 12.3424L34.1807 12.4523L34.0708 11.9028ZM31.0704 16.4749L30.5648 16.9145L31.1693 17.0244L31.0704 16.4749Z" fill="#CDE8DD"/>
<path d="M27.5864 19.6512L27.0809 20.0468L27.6524 20.2007L27.5864 19.6512ZM31.3232 10.1993L30.8397 10.6609L31.4551 10.7488L31.3232 10.1993ZM32.1585 7.67141L31.6749 8.14403L32.2794 8.23194L32.1585 7.67141ZM27.3886 4.3193L27.4216 4.50615L27.5095 5.07765L27.6964 5.04468L27.8063 5.81403L28.6416 4.9018L28.0041 4.61603L27.3886 4.3193ZM31.6969 4.25336L31.2353 4.36327L31.6749 4.9128L31.7519 4.58306L32.8509 4.49515L31.8618 3.61592L31.6969 4.25336ZM39.8519 1.26391L40.8411 2.84656L41.6324 1.03312L39.8519 1.26391ZM5.84705 15.3648L6.06687 14.7604L5.33049 15.0022L5.88002 15.5737L5.71516 16.6068L7.06702 16.0353L5.84705 15.3648ZM32.2465 2.53883L32.9059 4.16545L33.7522 2.62674L32.2465 2.53883ZM38.6979 1.43977L37.7308 2.79162L39.6322 3.05538L38.6979 1.43977ZM30.0703 2.79162L30.2681 2.62674L29.6087 2.29703L29.5428 3.02241L28.9493 3.506L30.0154 4.0885L30.0703 2.79162ZM10.0784 18.3213L9.30908 17.2442L8.49578 18.3763L10.0784 18.3213ZM26.7841 10.4081L26.6742 9.74865L25.9489 10.1113L26.7841 10.4081Z" fill="#CDE8DD"/>
<path d="M38.9506 0.307737L38.0494 1.154L39.3682 1.37383L38.9506 0.307737ZM28.5425 6.68227L28.6084 5.95688L27.949 6.11077L28.5425 6.68227ZM39.1155 2.42891L39.8848 1.83541L39.1704 1.45077L39.1155 2.42891ZM35.4666 2.20909L34.7742 2.25306L35.0599 3.02241L35.4666 2.20909ZM32.664 9.96848L33.3894 9.5728L32.642 9.38598L32.664 9.96848ZM30.7076 7.07795L31.433 6.6713L30.6857 6.49545L30.7076 7.07795ZM26.3883 1.51671L24.2232 2.13218L25.9817 3.06639L26.3883 1.51671ZM7.59443 16.0463L8.36378 16.5738L8.42972 15.7165L7.59443 16.0463ZM9.35293 19.5303L10.375 20.1897L10.452 19.0907L9.35293 19.5303ZM9.53978 13.3755L8.39675 12.7161L8.44072 13.3536L7.34166 13.3206L7.89119 14.2878L8.41872 13.5184L8.61658 14.1779L9.53978 13.3755ZM10.1772 16.5628L8.74846 16.9804L9.84752 17.9696L10.1772 16.5628ZM27.8281 11.7269L28.2677 11.6171L27.938 11.2434L27.8281 11.7269ZM28.7513 9.50686L29.191 9.37498L28.8612 9.0013L28.7513 9.50686ZM38.533 14.8373L38.8846 14.3977L38.3022 14.4416L38.533 14.8373ZM42.4896 15.9913L42.8193 15.5187L42.2478 15.5847L42.4896 15.9913ZM24.0913 19.2445L24.465 18.8489L23.9155 18.8269L24.0913 19.2445ZM34.2576 6.53938L34.6203 6.09977H34.0378L34.2576 6.53938ZM31.5759 7.55053L31.9496 7.11092L31.3671 7.13289L31.5759 7.55053ZM30.6747 2.60477L29.5756 1.32985L29.3998 1.59362L28.9601 1.70353L29.2569 1.9893L28.9601 2.75862L30.6747 2.60477ZM36.9174 3.13233L36.9283 2.14315L36.104 2.5828L36.9174 3.13233ZM39.1484 7.01201L40.0277 6.79218L39.5441 6.31959L39.1484 7.01201ZM37.0053 4.63803L37.8625 4.3303L37.346 3.89068L37.0053 4.63803ZM25.9048 6.6493L25.685 5.79203L25.1025 6.51742L25.9048 6.6493ZM37.8076 7.26477L37.8406 6.42951L37.1152 6.84712L37.8076 7.26477ZM34.2576 5.39639L34.3016 4.56109L33.5762 4.96774L34.2576 5.39639ZM31.9496 2.97844L31.0704 3.17627L31.6968 3.85768L31.9496 2.97844ZM33.2904 3.41806L33.4004 4.58306L34.2136 3.70383L33.2904 3.41806ZM36.5657 4.95674L36.7415 5.75906L37.2251 5.09962L36.5657 4.95674ZM37.8406 5.17656L37.9504 5.97889L38.5 5.36342L37.8406 5.17656ZM39.2693 5.06665L39.3792 5.86897L39.9288 5.2425L39.2693 5.06665ZM27.8391 18.3323L28.3886 17.7828L27.6852 17.7388L27.8391 18.3323ZM24.8387 9.93551L24.9486 10.3531L25.4212 10.0014L24.8387 9.93551ZM9.45184 20.2007L9.12214 20.9261L9.89146 20.7063L9.45184 20.2007ZM28.8393 7.85827L28.2677 8.46274L29.103 8.50671L28.8393 7.85827ZM19.1456 20.3106L18.8488 21.047L19.6181 20.7832L19.1456 20.3106ZM25.5641 7.37468L24.7947 8.14404L25.8938 8.25391L25.5641 7.37468ZM29.8284 6.11077L28.9711 7.01201L30.2241 7.07795L29.8284 6.11077ZM32.1035 12.2215L31.2242 13.0788L32.4661 13.2107L32.1035 12.2215ZM25.5091 10.7928L25.0145 11.8698L26.1686 11.5401L25.5091 10.7928ZM28.6634 14.4966L27.8611 15.3758L29.0701 15.4088L28.6634 14.4966ZM22.3219 10.452L22.9263 11.4082L23.256 10.3092L22.3219 10.452ZM7.56146 19.904L7.08887 21.1129L8.34181 20.6733L7.56146 19.904ZM5.18748 21.5525L6.42943 22.0361L5.98981 20.7612L5.18748 21.5525ZM2.65966 17.6509L5.03363 17.8487L3.79169 16.1122L2.65966 17.6509ZM33.4883 8.45177L34.4005 8.36383L33.6641 7.70438L33.4883 8.45177ZM34.1807 10.4301H35.1039L34.4445 9.69371L34.1807 10.4301ZM31.8726 6.50641L32.7849 6.4185L32.0485 5.75906L31.8726 6.50641ZM32.2464 5.55024L33.7191 5.40735L32.5431 4.36327L32.2464 5.55024Z" fill="#CDE8DD"/>
<path d="M7.88025 21.9592L9.15517 21.3657L7.77034 20.7942L7.88025 21.9592ZM25.4652 4.34127L25.8609 5.33045L26.6302 4.39624L25.4652 4.34127ZM26.9489 5.38539L26.3444 5.93492L27.2237 6.37453L26.9489 5.38539ZM27.4435 2.33L26.6742 3.26421L27.993 3.62688L27.4435 2.33ZM4.33028 21.7614L3.6269 21.7174L3.97861 22.4098L4.33028 21.7614ZM36.9394 3.13233L37.8186 2.80259L37.1592 2.319L36.9394 3.13233ZM39.5332 1.46174L40.5443 0.076943L39.0935 0.0329713L39.5332 1.46174ZM39.5002 3.05538L40.1157 3.97859L40.7092 3.1653L39.5002 3.05538ZM37.412 3.82471L37.7417 3.09936L36.9064 3.1543L37.412 3.82471ZM29.8614 6.20968L29.9384 5.4843L29.1471 5.67115L29.8614 6.20968ZM35.4667 1.46174L35.6864 1.7475L35.3238 1.7585L35.3677 2.23109L35.7194 1.85741L36.0711 2.46188L36.5767 1.176L35.4667 1.46174ZM34.3676 3.90165L35.2468 3.70383L34.7632 3.11032L34.3676 3.90165ZM10.2652 21.8163L10.3531 21.1129L9.84758 21.5525L10.2652 21.8163ZM38.4011 11.2324L38.1374 10.7048L37.7857 11.1664L38.4011 11.2324ZM35.4886 6.50641L35.2468 5.95688L34.8731 6.39653L35.4886 6.50641ZM34.1698 6.25365L33.928 5.70412L33.5653 6.14374L34.1698 6.25365Z" fill="#CDE8DD"/>
<path d="M25.685 12.7491L26.0697 12.4523L25.5971 12.3204L25.685 12.7491ZM29.4218 11.5181L30.356 10.6389L29.1031 10.4191L29.4218 11.5181ZM32.719 6.73724L33.873 7.28677L33.6092 6.03383L32.719 6.73724ZM38.588 9.39694L39.764 9.88053L39.4342 8.64959L38.588 9.39694ZM32.4662 11.5291L33.6202 12.0567L33.3455 10.8147L32.4662 11.5291ZM34.2577 1.4178L33.4114 1.85741L33.5982 1.11003L32.8289 1.39579L33.2905 1.87938L32.8509 2.09921L34.2796 3.19827L34.2577 1.4178ZM1.31886 20.2117L2.08822 21.1239L2.63775 19.915L1.31886 20.2117ZM3.9566 18.7829L4.13245 18.64L3.58292 18.5301L3.93463 17.9257L3.07736 17.9476L3.58292 18.5301L3.12133 18.4862L3.45104 19.2225L3.86869 18.8599L4.28633 19.5193L4.58307 18.684L3.9566 18.7829ZM4.11048 19.9699L5.03369 20.0358L4.76992 19.3984L4.11048 19.9699ZM5.25348 18.4532L4.66001 18.9478L5.50627 19.0907L5.25348 18.4532ZM0.395655 22.0142L1.11004 21.8383L0.67042 21.3437L0.395655 22.0142ZM2.94548 19.7281L2.64871 20.5634L3.45104 20.3106L2.94548 19.7281ZM32.6201 21.7064L33.1256 21.4536L32.5981 21.3107L32.6201 21.7064ZM33.2465 19.2115L33.829 19.1676L33.3894 18.8159L33.2465 19.2115ZM39.5991 20.8931L40.1486 20.7282L39.6321 20.4864L39.5991 20.8931ZM31.1034 11.8479L31.2792 12.2875L31.576 11.7929L31.1034 11.8479ZM30.5538 8.88039L30.6967 9.32L31.0264 8.84741L30.5538 8.88039ZM29.0152 13.98L29.4988 14.046L29.246 13.6613L29.0152 13.98ZM25.1685 16.9695L25.6411 17.0794L25.4212 16.6837L25.1685 16.9695ZM25.3663 9.24309L25.8499 9.35297L25.63 8.95733L25.3663 9.24309ZM9.02328 14.4087L9.8146 14.5735L9.52884 13.8042L8.91337 14.4087L7.92422 14.3867L8.47375 15.5517L9.02328 14.4087ZM29.3009 3.79173L28.8283 4.9128L30.1472 4.84686L30.334 5.02271L30.5868 4.34126H29.8614L29.3009 3.79173ZM25.3113 6.75921L25.4212 7.52856L26.0037 6.90209L25.3113 6.75921ZM28.2348 6.79218L28.4107 7.56153L28.9602 6.85812L28.2348 6.79218ZM29.4438 7.95718L29.1141 8.03412L29.4438 8.42977L29.4988 8.177L30.3121 8.11106L29.5757 7.45162L29.4438 7.95718ZM20.2886 12.4633L20.0248 12.6502L20.4645 12.87L20.4315 12.6282L21.1239 12.2765L20.2447 11.9468L20.2886 12.4633ZM30.1802 5.81403L29.8504 5.89094L30.1802 6.28662L30.2351 6.04483L31.0484 5.97889L30.3121 5.31944L30.1802 5.81403ZM27.3226 5.92391L27.5424 5.77006L26.905 5.41835L26.7951 6.13274L26.1686 6.57235L27.2017 7.20983L27.3226 5.92391ZM26.6302 9.02327L26.7731 8.34186L26.0037 8.42977L26.6302 9.02327ZM26.5203 6.84712L25.9708 7.94618L27.2896 7.95718L27.4545 8.155L27.7512 7.47359L27.0259 7.42962L26.5203 6.84712ZM31.6309 4.649L30.422 4.80288L31.1363 5.90194L31.0814 6.15474L31.7958 6.02282L31.4331 5.39639L31.6309 4.649ZM35.9173 3.44006L35.5875 4.61603L36.8734 4.37423L37.0713 4.53912L37.2361 3.82471L36.5217 3.91265L35.9173 3.44006Z" fill="#CDE8DD"/>
<path d="M8.70453 15.6836L9.93548 15.2879L8.77047 14.5186L8.70453 15.6836Z" fill="#CDE8DD"/>
<path d="M8.17697 16.8486L9.97945 16.376L8.88039 15.3648L8.17697 16.8486ZM27.2567 3.52797L26.7291 3.79173L26.3664 3.75876L26.5313 3.95662L26.4543 4.09947L26.7071 4.14344L26.7401 4.25335L26.7071 4.14344L27.1248 4.39624L27.2567 3.52797ZM1.70353 19.7501L1.7365 19.86L2.42891 19.838H3.02238L2.40691 18.1894L1.45074 19.7281L1.70353 19.7501Z" fill="#CDE8DD"/>
<path d="M3.22035 18.8489L2.95655 18.1894L2.51693 18.8489H3.22035ZM6.15482 17.8597L5.36349 17.9696L5.86908 18.5521L6.15482 17.8597ZM1.20905 21.5965L1.91246 22.4208L2.37405 21.2998L1.20905 21.5965ZM37.2582 20.3106L36.9285 20.7503L37.478 20.8601L37.2582 20.3106ZM32.2685 1.81344L30.7847 1.34086L31.0046 3.09936L32.2685 1.81344ZM23.6189 15.0901L24.2014 15.5957L24.2563 14.8263L23.6189 15.0901ZM24.7949 14.6725L25.3774 15.178L25.4433 14.4087L24.7949 14.6725ZM6.03394 19.0907L5.37449 18.8049L5.61629 19.6072L6.03394 19.0907Z" fill="#CDE8DD"/>
<path d="M3.89068 20.2337L4.41824 21.5196L5.18756 20.7283L3.89068 20.2337ZM0.241794 21.9702L0 22.5197L0.934207 22.4758L0.241794 21.9702ZM3.42909 20.7173L2.51686 21.6515L3.48403 22.0032L3.42909 20.7173ZM6.81418 19.6732L5.27551 19.2335L5.93495 20.6843L6.81418 19.6732ZM6.35256 17.3981L5.91295 16.0463L5.14362 16.8376V16.1342L4.0885 16.7607L4.74794 17.2003L4.46221 17.8817L5.2645 17.6289L5.12162 17.464L5.15459 16.9915L6.35256 17.3981ZM7.81433 16.7826L6.95706 16.7387L7.50659 17.4421L7.81433 16.7826ZM1.48374 20.9371L0.934207 20.8272L1.12106 21.3767L1.48374 20.9371ZM4.671 21.8933L5.11065 22.0801L5.00074 21.6075L4.671 21.8933Z" fill="#CDE8DD"/>
<path d="M29.6416 9.85856L30.2462 10.1113L29.9824 9.47389L29.6416 9.85856ZM33.2136 15.3099L33.7631 15.6396L33.5873 14.9802L33.2136 15.3099ZM4.34131 18.5741L4.92381 18.0685L4.33031 17.7168L4.34131 18.5741ZM3.20928 19.4314L3.71484 20.0139L3.93467 19.2445L3.20928 19.4314ZM6.74826 20.2227L8.00117 19.1456L6.13279 18.2224L6.74826 20.2227ZM4.58311 15.0571L7.00105 12.3644L7.59452 15.8814L4.58311 15.0571ZM26.4104 1.51671L29.1141 0.967178L28.0151 3.01141L26.4104 1.51671ZM31.1144 0.703381L33.3455 0.395645L32.1585 3.19827L31.1144 0.703381ZM35.9503 0.285733L38.654 0.0659409L37.6318 2.41791L35.9503 0.285733ZM40.3685 0L42.4347 0.0659409L41.1158 2.12118L40.3685 0ZM29.268 1.03312L31.0265 0.681411L30.3231 1.96733L29.268 1.03312ZM21.3767 5.20953L21.9043 6.72624L22.8275 5.18756L21.3767 5.20953Z" fill="#CDE8DD"/>
<path d="M24.3662 5.04468L24.6959 5.78103L25.1026 4.98974L24.3662 5.04468ZM21.3987 6.36356L21.4537 6.55038L21.6515 7.09991L21.8274 7.04497L22.0802 7.77036L22.7396 6.72624L22.0802 6.55038L21.3987 6.36356ZM23.7727 4.4072L23.9486 4.20938L23.2342 4.01156L23.2891 4.73694L22.7946 5.31944L23.9486 5.70412L23.7727 4.4072ZM22.9375 8.49571L22.8825 7.77036L22.245 8.03412L22.9375 8.49571Z" fill="#CDE8DD"/>
<path d="M19.838 3.53898L18.1895 4.3303L19.838 5.75907V3.53898ZM24.3442 4.08851L23.0253 3.02242L22.9154 3.33016L22.4978 3.50601L22.8275 3.7258L22.6736 4.53913L24.3442 4.08851ZM20.3546 8.92437L19.9919 8.11107L19.5523 8.93537L20.3546 8.92437ZM20.1348 9.64975L19.4973 10.529L20.5964 10.452L20.1348 9.64975ZM24.0914 7.67142L23.41 8.70454L24.6519 8.55069L24.0914 7.67142ZM20.1678 6.82516L20.7173 7.72639L21.3218 6.66031L20.1678 6.82516ZM21.1569 7.4846L20.6623 8.14404L21.6075 8.41881L21.1569 7.4846ZM21.1239 4.38524L20.5305 5.44033L21.9043 5.55024L21.1239 4.38524Z" fill="#CDE8DD"/>
<path d="M24.1793 7.78132L24.1133 7.05594L23.377 7.38568L24.1793 7.78132ZM23.2231 5.47329L22.9593 6.66029L24.2342 6.36356L24.454 6.50641L24.5859 5.79203L23.8715 5.90194L23.2231 5.47329ZM19.816 9.10021L20.0358 9.83656L20.5084 9.11121L19.816 9.10021ZM22.6736 8.60562L23.0033 9.342L23.4099 8.55068L22.6736 8.60562Z" fill="#CDE8DD"/>
<path d="M24.1024 9.52883L23.7727 9.67172L24.1684 10.0015L24.1793 9.74866L24.9487 9.52883L24.1134 9.01227L24.1024 9.52883ZM24.4321 7.27577L24.1244 7.41866L24.5091 7.74836L24.531 7.4956L25.3004 7.27577L24.4541 6.75921L24.4321 7.27577ZM21.6625 7.90225L21.8384 7.71539L21.146 7.4736L21.1569 8.19898L20.6074 8.74851L21.7394 9.21013L21.6625 7.90225ZM21.036 8.93536L20.7063 10.1004L22.0032 9.88054L22.201 10.0344L22.3769 9.32001L21.6515 9.40795L21.036 8.93536ZM25.6741 5.87998L24.5091 6.25366L25.4103 7.19883L25.3883 7.45163L26.0807 7.19883L25.6081 6.6493L25.6741 5.87998ZM21.113 5.60522L20.6404 5.93492L20.2777 5.97889L20.4975 6.13274L20.4425 6.28663L20.6953 6.29759L20.7393 6.40751L20.6953 6.29759L21.135 6.46248L21.113 5.60522ZM25.784 3.04439L24.2453 2.84657L24.7728 4.51712L25.784 3.04439ZM19.926 3.57195L22.4868 2.5608L21.7834 4.75892L19.926 3.57195ZM22.4868 2.62674L24.2013 2.14315L23.6958 3.35212L22.4868 2.62674ZM33.8071 0.340711L35.7524 0.230799L34.4665 1.92336L33.8071 0.340711ZM59.5251 13.2217L58.9206 12.9579L59.0525 13.5514L59.5251 13.2217ZM52.9527 21.3987L52.3812 21.036L52.4362 21.6515L52.9527 21.3987ZM51.2821 13.3096L50.6667 13.0348L50.8096 13.6393L51.2821 13.3096ZM48.6444 16.6837L49.106 17.0134L49.0401 16.4309L48.6444 16.6837ZM62.1409 9.61678L62.6904 10.1993L62.7343 9.46289L62.1409 9.61678ZM41.006 7.52857L40.0168 6.75921L40.0608 8.00116L41.006 7.52857ZM43.5338 11.7819L42.5446 10.8367L42.4567 12.2105L43.5338 11.7819ZM66.2403 7.71539L65.2952 7.36368L65.6469 8.31989L66.2403 7.71539ZM62.9652 7.40766L62.5915 8.3968L63.5806 8.04513L62.9652 7.40766ZM38.8958 12.0787L39.1705 13.5075L40.1047 12.2435L38.8958 12.0787ZM10.1224 12.5183L11.1115 13.7712L11.4742 12.0127L10.1224 12.5183ZM12.5403 11.1555L13.0898 11.749L13.1997 10.8697L12.5403 11.1555ZM18.695 8.24295L20.0799 8.9903L19.7501 7.45163L18.695 8.24295ZM19.2446 13.3536L18.805 14.057L19.6292 13.9471L19.2446 13.3536Z" fill="#CDE8DD"/>
<path d="M20.0798 16.8925L19.86 17.519L20.4535 17.3322L20.0798 16.8925ZM15.0791 19.7061L14.8593 20.3326L15.4528 20.1457L15.0791 19.7061ZM21.2668 21.2118L21.025 21.8053L21.5965 21.6515L21.2668 21.2118ZM16.8706 16.7826L16.6837 17.4201L17.2552 17.2003L16.8706 16.7826ZM16.343 14.1669L16.1562 14.8263L16.7277 14.6065L16.343 14.1669ZM10.54 13.6173L10.6499 13.7712L11.0126 14.2108L11.1555 14.1009L11.6391 14.6944L11.9138 13.4854L11.2214 13.5514L10.54 13.6173ZM13.9251 11.1994L13.5734 11.5291L14.2328 11.7819L14.1229 11.4522L15.0352 10.8367L13.7163 10.551L13.9251 11.1994ZM13.5514 9.44092L14.9362 10.54L14.9142 8.80344L13.5514 9.44092ZM18.651 6.25365L18.2554 7.86927L20.1238 7.40765L18.651 6.25365ZM11.7819 10.7598L11.8699 10.54L11.1335 10.5839L11.4302 11.2434L11.1555 11.9687L12.3644 11.9358L11.7819 10.7598ZM13.0459 19.2225L12.6062 18.717L12.1666 19.3764L13.0459 19.2225ZM18.4312 5.11062L17.9147 6.23165L19.2116 5.94592L18.4312 5.11062ZM12.6942 15.134L12.3974 14.4746L11.8918 14.9362L12.6942 15.134ZM16.1672 7.59451L15.5847 7.97915L16.2111 8.49571L16.1672 7.59451ZM17.9257 15.9473L18.3653 15.244L17.6179 15.4638L17.9257 15.9473ZM14.7934 14.4087L15.233 13.7053L14.4856 13.9251L14.7934 14.4087Z" fill="#CDE8DD"/>
<path d="M8.31986 11.4302L7.06695 12.1446L8.30889 12.804L8.31986 11.4302ZM14.5845 19.838L14.9142 19.5303L14.4526 19.3654L14.5845 19.838ZM14.2877 17.4201L14.6175 17.0904L14.1229 16.9365L14.2877 17.4201ZM23.5199 18.5631L23.6737 18.0136L23.1462 18.2774L23.5199 18.5631ZM14.1229 21.1569L14.2548 20.6074L13.7602 20.8711L14.1229 21.1569ZM17.2662 11.9248L17.3761 11.3753L16.8705 11.683L17.2662 11.9248ZM15.7715 14.3427L15.8814 13.7932L15.3758 14.09L15.7715 14.3427ZM12.1995 10.2762L10.6059 9.72669L10.5949 10.0564L10.2652 10.3641L10.6609 10.474L10.7927 11.2873L12.1995 10.2762ZM17.3102 8.05609L16.9475 7.14389L16.343 7.84727L17.3102 8.05609ZM18.2993 9.67171L18.9808 9.05624L18.3213 8.85842L18.2993 9.67171ZM10.4191 16.376L9.8146 15.7165L9.67172 16.6397L10.4191 16.376ZM20.0358 11.8039L19.7501 11.0126L19.2335 11.672L20.0358 11.8039ZM16.6837 10.9247L16.31 10.1773L15.8704 10.8917L16.6837 10.9247ZM13.4964 9.93551L12.815 10.5619L13.6943 10.8367L13.4964 9.93551ZM14.8702 9.64974L15.5297 10.6169L15.8155 9.46289L14.8702 9.64974ZM18.0026 10.0894L18.4642 10.7488L18.662 9.95748L18.0026 10.0894ZM19.2665 9.83656L19.6512 10.551L19.9259 9.75966L19.2665 9.83656ZM11.0785 19.7281L11.3862 20.0358L11.6061 19.4863L11.0785 19.7281ZM13.5294 15.9583L13.3316 16.7607L14.079 16.387L13.5294 15.9583ZM10.452 17.1453L10.1443 18.1894L11.1335 17.7498L10.452 17.1453ZM13.5294 13.958L13.2327 15.167L14.3537 14.6175L13.5294 13.958ZM18.5301 18.1345L18.1784 19.3215L19.3215 18.8159L18.5301 18.1345ZM21.3877 13.0788L21.1239 14.2328L22.179 13.6833L21.3877 13.0788ZM11.7929 20.7722L12.782 21.2998L12.5402 20.2007L11.7929 20.7722ZM17.8597 14.1449L18.629 13.6173L17.6619 13.3975L17.8597 14.1449ZM19.4533 15.5407L20.2557 15.1011L19.3215 14.7714L19.4533 15.5407ZM15.4967 13.2547L16.2661 12.7051L15.2989 12.4853L15.4967 13.2547ZM15.0241 12.0017L16.2331 11.1444L14.6944 10.8147L15.0241 12.0017ZM9.52883 14.4416L10.3531 15.1011L10.573 13.8921L9.52883 14.4416ZM10.6719 14.7494L10.4301 15.5407L11.4192 15.4857L10.6719 14.7494ZM9.60578 11.8369L9.38595 13.0458L10.7268 12.7161L9.60578 11.8369ZM17.6839 8.28692L18.3653 7.67142L17.563 7.45162L17.6839 8.28692Z" fill="#CDE8DD"/>
<path d="M18.3763 8.75951L18.4202 7.94618L17.6729 8.31989L18.3763 8.75951ZM13.6284 14.013L13.3316 13.3536L12.7381 13.9031L13.6284 14.013ZM15.3539 7.06695L15.6836 7.2428L15.3539 7.39665L15.5737 7.8143L15.7605 7.33071L16.3101 7.77036L16.2991 6.38554L15.3539 7.06695ZM16.0463 9.59477L16.7277 8.9793L16.0133 8.70453L16.0463 9.59477ZM22.0581 15.255L21.6185 14.8703L21.4537 15.4198L22.0581 15.255ZM18.651 11.4852L18.1895 11.1335L18.0795 11.683L18.651 11.4852ZM17.0354 11.705L16.5628 11.3753L16.4529 11.9248L17.0354 11.705ZM13.1887 21.7943L13.3866 21.3547L12.9139 21.4646L13.1887 21.7943ZM15.8485 18.8708L16.2331 17.6619L15.0242 18.1015L15.8485 18.8708ZM16.365 13.0788L17.6289 12.9689L16.7827 12.0237L16.365 13.0788ZM21.3877 12.3864L22.6626 12.3974L21.8933 11.3753L21.3877 12.3864ZM18.4862 17.3651L19.7611 17.2552L18.9038 16.31L18.4862 17.3651ZM14.7054 7.47359L14.1779 8.24295L13.9581 7.50656L13.4415 8.12203L14.079 8.31989L13.8152 8.71554L15.5957 8.96833L14.7054 7.47359ZM23.7837 21.2998L24.2673 20.97L23.6958 20.8931L23.7837 21.2998ZM29.246 21.08L29.6856 20.7173L29.1141 20.6843L29.246 21.08ZM17.486 18.2993L17.8487 18.5851L17.8597 18.0136L17.486 18.2993Z" fill="#CDE8DD"/>
<path d="M15.5407 15.9693L15.8924 16.2771L15.9364 15.7056L15.5407 15.9693ZM16.7497 21.1569L17.1893 20.97L16.7827 20.7722L16.7497 21.1569ZM15.8704 21.6185L16.3431 21.4646L15.9474 21.2228L15.8704 21.6185ZM11.2544 18.8489L11.716 18.684L11.3314 18.4642L11.2544 18.8489ZM11.9688 12.1446L12.1117 13.3536L13.2107 12.6392L13.4635 12.7051L13.3536 11.9797L12.7162 12.3424L11.9688 12.1446ZM9.9905 16.7167L10.4521 17.3322L10.6499 16.4969L9.9905 16.7167ZM12.5183 15.2879L13.0679 15.8814L13.1778 15.0022L12.5183 15.2879ZM14.1669 15.7056L13.9141 15.9254L14.3867 16.1122L14.3208 15.8594L14.9802 15.4198L14.013 15.2L14.1669 15.7056ZM13.7273 13.4635L13.4745 13.6833L13.9471 13.8701L13.8812 13.6283L14.5406 13.1667L13.5734 12.9469L13.7273 13.4635ZM11.3314 14.9802L11.4412 14.7604H10.7159L10.9687 15.4418L10.6389 16.1452L11.8479 16.1891L11.3314 14.9802Z" fill="#CDE8DD"/>
<path d="M12.2325 18.0026L12.0127 17.3432L11.3862 17.7828L12.2325 18.0026ZM11.0675 16.1562L11.1334 17.3651L12.2765 16.7277L12.5183 16.8156L12.4523 16.0792L11.7929 16.409L11.0675 16.1562ZM14.0789 11.4852L13.0898 12.2325L14.2658 12.815L14.3317 13.0678L14.8812 12.5952L14.2548 12.2325L14.0789 11.4852ZM16.5408 8.67157L16.6837 9.88054L17.7828 9.17716L18.0355 9.25407L17.9256 8.52868L17.2992 8.88039L16.5408 8.67157ZM10.0234 12.9909L9.69366 13.4744L9.36396 13.6393L9.60575 13.7162V13.8811L9.84755 13.8042L9.93546 13.8811L9.84755 13.8042H10.3421L10.0234 12.9909ZM13.2107 8.81445L11.672 9.14419L12.7271 10.551L13.2107 8.81445ZM15.2329 17.3212L15.8704 17.2442L15.3208 16.8046L15.2329 17.3212ZM21.014 20.2886H21.6734L21.1898 19.805L21.014 20.2886Z" fill="#CDE8DD"/>
<path d="M7.88022 11.2654L9.96843 9.45192L10.0344 11.7599L7.88022 11.2654ZM11.4302 8.27592L13.2436 6.9021L13.7932 10.0454L11.4302 8.27592Z" fill="#CDE8DD"/>
<path d="M15.3538 5.77006L17.8377 4.42921L17.7058 7.11091L15.3538 5.77006ZM10.0783 9.44091L11.4302 8.27591L11.4522 9.73765L10.0783 9.44091Z" fill="#CDE8DD"/>
<path d="M13.8152 6.73724L15.4638 5.69312L15.178 7.80333L13.8152 6.73724ZM23.2121 12.6722L24.0144 13.9141L24.4101 12.3754L23.2121 12.6722ZM64.295 7.26477L64.3279 6.52842L63.6136 6.91309L64.295 7.26477ZM65.1083 5.19853L65.3061 5.93492L65.8226 5.4953L65.1083 5.19853ZM65.8446 8.88039L66.5041 9.84756L66.6579 8.71553L65.8446 8.88039ZM46.1715 20.992L46.3913 21.5416L46.5891 20.992H46.1715ZM56.9203 16.0682L56.9423 16.5848L57.294 16.2551L56.9203 16.0682ZM65.5479 6.02283L64.7016 6.77021L65.8666 7.2428L65.5479 6.02283ZM61.3495 9.10021L60.8879 8.7375L60.778 9.28703L61.3495 9.10021ZM63.6245 11.3533L63.097 11.9687L63.9103 12.0237L63.6245 11.3533ZM62.0859 11.8149L62.4156 11.2104L61.6023 11.0236L62.0859 11.8149ZM58.6019 9.86953L58.404 11.1335L59.503 10.7158L58.6019 9.86953ZM48.8642 19.5413L49.4357 19.5852L49.084 19.1236L48.8642 19.5413ZM51.1062 7.12188L51.8316 7.48459L51.6118 6.78118L51.1062 7.12188ZM57.4149 11.5401L57.1511 11.9138L57.7446 12.0677L57.4149 11.5401ZM56.8873 10.2212L56.063 10.1113L56.5246 10.8037L56.8873 10.2212ZM55.6783 9.28703L54.843 9.23209L55.3486 9.89154L55.6783 9.28703ZM52.4361 10.1223L53.4253 11.2214L53.5792 9.66074L52.4361 10.1223ZM55.5135 11.661L56.2389 11.5291L55.6344 11.1664L55.5135 11.661ZM55.6454 14.1889L56.1399 14.3207L55.9421 13.8482L55.6454 14.1889ZM52.1284 11.8808L52.5021 12.3204L52.524 11.7489L52.1284 11.8808ZM53.2275 15.0241L53.5022 15.4638L53.6451 15.0241H53.2275ZM60.0416 11.3972L60.3713 11.7929L60.4593 11.3203L60.0416 11.3972ZM50.8315 10.3312L50.5458 10.1333L50.4798 10.6499L50.6996 10.518L51.3041 11.0675V10.0784L50.8315 10.3312ZM52.7878 8.26492L52.4361 8.9903L53.2275 8.83645L52.7878 8.26492ZM64.0422 9.67171L63.4926 10.2762L64.306 10.3422L64.0422 9.67171ZM64.262 4.92377L63.3828 5.29748L63.9323 5.81404L64.262 4.92377ZM68.8781 7.40765L67.779 6.50641L67.4822 7.60547L68.8781 7.40765ZM66.2403 6.28662L66.3502 5.71509L65.7677 5.93492L66.2403 6.28662ZM64.284 8.10006L64.1191 8.58365L64.6027 8.4188L64.284 8.10006ZM42.7205 3.26421L42.6875 4.0665L43.4019 3.51697L42.7205 3.26421ZM50.227 4.05553L50.9964 5.42936L51.5239 3.94562L50.227 4.05553ZM47.0727 8.9793L46.2814 9.24309L46.9958 9.68271L47.0727 8.9793ZM43.5997 13.9251L42.9842 14.1669L43.5008 14.4966L43.5997 13.9251ZM41.6434 10.0014L41.0499 10.2982L41.5994 10.5729L41.6434 10.0014ZM43.182 7.69342L42.5885 8.02312L43.1381 8.27592L43.182 7.69342ZM43.6437 4.26436L43.171 4.24235L43.4568 4.9018L43.6327 4.59406L44.7317 4.79188L43.9953 3.67086L43.6437 4.26436ZM53.1725 2.42891L53.788 4.18742L54.953 2.59377L53.1725 2.42891ZM45.2593 2.75862L45.6439 4.48415L46.743 3.12133L45.2593 2.75862ZM51.2382 2.27506L50.0292 3.44006L51.8646 4.03353L51.2382 2.27506Z" fill="#CDE8DD"/>
<path d="M42.4677 2.42892L42.6875 2.31901L42.138 1.83542L41.8742 2.49486L41.1708 2.8246L42.0501 3.67086L42.4677 2.42892ZM51.9196 1.32986L50.8206 1.87939L52.0295 2.47289L51.9196 1.32986ZM51.6119 3.46204L52.4911 3.04439L51.8757 2.51686L51.6119 3.46204ZM48.2048 2.50586L47.5124 2.41792L47.6663 3.22024L48.2048 2.50586ZM42.9513 10.3861L43.7756 10.2982L43.1601 9.83657L42.9513 10.3861ZM41.9401 6.72625L42.7535 6.53939L42.072 6.15475L41.9401 6.72625ZM47.1057 16.2881L47.6003 15.9803L47.0508 15.8155L47.1057 16.2881ZM50.9524 18.8489L51.425 18.5192L50.8755 18.3763L50.9524 18.8489Z" fill="#CDE8DD"/>
<path d="M46.5672 7.03398L47.0068 6.6603L46.4353 6.58336L46.5672 7.03398ZM42.6545 7.41865L43.1271 7.08892L42.5776 6.95703L42.6545 7.41865ZM43.0942 2.39594L42.3578 0.857268L42.116 1.07706L41.6764 1.05509L41.8962 1.4068L41.4016 2.06624L43.0942 2.39594ZM48.7543 3.60492L49.051 2.67071L48.1388 2.83556L48.7543 3.60492ZM50.6996 7.91321L51.6119 7.8363L51.2162 7.28677L50.6996 7.91321ZM48.3916 5.12162L49.3148 5.07765L48.9411 4.52812L48.3916 5.12162ZM48.8862 7.97915L49.073 7.16586L48.2817 7.44062L48.8862 7.97915ZM46.721 5.89095L46.9079 5.07765L46.1166 5.35242L46.721 5.89095ZM44.1932 3.07736L43.281 3.04439L43.6986 3.85768L44.1932 3.07736ZM46.0946 3.75877L45.9847 4.92377L46.9409 4.20939L46.0946 3.75877ZM47.8751 5.2315L47.7981 6.03383L48.4576 5.55024L47.8751 5.2315ZM49.1719 5.67115L49.095 6.48445L49.7544 5.98986L49.1719 5.67115ZM51.1502 5.97889L51.1063 6.79218L51.7437 6.27562L51.1502 5.97889ZM41.5005 5.20953L40.3685 5.70412L41.4895 6.25365L41.5005 5.20953ZM45.4352 8.75951L46.3474 8.82545L45.7429 8.05609L45.4352 8.75951ZM46.4682 11.0016L47.3915 11.0675L46.776 10.2982L46.4682 11.0016ZM43.2041 6.45148L44.1163 6.60533L43.5667 5.78103L43.2041 6.45148ZM44.7427 5.68212L46.2155 5.79203L45.2263 4.56109L44.7427 5.68212ZM48.8092 3.70383L49.7215 3.65986L49.2379 3.00041L48.8092 3.70383ZM52.5241 2.74765L53.733 1.50571L52.3043 1.28588L52.5241 2.74765Z" fill="#CDE8DD"/>
<path d="M52.2822 4.29733L52.7548 5.28647L53.4581 4.57209L52.2822 4.29733ZM49.0619 4.45118L49.6115 3.85768L48.7982 3.65985L49.0619 4.45118ZM47.8859 1.59362L48.0178 1.92335L47.6661 1.81344L47.5782 2.27506L48.0178 2.03327L48.1607 2.71468L49.04 1.63759L47.8859 1.59362ZM46.8308 3.98959L47.743 3.94562L47.3694 3.28618L46.8308 3.98959ZM48.6113 11.9468L48.4684 11.3753L48.0288 11.7379L48.6113 11.9468ZM47.5123 6.71524L47.3694 6.16571L46.9298 6.52842L47.5123 6.71524ZM46.5231 6.71524L46.3802 6.14374L45.9406 6.51741L46.5231 6.71524ZM43.9952 6.93506L44.9624 7.74836L45.0394 6.48444L43.9952 6.93506ZM47.765 9.42991L48.8091 10.1553L48.7652 8.88038L47.765 9.42991ZM54.4913 5.94592L54.0297 5.2535L53.8098 6.05579L54.4913 5.94592ZM55.4475 8.49571L55.5794 9.39694L56.0959 8.95733L55.4475 8.49571ZM55.5903 7.77036L56.4256 7.79233L56.008 7.07795L55.5903 7.77036ZM57.6565 8.69356L56.8433 8.70453L57.3928 9.30903L57.6565 8.69356ZM54.4144 3.82471L54.5572 5.22053L55.5464 4.09947L54.4144 3.82471ZM51.6887 6.05579L51.7986 6.96803L52.458 6.22068L51.6887 6.05579ZM51.1941 8.14403L51.7217 7.90224L51.282 7.53953L51.1941 8.14403Z" fill="#CDE8DD"/>
<path d="M53.6781 6.71524L53.1066 7.84727L54.3595 7.62748L53.6781 6.71524ZM40.0497 13.3536L40.9949 14.1998L41.1049 12.9359L40.0497 13.3536ZM47.2266 1.72554L46.3254 2.0003L46.6331 1.29689L45.8308 1.46174L46.2045 2.01127L45.7649 2.15415L46.9738 3.47304L47.2266 1.72554ZM42.2808 19.2885L42.8633 19.3544L42.4787 18.9148L42.2808 19.2885ZM43.3249 21.5965L43.9074 21.6625L43.5338 21.2228L43.3249 21.5965ZM41.4895 8.53969L41.4565 8.9793L41.9401 8.68257L41.4895 8.53969ZM41.5115 3.1543L40.7422 4.12148L42.0281 4.39624L42.138 4.61604L42.5776 4.02257L41.8852 3.82471L41.5115 3.1543ZM41.8412 5.33045L41.5115 5.30845L41.7313 5.78104L41.8412 5.56124L42.6435 5.71509L42.094 4.8908L41.8412 5.33045ZM43.5667 4.58307L42.3578 4.41821L42.7644 5.66016L42.6325 5.87998L43.3689 5.95689L43.1821 5.25351L43.5667 4.58307ZM47.7981 3.57195L47.1387 4.59407L48.4356 4.75892L48.5785 4.97874L48.9521 4.34127L48.2377 4.20939L47.7981 3.57195ZM44.8636 2.07721L43.5448 1.23095L43.292 2.96745L44.8636 2.07721ZM42.9403 15.4857L43.4349 15.9034L43.3799 15.211L42.9403 15.4857Z" fill="#CDE8DD"/>
<path d="M44.3141 0.186829L46.5781 0.296741L45.0065 3.04439L44.3141 0.186829ZM49.2049 0.582508L51.9855 1.0551L50.227 3.08836L49.2049 0.582508ZM53.9309 1.42877L55.9311 1.94533L54.1946 3.67086L53.9309 1.42877ZM42.2149 0.054947L43.9953 0.186829L42.9842 1.23095L42.2149 0.054947ZM46.9188 0.362682L48.8532 0.582508L47.2925 2.03327L46.9188 0.362682ZM60.2395 6.49545L60.701 8.00116L61.5473 6.68227L60.2395 6.49545ZM63.4597 5.66016L63.7125 7.50657L65.1742 6.18772L63.4597 5.66016ZM55.7113 4.08851L55.5685 5.84701L56.9972 4.85783L55.7113 4.08851Z" fill="#CDE8DD"/>
<path d="M61.6242 5.04469L60.1954 5.92392L61.844 6.9131L61.6242 5.04469ZM62.4815 4.29734L61.2725 4.59407L62.3166 5.42937L62.4815 4.29734Z" fill="#CDE8DD"/>
<path d="M61.7561 6.18772L62.7123 5.96789L62.2177 5.30845L61.7561 6.18772ZM58.9205 4.8908L58.2391 4.74795L58.316 5.55025L58.9205 4.8908ZM59.3931 6.03383L59.7777 5.12163L58.8546 5.19854L59.3931 6.03383ZM59.7558 10.2762L60.668 10.4081L60.4042 9.79263L59.7558 10.2762ZM58.8326 7.44063L59.7448 7.50657L59.448 6.9131L58.8326 7.44063ZM58.6347 10.3312L58.9644 9.56181L58.1401 9.67172L58.6347 10.3312ZM56.2388 5.29748L55.7991 6.39654L56.9202 5.98986L56.2388 5.29748ZM58.327 7.52857L58.1511 8.33086L58.8766 7.91322L58.327 7.52857ZM59.4261 7.94619L59.2063 8.71554L59.9536 8.35287L59.4261 7.94619ZM60.635 8.49572L60.4152 9.26507L61.1516 8.9024L60.635 8.49572ZM59.3931 6.0558L60.3163 6.12178L59.8987 5.39639L59.3931 6.0558ZM62.9101 5.77007L64.4048 4.92377L63.0859 4.29734L62.9101 5.77007Z" fill="#CDE8DD"/>
<path d="M61.8441 6.91309L62.02 8.01215L62.8992 7.52856L61.8441 6.91309ZM59.5361 6.86912L60.1516 6.34156L59.3822 6.05579L59.5361 6.86912ZM58.6898 3.94562L58.7998 4.29732L58.47 4.16544L58.3381 4.62703L58.7998 4.4072L58.8876 5.09962L59.8439 4.11047L58.6898 3.94562ZM57.4259 6.25365L58.3381 6.29759L58.0084 5.59421L57.4259 6.25365Z" fill="#CDE8DD"/>
<path d="M57.8874 3.75877L56.9533 3.89069L57.3709 3.23124H56.5575L56.8433 3.83571L56.3707 3.90165L57.3599 5.39639L57.8874 3.75877ZM58.415 5.87998L57.6457 6.82516L58.9095 7.13289L59.0195 7.35272L59.4591 6.77022L58.7557 6.55039L58.415 5.87998Z" fill="#CDE8DD"/>
<path d="M55.5355 1.81345L57.7117 2.47289L55.4916 4.75892L55.5355 1.81345ZM59.8219 3.04439L62.4816 3.9896L60.4153 5.69313L59.8219 3.04439ZM66.4602 6.01186L67.5263 6.45148L66.4272 7.26478L66.4602 6.01186ZM64.5258 16.5628L64.0313 16.1232L63.9763 16.7387L64.5258 16.5628ZM69.5375 14.035L69.9442 14.7384L70.164 14.035H69.5375ZM60.5253 19.0467L60.8769 19.7831L61.1408 19.1017L60.5253 19.0467ZM73.6371 12.7821L72.8128 12.2325L72.9226 13.2217L73.6371 12.7821ZM70.8564 12.0677L70.2629 12.9469L71.318 12.837L70.8564 12.0677ZM71.8785 11.8808L72.0983 11.1774L71.3071 11.3643L71.8785 11.8808ZM73.1645 10.0674V10.8367L73.7799 10.507L73.1645 10.0674ZM73.1645 14.2768L73.3183 14.8263L73.5711 14.3097L73.1645 14.2768ZM73.3842 10.9796L72.3951 11.4962L73.4062 12.2435L73.3842 10.9796ZM68.5484 13.2217L68.1857 12.7601L67.9329 13.2766L68.5484 13.2217ZM70.2299 15.9364L69.5705 16.409L70.3399 16.6508L70.2299 15.9364ZM61.1298 15.4747L60.4373 15.8924L61.2067 16.2001L61.1298 15.4747ZM68.6253 16.0243L69.0979 15.5187L68.3506 15.134L68.6253 16.0243ZM64.7017 13.0788L64.1302 14.2108L65.2952 14.1559L64.7017 13.0788ZM64.0862 14.6944L63.7565 15.0241L64.306 15.2769L64.0862 14.6944ZM64.0752 13.1558L63.2839 12.914L63.6136 13.6833L64.0752 13.1558ZM63.0201 12.0017L62.2068 11.8149L62.5915 12.5622L63.0201 12.0017ZM60.4923 12.5183L61.3496 13.7272L61.6793 12.1886L60.4923 12.5183ZM62.4486 14.3318H63.185L62.6575 13.8921L62.4486 14.3318ZM65.5699 14.9912L65.7567 15.4747L65.9766 15.0571L65.5699 14.9912ZM71.6148 14.4416L70.9553 14.9143L71.7247 15.156L71.6148 14.4416Z" fill="#CDE8DD"/>
<path d="M72.505 17.3102L71.8456 17.7828L72.6149 18.0246L72.505 17.3102ZM72.0654 9.50685L71.1202 9.66074L71.5378 10.2872L72.0654 9.50685ZM76 13.0239L75.5823 12.3644L75.2526 12.881L76 13.0239ZM73.9997 11.4302L74.2415 10.9136L73.626 10.9686L73.9997 11.4302ZM71.7576 12.5293L71.4499 12.9469L71.9665 12.9359L71.7576 12.5293ZM62.9102 11.2104L62.8992 12.1336L63.4707 11.8039L62.9102 11.2104ZM63.196 10.529L64.0093 10.6938L63.7235 9.9245L63.196 10.529ZM64.8116 11.9578L64.0093 11.8259L64.4489 12.5183L64.8116 11.9578Z" fill="#CDE8DD"/>
<path d="M68.0757 10.4411L68.1636 12.0127L69.2957 10.9137L68.0757 10.4411ZM71.4828 10.1113L71.263 11.9797L73.0215 11.0565L71.4828 10.1113Z" fill="#CDE8DD"/>
<path d="M69.7573 9.35298L68.1746 9.85857L69.5484 11.2104L69.7573 9.35298ZM70.7684 8.82545L69.5374 8.83646L70.3508 9.90251L70.7684 8.82545Z" fill="#CDE8DD"/>
<path d="M69.6144 10.496H70.6036L70.2739 9.75966L69.6144 10.496ZM67.4163 9.28704L68.2406 8.16601L66.9437 7.96819L67.4163 9.28704ZM66.7129 14.013L67.5702 14.3427L67.4603 13.6833L66.7129 14.013ZM66.4931 11.0236L67.3723 11.3093L67.2184 10.6499L66.4931 11.0236ZM64.6027 13.5514L65.1522 12.9359L64.3279 12.7821L64.6027 13.5514ZM65.9875 11.0016L65.6358 11.727L66.4382 11.5072L65.9875 11.0016ZM66.9437 11.661L66.548 12.3644L67.3613 12.1886L66.9437 11.661ZM68.0098 12.4743L67.6032 13.1777L68.4164 13.0019L68.0098 12.4743ZM67.3723 9.8146L68.2516 10.0894L68.0317 9.29804L67.3723 9.8146ZM70.7575 9.96849L72.373 9.37499L71.186 8.53969L70.7575 9.96849ZM69.5484 11.2214L69.4606 12.3205L70.4277 12.0567L69.5484 11.2214ZM67.3284 10.6499L68.0427 10.2762L67.3503 9.8146L67.3284 10.6499ZM64.4379 9.02328L65.3171 9.27607L65.1742 8.50672L64.4379 9.02328ZM65.9216 9.17716L64.9544 9.91351L66.1084 10.507L66.1743 10.7598L66.7459 10.2982L66.1194 9.92451L65.9216 9.17716ZM68.8121 7.06695L70.6146 8.19898L68.8011 9.11122L68.8121 7.06695ZM74.4942 11.2104L75.3734 11.9468L74.0876 12.3864L74.4942 11.2104ZM57.8325 2.60478L59.7009 3.12133L57.9424 4.33031L57.8325 2.60478Z" fill="#CDE8DD"/>
</svg>
