<svg width="262" height="89" viewBox="0 0 262 89" fill="none" xmlns="http://www.w3.org/2000/svg">
<path d="M6.64091 2.88214L8.04362 3.43008L7.95595 2.22462L6.64091 2.88214ZM9.27101 5.53413L9.30388 5.31497L8.8217 5.57797L8.7121 4.78894L8.0765 5.35878L8.8217 5.57797L8.56963 5.76428L9.17237 6.18068L9.28196 5.52319L10.0052 5.85194L9.78605 5.05194L9.27101 5.53413ZM14.0709 2.33421L14.2353 3.86842L15.4407 2.63008L14.0709 2.33421ZM16.5914 2.90405L16.6791 3.67117L17.2708 3.04652L16.5914 2.90405ZM22.5967 3.28761L23.2214 4.65744L23.857 3.28761H22.5967ZM20.405 7.99983L19.6708 8.29573L20.3721 8.66832L20.405 7.99983ZM19.0461 11.2107L18.5201 11.5724L19.068 11.7587L19.0461 11.2107ZM15.6818 15.2216L15.1558 15.5832L15.7037 15.7695L15.6818 15.2216Z" fill="#CDE8DD"/>
<path d="M13.6655 18.3339L13.1614 18.7284L13.7312 18.8818L13.6655 18.3339ZM16.6243 9.30391L16.1093 9.69844L16.6791 9.85184L16.6243 9.30391ZM17.6873 7.00258L17.1832 7.38614L17.7531 7.53958L17.6873 7.00258ZM13.8299 3.43007L13.8518 3.61635L13.9066 4.16428L14.0929 4.14238L14.1696 4.87663L15.0025 4.04376L14.4216 3.73691L13.8299 3.43007ZM17.6325 3.69307L17.1942 3.74788L17.5558 4.29582L17.6654 3.96704L18.7174 4.01088L17.8627 3.04651L17.6325 3.69307ZM25.8515 2.15886L26.1255 3.91226L27.5063 2.5972L25.8515 2.15886ZM8.75601 3.00267L9.19435 2.53145L8.42725 2.47667L8.71217 3.22185L8.18615 4.09854L9.64366 4.07663L8.75601 3.00267ZM18.3229 2.14789L18.7832 3.76979L19.7476 2.41092L18.3229 2.14789ZM23.6927 1.7534L22.4653 2.73967L24.1529 3.46295L23.6927 1.7534ZM16.2189 2.15886L16.438 2.02736L15.8463 1.6438L15.7038 2.32323L15.0792 2.71776L16.0326 3.37526L16.2189 2.15886ZM11.0683 7.30945L10.8491 6.0163L9.62174 6.67383L11.0683 7.30945ZM13.2381 9.57787L13.1285 8.92035L12.4052 9.24913L13.2381 9.57787ZM24.1968 0.756152L23.1557 1.30409L24.3173 1.85202L24.1968 0.756152ZM14.334 5.66565L14.4764 4.98619L13.8189 5.0629L14.334 5.66565ZM24.7447 2.89307L25.6543 2.67392L25.1721 2.07117L24.7447 2.89307ZM21.2051 1.97255L20.5475 1.92874L20.7448 2.69583L21.2051 1.97255Z" fill="#CDE8DD"/>
<path d="M17.9065 9.23815L18.6407 8.94228L17.9503 8.69022L17.9065 9.23815ZM16.3723 6.27933L17.1065 5.97249L16.4161 5.72043L16.3723 6.27933ZM13.3038 0.876676L11.923 0.821896L12.5806 1.99448L13.3038 0.876676ZM9.84089 4.19715L10.3121 5.00812L10.7505 4.27387L9.84089 4.19715ZM9.90664 8.07654L10.5203 9.12856L11.0683 8.16422L9.90664 8.07654ZM12.7559 2.66295L12.0217 1.56708L11.7806 2.16983L10.8162 1.65477L10.882 2.75063L11.6929 2.27939L11.5833 2.95885L12.7559 2.66295ZM11.934 5.77521L10.4765 5.52318L11.0244 6.89301L11.934 5.77521ZM13.5011 10.7724L13.9394 10.6957L13.6545 10.3011L13.5011 10.7724ZM14.2682 8.36147L14.7065 8.28475L14.4107 7.89026L14.2682 8.36147ZM20.4379 14.1477L20.8763 13.8189L20.3284 13.7093L20.4379 14.1477ZM23.5502 16.0983L23.9666 15.7476L23.4187 15.6709L23.5502 16.0983ZM11.4957 18.2243L11.8573 17.7859L11.3093 17.8078L11.4957 18.2243ZM19.8242 6.16974L20.2297 5.79715L19.6818 5.74233L19.8242 6.16974ZM17.1613 6.82726L17.5558 6.45464L17.0079 6.39986L17.1613 6.82726ZM16.8654 2.00542L15.9449 0.668458L15.7476 0.909551L15.3093 0.964364L15.5613 1.26024L15.1887 1.96161L16.8654 2.00542ZM21.8516 2.96979L22.0708 2.06023L21.216 2.27939L21.8516 2.96979ZM22.7502 6.98067H23.6269L23.2981 6.43273L22.7502 6.98067ZM21.5776 4.41634L22.4543 4.30675L22.0708 3.80266L21.5776 4.41634ZM12.4271 5.84096L12.208 4.96427L11.6272 5.68755L12.4271 5.84096ZM21.742 7.02451L21.9612 6.25739L21.1941 6.47658L21.742 7.02451ZM19.9558 5.05193L20.0873 4.28484L19.353 4.58071L19.9558 5.05193ZM18.027 2.4876L17.1503 2.5972L17.6654 3.3095L18.027 2.4876ZM19.2544 3.05748L19.2106 4.15334L20.0873 3.43007L19.2544 3.05748ZM21.1393 4.56978L21.1064 5.33687L21.7201 4.83278L21.1393 4.56978ZM22.1475 4.81084L22.0379 5.57796L22.6954 5.13962L22.1475 4.81084ZM23.3749 5.18346L23.2653 5.95055L23.9228 5.51221L23.3749 5.18346ZM4.19718 10.7395L4.92045 10.4655L4.28485 10.1587L4.19718 10.7395ZM11.3203 9.05187L11.4299 9.46828L11.9011 9.11762L11.3203 9.05187ZM10.0272 8.6135L9.45735 9.16143L10.2464 9.24912L10.0272 8.6135ZM14.5203 6.75054L13.9175 7.25463L14.7065 7.3971L14.5203 6.75054ZM8.5149 9.16143L7.96697 9.73131L8.76694 9.77515L8.5149 9.16143ZM12.0545 6.48755L11.2874 7.23273L12.3833 7.34232L12.0545 6.48755ZM15.649 5.21634L14.7394 5.98342L15.912 6.20261L15.649 5.21634ZM17.1284 11.2655L16.186 11.9778L17.3585 12.2409L17.1284 11.2655ZM11.0135 13.1285L10.1587 13.9394L11.3641 14.0709L11.0135 13.1285ZM14.1257 13.512L13.271 14.323L14.4545 14.4545L14.1257 13.512ZM11.408 10.2902L11.9998 11.2436L12.3285 10.1696L11.408 10.2902ZM8.40531 7.61629L7.5067 8.56969L8.82174 8.63544L8.40531 7.61629ZM5.58893 8.22997L6.55329 9.1505L6.61904 7.80257L5.58893 8.22997ZM4.9862 3.8465L7.10122 4.92043L6.59713 2.83829L4.9862 3.8465ZM18.8708 7.82447L19.7475 7.83544L19.1119 7.13411L18.8708 7.82447ZM19.3092 9.79706L20.1859 9.90665L19.638 9.13953L19.3092 9.79706ZM17.5558 5.80808L18.4325 5.81905L17.8079 5.11771L17.5558 5.80808ZM18.0161 4.95331H19.4407L18.4325 3.83553L18.0161 4.95331ZM7.23274 11.0902L8.63545 11.0244L7.57245 9.9724L7.23274 11.0902ZM12.5806 3.59444L12.9093 4.54784L13.6983 3.69306L12.5806 3.59444ZM13.3477 4.40537L12.7449 4.9095L13.5669 5.36974L13.3477 4.40537ZM13.9833 1.52323L13.1942 2.37804L14.4545 2.79444L13.9833 1.52323Z" fill="#CDE8DD"/>
<path d="M2.49853 8.40533L1.86293 8.09845L1.92867 8.86557L2.49853 8.40533ZM21.8516 2.99174L22.7283 2.88214L22.2242 2.2794L21.8516 2.99174ZM25.4898 2.19174L26.9145 1.35887L25.6542 0.778064L25.4898 2.19174ZM24.8761 3.58348L25.0734 4.62457L25.8953 4.13142L24.8761 3.58348ZM22.1365 3.75883L22.6187 3.15611L21.8296 3.01364L22.1365 3.75883ZM15.6709 5.35878L15.8133 4.67935L15.0462 4.75607L15.6709 5.35878ZM20.8543 1.10684L20.9968 1.43559L20.668 1.35887L20.6132 1.79721L21.0187 1.53422L21.205 2.16984L21.9721 1.09587L20.8543 1.10684ZM19.9776 3.45198L20.8543 3.36433L20.4598 2.73968L19.9776 3.45198ZM10.1477 10.4436L10.4764 9.82994L9.85181 10.0491L10.1477 10.4436ZM21.216 10.7943L21.1064 10.2464L20.668 10.5751L21.216 10.7943ZM20.7995 6.01631L20.6242 5.49032L20.2297 5.86291L20.7995 6.01631ZM19.7256 5.86291L19.5612 5.31497L19.1667 5.68756L19.7256 5.86291Z" fill="#CDE8DD"/>
<path d="M12.0984 11.8902L12.4929 11.6052L12.0217 11.4628L12.0984 11.8902ZM14.6627 10.334L15.649 9.61074L14.4874 9.26009L14.6627 10.334ZM18.3449 6.16974L19.375 6.79439L19.2654 5.58893L18.3449 6.16974ZM21.6105 9.019L22.5749 9.75321L22.5968 8.54775L21.6105 9.019ZM17.5558 10.6847L18.5969 11.3094L18.4873 10.1039L17.5558 10.6847ZM20.164 1.06299L19.3202 1.39174L19.5722 0.701334L18.827 0.887646L19.2106 1.40271L18.7722 1.55614L20.0106 2.76157L20.164 1.06299ZM2.52053 5.58893L2.90407 6.73958L3.89036 5.84096L2.52053 5.58893ZM5.52319 5.26015L5.74238 5.1944L5.30402 4.86565L5.85196 4.44922L5.06293 4.14237L5.30402 4.86565L4.8876 4.64646L4.92048 5.44646L5.43554 5.27112L5.57799 6.03824L6.16977 5.38071L5.52319 5.26015ZM5.21635 6.38889L6.03825 6.80533V6.11492L5.21635 6.38889ZM6.83825 5.43549L6.104 5.68755L6.83825 6.12589V5.43549ZM1.00822 6.91492L1.7315 7.02451L1.51233 6.39986L1.00822 6.91492ZM4.23008 5.76427L3.6383 6.42177L4.47117 6.48755L4.23008 5.76427ZM8.97519 12.449L9.52312 12.4052L9.08476 12.0764L8.97519 12.449ZM17.4901 18.038L18.038 18.0599L17.6435 17.6763L17.4901 18.038ZM19.7585 20.0982H20.3065L19.89 19.7366L19.7585 20.0982ZM16.2517 10.8272L16.3613 11.2655L16.6901 10.8272H16.2517ZM16.0545 7.93407L16.1422 8.37241L16.5038 7.96694L16.0545 7.93407ZM14.5531 13.0847L15.0353 13.1943L14.8162 12.7997L14.5531 13.0847ZM12.4381 15.8682L12.9313 15.9339L12.6792 15.5504L12.4381 15.8682ZM11.8902 8.37241L12.3724 8.4601L12.1532 8.06557L11.8902 8.37241ZM11.9121 3.33144L12.5368 3.81363L12.6135 3.01363L11.8025 3.2876L10.9258 2.82732L10.893 4.1095L11.9121 3.33144ZM15.4627 2.98076L14.8819 3.99991L16.1312 4.07663L16.2846 4.2629L16.6134 3.63829L15.923 3.56157L15.4627 2.98076ZM11.8683 5.90671L11.9559 6.67383L12.5477 6.06014L11.8683 5.90671ZM14.1148 5.68755L14.1915 6.45464L14.7942 5.84096L14.1148 5.68755ZM15.134 6.93682L14.8052 6.9697L15.0682 7.38613L15.1559 7.16698L15.923 7.18889L15.2983 6.48755L15.134 6.93682ZM6.36702 13.1285L6.03825 13.1943L6.36702 13.5778L6.42181 13.3367L7.18892 13.2709L6.47661 12.6463L6.36702 13.1285ZM16.0874 4.96428L15.7586 4.99715L16.0216 5.40262L16.1093 5.18346L16.8764 5.21634L16.2408 4.51497L16.0874 4.96428ZM13.7641 4.9314L13.9833 4.7999L13.3915 4.41634L13.2381 5.09577L12.6244 5.50124L13.5778 6.15877L13.7641 4.9314ZM13.1943 8.14229L13.3367 7.46285L12.5696 7.55051L13.1943 8.14229ZM12.9751 5.7533L12.4052 6.77245L13.6545 6.84917L13.808 7.03548L14.1367 6.41083L13.4463 6.33411L12.9751 5.7533ZM17.6106 4.02185L16.449 4.04375L17.0189 5.13962L16.9312 5.35877L17.6216 5.31496L17.3476 4.67934L17.6106 4.02185ZM20.9311 3.01363L20.3613 4.03278L21.6105 4.1095L21.764 4.29581L22.0927 3.67116L21.4023 3.59444L20.9311 3.01363Z" fill="#CDE8DD"/>
<path d="M11.0025 4.33962L12.2737 4.52593L11.5724 3.32047L11.0025 4.33962Z" fill="#CDE8DD"/>
<path d="M10.0163 5.13962L11.8354 5.51221L11.2875 4.13141L10.0163 5.13962ZM13.7422 2.66295L13.2272 2.88213L12.8984 2.83829L13.0518 3.0246L12.9642 3.1561L13.1833 3.22185L13.5779 3.47391L13.7422 2.66295ZM3.11231 5.40262V5.51221L3.76984 5.7533L4.31777 5.99439L4.3616 4.241L2.91506 5.29302L3.11231 5.40262Z" fill="#CDE8DD"/>
<path d="M4.75606 5.07388V4.3725L4.09854 4.83278L4.75606 5.07388ZM7.85736 5.24922L7.09026 5.03003L7.33135 5.75331L7.85736 5.24922ZM1.87393 6.84918L2.20268 7.86833L3.05746 7.01355L1.87393 6.84918ZM3.51774 11.2107L3.03555 11.4847L3.47389 11.7916L3.51774 11.2107ZM18.4654 1.45749L17.1065 0.854778L17.1174 2.53145L18.4654 1.45749ZM6.24644 10.071L6.59712 10.7614L6.94779 10.071H6.24644ZM4.8766 8.83269L5.22729 9.5231L5.57796 8.83269H4.8766ZM7.28751 6.35602L6.77245 5.83003L6.7067 6.66286L7.28751 6.35602Z" fill="#CDE8DD"/>
<path d="M4.86568 6.60808V7.98889L5.87388 7.55051L4.86568 6.60808ZM0.427412 7.3752V8.28476L1.08494 7.98889L0.427412 7.3752ZM4.24103 6.87108L3.05749 7.38614L3.82461 8.07654L4.24103 6.87108ZM7.76972 7.15602L6.52043 6.19165L6.58618 7.78067L7.76972 7.15602ZM8.48205 5.05194L8.59162 3.62732L7.60535 4.06566L7.84644 3.40814L6.64098 3.58348L7.07934 4.24101L6.56428 4.76703L7.39713 4.83278L7.32041 4.6136L7.5396 4.19716L8.48205 5.05194ZM9.79708 4.87663L9.02998 4.51497L9.24915 5.36975L9.79708 4.87663ZM2.3671 6.33412L1.92875 6.02728L1.89587 6.61905L2.3671 6.33412ZM3.06846 8.61351L3.39722 8.96419L3.47392 8.48201L3.06846 8.61351Z" fill="#CDE8DD"/>
<path d="M15.0573 8.79982L15.6052 9.09569L15.4299 8.47107L15.0573 8.79982ZM17.8408 14.3559L18.3449 14.7285L18.2353 14.0709L17.8408 14.3559ZM5.89583 5.22728L6.61909 4.98619L6.20267 4.43825L5.89583 5.22728ZM4.52599 5.59987L4.76709 6.32315L5.24925 5.69853L4.52599 5.59987ZM7.50676 7.66011L9.06289 7.13411L7.67113 5.57796L7.50676 7.66011ZM8.0766 2.11502L11.4738 0.931494L10.2903 4.27388L8.0766 2.11502ZM13.0518 0.536965L15.649 0.142468L14.5203 2.04927L13.0518 0.536965ZM17.3476 0.0328747L19.5175 0L18.1586 2.73967L17.3476 0.0328747ZM21.5886 0.109593L24.2626 0.471215L22.6626 2.4657L21.5886 0.109593ZM26.7721 1.23834L28.5584 2.06024L26.6406 3.37526L26.7721 1.23834Z" fill="#CDE8DD"/>
<path d="M15.6709 0.186312L17.3695 0.0438441L16.5585 1.18352L15.6709 0.186312ZM19.879 0L21.742 0.109593L20.3502 1.58902L19.879 0ZM33.5774 19.4845L33.3253 18.9037L33.0404 19.4188L33.5774 19.4845ZM28.2295 23.3201L27.8679 22.794L27.6816 23.3639L28.2295 23.3201ZM28.9309 16.4161L28.5692 15.8901L28.3829 16.4599L28.9309 16.4161ZM27.1337 18.0051L27.4405 18.4654L27.572 17.9174L27.1337 18.0051ZM37.1609 18.553L37.117 19.3202L37.6649 18.8818L37.1609 18.553ZM24.3063 7.89026L23.605 6.93683L23.331 8.10941L24.3063 7.89026ZM25.5775 12.449L24.92 11.3203L24.4817 12.5696L25.5775 12.449ZM40.9197 19.638L40.558 18.7613L40.1197 19.616L40.9197 19.638ZM39.232 17.6435L38.3005 18.038L39.2101 18.4983L39.232 17.6435ZM21.216 11.5614L21.1064 12.9641L22.279 12.0326L21.216 11.5614ZM39.9772 17.9722L40.5252 17.5339L39.7909 17.2709L39.9772 17.9722ZM41.9498 17.2051L41.5553 17.8298L42.2128 17.8955L41.9498 17.2051ZM39.7581 20.5694L39.5937 21.1174L40.0649 20.8325L39.7581 20.5694ZM23.583 24.7995L23.594 25.3474L23.9556 24.931L23.583 24.7995ZM31.0788 20.9311L30.8158 21.3475L31.2541 21.2818L31.0788 20.9311ZM41.6539 18.0489L40.58 17.9394L41.0183 19.0681L41.6539 18.0489ZM36.9965 17.6435L36.9417 17.0955L36.4704 17.3804L36.9965 17.6435ZM36.9307 20.7119L36.1636 20.7448L36.6567 21.3475L36.9307 20.7119ZM35.6157 19.9448L36.2513 19.7804L35.8458 19.09L35.6157 19.9448ZM34.8157 16.186L33.8075 16.8873L34.8157 17.3695V16.186ZM26.3556 20.6352L26.8487 20.8763L26.6953 20.3283L26.3556 20.6352ZM31.8349 11.2436L32.2514 11.9011L32.4267 11.2217L31.8349 11.2436ZM33.9609 17.6654L33.5445 17.8079L33.939 18.2462L33.9609 17.6654ZM34.2897 16.3504L33.6979 15.8024L33.676 16.6024L34.2897 16.3504ZM33.8185 14.9257L33.2048 14.4435L33.2376 15.2326L33.8185 14.9257ZM31.4514 14.3559L31.7144 15.7366L32.5911 14.5312L31.4514 14.3559ZM32.4157 16.712L33.0733 16.9969L32.7993 16.3832L32.4157 16.712ZM31.1445 18.7613L31.4733 19.1338L31.5829 18.6626L31.1445 18.7613ZM30.3555 15.649L30.4322 16.1969L30.7391 15.7366L30.3555 15.649ZM29.698 18.7613L29.7089 19.2544L30.0377 18.9476L29.698 18.7613ZM34.6842 18.1914L34.6184 18.6736L35.002 18.4215L34.6842 18.1914ZM30.0158 13.7422L29.8733 13.4463L29.5665 13.8298L29.8076 13.8408L30.0267 14.575L30.487 13.7641L30.0158 13.7422ZM32.6459 13.0079L31.9884 13.4463L32.7116 13.7093L32.6459 13.0079ZM38.6403 19.9667L37.8732 19.9996L38.3663 20.5914L38.6403 19.9667ZM41.7744 16.5038L40.9525 16.1312V16.8545L41.7744 16.5038ZM42.7169 21.0407V20.3064L42.169 20.5256L42.7169 21.0407ZM41.9279 18.7065L42.3991 18.4215L41.8731 18.1476L41.9279 18.7065ZM39.5718 18.4106L39.1334 18.5859L39.5389 18.8489L39.5718 18.4106ZM27.6487 4.95331L27.3199 5.64371L28.1528 5.42456L27.6487 4.95331ZM32.613 8.30666L32.5692 9.80803L33.7308 8.8546L32.613 8.30666ZM28.1747 11.2874L27.4076 11.1559L27.8021 11.8354L28.1747 11.2874ZM25.1063 14.4435L24.4707 14.4983L24.8652 14.9367L25.1063 14.4435ZM24.2734 10.3231L23.6488 10.4546L24.0871 10.8491L24.2734 10.3231ZM26.3994 9.00803L25.7638 9.06281L26.1583 9.50119L26.3994 9.00803ZM28.0871 6.15877L27.6816 5.96152L27.6926 6.61905L27.9556 6.39986L28.8322 6.99164L28.6131 5.72043L28.0871 6.15877ZM35.4732 8.24091L34.991 9.96143L36.7773 9.34775L35.4732 8.24091ZM29.5336 5.1944L29.0624 6.8163L30.5966 6.15877L29.5336 5.1944ZM34.3225 7.27654L32.7883 7.6382L33.9938 9.02994L34.3225 7.27654ZM27.7254 4.09853L27.9775 4.0876L27.6706 3.46295L27.1884 3.95607L26.4542 3.96704L26.9145 5.041L27.7254 4.09853ZM35.3417 6.86014L34.1582 6.78342L34.8595 7.84642L35.3417 6.86014Z" fill="#CDE8DD"/>
<path d="M34.0157 8.52585L34.9472 8.6135L34.6952 7.87929L34.0157 8.52585ZM32.0761 6.38889L31.5281 6.00537L31.3089 6.73958L32.0761 6.38889ZM25.3913 11.0573L26.1803 11.1888L25.7419 10.608L25.3913 11.0573ZM25.6543 7.72585L26.4433 7.85739L26.0049 7.27654L25.6543 7.72585ZM25.9173 17.1503L26.4652 17.0407L26.0269 16.712L25.9173 17.1503ZM27.4296 20.3283L27.9775 20.2188L27.5392 19.89L27.4296 20.3283ZM28.635 9.42447L29.183 9.31488L28.7446 8.98613L28.635 9.42447ZM26.0269 8.56969L26.5748 8.4601L26.1365 8.13135L26.0269 8.56969ZM28.3063 4.33963L28.2296 2.7287L27.9337 2.83829L27.5392 2.65201L27.594 3.04651L26.9145 3.45198L28.3063 4.33963ZM32.0541 7.56148L32.7336 6.90395L31.9007 6.61905L32.0541 7.56148ZM31.1007 11.7039L31.8898 12.0874L31.835 11.4518L31.1007 11.7039ZM31.0679 8.67929L31.8569 9.06281L31.8021 8.42723L31.0679 8.67929ZM30.1692 11.3094L30.6953 10.7176L29.9282 10.5751L30.1692 11.3094ZM29.3145 8.54775L29.8405 7.95601L29.0734 7.82448L29.3145 8.54775ZM29.0405 5.36974L28.2405 4.98618L28.3063 5.8629L29.0405 5.36974ZM29.7857 6.49849L29.1611 7.41901L30.2898 7.26561L29.7857 6.49849ZM30.5966 8.53682L30.1583 9.19431L30.9473 9.08475L30.5966 8.53682ZM31.5062 9.50119L31.0679 10.1368L31.8569 10.0272L31.5062 9.50119ZM32.4377 10.3779L31.9993 11.0135L32.7664 10.9039L32.4377 10.3779ZM25.4022 5.90671L24.2296 6.07112L25.1063 6.87108L25.4022 5.90671ZM26.9364 10.3779L27.6816 10.8601L27.5173 9.92856L26.9364 10.3779ZM26.783 12.734L27.5173 13.2162L27.3638 12.2847L26.783 12.734ZM26.8926 7.96695L27.6378 8.44913L27.4734 7.51764L26.8926 7.96695ZM27.7474 7.49573L28.9309 8.26285L28.6679 6.78342L27.7474 7.49573ZM32.0432 7.6601L32.8322 8.04366L32.7226 7.27654L32.0432 7.6601ZM34.9253 8.12038L36.5472 7.7916L35.5609 6.82727L34.9253 8.12038Z" fill="#CDE8DD"/>
<path d="M33.8732 9.21626L33.7089 10.2573L34.6513 10.071L33.8732 9.21626ZM31.9007 8.42723L32.6349 8.17517L32.0431 7.64917L31.9007 8.42723ZM32.2294 5.46837L32.1856 5.79715L31.9336 5.55606L31.6486 5.90671L32.1418 5.89578L31.9445 6.55331L33.1719 6.04918L32.2294 5.46837ZM30.2569 7.00258L31.0459 7.38614L31.0349 6.65193L30.2569 7.00258ZM28.109 14.4983L28.2514 13.9504L27.7035 14.06L28.109 14.4983ZM29.5774 9.61075L29.7199 9.06282L29.172 9.17241L29.5774 9.61075ZM28.7665 9.15051L28.898 8.60257L28.3501 8.71217L28.7665 9.15051Z" fill="#CDE8DD"/>
<path d="M27.3638 8.69022L27.9117 9.76418L28.4596 8.66832L27.3638 8.69022ZM28.5363 11.9998L29.0843 13.0956L29.6322 11.9998H28.5363ZM34.6951 11.7039L34.717 10.9039L34.1034 11.408L34.6951 11.7039ZM34.0376 14.2244L33.6541 15.0134L34.2896 14.9586L34.0376 14.2244ZM34.4212 13.4134L35.0239 13.9285L35.1335 13.1394L34.4212 13.4134ZM35.4074 15.3093L34.8047 14.8381L34.8595 15.6271L35.4074 15.3093ZM35.4403 10.4875L35.002 11.2545L35.9115 11.0354L35.4403 10.4875ZM32.8102 10.6847L32.4486 11.4956L33.3472 11.1888L32.8102 10.6847ZM31.3637 12.1641L31.9116 12.2189L31.7253 11.7039L31.3637 12.1641ZM33.665 11.8902L32.5911 12.46L33.6869 12.9751L33.665 11.8902ZM21.9721 13.0628L22.6296 14.0819L23.046 12.9422L21.9721 13.0628ZM31.6157 5.31496L30.739 5.13962L31.3199 4.70128L30.5747 4.46019L30.6404 5.09578L30.2021 5.00812L30.6404 6.67383L31.6157 5.31496ZM22.5529 19.101L23.068 19.3202L22.8269 18.827L22.5529 19.101ZM22.9255 21.479L23.4406 21.6982L23.1995 21.216L22.9255 21.479ZM24.5145 8.98613L24.3611 9.39159L24.8871 9.23816L24.5145 8.98613ZM26.6186 4.42731L25.5885 4.99715L26.6186 5.70946L26.6405 5.96152L27.2432 5.58893L26.6953 5.15059L26.6186 4.42731ZM26.0706 6.46561L25.7748 6.32314L25.7857 6.8163L25.983 6.66286L26.6186 7.10123L26.4652 6.18068L26.0706 6.46561ZM27.8788 6.46561L26.8925 5.8629L26.783 7.11217L26.5967 7.25464L27.2103 7.58342L27.3199 6.89302L27.8788 6.46561ZM31.2431 7.12314L30.224 7.67107L31.2322 8.39435L31.2651 8.63544L31.8568 8.28476L31.3089 7.84642L31.2431 7.12314ZM29.961 4.75606L29.1281 3.51773L28.2514 4.94237L29.961 4.75606ZM24.0981 15.7586L24.4488 16.2627L24.5584 15.6051L24.0981 15.7586ZM15.1668 20.427V21.0845L15.638 20.7229L15.1668 20.427ZM16.6243 23.857L16.6571 24.5146L17.0955 24.131L16.6243 23.857ZM20.4817 15.7147H19.9338L20.2954 16.1312L20.4817 15.7147ZM15.2763 25.5995L15.1339 25.0735L14.838 25.5337L15.2763 25.5995ZM18.5092 20.5366L18.8379 20.0982L18.29 20.2078L18.5092 20.5366ZM11.112 22.7283L10.6956 22.3667L10.7614 22.9146L11.112 22.7283ZM13.8736 23.4625L14.2024 23.1009L13.764 23.0899L13.8736 23.4625ZM6.86008 14.6737L6.78337 15.3093L7.29843 15.0134L6.86008 14.6737ZM1.79717 19.3859L1.73142 20.0215L2.23551 19.7146L1.79717 19.3859ZM4.20808 19.3749L4.27383 18.827L3.81357 19.1338L4.20808 19.3749ZM11.3312 16.5805L11.6929 16.164L11.1449 16.2298L11.3312 16.5805Z" fill="#CDE8DD"/>
<path d="M3.16706 14.5641L3.62732 14.4216L3.25473 14.1805L3.16706 14.5641ZM6.50946 17.8955L6.29029 17.3914L6.04919 17.8955H6.50946ZM1.68763 16.175V15.6819L1.29312 15.9777L1.68763 16.175ZM0.241092 19.0243L0.547934 18.553L0 18.6955L0.241092 19.0243ZM2.7835 17.1175L3.11226 16.7449L2.67392 16.7558L2.7835 17.1175ZM4.53689 20.8434L4.06568 20.5694L4.17525 21.1174L4.53689 20.8434ZM5.50126 17.4462L5.03003 17.1723L5.13962 17.7202L5.50126 17.4462ZM8.35051 21.6105L8.09846 21.1064L7.95599 21.6544L8.35051 21.6105ZM9.64364 19.5722L9.39158 19.0681L9.24913 19.616L9.64364 19.5722ZM4.9862 23.079L5.0629 22.4543L4.53689 22.8708L4.9862 23.079ZM29.8843 2.64105L31.7473 3.75882L29.161 5.34784L29.8843 2.64105ZM33.4568 4.94238L35.5061 6.69574L33.0733 7.49574L33.4568 4.94238Z" fill="#CDE8DD"/>
<path d="M36.602 7.92313L37.8842 9.4135L35.5829 9.81896L36.602 7.92313ZM28.383 1.97255L29.9173 2.73967L28.6241 3.2876L28.383 1.97255ZM31.9775 4.01088L33.4898 5.08481L31.5172 5.58893L31.9775 4.01088ZM38.0705 15.2106L37.3034 16.5257L38.7828 16.2408L38.0705 15.2106Z" fill="#CDE8DD"/>
<path d="M40.569 16.3613L39.4293 17.7421L41.3142 17.9065L40.569 16.3613ZM36.5362 10.9916L35.4733 12.2847L37.1171 12.3066L36.5362 10.9916ZM39.9882 15.2106L38.454 14.7942L38.8485 16.5914L39.9882 15.2106ZM41.0841 15.3202L40.0978 14.6846L40.2074 15.9558L41.0841 15.3202Z" fill="#CDE8DD"/>
<path d="M39.2759 16.0545L40.043 16.5805L40.1526 15.8134L39.2759 16.0545ZM38.3225 13.2381L37.9718 12.6682L37.4677 13.26L38.3225 13.2381ZM37.8513 14.312L38.728 13.9833L38.0705 13.3915L37.8513 14.312ZM35.1335 17.3476L35.6376 18.0599L35.8897 17.4681L35.1335 17.3476ZM36.4924 14.849L37.0404 15.5285L37.2595 14.9257L36.4924 14.849ZM34.4979 16.5476L35.265 16.2846L34.6404 15.7805L34.4979 16.5476ZM36.2842 12.2189L35.3527 12.8326L36.4486 13.1285L36.2842 12.2189ZM36.0979 14.5641L35.4404 14.9696L36.2075 15.1887L36.0979 14.5641Z" fill="#CDE8DD"/>
<path d="M36.5362 15.5942L35.8459 15.9449L36.5801 16.2298L36.5362 15.5942ZM36.9527 16.7996L36.2623 17.1613L36.9965 17.4353L36.9527 16.7996ZM37.8294 14.3339L38.3773 15.0134L38.5965 14.2463L37.8294 14.3339ZM40.2841 16.1421L41.8512 16.6353L41.4457 15.3202L40.2841 16.1421ZM38.8376 16.5805L38.202 17.4243L39.1115 17.7092L38.8376 16.5805ZM37.3581 14.9805L38.1253 15.0572L37.7965 14.323L37.3581 14.9805ZM38.8376 12.46L38.6622 12.7559L38.5198 12.4271L38.1253 12.6244L38.5636 12.8107L38.1253 13.3258L39.4403 13.3477L38.8376 12.46ZM36.3938 13.0737L36.9746 13.7312L37.2486 13.0518L36.3938 13.0737Z" fill="#CDE8DD"/>
<path d="M38.4541 11.8463L37.7089 11.3313L38.4212 11.145L37.8294 10.6409L37.6322 11.2546L37.2705 10.9916L36.9965 12.6792L38.4541 11.8463ZM37.3034 13.5449L36.1418 13.6216L36.7555 14.7175L36.6788 14.9367L37.3801 14.86L37.0513 14.2463L37.3034 13.5449Z" fill="#CDE8DD"/>
<path d="M37.6321 9.12857L38.98 10.8272L35.9883 11.408L37.6321 9.12857ZM40.1526 12.6354L41.2813 15.0901L38.7389 14.8052L40.1526 12.6354ZM42.41 18.8161L42.7388 19.8571L41.4786 19.5503L42.41 18.8161ZM39.1663 11.0135L40.1306 12.5915L38.1252 12.2847L39.1663 11.0135ZM117.959 59.8234L119.46 59.7138L118.858 58.6508L117.959 59.8234ZM121.466 61.0727L121.4 60.8535L121.071 61.2919L120.633 60.6124L120.304 61.4015L121.071 61.2919L120.929 61.5658L121.652 61.6754L121.455 61.0398L122.255 61.0289L121.707 60.3933L121.466 61.0727ZM140.479 45.4785L140.83 47.0456L141.926 45.621L140.479 45.4785ZM143.438 45.6758L143.657 46.4429L144.15 45.7086L143.438 45.6758Z" fill="#CDE8DD"/>
<path d="M150.024 45.4018L150.934 46.684L151.306 45.1498L150.024 45.4018ZM148.271 50.2236L147.569 50.662L148.358 50.9031L148.271 50.2236ZM147.46 53.7633L146.989 54.2236L147.602 54.3112L147.46 53.7633ZM144.753 58.4974L144.271 58.9686L144.885 59.0563L144.753 58.4974ZM141.487 61.8946L141.005 62.311L141.586 62.4206L141.487 61.8946ZM144.633 52.251L144.194 52.7441L144.808 52.7989L144.633 52.251ZM145.312 49.6757L144.852 50.1688L145.465 50.2236L145.312 49.6757ZM140.359 46.6401L140.392 46.8264L140.523 47.3744L140.709 47.3305L140.874 48.0757L141.641 47.1223L140.983 46.8703L140.359 46.6401Z" fill="#CDE8DD"/>
<path d="M144.644 46.3004L144.205 46.4319L144.687 46.947L144.742 46.6182L145.838 46.4538L144.786 45.6319L144.644 46.3004ZM152.019 43.495L152.895 45.1388L153.816 43.3854L152.019 43.495ZM119.91 58.9686L120.107 58.3659L119.384 58.6508L119.965 59.1988L119.877 60.2289L121.192 59.5713L119.91 58.9686ZM145.093 44.569L145.86 46.147L146.605 44.5799L145.093 44.569ZM150.857 43.5826L149.794 44.8539L151.657 45.2593L150.857 43.5826ZM142.945 44.9634L143.131 44.7881L142.452 44.5141L142.43 45.2374L141.882 45.7634L142.978 46.2675L142.945 44.9634ZM124.008 61.6207L123.176 60.6124L122.43 61.785L124.008 61.6207ZM140.14 52.7441L139.986 52.0866L139.296 52.4921L140.14 52.7441Z" fill="#CDE8DD"/>
<path d="M151.164 42.4759L150.211 43.2429L151.504 43.5498L151.164 42.4759ZM141.63 48.9086L141.663 48.1853L141.005 48.3826L141.63 48.9086ZM151.186 44.6018L152.008 44.0539L151.317 43.6155L151.186 44.6018ZM148.26 44.0539L147.57 44.1306L147.898 44.8758L148.26 44.0539ZM145.959 51.9441L146.671 51.5058L145.904 51.3633L145.959 51.9441ZM143.833 49.2045L144.534 48.7661L143.767 48.6346L143.833 49.2045ZM139.23 43.7471L137.115 44.4813L138.923 45.3141L139.23 43.7471ZM121.4 59.5495L122.2 60.0207L122.211 59.1659L121.4 59.5495ZM123.373 62.9028L124.425 63.5165V62.3987L123.373 62.9028ZM123.176 56.7659L121.992 56.1742L122.08 56.8098L120.984 56.8427L121.587 57.7742L122.069 56.9632L122.31 57.6207L123.176 56.7659ZM123.997 59.9001L122.606 60.4042L123.767 61.3248L123.997 59.9001ZM141.268 53.9825L141.685 53.8509L141.356 53.5003L141.268 53.9825ZM142.057 51.703L142.496 51.5496L142.123 51.1989L142.057 51.703ZM149.838 56.744L150.222 56.3057H149.641L149.838 56.744ZM153.564 58.3221L153.926 57.8837L153.345 57.9166L153.564 58.3221ZM138.025 61.6864L138.375 61.27H137.827L138.025 61.6864ZM147.339 48.4264L147.668 47.9661L147.087 48.01L147.339 48.4264ZM144.731 49.588L145.082 49.1277L144.501 49.1826L144.731 49.588ZM143.526 44.7114L142.32 43.506L142.167 43.7909L141.729 43.9005L142.057 44.1635L141.816 44.9525L143.526 44.7114ZM149.06 44.9744L149.137 43.9881L148.293 44.3498L149.06 44.9744ZM150.89 49.1387L151.789 48.9634L151.35 48.4702L150.89 49.1387ZM149.027 46.4758L149.904 46.2237L149.422 45.7635L149.027 46.4758ZM139.022 49.0401L138.759 48.1963L138.233 48.9634L139.022 49.0401ZM149.652 49.1497L149.739 48.3278L148.994 48.6894L149.652 49.1497ZM147.241 47.2428L147.23 46.41L146.529 46.8484L147.241 47.2428ZM144.797 44.9744L143.92 45.2374L144.578 45.873L144.797 44.9744ZM146.156 45.3251L146.331 46.4758L147.098 45.5662L146.156 45.3251ZM148.589 46.7497L148.698 47.5497L149.224 46.9251L148.589 46.7497ZM149.816 47.0566L149.86 47.8675L150.441 47.2867L149.816 47.0566ZM151.153 47.1881L151.186 47.9881L151.778 47.4182L151.153 47.1881ZM119.121 67.9767L119.669 67.4068H118.967L119.121 67.9767ZM138.167 52.3496L138.31 52.766L138.748 52.3715L138.167 52.3496ZM123.482 63.5275L123.208 64.2726L123.954 63.9987L123.482 63.5275ZM142.003 50.0483L141.477 50.6839H142.309L142.003 50.0483ZM122.343 64.6891L122.102 65.4343L122.836 65.1384L122.343 64.6891ZM138.715 49.7634L137.992 50.5633L139.088 50.5962L138.715 49.7634ZM142.879 48.2511L142.09 49.2045L143.329 49.1935L142.879 48.2511ZM145.509 54.1687L144.676 55.0783L145.915 55.1221L145.509 54.1687ZM126.31 67.1767L125.893 68.2726L127.022 67.8671L126.31 67.1767ZM142.244 56.6564L141.498 57.5769L142.704 57.544L142.244 56.6564ZM135.668 53.04L136.326 53.9496L136.589 52.8537L135.668 53.04ZM121.565 63.3631L121.17 64.6124L122.376 64.0973L121.565 63.3631ZM119.296 65.1494L120.567 65.5548L120.041 64.3165L119.296 65.1494ZM116.852 61.4234L119.219 61.4782L117.872 59.8344L116.852 61.4234ZM146.66 50.3551L147.57 50.2127L146.802 49.599L146.66 50.3551ZM147.482 52.2948L148.402 52.251L147.69 51.5606L147.482 52.2948ZM144.961 48.5141L145.871 48.3716L145.104 47.7689L144.961 48.5141ZM145.29 47.5278L146.737 47.3086L145.509 46.3443L145.29 47.5278ZM122.058 66.9794L123.296 66.3219L121.871 65.8288L122.058 66.9794ZM138.474 46.7826L138.912 47.736L139.635 46.7497L138.474 46.7826ZM140.008 47.736L139.438 48.3387L140.348 48.7223L140.008 47.736ZM140.337 44.6456L139.614 45.6319L140.972 45.9169L140.337 44.6456ZM116.622 66.5959H115.921L116.315 67.2534L116.622 66.5959ZM149.104 45.0292L149.98 44.7771L149.356 44.2292L149.104 45.0292ZM151.679 43.6813L152.797 42.3663L151.35 42.2238L151.679 43.6813ZM151.548 45.2593L152.096 46.2128L152.753 45.4456L151.548 45.2593Z" fill="#CDE8DD"/>
<path d="M149.52 45.7306L149.915 45.0182H149.082L149.52 45.7306ZM142.945 48.3607L142.967 47.6374L142.2 47.8566L142.945 48.3607ZM147.745 43.2429L147.942 43.5388L147.581 43.5169L147.602 43.9881L147.975 43.6594L148.271 44.284L148.874 43.0457L147.745 43.2429ZM147.263 45.8073L148.139 45.5552L147.624 45.0073L147.263 45.8073ZM124.392 65.1274L124.436 64.4261L123.965 64.8973L124.392 65.1274ZM149.959 53.1606L149.739 52.6126L149.356 53.051L149.959 53.1606ZM148.556 48.3058L148.293 47.7798L147.942 48.2401L148.556 48.3058ZM147.219 48.1415L146.945 47.6264L146.616 48.0867L147.219 48.1415Z" fill="#CDE8DD"/>
<path d="M139.164 55.1331L139.537 54.8044L139.055 54.6948L139.164 55.1331ZM142.835 53.6756L143.712 52.7551L142.452 52.6126L142.835 53.6756ZM145.816 48.7223L147.022 49.1606L146.671 47.9552L145.816 48.7223ZM150.178 51.4839L151.307 52.0318L151.087 50.7825L150.178 51.4839ZM145.849 53.5112L147.033 53.9496L146.682 52.7441L145.849 53.5112ZM147 43.3197L146.189 43.7909L146.331 43.0238L145.586 43.3525L146.079 43.7909L145.663 44.032L147.142 45.0182L147 43.3197ZM115.384 64.0535L116.228 64.9302L116.71 63.6918L115.384 64.0535ZM117.937 62.4535L118.102 62.3001L117.554 62.2124L117.883 61.5987L117.028 61.6645L117.554 62.2124L117.094 62.2015L117.466 62.9028L117.861 62.5302L118.321 63.1549L118.562 62.3001L117.937 62.4535ZM118.157 63.6151L119.088 63.6261L118.792 63.0014L118.157 63.6151ZM119.209 62.059L118.661 62.585L119.515 62.6946L119.209 62.059ZM114.584 65.8945L115.285 65.6753L114.825 65.2041L114.584 65.8945ZM116.995 63.4617L116.743 64.3055L117.532 64.0096L116.995 63.4617ZM124.162 67.4287L124.644 67.1438L124.096 67.0342L124.162 67.4287ZM147.131 61.0508L147.712 60.9741L147.23 60.6453L147.131 61.0508ZM150.353 62.9686L150.923 62.859L150.419 62.5741L150.353 62.9686ZM144.545 53.8729L144.742 54.2893L145.016 53.7852L144.545 53.8729ZM143.833 50.9469L144.008 51.3852L144.304 50.8921L143.833 50.9469ZM142.627 56.1194L143.12 56.1523L142.846 55.7906L142.627 56.1194ZM138.978 59.3193L139.46 59.3851L139.219 59.0015L138.978 59.3193ZM138.704 51.6483L139.186 51.703L138.945 51.3304L138.704 51.6483ZM122.759 57.7851L123.548 57.8947L123.219 57.1714L122.65 57.807L121.663 57.8399L122.277 58.9686L122.759 57.7851ZM142.266 45.9497L141.871 47.1004L143.164 46.947L143.361 47.1113L143.581 46.41L142.857 46.4538L142.266 45.9497ZM138.485 49.1606L138.627 49.9277L139.175 49.2702L138.485 49.1606ZM141.389 49.0182L141.608 49.7853L142.101 49.0401L141.389 49.0182ZM142.671 50.0921L142.342 50.2017L142.693 50.5743L142.737 50.3223L143.537 50.2127L142.77 49.599L142.671 50.0921ZM122.124 69.1821L121.861 69.4013L122.299 69.6205L122.244 69.3794L122.902 68.9849L121.992 68.7219L122.124 69.1821ZM143.274 47.9004L142.945 48.01L143.296 48.3826L143.34 48.1305L144.14 48.0209L143.372 47.4182L143.274 47.9004ZM140.446 48.2072L140.644 48.0428L139.986 47.7141L139.92 48.4264L139.329 48.9195L140.392 49.5004L140.446 48.2072ZM139.953 51.3195L140.063 50.64L139.296 50.7715L139.953 51.3195ZM139.734 49.1497L139.263 50.2784L140.578 50.2017L140.753 50.388L141.005 49.6976H140.282L139.734 49.1497ZM144.666 46.6292L143.46 46.8703L144.249 47.9113L144.205 48.1524L144.907 47.9881L144.512 47.3853L144.666 46.6292ZM148.118 45.1717L147.701 46.3223L149.016 46.1799L149.202 46.3443L149.422 45.6429L148.698 45.6867L148.118 45.1717Z" fill="#CDE8DD"/>
<path d="M122.452 59.1001L123.658 58.6289L122.452 57.9385V59.1001Z" fill="#CDE8DD"/>
<path d="M122.014 60.2837L123.767 59.7029L122.617 58.7714L122.014 60.2837ZM140.172 45.8621L139.668 46.147H139.307L139.482 46.3333L139.416 46.4758L139.668 46.5086L139.701 46.6182L139.668 46.5086L140.107 46.7278L140.172 45.8621ZM115.844 63.6151L115.888 63.7247L116.578 63.659L117.17 63.637L116.458 62.0371L115.603 63.6151H115.844Z" fill="#CDE8DD"/>
<path d="M117.192 62.585L116.885 61.9604L116.491 62.6508L117.192 62.585ZM120.041 61.4015L119.274 61.5439L119.822 62.0919L120.041 61.4015ZM115.362 65.4562L116.107 66.2233L116.513 65.0836L115.362 65.4562ZM118.726 68.6561L118.398 69.1164L118.945 69.204L118.726 68.6561ZM145.082 43.8676L143.57 43.495L143.898 45.2046L145.082 43.8676ZM120.699 66.4644L121.313 66.9466L121.324 66.1794L120.699 66.4644ZM118.913 65.9493L119.526 66.4205L119.537 65.6534L118.913 65.9493ZM120.041 62.6617L119.351 62.4097L119.647 63.1768L120.041 62.6617Z" fill="#CDE8DD"/>
<path d="M117.959 63.922L118.562 65.1713L119.274 64.3384L117.959 63.922ZM114.288 66.5521L114.683 67.374L115.143 66.826L114.288 66.5521ZM117.521 64.448L116.677 65.4343L117.663 65.7302L117.521 64.448ZM120.809 63.1877L119.274 62.859L120.02 64.2617L120.809 63.1877ZM120.524 60.9631L120.009 59.6481L119.296 60.4919L119.23 59.7905L118.211 60.47L118.902 60.8754L118.661 61.5658L119.428 61.27L119.274 61.1056V60.6453L120.524 60.9631ZM121.641 60.2508L120.787 60.2618L121.356 60.9193L121.641 60.2508ZM115.581 64.7767L115.033 64.6891L115.252 65.237L115.581 64.7767ZM117.192 66.5301L117.652 66.6945L117.51 66.2233L117.192 66.5301Z" fill="#CDE8DD"/>
<path d="M142.945 52.0099L143.548 52.2291L143.252 51.6044L142.945 52.0099ZM146.835 57.2153L147.416 57.5002L147.197 56.8427L146.835 57.2153ZM118.288 62.2562L118.836 61.7083L118.222 61.3796L118.288 62.2562ZM117.225 63.1658L117.773 63.7137L117.937 62.9467L117.225 63.1658ZM120.808 63.7466L121.981 62.6069L120.063 61.8069L120.808 63.7466ZM118.617 58.7495L120.852 55.9221L121.663 59.3741L118.617 58.7495ZM139.219 43.7361L141.882 43.0128L140.929 45.1278L139.219 43.7361ZM143.712 42.5964L145.937 42.158L145.06 45.2045L143.712 42.5964Z" fill="#CDE8DD"/>
<path d="M148.315 42.0923L151.131 41.9827L149.838 44.3169L148.315 42.0923ZM152.622 42.2676L154.671 42.4868L153.213 44.4374L152.622 42.2676ZM141.992 43.0567L143.712 42.5964L143.099 43.9114L141.992 43.0567ZM134.43 47.8785L135.055 49.3579L135.877 47.7689L134.43 47.8785Z" fill="#CDE8DD"/>
<path d="M137.4 47.5497L137.751 48.262L138.112 47.4511L137.4 47.5497ZM134.529 49.0182L134.605 49.2045L134.825 49.7305L135 49.6538L135.296 50.3661L135.888 49.2702L135.208 49.1387L134.529 49.0182ZM136.764 46.936L136.918 46.7168L136.205 46.5634L136.315 47.2867L135.855 47.9004L137.027 48.2072L136.764 46.936ZM136.183 51.0565L136.074 50.3442L135.46 50.651L136.183 51.0565Z" fill="#CDE8DD"/>
<path d="M132.896 46.3662L131.362 47.3963L133.181 48.5579L132.896 46.3662ZM137.301 46.6072L135.921 45.621L135.811 45.9278L135.405 46.147L135.756 46.3443L135.647 47.1662L137.301 46.6072ZM133.63 51.6482L133.225 50.8592L132.83 51.703L133.63 51.6482ZM133.455 52.3934L132.874 53.314L133.97 53.1606L133.455 52.3934ZM137.29 50.1688L136.677 51.2428L137.904 51.0236L137.29 50.1688ZM133.345 49.5661L133.959 50.4428L134.507 49.3469L133.345 49.5661ZM134.364 50.1688L133.904 50.8592L134.868 51.0784L134.364 50.1688ZM134.145 47.1004L133.619 48.1963L135 48.2401L134.145 47.1004Z" fill="#CDE8DD"/>
<path d="M137.356 50.2784L137.247 49.5661L136.534 49.9277L137.356 50.2784ZM136.282 48.0319L136.096 49.2373L137.334 48.8538L137.553 48.9853L137.641 48.262L136.94 48.4374L136.282 48.0319ZM133.104 51.8455L133.378 52.5688L133.816 51.8236L133.104 51.8455ZM135.953 51.188L136.304 51.9112L136.666 51.0893L135.953 51.188Z" fill="#CDE8DD"/>
<path d="M137.411 52.0318L137.104 52.1852L137.509 52.4921V52.24L138.277 51.977L137.4 51.5168L137.411 52.0318ZM137.608 49.7634L137.301 49.9168L137.707 50.2236L137.718 49.9716L138.485 49.7195L137.608 49.2593V49.7634ZM134.868 50.5524L135.044 50.3551L134.331 50.1579L134.386 50.8702L133.893 51.4619L135.044 51.8455L134.868 50.5524ZM134.321 51.6263L134.058 52.8099L135.318 52.514L135.537 52.6564L135.668 51.9441L134.945 52.0537L134.321 51.6263ZM138.748 48.2839L137.619 48.7223L138.572 49.599V49.851L139.23 49.5551L138.726 49.0401L138.748 48.2839ZM134.189 48.3058L133.751 48.6785L133.4 48.7332L133.619 48.8866L133.575 49.0401L133.827 49.0291L133.882 49.1387L133.827 49.0291L134.288 49.1716L134.189 48.3058ZM138.66 45.4566L137.104 45.347L137.729 46.9908L138.66 45.4566ZM132.885 46.3552L135.373 45.1936L134.803 47.4292L132.885 46.3552ZM135.482 45.2155L137.093 44.4484L136.72 45.873L135.482 45.2155ZM146.507 42.2567L148.435 42.0375L147.263 43.7909L146.507 42.2567ZM166.583 57.9604L166.101 57.5002L166.035 58.1139L166.583 57.9604ZM159.81 64.7767L159.328 64.3165L159.251 64.9192L159.81 64.7767ZM159.865 56.5577L159.317 56.1632L159.328 56.7769L159.865 56.5577ZM157.619 59.5714L158.013 59.9769L158.046 59.396L157.619 59.5714ZM170.265 55.4838L170.594 56.218L170.89 55.5605L170.265 55.4838ZM152.687 49.7853L151.767 48.9524L151.723 50.2017L152.687 49.7853ZM154.901 54.1907L153.991 53.1715L153.794 54.5413L154.901 54.1907ZM174.911 55.0674L174.101 54.4756L174.177 55.4838L174.911 55.0674ZM171.777 53.6756L171.087 54.4756H172.15L171.777 53.6756ZM150.276 54.1687L150.452 55.6263L151.471 54.4208L150.276 54.1687ZM123.669 55.8345L124.765 57.018L125.006 55.2646L123.669 55.8345ZM126.354 54.5413L126.934 55.0893L127 54.2126L126.354 54.5413ZM131.942 51.0565L133.367 51.714L132.929 50.2017L131.942 51.0565ZM132.819 56.0975L132.425 56.8317L133.236 56.6564L132.819 56.0975Z" fill="#CDE8DD"/>
<path d="M133.849 59.6042L133.674 60.2399L134.244 60.0207L133.849 59.6042ZM133.849 65.0617L133.674 65.7192L134.244 65.5L133.849 65.0617ZM132.677 69.6205L132.458 70.2232L133.027 70.0369L132.677 69.6205ZM130.671 59.6919L130.518 60.3494L131.066 60.0974L130.671 59.6919ZM129.97 57.1276L129.817 57.7851L130.386 57.5331L129.97 57.1276ZM124.162 56.9084L124.293 57.0509L124.677 57.4892L124.819 57.3577L125.334 57.9276L125.532 56.7221L124.841 56.8317L124.162 56.9084ZM127.712 54.5194L127.384 54.8482L128.041 55.0674L127.932 54.7386L128.808 54.0811L127.493 53.8838L127.712 54.5194ZM127.252 52.788L128.699 53.7742L128.567 52.0427L127.252 52.788ZM131.767 49.0949L131.471 50.7387L133.301 50.1579L131.767 49.0949ZM125.565 54.2016L125.641 53.9496L124.918 54.0591L125.247 54.7167L125.028 55.4399L126.233 55.3304L125.565 54.2016ZM126.989 62.333L126.551 61.8617L126.145 62.5412L126.989 62.333ZM131.504 47.9552L131.066 49.1058L132.348 48.7442L131.504 47.9552ZM126.408 58.2782L126.08 57.6207L125.597 58.1139L126.408 58.2782ZM129.762 50.7715L129.192 51.188L129.849 51.6702L129.762 50.7715ZM131.669 58.7714L132.052 58.0371L131.329 58.2892L131.669 58.7714ZM128.447 57.4344L128.83 56.6893L128.107 56.9522L128.447 57.4344Z" fill="#CDE8DD"/>
<path d="M122.156 55.0893L120.951 55.8893L122.222 56.481L122.156 55.0893ZM128.567 62.8699L128.863 62.5412L128.403 62.4097L128.567 62.8699ZM128.129 60.4919L128.436 60.1631L127.932 60.0316L128.129 60.4919ZM137.389 61.0399L137.498 60.4919L136.994 60.7768L137.389 61.0399ZM129.553 71.1657L129.663 70.6177L129.181 70.9136L129.553 71.1657ZM131.121 55.0345L131.186 54.4866L130.704 54.8153L131.121 55.0345ZM129.422 57.3358L129.488 56.7879L129.016 57.1166L129.422 57.3358ZM125.97 53.6866L124.348 53.2263V53.5551L124.019 53.8838L124.425 53.9605L124.6 54.7605L125.97 53.6866ZM130.901 51.1661L130.485 50.2894L129.937 51.0236L130.901 51.1661ZM131.636 52.503L132.271 51.8455L131.614 51.6811L131.636 52.503ZM124.217 59.67L123.559 59.0673L123.471 59.9988L124.217 59.67ZM133.499 54.5194L133.17 53.7523L132.699 54.4427L133.499 54.5194ZM130.463 54.0591L130.047 53.3359L129.652 54.0701L130.463 54.0591ZM127.219 53.2701L126.584 53.9276L127.46 54.1468L127.219 53.2701ZM128.578 52.9085L129.29 53.829L129.51 52.6564L128.578 52.9085ZM131.384 52.9414L131.877 53.577L132.03 52.777L131.384 52.9414ZM132.611 52.6126L133.049 53.2921L133.268 52.4921L132.611 52.6126ZM125.093 62.9576L125.422 63.2425L125.619 62.6946L125.093 62.9576ZM127.285 59.0563L127.143 59.8673L127.866 59.4508L127.285 59.0563ZM124.282 60.4261L124.041 61.4891L125.006 60.985L124.282 60.4261ZM127.154 57.0509L126.934 58.2563L128.03 57.6317L127.154 57.0509ZM132.381 60.9083L132.096 62.1138L133.214 61.5439L132.381 60.9083ZM130.759 64.6672L130.562 65.8397L131.592 65.2151L130.759 64.6672ZM125.86 63.9658L126.891 64.4261L126.562 63.3302L125.86 63.9658ZM131.482 56.9961L132.205 56.4153L131.219 56.2728L131.482 56.9961ZM133.148 58.2782L133.915 57.7851L132.962 57.5331L133.148 58.2782ZM129.093 56.2509L129.816 55.6701L128.83 55.5276L129.093 56.2509ZM128.874 55.2427L130.014 54.3222L128.48 54.103L128.874 55.2427ZM123.23 57.818L124.107 58.4207L124.239 57.2153L123.23 57.818ZM124.381 58.0372L124.184 58.8371L125.17 58.7276L124.381 58.0372ZM123.121 55.1879L122.989 56.3934L124.304 55.955L123.121 55.1879ZM130.945 51.177L131.603 50.5195L130.792 50.3661L130.945 51.177Z" fill="#CDE8DD"/>
<path d="M131.658 51.6154V50.8044L130.934 51.2209L131.658 51.6154ZM127.274 57.1495L126.945 56.5139L126.397 57.0838L127.274 57.1495ZM128.896 50.3332L129.225 50.4866L128.896 50.662L129.137 51.0565L129.301 50.5743L129.871 50.9688L129.762 49.599L128.896 50.3332ZM129.751 52.7989L130.386 52.1414L129.652 51.9003L129.751 52.7989ZM135.712 57.8399L135.252 57.4892L135.142 58.0372L135.712 57.8399ZM132.096 54.3112L131.603 53.9825L131.537 54.5304L132.096 54.3112ZM130.858 54.8153L130.375 54.5085L130.299 55.0783L130.858 54.8153ZM127.318 64.8973L127.482 64.437L127.011 64.5795L127.318 64.8973Z" fill="#CDE8DD"/>
<path d="M129.795 61.8398L130.091 60.6015L128.929 61.1056L129.795 61.8398ZM129.937 56.0317L131.186 55.8454L130.288 54.9687L129.937 56.0317ZM134.868 55.0455L136.14 54.9797L135.318 53.9934L134.868 55.0455ZM132.304 60.1741L133.564 59.9878L132.655 59.1111L132.304 60.1741ZM128.282 50.7715L127.8 51.5825L127.548 50.8592L127.077 51.5168L127.734 51.6702L127.493 52.0756L129.28 52.2181L128.282 50.7715ZM137.159 66.1137L137.619 65.763L137.049 65.7192L137.159 66.1137ZM140.885 66.1794L141.323 65.7959H140.753L140.885 66.1794ZM131.351 61.1385L131.734 61.4015L131.712 60.8316L131.351 61.1385ZM129.269 58.9467L129.619 59.2316L129.641 58.6618L129.269 58.9467ZM130.759 64.0315L131.197 63.8124L130.781 63.6261L130.759 64.0315ZM129.192 68.6123L129.63 68.437L129.236 68.2178L129.192 68.6123ZM125.137 62.0699L125.597 61.8837L125.192 61.6645L125.137 62.0699ZM125.444 55.3852L125.663 56.5906L126.715 55.8235L126.967 55.8783L126.803 55.166L126.2 55.5605L125.444 55.3852ZM123.734 60.0316L124.228 60.6234L124.381 59.7796L123.734 60.0316ZM126.189 58.4646L126.759 59.0125L126.825 58.1358L126.189 58.4646ZM127.833 58.7604L127.592 59.0125L128.085 59.1659L127.997 58.9248L128.633 58.4317L127.647 58.2782L127.833 58.7604ZM127.263 56.5687L127.044 56.8208L127.526 56.9742L127.438 56.7331L128.096 56.2399L127.11 56.0865L127.263 56.5687ZM124.962 58.2344L125.071 57.9933L124.337 58.0372L124.633 58.6947L124.348 59.407L125.554 59.3851L124.962 58.2344ZM126.058 61.1714L125.806 60.5138L125.214 61.007L126.058 61.1714ZM124.787 59.418L124.929 60.6234L126.025 59.922L126.277 59.9878L126.167 59.2645L125.543 59.6262L124.787 59.418ZM127.855 54.7934L126.934 55.5824L128.14 56.0975L128.217 56.3386L128.764 55.8345L128.107 55.5057L127.855 54.7934ZM130.156 51.8345L130.375 53.04L131.427 52.2729L131.679 52.3277L131.515 51.6154L130.912 51.9989L130.156 51.8345ZM123.581 56.3276L123.274 56.8317L122.967 57.007L123.208 57.0838L123.219 57.2372L123.46 57.1495L123.537 57.2262L123.46 57.1495L123.943 57.1276L123.581 56.3276ZM126.847 52.1633L125.356 52.5798L126.485 53.9167L126.847 52.1633Z" fill="#CDE8DD"/>
<path d="M129.071 60.3056L129.707 60.196L129.137 59.8015L129.071 60.3056ZM135.011 62.9357L135.668 62.8918L135.153 62.4535L135.011 62.9357ZM121.729 54.9578L123.701 53.029L123.921 55.3304L121.729 54.9578ZM125.082 51.7579L126.803 50.2894L127.526 53.3797L125.082 51.7579Z" fill="#CDE8DD"/>
<path d="M128.808 49.0401L131.197 47.5497L131.241 50.2236L128.808 49.0401ZM123.8 53.0071L125.071 51.7578L125.181 53.2153L123.8 53.0071Z" fill="#CDE8DD"/>
<path d="M127.362 50.0921L128.918 48.9524L128.775 51.0565L127.362 50.0921ZM136.72 55.2098L137.597 56.3933L137.893 54.8591L136.72 55.2098ZM173.191 54.114L173.41 53.4236L172.621 53.5879L173.191 54.114ZM174.55 52.3606L174.528 53.1277L175.153 52.8318L174.55 52.3606ZM174.265 55.9769L174.55 57.1057L175.076 56.0975L174.265 55.9769ZM155.361 67.2644L155.471 67.8342L155.756 67.3301L155.361 67.2644ZM164.786 60.4042L164.698 60.9083L165.103 60.6672L164.786 60.4042ZM174.725 53.2592L173.706 53.7523L174.692 54.5194L174.725 53.2592ZM169.684 54.7276L169.377 54.2345L169.07 54.7167L169.684 54.7276ZM171.065 57.6098L170.364 58.0043L171.098 58.3331L171.065 57.6098ZM169.465 57.5221L169.98 57.0837L169.29 56.6235L169.465 57.5221ZM166.868 54.5085L166.265 55.6263L167.427 55.6043L166.868 54.5085ZM157.367 62.4426L157.915 62.585L157.652 62.0699L157.367 62.4426ZM160.983 50.4976L161.619 50.9907L161.553 50.2674L160.983 50.4976ZM166.221 56.1194L165.892 56.4262L166.44 56.6893L166.221 56.1194ZM166.002 54.7167L165.235 54.4427L165.531 55.2098L166.002 54.7167ZM164.994 53.5331L164.194 53.314L164.555 54.0591L164.994 53.5331ZM161.662 53.6975L162.397 54.9687L162.868 53.4783L161.662 53.6975ZM164.358 55.8125L165.092 55.8345L164.577 55.3523L164.358 55.8125ZM163.964 58.3331L164.402 58.5522L164.314 58.0481L163.964 58.3331ZM161.005 55.3523L161.279 55.8674L161.421 55.3194L161.005 55.3523ZM161.421 58.6399L161.597 59.1221L161.816 58.7056L161.421 58.6399ZM167.69 56.4482L167.865 56.9303L168.084 56.5248L167.69 56.4482ZM160.051 53.577L159.81 53.3359L159.646 53.8071L159.887 53.7414L160.358 54.3989L160.545 53.4345L160.051 53.577ZM162.375 51.977L161.882 52.6126L162.693 52.6236L162.375 51.977ZM172.325 56.1413L171.613 56.5358L172.358 56.8646L172.325 56.1413ZM173.805 51.8674L172.873 51.977L173.257 52.6126L173.805 51.8674ZM177.607 55.6263L176.884 54.4208L176.248 55.3413L177.607 55.6263ZM175.328 53.7304L175.591 53.2263L174.977 53.2592L175.328 53.7304ZM173.059 54.7386L172.753 55.1441H173.257L173.059 54.7386ZM154.726 45.6977L154.616 46.4977L155.361 46.0045L154.726 45.6977ZM160.753 47.3415L161.224 48.8428L162.046 47.5059L160.753 47.3415ZM157.389 51.7688L156.567 51.9003L157.191 52.4482L157.389 51.7688ZM154.835 56.3714L154.178 56.5577L154.671 56.9303L154.835 56.3714ZM153.169 52.3167L152.556 52.5797L153.082 52.8866L153.169 52.3167ZM154.868 50.125L154.265 50.3989L154.813 50.6839L154.868 50.125ZM155.58 46.7607L155.12 46.7059L155.339 47.3634L155.537 47.0675L156.6 47.3524L155.942 46.1689L155.58 46.7607ZM163.975 46.3443L164.194 48.2072L165.662 46.8922L163.975 46.3443ZM156.676 45.336L156.753 47.0894L158.068 45.9388L156.676 45.336ZM162.134 45.7744L160.731 46.6511L162.375 47.6155L162.134 45.7744Z" fill="#CDE8DD"/>
<path d="M154.517 44.8539L154.758 44.7662L154.243 44.2511L153.937 44.9087L153.213 45.1717L154.035 46.0703L154.517 44.8539ZM162.956 45.0073L161.75 45.336L162.802 46.1579L162.956 45.0073ZM162.221 47.0456L163.175 46.8264L162.671 46.1908L162.221 47.0456ZM159.569 45.5881L158.912 45.3908L158.934 46.2018L159.569 45.5881ZM154.419 52.7989L155.252 52.777L154.671 52.2729L154.419 52.7989ZM153.674 49.0729L154.495 48.9305L153.838 48.514L153.674 49.0729ZM156.172 58.9358L156.72 58.7166L156.194 58.4536L156.172 58.9358ZM158.386 61.8946L158.912 61.6754L158.397 61.4234L158.386 61.8946Z" fill="#CDE8DD"/>
<path d="M157.191 49.7634L157.684 49.4784L157.136 49.2921L157.191 49.7634ZM154.342 49.8072L154.835 49.5223L154.287 49.3359L154.342 49.8072ZM155.153 44.8539L154.539 43.2868L154.287 43.484L153.827 43.4292L154.013 43.8018L153.465 44.4265L155.153 44.8539ZM159.953 46.7607L160.413 45.884H159.493L159.953 46.7607ZM160.413 51.177L161.323 51.2866L161.049 50.6729L160.413 51.177ZM159.35 48.1853L160.26 48.2949L159.986 47.6921L159.35 48.1853ZM159.35 51.1003L159.679 50.3332L158.857 50.4647L159.35 51.1003ZM157.575 48.6675L157.904 47.9004L157.082 48.0319L157.575 48.6675ZM156.227 45.621L155.317 45.5114L155.679 46.3552L156.227 45.621ZM157.345 46.4648L157.049 47.5935L158.101 47.0456L157.345 46.4648ZM158.835 48.2182L158.616 48.9853L159.35 48.6236L158.835 48.2182ZM160.04 48.8757L159.821 49.6428L160.566 49.2702L160.04 48.8757ZM161.279 49.4236L161.06 50.1907L161.794 49.8181L161.279 49.4236ZM153.389 47.5606L152.216 47.9661L153.29 48.6017L153.389 47.5606ZM155.843 51.2866L156.72 51.5058L156.249 50.6291L155.843 51.2866ZM156.468 53.6537L157.367 53.8729L156.895 52.9961L156.468 53.6537ZM154.989 48.9195L155.887 49.1387L155.416 48.2839L154.989 48.9195ZM155.646 48.1524L157.071 48.5031L156.304 47.1333L155.646 48.1524ZM159.975 46.8702L160.884 46.9798L160.512 46.2456L159.975 46.8702ZM163.262 46.5415L164.687 45.5881L163.339 45.0402L163.262 46.5415Z" fill="#CDE8DD"/>
<path d="M162.703 47.9881L162.966 49.0511L163.799 48.5031L162.703 47.9881ZM160.095 47.6593L160.753 47.1662L159.986 46.8374L160.095 47.6593ZM159.438 44.6347L159.504 44.9854L159.175 44.832L158.999 45.2703L159.482 45.095L159.514 45.7963L160.545 44.8867L159.438 44.6347ZM157.991 46.8264L158.901 46.936L158.638 46.2128L157.991 46.8264ZM158.408 54.9359L158.375 54.3551L157.871 54.64L158.408 54.9359ZM158.21 49.6099L158.167 49.0291L157.673 49.3141L158.21 49.6099ZM157.224 49.4565L157.169 48.8647L156.676 49.1606L157.224 49.4565Z" fill="#CDE8DD"/>
<path d="M155.701 49.4346L156.61 50.3113L156.775 49.062L155.701 49.4346ZM157.98 52.3058L158.879 53.2044L159.054 51.9441L157.98 52.3058ZM164.501 50.0483L164.194 49.2812L163.81 50.0045L164.501 50.0483ZM164.895 52.7222L164.851 53.6427L165.432 53.314L164.895 52.7222ZM165.191 52.0647L166.002 52.2619L165.739 51.4729L165.191 52.0647ZM167.01 53.3797L166.221 53.2153L166.638 53.9276L167.01 53.3797ZM164.862 47.9552L164.709 49.3579L165.914 48.4593L164.862 47.9552ZM161.75 49.5661L161.662 50.4866L162.429 49.8839L161.75 49.5661ZM160.83 51.4948L161.399 51.3633L161.038 50.925L160.83 51.4948ZM163.547 50.6181L162.747 51.6044L164.019 51.6483L163.547 50.6181ZM151.328 55.5167L152.205 56.4262L152.402 55.166L151.328 55.5167ZM158.747 44.6456L157.816 44.7552L158.254 44.1196L157.443 44.1416L157.717 44.7443L157.246 44.81L158.232 46.3004L158.747 44.6456ZM153.137 61.5768L153.717 61.6864L153.367 61.2261L153.137 61.5768ZM153.991 63.9439L154.561 64.0535L154.232 63.5932L153.991 63.9439ZM153.115 50.8373L153.049 51.2757L153.553 51.0017L153.115 50.8373ZM153.531 45.5004L152.709 46.399L153.958 46.7716L154.068 46.9908L154.539 46.4209L153.86 46.1799L153.531 45.5004ZM153.695 47.6703L153.367 47.6264L153.542 48.1086L153.684 47.8894L154.452 48.1086L153.98 47.2538L153.695 47.6703ZM155.449 47.0566L154.265 46.8045L154.594 48.0647L154.452 48.2839L155.175 48.3935L155.032 47.6812L155.449 47.0566ZM159.01 46.5744L158.188 47.4511L159.438 47.8237L159.547 48.0647L160.019 47.4949L159.339 47.2538L159.01 46.5744ZM156.928 44.6566L155.69 43.7142L155.306 45.4237L156.928 44.6566Z" fill="#CDE8DD"/>
<path d="M154.057 57.8618L154.517 58.3002V57.6098L154.057 57.8618ZM156.139 42.6621L158.353 43.1443L156.337 45.599L156.139 42.6621ZM160.446 43.7251L163.076 44.7662L160.95 46.3771L160.446 43.7251ZM164.895 45.5333L166.736 46.4538L164.687 47.7689L164.895 45.5333Z" fill="#CDE8DD"/>
<path d="M154.452 42.4758L156.205 42.7279L155.109 43.7141L154.452 42.4758ZM158.682 43.2758L160.545 43.8237L158.791 44.9854L158.682 43.2758ZM169.553 51.9332L169.465 53.5003L170.714 52.5359L169.553 51.9332ZM172.84 52.3496L172.566 54.2126L174.342 53.3359L172.84 52.3496Z" fill="#CDE8DD"/>
<path d="M166.068 48.4702L165.575 50.1469L167.175 49.4894L166.068 48.4702ZM171.328 51.0346L169.706 51.3633L170.912 52.8427L171.328 51.0346ZM172.402 50.6291L171.196 50.4976L171.887 51.6373L172.402 50.6291Z" fill="#CDE8DD"/>
<path d="M171.076 52.1414L172.062 52.2729L171.821 51.5058L171.076 52.1414ZM168.862 49.9496L168.27 49.588L168.073 50.3551L168.862 49.9496ZM168.917 51.177L169.575 50.4647L168.698 50.2236L168.917 51.177ZM167.821 55.2865L168.621 55.7249L168.588 55.0674L167.821 55.2865ZM167.909 52.3277L168.742 52.7003L168.665 52.0428L167.909 52.3277ZM166.725 54.9578L167.306 54.355L166.495 54.1907L166.725 54.9578ZM166.353 49.7743L165.695 50.7277L166.868 50.5743L166.353 49.7743ZM167.416 52.2291L166.977 52.9085L167.788 52.777L167.416 52.2291ZM168.292 52.9961L167.81 53.6537L168.632 53.566L168.292 52.9961ZM169.246 53.9496L168.775 54.6071L169.596 54.5304L169.246 53.9496ZM168.917 51.2099L169.761 51.5825L169.618 50.7715L168.917 51.2099ZM172.259 52.3058L173.925 51.9003L172.829 50.9469L172.259 52.3058Z" fill="#CDE8DD"/>
<path d="M170.911 52.8537L170.692 53.9276L171.679 53.7742L170.911 52.8537ZM168.775 52.0427L169.542 51.7469L168.906 51.1989L168.775 52.0427ZM168.961 49.0182L168.939 49.3798L168.665 49.1387L168.391 49.5223L168.895 49.4784L168.742 50.1579L169.98 49.5551L168.961 49.0182ZM166.988 50.7277L167.832 51.0565L167.777 50.2894L166.988 50.7277Z" fill="#CDE8DD"/>
<path d="M168.259 48.5469L167.339 48.3497L167.953 47.8785L167.186 47.6374L167.24 48.2949L166.78 48.1853L167.218 49.9387L168.259 48.5469ZM168.04 50.7387L166.988 51.3633L168.084 52.0866L168.128 52.3387L168.742 51.9332L168.161 51.4948L168.04 50.7387Z" fill="#CDE8DD"/>
<path d="M166.375 46.2456L168.347 47.3415L165.717 49.0949L166.375 46.2456ZM170.32 48.5469L172.511 50.3003L169.991 51.2208L170.32 48.5469ZM175.799 53.5003L176.654 54.2674L175.361 54.6728L175.799 53.5003ZM170.451 62.7603L170.144 62.1686L169.881 62.7165L170.451 62.7603ZM176.007 62.0809L176.15 62.8699L176.588 62.2891L176.007 62.0809ZM165.52 63.7685L165.608 64.5795L166.09 64.0315L165.52 63.7685ZM180.259 62.2891L179.678 61.4782L179.437 62.4645L180.259 62.2891ZM177.903 60.6672L177.048 61.2809L178.078 61.533L177.903 60.6672ZM178.922 60.8426L179.361 60.2618L178.561 60.1741L178.922 60.8426ZM180.752 59.5714L180.5 60.2946L181.18 60.207L180.752 59.5714ZM179.328 63.5165L179.284 64.0973L179.7 63.7028L179.328 63.5165ZM180.643 60.5138L179.525 60.6563L180.226 61.6973L180.643 60.5138ZM175.328 60.9522L175.142 60.4042L174.736 60.8097L175.328 60.9522ZM176.007 64.0864L175.24 64.3055L175.876 64.7987L176.007 64.0864ZM167.317 60.6453L166.517 60.7988L167.12 61.3467L167.317 60.6453ZM174.473 63.6371L175.087 63.3083L174.506 62.7056L174.473 63.6371ZM171.766 59.5495L170.846 60.4261L171.964 60.7549L171.766 59.5495ZM170.648 60.8645L170.232 61.0508L170.67 61.4891L170.648 60.8645ZM170.868 59.4618L170.21 58.9686L170.265 59.8015L170.868 59.4618ZM170.276 58.0371L169.585 57.5988L169.695 58.4207L170.276 58.0371ZM167.755 57.6755L168.161 59.0782L168.972 57.7632L167.755 57.6755ZM168.961 60.0207L169.651 60.2618L169.322 59.659L168.961 60.0207ZM171.964 61.6426L171.975 62.1576L172.325 61.8289L171.964 61.6426ZM177.848 63.1549L177.081 63.374L177.717 63.8562L177.848 63.1549Z" fill="#CDE8DD"/>
<path d="M177.706 66.1356L176.939 66.3548L177.596 66.837L177.706 66.1356ZM179.876 58.6618L178.944 58.4865L179.12 59.2097L179.876 58.6618ZM182.396 63.2864L182.221 62.5192L181.739 62.8918L182.396 63.2864ZM181.059 61.1165L181.465 60.7111L180.873 60.5577L181.059 61.1165ZM178.594 61.4015L178.155 61.6864L178.637 61.8508L178.594 61.4015ZM170.451 57.2372L170.123 58.081L170.78 57.9714L170.451 57.2372ZM170.944 56.6892L171.646 57.1276V56.2947L170.944 56.6892ZM172.259 58.5193L171.558 58.1139L171.733 58.9248L172.259 58.5193Z" fill="#CDE8DD"/>
<path d="M175.821 58.2015L175.383 59.7029L176.807 59.0454L175.821 58.2015ZM179.109 59.0344L178.287 60.7111L180.259 60.4261L179.109 59.0344Z" fill="#CDE8DD"/>
<path d="M177.772 57.7413L176.128 57.6865L176.972 59.418L177.772 57.7413ZM178.889 57.5878L177.728 57.1824L178.144 58.4536L178.889 57.5878Z" fill="#CDE8DD"/>
<path d="M177.268 58.7714L178.177 59.1221L178.122 58.3111L177.268 58.7714ZM175.602 56.8865L176.753 56.1194L175.602 55.4947V56.8865ZM173.355 61.0946L174.046 61.6864L174.155 61.0289L173.355 61.0946ZM174.122 58.2235L174.857 58.7714L174.933 58.1139L174.122 58.2235ZM171.492 59.944L172.227 59.5494L171.503 59.133L171.492 59.944ZM173.662 58.0262L173.092 58.5741L173.914 58.6289L173.662 58.0262ZM174.342 58.9577L173.728 59.4837L174.55 59.5933L174.342 58.9577ZM175.065 60.0864L174.451 60.6124L175.273 60.722L175.065 60.0864ZM175.372 57.3687L176.095 57.9166L176.15 57.0947L175.372 57.3687ZM178.495 58.6618L180.215 58.6399L179.383 57.4563L178.495 58.6618ZM176.928 59.4289L176.49 60.4152L177.476 60.4919L176.928 59.4289ZM175.043 58.1358L175.843 58.0262L175.339 57.3687L175.043 58.1358ZM172.873 55.6372L173.607 56.1851L173.717 55.418L172.873 55.6372ZM174.221 56.2947L173.059 56.6454L173.936 57.5988L173.914 57.8618L174.605 57.6098L174.133 57.0618L174.221 56.2947ZM177.618 55.2646L178.933 56.9413L176.928 57.1824L177.618 55.2646ZM181.563 61.0727L182.133 62.059H180.785L181.563 61.0727ZM168.599 47.4511L170.177 48.5689L168.117 49.0949L168.599 47.4511ZM190.1 77.0066L191.591 76.8094L190.933 75.7902L190.1 77.0066ZM193.881 78.1902L193.815 77.971L193.486 78.4093L193.048 77.7518L192.719 78.5409L193.486 78.4313L193.344 78.7052L194.067 78.8148L193.87 78.1792H194.67L194.122 77.5436L193.881 78.1902ZM213.3 62.7932L213.607 64.3713L214.735 62.9795L213.3 62.7932ZM216.259 63.0781L216.478 63.8453L216.993 63.122L216.259 63.0781ZM223.075 62.6617L224.061 63.8672L224.324 62.333L223.075 62.6617ZM220.839 67.6479L220.138 68.0863L220.905 68.3383L220.839 67.6479ZM220.017 71.1985L219.546 71.6697L220.149 71.7574L220.017 71.1985Z" fill="#CDE8DD"/>
<path d="M217.212 75.9327L216.719 76.3929L217.332 76.5025L217.212 75.9327ZM213.848 79.2203L213.354 79.6258L213.935 79.7573L213.848 79.2203ZM217.289 69.6862L216.817 70.1684L217.431 70.2451L217.289 69.6862ZM218.034 67.1438L217.574 67.6151L218.176 67.6917L218.034 67.1438ZM213.19 63.9658L213.223 64.1521L213.333 64.7L213.519 64.6672L213.661 65.4123L214.461 64.4809L213.826 64.2179L213.19 63.9658ZM217.464 63.7466L217.026 63.8562L217.486 64.3822L217.552 64.0535L218.648 63.9219L217.617 63.0672L217.464 63.7466ZM225.157 60.4042L226.253 61.9165L226.91 60.0535L225.157 60.4042ZM192.369 76.119L192.566 75.5053L191.843 75.7902L192.423 76.3382L192.336 77.3792L193.651 76.7217L192.369 76.119ZM217.968 62.0371L218.68 63.637L219.469 62.0809L217.968 62.0371ZM223.82 60.8097L222.834 62.1576L224.73 62.4316L223.82 60.8097ZM215.798 62.3658L215.985 62.1905L215.327 61.8946L215.283 62.6179L214.702 63.122L215.798 63.6699V62.3658ZM196.456 78.771L195.623 77.7628L194.878 78.9354L196.456 78.771Z" fill="#CDE8DD"/>
<path d="M212.598 69.8725L212.434 69.215L211.743 69.6205L212.598 69.8725ZM224.039 59.6481L223.141 60.4919L224.456 60.7111L224.039 59.6481ZM214.396 66.2671L214.439 65.5438L213.782 65.7192L214.396 66.2671ZM224.204 61.7741L224.993 61.1823L224.28 60.7988L224.204 61.7741ZM220.861 61.5001L220.171 61.5768L220.499 62.311L220.861 61.5001ZM218.604 69.4123L219.316 68.9739L218.571 68.8205L218.604 69.4123ZM216.554 66.5849L217.278 66.1685L216.511 66.0041L216.554 66.5849ZM211.842 60.9741L209.683 61.5549L211.415 62.5192L211.842 60.9741ZM193.826 76.645L194.626 77.1272L194.648 76.2724L193.826 76.645ZM195.799 80.0093L196.851 80.612V79.5162L195.799 80.0093ZM195.601 73.8724L194.418 73.2697L194.506 73.9053L193.41 73.9492L194.012 74.8697L194.495 74.0587L194.736 74.7163L195.601 73.8724ZM196.412 76.9957L195.021 77.4998L196.182 78.4203L196.412 76.9957ZM213.837 71.2972L214.275 71.1876L213.946 70.8259L213.837 71.2972ZM214.691 69.0506L215.13 68.9082L214.768 68.5465L214.691 69.0506ZM223.634 73.982L223.984 73.5437L223.404 73.5765L223.634 73.982ZM228.697 74.8587L228.982 74.3656L228.412 74.4752L228.697 74.8587ZM210.439 78.8039L210.79 78.3874L210.242 78.3984L210.439 78.8039ZM219.919 65.8507L220.247 65.4123L219.667 65.4562L219.919 65.8507ZM217.431 67.0123L217.793 66.574L217.201 66.6068L217.431 67.0123ZM216.379 62.1028L215.228 60.8754L215.064 61.1494L214.626 61.259L214.932 61.533L214.659 62.3001L216.379 62.1028ZM221.661 62.4097L221.738 61.4234L220.894 61.785L221.661 62.4097ZM224.795 66.1356L225.672 65.8397L225.157 65.4014L224.795 66.1356ZM222.165 63.7904L223.042 63.4836L222.527 63.0453L222.165 63.7904ZM211.459 66.1685L211.196 65.3247L210.67 66.0918L211.459 66.1685ZM222.965 66.4205L222.998 65.5877L222.275 65.9932L222.965 66.4205ZM220.028 64.7767L220.039 63.9548L219.327 64.3713L220.028 64.7767ZM217.65 62.4206L216.774 62.6398L217.431 63.2973L217.65 62.4206ZM219.009 62.8042L219.141 63.9658L219.93 63.0891L219.009 62.8042ZM221.179 64.185L221.289 64.9849L221.836 64.3603L221.179 64.185ZM223.009 64.2946L223.097 65.1055L223.645 64.4809L223.009 64.2946ZM224.357 64.3274L224.445 65.1384L224.993 64.5137L224.357 64.3274ZM191.558 85.0612L192.106 84.5133H191.404L191.558 85.0612ZM210.604 69.4451L210.746 69.8616L211.185 69.478L210.604 69.4451ZM195.919 80.623L195.645 81.3682L196.39 81.0942L195.919 80.623ZM214.724 67.363L214.176 67.9876L215.009 67.9986L214.724 67.363ZM194.779 81.7736L194.538 82.5408L195.273 82.2339L194.779 81.7736ZM211.163 66.8808L210.439 67.6808L211.535 67.7137L211.163 66.8808ZM215.634 65.6315L214.823 66.5521L216.061 66.574L215.634 65.6315ZM218.1 71.6369L217.245 72.5136L218.483 72.6012L218.1 71.6369ZM198.768 84.3051L198.352 85.401L199.481 84.9955L198.768 84.3051ZM214.768 74.0039L214.001 74.9026H215.206L214.768 74.0039ZM208.138 70.1465L208.796 71.0561L209.059 69.9602L208.138 70.1465ZM194.045 80.4696L193.651 81.7189L194.856 81.2038L194.045 80.4696ZM191.766 82.2449L193.037 82.6504L192.511 81.412L191.766 82.2449ZM189.158 78.6504L191.525 78.5409L190.078 76.9737L189.158 78.6504ZM219.272 67.7794L220.182 67.626L219.415 67.0233L219.272 67.7794ZM220.072 69.7081L220.993 69.6753L220.291 68.9739L220.072 69.7081ZM217.716 65.9493L218.637 65.8178L217.869 65.1932L217.716 65.9493ZM218.067 64.963L219.524 64.7658L218.319 63.7795L218.067 64.963ZM194.506 84.075L195.744 83.4174L194.319 82.9243L194.506 84.075ZM210.911 63.8891L211.349 64.8425L212.072 63.8562L210.911 63.8891ZM212.445 64.8425L211.875 65.4452L212.785 65.8288L212.445 64.8425ZM212.774 61.7741L212.061 62.7603L213.409 63.0453L212.774 61.7741ZM189.07 83.6914H188.369L188.763 84.3489L189.07 83.6914ZM222.165 62.322L223.042 62.0151L222.384 61.522L222.165 62.322ZM224.861 60.6015L225.782 59.155L224.335 59.2097L224.861 60.6015Z" fill="#CDE8DD"/>
<path d="M224.916 62.2015L225.573 63.0781L226.121 62.2343L224.916 62.2015ZM222.615 63.0234L222.965 62.2891L222.132 62.3439L222.615 63.0234ZM215.711 65.763L215.765 65.0398L214.998 65.2589L215.711 65.763ZM220.357 60.6892L220.554 60.996L220.193 60.9741V61.4453L220.565 61.1165L220.861 61.7412L221.464 60.5028L220.357 60.6892ZM219.875 63.2754L220.752 63.0234L220.237 62.4535L219.875 63.2754ZM196.84 82.2558L196.884 81.5545L196.412 82.0257L196.84 82.2558ZM223.535 70.3985L223.283 69.8835L222.932 70.3218L223.535 70.3985ZM221.146 65.763L220.883 65.237L220.554 65.6973L221.146 65.763ZM219.985 65.6534L219.732 65.1274L219.371 65.5658L219.985 65.6534ZM211.612 72.2615L211.985 71.9327L211.513 71.8232L211.612 72.2615Z" fill="#CDE8DD"/>
<path d="M215.426 71.0451L216.324 70.1684L215.064 69.9821L215.426 71.0451ZM218.56 66.1904L219.721 66.6836L219.415 65.4562L218.56 66.1904ZM223.634 68.7109L224.806 69.204L224.499 67.9767L223.634 68.7109ZM218.45 70.9684L219.623 71.4615L219.316 70.2232L218.45 70.9684ZM219.908 60.8316L219.075 61.27L219.239 60.5028L218.494 60.8316L218.965 61.2919L218.549 61.5111L219.995 62.5521L219.908 60.8316ZM187.832 81.1819L188.676 82.0586L189.158 80.8202L187.832 81.1819ZM190.396 79.5929L190.549 79.4394L190.002 79.3518L190.33 78.7381L189.476 78.8039L190.023 79.3518L189.552 79.3408L189.925 80.0531L190.319 79.6696L190.78 80.2942L191.021 79.4504L190.396 79.5929ZM190.615 80.7435L191.547 80.7545L191.251 80.1298L190.615 80.7435ZM191.656 79.1764L191.108 79.7025L191.963 79.812L191.656 79.1764ZM187.032 83.012L187.733 82.7928L187.295 82.3216L187.032 83.012ZM189.443 80.5682L189.191 81.412L189.98 81.1161L189.443 80.5682ZM196.61 84.5462L197.092 84.2613L196.544 84.1517L196.61 84.5462ZM219.656 78.486L220.237 78.4093L219.754 78.0806L219.656 78.486ZM226.154 79.9107L226.702 79.7134L226.176 79.4943L226.154 79.9107ZM217.135 71.2972L217.311 71.7136L217.596 71.2204L217.135 71.2972ZM216.478 68.3383L216.642 68.7767L216.949 68.2945L216.478 68.3383ZM215.13 73.467L215.623 73.5108L215.36 73.1492L215.13 73.467ZM211.404 76.4258L211.886 76.4916L211.645 76.108L211.404 76.4258ZM211.13 68.7328L211.612 68.7876L211.371 68.415L211.13 68.7328ZM195.185 74.8697L195.974 74.9793L195.645 74.245L195.075 74.8806L194.089 74.9135L194.703 76.0422L195.185 74.8697ZM215.086 63.2864L214.648 64.4151L215.941 64.3055L216.127 64.4809L216.346 63.7904L215.623 63.8124L215.086 63.2864ZM210.922 66.2452L211.064 67.0123L211.612 66.3548L210.922 66.2452ZM214.122 66.289L214.319 67.0561L214.845 66.3329L214.122 66.289ZM215.371 67.4287L215.042 67.5164L215.371 67.9L215.426 67.6479L216.226 67.5602L215.459 66.9246L215.371 67.4287Z" fill="#CDE8DD"/>
<path d="M194.56 86.2996L194.297 86.5188L194.736 86.7379L194.681 86.4968L195.338 86.1023L194.429 85.8503L194.56 86.2996ZM216.039 65.3028L215.711 65.3795L216.039 65.774L216.094 65.5219L216.894 65.4124L216.127 64.7877L216.039 65.3028ZM212.894 65.3466L213.091 65.1822L212.434 64.8534L212.368 65.5658L211.776 66.0589L212.839 66.6397L212.894 65.3466ZM212.401 68.4479L212.511 67.7575L211.766 67.889L212.401 68.4479ZM212.182 66.289L211.711 67.4068L213.026 67.3411L213.201 67.5164L213.453 66.826H212.73L212.182 66.289ZM217.475 64.0754L216.27 64.2946L217.037 65.3575L216.982 65.5986L217.705 65.4452L217.311 64.8425L217.475 64.0754ZM221.201 62.5741L220.872 63.7466L222.154 63.5275L222.352 63.6918L222.527 62.9795L221.804 63.0672L221.201 62.5741ZM194.922 76.2286L196.127 75.7573L194.922 75.0669V76.2286Z" fill="#CDE8DD"/>
<path d="M194.451 77.4011L196.204 76.8313L195.054 75.8888L194.451 77.4011ZM212.62 62.9905L212.116 63.2754H211.755L211.93 63.4617L211.864 63.6042L212.116 63.637L212.149 63.7466L212.116 63.637L212.555 63.8562L212.62 62.9905ZM188.314 80.7435L188.358 80.8531L189.048 80.7874L189.64 80.7655L188.928 79.1655L188.073 80.7435H188.314Z" fill="#CDE8DD"/>
<path d="M189.651 79.7025L189.344 79.0778L188.949 79.7682L189.651 79.7025ZM192.5 78.5518L191.733 78.6943L192.259 79.2422L192.5 78.5518ZM187.81 82.5736L188.577 83.3407L188.971 82.2011L187.81 82.5736ZM191.163 85.7955L190.834 86.2557L191.382 86.3325L191.163 85.7955ZM217.968 61.3138L216.478 60.8754L216.741 62.6069L217.968 61.3138ZM193.136 83.5928L193.738 84.075L193.76 83.3079L193.136 83.5928ZM191.36 83.0777L191.974 83.5489L191.985 82.7819L191.36 83.0777ZM192.478 79.7901L191.788 79.5381L192.084 80.3271L192.478 79.7901Z" fill="#CDE8DD"/>
<path d="M190.396 81.0613L190.999 82.3106L191.711 81.4668L190.396 81.0613ZM186.736 83.6914L187.13 84.5133L187.591 83.9654L186.736 83.6914ZM189.958 81.5654L189.114 82.5517L190.1 82.8366L189.958 81.5654ZM193.245 80.3162L191.711 79.9874L192.456 81.3901L193.245 80.3162ZM192.763 77.9929L192.16 76.6998L191.503 77.5765L191.393 76.8751L190.407 77.6203L191.13 77.982L190.911 78.6833L191.678 78.3545L191.514 78.2011L191.492 77.7409L192.763 77.9929ZM194.078 77.3792L193.223 77.3902L193.793 78.0477L194.078 77.3792ZM188.029 81.8942L187.481 81.8175L187.7 82.3654L188.029 81.8942ZM189.64 83.6476L190.1 83.812L189.958 83.3407L189.64 83.6476Z" fill="#CDE8DD"/>
<path d="M215.601 69.4013L216.204 69.6205L215.93 68.9958L215.601 69.4013ZM219.327 74.7163L219.908 75.0122L219.689 74.3546L219.327 74.7163ZM190.747 79.3737L191.295 78.8258L190.681 78.497L190.747 79.3737ZM189.673 80.2942L190.221 80.8421L190.385 80.0751L189.673 80.2942ZM193.245 80.8641L194.418 79.7244L192.5 78.9244L193.245 80.8641ZM190.977 75.5601L193.212 72.7108L194.012 76.1738L190.977 75.5601ZM212.018 60.985L214.691 60.3494L213.672 62.4316L212.018 60.985ZM216.642 59.9988L218.889 59.7467L217.76 62.7056L216.642 59.9988ZM221.179 59.4508L223.973 59.155L222.845 61.5658L221.179 59.4508ZM225.584 59.0892L227.634 59.0234L226.461 61.1604L225.584 59.0892ZM214.889 60.4042L216.62 59.9988L215.963 61.3138L214.889 60.4042ZM206.867 64.9849L207.492 66.4644L208.314 64.8754L206.867 64.9849Z" fill="#CDE8DD"/>
<path d="M209.848 64.6891L210.198 65.4014L210.56 64.5905L209.848 64.6891ZM206.977 66.1685L207.053 66.3438L207.272 66.8698L207.448 66.7932L207.744 67.5055L208.335 66.4096L207.656 66.2781L206.977 66.1685ZM209.212 64.0644L209.366 63.8453L208.653 63.6918L208.763 64.4151L208.303 65.0288L209.475 65.3356L209.212 64.0644ZM208.631 68.1959L208.522 67.4835L207.908 67.7904L208.631 68.1959Z" fill="#CDE8DD"/>
<path d="M205.081 63.4069L203.481 64.3055L205.19 65.6206L205.081 63.4069ZM209.749 63.7357L208.368 62.7494L208.259 63.0562L207.853 63.2754L208.204 63.4946L208.094 64.3055L209.749 63.7357ZM206.067 68.7986L205.662 68.0095L205.267 68.8534L206.067 68.7986ZM205.903 69.5219L205.322 70.4424L206.418 70.2889L205.903 69.5219ZM209.738 67.3301L209.124 68.3931L210.352 68.1739L209.738 67.3301ZM205.793 66.7164L206.407 67.5931L206.955 66.4972L205.793 66.7164ZM206.812 67.3082L206.352 67.9986L207.316 68.2178L206.812 67.3082ZM206.593 64.2398L206.067 65.3356L207.448 65.3685L206.593 64.2398Z" fill="#CDE8DD"/>
<path d="M209.815 67.4287L209.705 66.7055L208.993 67.0671L209.815 67.4287ZM208.719 65.1603L208.533 66.3658L209.782 65.9822L210.001 66.1247L210.089 65.3904L209.387 65.5658L208.719 65.1603ZM205.541 68.963L205.815 69.6862L206.253 68.941L205.541 68.963ZM208.39 68.3054L208.741 69.0287L209.103 68.2068L208.39 68.3054Z" fill="#CDE8DD"/>
<path d="M209.859 69.1602L209.552 69.3136L209.957 69.6205V69.3684L210.724 69.1164L209.848 68.6451L209.859 69.1602ZM210.056 66.9027L209.749 67.0562L210.166 67.363V67.1L210.933 66.8479L210.056 66.3877V66.9027ZM207.338 67.6917L207.503 67.4945L206.79 67.2972L206.845 68.0205L206.352 68.6013L207.503 68.9849L207.338 67.6917Z" fill="#CDE8DD"/>
<path d="M206.779 68.7438L206.516 69.9273L207.788 69.6315L208.007 69.7739L208.138 69.0616L207.426 69.1712L206.779 68.7438ZM211.218 65.4124L210.089 65.8507L211.042 66.7274V66.9904L211.7 66.6945L211.196 66.1685L211.218 65.4124ZM206.648 65.4343L206.209 65.8069L205.859 65.8617L206.078 66.0151L206.034 66.1685L206.286 66.1575L206.341 66.2671L206.286 66.1575L206.746 66.3L206.648 65.4343ZM211.141 62.6069L209.585 62.4973L210.209 64.1411L211.141 62.6069ZM205.201 63.3521L207.744 62.3001L207.086 64.5137L205.201 63.3521ZM207.941 62.3658L209.552 61.5987L209.179 63.0234L207.941 62.3658ZM219.152 59.7358L221.069 59.5166L219.897 61.27L219.152 59.7358ZM244.576 70.804L243.962 70.552L244.116 71.1438L244.576 70.804ZM239.403 79.4285L238.812 79.1217L238.921 79.7354L239.403 79.4285ZM237.036 71.5383L236.401 71.3191L236.598 71.8999L237.036 71.5383ZM234.582 75.2094L235.075 75.5163L234.965 74.9354L234.582 75.2094ZM247.107 67.1548L247.677 67.7246L247.699 66.9904L247.107 67.1548ZM226.724 66.5521L225.705 65.8507L225.815 67.1L226.724 66.5521ZM229.508 70.6287L228.467 69.752V71.1328L229.508 70.6287ZM251.315 64.6452L250.329 64.4261L250.8 65.3028L251.315 64.6452ZM247.885 64.6452L247.578 65.6534L248.565 65.2151L247.885 64.6452ZM224.905 71.2204L225.278 72.6451L226.121 71.33L224.905 71.2204ZM196.149 72.9738L197.223 74.1793L197.464 72.404L196.149 72.9738ZM198.451 71.5821L199.021 72.13L199.086 71.2314L198.451 71.5821ZM204.04 68.0972L205.464 68.7547L205.026 67.2424L204.04 68.0972ZM205.267 73.2259L204.873 73.9601L205.683 73.7848L205.267 73.2259ZM206.319 76.7327L206.144 77.3683L206.714 77.1491L206.319 76.7327ZM206.297 82.1791L206.122 82.8366L206.692 82.6175L206.297 82.1791ZM205.146 86.7379L204.927 87.3407L205.497 87.1653L205.146 86.7379Z" fill="#CDE8DD"/>
<path d="M203.108 76.8203L202.955 77.4779L203.503 77.2258L203.108 76.8203ZM202.418 74.256L202.275 74.9135L202.823 74.6615L202.418 74.256ZM196.61 74.0587L196.741 74.1903L197.125 74.6286L197.267 74.4971L197.782 75.0669L197.979 73.8615L197.289 73.9711L196.61 74.0587ZM199.788 71.5382L199.459 71.867L200.116 72.0862L200.007 71.7574L200.884 71.078L199.568 70.8807L199.788 71.5382ZM199.316 69.8068L200.763 70.7931L200.631 69.0616L199.316 69.8068ZM203.842 66.1137L203.557 67.7356L205.377 67.1657L203.842 66.1137ZM197.64 71.2204L197.716 70.9793L196.993 71.0889L197.322 71.7246L197.103 72.4588L198.308 72.3492L197.64 71.2204ZM199.426 79.4833L198.966 79.0011L198.56 79.6915L199.426 79.4833ZM203.568 64.9849L203.13 66.1356L204.412 65.763L203.568 64.9849ZM198.823 75.3957L198.494 74.7382L198.012 75.2313L198.823 75.3957ZM201.815 67.7904L201.267 68.1959L201.925 68.6781L201.815 67.7904ZM204.083 75.8998L204.467 75.1656L203.744 75.4176L204.083 75.8998ZM200.873 74.5409L201.256 73.8067L200.533 74.0587L200.873 74.5409ZM194.593 72.2067L193.388 73.0067L194.659 73.5985L194.593 72.2067ZM201.015 79.9874L201.322 79.6586L200.851 79.5162L201.015 79.9874ZM200.577 77.6094L200.873 77.2587L200.368 77.1491L200.577 77.6094Z" fill="#CDE8DD"/>
<path d="M209.826 78.1682L209.935 77.6203L209.431 77.9052L209.826 78.1682ZM202.012 88.305L202.122 87.7571L201.64 88.053L202.012 88.305ZM203.185 72.0643L203.262 71.4944L202.779 71.8232L203.185 72.0643ZM201.87 74.4752L201.947 73.9272L201.464 74.256L201.87 74.4752ZM198.056 70.7273L196.412 70.267V70.5958L196.084 70.9246L196.489 70.9903L196.664 71.8012L198.056 70.7273ZM203.01 68.2287L202.593 67.352L202.045 68.0863L203.01 68.2287ZM203.722 69.5657L204.357 68.9082L203.7 68.7547L203.722 69.5657ZM196.653 76.8313L195.996 76.2286L195.908 77.1601L196.653 76.8313ZM205.946 71.6807L205.618 70.9136L205.146 71.604L205.946 71.6807ZM202.549 71.1108L202.133 70.3985L201.749 71.1328L202.549 71.1108ZM199.284 70.3438L198.648 71.0013L199.547 71.2204L199.284 70.3438ZM200.664 69.9602L201.377 70.8807L201.596 69.7081L200.664 69.9602ZM203.47 69.9931L203.963 70.6506L204.116 69.8397L203.47 69.9931ZM205.059 69.7739L205.497 70.4533L205.716 69.6643L205.059 69.7739ZM197.53 80.1298L197.859 80.4148L198.056 79.8668L197.53 80.1298ZM199.722 76.2176L199.579 77.0286L200.303 76.6121L199.722 76.2176ZM196.73 77.5984L196.489 78.6614L197.475 78.1573L196.73 77.5984ZM199.612 74.245L199.393 75.4505L200.467 74.8258L199.612 74.245ZM204.829 78.0806L204.555 79.286L205.651 78.7162L204.829 78.0806ZM203.207 81.8394L203.02 83.012L204.04 82.3873L203.207 81.8394ZM198.297 81.149L199.327 81.6093L198.999 80.5134L198.297 81.149ZM203.93 74.1683L204.653 73.5875L203.667 73.445L203.93 74.1683ZM205.596 75.4505L206.363 74.9573L205.409 74.7053L205.596 75.4505ZM201.541 73.4231L202.264 72.8423L201.278 72.6999L201.541 73.4231ZM200.971 72.3054L202.111 71.3848L200.577 71.1657L200.971 72.3054ZM195.678 74.9902L196.555 75.593L196.686 74.3875L195.678 74.9902ZM196.84 75.2094L196.643 76.0094L197.629 75.8998L196.84 75.2094ZM195.59 72.3821L195.459 73.5875L196.774 73.1492L195.59 72.3821ZM203.042 68.2506L203.678 67.5931L202.867 67.4397L203.042 68.2506Z" fill="#CDE8DD"/>
<path d="M203.744 68.6342L203.733 67.8232L203.01 68.2287L203.744 68.6342ZM199.711 74.2779L199.382 73.6423L198.834 74.2122L199.711 74.2779ZM200.971 67.352L201.3 67.5055L200.971 67.6698L201.223 68.0753L201.377 67.5822L201.947 67.9876L201.859 66.6068L200.971 67.352ZM201.826 69.8177L202.484 69.1602L201.749 68.941L201.826 69.8177ZM208.182 74.9902L207.722 74.6395L207.612 75.1875L208.182 74.9902ZM204.215 71.341L203.722 71.0122L203.645 71.5821L204.215 71.341ZM202.955 71.8561L202.462 71.5273L202.396 72.0972L202.955 71.8561ZM199.777 82.0476L199.941 81.5874L199.47 81.7298L199.777 82.0476ZM202.242 78.9792L202.538 77.7518L201.377 78.245L202.242 78.9792ZM202.396 73.193L203.645 72.9957L202.747 72.1191L202.396 73.193ZM207.327 72.1848L208.598 72.1191L207.777 71.1328L207.327 72.1848ZM204.752 77.3135L206.012 77.1272L205.103 76.2505L204.752 77.3135ZM200.368 67.8123L199.897 68.6232L199.645 67.9L199.163 68.5575L199.821 68.7109L199.579 69.1164L201.355 69.2589L200.368 67.8123ZM209.618 83.264L210.078 82.9024L209.508 82.8585L209.618 83.264ZM213.124 83.527L213.563 83.1435L212.993 83.1325L213.124 83.527ZM203.81 78.2998L204.193 78.5518L204.171 77.982L203.81 78.2998Z" fill="#CDE8DD"/>
<path d="M201.738 76.0861L202.1 76.371L202.111 75.8012L201.738 76.0861ZM203.24 81.1819L203.678 80.9627L203.272 80.7764L203.24 81.1819ZM201.662 85.7845L202.1 85.6092L201.705 85.39L201.662 85.7845ZM197.629 79.2312L198.089 79.045L197.684 78.8258L197.629 79.2312ZM197.936 72.5465L198.155 73.7519L199.196 72.9848L199.448 73.0286L199.284 72.3163L198.681 72.7108L197.936 72.5465ZM196.226 77.2039L196.719 77.7847L196.873 76.9409L196.226 77.2039ZM198.67 75.6258L199.24 76.1738L199.305 75.2971L198.67 75.6258ZM200.314 75.9327L200.073 76.1847L200.566 76.3382L200.478 76.0971L201.114 75.6039L200.127 75.4505L200.314 75.9327ZM199.766 73.741L199.525 73.982L200.007 74.1355L199.93 73.8944L200.566 73.4012L199.579 73.2588L199.766 73.741ZM197.464 75.3848L197.574 75.1437L196.84 75.1875L197.136 75.845L196.862 76.5573L198.067 76.5354L197.464 75.3848ZM198.56 78.3436L198.308 77.6861L197.727 78.1792L198.56 78.3436ZM197.3 76.5902L197.442 77.7956L198.538 77.0943L198.779 77.1601L198.67 76.4368L198.045 76.7984L197.3 76.5902ZM200.347 71.9547L199.426 72.7437L200.631 73.2588L200.708 73.4999L201.256 73.0067L200.599 72.678L200.347 71.9547ZM202.264 68.8862L202.483 70.0917L203.546 69.3246L203.798 69.3794L203.634 68.6671L203.031 69.0616L202.264 68.8862ZM196.062 73.5108L195.755 74.004L195.448 74.1793L195.689 74.256L195.7 74.4094L195.941 74.3218L196.018 74.3984L195.941 74.3218L196.423 74.2998L196.062 73.5108ZM198.966 69.2369L197.464 69.6534L198.593 70.9903L198.966 69.2369Z" fill="#CDE8DD"/>
<path d="M201.519 77.445L202.155 77.3354L201.585 76.9409L201.519 77.445ZM207.459 80.0531L208.116 80.0093L207.601 79.5709L207.459 80.0531ZM193.815 71.9876L195.766 70.0479L195.985 72.3492L193.815 71.9876ZM197.147 68.7876L198.867 67.3191L199.601 70.3876L197.147 68.7876Z" fill="#CDE8DD"/>
<path d="M200.785 65.8945L203.174 64.4041L203.207 67.0781L200.785 65.8945ZM195.875 70.0369L197.147 68.7876L197.256 70.2451L195.875 70.0369Z" fill="#CDE8DD"/>
<path d="M199.437 67.1L201.004 65.9603L200.851 68.0753L199.437 67.1ZM209.168 72.3382L210.045 73.5218L210.341 71.9876L209.168 72.3382ZM249.332 64.4699L249.266 63.7357L248.609 64.2069L249.332 64.4699ZM249.847 62.3001L250.143 63.0124L250.581 62.4864L249.847 62.3001ZM251.052 65.7302L251.776 66.6507L251.841 65.511L251.052 65.7302ZM234.088 83.2092L234.329 83.7353L234.494 83.1873L234.088 83.2092ZM242.833 73.7848L242.899 74.2889L243.228 73.9382L242.833 73.7848ZM250.373 63.0672L249.65 63.922L250.855 64.2179L250.373 63.0672ZM246.252 66.6397L245.792 66.311L245.683 66.8589L246.252 66.6397ZM248.795 68.5246L248.313 69.1602H249.113L248.795 68.5246ZM247.063 69.3355L247.392 68.7219L246.57 68.5575L247.063 69.3355ZM243.535 67.4726L243.37 68.7328L244.444 68.2945L243.535 67.4726ZM236.335 77.8833L236.905 77.8614L236.499 77.445L236.335 77.8833ZM236.258 65.3904L237.025 65.6753L236.751 64.9959L236.258 65.3904ZM242.921 69.226L242.702 69.6205L243.316 69.7081L242.921 69.226ZM242.285 67.9657L241.463 67.9438L241.979 68.6013L242.285 67.9657ZM240.97 67.1329L240.148 67.1548L240.696 67.7685L240.97 67.1329ZM237.825 68.2616L238.899 69.2479V67.6917L237.825 68.2616ZM241.036 69.4999L241.737 69.3027L241.113 68.9958L241.036 69.4999ZM241.387 71.9985L241.891 72.0862L241.672 71.6478L241.387 71.9985ZM237.716 70.0479L238.121 70.4533L238.099 69.8835L237.716 70.0479ZM239.064 73.0506L239.392 73.456L239.502 72.9957L239.064 73.0506ZM244.981 68.952L245.31 69.3355L245.376 68.8753L244.981 68.952ZM236.247 68.6232L235.951 68.4589L235.918 68.963L236.138 68.8205L236.773 69.3136L236.664 68.3274L236.247 68.6232ZM238.001 66.3877L237.716 67.1548L238.483 66.9356L238.001 66.3877ZM249.288 66.6507L248.795 67.3082H249.606L249.288 66.6507ZM248.926 62.1576L248.115 62.6508L248.729 63.0891L248.926 62.1576ZM253.913 64.0425L252.762 63.2316L252.543 64.3275L253.913 64.0425ZM251.063 63.2206L251.096 62.6508L250.548 62.9357L251.063 63.2206ZM249.419 65.0836L249.288 65.5767L249.759 65.3795L249.419 65.0836ZM228.083 62.2124L228.094 63.0124L228.773 62.4316L228.083 62.2124ZM235.064 62.4535L235.962 63.7466L236.357 62.2124L235.064 62.4535ZM232.51 67.6479L231.743 67.9767L232.477 68.3493L232.51 67.6479ZM229.639 72.7546L229.036 73.0286L229.584 73.3245L229.639 72.7546ZM227.447 68.963L226.867 69.2917L227.436 69.5328L227.447 68.963ZM228.817 66.574L228.269 66.9247L228.839 67.1438L228.817 66.574ZM229.069 63.1329L228.609 63.1439L228.938 63.7576L229.091 63.4288L230.187 63.5713L229.387 62.4754L229.069 63.1329ZM237.858 60.5577L238.625 62.2562L239.644 60.5686L237.858 60.5577ZM230.351 61.5439L230.834 63.2316L231.82 61.8069L230.351 61.5439ZM235.918 60.5577L234.844 61.8179L236.707 62.2562L235.918 60.5577Z" fill="#CDE8DD"/>
<path d="M227.82 61.4015L228.039 61.2919L227.458 60.8535L227.239 61.5439L226.56 61.9056L227.491 62.6727L227.82 61.4015ZM236.554 59.5823L235.513 60.2399L236.751 60.722L236.554 59.5823ZM236.444 61.7302L237.288 61.2371L236.631 60.7768L236.444 61.7302ZM233.31 61.1275L232.62 61.0837L232.817 61.8727L233.31 61.1275ZM228.817 69.2917L229.639 69.1602L228.982 68.7438L228.817 69.2917ZM227.568 65.6973L228.357 65.4562L227.667 65.1274L227.568 65.6973ZM233.025 74.9026L233.486 74.5738L232.916 74.4314L233.025 74.9026ZM237.157 77.0614L237.595 76.6998L237.014 76.5902L237.157 77.0614Z" fill="#CDE8DD"/>
<path d="M231.929 65.7302L232.368 65.3356L231.787 65.2918L231.929 65.7302ZM228.313 66.3329L228.751 65.9822L228.182 65.8726L228.313 66.3329ZM228.455 61.3138L227.623 59.8453L227.403 60.0645H226.943L227.162 60.3933L226.724 61.0837L228.455 61.3138ZM233.935 62.1686L234.187 61.2261L233.288 61.4453L233.935 62.1686ZM235.94 66.2233L236.839 66.0589L236.401 65.5548L235.94 66.2233ZM233.683 63.7028L234.592 63.5932L234.187 63.0453L233.683 63.7028ZM234.318 66.5521L234.472 65.7302L233.705 66.037L234.318 66.5521ZM232.039 64.5795L232.181 63.7576L231.414 64.0864L232.039 64.5795ZM229.606 61.9165L228.697 61.9275L229.168 62.7165L229.606 61.9165ZM231.327 62.4973L231.294 63.659L232.203 62.8918L231.327 62.4973ZM233.168 63.8453L233.146 64.6562L233.77 64.1302L233.168 63.8453ZM234.483 64.1959L234.461 65.0069L235.096 64.4809L234.483 64.1959ZM236.236 64.2507L236.258 65.0617L236.861 64.4918L236.236 64.2507ZM227.075 64.185L225.979 64.7548L227.129 65.226L227.075 64.185ZM230.943 67.4726L231.864 67.4835L231.206 66.7603L230.943 67.4726ZM232.105 69.6424L233.025 69.6643L232.368 68.9301L232.105 69.6424Z" fill="#CDE8DD"/>
<path d="M228.839 65.3247L229.76 65.4343L229.168 64.6452L228.839 65.3247ZM230.066 64.4699L231.535 64.4918L230.494 63.3192L230.066 64.4699ZM233.99 62.2453L234.899 62.1576L234.373 61.522L233.99 62.2453ZM237.299 60.9083L238.373 59.5933L236.949 59.4837L237.299 60.9083ZM237.19 62.4973L237.738 63.4398L238.373 62.6727L237.19 62.4973ZM234.286 63.0234L234.79 62.3987L233.968 62.2562L234.286 63.0234ZM232.938 60.2289L233.091 60.5577L232.74 60.4809L232.675 60.9522L233.113 60.6782L233.299 61.3357L234.099 60.218L232.938 60.2289ZM232.039 62.6837L232.949 62.5741L232.532 61.9165L232.039 62.6837ZM234.264 70.4972L234.088 69.9492L233.672 70.3438L234.264 70.4972ZM232.872 65.3466L232.697 64.7987L232.28 65.1932L232.872 65.3466ZM231.886 65.4124L231.71 64.8644L231.294 65.2589L231.886 65.4124Z" fill="#CDE8DD"/>
<path d="M230.395 65.7521L231.491 66.4096L231.382 65.1494L230.395 65.7521ZM233.266 68.0534L234.362 68.7109L234.253 67.4506L233.266 68.0534ZM239.513 63.9439L238.987 63.2864L238.833 64.0973L239.513 63.9439ZM240.696 66.3877L240.916 67.2644L241.387 66.7932L240.696 66.3877ZM240.773 65.6534L241.606 65.5986L241.124 64.9192L240.773 65.6534ZM242.888 66.3877L242.088 66.4644L242.691 67.0123L242.888 66.3877ZM239.239 61.8398L239.513 63.2206L240.39 62.0152L239.239 61.8398ZM236.751 64.2946L236.938 65.1932L237.507 64.3932L236.751 64.2946ZM236.423 66.4096L236.916 66.1137L236.444 65.7849L236.423 66.4096ZM238.779 64.7658L238.307 65.9384L239.535 65.6096L238.779 64.7658ZM226.121 72.393L227.108 73.1601L227.13 71.8999L226.121 72.393ZM232.291 60.4042L231.414 60.733L231.677 60.0097L230.91 60.207L231.316 60.7549L230.877 60.9193L232.16 62.1576L232.291 60.4042ZM228.719 78.1573L229.31 78.1792L228.894 77.7847L228.719 78.1573ZM232.006 80.2723L232.587 80.2504L232.149 79.8778L232.006 80.2723ZM227.239 67.5274L227.228 67.9876L227.699 67.6589L227.239 67.5274ZM226.91 62.1576L226.231 63.1439L227.513 63.3411L227.656 63.5603L228.039 62.9466L227.338 62.7932L226.91 62.1576ZM227.371 64.2946L227.042 64.3055L227.261 64.7439L227.371 64.5247L228.182 64.6343L227.59 63.8453L227.371 64.2946ZM229.047 63.4507L227.842 63.3631L228.335 64.5685L228.225 64.7877L228.96 64.8096L228.74 64.1302L229.047 63.4507ZM232.971 62.2124L232.368 63.2754L233.683 63.3521L233.836 63.5713L234.165 62.9138L233.442 62.8261L232.971 62.2124ZM230.176 60.8754L228.828 60.1084L228.686 61.8617L230.176 60.8754Z" fill="#CDE8DD"/>
<path d="M229.135 74.3327L229.661 74.7163L229.551 74.0368L229.135 74.3327ZM229.299 59.0454L231.568 59.0125L230.143 61.8617L229.299 59.0454ZM233.792 59.1001L236.609 59.3193L235.042 61.4891L233.792 59.1001ZM238.57 59.5056L240.598 59.8344L239.031 61.6973L238.57 59.5056Z" fill="#CDE8DD"/>
<path d="M227.414 59.0454L229.201 59.0673L228.258 60.1631L227.414 59.0454ZM231.908 59.0782L233.836 59.1878L232.379 60.722L231.908 59.0782ZM245.113 64.0754L245.595 65.5658L246.406 64.2179L245.113 64.0754ZM248.291 62.9795L248.795 64.7767L250.055 63.2425L248.291 62.9795Z" fill="#CDE8DD"/>
<path d="M240.565 61.9823L240.576 63.7357L241.924 62.6398L240.565 61.9823ZM246.45 62.6069L245.058 63.5055L246.724 64.448L246.45 62.6069ZM247.305 61.8398L246.099 62.1686L247.162 62.9795L247.305 61.8398Z" fill="#CDE8DD"/>
<path d="M246.614 63.7357L247.557 63.4946L247.063 62.859L246.614 63.7357ZM243.765 62.4973L243.085 62.3658L243.195 63.1658L243.765 62.4973ZM244.258 63.6261L244.609 62.7165L243.699 62.8261L244.258 63.6261ZM244.696 67.8671L245.606 67.9767L245.332 67.363L244.696 67.8671ZM243.71 65.0507L244.631 65.0945L244.302 64.5028L243.71 65.0507ZM243.096 67.9767L243.48 67.2315L242.647 67.3082L243.096 67.9767ZM241.19 63.1549L240.861 64.2507L241.935 63.7576L241.19 63.1549ZM242.943 65.1822L242.724 65.9493L243.458 65.5767L242.943 65.1822Z" fill="#CDE8DD"/>
<path d="M244.313 65.5329L244.094 66.3219L244.828 65.9493L244.313 65.5329ZM245.562 66.0589L245.343 66.8479L246.077 66.4644L245.562 66.0589ZM244.247 63.648L245.157 63.6918L244.74 62.9795L244.247 63.648ZM247.721 63.1768L249.08 62.1247L247.71 61.6864L247.721 63.1768ZM246.713 64.459L246.91 65.5548L247.787 65.0507L246.713 64.459ZM244.411 64.459L245.003 63.911L244.214 63.648L244.411 64.459ZM243.491 61.5549L243.6 61.9056L243.272 61.796L243.162 62.2343L243.622 62.0152L243.732 62.7056L244.663 61.6973L243.491 61.5549ZM242.088 63.8562L242.998 63.9329L242.713 63.2206L242.088 63.8562Z" fill="#CDE8DD"/>
<path d="M242.669 61.4015L241.727 61.4891L242.165 60.8645H241.354L241.606 61.4782L241.135 61.522L242.044 63.0562L242.669 61.4015ZM243.283 63.5165L242.516 64.4699L243.787 64.7439L243.918 64.963L244.357 64.3603L243.655 64.174L243.283 63.5165Z" fill="#CDE8DD"/>
<path d="M240.181 59.7577L242.406 60.218L240.4 62.6837L240.181 59.7577ZM244.598 60.6672L247.283 61.5111L245.277 63.2645L244.598 60.6672ZM251.458 62.859L252.554 63.2096L251.545 64.1083L251.458 62.859ZM250.34 73.4889L249.814 73.0834V73.6971L250.34 73.4889ZM255.786 70.6835L256.28 71.3191L256.389 70.5958L255.786 70.6835ZM245.661 76.6012L246.022 77.3244L246.274 76.634L245.661 76.6012ZM259.655 68.8862L258.756 68.4479L259.008 69.4342L259.655 68.8862ZM256.806 68.5575L256.334 69.5L257.365 69.2369L256.806 68.5575ZM257.792 68.2287L257.902 67.5055L257.156 67.8013L257.792 68.2287ZM258.8 66.2562L258.91 67.0233L259.458 66.6288L258.8 66.2562ZM259.392 70.3985L259.633 70.9465L259.797 70.3985H259.392ZM259.151 67.1329L258.23 67.7904L259.326 68.3821L259.151 67.1329ZM254.066 69.8506L253.671 69.4123L253.452 69.9602L254.066 69.8506ZM256.718 72.4588L256.126 73.0067L256.926 73.1382L256.718 72.4588ZM246.198 73.0286L245.518 73.467L246.285 73.7519L246.198 73.0286ZM255.162 72.7766L255.556 72.2067L254.767 71.9437L255.162 72.7766ZM250.23 70.0369L249.748 71.2095L250.899 71.067L250.23 70.0369ZM249.748 71.6807L249.452 72.0095L250.033 72.2287L249.748 71.6807ZM249.376 70.3109L248.565 70.1246L248.948 70.8698L249.376 70.3109ZM247.995 69.5219L247.195 69.3465L247.589 70.0808L247.995 69.5219ZM245.496 70.0917L246.373 71.2643L246.647 69.7301L245.496 70.0917ZM247.852 71.604L248.576 71.5383L248.028 71.1218L247.852 71.604ZM251.25 71.8561L251.469 72.3163L251.655 71.878L251.25 71.8561ZM257.902 70.7821L257.31 71.33L258.11 71.4615L257.902 70.7821ZM259.173 73.467L258.581 74.0149L259.381 74.1464L259.173 73.467ZM257.617 65.8397L256.718 66.1137L257.211 66.6836L257.617 65.8397ZM262 68.7547L261.496 68.163L261.233 68.7109L262 68.7547ZM259.786 67.4616L259.962 66.9137L259.37 67.0562L259.786 67.4616ZM257.726 68.8643L257.507 69.3246L258.011 69.2369L257.726 68.8643ZM248.083 68.4479L248.126 69.3575L248.674 68.9849L248.083 68.4479ZM248.302 67.7466L249.124 67.8562L248.795 67.089L248.302 67.7466ZM250.241 68.8643L249.441 68.7876L249.924 69.4451L250.241 68.8643Z" fill="#CDE8DD"/>
<path d="M253.408 67.1L253.628 68.6671L254.669 67.4835L253.408 67.1ZM257.134 66.5192L257.189 68.3821L258.778 67.2205L257.134 66.5192ZM255.326 66.0041L253.836 66.7274L255.37 67.8671L255.326 66.0041ZM256.258 65.3466L255.03 65.5329L255.995 66.4644L256.258 65.3466Z" fill="#CDE8DD"/>
<path d="M255.348 67.1438L256.313 67.0342L255.896 66.3438L255.348 67.1438ZM252.641 66.0041L253.376 64.8206L252.061 64.711L252.641 66.0041ZM252.313 70.7602L253.189 71.0342L253.025 70.3766L252.313 70.7602ZM251.852 67.8232L252.729 68.0424L252.532 67.4068L251.852 67.8232ZM250.154 70.4753L250.658 69.8177L249.836 69.7301L250.154 70.4753ZM251.359 67.8452L251.074 68.5904L251.841 68.3054L251.359 67.8452ZM252.367 68.426L252.017 69.1602L252.817 68.9191L252.367 68.426ZM253.485 69.1602L253.135 69.8944L253.924 69.6753L253.485 69.1602ZM252.652 66.563L253.529 66.7822L253.244 66.0151L252.652 66.563ZM256.411 66.4863L257.923 65.6644L256.63 65.0069L256.411 66.4863ZM255.37 67.8781L255.447 68.9739L256.356 68.5794L255.37 67.8781ZM252.652 67.3849L253.343 66.9685L252.619 66.563L252.652 67.3849ZM249.672 65.9932L250.548 66.1685L250.351 65.4343L249.672 65.9932ZM251.162 66.037L250.252 66.837L251.458 67.3411L251.546 67.5931L252.072 67.0781L251.414 66.7493L251.162 66.037ZM254.077 63.8891L256.017 64.7658L254.373 65.9164L254.077 63.8891ZM260.247 67.1767L261.233 67.7904L260.028 68.4041L260.247 67.1767ZM242.625 60.2727L244.488 60.7439L242.768 61.9713L242.625 60.2727Z" fill="#CDE8DD"/>
</svg>
