<svg width="40" height="14" viewBox="0 0 40 14" fill="none" xmlns="http://www.w3.org/2000/svg">
<path d="M15.9498 9.29501L15.3846 9.3578L15.6986 8.79257L15.9498 9.29501ZM13.0612 9.98584L12.4961 9.23221L13.3124 9.10659L13.0612 9.98584ZM18.6499 0.565233L19.6546 0L19.7802 1.3817L18.6499 0.565233ZM17.0801 2.51216L16.1381 1.82131L16.9545 1.31889V1.94693L17.2057 1.88412V2.07255L17.6452 2.00974L17.4568 2.63778L17.1429 2.13533V2.38657H17.0173L17.0801 2.51216ZM24.6782 2.76338L25.4945 3.26582L24.6782 3.89386V2.76338ZM23.7991 2.19814L24.5526 2.76338L23.6107 3.32863L23.7991 2.19814ZM21.9152 2.32376H22.8572L22.4804 3.32863L21.9152 2.32376ZM15.3846 3.57984L16.3265 3.45422L16.2637 3.51703L17.2057 3.39142L16.8289 4.45909L16.2637 3.57984L16.0754 4.45909L15.3846 3.57984ZM8.35163 7.34808L7.84927 6.65724L8.6028 6.53162L8.35163 7.34808ZM13.124 3.39142L13.8148 4.14507L12.7472 4.45909L13.124 3.39142ZM24.0503 6.90845L23.0455 6.59443L23.9247 5.96639L24.0503 6.90845ZM24.8038 4.33348L25.6829 3.70544L25.8713 4.6475L24.8038 4.33348ZM27.5668 7.91332L28.4459 7.22247L28.5715 8.22734L27.5668 7.91332ZM21.978 3.32863L22.606 4.08226L22.2292 4.20788L22.92 4.27069L22.4176 5.21275L21.978 4.33348L21.6641 4.45909L21.978 3.32863ZM19.9686 4.83592L18.9639 5.21275L19.3407 4.08226L19.9686 4.83592ZM34.0974 5.58956L34.7881 4.96152L34.9765 5.77798L34.0974 5.58956ZM32.7159 8.54136L31.8996 8.29015L32.6531 7.72491L32.7159 8.54136ZM37.2999 5.14994L36.4208 4.89873L37.1743 4.39628L37.2999 5.14994ZM11.2402 5.77798L11.8053 6.34321L10.989 6.65724L11.2402 5.77798ZM0.313926 11.9328L0.879074 12.498L-4.57891e-05 12.7492L0.313926 11.9328ZM1.00467 11.0535V11.8072L0.188327 11.4932L1.00467 11.0535ZM4.26998 9.86025L3.45365 10.1743L3.76762 9.29501L4.26998 9.86025ZM4.89793 12.5608L4.39557 12.3096L4.77234 12.0584L4.89793 12.5608ZM4.1444 11.2419L3.70483 10.9279L4.0816 10.6767L4.1444 11.2419Z" fill="#C4412C"/>
<path d="M3.2024 12.5609L3.01402 12.1213L3.57916 12.2469L3.2024 12.5609ZM1.13017 11.7444L1.0046 11.3048L1.50695 11.3676L1.13017 11.7444ZM11.5541 4.1451L12.3076 3.89389L12.3704 4.77314L11.5541 4.1451ZM14.0031 6.02923L14.945 5.84082L14.631 6.97129L14.0031 6.02923ZM15.3217 12.2469L15.5729 12.4353L15.6985 12.2469L15.7613 12.6865L15.5729 12.6237L15.2589 12.6865L15.3217 12.2469ZM13.5635 5.08717H14.317L14.0658 5.6524L13.5635 5.08717ZM11.0517 8.16457L10.4866 7.91336L10.9261 7.59934L11.0517 8.16457ZM5.14903 8.29019L5.58859 8.66702L5.27462 8.85542L5.02344 9.67187L4.45829 8.85542L5.02344 8.79262L5.14903 8.29019ZM2.44886 10.7396L1.94651 10.4883L2.32328 10.1743L2.44886 10.7396ZM6.53051 12.4981L6.34213 11.9956L6.90728 12.0584L6.53051 12.4981ZM25.3689 7.53653L25.4945 8.16457L24.8037 8.03898L25.3689 7.53653ZM21.4756 8.10176L21.2244 7.53653H21.7268L21.4756 8.10176ZM24.5525 12.0584L23.9246 12.2469L24.113 11.6816L24.5525 12.0584ZM21.7896 2.38659L22.0408 3.01463L21.35 2.95182L21.7896 2.38659ZM25.4317 6.21764L25.3061 6.90849L24.6781 6.46887L25.4317 6.21764ZM20.9105 2.19816L21.0988 2.88901L20.4081 2.7634L20.9105 2.19816ZM16.1381 3.14023L15.7613 2.6378L16.3265 2.51219L16.1381 3.14023ZM20.0313 6.59447L19.4034 6.84568L19.4662 6.34325L20.0313 6.59447ZM20.5337 1.82133L20.6593 1.2561L21.0988 1.57012L21.4756 0.502459L22.4803 1.50731L20.9732 2.07257L21.1616 1.63293L20.5337 1.82133ZM20.4709 12.9377L19.8429 13.0633L20.0941 12.3725L20.4709 12.9377ZM20.7221 9.04383L20.1569 8.72981L20.7221 8.5414V9.04383ZM16.6404 11.6188L16.2637 12.1213L16.1381 11.4932L16.6404 11.6188ZM21.2872 6.59447L20.5965 6.72008L20.8477 6.02923L21.2872 6.59447ZM23.0455 5.02436L23.4222 5.6524L22.8571 5.71521L23.0455 5.02436ZM30.8948 4.58474L31.2715 5.21278L30.6436 5.27557L30.8948 4.58474ZM28.8226 9.16945L28.5714 9.04383L28.8854 8.85542L28.9482 9.16945L29.4505 8.85542L29.3877 10.1115L28.1946 9.48347L28.8226 9.16945ZM27.2527 11.242L26.8131 11.7444L26.7503 11.1164L27.2527 11.242ZM33.5949 8.5414L33.3438 8.03898L33.9717 7.97617L33.5949 8.5414ZM26.4992 6.78289L26.8759 7.28532L26.3736 7.41093L26.4992 6.78289ZM29.3249 4.64753L29.9529 4.58474L29.5761 5.08717L29.3249 4.64753ZM24.6153 5.84082L24.4269 5.33838H24.9921L24.6153 5.84082ZM33.3438 4.77314L33.8461 4.52193V5.02436L33.3438 4.77314Z" fill="#C4412C"/>
<path d="M24.6781 4.7103L24.3642 5.02432L24.1758 4.45909L24.6781 4.7103ZM23.3595 2.19812L23.485 2.51214H23.1083L23.3595 2.19812ZM18.3359 4.5847L18.0847 4.33347L18.3987 4.20787L18.3359 4.5847ZM16.4521 8.35297L16.8916 8.54138L16.5149 8.79259L16.4521 8.35297ZM19.0894 9.48344L18.7755 9.35783L18.9638 9.04381L19.0894 9.48344ZM17.7707 6.40603L17.5196 6.09201H17.8963L17.7707 6.40603ZM13.6263 11.7444L13.1867 11.9956V11.556L13.6263 11.7444ZM14.4426 9.54625L14.1915 9.23223H14.631L14.4426 9.54625ZM9.60746 7.3481L10.047 7.59931L9.67025 7.78772L9.60746 7.3481ZM12.2448 8.54138L11.9309 8.41576L12.1192 8.10174L12.2448 8.54138ZM10.675 5.08713L11.0517 5.14994L10.9261 5.40115L10.675 5.08713ZM6.15376 8.98102L6.46773 9.10661L6.15376 9.35783V8.98102ZM8.35157 9.79747H8.0376L8.28877 9.54625L8.35157 9.79747ZM7.03288 7.09688H7.40965L7.22127 7.3481L7.03288 7.09688ZM24.8665 8.91821H25.1805L24.9921 9.23223L24.8665 8.91821ZM30.3296 10.1743L29.8273 9.67185L30.518 9.35783L30.3296 10.1743ZM33.7833 7.66212L33.3438 8.03895L33.281 7.3481L33.7833 7.66212ZM28.6342 5.96639L29.011 5.52677L28.383 5.33834L29.2621 4.64749L29.3249 5.33834L29.9529 6.0292L28.9482 6.34322L29.0738 5.96639H28.6342ZM29.0738 5.84079L29.1365 5.58956L28.9482 5.52677L29.0738 5.84079ZM21.4128 9.79747L20.9105 9.42064L21.6012 9.10661L21.4128 9.79747ZM24.427 7.66212L24.3642 7.03407L24.9293 7.3481L24.427 7.66212ZM20.0941 5.21275L20.2825 5.71518L19.7174 5.65237L20.0941 5.21275ZM36.1695 8.91821L36.0439 8.41576L36.6091 8.47857L36.1695 8.91821ZM35.6044 6.72005L35.416 6.15481L36.0439 6.28041L35.6044 6.72005ZM37.865 4.64749L38.1162 5.14994H37.6766L37.865 4.64749ZM36.0439 4.52189L35.9184 4.89872L35.4788 4.5847L36.0439 4.52189ZM30.2041 6.46884L30.3296 6.90846L29.8901 6.84565L30.2041 6.46884ZM25.1805 11.3048L24.4898 10.6767L25.4317 10.1743L25.1805 11.3048ZM28.1318 10.4255L27.7551 10.0487L28.2574 9.79747L28.1318 10.4255ZM26.4364 9.29504L27.0015 9.10661L26.876 9.73466L26.6876 9.60906V9.92308L26.248 9.60906L26.562 9.42064L26.4364 9.29504ZM34.9137 7.03407L34.1601 7.59931L33.9717 6.46884L34.9137 7.03407ZM38.2418 3.01459L39.1837 3.51702L38.4929 4.01945L38.2418 3.01459ZM39.4349 8.22735L38.5557 8.79259L38.4301 7.72493L39.4349 8.22735ZM40 6.53163L39.3093 7.28529L38.8069 6.34322L40 6.53163ZM32.9042 9.48344H32.4647L32.7786 9.16942L32.9042 9.48344ZM31.8367 11.0536L31.3344 10.5511L32.0251 10.1743L31.8367 11.0536ZM35.9812 9.42064L35.4788 9.79747L35.3532 9.04381L35.9812 9.42064ZM30.3924 7.28529L30.6436 7.91333H29.9529L30.3924 7.28529ZM11.9937 9.73466H11.3657L11.6169 9.23223L11.9937 9.73466ZM16.6404 9.42064L16.2637 9.04381L16.766 8.79259L16.6404 9.42064ZM14.945 2.44933L15.5729 2.63776L15.1334 3.203L14.945 2.44933ZM13.3751 5.84079V5.90358L13.9403 6.09201L13.5007 6.65724L13.3751 6.28041H13.0612L13.3751 5.84079ZM17.8963 5.58956L18.5243 5.27554L18.3987 5.90358L17.8963 5.58956ZM18.2103 3.07738L18.6499 3.76823L18.0219 3.83104L18.2103 3.07738ZM13.1867 4.7103L12.7472 5.14994L13.1239 5.33834L12.5588 5.65237L12.6844 5.02432V5.08713L12.6216 4.52189L13.1867 4.7103ZM12.2448 5.08713L11.8053 5.65237L11.6797 5.21275L11.1145 5.33834L11.4913 4.45909L11.9309 5.02432L12.2448 5.08713ZM10.2354 8.72978H9.60746L9.85863 8.22735L10.2354 8.72978ZM15.1962 7.66212L15.0078 8.22735L14.631 7.85052L15.1962 7.66212ZM12.9356 7.03407L13.1867 7.59931H12.496L12.9356 7.03407ZM8.72833 7.66212L9.23069 7.59931L9.1051 8.16455L8.72833 7.66212ZM12.9356 11.4932L12.3076 11.6816L12.4332 11.1792L12.9356 11.4932ZM10.4866 9.48344L9.85863 9.42064L10.2982 8.98102L10.4866 9.48344ZM10.2982 12.6865L9.79585 12.8749V12.4353L10.2982 12.6865ZM8.85393 6.97126L9.1051 7.3481L8.53996 7.5365L8.85393 6.97126ZM5.46302 8.16455L5.90258 7.97614L5.83979 8.54138L5.46302 8.16455ZM9.54466 10.5511L9.1051 10.8652L9.0423 10.4255L9.54466 10.5511ZM9.48187 6.09201L10.047 5.71518L9.48187 5.33834L10.1726 4.96151L10.2354 5.84079H10.1726L10.2354 6.78286L9.35628 6.15481L9.0423 6.59443L8.85393 5.84079L9.54466 6.0292L9.48187 6.09201ZM7.15847 9.16942L7.47244 9.67185H7.15847L7.09568 9.92308L6.78171 9.54625H6.97009L7.15847 9.16942ZM12.2448 9.16942L11.8681 8.79259L12.4332 8.54138L12.2448 9.16942ZM38.9325 7.47369L37.7394 7.28529L38.4301 6.65724L38.9325 7.47369ZM7.59804 7.4109L8.28877 8.66699L6.65612 8.79259L7.59804 7.4109ZM31.5855 6.28041V4.7103L32.8414 5.71518L32.7786 5.65237L33.7205 6.15481L32.967 6.72005L32.8414 5.84079L31.5855 6.28041ZM26.1224 3.51702L27.6923 4.08225L26.248 5.02432L26.1224 3.51702Z" fill="#C4412C"/>
</svg>
