<svg width="40" height="28" viewBox="0 0 40 28" fill="none" xmlns="http://www.w3.org/2000/svg">
<path d="M7.57853 0.350935L8.64241 1.77673L9.02624 0.0877258L7.57853 0.350935ZM9.26756 4.07991L9.35532 3.88247L8.82884 3.99215L8.93855 3.20249L8.17081 3.57538L8.82884 3.99215L8.53276 4.10183L9.00435 4.67213L9.26756 4.06893L9.88174 4.5844L9.89272 3.75086L9.26756 4.07991ZM14.7513 2.27025L14.51 3.80572L15.9906 2.9283L14.7513 2.27025ZM17.0545 3.4986L16.9229 4.26634L17.6686 3.82764L17.0545 3.4986ZM22.7356 5.45084L22.955 6.94241L23.9421 5.79083L22.7356 5.45084ZM19.3357 9.42107L18.546 9.5088L19.1273 10.0572L19.3357 9.42107ZM17.1751 12.141L16.5719 12.3604L17.0545 12.6894L17.1751 12.141ZM12.854 15.1241L12.2507 15.3435L12.7442 15.6725L12.854 15.1241Z" fill="#8FC9C9"/>
<path d="M10.101 17.6357L9.50874 17.877L10.0242 18.1731L10.101 17.6357ZM15.3654 9.68428L14.7622 9.92557L15.2776 10.2327L15.3654 9.68428ZM17.0105 7.74305L16.4073 7.98433L16.9228 8.29142L17.0105 7.74305ZM14.2248 3.26829L14.2029 3.44378L14.1151 3.99215L14.2906 4.02505L14.1809 4.74891L15.2009 4.16763L14.7183 3.72894L14.2248 3.26829ZM17.8221 4.54053L17.3834 4.47472L17.5809 5.11082L17.7783 4.83664L18.7873 5.16568L18.2169 4.01407L17.8221 4.54053ZM25.6968 5.13278L25.5432 6.92049L27.1883 5.98824L25.6968 5.13278ZM9.46489 1.51349L10.0133 1.18448L9.28944 0.932212L9.36615 1.69995L8.62037 2.42381L10.0461 2.7967L9.46489 1.51349ZM18.9189 3.23539L18.9298 4.91342L20.224 3.86055L18.9189 3.23539ZM24.2162 4.27732L22.7575 4.91342L24.1832 6.06502L24.2162 4.27732ZM16.8899 2.67604L17.1092 2.59929L16.6376 2.08382L16.3086 2.69799L15.6067 2.91732L16.3524 3.81667L16.8899 2.67604ZM10.5287 6.29533L10.6604 4.97922L9.31133 5.28631L10.5287 6.29533ZM12.0313 9.05913L12.0971 8.40107L11.3074 8.54365L12.0313 9.05913ZM25.6639 3.84957L24.4794 3.92635L25.3239 4.89149L25.6639 3.84957ZM14.1371 5.57147L14.4661 4.9573L13.808 4.84761L14.1371 5.57147ZM24.622 5.61535L25.5542 5.68115L25.28 4.9573L24.622 5.61535ZM21.7704 3.81667L21.1343 3.59734L21.1233 4.36504L21.7704 3.81667Z" fill="#8FC9C9"/>
<path d="M16.6158 9.95846L17.4054 9.84878L16.8132 9.41009L16.6158 9.95846ZM15.9248 6.70112L16.7145 6.59144L16.1222 6.15274L15.9248 6.70112ZM14.0274 0.142546L12.843 0.0109418L13.4242 1.56834L14.0274 0.142546ZM10.1888 2.93928L10.4082 3.83862L11.0223 3.24636L10.1888 2.93928ZM9.20176 6.72304L9.53078 7.89657L10.3204 7.12887L9.20176 6.72304ZM13.4132 2.2264L12.9965 0.976086L12.6126 1.48058L11.812 0.7348L11.5927 1.80963L12.503 1.59026L12.2068 2.21542L13.4132 2.2264ZM11.7681 5.01212L10.4191 4.38699L10.5946 5.85663L11.7681 5.01212ZM11.9327 10.2546L12.3714 10.2985L12.1959 9.83784L11.9327 10.2546ZM13.3256 8.12688L13.7642 8.17076L13.5888 7.71014L13.3256 8.12688ZM17.7454 15.3654L18.2499 15.168L17.7564 14.9158L17.7454 15.3654ZM21.0357 18.6557L21.5182 18.4034L20.9918 18.206L21.0357 18.6557ZM8.01726 16.9228L8.45598 16.5938L7.90761 16.4622L8.01726 16.9228ZM19.2589 7.49078L19.7415 7.23851L19.2151 7.04111L19.2589 7.49078ZM16.5171 7.42498L16.9996 7.17271L16.4842 6.9753L16.5171 7.42498ZM17.5042 2.70897L16.9558 1.17349L16.7035 1.34898L16.2648 1.28317L16.4293 1.64512L15.8809 2.2264L17.5042 2.70897ZM22.0666 4.94631L22.5272 4.13473L21.6498 4.10183L22.0666 4.94631Z" fill="#8FC9C9"/>
<path d="M21.8691 9.08108L22.7136 9.32237L22.5491 8.69721L21.8691 9.08108ZM21.4304 6.26243L22.3078 6.40501L22.0885 5.81276L21.4304 6.26243ZM12.2177 5.20956L12.2506 4.33214L11.4829 4.88051L12.2177 5.20956ZM20.882 8.82882L21.2988 8.14884H20.4982L20.882 8.82882ZM19.6756 6.43791L20.0046 5.72503L19.204 5.81276L19.6756 6.43791ZM18.5021 3.47668L17.6247 3.3341L17.9318 4.16764L18.5021 3.47668ZM19.544 4.33214L19.215 5.40697L20.2569 4.93537L19.544 4.33214ZM20.9369 6.30631L20.7175 7.05209L21.4304 6.72305L20.9369 6.30631ZM21.8581 6.8108L21.5291 7.52368L22.2969 7.2824L21.8581 6.8108ZM22.9549 7.50176L22.6259 8.20366L23.3936 7.96238L22.9549 7.50176ZM2.99405 7.76497L3.76178 7.68819L3.23537 7.22757L2.99405 7.76497ZM10.3203 8.02818V8.46691L10.8687 8.24754L10.3203 8.02818ZM9.19071 7.2824L8.49975 7.65529L9.23455 7.94045L9.19071 7.2824ZM14.0164 6.66822L13.2925 6.99723L14.0164 7.32628V6.66822ZM7.57845 7.39208L6.92043 7.80885L7.68816 8.06108L7.57845 7.39208ZM11.7132 5.76888L10.759 6.27341L11.779 6.6792L11.7132 5.76888ZM15.519 5.48375L14.4222 5.97726L15.519 6.49274V5.48375ZM15.3435 11.7133L14.2467 12.152L15.3106 12.7003L15.3435 11.7133ZM8.94939 11.8997L7.89655 12.4481L9.01526 12.8868L8.94939 11.8997ZM11.8558 13.1061L10.8139 13.6545L11.9106 14.0932L11.8558 13.1061ZM10.0681 9.26751L10.3971 10.3423L11.0223 9.39912L10.0681 9.26751ZM7.88557 5.90048L6.75589 6.5805L8.01718 6.99723L7.88557 5.90048ZM4.97916 5.73598L5.67012 6.87661L6.10884 5.5934L4.97916 5.73598ZM5.63725 0.965113L7.3372 2.93928L7.44685 0.44964L5.63725 0.965113ZM17.9209 8.86172L18.7653 9.11398L18.3485 8.25852L17.9209 8.86172ZM17.8111 10.8797L18.6227 11.2088L18.2937 10.3314L17.8111 10.8797ZM17.186 6.55854L18.0305 6.8108L17.6137 5.96629L17.186 6.55854ZM17.866 5.85664L19.215 6.25145L18.5569 4.90247L17.866 5.85664ZM5.82368 8.92752L7.19461 9.23461L6.44883 7.91853L5.82368 8.92752ZM12.9745 3.11477L13.0403 4.12376L14.0273 3.50958L12.9745 3.11477ZM13.5009 4.12376L12.7771 4.4528L13.4351 5.11082L13.5009 4.12376ZM14.8828 1.49156L13.8957 2.11672L14.9925 2.85152L14.8828 1.49156Z" fill="#8FC9C9"/>
<path d="M1.96316 5.056L1.43675 4.59535L1.29416 5.36309L1.96316 5.056ZM22.0776 5.00117L22.955 5.13278L22.6259 4.4199L22.0776 5.00117ZM25.324 5.07792L26.8923 4.60633L25.7956 3.72894L25.324 5.07792ZM24.3917 6.28435L24.3369 7.33722L25.2582 7.05209L24.3917 6.28435ZM22.1434 5.77986L22.7795 5.34116L22.0556 5.01212L22.1434 5.77986ZM15.4971 5.61535L15.8261 5.00117L15.0584 4.89149L15.4971 5.61535ZM21.6388 2.8954L21.6937 3.22441L21.3866 3.05991L21.2112 3.47668L21.6828 3.33409V3.99215L22.7027 3.15861L21.6388 2.8954ZM20.1692 4.93537L21.0466 5.06698L20.8273 4.36504L20.1692 4.93537ZM8.81785 9.0701L9.3114 8.56561L8.65337 8.60946L8.81785 9.0701ZM19.4235 12.3384L19.4673 11.7901L18.9519 11.9875L19.4235 12.3384ZM20.2789 7.62239V7.07401L19.7853 7.32628L20.2789 7.62239ZM19.2919 7.18369V6.63532L18.7983 6.88758L19.2919 7.18369Z" fill="#8FC9C9"/>
<path d="M10.3204 10.9894L10.7811 10.8139L10.3643 10.5507L10.3204 10.9894ZM13.194 10.1778L14.3346 9.7391L13.3036 9.08108L13.194 10.1778ZM17.8442 7.10691L18.6777 7.98433L18.897 6.7779L17.8442 7.10691ZM20.257 10.7481L20.9809 11.7133L21.3099 10.5507L20.257 10.7481ZM15.8919 11.2746L16.7364 12.152L16.9338 10.9455L15.8919 11.2746ZM20.9589 2.67604L20.0596 2.75282L20.4983 2.1606L19.7305 2.13864L19.9499 2.7309L19.5112 2.77477L20.3886 4.24441L20.9589 2.67604ZM2.73093 2.34703L2.78576 3.55346L3.97026 2.93928L2.73093 2.34703ZM5.69217 2.8296H5.91153L5.56056 2.39091L6.21859 2.13864L5.53861 1.62317L5.57154 2.39091L5.24253 2.08382L5.05604 2.85152L5.60441 2.81862L5.53861 3.58636L6.28439 3.10379L5.69217 2.8296ZM5.09995 3.84957L5.79091 4.46374L5.97733 3.80572L5.09995 3.84957ZM6.92052 3.34507L6.15278 3.38895L6.73409 4.01407L6.92052 3.34507ZM0.910359 3.21347L1.56838 3.50958L1.53551 2.85152L0.910359 3.21347ZM4.31025 2.9612L3.57545 3.44378L4.34319 3.72894L4.31025 2.9612ZM7.10695 10.6713L7.65533 10.781L7.32631 10.3423L7.10695 10.6713ZM13.852 18.3267L14.4004 18.5022L14.1152 18.0196L13.852 18.3267ZM15.4971 20.904L16.0455 21.0466L15.7493 20.6079L15.4971 20.904ZM14.5978 11.0552V11.4939L15.0365 11.1649L14.5978 11.0552ZM15.1791 8.20366L15.1461 8.64236L15.6068 8.34624L15.1791 8.20366ZM12.3604 12.7552L12.7991 12.9745L12.6894 12.5358L12.3604 12.7552ZM9.58561 14.8938L10.0243 15.0912L9.89274 14.6526L9.58561 14.8938ZM11.0443 7.52368L11.483 7.74305L11.3733 7.30432L11.0443 7.52368ZM12.3823 2.66509L12.8649 3.30119L13.15 2.55541L12.2946 2.59929L11.5707 1.91931L11.1979 3.14767L12.3823 2.66509ZM15.9139 3.26829L15.0913 4.09085L16.2758 4.49664L16.3855 4.71601L16.8571 4.20053L16.199 3.93733L15.9139 3.26829ZM11.6695 5.13278L11.5597 5.90048L12.2946 5.46179L11.6695 5.13278ZM13.8958 5.52759L13.7862 6.29533L14.521 5.85664L13.8958 5.52759ZM14.5539 6.99723L14.2249 6.94241L14.3674 7.414L14.51 7.19467L15.2558 7.43596L14.8391 6.58049L14.5539 6.99723ZM4.43088 10.6384L4.10187 10.6165L4.29928 11.0552L4.40899 10.8359L5.17673 10.9784L4.66122 10.1888L4.43088 10.6384ZM15.9797 5.35211L15.6507 5.30826L15.7933 5.76888L15.9358 5.57147L16.6816 5.79083L16.2648 4.94632L15.9797 5.35211ZM13.7423 4.69409L13.9836 4.62828L13.512 4.10183L13.183 4.71601L12.481 4.93537L13.2268 5.83468L13.7423 4.69409ZM12.3494 7.65529L12.6785 7.04111L11.9107 6.93143L12.3494 7.65529ZM12.7552 5.28631L11.9327 6.10887L13.1172 6.51466L13.2268 6.73402L13.6984 6.20757L13.0404 5.95534L12.7552 5.28631ZM17.6906 4.84761L16.5609 4.5515L16.8132 5.77986L16.6706 5.97726L17.3506 6.11985L17.241 5.43987L17.6906 4.84761ZM21.1454 4.75989L20.3228 5.58245L21.5073 5.98824L21.595 6.20757L22.0776 5.68115L21.4196 5.42889L21.1454 4.75989Z" fill="#8FC9C9"/>
<path d="M11.2637 3.39989L12.4372 3.91537L12.0862 2.57733L11.2637 3.39989Z" fill="#8FC9C9"/>
<path d="M10.0792 3.92635L11.7462 4.75989L11.5927 3.29025L10.0792 3.92635ZM14.3345 2.50059L13.7862 2.57734L13.4572 2.44573L13.5668 2.6651L13.4572 2.77478L13.6765 2.90638L13.6655 3.01606L13.6765 2.90638L13.9836 3.23539L14.3345 2.50059ZM3.36705 2.33605L3.33412 2.44573L3.90445 2.85152L4.36507 3.22442L4.82575 1.2722L3.14769 1.90834L3.36705 2.33605Z" fill="#8FC9C9"/>
<path d="M5.05595 2.43479L5.24245 1.77673L4.47471 2.03994L5.05595 2.43479ZM7.99523 3.42186L7.31525 3.02701L7.34818 3.79475L7.99523 3.42186ZM1.78766 3.367L1.84248 4.44182L2.89539 3.84957L1.78766 3.367ZM2.20443 8.00626L1.65605 8.14884L2.00702 8.56561L2.20443 8.00626ZM19.204 2.59929L18.0525 1.64513L17.6137 3.2683L19.204 2.59929ZM5.13273 7.64435L5.27531 8.41205L5.80173 7.84175L5.13273 7.64435ZM4.12374 6.08695L4.2773 6.85469L4.79274 6.28435L4.12374 6.08695ZM7.1398 4.3541L6.76688 3.71797L6.48171 4.4857L7.1398 4.3541Z" fill="#8FC9C9"/>
<path d="M4.73796 3.94827L4.37602 5.2863L5.47277 5.11082L4.73796 3.94827ZM0.24132 3.50958L0 4.387L0.712914 4.27731L0.24132 3.50958ZM4.07994 4.02505L2.7967 4.21151L3.34507 5.0889L4.07994 4.02505ZM7.39208 5.26438L6.44889 3.99215L6.09792 5.54955L7.39208 5.26438ZM8.64239 3.39989L9.11398 2.06186L8.01723 2.2264L8.42302 1.65607L7.21663 1.50254L7.47984 2.27024L6.8437 2.63219L7.61144 2.91732L7.60046 2.69799L7.90758 2.36895L8.64239 3.39989ZM9.9585 3.58636L9.30041 3.03798L9.2895 3.91537L9.9585 3.58636ZM2.42384 3.03798L2.07287 2.59929L1.87546 3.14766L2.42384 3.03798ZM2.48964 5.40696L2.73089 5.84566L2.9283 5.40696H2.48964Z" fill="#8FC9C9"/>
<path d="M13.9945 8.78494L14.4331 9.22363V8.56561L13.9945 8.78494ZM15.2009 14.8938L15.5848 15.3874L15.6616 14.7293L15.2009 14.8938ZM6.11984 2.90638L6.88757 2.8625L6.63528 2.20444L6.11984 2.90638ZM4.71597 2.8954L4.75988 3.66314L5.39595 3.19151L4.71597 2.8954ZM7.01918 5.68115L8.6643 5.59339L7.743 3.72894L7.01918 5.68115ZM9.32233 0.0877252L12.8319 0L10.8029 2.91732L9.32233 0.0877252ZM14.1919 0.120626L16.6376 0.427715L15.2777 2.12766L14.1919 0.120626ZM18.6118 0.888364L20.6627 1.54639L18.6227 3.80572L18.6118 0.888364ZM22.6369 2.13864L24.8962 3.37797L23.0097 4.69408L22.6369 2.13864ZM26.8374 4.46374L28.3729 5.6921L26.1794 6.51466L26.8374 4.46374Z" fill="#8FC9C9"/>
<path d="M16.7363 0.471592L18.4143 0.800603L17.3176 1.67802L16.7363 0.471592ZM20.9698 1.56834L22.7246 2.1606L20.9698 3.21346V1.56834ZM30.8625 25.5652L30.6102 24.973L30.3141 25.4775L30.8625 25.5652ZM25.4884 26.4755L25.1813 25.9052L24.94 26.4536L25.4884 26.4755ZM25.2032 20.1473L24.9839 19.544L24.6548 20.0376L25.2032 20.1473ZM24.9839 21.0795L25.2362 21.5621L25.4336 21.0356L24.9839 21.0795ZM34.1527 24.2272L34.0211 24.9949L34.6024 24.611L34.1527 24.2272ZM23.1304 10.3972L22.6917 9.30041L22.1214 10.3423L23.1304 10.3972ZM24.0078 15.0035L23.4375 13.83L22.8891 15.0364L24.0078 15.0035ZM37.761 25.7516L37.4978 24.8304L36.9494 25.631L37.761 25.7516ZM36.3352 23.5801L35.3701 23.8652L36.2146 24.4136L36.3352 23.5801ZM19.1931 13.1171L18.7105 14.4332L20.0924 13.8519L19.1931 13.1171ZM37.0372 23.9968L37.6294 23.613L36.9275 23.262L37.0372 23.9968ZM39.0991 23.4485L38.6384 24.0188L39.2745 24.1614L39.0991 23.4485ZM36.5217 26.5413L36.3023 27.0568L36.7959 26.8374L36.5217 26.5413ZM20.7285 27.4516L20.6736 28L21.0795 27.6271L20.7285 27.4516ZM28.4058 26.9581L28.1425 27.3639L28.5812 27.309L28.4058 26.9581ZM38.7152 24.2601L37.6514 24.0407L37.9474 25.2033L38.7152 24.2601ZM34.1088 23.3169V22.7685L33.6153 22.9878L34.1088 23.3169ZM34.1966 26.8703L33.4288 26.8923L33.9114 27.4955L34.1966 26.8703ZM32.8805 26.0807L33.5166 25.9271L33.1218 25.2362L32.8805 26.0807ZM32.1347 22.3188L31.1257 22.9988L32.1128 23.4923L32.1347 22.3188ZM23.942 23.6349L24.4136 23.931L24.3039 23.3827L23.942 23.6349ZM29.678 16.6157L30.007 17.3067L30.2483 16.6486L29.678 16.6157ZM31.2573 23.7994L30.8405 23.953L31.2353 24.3917L31.2573 23.7994ZM31.5863 22.4834L31.0051 21.935L30.9721 22.7356L31.5863 22.4834ZM31.2134 20.7066L30.6321 20.1582L30.5993 20.9589L31.2134 20.7066ZM28.9322 19.8511L29.0858 21.255L30.0728 20.1144L28.9322 19.8511ZM29.7657 22.7466L30.4019 23.0427L30.1386 22.4285L29.7657 22.7466ZM28.4496 24.7865L28.7786 25.1594L28.8883 24.6769L28.4496 24.7865ZM27.7038 21.6717L27.7806 22.2201L28.0877 21.7814L27.7038 21.6717ZM25.291 22.6588L25.1813 23.1414L25.5871 22.922L25.291 22.6588ZM31.9483 24.3478L31.8824 24.8414L32.2553 24.5891L31.9483 24.3478ZM26.8703 18.4692L26.8045 18.1402L26.4207 18.4363L26.6619 18.5021L26.7058 19.2699L27.3638 18.568L26.8703 18.4692ZM30.2483 18.4583L29.5573 18.8092L30.2593 19.1382L30.2483 18.4583ZM35.4359 25.8284L34.6682 25.7736L35.0849 26.4316L35.4359 25.8284ZM38.9455 22.7575L38.1778 22.2859L38.09 23.0098L38.9455 22.7575ZM39.3403 27.3639L39.4281 26.6291L38.8797 26.7936L39.3403 27.3639ZM38.8468 24.951L39.3513 24.7317L38.8578 24.4027L38.8468 24.951ZM36.5436 24.3807L36.072 24.4904L36.4559 24.7975L36.5436 24.3807ZM26.7167 8.32432L26.2342 8.91654H27.0897L26.7167 8.32432ZM30.8405 12.7661L30.6212 14.2577L31.8934 13.4571L30.8405 12.7661ZM25.7297 14.5977L25.0058 14.2687L25.2252 15.0364L25.7297 14.5977ZM23.3607 17.3176H22.7246L23.0755 17.7893L23.3607 17.3176ZM22.8781 12.8648L22.242 12.8758L22.6039 13.3364L22.8781 12.8648ZM24.5452 11.9655L23.9091 11.8559L24.1942 12.3713L24.5452 11.9655ZM26.8703 9.6075L26.5413 9.32236L26.3877 9.98039L26.6948 9.84878L27.4077 10.6165L27.4955 9.33331L26.8703 9.6075ZM33.6482 13.1719L32.9463 14.8171L34.8108 14.4332L33.6482 13.1719Z" fill="#8FC9C9"/>
<path d="M28.5045 9.01528L27.66 10.4739L29.3051 10.2107L28.5045 9.01528ZM32.6282 12.0642L31.0489 12.2397L32.0689 13.7752L32.6282 12.0642ZM27.0348 7.51271L27.2761 7.56756L27.1225 6.87661L26.5413 7.2495L25.8174 7.08499L26.0149 8.23656L27.0348 7.51271ZM33.6921 11.7901L32.5405 11.5488L33.0889 12.7003L33.6921 11.7901Z" fill="#8FC9C9"/>
<path d="M32.1895 13.2048L33.1108 13.4242L32.9463 12.6565L32.1895 13.2048ZM30.7309 10.7262L30.2922 10.2217L29.8864 10.8797L30.7309 10.7262ZM23.953 13.5777L24.7207 13.7752L24.3149 13.161L23.953 13.5777ZM24.1504 10.5068L24.8852 10.8359L24.5891 10.1778L24.1504 10.5068ZM23.8762 20.0815L24.4246 20.0376L24.0188 19.6537L23.8762 20.0815ZM25.0278 23.4156L25.5762 23.3717L25.1704 22.9878L25.0278 23.4156ZM26.64 12.8868L27.1884 12.9087L26.8375 12.47L26.64 12.8868ZM24.3149 11.4391L24.8633 11.461L24.5123 11.0223L24.3149 11.4391ZM27.5174 7.86367L27.8465 6.2734L27.5174 6.30631L27.1884 6.02114L27.1555 6.41595L26.3878 6.63532L27.5174 7.86367ZM30.4238 11.8778L31.2354 11.4171L30.4896 10.9455L30.4238 11.8778ZM28.5374 16.199L29.1954 16.7693L29.3052 16.1441L28.5374 16.199ZM29.1954 12.7113L29.8754 13.2597L29.9632 12.6345L29.1954 12.7113ZM27.6929 15.0693L28.3509 14.6306L27.6161 14.3016L27.6929 15.0693ZM27.5174 12.1958L28.1755 11.7352L27.4407 11.4062L27.5174 12.1958ZM28 9.01528L27.32 8.4669L27.1775 9.34429L28 9.01528ZM28.4606 10.2875L27.6381 11.0552L28.7677 11.1649L28.4606 10.2875ZM28.7677 12.4591L28.1864 12.9855L28.9761 13.0623L28.7677 12.4591ZM29.4258 13.6106L28.8445 14.1261L29.6342 14.2139L29.4258 13.6106ZM30.4567 14.7513L29.9412 15.3325H30.7309L30.4567 14.7513ZM24.4246 8.42302L23.2401 8.48883L24.0627 9.36621L24.4246 8.42302ZM24.7975 13.3803L25.4007 14.0165L25.4665 13.0732L24.7975 13.3803ZM24.1175 15.9906L24.7098 16.6486L24.7975 15.7054L24.1175 15.9906ZM25.3458 11.0223L25.949 11.6804L26.0149 10.7371L25.3458 11.0223ZM26.2781 10.7481L27.2651 11.7681L27.3749 10.2765L26.2781 10.7481ZM30.4457 11.9546L31.1038 12.5029L31.1915 11.7133L30.4457 11.9546ZM33.1876 12.9197L34.8327 12.81L33.9772 11.7133L33.1876 12.9197Z" fill="#8FC9C9"/>
<path d="M31.9703 13.8739L31.6741 14.8829L32.6283 14.8171L31.9703 13.8739ZM30.0729 12.6674L30.8406 12.5907L30.4019 11.9326L30.0729 12.6674ZM31.0928 9.87074L30.9832 10.1998L30.7967 9.91459L30.4348 10.1778L30.9064 10.2875L30.5774 10.8688L31.8935 10.6713L31.0928 9.87074ZM28.7897 10.8797L29.4477 11.4281L29.6232 10.7152L28.7897 10.8797ZM24.8962 18.0635L25.1704 17.5809L24.622 17.537L24.8962 18.0635ZM27.5065 13.2597L27.7697 12.7661L27.2213 12.7332L27.5065 13.2597ZM26.8155 12.6016L27.0787 12.1081L26.5304 12.0862L26.8155 12.6016Z" fill="#8FC9C9"/>
<path d="M25.5982 11.823L25.8833 13.0074L26.651 12.0752L25.5982 11.823ZM25.982 15.7712L26.2014 16.9557L27.013 16.0564L25.982 15.7712ZM32.4857 17.0654L32.6173 16.2977L31.9374 16.6925L32.4857 17.0654ZM31.4987 19.9608L31.06 20.7286H31.6961L31.4987 19.9608ZM31.9812 19.0615L32.5296 19.6318L32.727 18.8641L31.9812 19.0615ZM32.7489 21.4085L32.1457 20.915L32.1787 21.7046L32.7489 21.4085ZM33.407 15.9577L32.8586 16.6486L33.8018 16.5719L33.407 15.9577ZM30.8186 15.6835L30.3361 16.4183L31.2684 16.2648L30.8186 15.6835ZM28.7019 16.6706L29.2284 16.868L29.1845 16.3196L28.7019 16.6706ZM31.4438 17.3725L30.3142 17.8331L31.3561 18.4583L31.4438 17.3725ZM19.5989 14.9596L19.9279 16.1332L20.6628 15.1461L19.5989 14.9596ZM30.5664 9.5417L29.7548 9.15783L30.4129 8.86172L29.7548 8.45593L29.6671 9.09203L29.2613 8.89462L29.2723 10.6055L30.5664 9.5417ZM18.3596 20.926L18.7983 21.2769L18.7106 20.7286L18.3596 20.926ZM19.2699 23.7556L19.7305 24.0846L19.5989 23.5362L19.2699 23.7556ZM23.2401 11.4171L23.0537 11.812L23.6021 11.7023L23.2401 11.4171ZM25.8724 7.52369L24.7427 7.83077L25.5652 8.774L25.5324 9.01528L26.1904 8.79592L25.7736 8.24754L25.8724 7.52369ZM24.8853 9.36622L24.633 9.14689L24.5233 9.62946L24.7427 9.51978L25.2691 10.1011L25.3349 9.15783L24.8853 9.36622ZM26.64 9.80491L25.8066 8.98235L25.4117 10.1669L25.1924 10.2765L25.7188 10.7481L25.971 10.0901L26.64 9.80491ZM29.7439 11.2307L28.6142 11.5268L29.4258 12.481L29.3929 12.7223L30.0729 12.5029L29.6342 11.9546L29.7439 11.2307ZM29.0529 8.62044L28.5375 7.2166L27.3529 8.40107L29.0529 8.62044Z" fill="#8FC9C9"/>
<path d="M21.6717 18.4254L21.8911 19.0066L22.1433 18.3925L21.6717 18.4254ZM29.4586 6.5805L30.9941 8.11594L28.0986 9.05913L29.4586 6.5805ZM32.0689 9.59656L33.8785 11.6036L31.356 12.0862L32.0689 9.59656ZM34.8327 13.1281L35.7759 14.85L33.4508 14.7732L34.8327 13.1281Z" fill="#8FC9C9"/>
<path d="M28.1754 5.57147L29.4696 6.69014L28.0877 6.90951L28.1754 5.57147ZM31.1915 8.40107L32.3979 9.80491L30.3689 9.82686L31.1915 8.40107ZM35.4688 20.9808L34.5695 22.1872L36.072 22.0775L35.4688 20.9808ZM37.8049 22.4395L36.5217 23.6678L38.3862 24.0517L37.8049 22.4395Z" fill="#8FC9C9"/>
<path d="M34.3392 16.8899L33.1328 18.0635L34.778 18.2609L34.3392 16.8899ZM37.3663 21.2111L35.8966 20.6189L36.0721 22.4505L37.3663 21.2111ZM38.4082 21.4963L37.4211 20.8382L37.4979 22.1104L38.4082 21.4963Z" fill="#8FC9C9"/>
<path d="M36.5656 21.9679L37.2784 22.5711L37.4978 21.8253L36.5656 21.9679ZM35.8527 19.3357L35.5675 18.7325L35.0191 19.2808L35.8527 19.3357ZM35.2714 20.3557L36.1817 20.1363L35.5895 19.4782L35.2714 20.3557ZM32.4198 23.4594L32.9134 24.1723L33.1766 23.5911L32.4198 23.4594ZM33.8676 20.7944L34.3721 21.5182L34.6353 20.9369L33.8676 20.7944ZM31.7837 22.6588L32.5514 22.4066L31.9263 21.9021L31.7837 22.6588ZM33.9443 18.1183L32.9572 18.6228L34.0101 19.0395L33.9443 18.1183ZM33.5056 20.5092L32.8147 20.8382L33.5495 21.1343L33.5056 20.5092ZM33.8346 21.7156L33.1437 22.0666L33.8785 22.3517L33.8346 21.7156ZM34.1637 22.4614L33.4288 22.7356L34.1308 23.0975L34.1637 22.4614ZM35.2605 20.3995L35.7649 21.1124L36.0501 20.3776L35.2605 20.3995ZM37.5636 22.1763L39.0661 22.8562L38.8139 21.4853L37.5636 22.1763Z" fill="#8FC9C9"/>
<path d="M36.0501 22.4614L35.3153 23.2291L36.1927 23.6239L36.0501 22.4614ZM34.734 20.9808L35.5017 21.1234L35.2385 20.3557L34.734 20.9808ZM36.4449 18.6009L36.2475 18.886L36.1379 18.557L35.6991 18.7215L36.1379 18.9408L35.6663 19.4124L36.9824 19.566L36.4449 18.6009ZM33.9663 18.9518L34.4708 19.6756L34.8217 19.0176L33.9663 18.9518Z" fill="#8FC9C9"/>
<path d="M36.1488 17.9647L35.4688 17.3615L36.1926 17.2518L35.6662 16.6815L35.403 17.2628L35.0739 16.9667L34.6133 18.6118L36.1488 17.9647ZM34.7888 19.555L33.6262 19.5331L34.1527 20.6628L34.043 20.8821L34.7449 20.8602L34.4927 20.2021L34.7888 19.555Z" fill="#8FC9C9"/>
<path d="M35.7759 14.9596L36.8398 16.8461L33.8018 16.9557L35.7759 14.9596ZM37.7172 18.886L38.6494 21.4085L36.1269 20.926L37.7172 18.886ZM39.3623 25.0717L39.5597 26.1465L38.3533 25.7078L39.3623 25.0717ZM36.9494 17.197L37.75 18.875L35.7759 18.3596L36.9494 17.197Z" fill="#8FC9C9"/>
</svg>
