<svg width="31" height="35" viewBox="0 0 31 35" fill="none" xmlns="http://www.w3.org/2000/svg">
<path d="M7.9416 0.230015L8.8508 1.43496L9.3985 0.339562L7.9416 0.230015ZM8.81798 3.84486L8.96032 3.68056L8.41262 3.6477L8.74129 2.92473L7.90877 3.07807L8.42358 3.6477L8.1169 3.68056L8.41262 4.33777L8.82887 3.8339L9.26706 4.49114L9.50802 3.69149L8.81798 3.84486ZM14.6236 3.12189L14.0759 4.5459L15.6971 3.9982L14.6236 3.12189ZM16.6501 4.79785L16.3762 5.50986L17.1868 5.23601L16.6501 4.79785ZM21.9518 7.94165L21.6232 9.40949L22.9596 8.70845L21.9518 7.94165ZM17.6797 10.1544L16.9129 9.95719L17.2635 10.6692L17.6797 10.1544ZM14.8974 12.2137H14.2621L14.6236 12.6848L14.8974 12.2137ZM8.91653 13.5939L8.28117 13.5611L8.60985 14.054L8.91653 13.5939Z" fill="#84BCBC"/>
<path d="M4.95119 16.8911L4.31583 16.913L4.6883 17.3731L4.95119 16.8911ZM13.8239 10.5925L13.1886 10.7021L13.6267 11.1074L13.8239 10.5925ZM15.7628 8.92751L15.1384 9.03706L15.5766 9.43142L15.7628 8.92751ZM13.9882 4.08586L13.9225 4.26112L13.7254 4.77596L13.9006 4.84169L13.6377 5.53179L14.755 5.17029L14.3716 4.62259L13.9882 4.08586ZM17.3292 5.90423L16.9239 5.72896L16.9568 6.38621L17.2197 6.16711L18.1179 6.71481L17.8441 5.45511L17.3292 5.90423ZM24.7013 8.31409L24.0112 9.95719L25.8733 9.56286L24.7013 8.31409ZM9.73808 1.41307L10.3515 1.2378L9.71615 0.799651L9.58471 1.56641L8.66461 2.05936L9.92428 2.80422L9.73808 1.41307ZM18.9723 4.89644L18.5013 6.50668L20.0349 5.84944L18.9723 4.89644ZM23.7921 7.39396L22.2038 7.44875L23.113 9.03706L23.7921 7.39396ZM16.672 3.95441L16.913 3.93248L16.5515 3.31906L16.1133 3.86676L15.3904 3.94345L15.9381 4.97313L16.672 3.95441ZM9.4752 6.29855L9.95718 5.09361L8.566 5.01695L9.4752 6.29855ZM10.1543 9.3657L10.3953 8.75228L9.60664 8.68652L10.1543 9.3657ZM24.6684 6.82436L23.4963 6.73671L24.1974 7.81021L24.6684 6.82436ZM13.4515 6.29855L13.8896 5.75085L13.2762 5.53179L13.4515 6.29855ZM23.3978 8.44553L24.3069 8.63177L24.1426 7.86497L23.3978 8.44553ZM21.4917 6.25473L20.944 5.87137L20.725 6.60527L21.4917 6.25473Z" fill="#84BCBC"/>
<path d="M14.9413 11.0307L15.73 11.0964L15.237 10.5487L14.9413 11.0307ZM14.9193 7.68973L15.708 7.75545L15.2151 7.20775L14.9193 7.68973ZM14.7003 1.58833L13.4953 0.931087L13.5501 2.27844L14.7003 1.58833ZM10.0229 2.99045L10.001 3.93248L10.7678 3.52718L10.0229 2.99045ZM8.0512 6.35334L8.02927 7.58018L9.01516 7.03248L8.0512 6.35334ZM13.3748 2.9028L13.2215 1.58833L12.7395 2.00459L12.1042 1.12825L11.666 2.13604L12.5971 2.09221L12.1918 2.63991L13.3748 2.9028ZM11.2278 5.31269L10.0229 4.43639L9.9134 5.90422L11.2278 5.31269ZM9.73809 10.5159L10.1434 10.6692L10.0996 10.1872L9.73809 10.5159ZM12.148 8.65365L12.5642 8.78513L12.4766 8.30315L12.148 8.65365ZM14.4264 15.3356L14.9741 15.3137L14.5797 14.9194L14.4264 15.3356ZM15.4342 18.589L15.9819 18.5451L15.5766 18.1618L15.4342 18.589ZM3.25334 15.5218L3.80104 15.3904L3.33002 15.0618L3.25334 15.5218ZM18.0631 9.05898L18.6108 8.94944L18.1727 8.62079L18.0631 9.05898ZM15.3575 8.51128L15.8833 8.35791L15.4123 8.06216L15.3575 8.51128ZM17.2745 4.09681L17.0554 2.4975L16.7706 2.60705L16.3653 2.45371L16.4529 2.83708L15.7957 3.29716L17.2745 4.09681ZM21.4699 7.42681L22.149 6.76956L21.3165 6.49571L21.4699 7.42681ZM19.9143 10.3406L20.5497 10.954L20.6921 10.3296L19.9143 10.3406ZM20.4621 8.17168L21.207 8.60986V7.97451L20.4621 8.17168ZM11.6222 5.56465L11.8412 4.71024L10.9869 5.0936L11.6222 5.56465ZM18.9833 10.3406L19.6405 9.8586L18.8956 9.56286L18.9833 10.3406ZM18.7423 8.1936L19.29 7.59111L18.5013 7.45967L18.7423 8.1936ZM18.2384 5.01695L17.4388 4.66641L17.5264 5.54272L18.2384 5.01695ZM19.2243 6.11235L18.5999 7.04341L19.7282 6.87911L19.2243 6.11235ZM20.013 8.0293L19.52 8.63176L20.3087 8.5989L20.013 8.0293ZM20.6702 8.82892L20.1225 9.37662L20.9112 9.43141L20.6702 8.82892ZM21.437 9.86957L20.8893 10.4173L21.6561 10.472L21.437 9.86957ZM1.65402 5.18125L2.42082 5.36745L2.09221 4.75403L1.65402 5.18125ZM8.77414 7.88689L8.66462 8.32505L9.25611 8.25933L8.77414 7.88689ZM7.62398 6.84625L6.85718 6.9558L7.45964 7.4816L7.62398 6.84625ZM13.0681 7.35012L12.3014 7.52539L12.9366 8.00737L13.0681 7.35012ZM6.07949 6.4081L5.3127 6.56147L5.93708 7.05438L6.07949 6.4081ZM10.724 6.07949L9.66141 6.29855L10.5377 6.9558L10.724 6.07949ZM14.7769 6.48478L13.6268 6.74767L14.5907 7.45967L14.7769 6.48478ZM13.2981 11.195L12.1261 11.2607L12.9476 12.1371L13.2981 11.195ZM5.80564 11.0854L4.63355 11.2498L5.53179 12.0385L5.80564 11.0854ZM8.27029 13.1667L7.09821 13.3858L8.02927 14.1526L8.27029 13.1667ZM8.18264 9.00419L8.2045 10.1215L9.04799 9.37662L8.18264 9.00419ZM6.86815 5.08267L5.58655 5.34555L6.61623 6.15614L6.86815 5.08267ZM4.20633 3.96534L4.46921 5.27983L5.30173 4.22826L4.20633 3.96534ZM5.93708 0.0547794L7.1091 2.11411L7.83211 0.0985714L5.93708 0.0547794ZM16.42 10.1872L17.2087 10.5925L16.9677 9.68333L16.42 10.1872ZM15.9052 11.0854L16.5624 11.666L16.5296 10.724L15.9052 11.0854ZM16.1791 7.79924L16.9459 8.2155L16.7048 7.29537L16.1791 7.79924ZM17.0554 7.14203L18.2604 7.85403L17.9317 6.3862L17.0554 7.14203ZM3.91055 7.22965L5.0936 7.99644L4.84168 6.51764L3.91055 7.22965ZM12.7833 3.63673L12.6409 4.64451L13.7363 4.23919L12.7833 3.63673ZM13.1119 4.73213L12.3452 4.9074L12.8709 5.69609L13.1119 4.73213ZM14.9741 2.43178L13.8787 2.83708L14.8098 3.77914L14.9741 2.43178ZM1.61023 2.28937L1.28163 1.67595L0.887231 2.3332L1.61023 2.28937ZM21.4589 7.43777L22.2476 7.81021L22.138 7.04341L21.4589 7.43777ZM24.3288 8.09502L25.972 7.96358L25.0956 6.89007L24.3288 8.09502ZM23.091 9.00419L22.7186 9.99005L23.6716 10.012L23.091 9.00419Z" fill="#84BCBC"/>
<path d="M21.3165 8.27029L22.0504 8.01833L21.448 7.47063L21.3165 8.27029ZM14.7661 6.62719L15.2042 6.07949L14.4812 5.80564L14.7661 6.62719ZM21.426 5.25794L21.3932 5.58654L21.1413 5.36745L20.8674 5.72895L21.3494 5.70702L21.1961 6.36427L22.401 5.81657L21.426 5.25794ZM19.6734 6.90104L20.4621 7.27347L20.4512 6.53954L19.6734 6.90104ZM6.68199 8.43459L7.31727 8.12788L6.68199 7.94165V8.43459ZM16.7378 12.9038L16.9569 12.3999H16.4092L16.7378 12.9038ZM18.9286 9.03705L19.1148 8.51128L18.5671 8.56604L18.9286 9.03705ZM18.118 8.81799L18.2275 8.27029L17.6798 8.40173L18.118 8.81799Z" fill="#84BCBC"/>
<path d="M7.47067 10.713L7.96362 10.6802L7.63501 10.3077L7.47067 10.713ZM11.6004 10.6254L12.8053 10.4282L11.929 9.58475L11.6004 10.6254ZM16.7159 8.40173L17.3074 9.46427L17.8003 8.36887L16.7159 8.40173ZM17.7018 11.0307L17.877 12.2356L18.7314 11.3593L17.7018 11.0307ZM13.9774 10.9431L14.5031 12.0385L15.0728 10.965L13.9774 10.9431ZM20.8346 4.86357L19.9363 4.71024L20.506 4.23919L19.7392 4.02013L19.8268 4.65544L19.3886 4.57876L19.8706 6.22186L20.8346 4.86357ZM3.2534 0.0219179L2.90287 1.18304L4.21736 1.00777L3.2534 0.0219179ZM5.88233 1.48975L6.10142 1.55547L5.91522 1.04063H6.61629L6.14528 0.328629L5.92619 1.06253L5.70709 0.646271L5.2689 1.32542L5.79474 1.47879L5.46607 2.17986L6.32051 1.98266L5.88233 1.48975ZM4.97319 2.23462L5.41131 3.0452L5.80571 2.4975L4.97319 2.23462ZM6.83532 2.39892L6.10142 2.17986L6.43003 2.96852L6.83532 2.39892ZM1.2488 0.208117L1.77457 0.711993L1.9718 0.0876393L1.2488 0.208117ZM4.535 1.12825L3.6587 1.32542L4.29405 1.87312L4.535 1.12825ZM4.535 9.32187L5.00602 9.61761L4.85265 9.09184L4.535 9.32187ZM8.64276 16.902L9.08095 17.2635L9.00426 16.7158L8.64276 16.902ZM9.38762 20.8455L9.84767 21.1522L9.71623 20.6264L9.38762 20.8455ZM12.8272 10.3296L12.6848 10.7459L13.2106 10.5706L12.8272 10.3296ZM13.9226 9.09184L13.8131 9.52999L14.3169 9.3109L13.9226 9.09184ZM9.36576 11.1731L9.69437 11.5455L9.76009 11.1074L9.36576 11.1731ZM5.40035 14.1307L5.75088 14.4593L5.78378 14.0211L5.40035 14.1307ZM9.59575 7.59111L9.95725 7.91975L9.97918 7.4816L9.59575 7.59111ZM12.3014 3.09999L12.652 3.82296L13.0901 3.14379L12.2357 3.03427L11.6661 2.22365L11.0527 3.35191L12.3014 3.09999ZM15.5876 4.30491L14.6017 4.96216L15.6752 5.59751L15.73 5.8385L16.2996 5.42224L15.7191 5.03884L15.5876 4.30491ZM11.0964 5.36745L10.8226 6.07949L11.6332 5.80564L11.0964 5.36745ZM13.1777 6.19997L12.9039 6.92293L13.7145 6.63812L13.1777 6.19997ZM13.5283 7.77735L13.1997 7.6678L13.2544 8.14978L13.4297 7.98548L14.1088 8.35791L13.8678 7.44874L13.5283 7.77735ZM1.9827 8.3798L1.68699 8.24836L1.71981 8.74131L1.90601 8.577L2.56329 8.97133L2.3442 8.0512L1.9827 8.3798ZM15.2152 6.36427L14.9085 6.25472L14.9632 6.7367L15.1385 6.5724L15.8176 6.94483L15.5767 6.03566L15.2152 6.36427ZM13.1997 5.37841L13.4406 5.34555L13.0791 4.7431L12.641 5.2908L11.918 5.36745L12.4657 6.39713L13.1997 5.37841Z" fill="#84BCBC"/>
<path d="M11.2718 7.98548L11.7099 7.43778L10.9869 7.16393L11.2718 7.98548ZM12.1481 5.75085L11.1622 6.4081L12.2357 7.03248L12.2905 7.27347L12.86 6.86818L12.2795 6.48478L12.1481 5.75085ZM17.0336 6.23283L15.982 5.71799V6.97769L15.7958 7.13107L16.453 7.41588L16.4968 6.72577L17.0336 6.23283ZM20.6484 6.99962L19.6297 7.54732L20.6484 8.27029L20.6702 8.51128L21.2728 8.14978L20.7251 7.71163L20.6484 6.99962ZM11.0527 3.62577L12.0933 4.3597L12.0166 2.97949L11.0527 3.62577Z" fill="#84BCBC"/>
<path d="M9.81477 3.8887L11.2717 5.03885L11.4141 3.56006L9.81477 3.8887ZM14.2621 3.36289L13.7144 3.33003L13.4186 3.13287L13.4734 3.37386L13.3419 3.45051L13.5172 3.61485L13.4953 3.72436L13.5172 3.61485L13.7363 4.02014L14.2621 3.36289ZM3.85579 0.24099L3.79007 0.328641L4.1844 0.898237L4.49114 1.40211L5.54268 0L3.74627 0.0219294L3.85579 0.24099Z" fill="#84BCBC"/>
<path d="M5.41125 0.931095L5.80565 0.361498L5.01692 0.350533L5.41125 0.931095ZM7.79922 2.84805L7.29538 2.23463L7.07628 2.96853L7.79922 2.84805ZM2.01553 0.690105L1.68693 1.73075L2.89184 1.51166L2.01553 0.690105ZM0.83248 5.18126L0.284779 5.12647L0.470979 5.64131L0.83248 5.18126ZM19.1585 4.37067L18.2822 3.16572L17.4716 4.63356L19.1585 4.37067ZM3.71339 5.8604L3.60388 6.6272L4.28302 6.26569L3.71339 5.8604ZM3.31906 4.04203L3.20948 4.80883L3.89959 4.43639L3.31906 4.04203ZM6.71478 3.42861L6.60527 2.70564L6.05757 3.34099L6.71478 3.42861Z" fill="#84BCBC"/>
<path d="M4.6007 2.22365L3.79011 3.35192L4.88552 3.57101L4.6007 2.22365ZM0.514874 0.295769L0 1.02967L0.701073 1.17208L0.514874 0.295769ZM3.91059 2.09221L2.65092 1.81836L2.86995 2.82614L3.91059 2.09221ZM6.61627 4.37066L6.17808 2.859L5.30177 4.1954L6.61627 4.37066ZM8.36888 3.01234L9.2014 1.85122L8.106 1.71978L8.6537 1.28162L7.5254 0.799644L7.56926 1.59927L6.85722 1.77453L7.53637 2.25651L7.58023 2.03745L7.97456 1.7855L8.36888 3.01234ZM9.5738 3.56004L9.10278 2.859L8.85086 3.69149L9.5738 3.56004ZM2.67278 0.569619L2.48658 0.0547794L2.11412 0.514829L2.67278 0.569619ZM1.92792 2.82614L2.0046 3.30812L2.33321 2.95759L1.92792 2.82614Z" fill="#84BCBC"/>
<path d="M12.6628 9.43142L12.9915 9.94626L13.1229 9.28901L12.6628 9.43142ZM12.1808 14.1855L12.3999 14.777L12.6738 14.1745L12.1808 14.1855ZM6.23281 1.69789L6.96678 1.91695L6.95581 1.21591L6.23281 1.69789ZM4.91832 1.21591L4.69929 1.94981L5.46602 1.73075L4.91832 1.21591ZM6.14523 4.61163L7.72261 5.08267L7.50351 3.00142L6.14523 4.61163ZM9.48619 0.28481L13.0572 0.788685L10.4939 3.23144L9.48619 0.28481ZM14.5798 1.05157L17.0773 1.88409L15.2151 3.06714L14.5798 1.05157ZM18.9285 2.58516L20.8236 3.63674L18.3042 5.32366L18.9285 2.58516Z" fill="#84BCBC"/>
<path d="M22.8063 4.87455L24.8656 6.6272L22.4339 7.43778L22.8063 4.87455ZM25.983 8.02931L27.0784 9.67241L24.7561 9.78193L25.983 8.02931ZM17.3622 1.89506L18.9176 2.61802L17.647 3.20952L17.3622 1.89506ZM21.1084 3.81201L22.6639 4.81976L20.7251 5.41128L21.1084 3.81201ZM21.0537 28.4366L21.0975 27.7794L20.6045 28.108L21.0537 28.4366ZM16.8911 28.1518L16.8145 27.5165L16.3982 27.9327L16.8911 28.1518ZM18.9395 22.0176L18.9505 21.3603L18.4685 21.7109L18.9395 22.0176ZM16.5625 22.2586L16.5406 22.8063L16.9787 22.4557L16.5625 22.2586ZM24.6247 29.2691L24.2303 29.9264L24.9094 29.773L24.6247 29.2691ZM20.3964 12.148L20.5498 10.9759L19.542 11.6332L20.3964 12.148ZM18.4576 16.2777L18.6218 14.9851L17.5264 15.6971L18.4576 16.2777ZM27.5165 32.0515L27.6589 31.0985L26.8373 31.6133L27.5165 32.0515ZM27.0784 29.4882L26.0925 29.3458L26.6402 30.2002L27.0784 29.4882ZM16.2339 13.5282L15.3138 14.6017L16.8145 14.5469L16.2339 13.5282ZM27.5713 30.1345L28.2614 30.025L27.7575 29.4334L27.5713 30.1345ZM30.1455 30.1783L29.4883 30.5069L30.036 30.8903L30.1455 30.1783ZM26.0706 32.2596L25.6544 32.643L26.2021 32.632L26.0706 32.2596ZM13.0134 27.6808L12.7943 28.1957L13.2872 27.9766L13.0134 27.6808ZM18.2056 28.5352L17.7675 28.7871L18.2056 28.9296V28.5352ZM28.9734 31.0546L28.0971 30.4193L27.8999 31.6023L28.9734 31.0546ZM25.2162 28.3709L25.4353 27.8561L24.8876 27.8889L25.2162 28.3709ZM23.2445 30.9451L22.5544 30.5836L22.6639 31.3504L23.2445 30.9451ZM22.5872 29.773L23.2225 29.9264L23.1897 29.1267L22.5872 29.773ZM23.6169 26.0706L22.4119 26.2239L23.0692 27.1003L23.6169 26.0706ZM16.4749 24.9204L16.8035 25.3585L16.913 24.8108L16.4749 24.9204ZM24.0113 19.8596V20.6264L24.5261 20.1444L24.0113 19.8596ZM22.1819 26.9797L21.7438 26.925L21.8862 27.4946L22.1819 26.9797ZM23.0583 25.961L22.7734 25.2162L22.39 25.9172L23.0583 25.961ZM23.5183 24.2084L23.2445 23.4744L22.861 24.1646L23.5183 24.2084ZM21.8752 22.4557L21.3932 23.7702L22.7734 23.2006L21.8752 22.4557ZM21.3275 25.4133L21.7656 25.961L21.8095 25.3038L21.3275 25.4133ZM19.2462 26.6511L19.3558 27.1222L19.6844 26.7497L19.2462 26.6511ZM19.9801 23.5292L19.7939 24.055L20.2759 23.7812L19.9801 23.5292ZM18.1837 24.4055L17.9099 24.8108L18.348 24.767L18.1837 24.4055ZM22.5872 27.8013L22.3133 28.2066L22.7515 28.1628L22.5872 27.8013ZM21.1084 21.0098L21.1632 20.6812L20.6922 20.8346L20.9113 20.9769L20.6922 21.7218L21.5247 21.2836L21.1084 21.0098ZM23.7155 21.8094L22.9487 21.8204L23.4197 22.4338L23.7155 21.8094ZM25.3914 31.197L24.7123 30.8246L24.8218 31.5914L25.3914 31.197ZM29.9593 29.5758L29.3896 28.8748L29.061 29.5101L29.9593 29.5758ZM28.36 34.1546L28.7324 33.5193L28.1518 33.4536L28.36 34.1546ZM28.8748 31.7666H29.4225L29.0939 31.2628L28.8748 31.7666ZM26.9688 30.3207L26.4868 30.2331L26.7059 30.6712L26.9688 30.3207ZM24.6904 11.666L24.0003 11.9947L24.7889 12.3452L24.6904 11.666ZM26.8593 17.395L25.9063 18.5671L27.407 18.5232L26.8593 17.395ZM21.207 16.9787L20.6593 16.3872L20.5498 17.154L21.207 16.9787ZM17.7675 18.2713L17.1978 17.9755L17.3074 18.5561L17.7675 18.2713ZM18.6876 13.8897L18.1399 13.5392L18.1837 14.1307L18.6876 13.8897ZM21.207 14.0869L20.6593 13.7582L20.7031 14.3498L21.207 14.0869Z" fill="#84BCBC"/>
<path d="M24.296 12.871L24.0988 12.4657L23.6936 13.0134H24.0222L24.3508 13.9992L24.9533 12.871H24.296ZM29.2253 19.2243L27.8342 20.3416L29.6416 20.8893L29.2253 19.2243ZM26.0158 13.0024L24.6575 13.9883L26.2568 14.4265L26.0158 13.0024ZM28.7324 17.6907L27.2865 17.0335L27.396 18.8628L28.7324 17.6907Z" fill="#84BCBC"/>
<path d="M25.2709 11.0307L25.468 11.1731L25.6214 10.494L24.9313 10.6035L24.3508 10.1653L24.055 11.2936L25.2709 11.0307ZM29.7839 17.9755L28.9076 17.1868L28.7981 18.4575L29.7839 17.9755ZM27.7684 18.4356L28.4476 19.0928L28.6995 18.3589L27.7684 18.4356ZM27.3302 15.478L27.1331 14.8427L26.4977 15.2809L27.3302 15.478ZM19.1914 15.0399L19.7391 15.6314V14.8975L19.1914 15.0399ZM21.437 12.5862L21.9847 13.1667V12.4328L21.437 12.5862ZM17.2745 21.5356L17.8002 21.7109L17.5812 21.196L17.2745 21.5356ZM17.0116 25.0628L17.5373 25.2381L17.3182 24.7232L17.0116 25.0628Z" fill="#84BCBC"/>
<path d="M22.7296 15.7519L23.2226 16.0038L23.0802 15.4561L22.7296 15.7519ZM21.1961 13.4844L21.6781 13.7363L21.5357 13.1886L21.1961 13.4844ZM25.5777 11.5565L26.5197 10.242L26.224 10.1325L26.0268 9.73812L25.8296 10.0667L25.0628 9.95718L25.5777 11.5565ZM26.5635 16.3981L27.4947 16.3105L27.0127 15.5656L26.5635 16.3981ZM23.4197 19.4215L23.836 20.1882L24.1646 19.6405L23.4197 19.4215ZM25.4134 16.7049L25.7968 17.4936L26.1473 16.9458L25.4134 16.7049ZM22.7625 18.2056L23.5512 18.0741L23.0035 17.4826L22.7625 18.2056ZM23.7922 15.4671L24.559 15.3247L24.0113 14.7332L23.7922 15.4671ZM25.5229 12.7833L25.1286 11.9946L24.6356 12.7285L25.5229 12.7833ZM25.4134 14.1307L24.3618 14.4812L25.3476 15.0508L25.4134 14.1307ZM24.8109 16.2557L24.077 16.4748L24.7562 16.8801L24.8109 16.2557ZM24.9204 17.5921L24.1756 17.8331L24.8657 18.2275L24.9204 17.5921ZM25.4463 18.8518L24.7014 19.0928L25.3914 19.4872L25.4463 18.8518ZM22.3353 10.965L21.3056 10.3734L21.5247 11.5455L22.3353 10.965ZM20.8017 15.4342L21.0865 16.2667L21.5247 15.4342H20.8017ZM19.2244 17.2416L19.5091 18.0741L19.9473 17.2416H19.2244Z" fill="#84BCBC"/>
<path d="M22.2805 13.5282L22.5653 14.3607L23.0034 13.5282H22.2805ZM23.2444 13.6596L23.7045 14.9741L24.4165 13.6596H23.2444ZM26.8592 16.4639L27.2426 17.2526L27.6479 16.5625L26.8592 16.4639ZM29.072 18.6766L30.5617 19.3667L30.3207 18.0084L29.072 18.6766ZM27.385 19.049L26.6511 19.7939L27.5274 20.1992L27.385 19.049ZM26.2458 16.9678L26.9797 17.2197L26.8373 16.4529L26.2458 16.9678ZM27.9984 14.8317L27.7575 15.0727L27.7027 14.7441L27.2645 14.8536L27.6589 15.1494L27.1112 15.5328L28.3819 15.8943L27.9984 14.8317ZM25.479 14.8317L25.8734 15.6204L26.3115 15.0399L25.479 14.8317ZM19.1695 19.4324L19.6077 19.1038L19.1257 18.8518L19.1695 19.4324ZM23.3539 16.4748L23.7921 16.1462L23.3102 15.8943L23.3539 16.4748ZM22.9815 15.5985L23.4197 15.2699L22.9267 15.0289L22.9815 15.5985Z" fill="#84BCBC"/>
<path d="M22.2148 14.3717L21.9738 15.5766L23.0692 15.0508L22.2148 14.3717ZM21.0865 17.7674L20.8456 18.9505L21.941 18.4356L21.0865 17.7674ZM26.6074 21.5575L27.0894 20.9222L26.3006 20.9769L26.6074 21.5575ZM24.1208 23.6935L23.3869 24.1755L23.9565 24.4494L24.1208 23.6935ZM25.271 23.113L25.4901 23.8798L26.0158 23.2882L25.271 23.113ZM24.5809 25.5448L24.2523 24.8437L23.9236 25.5667L24.5809 25.5448ZM27.9218 20.9879L27.1222 21.3713L27.9985 21.6999L27.9218 20.9879ZM25.7639 19.5639L24.9971 20.002L25.8954 20.2759L25.7639 19.5639ZM23.4197 19.9363L23.836 20.3088L23.9894 19.7829L23.4197 19.9363ZM25.5448 21.3603L24.3399 21.2508L24.9971 22.2805L25.5448 21.3603ZM15.971 15.1494L15.9053 16.3543L16.913 15.6971L15.971 15.1494ZM27.6261 14.3388L27.0345 13.6487H27.7795L27.3413 12.9915L26.9908 13.5392L26.695 13.1886L26.0049 14.7551L27.6261 14.3388ZM13.7364 21.5027L14.065 21.9409L14.1088 21.3932L13.7364 21.5027ZM12.8382 23.7264L13.1668 24.1646L13.2216 23.6169L12.8382 23.7264ZM19.7721 12.86L19.3996 13.0791L19.9144 13.2763L19.7721 12.86ZM24.2303 10.5816L23.0802 10.3954L23.4307 11.6003L23.3212 11.8194L24.0113 11.8961L23.8579 11.2388L24.2303 10.5816Z" fill="#84BCBC"/>
<path d="M22.5654 11.8304L22.412 11.5346L22.1162 11.9289H22.3682L22.6091 12.6628L23.0473 11.8413L22.5654 11.8304ZM23.9894 12.9258L23.5731 11.8304L22.7187 12.7505H22.4777L22.7625 13.4077L23.2555 12.9258H23.9894ZM26.5417 15.5219L25.3914 15.3356L25.742 16.5406L25.6105 16.7597L26.3116 16.8473L26.1582 16.1681L26.5417 15.5219ZM26.6841 12.86L26.7936 11.3703L25.2272 11.9618L26.6841 12.86Z" fill="#84BCBC"/>
<path d="M16.0914 18.6328L16.0804 19.2462L16.5515 18.808L16.0914 18.6328ZM27.8889 11.184L28.6557 13.2105L25.6433 12.8819L27.8889 11.184ZM29.4444 15.2699L30.2331 17.8551L27.7465 17.2307L29.4444 15.2699ZM30.5617 19.3776L30.8355 21.3275L28.6885 20.4292L30.5617 19.3776Z" fill="#84BCBC"/>
<path d="M26.936 9.49713L27.8123 10.954L26.4321 10.7349L26.936 9.49713ZM28.831 13.572L29.4883 15.3247L27.5823 14.6346L28.831 13.572ZM27.2975 26.673L26.0268 27.4836L27.4728 27.9218L27.2975 26.673ZM28.9077 29.0172L27.2318 29.6306L28.7653 30.726L28.9077 29.0172Z" fill="#84BCBC"/>
<path d="M28.3489 22.2147L26.7497 22.7296L28.1408 23.6388L28.3489 22.2147ZM29.0062 27.5493L27.8451 26.4759L27.3631 28.2504L29.0062 27.5493ZM29.9373 28.1518L29.3458 27.1331L28.8529 28.3052L29.9373 28.1518Z" fill="#84BCBC"/>
<path d="M27.9875 27.9875L28.4256 28.8091L28.8857 28.1956L27.9875 27.9875ZM28.6118 25.0847V24.4275L27.867 24.6465L28.6118 25.0847ZM27.626 25.72L28.5352 25.9391L28.3161 25.0847L27.626 25.72ZM23.3868 27.2207L23.4963 28.097L23.9893 27.7027L23.3868 27.2207ZM26.202 25.49L26.3334 26.3663L26.8263 25.961L26.202 25.49ZM23.2005 26.2129L23.9893 26.3225L23.6607 25.5995L23.2005 26.2129ZM27.4726 23.1239H26.3553L27.1221 23.9783L27.4726 23.1239ZM26.0267 25.0518H25.2599L25.7857 25.6433L26.0267 25.0518ZM25.7748 26.3006H25.008L25.5338 26.8921L25.7748 26.3006ZM25.5776 27.5713H24.8108L25.3366 28.1628L25.5776 27.5713ZM27.615 25.7419L27.7246 26.6183L28.3161 26.0925L27.615 25.7419ZM29.1705 28.6447L30.3316 29.8059L30.5726 28.4366L29.1705 28.6447Z" fill="#84BCBC"/>
<path d="M27.3302 28.2504L26.3773 28.6886L27.0564 29.3677L27.3302 28.2504ZM26.8592 26.0596L27.4836 26.5306L27.5931 25.7419L26.8592 26.0596ZM29.4663 24.7122L29.1596 24.8656L29.2144 24.537L28.7762 24.4932L29.061 24.8875L28.4257 25.1066L29.5211 25.8296L29.4663 24.7122ZM27.0783 23.9236L27.1878 24.7999L27.7903 24.3836L27.0783 23.9236Z" fill="#84BCBC"/>
<path d="M29.4882 23.9893L29.1596 23.1458L29.8606 23.3868L29.6415 22.642L29.1487 23.0472L28.9734 22.6091L27.8342 23.8798L29.4882 23.9893ZM27.5603 24.8108L26.5306 24.2631L26.4868 25.5119L26.3006 25.6652L26.9359 25.961L27.0017 25.2709L27.5603 24.8108Z" fill="#84BCBC"/>
<path d="M30.8904 21.2179L30.9999 23.3759L28.2395 22.1162L30.8904 21.2179ZM30.967 25.5776L30.6603 28.2614L28.6338 26.6949L30.967 25.5776ZM29.4335 32.1829L28.9953 33.1688L28.2505 32.1062L29.4335 32.1829ZM30.9999 23.5292L30.9561 25.3914L29.4444 24.055L30.9999 23.5292Z" fill="#84BCBC"/>
</svg>
