<svg width="44" height="47" viewBox="0 0 44 47" fill="none" xmlns="http://www.w3.org/2000/svg">
<path d="M0.0330358 7.67928L1.16623 8.69147L0.0330358 9.15353V7.67928ZM3.58665 8.85649L3.41062 8.96651L3.43261 8.41642L2.6625 8.68045L2.88252 7.85531L3.43261 8.40541L3.48764 8.09736L4.14773 8.44942L3.59763 8.8345L4.22475 9.32956L3.41062 9.50559L3.58665 8.85649ZM2.51947 14.6875L4.08172 14.3024L3.28958 15.9197L2.51947 14.6875ZM3.9827 16.9979L4.75285 16.7998L4.35676 17.603L3.9827 16.9979ZM20.8156 19.0222L20.8046 18.1861L21.4427 18.7142L20.8156 19.0222ZM26.8666 16.2717L27.0096 15.6117L27.4057 16.0737L26.8666 16.2717ZM29.342 11.651L29.5071 10.9909L29.8921 11.4749L29.342 11.651ZM30.5522 5.53393L30.6072 4.89581L31.0473 5.30287L30.5522 5.53393Z" fill="#FFE4C0"/>
<path d="M20.5845 14.6875L20.7826 14.0494L21.1456 14.5554L20.5845 14.6875ZM18.6922 16.5798L18.8903 15.9417L19.2533 16.4478L18.6922 16.5798ZM3.50965 14.0494L3.69669 14.0054L4.24679 13.8623L4.29077 14.0494L5.03892 13.8733L4.52183 14.9735L4.00474 14.5115L3.50965 14.0494ZM5.26995 18.0431L5.15993 17.603L5.84204 17.735L5.58902 17.955L6.02908 18.9672L4.76388 18.5271L5.26995 18.0431ZM1.06723 9.5716L0.847179 10.1657L0.451128 9.50559L1.24326 9.43958L1.79336 8.55945L2.43145 9.87965L1.06723 9.5716ZM3.2676 19.2533L3.8177 17.933L5.50098 19.1982L3.2676 19.2533ZM3.1136 16.8769L3.05857 17.1299L2.47547 16.6898L3.09157 16.3047L3.2676 15.5346L4.25777 16.2387L3.1136 16.8769ZM6.67819 9.58261L5.39096 9.87965L5.53399 8.49344L6.67819 9.58261ZM19.1873 11.1229L18.5492 11.2659L18.5932 10.4738L19.1873 11.1229ZM5.90805 13.7633L5.29194 14.1594L5.12692 13.4993L5.90805 13.7633ZM20.9806 15.9637L20.9476 16.7998L20.4525 16.2167L20.9806 15.9637ZM7.22828 15.5236L7.20629 16.3598L6.70018 15.7767L7.22828 15.5236ZM0.825187 14.4564L0.275094 13.1362L1.66134 13.3562L0.825187 14.4564ZM2.60749 10.0117L3.53164 10.1217L3.01455 10.8148L2.60749 10.0117ZM6.23812 8.58144L7.4483 8.75747L6.76619 9.63761L6.23812 8.58144ZM11.9921 11.717L12.9823 12.4431L11.9591 12.9052L11.9921 11.717Z" fill="#FFE4C0"/>
<path d="M16.1287 12.1571L17.1189 12.8832L16.0957 13.3232L16.1287 12.1571ZM23.533 17.812L24.5231 18.5381L23.5 18.9782L23.533 17.812ZM2.26635 13.3232L0.94614 13.0702L1.4082 12.6301L0.572047 11.926L1.61724 11.5629L1.50721 12.4981L2.10132 12.1351L2.26635 13.3232ZM4.85179 11.3429L4.05966 10.0777H5.55593L4.85179 11.3429ZM20.3644 10.8808L20.4745 11.3209L20.0014 11.2109L20.3644 10.8808ZM8.4824 12.6961L8.55942 13.1362L8.07533 12.9932L8.4824 12.6961ZM30.2661 16.4588L30.1121 17.0089L29.782 16.5248L30.2661 16.4588ZM8.4274 5.03884L8.25137 5.58893L7.95433 5.08285L8.4274 5.03884ZM29.298 3.7186L29.1329 4.2467L28.8469 3.76262L29.298 3.7186ZM20.4965 6.42508L20.2984 6.95315L20.0234 6.43606L20.4965 6.42508ZM8.04233 16.1067L7.82231 16.6348L7.58027 16.1067H8.04233ZM2.80546 16.9869L1.15518 16.5468L1.3202 16.2717L1.21017 15.8317L1.59525 15.9747L2.14534 15.3696L2.80546 16.9869ZM5.09383 11.761L4.2137 11.893L4.65377 11.0789L5.09383 11.761ZM4.43372 18.6372L4.19167 17.757L5.07184 17.977L4.43372 18.6372ZM5.47891 1.47424L5.62194 2.24435L5.02783 1.87029L5.47891 1.47424ZM3.67458 0.154003L3.82863 0.924148L3.2235 0.550088L3.67458 0.154003ZM2.13433 0.242037L2.27736 1.01215L1.68325 0.638088L2.13433 0.242037ZM7.66827 9.50559L8.10834 9.4506L7.96531 10.0227L7.66827 9.50559ZM6.71111 8.14137L6.93116 7.39325L7.37123 8.05334L6.71111 8.14137ZM7.04115 13.5103L7.32721 12.7401L7.73428 13.4553L7.04115 13.5103ZM6.44708 6.00701L6.6451 5.23686L7.10716 5.89698L6.44708 6.00701ZM5.56691 11.1559L5.95198 10.1437L6.48008 11.1119L5.56691 11.1559ZM16.7558 8.05334L17.1409 7.04119L17.669 8.00936L16.7558 8.05334ZM5.91897 15.1826L6.35904 14.0164L6.97515 15.1166L5.91897 15.1826ZM25.9864 14.4784L26.3495 13.2902L27.0316 14.3464L25.9864 14.4784ZM21.4426 6.00701L21.6627 4.85179L22.4108 5.78696L21.4426 6.00701ZM26.4705 10.3748L26.9105 9.27456L27.4827 10.3307L26.4705 10.3748ZM21.2996 7.71228L22.4218 8.09736L21.3986 8.71346L21.2996 7.71228ZM16.7448 5.07184L17.867 5.45691L16.8438 6.07302L16.7448 5.07184ZM24.6332 7.23921L25.7553 7.61327L24.7322 8.22937L24.6332 7.23921ZM20.0344 0.34105L21.1676 0.71511L20.1444 1.33121L20.0344 0.34105ZM19.1542 9.09853L20.2544 9.27456L19.3963 10.0117L19.1542 9.09853Z" fill="#FFE4C0"/>
<path d="M5.07192 6.74411L5.40196 5.4789L6.17211 6.55709L5.07192 6.74411ZM4.08173 4.01566L5.37997 4.34571L4.27978 5.11585L4.08173 4.01566ZM0.0110529 5.86397L2.05738 7.07418L0.0220319 7.75629L0.0110529 5.86397ZM20.0344 17.592L20.4085 18.4391L19.4734 18.1091L20.0344 17.592ZM22.1248 17.2399L22.5869 18.0431L21.6187 17.823L22.1248 17.2399ZM7.45931 16.9099L7.82239 17.768L6.8982 17.4379L7.45931 16.9099ZM6.62316 17.933L7.20629 19.2863L5.72103 18.7582L6.62316 17.933ZM7.3933 3.90564L8.08642 5.13784L6.61218 4.8078L7.3933 3.90564ZM5.77602 4.30169L6.46915 5.5119L5.00591 5.18186L5.77602 4.30169ZM13.1803 6.062L14.2145 7.03017L12.7072 7.14019L13.1803 6.062ZM2.25544 1.3532L3.09156 1.90329L2.04641 2.15634L2.25544 1.3532ZM3.2126 12.7621L4.27978 12.7401L3.72969 13.8403L3.2126 12.7621ZM4.31279 13.2242L4.59882 12.4541L5.34697 13.0922L4.31279 13.2242ZM1.69434 14.9075L2.24443 13.8073L3.10258 14.9075H1.69434ZM2.70649 1.32019L2.11241 0.946132L2.79453 0.583085L2.70649 1.32019ZM6.06208 15.1826L5.44598 15.5676L5.25893 14.7975L6.06208 15.1826ZM8.40549 7.45925L8.0094 8.04235L7.9214 7.38223L8.40549 7.45925ZM27.1637 18.7141L26.5806 18.8242L26.7236 18.2741L27.1637 18.7141ZM7.51434 6.02899L6.93124 6.07301L7.12927 5.54491L7.51434 6.02899ZM20.8926 9.17554L20.7826 9.64862L20.4745 9.27456L20.8926 9.17554ZM20.9036 12.3881L20.5406 13.5983L19.7704 12.5861L20.9036 12.3881ZM18.2191 17.735L19.2533 18.4831L18.0431 18.8572L18.2191 17.735ZM22.2678 15.1165L23.258 15.9087L22.0258 16.2387L22.2678 15.1165ZM0.319104 2.79444L1.49631 2.50841L1.25427 3.82862L0.319104 2.79444Z" fill="#FFE4C0"/>
<path d="M1.49627 5.55593L1.55127 5.77598L1.04519 5.55593L0.979183 6.24906L0.297038 5.73197L1.04519 5.55593L0.638127 5.31389L1.34223 4.91784L1.47425 5.44591L2.18936 5.15988L1.94732 6.01803L1.49627 5.55593ZM2.3104 4.6758L3.11355 5.15988L2.51944 5.53394L2.3104 4.6758ZM2.35442 6.56812L2.17838 5.81997L2.94849 6.19403L2.35442 6.56812ZM0.0660085 2.64044L0.616102 3.13551L0 3.35556L0.0660085 2.64044ZM1.24322 4.1807L1.48526 3.32255L1.99134 3.98267L1.24322 4.1807ZM23.0269 4.65377L23.291 5.14887L22.7739 4.96182L23.0269 4.65377ZM6.74415 1.52924L7.29425 1.49624L6.92019 1.89232L6.74415 1.52924ZM22.5868 0.682111L22.8509 1.17717L22.3338 0.990162L22.5868 0.682111ZM27.8237 5.79797L28.0878 6.29307L27.5707 6.10603L27.8237 5.79797ZM3.31157 0.770111L3.49859 1.62826L2.78347 1.36422L3.31157 0.770111ZM0.82514 1.17717L1.02317 2.02434L0.297038 1.76027L0.82514 1.17717ZM32.7526 12.3991L32.9726 12.9492L32.4555 12.6961L32.7526 12.3991ZM35.7671 13.4663L35.9871 14.0164L35.47 13.7633L35.7671 13.4663ZM21.9267 13.7743L22.3888 13.7413L22.0808 14.2254L21.9267 13.7743ZM19.0222 14.6215L19.4623 14.5555L19.1873 15.0616L19.0222 14.6215ZM26.1735 10.9689L26.4485 11.3759L26.0084 11.3209L26.1735 10.9689ZM27.8237 7.08521L28.0988 7.49227L27.6587 7.44826L27.8237 7.08521ZM24.2371 0.506077L24.7212 0.396051L24.5012 0.792136L24.2371 0.506077ZM24.6552 1.80429L24.9852 2.17835H24.5232L24.6552 1.80429ZM7.20625 10.3087L7.48129 10.7158L7.04119 10.6608L7.20625 10.3087ZM2.54143 12.2561L3.23455 12.6631L2.51944 13.0372L2.46441 12.179L1.6943 11.541L2.88249 11.0239L2.54143 12.2561ZM3.5976 15.8097L4.40075 14.8745L4.91784 16.0847L5.15988 16.1618L4.66478 16.7118L4.33474 16.0517L3.5976 15.8097ZM4.91784 11.2329L5.65498 11.0129L5.30291 11.805L4.91784 11.2329ZM5.79797 13.5103L6.56812 13.3122L6.17207 14.1264L5.79797 13.5103ZM7.40427 14.0604L7.32725 13.7303L7.82235 13.8403L7.62429 14.0054L7.93234 14.7535L7.00819 14.3904L7.40427 14.0604ZM22.1908 2.06832L22.0808 1.73828L22.5649 1.80429L22.3888 1.98032L22.7519 2.67345L21.8387 2.40941L22.1908 2.06832ZM3.66364 2.50843L3.55362 2.20037L4.0377 2.25537L3.87265 2.4314L4.22471 3.12453L3.32255 2.86046L3.66364 2.50843ZM10.9689 0.308051L10.8588 0L11.3429 0.0549959L11.1669 0.23103L11.53 0.924153L10.6168 0.660085L10.9689 0.308051ZM4.47777 1.84831L4.36774 1.54026L4.85183 1.60626L4.6758 1.7823L5.03888 2.47542L4.1257 2.20037L4.47777 1.84831ZM10.4958 6.66713L10.3858 6.35908L10.8809 6.41408L10.7048 6.59011L11.0679 7.28323L10.1547 7.01917L10.4958 6.66713ZM5.79797 15.6886L5.72099 15.3586L6.22706 15.4686L6.02904 15.6337L6.32608 16.3818L5.41294 16.0187L5.79797 15.6886ZM4.91784 13.4113L4.86284 13.6643L4.27974 13.2242L4.89585 12.8392L5.06087 12.091L6.05103 12.7842L4.91784 13.4113Z" fill="#FFE4C0"/>
<path d="M7.52522 11.607L6.95313 12.003L6.73308 11.2659L7.52522 11.607ZM15.4026 14.6655L14.8305 15.0616L14.6104 14.3244L15.4026 14.6655ZM5.47888 12.3551L6.27102 11.4309L6.79909 12.6411L7.04113 12.7182L6.53505 13.2682L6.20501 12.6081L5.47888 12.3551ZM12.5421 14.2254L13.3452 13.3013L13.8623 14.5115L14.1043 14.5885L13.6092 15.1385L13.2792 14.4784L12.5421 14.2254ZM5.43487 17.548L5.03881 16.3928L6.33703 16.5578L6.53505 16.3818L6.7551 17.0969L6.02898 17.0419L5.43487 17.548ZM3.16848 11.0569L3.8286 12.157L2.45337 11.97L3.16848 11.0569Z" fill="#FFE4C0"/>
<path d="M3.53162 9.81364L4.57681 11.3539L3.08058 11.3869L3.53162 9.81364ZM2.72851 14.2474L2.7505 13.6643L2.59649 13.3343L2.83853 13.4223L2.94853 13.2902L3.09156 13.5103L3.47663 13.8073L2.72851 14.2474ZM0.264066 3.61958L0.352099 3.55358L0.924185 3.93865L1.4303 4.2467L0.0330358 5.31388L0.0440484 3.50959L0.264066 3.61958Z" fill="#FFE4C0"/>
<path d="M0.946123 5.03884L0.363025 5.40189L0.39603 4.59877L0.946123 5.03884ZM2.6844 7.7233L2.1563 7.12919L2.92645 7.01917L2.6844 7.7233ZM1.05612 1.61728L2.11232 1.36422L1.83727 2.54143L1.05612 1.61728ZM5.62192 0.69309L5.59989 0.142996L6.106 0.363047L5.62192 0.69309ZM7.76726 1.35321L7.74527 0.803116L8.25135 1.02317L7.76726 1.35321ZM4.68675 0.847132L4.66473 0.297039L5.17084 0.51709L4.68675 0.847132ZM2.24434 18.6482L1.10013 17.581L2.75041 16.9209L2.24434 18.6482ZM6.00696 3.60861L6.7771 3.5426L6.38105 4.20269L6.00696 3.60861ZM4.20267 3.1025L4.97278 3.02552L4.57673 3.6856L4.20267 3.1025ZM3.80658 1.2322L4.57673 1.1662L4.16966 1.82628L3.80658 1.2322ZM3.38854 6.4911L2.67339 6.32608L3.33351 5.81997L3.38854 6.4911ZM2.31034 4.29072L3.48755 3.55358L3.64156 4.65377L2.31034 4.29072Z" fill="#FFE4C0"/>
<path d="M0.792139 1.10018L1.48526 0.605086L1.59529 1.3202L0.792139 1.10018ZM2.22237 3.6306L2.02434 2.34337L3.01451 2.61841L2.22237 3.6306ZM4.34576 6.46907L2.8605 5.91898L4.25772 5.12684L4.34576 6.46907ZM2.92651 8.19637L1.77132 9.04354L1.61728 7.94335L1.17721 8.49344L0.671135 7.37123L1.47425 7.40423L1.63927 6.67811L2.14538 7.33823L1.92533 7.39326L1.68329 7.78931L2.92651 8.19637ZM3.22354 9.62663L2.56346 9.07654L3.4216 8.90051L3.22354 9.62663ZM0.64911 2.76144L0.13202 2.26638L0.869161 1.74929L0.64911 2.76144ZM3.17956 1.68328L3.66365 1.79327L3.28955 2.12335L3.17956 1.68328ZM2.8055 0.253019L3.28955 0.363044L2.90451 0.671095L2.8055 0.253019Z" fill="#FFE4C0"/>
<path d="M19.5173 13.3673L20.0124 13.7853L19.3303 13.8403L19.5173 13.3673ZM29.287 14.0934L29.8371 14.4564L29.155 14.5884L29.287 14.0934ZM1.69429 5.90799L1.8813 6.6561L1.18821 6.60111L1.69429 5.90799ZM1.27621 4.56576L2.02433 4.38972L1.74928 5.12683L1.27621 4.56576ZM4.62079 5.99599L5.00586 7.60225L2.93751 7.25022L4.62079 5.99599ZM0.0219829 9.29655V13.0152L2.83849 10.4408L0.0219829 9.29655ZM0.0659998 13.7303L0.121029 16.4808L1.8813 14.9625L0.0659998 13.7303ZM1.2982 18.5381L2.9925 19.1322L3.98266 16.9979L1.2982 18.5381ZM0.0659998 16.6898L0.94617 18.2301L1.45225 16.8548L0.0659998 16.6898ZM5.56694 2.82744L6.88717 2.16736L6.44711 3.67461L5.56694 2.82744ZM5.84198 0.770096L7.16222 0.109977L6.72215 1.61726L5.84198 0.770096ZM12.4761 0.0329897H13.9504L12.8832 1.18817L12.4761 0.0329897ZM42.1482 15.3256L42.6983 15.1055L42.4342 15.6116L42.1482 15.3256ZM4.27974 7.93233L5.53393 8.17437L4.58779 9.03251L4.27974 7.93233ZM7.65728 8.86749L7.47027 8.97748L7.49226 8.42739L6.72215 8.69146L6.94217 7.86632L7.49226 8.41641L7.54729 8.10836L8.20738 8.46043L7.65728 8.84547L8.27339 9.34056L7.45926 9.5166L7.65728 8.86749ZM6.5901 14.6985L8.15238 14.3134L7.36025 15.9307L6.5901 14.6985Z" fill="#FFE4C0"/>
<path d="M8.05337 16.9979L8.82348 16.7998L8.43845 17.603L8.05337 16.9979ZM7.5803 14.0604L7.76731 14.0164L8.31741 13.8733L8.36142 14.0604L9.10954 13.8844L8.59245 14.9845L8.08638 14.5225L7.5803 14.0604ZM9.34057 18.054L9.20856 17.614L9.89067 17.746L9.63765 17.966L10.0777 18.9782L8.81251 18.5381L9.34057 18.054ZM7.32725 19.2643L7.89933 17.944L9.57164 19.2093L7.32725 19.2643ZM7.18422 16.8878L7.12922 17.1409L6.54612 16.7008L7.15121 16.3158L7.32725 15.5456L8.31741 16.2498L7.18422 16.8878ZM10.0227 9.98968L8.73548 10.2757L8.87851 8.8895L10.0227 9.98968ZM18.4171 12.047L17.1299 12.3441L17.2729 10.9579L18.4171 12.047ZM9.96769 13.7743L9.35159 14.1704L9.19758 13.5103L9.96769 13.7743ZM11.2879 15.5346L11.2549 16.3708L10.7488 15.7877L11.2879 15.5346ZM10.2978 8.58145L11.5079 8.75748L10.8258 9.63762L10.2978 8.58145ZM14.3464 4.01568L15.5567 4.1807L14.8745 5.06083L14.3464 4.01568ZM17.845 4.73079L19.0552 4.90682L18.3731 5.78696L17.845 4.73079ZM8.1634 11.75L7.37126 10.4958L8.85652 10.4848L8.1634 11.75ZM12.6191 16.4148L11.827 15.1606L13.3123 15.1496L12.6191 16.4148ZM12.5861 12.7071L12.6741 13.1472L12.1791 13.0042L12.5861 12.7071ZM12.5091 5.03884L12.3331 5.58894L12.036 5.08286L12.5091 5.03884Z" fill="#FFE4C0"/>
<path d="M12.102 16.1177L11.882 16.6458L11.64 16.1177H12.102ZM16.3928 14.5224L16.1727 15.0505L15.9197 14.5004L16.3928 14.5224ZM9.13154 11.772L8.25137 11.904L8.69144 11.0899L9.13154 11.772ZM8.47142 18.6481L8.22938 17.768L9.10952 17.988L8.47142 18.6481ZM9.51658 1.48521L9.65961 2.25536L9.0655 1.8813L9.51658 1.48521ZM13.1142 2.09034L13.2682 2.86045L12.6741 2.48639L13.1142 2.09034ZM17.4049 9.5716L17.845 9.5166L17.691 10.0887L17.4049 9.5716ZM10.7488 8.14137L10.9688 7.39325L11.4089 8.05333L10.7488 8.14137ZM11.0789 13.5103L11.3649 12.7401L11.783 13.4553L11.0789 13.5103ZM22.3888 12.2341L22.6748 11.4639L23.0929 12.19L22.3888 12.2341ZM13.3452 18.4171L13.6313 17.647L14.0493 18.3731L13.3452 18.4171ZM10.4847 6.007L10.6828 5.23686L11.1449 5.89697L10.4847 6.007ZM9.60461 11.1559L9.98969 10.1437L10.5178 11.1119L9.60461 11.1559ZM9.96766 15.1826L10.3857 14.0164L11.0018 15.1165L9.96766 15.1826ZM8.61445 6.44707L8.94449 5.18186L9.71464 6.26006L8.61445 6.44707ZM8.13037 4.00465L9.42858 4.33473L8.32839 5.10484L8.13037 4.00465Z" fill="#FFE4C0"/>
<path d="M11.552 16.9099L11.9041 17.768L10.9799 17.4379L11.552 16.9099ZM12.7182 17.724L13.0703 18.5821L12.1461 18.2521L12.7182 17.724ZM17.251 18.2961L17.614 19.1432L16.6789 18.8132L17.251 18.2961ZM16.7889 16.9208L15.9417 17.3059L16.2498 16.3598L16.7889 16.9208ZM13.8184 17.2179L12.9823 17.603L13.2793 16.6568L13.8184 17.2179ZM10.9029 18.0981L11.9151 19.1762H10.3418L10.9029 18.0981ZM14.4455 18.0981L15.4357 19.1762H13.8624L14.4455 18.0981ZM11.475 3.90564L12.1681 5.13785L10.7049 4.8078L11.475 3.90564ZM7.29428 12.7621L8.35045 12.7401L7.80036 13.8403L7.29428 12.7621ZM8.37247 13.2242L8.6585 12.4541L9.40665 13.0922L8.37247 13.2242ZM10.1327 15.2046L9.52766 15.5896L9.32963 14.8195L10.1327 15.2046ZM12.4762 7.48125L12.0801 8.06435L11.9921 7.40423L12.4762 7.48125ZM11.596 6.05102L11.0129 6.095L11.2329 5.56694L11.596 6.05102ZM10.8259 1.54025L11.376 1.50724L10.9909 1.90329L10.8259 1.54025ZM11.332 10.3417L11.596 10.7488L11.1559 10.6938L11.332 10.3417ZM17.57 13.3893L17.8451 13.8073L17.405 13.7523L17.57 13.3893Z" fill="#FFE4C0"/>
<path d="M7.71232 15.8207L8.50445 14.8855L9.02154 16.0957L9.26359 16.1727L8.76849 16.7228L8.43845 16.0627L7.71232 15.8207ZM9.01053 11.2439L9.74767 11.0239L9.41759 11.816L9.01053 11.2439ZM9.89067 13.5213L10.6608 13.3233L10.2648 14.1374L9.89067 13.5213ZM11.497 14.0714L11.4199 13.7413L11.915 13.8514L11.717 14.0164L12.025 14.7645L11.1119 14.4014L11.497 14.0714ZM14.7975 16.4038L14.7205 16.0737L15.2266 16.1837L15.0286 16.3488L15.3256 17.0969L14.4125 16.7338L14.7975 16.4038ZM16.5358 18.2191L16.8659 18.1531L16.7338 18.6482L16.5798 18.4501L15.8097 18.7142L16.2167 17.812L16.5358 18.2191ZM17.3499 15.6886L17.2729 15.3586L17.768 15.4686L17.57 15.6337L17.878 16.4038L16.9539 16.0407L17.3499 15.6886ZM7.75633 2.4864L7.64631 2.17835L8.13039 2.23338L7.96534 2.40941L8.31741 3.1025L7.41525 2.83847L7.75633 2.4864ZM9.89067 15.6886L9.80267 15.3586L10.3087 15.4686L10.1107 15.6337L10.4188 16.3818L9.49462 16.0187L9.89067 15.6886ZM9.01053 13.4113L8.95553 13.6643L8.37244 13.2242L8.98854 12.8392L9.15356 12.091L10.1437 12.7842L9.01053 13.4113ZM11.585 11.585L11.0129 11.981L10.7928 11.2439L11.585 11.585ZM15.7327 13.4113L15.1606 13.8073L14.9406 13.0702L15.7327 13.4113ZM13.5543 3.22354L13.9944 3.16851L13.8513 3.74063L13.5543 3.22354ZM13.1472 3.99365L13.4113 4.40075L12.9712 4.35673L13.1472 3.99365ZM13.4223 5.2919L12.8502 5.68795L12.6302 4.93983L13.4223 5.2919ZM9.53863 12.3331L10.3308 11.4089L10.8588 12.6191L11.1009 12.6961L10.5948 13.2462L10.2648 12.5861L9.53863 12.3331ZM14.6655 7.05217L14.7975 5.84199L15.8977 6.53511L16.1507 6.45809L16.0407 7.1952L15.4026 6.84317L14.6655 7.05217ZM9.49462 17.526L9.09853 16.3708L10.3968 16.5358L10.5948 16.3598L10.8149 17.0749L10.0887 17.0199L9.49462 17.526ZM9.62663 6.54609L10.4408 7.75631L9.27457 7.7783L9.62663 6.54609ZM11.673 2.3654L12.4871 3.57561L11.3209 3.5976L11.673 2.3654ZM9.69264 0.660085L9.67065 0.109991L10.1657 0.330042L9.69264 0.660085ZM11.827 1.3202L11.805 0.77011L12.3111 0.990161L11.827 1.3202ZM8.7465 0.814127L8.72447 0.264034L9.23058 0.484085L8.7465 0.814127ZM10.0667 3.5646L10.8368 3.49859L10.4298 4.15871L10.0667 3.5646Z" fill="#FFE4C0"/>
<path d="M8.27335 3.1025L9.04349 3.02551L8.63643 3.6856L8.27335 3.1025ZM7.8773 1.2322L8.64744 1.16619L8.25136 1.82628L7.8773 1.2322ZM8.42739 6.45809L6.93115 5.908L8.32838 5.11586L8.42739 6.45809ZM6.72212 6.4911L7.11817 8.09736L5.04981 7.74529L6.72212 6.4911ZM9.63761 2.82745L10.9578 2.16737L10.5177 3.67462L9.63761 2.82745ZM18.5931 0.319027L18.4831 0.0109761L18.9672 0.0660056L18.8021 0.24204L19.1542 0.935129L18.2521 0.671095L18.5931 0.319027ZM15.3586 1.35321V0.803112L15.8537 1.02316L15.3586 1.35321ZM17.1189 1.48522L17.2729 2.25537L16.6788 1.88131L17.1189 1.48522ZM18.4061 1.52924L18.9562 1.49624L18.5711 1.89232L18.4061 1.52924ZM26.7455 3.42156L27.2956 3.37755L26.9105 3.77363L26.7455 3.42156ZM24.4351 4.98384L24.9852 4.93983L24.6002 5.33588L24.4351 4.98384ZM19.7813 4.65377L20.3314 4.60978L19.9574 5.00584L19.7813 4.65377ZM15.2706 3.19053L15.1605 2.88248L15.6556 2.94849L15.4796 3.12452L15.8317 3.81765L14.9295 3.5426L15.2706 3.19053ZM25.9974 0.880133L25.8874 0.572082L26.3714 0.638091L26.1954 0.814125L26.5585 1.50725L25.6453 1.2322L25.9974 0.880133ZM25.1833 13.1802L25.0732 12.8722L25.5573 12.9382L25.3923 13.1142L25.7443 13.7963L24.8422 13.5323L25.1833 13.1802ZM18.6591 7.34924L18.5491 7.01916L19.0442 7.08521L18.8682 7.26121L19.2312 7.95433L18.3181 7.6903L18.6591 7.34924Z" fill="#FFE4C0"/>
<path d="M17.295 0.69309L17.273 0.142996L17.7791 0.363047L17.295 0.69309ZM16.3488 0.847132L16.3158 0.297039L16.8219 0.51709L16.3488 0.847132ZM15.8757 3.1025L16.6459 3.02552L16.2388 3.6856L15.8757 3.1025ZM20.4635 2.28838L21.2337 2.21135L20.8266 2.87147L20.4635 2.28838ZM15.4687 1.2322L16.2388 1.1662L15.8317 1.82628L15.4687 1.2322ZM17.427 3.57561L17.537 2.11234L18.6042 3.26756L17.427 3.57561ZM13.5984 0.935133L14.9186 0.275047L14.4785 1.7823L13.5984 0.935133ZM8.35045 7.92133L9.60468 8.16337L8.6585 9.02152L8.35045 7.92133ZM36.1522 16.5798L36.5593 16.9979L35.9871 16.9539L36.1522 16.5798ZM38.6056 16.0077L39.0127 16.4258L38.4406 16.3818L38.6056 16.0077ZM43.7985 5.11586L43.4354 4.6758L43.9855 4.7638L43.7985 5.11586ZM38.3526 8.35042L37.9895 7.87731L38.5396 7.98734L38.3526 8.35042ZM33.0276 6.96417L32.5656 7.32722L32.6756 6.75513L33.0276 6.96417ZM38.3086 5.33588L37.7915 5.04986L38.3416 4.93983L38.3086 5.33588ZM35.7121 3.6856L35.206 3.39957L35.7561 3.28955L35.7121 3.6856ZM0.0330358 35.404L1.16623 36.4162L0.0330358 36.8893V35.404ZM3.58665 36.5812L3.41062 36.7132L3.43261 36.1632L2.6625 36.4272L2.88252 35.591L3.43261 36.1632L3.48764 35.8551L4.14773 36.2071L3.59763 36.5812L4.22475 37.0873L3.41062 37.2633L3.58665 36.5812ZM2.51947 42.4122L4.08172 42.0271L3.28958 43.6444L2.51947 42.4122ZM3.9827 44.7226L4.75285 44.5356L4.35676 45.3387L3.9827 44.7226ZM20.8156 46.7469L20.8046 45.9108L21.4427 46.4609L20.8156 46.7469ZM26.8666 43.9965L27.0096 43.3364L27.4057 43.8094L26.8666 43.9965ZM29.342 39.3757L29.5071 38.7156L29.8921 39.1996L29.342 39.3757ZM30.5522 33.2586L30.6072 32.6205L31.0473 33.0166L30.5522 33.2586ZM20.5625 42.4342L20.7606 41.7961L21.1236 42.2912L20.5625 42.4342Z" fill="#FFE4C0"/>
<path d="M18.6922 44.3155L18.8903 43.6774L19.2533 44.1725L18.6922 44.3155ZM3.50965 41.7851L3.69669 41.7301L4.24679 41.5981L4.29077 41.7851L5.03892 41.5981L4.52183 42.7202L4.00474 42.2472L3.50965 41.7851ZM5.26995 45.7788L5.15993 45.3387L5.84204 45.4487L5.58902 45.6908L6.02908 46.6809L4.76388 46.2409L5.26995 45.7788ZM1.06723 37.2853L0.847179 37.8904L0.451128 37.2303L1.24326 37.1643L1.79336 36.2841L2.43145 37.6044L1.06723 37.2853ZM3.2676 46.967L3.8177 45.6467L5.50098 46.912L3.2676 46.967ZM3.1136 44.5906L3.05857 44.8436L2.47547 44.4035L3.09157 44.0075L3.2676 43.2593L4.25777 43.9635L3.1136 44.5906ZM6.67819 37.3073L5.39096 37.5934L5.53399 36.2071L6.67819 37.3073ZM19.1873 38.8476L18.5492 38.9906L18.5932 38.1875L19.1873 38.8476ZM5.90805 41.488L5.29194 41.8731L5.12692 41.213L5.90805 41.488ZM20.9806 43.7104L20.9476 44.5466L20.4525 43.9524L20.9806 43.7104ZM7.22828 43.2483L7.20629 44.0845L6.70018 43.4904L7.22828 43.2483ZM0.825187 42.1702L0.275094 40.8499L1.66134 41.07L0.825187 42.1702ZM2.60749 37.7364L3.53164 37.8464L3.01455 38.5285L2.60749 37.7364ZM6.23812 36.3062L7.4483 36.4712L6.76619 37.3513L6.23812 36.3062ZM11.9921 39.4527L12.9823 40.1788L11.9591 40.6189L11.9921 39.4527ZM16.1398 39.8708L17.13 40.5969L16.1068 41.059L16.1398 39.8708Z" fill="#FFE4C0"/>
<path d="M23.533 45.5367L24.5231 46.2629L23.5 46.7249L23.533 45.5367ZM2.26635 41.059L0.94614 40.7949L1.4082 40.3549L0.572047 39.6397L1.61724 39.2877L1.50721 40.2228L2.10132 39.8488L2.26635 41.059ZM4.85179 39.0786L4.05966 37.8244L5.55593 37.8134L4.85179 39.0786ZM20.3644 38.6165L20.4745 39.0566L20.0014 38.9466L20.3644 38.6165ZM8.4824 40.4539L8.55942 40.8939L8.07533 40.7509L8.4824 40.4539ZM30.2661 44.1945L30.1121 44.7446L29.782 44.2495L30.2661 44.1945ZM8.4274 32.7636L8.25137 33.3137L7.95433 32.8076L8.4274 32.7636ZM29.298 31.4653L29.1329 31.9824L28.8469 31.4983L29.298 31.4653ZM20.4965 34.1608L20.2984 34.7109L20.0234 34.1938L20.4965 34.1608ZM8.04233 43.8424L7.82231 44.3705L7.58027 43.8424H8.04233ZM2.80546 44.7226L1.15518 44.3045L1.3202 44.0185L1.21017 43.5784L1.59525 43.7214L2.14534 43.1053L2.80546 44.7226ZM5.09383 39.4967L4.2137 39.6397L4.65377 38.8256L5.09383 39.4967ZM4.43372 46.3729L4.19167 45.4927L5.07184 45.7128L4.43372 46.3729ZM5.47891 29.2319L5.62194 30.0021L5.02783 29.628L5.47891 29.2319ZM3.67458 27.8897L3.82863 28.6599L3.2235 28.2858L3.67458 27.8897ZM2.13433 27.9997L2.27736 28.7699L1.68325 28.3958L2.13433 27.9997ZM7.66827 37.2413L8.10834 37.1863L7.96531 37.7584L7.66827 37.2413ZM6.71111 35.8881L6.93116 35.118L7.37123 35.8001L6.71111 35.8881ZM7.04115 41.257L7.32721 40.4869L7.73428 41.213L7.04115 41.257ZM6.44708 33.7427L6.6451 32.9726L7.10716 33.6327L6.44708 33.7427ZM5.56691 38.9136L5.95198 37.9014L6.48008 38.8586L5.56691 38.9136ZM16.7558 35.8111L17.1409 34.7989L17.669 35.7561L16.7558 35.8111ZM5.91897 42.9183L6.35904 41.7521L6.97515 42.8523L5.91897 42.9183ZM25.9864 42.2142L26.3495 41.037L27.0316 42.0931L25.9864 42.2142ZM21.4426 33.7647L21.6627 32.5985L22.4108 33.5447L21.4426 33.7647ZM26.4705 38.1215L26.9105 37.0213L27.4827 38.0664L26.4705 38.1215ZM21.2996 35.481L22.4218 35.8551L21.3986 36.4712L21.2996 35.481ZM16.7448 32.8406L17.867 33.2147L16.8438 33.8308L16.7448 32.8406ZM24.6332 34.9859L25.7553 35.36L24.7322 35.9871L24.6332 34.9859ZM20.0344 28.0878L21.1676 28.4618L20.1444 29.0889L20.0344 28.0878ZM19.1542 36.8453L20.2544 37.0323L19.3963 37.7694L19.1542 36.8453ZM5.07184 34.4908L5.40189 33.2147L6.17203 34.3148L5.07184 34.4908Z" fill="#FFE4C0"/>
<path d="M4.09269 31.7404L5.3909 32.0704L4.29071 32.8406L4.09269 31.7404ZM0.0219829 33.5887L2.06835 34.8209L0.0329955 35.481L0.0219829 33.5887ZM20.0454 45.3277L20.4195 46.1749L19.4843 45.8448L20.0454 45.3277ZM22.1358 44.9646L22.5978 45.7678L21.6297 45.5477L22.1358 44.9646ZM7.47027 44.6346L7.83332 45.4927L6.90917 45.1627L7.47027 44.6346ZM6.63412 45.6468L7.21722 47L5.73196 46.4829L6.63412 45.6468ZM7.40426 31.6194L8.09739 32.8516L6.62311 32.4995L7.40426 31.6194ZM5.78699 32.0154L6.48011 33.2477L5.01684 32.9176L5.78699 32.0154ZM13.1912 33.7757L14.2254 34.7439L12.7182 34.8539L13.1912 33.7757ZM2.26637 29.0669L3.10253 29.617L2.05734 29.8701L2.26637 29.0669ZM3.22353 40.4869L4.29071 40.4649L3.74062 41.543L3.22353 40.4869ZM4.32372 40.949L4.60978 40.1788L5.3579 40.8389L4.32372 40.949ZM1.7053 42.6212L2.2554 41.543L3.11354 42.6432L1.7053 42.6212ZM2.71746 29.0449L2.12334 28.6599L2.80549 28.3078L2.71746 29.0449ZM6.07301 42.9073L5.45691 43.2923L5.2699 42.5222L6.07301 42.9073ZM8.41642 35.206L8.02037 35.7781L7.93233 35.118L8.41642 35.206ZM27.1746 46.4499L26.5915 46.5599L26.7346 46.0098L27.1746 46.4499ZM7.52527 33.7757L6.94217 33.8197L7.1402 33.2696L7.52527 33.7757ZM20.9035 36.9113L20.7935 37.3953L20.4855 37.0103L20.9035 36.9113ZM20.9146 40.1348L20.5515 41.345L19.7814 40.3218L20.9146 40.1348ZM18.2301 45.4707L19.2643 46.2409L18.0541 46.6039L18.2301 45.4707ZM22.2788 42.8523L23.2689 43.6444L22.0367 43.9745L22.2788 42.8523ZM0.330068 30.5522L1.50724 30.2661L1.2652 31.5864L0.330068 30.5522ZM1.50724 33.2807L1.56227 33.5007L1.05616 33.2807L0.990153 33.9737L0.308042 33.4677L1.05616 33.2807L0.649098 33.0386L1.35323 32.6425L1.48525 33.1926L2.20037 32.9066L1.95832 33.7537L1.50724 33.2807Z" fill="#FFE4C0"/>
<path d="M2.3104 32.4005L3.11355 32.8846L2.51944 33.2476L2.3104 32.4005ZM2.35442 34.3038L2.17838 33.5557L2.94849 33.9298L2.35442 34.3038ZM0.0660085 30.3651L0.616102 30.8602L0 31.1023L0.0660085 30.3651ZM1.24322 31.9054L1.48526 31.0582L1.99134 31.7184L1.24322 31.9054ZM23.0269 32.4005L23.291 32.8956L22.7739 32.7085L23.0269 32.4005ZM6.74415 29.2649L7.29425 29.221L6.92019 29.617L6.74415 29.2649ZM22.5868 28.4178L22.8509 28.9129L22.3338 28.7259L22.5868 28.4178ZM27.8237 33.5337L28.0878 34.0288L27.5707 33.8307L27.8237 33.5337ZM3.31157 28.4948L3.49859 29.353L2.78347 29.0889L3.31157 28.4948ZM0.82514 28.9019L1.02317 29.76L0.297038 29.496L0.82514 28.9019ZM32.7526 40.1458L32.9726 40.6959L32.4555 40.4428L32.7526 40.1458ZM35.7671 41.202L35.9871 41.7521L35.47 41.488L35.7671 41.202ZM21.9267 41.5321L22.3888 41.488L22.0808 41.9831L21.9267 41.5321ZM19.0222 42.3682L19.4623 42.3022L19.1873 42.8082L19.0222 42.3682ZM26.1735 38.7156L26.4485 39.1226L26.0084 39.0676L26.1735 38.7156ZM27.8237 34.8429L28.0988 35.25L27.6587 35.206L27.8237 34.8429ZM24.2371 28.2418L24.7212 28.1317L24.5012 28.5388L24.2371 28.2418ZM24.6552 29.529L24.9852 29.9031H24.5232L24.6552 29.529ZM7.20625 38.0444L7.48129 38.4515L7.04119 38.3965L7.20625 38.0444ZM2.54143 39.9808L3.23455 40.3768L2.51944 40.7509L2.46441 39.9038L1.6943 39.2436L2.88249 38.7266L2.54143 39.9808ZM3.5976 43.5344L4.40075 42.6102L4.91784 43.8204L5.15988 43.8974L4.66478 44.4475L4.33474 43.7874L3.5976 43.5344ZM4.91784 38.9576L5.65498 38.7376L5.30291 39.5077L4.91784 38.9576ZM5.79797 41.235L6.56812 41.048L6.17207 41.8511L5.79797 41.235ZM7.40427 41.7851L7.32725 41.455L7.82235 41.5651L7.62429 41.7301L7.93234 42.5002L7.00819 42.1371L7.40427 41.7851ZM22.1908 29.793L22.0808 29.485L22.5649 29.551L22.3888 29.727L22.7519 30.4091L21.8387 30.1451L22.1908 29.793ZM3.66364 30.2331L3.55362 29.9031L4.0377 29.9691L3.87265 30.1451L4.22471 30.8382L3.32255 30.5742L3.66364 30.2331ZM10.9689 28.0327L10.8588 27.7027L11.3429 27.7687L11.1669 27.9447L11.53 28.6379L10.6168 28.3738L10.9689 28.0327ZM4.47777 29.573L4.36774 29.2429L4.85183 29.309L4.6758 29.485L5.03888 30.1781L4.1257 29.9141L4.47777 29.573ZM10.4958 34.3808L10.3858 34.0728L10.8809 34.1388L10.7048 34.3148L11.0679 35.0079L10.1547 34.7329L10.4958 34.3808ZM5.79797 43.4024L5.72099 43.0723L6.22706 43.1823L6.02904 43.3474L6.32608 44.1175L5.41294 43.7434L5.79797 43.4024ZM4.91784 41.136L4.86284 41.378L4.27974 40.9379L4.89585 40.5529L5.06087 39.7827L6.05103 40.4869L4.91784 41.136ZM7.49227 39.2987L6.92019 39.6947L6.70014 38.9576L7.49227 39.2987Z" fill="#FFE4C0"/>
<path d="M15.4026 42.3902L14.8305 42.7863L14.6104 42.0492L15.4026 42.3902ZM5.47888 40.0798L6.27102 39.1557L6.79909 40.3659L7.04113 40.4539L6.53505 40.982L6.20501 40.3218L5.47888 40.0798ZM12.5421 41.9721L13.3452 41.037L13.8623 42.2472L14.1043 42.3242L13.6092 42.8743L13.2792 42.2142L12.5421 41.9721ZM5.43487 45.2727L5.03881 44.1175L6.33703 44.2715L6.53505 44.1065L6.7551 44.8106L6.02898 44.7666L5.43487 45.2727ZM3.16848 38.7816L3.8286 39.8818L2.45337 39.6947L3.16848 38.7816Z" fill="#FFE4C0"/>
<path d="M3.53162 37.5494L4.57681 39.0897H3.08058L3.53162 37.5494ZM2.72851 41.9721L2.7505 41.378L2.59649 41.048L2.83853 41.125L2.94853 40.993L3.09156 41.213L3.47663 41.4991L2.72851 41.9721ZM0.264066 31.3443L0.352099 31.2783L0.924185 31.6744L1.4303 31.9714L0.0330358 33.0386L0.0440484 31.2343L0.264066 31.3443Z" fill="#FFE4C0"/>
<path d="M0.946123 32.7636L0.363025 33.1376L0.39603 32.3345L0.946123 32.7636ZM2.6844 35.448L2.1563 34.8539L2.92645 34.7439L2.6844 35.448ZM1.05612 29.353L2.11232 29.0999L1.83727 30.2771L1.05612 29.353ZM5.62192 28.4178L5.59989 27.8677L6.106 28.0878L5.62192 28.4178ZM7.76726 29.0999L7.74527 28.5498L8.25135 28.7699L7.76726 29.0999ZM4.68675 28.5828L4.66473 28.0327L5.17084 28.2528L4.68675 28.5828ZM2.24434 46.3729L1.10013 45.2947L2.75041 44.6346L2.24434 46.3729ZM6.00696 31.3443L6.7771 31.2673L6.38105 31.9274L6.00696 31.3443ZM4.20267 30.8272L4.97278 30.7612L4.57673 31.4213L4.20267 30.8272ZM3.80658 28.9569L4.57673 28.8799L4.16966 29.54L3.80658 28.9569ZM3.38854 34.2158L2.67339 34.0398L3.33351 33.5447L3.38854 34.2158ZM2.31034 32.0154L3.48755 31.2783L3.64156 32.3785L2.31034 32.0154Z" fill="#FFE4C0"/>
<path d="M0.792139 28.8359L1.48526 28.3298L1.59529 29.0449L0.792139 28.8359ZM2.22237 31.3443L2.02434 30.0681L3.01451 30.3431L2.22237 31.3443ZM4.34576 34.2048L2.8605 33.6547L4.25772 32.8846L4.34576 34.2048ZM2.92651 35.9211L1.77132 36.7572L1.61728 35.657L1.17721 36.2071L0.671135 35.0849L1.47425 35.1179L1.63927 34.4028L2.14538 35.063L1.92533 35.1179L1.68329 35.514L2.92651 35.9211ZM3.22354 37.3513L2.56346 36.8012L3.4216 36.6252L3.22354 37.3513ZM0.64911 30.4862L0.13202 29.9911L0.869161 29.474L0.64911 30.4862ZM3.17956 29.43L3.66365 29.54L3.28955 29.8701L3.17956 29.43ZM2.8055 27.9667L3.28955 28.0768L2.90451 28.4068L2.8055 27.9667Z" fill="#FFE4C0"/>
<path d="M19.5173 41.092L20.0124 41.5321L19.3303 41.5871L19.5173 41.092ZM29.287 41.8181L29.8371 42.1812L29.155 42.3132L29.287 41.8181ZM1.69429 33.6437L1.8813 34.3918L1.18821 34.3368L1.69429 33.6437ZM1.27621 32.2905L2.02433 32.1034L1.74928 32.8516L1.27621 32.2905ZM4.62079 33.7207L5.00586 35.327L2.93751 34.9749L4.62079 33.7207ZM0.0219829 37.0213V40.7289L2.83849 38.1655L0.0219829 37.0213ZM0.0659998 41.455L0.121029 44.2055L1.8813 42.6983L0.0659998 41.455ZM1.2982 46.2629L2.9925 46.857L3.98266 44.7116L1.2982 46.2629ZM0.0659998 44.4145L0.94617 45.9548L1.45225 44.5796L0.0659998 44.4145ZM5.56694 30.5522L6.88717 29.8921L6.44711 31.3993L5.56694 30.5522ZM5.84198 28.5058L7.16222 27.8457L6.72215 29.353L5.84198 28.5058ZM12.4761 27.7577H13.9504L12.8832 28.9129L12.4761 27.7577ZM42.1482 43.0503L42.6983 42.8303L42.4342 43.3474L42.1482 43.0503ZM4.27974 35.657L5.53393 35.8771L4.58779 36.7352L4.27974 35.657ZM7.65728 36.5812L7.47027 36.7132L7.49226 36.1631L6.72215 36.4272L6.94217 35.591L7.49226 36.1631L7.54729 35.8551L8.20738 36.2071L7.65728 36.5812L8.27339 37.0873L7.45926 37.2633L7.65728 36.5812ZM6.5901 42.4122L8.15238 42.0271L7.36025 43.6444L6.5901 42.4122Z" fill="#FFE4C0"/>
<path d="M8.05337 44.7226L8.82348 44.5356L8.43845 45.3387L8.05337 44.7226ZM7.5803 41.7961L7.76731 41.7411L8.31741 41.6091L8.36142 41.7961L9.10954 41.6091L8.59245 42.7313L8.08638 42.2582L7.5803 41.7961ZM9.34057 45.7898L9.20856 45.3497L9.89067 45.4597L9.63765 45.7018L10.0777 46.692L8.81251 46.2518L9.34057 45.7898ZM7.32725 47L7.89933 45.6798L9.57164 46.945L7.32725 47ZM7.18422 44.6236L7.12922 44.8766L6.54612 44.4365L7.15121 44.0405L7.32725 43.2923L8.31741 43.9965L7.18422 44.6236ZM10.0227 37.7254L8.73548 38.0115L8.87851 36.6362L10.0227 37.7254ZM18.4171 39.8158L17.1299 40.1018L17.2729 38.7156L18.4171 39.8158ZM9.96769 41.5321L9.35159 41.9171L9.19758 41.257L9.96769 41.5321ZM11.2879 43.2923L11.2549 44.1285L10.7488 43.5344L11.2879 43.2923ZM10.2978 36.3392L11.5079 36.5042L10.8258 37.3843L10.2978 36.3392ZM14.3464 31.7844L15.5567 31.9494L14.8745 32.8296L14.3464 31.7844ZM17.845 32.4885L19.0552 32.6535L18.3731 33.5337L17.845 32.4885ZM8.1634 39.5077L7.37126 38.2425H8.85652L8.1634 39.5077ZM12.6191 44.1725L11.827 42.9073L13.3123 42.8963L12.6191 44.1725ZM12.5861 40.4759L12.6741 40.916L12.1791 40.7729L12.5861 40.4759ZM12.5091 32.7746L12.3331 33.3246L12.036 32.8186L12.5091 32.7746Z" fill="#FFE4C0"/>
<path d="M12.102 43.8424L11.882 44.3705L11.64 43.8424H12.102ZM16.3928 42.2472L16.1727 42.7753L15.9197 42.2472H16.3928ZM9.13154 39.4967L8.25137 39.6397L8.69144 38.8256L9.13154 39.4967ZM8.47142 46.3729L8.22938 45.4927L9.10952 45.7128L8.47142 46.3729ZM9.51658 29.2319L9.65961 30.0021L9.0655 29.628L9.51658 29.2319ZM13.1142 29.8261L13.2682 30.5962L12.6741 30.2221L13.1142 29.8261ZM17.4049 37.3073L17.845 37.2523L17.691 37.8244L17.4049 37.3073ZM10.7488 35.8771L10.9688 35.1069L11.4089 35.7891L10.7488 35.8771ZM11.0789 41.246L11.3649 40.4759L11.783 41.202L11.0789 41.246ZM22.3888 39.9808L22.6748 39.2107L23.0929 39.9368L22.3888 39.9808ZM13.3452 46.1419L13.6313 45.3717L14.0493 46.0868L13.3452 46.1419ZM10.4847 33.7317L10.6828 32.9616L11.1449 33.6217L10.4847 33.7317ZM9.60461 38.9026L9.98969 37.8904L10.5178 38.8476L9.60461 38.9026ZM9.96766 42.9073L10.3857 41.7411L11.0018 42.8413L9.96766 42.9073ZM8.61445 34.1828L8.94449 32.9066L9.71464 34.0068L8.61445 34.1828ZM8.13037 31.7294L9.42858 32.0594L8.32839 32.8296L8.13037 31.7294Z" fill="#FFE4C0"/>
<path d="M11.552 44.6456L11.9041 45.5037L10.9799 45.1737L11.552 44.6456ZM12.7182 45.4597L13.0703 46.3069L12.1461 45.9768L12.7182 45.4597ZM17.251 46.0098L17.614 46.8679L16.6789 46.5379L17.251 46.0098ZM16.7889 44.6346L15.9417 45.0196L16.2498 44.0845L16.7889 44.6346ZM13.8184 44.9316L12.9823 45.3167L13.2793 44.3815L13.8184 44.9316ZM10.9029 45.8338L11.9151 46.912H10.3418L10.9029 45.8338ZM14.4455 45.8338L15.4357 46.912H13.8624L14.4455 45.8338ZM11.475 31.6194L12.1681 32.8516L10.7049 32.4995L11.475 31.6194ZM7.29428 40.4869L8.35045 40.4649L7.80036 41.543L7.29428 40.4869ZM8.37247 40.949L8.6585 40.1788L9.40665 40.8389L8.37247 40.949ZM10.1327 42.9073L9.52766 43.2923L9.32963 42.5222L10.1327 42.9073ZM12.4762 35.206L12.0801 35.7781L11.9921 35.1179L12.4762 35.206ZM11.596 33.7757L11.0129 33.8197L11.2329 33.2696L11.596 33.7757ZM10.8259 29.2649L11.376 29.221L10.9909 29.617L10.8259 29.2649ZM11.332 38.0664L11.596 38.4735L11.1559 38.4185L11.332 38.0664ZM17.57 41.103L17.8451 41.51L17.405 41.455L17.57 41.103Z" fill="#FFE4C0"/>
<path d="M7.71232 43.5454L8.50445 42.6212L9.02154 43.8315L9.26359 43.9084L8.76849 44.4585L8.43845 43.7984L7.71232 43.5454ZM9.01053 38.9686L9.74767 38.7486L9.41759 39.5187L9.01053 38.9686ZM9.89067 41.246L10.6608 41.059L10.2648 41.8621L9.89067 41.246ZM11.497 41.7961L11.4199 41.4661L11.915 41.576L11.717 41.7411L12.025 42.5112L11.1119 42.1482L11.497 41.7961ZM14.7975 44.1285L14.7205 43.7984L15.2266 43.9084L15.0286 44.0735L15.3256 44.8436L14.4125 44.4806L14.7975 44.1285ZM16.5358 45.9548L16.8659 45.8888L16.7338 46.3839L16.5798 46.1638L15.8097 46.4389L16.2167 45.5367L16.5358 45.9548ZM17.3499 43.4244L17.2729 43.0943L17.768 43.2043L17.57 43.3694L17.878 44.1175L16.9539 43.7544L17.3499 43.4244ZM7.75633 30.2221L7.64631 29.8921L8.13039 29.9581L7.96534 30.1341L8.31741 30.8272L7.41525 30.5632L7.75633 30.2221ZM9.89067 43.4244L9.80267 43.0943L10.3087 43.2043L10.1107 43.3694L10.4188 44.1395L9.49462 43.7654L9.89067 43.4244ZM9.01053 41.158L8.95553 41.4L8.37244 40.9599L8.98854 40.5749L9.15356 39.8048L10.1437 40.5089L9.01053 41.158ZM11.585 39.3207L11.0129 39.7167L10.7928 38.9796L11.585 39.3207ZM15.7327 41.158L15.1606 41.5541L14.9406 40.8169L15.7327 41.158Z" fill="#FFE4C0"/>
<path d="M13.5653 30.9703L14.0054 30.9152L13.8623 31.4873L13.5653 30.9703ZM13.1582 31.7624L13.4223 32.1695L12.9822 32.1145L13.1582 31.7624ZM13.4332 33.0386L12.8611 33.4347L12.6411 32.6976L13.4332 33.0386ZM9.54957 40.0798L10.3417 39.1556L10.8698 40.3659L11.1119 40.4539L10.6058 40.982L10.2757 40.3218L9.54957 40.0798ZM14.6764 34.8209L14.8085 33.6107L15.9087 34.3148L16.1617 34.2378L16.0517 34.9639L15.4136 34.6119L14.6764 34.8209ZM9.50559 45.2727L9.1095 44.1175L10.4077 44.2715L10.6058 44.1065L10.8258 44.8106L10.0997 44.7666L9.50559 45.2727ZM9.63761 34.2928L10.4517 35.503L9.28554 35.525L9.63761 34.2928ZM11.6839 30.1341L12.4981 31.3443L11.3319 31.3663L11.6839 30.1341ZM9.70361 28.4178L9.68162 27.8677L10.1767 28.0878L9.70361 28.4178ZM11.838 29.0999L11.816 28.5498L12.3221 28.7699L11.838 29.0999ZM8.75743 28.5828L8.73544 28.0327L9.24152 28.2528L8.75743 28.5828ZM10.0777 31.3333L10.8478 31.2563L10.4407 31.9164L10.0777 31.3333ZM8.27335 30.8162L9.04349 30.7502L8.63643 31.4103L8.27335 30.8162ZM7.8773 28.9459L8.64744 28.8689L8.25136 29.529L7.8773 28.9459ZM8.42739 34.1718L6.93115 33.6217L8.32838 32.8516L8.42739 34.1718ZM6.72212 34.2048L7.11817 35.8001L5.04981 35.47L6.72212 34.2048Z" fill="#FFE4C0"/>
<path d="M9.63761 30.5522L10.9578 29.8921L10.5177 31.3993L9.63761 30.5522ZM18.5931 28.0548L18.4831 27.7247L18.9672 27.7907L18.8022 27.9667L19.1542 28.6599L18.2521 28.3958L18.5931 28.0548ZM15.3586 29.0999V28.5498L15.8537 28.7699L15.3586 29.0999ZM17.1189 29.2319L17.2729 30.0021L16.6788 29.628L17.1189 29.2319ZM18.4061 29.2649L18.9562 29.221L18.5711 29.617L18.4061 29.2649ZM26.7455 31.1573L27.2956 31.1133L26.9105 31.5093L26.7455 31.1573ZM24.4351 32.6976L24.9852 32.6646L24.6002 33.0606L24.4351 32.6976ZM19.7813 32.3675L20.3314 32.3345L19.9574 32.7306L19.7813 32.3675ZM15.2706 30.9152L15.1605 30.6072L15.6556 30.6622L15.4796 30.8382L15.8317 31.5313L14.9295 31.2673L15.2706 30.9152ZM25.9974 28.6049L25.8874 28.2968L26.3714 28.3518L26.1954 28.5278L26.5585 29.221L25.6453 28.9569L25.9974 28.6049ZM25.1833 40.9049L25.0732 40.5749L25.5573 40.6409L25.3923 40.8169L25.7443 41.51L24.8422 41.246L25.1833 40.9049ZM18.6591 35.0519L18.5491 34.7439L19.0442 34.8099L18.8682 34.9859L19.2312 35.668L18.3181 35.404L18.6591 35.0519ZM17.2949 28.4068L17.2729 27.8567L17.779 28.0768L17.2949 28.4068ZM16.3488 28.5719L16.3158 28.0218L16.8218 28.2418L16.3488 28.5719ZM15.8757 30.8162L16.6458 30.7502L16.2387 31.4103L15.8757 30.8162ZM20.4634 30.0131L21.2336 29.9361L20.8265 30.5962L20.4634 30.0131Z" fill="#FFE4C0"/>
<path d="M15.4687 28.9679L16.2388 28.8909L15.8317 29.551L15.4687 28.9679ZM17.427 31.3223L17.537 29.848L18.6042 31.0033L17.427 31.3223ZM13.5984 28.6599L14.9186 27.9997L14.4785 29.507L13.5984 28.6599ZM8.35044 35.657L9.60467 35.8771L8.65849 36.7352L8.35044 35.657ZM36.1522 44.3045L36.5593 44.7446L35.9871 44.7006L36.1522 44.3045ZM38.6056 43.7324L39.0127 44.1505L38.4406 44.1175L38.6056 43.7324ZM43.7985 32.8406L43.4354 32.3785L43.9855 32.4885L43.7985 32.8406ZM38.3526 36.0751L37.9895 35.613L38.5396 35.7231L38.3526 36.0751ZM33.0276 34.7109L32.5656 35.063L32.6756 34.5129L33.0276 34.7109ZM38.3086 33.0606L37.7915 32.7745L38.3416 32.6425L38.3086 33.0606ZM35.7121 31.4323L35.206 31.1463L35.7561 31.0143L35.7121 31.4323Z" fill="#FFE4C0"/>
</svg>
