<svg width="34" height="38" viewBox="0 0 34 38" fill="none" xmlns="http://www.w3.org/2000/svg">
<path d="M6.67787 12.6976L7.00361 11.3953L5.8635 11.558L6.67787 12.6976ZM2.7689 7.24412V5.8604L1.71021 6.34877L2.7689 7.24412ZM5.21201 10.9069L6.59642 10.1743L5.53775 9.27899L5.21201 10.9069ZM1.71021 4.55809L2.36172 4.3139L1.62879 3.90693L1.71021 4.55809Z" fill="#0A4049"/>
<path d="M0.325742 1.22092L0.895786 1.13953L0 0L0.325742 1.22092ZM1.95448 7.7325L2.85029 7.48832L2.03592 6.34879L1.95448 7.7325ZM3.09459 7.56972L4.64189 7.24414L3.82752 6.10461L3.09459 7.56972ZM2.28022 5.94182L3.66466 5.29066L2.60596 4.31393L2.28022 5.94182ZM4.80477 13.5929L6.18918 12.8604L5.13051 11.965L4.80477 13.5929Z" fill="#0A4049"/>
<path d="M4.15326 13.9999L5.61914 13.5115L4.72333 12.4534L4.15326 13.9999ZM8.79518 22.3022L8.71374 20.9185L7.65507 21.5696L8.79518 22.3022ZM6.51496 13.9999L7.16644 12.779L6.02633 12.6976L6.51496 13.9999ZM8.22511 21.1626L8.30655 20.2673L7.57363 20.5115L8.22511 21.1626ZM8.79518 25.3952L8.06225 25.151V25.8835L8.79518 25.3952ZM13.1113 20.8371L12.7041 21.4882L13.3557 21.5696L13.1113 20.8371ZM17.4275 25.6394L18.2419 25.8835L18.1604 25.151L17.4275 25.6394ZM13.1928 25.151L13.5185 24.4998L12.867 24.4184L13.1928 25.151ZM16.6131 30.4417L16.0431 29.8719L15.7988 30.523L16.6131 30.4417ZM1.14011 2.52325L0.977228 1.13953L0 1.7093L1.14011 2.52325ZM2.19878 9.68599L2.93171 7.81391L1.7916 7.65112L2.19878 9.68599Z" fill="#0A4049"/>
<path d="M2.60598 11.4767L3.82753 9.84876L2.11735 9.36038L2.60598 11.4767ZM14.4143 24.1742H15.3101L14.903 23.4417L14.4143 24.1742ZM9.12094 11.7208L9.20238 12.4534L9.77245 12.1278L9.12094 11.7208ZM16.6946 23.1161L16.8574 22.3835L16.206 22.5463L16.6946 23.1161ZM5.53771 8.62783L5.78202 7.89527L5.13053 7.97667L5.53771 8.62783ZM2.11735 3.17439L0.488613 2.19765L1.14012 4.80228L2.11735 3.17439Z" fill="#0A4049"/>
<path d="M3.99046 5.37205L1.14018 4.72089L1.6288 7.32553L3.99046 5.37205ZM5.37486 11.7209L2.44317 11.1511L3.01321 13.7557L5.37486 11.7209Z" fill="#0A4049"/>
<path d="M5.86343 14.2441L3.01315 13.6743L3.50178 16.2789L5.86343 14.2441Z" fill="#0A4049"/>
<path d="M6.35211 16.8487L3.50181 16.1976L3.909 18.965L6.35211 16.8487ZM2.85032 7.81389L3.50181 8.95341L4.1533 7.97668L2.85032 7.81389ZM6.7593 13.1859L8.22516 12.6162L7.24792 11.6394L6.7593 13.1859ZM6.35211 13.4301L6.43355 14.9766L7.65511 14.3255L6.35211 13.4301Z" fill="#0A4049"/>
<path d="M3.90894 18.8022L4.15325 20.2673L5.45624 19.4533L3.90894 18.8022ZM5.29338 17.5813L5.70057 19.1278L6.84068 18.2324L5.29338 17.5813ZM4.72331 15.2208L4.8862 16.8487L6.10775 16.1976L4.72331 15.2208ZM8.71372 15.9534L8.06223 15.2208L7.73649 15.9534H8.71372ZM12.1341 18.4766L11.4012 18.8022L11.9712 19.2092L12.1341 18.4766ZM11.8083 12.1278L11.9712 12.9418L12.5413 12.5348L11.8083 12.1278ZM17.1832 20.1859L17.9975 19.6975L17.346 19.2905L17.1832 20.1859ZM14.0886 23.1975L13.9257 22.465L13.4371 22.8719L14.0886 23.1975ZM20.3592 23.9301L19.6263 24.0114L19.952 24.5812L20.3592 23.9301ZM8.14367 18.3952L7.89935 16.7673L6.67779 17.5813L8.14367 18.3952ZM9.85383 14.651L9.03946 14.4883L9.20234 15.1394L9.85383 14.651ZM15.2287 19.7789L15.473 20.6743L16.1245 20.1859L15.2287 19.7789ZM13.3556 15.9534H14.17L13.8443 15.3022L13.3556 15.9534ZM10.7496 21.651L10.9125 20.9184L10.261 21.0812L10.7496 21.651ZM4.23469 15.1394L6.18917 14.5697L4.96761 13.1859L4.23469 15.1394ZM3.25746 13.9185L4.56043 13.1859L3.50176 12.372L3.25746 13.9185Z" fill="#0A4049"/>
<path d="M5.8634 16.3604L7.08495 16.8487V15.7092L5.8634 16.3604ZM3.42029 9.93016L4.0718 10.3371L4.15322 9.68599L3.42029 9.93016ZM8.22507 28.9765L9.77239 29.0579L9.28376 27.7556L8.22507 28.9765ZM16.6945 16.8487L17.5089 17.2557V16.4417L16.6945 16.8487ZM12.5412 15.872L12.9484 15.3022L12.2969 15.1394L12.5412 15.872ZM15.3101 21.4882L14.8215 20.9185L14.4957 21.4882H15.3101ZM12.2969 18.2324L13.1113 18.7208L13.1927 17.9069L12.2969 18.2324ZM10.4239 20.1045L10.0981 20.8371H10.8311L10.4239 20.1045ZM14.8215 18.6394L15.3915 18.0696L14.6586 17.8255L14.8215 18.6394ZM10.5868 15.058V16.3604L11.6454 15.872L10.5868 15.058ZM8.71369 24.9882L10.3424 25.2324L9.93525 23.8487L8.71369 24.9882ZM7.81788 18.6394L9.3652 18.8022L8.95802 17.4999L7.81788 18.6394ZM12.0526 24.337L12.4598 23.4417H11.6454L12.0526 24.337ZM11.0754 28.4882L10.5053 27.9998L10.261 28.651L11.0754 28.4882ZM16.7759 25.6394L16.1245 26.1277L16.6945 26.4533L16.7759 25.6394ZM18.9748 16.5231H19.8706L19.5448 15.7906L18.9748 16.5231ZM14.74 17.3371L14.9844 16.6045L14.3328 16.7673L14.74 17.3371ZM19.6262 21.3254L18.9748 20.9999V21.651L19.6262 21.3254ZM17.0203 21.244L16.4502 20.6743L16.2059 21.3254L17.0203 21.244ZM10.8311 20.5115L10.9125 21.4068L11.6454 20.9999L10.8311 20.5115ZM9.3652 16.5231L10.1796 16.6045L9.93525 15.9534L9.3652 16.5231ZM6.10772 21.8952L6.43347 21.1626H5.70054L6.10772 21.8952ZM12.867 20.4301L13.1927 21.0813L13.5999 20.5929L12.867 20.4301ZM16.6945 23.9301L17.1831 24.8254L17.7532 24.0929L16.6945 23.9301Z" fill="#0A4049"/>
<path d="M13.5185 20.2673L14.3329 20.1045L13.9257 19.5347L13.5185 20.2673ZM12.2969 27.3487V26.4533L11.6455 26.7789L12.2969 27.3487ZM6.6778 19.2906L5.53769 18.558L5.3748 19.7789L6.6778 19.2906ZM6.27061 22.3022L6.4335 20.9999L5.29339 21.4068L6.27061 22.3022Z" fill="#0A4049"/>
<path d="M7.08502 21.244L5.94489 20.5115L5.782 21.651L7.08502 21.244Z" fill="#0A4049"/>
<path d="M5.45622 21.4068L6.18915 23.3603L7.49214 22.058L5.45622 21.4068Z" fill="#0A4049"/>
<path d="M4.15321 20.3487L4.47898 22.3022L6.43346 20.9184L4.15321 20.3487ZM7.0035 22.3022L8.55082 21.651L7.49213 20.6743L7.0035 22.3022ZM7.0035 24.5812L8.55082 24.2556L7.65501 23.1161L7.0035 24.5812ZM9.03942 23.6045L9.28375 22.3022L8.14364 22.5463L9.03942 23.6045ZM6.67776 24.0114L6.84064 22.7091L5.70053 23.1161L6.67776 24.0114ZM8.3065 18.6394L8.95801 18.965V18.3138L8.3065 18.6394Z" fill="#0A4049"/>
<path d="M7.41076 22.6277L4.56047 22.2208L4.88624 24.8254L7.41076 22.6277ZM8.22513 24.5812L7.89939 26.0463L9.12094 25.8021L8.22513 24.5812ZM11.4012 24.2556L11.7269 24.9882L12.297 24.4998L11.4012 24.2556ZM9.44668 20.9185L10.0982 20.8371L9.77245 20.2673L9.44668 20.9185ZM7.2479 25.8021L7.81795 24.5812L6.27065 24.9882L7.2479 25.8021ZM15.7173 26.1277L15.8802 26.9417L16.5317 26.4533L15.7173 26.1277ZM14.0886 22.6277H14.7401L14.4958 22.058L14.0886 22.6277ZM11.5641 27.7556L11.8084 27.1045L11.1569 27.1859L11.5641 27.7556ZM6.18921 27.5114L6.59639 26.3719L5.53772 26.4533L6.18921 27.5114ZM6.59639 26.2091L7.2479 26.5347L7.32934 25.8835L6.59639 26.2091Z" fill="#0A4049"/>
<path d="M8.82773 37.4904L8.33911 35.4556L7.19899 37.1649L8.82773 37.4904ZM7.73648 25.9649L4.9676 25.0696L5.13049 27.6742L7.73648 25.9649ZM5.21193 27.9184L5.45623 29.4649L6.59634 28.7324L5.21193 27.9184ZM6.67779 26.9417L6.84067 28.5696L8.06222 27.837L6.67779 26.9417ZM11.8897 27.0231L11.4011 26.2091L10.9125 26.9417L11.8897 27.0231ZM14.9029 30.0347L14.17 30.2788L14.5772 30.8486L14.9029 30.0347ZM15.5544 23.7673L15.6359 24.5812L16.2059 24.2556L15.5544 23.7673ZM10.5868 29.3021L10.4239 27.5928L9.1209 28.4068L10.5868 29.3021ZM9.20234 27.7556L8.71371 26.1277L7.65504 27.1859L9.20234 27.7556ZM7.98078 20.1045L7.16641 18.6394L6.2706 19.8603L7.98078 20.1045ZM12.867 29.7091L12.6227 28.0812L11.4011 28.8951L12.867 29.7091ZM18.4047 32.4765L18.4862 33.4533L19.2191 33.0463L18.4047 32.4765ZM17.346 28.4068L18.079 28.4882L17.9161 27.837L17.346 28.4068ZM13.5999 33.5346L13.9257 32.8021H13.2742L13.5999 33.5346ZM9.1209 30.1975L7.98078 29.4649L7.8179 30.6858L9.1209 30.1975ZM7.5736 31.9881L7.49216 30.6044L6.43348 31.1742L7.5736 31.9881Z" fill="#0A4049"/>
<path d="M9.36521 32.3951L8.14365 31.8254V33.0463L9.36521 32.3951ZM9.12088 34.1044L11.0754 34.6742L10.8311 32.8835L9.12088 34.1044ZM5.45622 29.1393L5.78196 31.4998L7.57358 30.4416L5.45622 29.1393ZM9.44663 33.3719L10.8311 32.5579L9.69095 31.8254L9.44663 33.3719ZM8.79514 31.6626L10.0167 30.6858L8.79514 30.0347V31.6626ZM12.1341 35.3253L13.1113 34.1858L11.8083 33.7788L12.1341 35.3253ZM17.346 32.8835L17.1017 31.337L15.9616 32.0695L17.346 32.8835ZM13.0299 32.5579L12.1341 31.5812L11.6454 32.6393L13.0299 32.5579Z" fill="#0A4049"/>
<path d="M11.5641 35.0812L10.8311 33.9416L10.1797 34.9184L11.5641 35.0812ZM10.5054 29.8719L11.1569 30.2788V29.5463L10.5054 29.8719ZM8.71377 32.7207L5.86348 31.9067L6.18922 34.6742L8.71377 32.7207ZM12.7856 34.3486L13.6 35.5695L14.2515 34.5114L12.7856 34.3486Z" fill="#0A4049"/>
<path d="M14.5772 31.4998L15.3915 31.8254V31.0928L14.5772 31.4998ZM10.8311 30.523L11.3197 30.0347L10.6682 29.7905L10.8311 30.523ZM13.2742 35.6509L12.867 35.1625L12.5412 35.6509H13.2742ZM11.9712 30.1161L12.7855 29.8719L12.2969 29.3021L11.9712 30.1161ZM8.55083 31.9068V31.2556L7.98076 31.4998L8.55083 31.9068ZM13.7628 34.1044L13.1113 34.023L13.2742 34.5928L13.7628 34.1044ZM13.0299 36.4649L13.6813 36.1393L13.1927 35.7323L13.0299 36.4649ZM8.87657 34.837L6.18914 34.6742L6.67776 37.1974L8.87657 34.837Z" fill="#0A4049"/>
<path d="M11.9712 37.3765L13.5999 36.8067L11.9712 35.0812V37.3765ZM14.5772 34.837L13.7628 33.4533L12.9485 34.5928L14.5772 34.837ZM13.0299 33.1277L11.6455 33.2091L12.2969 34.2672L13.0299 33.1277ZM10.0982 35.2439L8.79515 35.3253L9.36522 36.3835L10.0982 35.2439Z" fill="#0A4049"/>
<path d="M14.0886 35.3253L12.7856 35.5695L13.4371 36.5463L14.0886 35.3253ZM12.0527 35.1625L10.7497 35.4881L11.4826 36.3835L12.0527 35.1625ZM9.8539 35.9765L9.33271 37.6044L11.727 37.4416L9.8539 35.9765ZM13.8443 33.8602L15.2287 33.5346L14.4958 32.4765L13.8443 33.8602ZM12.1341 31.0928L12.7042 30.523L11.9713 30.1975L12.1341 31.0928ZM9.93534 34.3486L9.6096 33.6974L9.20241 34.2672L9.93534 34.3486ZM15.6359 33.6974L14.9844 33.9416L15.3916 34.43L15.6359 33.6974ZM14.8215 25.558L15.5545 25.2324L15.0659 24.744L14.8215 25.558Z" fill="#0A4049"/>
<path d="M11.4826 27.5928L11.4011 26.8603L10.8311 27.1859L11.4826 27.5928ZM16.8574 29.4649L16.2059 29.3021L16.3688 29.9533L16.8574 29.4649ZM17.5903 34.7556L16.3688 34.837L16.3362 35.5125L17.5903 34.7556ZM15.9616 34.5928V33.8602L15.3916 34.1044L15.9616 34.5928Z" fill="#0A4049"/>
<path d="M13.8442 34.3486L14.0723 36.6928L16.2873 35.5125L13.8442 34.3486ZM16.3688 32.5579L17.0203 35.1625L19.0562 34.1044L16.3688 32.5579Z" fill="#0A4049"/>
<path d="M19.0563 34.1044L20.4407 33.2091L19.3006 32.6393L19.0563 34.1044ZM17.509 32.7207L18.9748 32.1509L17.9976 31.1742L17.509 32.7207ZM16.206 32.9649L15.3102 32.8835L15.5545 33.6974L16.206 32.9649ZM20.4407 32.3137L20.1964 33.0463L20.8479 32.9649L20.4407 32.3137ZM15.7173 28.0812L16.3688 28.4882L16.4503 27.837L15.7173 28.0812ZM15.7988 30.523L14.2515 31.0114L15.2287 32.1509L15.7988 30.523ZM21.988 28.244L22.8024 28.7323L22.8838 27.9184L21.988 28.244ZM17.9976 26.7789L18.5676 26.2091L17.9162 25.9649L17.9976 26.7789ZM20.0335 32.7207L19.6263 32.0695L19.2191 32.5579L20.0335 32.7207Z" fill="#0A4049"/>
<path d="M18.6491 31.2556L18.3233 32.5579L19.5449 32.3137L18.6491 31.2556ZM21.4179 30.1161L20.2778 30.7672L21.2551 31.4998L21.4179 30.1161Z" fill="#0A4049"/>
<path d="M20.115 30.1161V31.4184L21.1737 30.93L20.115 30.1161Z" fill="#0A4049"/>
<path d="M20.7664 31.5812L22.3137 30.0347L20.5221 29.3835L20.7664 31.5812Z" fill="#0A4049"/>
<path d="M20.1149 33.4533L21.988 32.0696L20.1964 31.0114L20.1149 33.4533ZM21.0107 29.5463L19.6263 28.651L19.382 30.0347L21.0107 29.5463ZM23.0466 28.8138L22.0694 27.5928L21.4179 28.8138H23.0466ZM21.3365 27.3486L20.0335 27.6742L20.7664 28.5696L21.3365 27.3486ZM22.6395 29.3021L21.4179 29.7905L22.2323 30.6044L22.6395 29.3021ZM17.9161 29.3835L18.2419 28.651L17.509 28.7324L17.9161 29.3835Z" fill="#0A4049"/>
<path d="M21.1736 29.2207L21.988 32.0695L23.9425 30.4417L21.1736 29.2207ZM22.2323 27.9184L23.5353 27.43L22.6395 26.5347L22.2323 27.9184ZM19.7892 25.6394L20.1964 24.9068L19.4634 24.8254L19.7892 25.6394ZM18.4862 29.3021L17.9976 28.8138L17.7533 29.3835L18.4862 29.3021ZM23.861 27.3486L23.2095 27.7556L23.6981 28.0812L23.861 27.3486ZM21.8251 21.8138L22.4766 21.3254L21.8251 20.9999V21.8138ZM19.382 24.8254L19.0563 24.1742L18.6491 24.6626L19.382 24.8254ZM25.0826 24.8254L24.3497 24.9882L24.6754 25.4766L25.0826 24.8254Z" fill="#0A4049"/>
<path d="M25.5713 27.6742L24.4311 28.0812L25.1641 28.8138L25.5713 27.6742ZM24.3497 28.1626L24.1868 27.43L23.6982 27.837L24.3497 28.1626ZM23.2421 28.3742L24.0565 30.2463L25.4409 28.944L23.2421 28.3742ZM26.7928 25.558L25.6527 26.2905L26.7114 26.9417L26.7928 25.558Z" fill="#0A4049"/>
<path d="M25.4084 25.6394L25.5712 26.9417L26.6299 26.2905L25.4084 25.6394ZM32.9413 21.6347L34 20.4952L32.8191 20.2673L32.9413 21.6347Z" fill="#0A4049"/>
<path d="M25.4735 29.0091L27.2651 27.4626L25.3921 26.6487L25.4735 29.0091ZM31.2718 23.5557L29.7245 23.4417L30.1317 24.744L31.2718 23.5557ZM28.4215 24.1743L27.3628 23.0347L26.7928 24.2557L28.4215 24.1743ZM28.0958 24.744L26.7928 25.2324L27.6886 26.0463L28.0958 24.744Z" fill="#0A4049"/>
<path d="M26.3855 24.744L27.2976 27.3649L29.1707 25.6556L26.3855 24.744ZM30.8646 23.3603L32.2897 22.4324L31.2718 21.9766L30.8646 23.3603ZM24.1053 22.5463L24.4311 21.8138H23.6981L24.1053 22.5463ZM22.9652 26.2905L22.4765 25.8021L22.2322 26.4533L22.9652 26.2905ZM28.2586 24.0929L27.6071 24.4184L28.1771 24.8254L28.2586 24.0929ZM27.5256 18.558L27.6885 17.7441L26.9556 17.9068L27.5256 18.558ZM27.5256 22.3836L26.8742 22.1394V22.7905L27.5256 22.3836ZM31.9232 18.8022L31.4346 19.2906L32.0861 19.5347L31.9232 18.8022Z" fill="#0A4049"/>
<path d="M31.2229 22.5626L30.1317 23.2789L30.8972 23.7836L31.2229 22.5626ZM29.6431 23.4417L29.4802 22.7905L28.9916 23.1975L29.6431 23.4417ZM28.4215 23.7673L29.2359 25.4766L30.6203 24.1743L28.4215 23.7673Z" fill="#0A4049"/>
</svg>
