<svg width="15" height="14" viewBox="0 0 15 14" fill="none" xmlns="http://www.w3.org/2000/svg">
<path d="M3.37823 2.63528L3.54302 3.04705L3.87261 2.71764L3.37823 2.63528Z" fill="#A84D3B"/>
<path d="M3.37824 2.14117L3.13105 2.88235L4.0374 2.71764L3.37824 2.14117ZM7.74519 5.27058V6.17646L8.65153 5.76469L7.74519 5.27058ZM5.52052 3.87058L5.43812 4.77646L6.34447 4.44705L5.52052 3.87058ZM4.28459 2.9647L4.11979 3.87058L5.10855 3.62352L4.28459 2.9647Z" fill="#A84D3B"/>
<path d="M2.80151 1.31764L2.47192 2.14117H3.46067L2.80151 1.31764ZM8.98117 7.24704L8.56919 6.75292L8.2396 7.3294L8.98117 7.24704ZM7.82762 6.34116L7.33326 5.68234L7.08607 6.42351L7.82762 6.34116ZM11.2058 8.07056L10.6291 7.4941L10.4643 8.15292L11.2058 8.07056ZM13.6777 8.97645L13.1009 8.31763L12.8538 9.0588L13.6777 8.97645ZM9.31074 6.01175L8.81638 5.76469V6.50587L9.31074 6.01175ZM10.4643 8.56469L10.0523 8.15292L9.80512 8.72939L10.4643 8.56469ZM7.25086 5.27058L6.75649 4.94116L6.67409 5.68234L7.25086 5.27058ZM11.6178 6.99998L10.7939 6.67057L10.8763 7.6588L11.6178 6.99998ZM13.1833 7.24704L12.5242 7.16469L12.689 7.90586L13.1833 7.24704ZM14.2545 8.56469H13.5953L13.8425 9.14115L14.2545 8.56469ZM11.9474 8.39998L11.7002 7.82351L11.2882 8.39998H11.9474ZM13.9249 10.2941L14.0073 9.71762L13.3481 9.88233L13.9249 10.2941ZM13.7601 11.3647L13.8425 10.7882L13.1833 10.9529L13.7601 11.3647ZM12.3594 11.3647L12.0298 11.6117L12.4418 11.8588L12.3594 11.3647ZM12.6066 8.15292L12.277 8.48233L12.7713 8.72939L12.6066 8.15292ZM14.5017 7.57645L14.0073 7.4941L14.1721 7.98821L14.5017 7.57645ZM12.9362 12.3529L12.6066 12.6L13.1009 12.847L12.9362 12.3529ZM4.77899 3.78822L4.44941 4.03529L4.86139 4.28234L4.77899 3.78822ZM1.97755 0L1.64796 0.247054L2.05994 0.494115L1.97755 0ZM10.2995 7.74116L10.0523 7.4941L9.96991 7.90586L10.2995 7.74116ZM7.99242 7.08233L8.07481 6.75292H7.66283L7.99242 7.08233ZM9.14595 7.82351L9.31074 7.4941H8.89876L9.14595 7.82351ZM10.8763 9.47057L11.0411 9.88233L11.453 9.55292L10.8763 9.47057ZM13.2657 7.82351L13.0185 8.07056L13.3481 8.23527L13.2657 7.82351Z" fill="#A84D3B"/>
<path d="M13.4305 7.41177L13.0185 7.74118L13.5129 7.98823L13.4305 7.41177ZM12.4417 7.74118L12.1121 7.98823L12.4417 8.15294V7.74118ZM12.7713 13.5882L12.4417 13.7529L12.7713 14V13.5882ZM11.865 12.6823L12.0297 13.0118L12.2769 12.6823H11.865ZM11.7826 10.7059L11.9473 11.0353L12.1945 10.7059H11.7826ZM13.3481 11.4471L13.1009 11.2823L13.0185 11.6118L13.3481 11.4471ZM1.8951 7.57647L2.05989 7.74118L2.22469 7.49412L1.8951 7.57647ZM3.46062 6.58824L3.29582 6.75294H3.54301L3.46062 6.58824ZM5.10853 9.47059L4.86134 9.38823L4.94373 9.71764L5.10853 9.47059ZM4.28458 8.07059L4.11978 8.31765H4.44937L4.28458 8.07059ZM9.96986 10.7059L9.88746 11.2L10.3818 10.9529L9.96986 10.7059ZM9.22831 7V7.41177L9.64029 7.24706L9.22831 7ZM9.22831 6.17648V6.58824L9.72267 6.34118L9.22831 6.17648ZM2.88384 3.62354V4.11766L3.29582 3.8706L2.88384 3.62354ZM12.7713 9.63529L12.3593 9.71764L12.6889 10.0471L12.7713 9.63529ZM11.5354 13.0941L11.3706 12.7647L11.041 13.0941H11.5354ZM11.7826 8.81176L12.0297 9.14117L12.2769 8.72941L11.7826 8.81176ZM13.1009 9.30588L13.3481 9.71764L13.5953 9.22353L13.1009 9.30588ZM13.9248 7.74118L13.6777 8.07059L14.0896 8.15294L13.9248 7.74118ZM13.4305 10.3765L13.1009 10.1294V10.6235L13.4305 10.3765ZM4.11978 3.04707L3.62541 3.37648L4.20218 3.70589L4.11978 3.04707ZM2.47187 3.70589L2.22469 3.45883L2.14229 3.8706L2.47187 3.70589ZM0.823955 2.88236L0.659167 2.71766L0.576779 3.04707L0.823955 2.88236ZM0.411978 5.4353L0.494378 5.10589H0.164801L0.411978 5.4353ZM3.54301 3.62354L3.7078 3.95295L4.03739 3.62354H3.54301ZM2.55427 2.80001L2.80145 3.29413L3.21343 2.88236L2.55427 2.80001ZM2.38948 0.576485L2.05989 1.0706L2.71905 1.15296L2.38948 0.576485ZM4.86134 4.52942L4.61415 4.69412L4.94373 4.94118L4.86134 4.52942ZM5.52051 4.20001L5.27332 4.36471L5.6029 4.52942L5.52051 4.20001ZM6.17966 4.52942L5.93249 4.69412L6.17966 4.94118V4.52942ZM4.94373 6.75294L4.77894 6.58824L4.69655 6.91765L4.94373 6.75294ZM0 3.95295L0.164801 4.20001L0.411978 3.8706L0 3.95295ZM1.8951 2.05884L1.64791 2.22354L1.9775 2.38825L1.8951 2.05884ZM1.81271 5.10589L1.56552 4.94118L1.48312 5.2706L1.81271 5.10589ZM2.05989 1.72942L2.22469 1.97649L2.47187 1.64707L2.05989 1.72942ZM2.88384 2.14119L3.04864 2.4706L3.29582 2.14119H2.88384ZM0.988756 1.31766L0.741567 1.56472L1.07114 1.64707L0.988756 1.31766ZM1.23593 0.494133L0.988756 0.32943L0.906356 0.658836L1.23593 0.494133ZM5.6029 5.02354V5.35295L6.01487 5.18824L5.6029 5.02354ZM7.16842 5.68236L6.83883 5.76471L7.08602 6.01177L7.16842 5.68236ZM6.50925 5.02354L6.17966 5.10589L6.42685 5.35295L6.50925 5.02354ZM12.0297 7.49412L11.7002 7.57647L11.9473 7.82353L12.0297 7.49412ZM10.7938 7L10.5466 7.08235L10.7114 7.32942L10.7938 7ZM6.92123 7.57647L6.83883 7.32942L6.59164 7.57647H6.92123ZM11.5354 11.6941L11.453 11.4471L11.2058 11.6941H11.5354ZM6.50925 6.75294L6.34446 6.50589L6.09728 6.75294H6.50925ZM8.65153 6.25883V6.67059L8.98112 6.50589L8.65153 6.25883ZM9.96986 6.58824V6.91765L10.2994 6.75294L9.96986 6.58824ZM11.453 7.32942L11.1234 7.41177L11.3706 7.65882L11.453 7.32942ZM10.2994 8.97647L10.1347 8.72941L9.96986 8.97647H10.2994ZM6.75644 8.89411V9.22353L7.08602 9.05882L6.75644 8.89411ZM8.32195 8.07059L8.07476 8.15294L8.23955 8.4L8.32195 8.07059ZM11.1234 8.72941L11.041 8.48235L10.7938 8.72941H11.1234Z" fill="#A84D3B"/>
</svg>
