<svg width="19" height="42" viewBox="0 0 19 42" fill="none" xmlns="http://www.w3.org/2000/svg">
<path d="M1.74785 5.9211L1.71488 6.03102C1.73686 6.03102 1.74785 5.99805 1.74785 5.9211ZM4.47399 33.2155C4.47515 33.2238 4.47901 33.2315 4.48497 33.2375L4.47399 33.2155ZM0.868449 10.2411C0.868449 10.2302 0.857463 10.2192 0.857463 10.2082L0.868449 10.2411Z" fill="white"/>
<path d="M0.428707 4.7229C0.538632 6.17391 0.384741 6.56965 0.604591 8.06463L0.868417 10.2302C1.0443 10.5599 0.956352 11.1425 1.12124 11.5273L1.05529 11.6922C1.12664 11.827 1.1499 11.982 1.12124 12.1319V12.1209C1.19819 12.3187 1.1872 12.5606 1.23117 12.6485V12.6375L1.26415 12.8794L1.23117 12.8354C1.33246 13.1702 1.38067 13.5189 1.37406 13.8687L1.462 13.8357C1.41803 14.5282 1.64888 14.7591 1.57194 15.3746L1.54995 15.3636C1.87972 16.1331 1.50598 16.6168 1.82476 17.3863C1.78079 17.2763 1.78079 17.4302 1.75881 17.4302C1.82476 17.793 1.86873 18.1997 2.0666 18.1777C2.08858 18.4525 2.03363 18.3976 1.95668 18.4416C2.03363 18.4306 2.09958 18.6614 2.12156 18.8812L2.07758 18.7713L2.16552 19.3759L2.30843 19.244C2.29744 19.5738 2.13255 19.3539 2.1985 19.6507L2.33042 19.6287C2.29663 20.0219 2.23045 20.4117 2.13255 20.7939C2.24247 22.5747 2.77011 24.4545 2.71515 26.1363L2.62721 26.2242C2.4843 26.2682 2.88005 26.6639 2.75913 26.7409L2.84707 26.9278C2.82509 26.9827 2.81409 27.1036 2.77011 27.0047C2.77268 27.1131 2.80296 27.2191 2.85806 27.3125L2.7921 27.5104C2.7921 28.2249 3.01195 28.7965 3.06692 29.544C3.07561 30.7297 3.22317 31.9102 3.50661 33.0616C3.83639 34.3807 3.45165 36.0295 3.83639 37.3816C3.83717 37.4376 3.8565 37.4917 3.89135 37.5355L4.00127 38.8107C4.00127 38.8107 4.5509 44.9664 5.26542 40.1737L5.29839 40.2067C5.34592 39.662 5.2708 39.1136 5.07855 38.6018C5.26542 38.4919 5.04556 38.0302 5.08953 37.8653H5.11152C4.92465 37.4586 5.14451 36.9859 4.97962 36.5902C5.00125 36.5997 5.01985 36.615 5.03341 36.6344C5.04697 36.6538 5.05497 36.6765 5.05656 36.7001C5.00159 36.4033 4.92465 36.0076 5.02358 35.9746C4.97866 35.2493 4.85706 34.5308 4.66083 33.8311L4.6938 33.864C4.5509 33.6112 4.63883 33.5343 4.55089 33.2485C4.56189 33.2265 4.57288 33.2045 4.57288 33.2155C4.4814 32.8737 4.42251 32.524 4.397 32.1712L4.46297 32.1492L4.38601 31.5996V31.8194C4.16616 31.7645 4.47395 31.3797 4.29807 30.984C4.28708 30.5992 3.80342 30.2475 3.85838 29.8408C3.74845 29.6649 4.02326 29.9947 3.92433 29.7308C4.03426 29.7089 4.00128 29.8408 4.07823 29.7748C4.00128 29.5 4.14419 29.3131 4.03426 28.9724H4.1112C3.91334 28.5327 4.13318 28.1149 3.96829 27.8401C3.85837 27.4004 4.18814 27.5104 3.96829 27.0487L4.05624 26.8508C4.05624 26.631 3.90235 26.7189 3.94632 26.4881C4.01228 26.499 3.9683 26.1913 4.05624 26.3232C4.1112 25.7955 3.79243 25.2899 3.91334 24.5973C3.75945 24.4654 3.80341 24.1137 3.69348 24.0147C3.74844 23.9928 3.63853 23.3332 3.80341 23.685C3.81441 23.7179 3.8254 23.7729 3.79243 23.7729L3.88037 23.8059C3.99029 23.3992 3.72646 23.1134 3.71547 22.7286C3.70448 22.8385 3.72646 22.9924 3.66051 22.9045L3.63853 22.5527L3.71547 22.6187V22.0691L3.63853 22.146C3.66052 21.8822 3.79243 21.7723 3.63853 21.4865C3.56158 21.3765 3.55059 21.7393 3.49562 21.4755L3.5286 20.1564C3.44066 20.2113 3.41868 20.0904 3.3967 19.9695L3.47363 19.9475C3.30875 19.4858 3.63853 19.7606 3.49562 19.288L3.56158 19.3209L3.37471 19.211C3.15486 18.8043 3.5176 18.9692 3.26477 18.5185C3.29775 18.7054 3.0889 18.6284 3.11088 18.4086L3.19882 18.4635C3.16189 18.3844 3.14311 18.298 3.14386 18.2107C3.19882 18.2767 3.25378 18.2437 3.2318 18.0568L3.34173 18.1667L3.16585 17.837C3.22081 17.5621 3.0779 17.1444 3.17683 17.0235C3.17683 17.0235 3.17684 16.4409 3.03394 16.32C3.12188 16.4299 3.12188 16.1001 3.22081 16.1881C3.08039 15.9578 3.02953 15.684 3.0779 15.4186L3.08891 15.4516C3.12188 14.792 2.84706 14.3523 2.90202 13.7368C2.81408 13.7697 2.83607 13.4509 2.71515 13.5499C2.53927 12.9453 2.84707 12.4067 2.45134 12.2308C2.40737 11.956 2.50631 11.901 2.50631 11.7471V11.8131L2.37438 10.7578C2.31942 10.5709 2.15454 10.5599 2.15454 10.2082C2.23149 10.3181 2.20949 10.1752 2.1985 10.0433C2.22049 10.1202 2.24248 10.1532 2.27546 9.97731C2.25094 9.95236 2.23217 9.92236 2.22049 9.88939C2.22642 9.88342 2.23415 9.87955 2.24248 9.87839C2.19851 9.65853 2.17653 9.70251 2.17653 9.80145C2.16553 9.80145 2.15453 9.81243 2.13255 9.84541C2.1985 9.62556 2.0666 9.21885 2.17653 9.18587C2.08859 8.52632 1.91271 8.08662 1.81377 7.53699C1.86874 7.47104 1.92369 7.59195 1.97865 7.75684L1.92369 7.3721C2.01163 7.3721 2.00064 7.59195 2.03362 7.70187C2.14354 7.2292 1.81377 6.77851 1.87973 6.22888L1.80277 6.11895L1.81377 6.08598C1.7808 6.08598 1.70384 5.97605 1.70384 5.8991C1.7698 5.81116 1.87973 5.88811 1.84675 5.62429C1.84127 5.33116 1.7855 5.04114 1.68187 4.76688C1.68187 4.92077 1.63789 4.8768 1.60491 4.81084C1.59392 4.67893 1.65987 4.59099 1.6159 4.48106H1.72583C1.63789 4.54702 1.58293 4.1513 1.53896 4.09634C1.60492 4.0084 1.62691 4.2942 1.68187 4.31618L1.57194 3.52472C1.46201 3.24991 1.48399 3.59068 1.37406 3.45877C1.29761 3.20956 1.26053 2.94995 1.26415 2.6893L1.17621 2.79921C1.07275 2.44995 1.04648 2.08237 1.09925 1.72195C0 -1.70771 0 1.08438 0 1.08438C0.0493548 2.326 0.222429 3.55961 0.516649 4.76688L0.428707 4.7229ZM14.7409 35.304L14.7849 35.1941C14.7739 35.1941 14.7519 35.2161 14.7409 35.304ZM17.2912 8.48235C17.2912 8.47136 17.2912 8.46036 17.2802 8.46036C17.2692 8.46036 17.2912 8.47136 17.2912 8.48235ZM16.4338 31.3028C16.4331 31.3087 16.4337 31.3148 16.4356 31.3205C16.4375 31.3262 16.4406 31.3314 16.4448 31.3358L16.4338 31.3028Z" fill="white"/>
<path d="M15.8072 36.7111C16.0249 35.6365 16.179 34.55 16.2689 33.4573L16.4228 31.3138C16.3129 30.984 16.5108 30.4124 16.4228 30.0167L16.5108 29.8737C16.476 29.7287 16.4798 29.5772 16.5218 29.4341L16.5437 29.445C16.5266 29.2696 16.5266 29.0929 16.5437 28.9174L16.5657 28.9284L16.5767 28.6866L16.6097 28.7305C16.5832 28.3888 16.6017 28.0451 16.6647 27.7082L16.5547 27.7302C16.7306 27.0707 16.5547 26.8068 16.7306 26.2132L16.7526 26.2242C16.5767 25.4328 17.0384 25.0151 16.8625 24.2236C16.8845 24.3335 16.9175 24.1906 16.9395 24.2016C16.9505 23.8389 16.9724 23.4321 16.7856 23.4321C16.8186 23.1683 16.8625 23.2123 16.9395 23.1903C16.8625 23.1793 16.8296 22.9485 16.8625 22.7506L16.8845 22.8605L16.9175 22.2669L16.7526 22.3769C16.8295 22.0691 16.9505 22.3109 16.9395 22.0141L16.8076 22.0031C16.9141 21.6322 17.0539 21.2717 17.2253 20.9259C17.4451 19.1671 17.3022 17.2763 17.665 15.6714L17.7749 15.6055C17.9178 15.5835 17.61 15.1328 17.7419 15.0888L17.698 14.891C17.7309 14.836 17.7639 14.7261 17.7859 14.825C17.8046 14.7214 17.7932 14.6145 17.7529 14.5172L17.8628 14.3413C17.9947 13.6598 17.8848 13.0552 17.9728 12.3297C18.1912 11.1855 18.276 10.0198 18.2256 8.85609C18.1376 7.50401 18.8522 5.99803 18.7422 4.62397C18.7546 4.56814 18.7469 4.50972 18.7203 4.45909L18.8632 3.21693C18.8632 3.21693 19.4897 -2.82894 17.8738 1.656L17.8409 1.62302C17.6898 2.13681 17.6597 2.67859 17.7529 3.20594C17.5551 3.26091 17.676 3.75556 17.599 3.92045L17.588 3.89846C17.6979 4.33816 17.3902 4.74489 17.4781 5.16261C17.4671 5.14062 17.4121 5.12962 17.4231 5.05268C17.4231 5.34947 17.4231 5.75621 17.3132 5.7672C17.2126 6.47367 17.1978 7.18971 17.2692 7.89973L17.2363 7.86675C17.3462 8.13057 17.2253 8.19654 17.2583 8.49333C17.2473 8.50433 17.2363 8.52631 17.2253 8.52631C17.2482 8.87465 17.2371 9.22439 17.1923 9.5706L17.1154 9.5816L17.0824 10.1312L17.1154 9.91136C17.3132 9.9993 16.9505 10.3181 17.0384 10.7358C16.9724 11.1095 17.3682 11.5383 17.2583 11.912C17.3352 12.1099 17.1263 11.7361 17.1703 12.0219C17.0604 12.0219 17.1154 11.89 17.0274 11.945C17.0494 12.2198 16.8735 12.3847 16.9175 12.7145H16.8296C16.9395 13.1542 16.6427 13.5279 16.7526 13.8357C16.7746 14.2974 16.4778 14.1215 16.5987 14.6052L16.4668 14.781C16.4338 14.9789 16.5767 14.9349 16.5108 15.1548C16.4448 15.1328 16.4228 15.4296 16.3789 15.2977C16.225 15.7924 16.4338 16.342 16.192 16.9905C16.3019 17.1444 16.203 17.4742 16.3019 17.5951C16.2359 17.6061 16.225 18.2547 16.137 17.8809C16.126 17.8479 16.137 17.793 16.159 17.793L16.0821 17.738C15.8952 18.1008 16.104 18.4415 16.0381 18.8153C16.0711 18.7054 16.0821 18.5625 16.126 18.6614L16.0821 19.0132L16.0161 18.9362L15.9282 19.4529L16.0161 19.3869C15.9501 19.6397 15.7963 19.7167 15.8842 20.0135C15.9392 20.1454 16.0161 19.7936 16.0161 20.0575L15.7303 21.3326C15.8402 21.2996 15.8182 21.4205 15.8182 21.5524L15.7303 21.5634C15.7963 22.0361 15.5324 21.7173 15.5764 22.179L15.5214 22.135L15.6863 22.2669C15.7962 22.7066 15.4995 22.4868 15.6753 22.9485C15.6753 22.7616 15.8622 22.8825 15.8072 23.1024L15.7303 23.0364C15.7303 23.1463 15.7633 23.2013 15.7413 23.2892C15.7083 23.2123 15.6314 23.2343 15.6314 23.4212L15.5434 23.2892L15.6533 23.652C15.5434 23.9048 15.6094 24.3445 15.4885 24.4434C15.4885 24.4434 15.3785 24.9931 15.4885 25.147C15.4225 25.037 15.3785 25.3338 15.2686 25.2349C15.3584 25.4842 15.3545 25.7577 15.2576 26.0044V25.9714C15.1037 26.609 15.2796 27.0926 15.1147 27.6643C15.2246 27.6423 15.1367 27.9501 15.2576 27.8841C15.3236 28.4997 14.9059 28.9504 15.2576 29.2032C15.2501 29.3616 15.1966 29.5144 15.1037 29.6429L15.0927 29.5769L15.0158 30.6212C15.0378 30.8191 15.2027 30.8631 15.1257 31.1928C15.0707 31.0829 15.0708 31.2148 15.0598 31.3467C15.0598 31.2698 15.0378 31.2368 14.9718 31.4017C14.9957 31.4332 15.0074 31.4722 15.0048 31.5116C14.9938 31.5116 14.9938 31.5226 14.9828 31.5116C14.9828 31.7315 15.0158 31.6875 15.0268 31.5886C15.0378 31.5996 15.0488 31.5886 15.0707 31.5556C14.9608 31.7754 15.0158 32.1712 14.8949 32.1822C14.8619 32.8197 14.9388 33.2814 14.9388 33.8311C14.8729 33.886 14.8289 33.7541 14.8289 33.6112L14.8179 33.9849C14.73 33.974 14.7849 33.7651 14.7849 33.6552C14.5981 34.0949 14.8399 34.5895 14.653 35.1062L14.708 35.2161L14.697 35.2491C14.73 35.2491 14.7739 35.359 14.7739 35.4689C14.686 35.5349 14.5981 35.4469 14.5761 35.7108C14.5099 35.9927 14.5099 36.2862 14.5761 36.5682C14.5981 36.4253 14.642 36.4802 14.664 36.5352C14.653 36.6671 14.5761 36.7331 14.5981 36.832H14.4881C14.5981 36.788 14.5651 37.1838 14.5981 37.2387C14.5101 37.3047 14.5541 37.0189 14.4881 36.9969L14.4332 37.7664C14.4881 38.0522 14.5431 37.7224 14.6091 37.8763C14.6376 38.1334 14.6228 38.3935 14.5651 38.6458L14.675 38.5688C14.7139 38.9224 14.6687 39.2803 14.5431 39.6131C14.9608 43.1307 15.4995 40.4375 15.4995 40.4375C15.7786 39.2313 15.8786 37.9905 15.7963 36.755L15.8072 36.7111Z" fill="white"/>
</svg>
