<svg width="14" height="15" viewBox="0 0 14 15" fill="none" xmlns="http://www.w3.org/2000/svg">
<path d="M7.04243 7.97163L7.55151 7.63241L6.95757 7.29319L7.04243 7.97163ZM0.593937 7.12359L0.424242 6.69956L0 7.12359H0.593937ZM8.82424 7.46281H9.58788L9.16364 6.61476L8.82424 7.46281ZM7.46667 4.83387L7.97575 5.25789L8.14546 4.57945L7.46667 4.83387ZM7.80606 4.07062L8.5697 3.6466L7.89091 3.13777L7.80606 4.07062ZM9.16364 10.9398L9.84243 10.6006L9.24848 10.0069L9.16364 10.9398ZM11.1152 10.1766L11.4545 9.3285H10.6061L11.1152 10.1766ZM6.87273 7.29319L6.27878 7.378L6.53333 7.97163L6.87273 7.29319Z" fill="#F4B9A6"/>
<path d="M7.38184 6.52996L6.70305 6.61476L7.1273 7.12358L7.38184 6.52996ZM6.9576 9.66772L7.1273 10.2614L7.63639 9.83733L6.9576 9.66772ZM7.1273 10.855L7.63639 11.1942L7.80609 10.6006L7.1273 10.855ZM10.0122 12.9751L9.41822 13.0599L9.75761 13.5687L10.0122 12.9751ZM8.73943 0L8.48488 0.424023H9.16367L8.73943 0ZM8.99398 3.7314L8.48488 3.5618L8.65457 4.15543L8.99398 3.7314ZM9.67275 1.95051L9.16367 1.78089L9.33337 2.37453L9.67275 1.95051ZM6.02427 4.32503L5.93942 4.83386L6.61821 4.74905L6.02427 4.32503ZM6.78791 1.69609L6.19397 1.95051L6.78791 2.37453V1.69609ZM4.3273 2.28973L3.90306 2.37453L4.15759 2.71375L4.3273 2.28973ZM8.99398 12.8055L8.40002 12.9751L8.73943 13.3991L8.99398 12.8055ZM8.40002 12.4663L7.89094 12.5511L8.23033 13.0599L8.40002 12.4663ZM4.24245 8.81968H3.73335L3.9879 9.3285L4.24245 8.81968ZM5.43032 9.92214H4.92124L5.17579 10.431L5.43032 9.92214ZM3.9879 7.03878L3.8182 7.54761L4.41214 7.378L3.9879 7.03878ZM6.70305 6.69956L6.53336 6.27554L6.10911 6.69956H6.70305ZM11.794 11.6182L12.0485 11.279L11.5394 11.1942L11.794 11.6182ZM9.9273 10.0069L10.1819 10.0917V9.75253L9.9273 10.0069ZM13.4061 6.69956V7.12358L13.6606 6.95398L13.4061 6.69956ZM11.7091 8.31085L12.0485 8.39565V7.97163L11.7091 8.31085Z" fill="#F4B9A6"/>
<path d="M13.4909 7.37802L13.5757 7.0388H13.2363L13.4909 7.37802ZM2.96966 3.477L2.71511 3.81622L3.13935 3.90103L2.96966 3.477ZM7.97572 1.5265L8.65451 1.4417L8.23027 0.848063L7.97572 1.5265ZM7.89088 8.9893L8.65451 8.9045L8.06057 8.22607L7.89088 8.9893ZM7.38178 4.07064L6.8727 3.98584L6.95754 4.49466L7.38178 4.07064ZM3.22421 7.37802V6.86919L2.63027 7.1236L3.22421 7.37802ZM6.61815 2.62896V3.22259L7.29694 2.88337L6.61815 2.62896ZM5.85451 3.73142V4.32505L6.5333 4.07064L5.85451 3.73142ZM6.44846 3.3074V3.90103L7.12723 3.56181L6.44846 3.3074ZM11.4545 3.477L11.9636 3.73142L12.0485 3.13779L11.4545 3.477ZM7.29694 5.85153L7.04239 5.51231L6.70299 5.93634L7.29694 5.85153ZM9.24845 12.2967L8.8242 12.3815L9.07875 12.8055L9.24845 12.2967ZM7.21209 8.9045L7.04239 9.24372L7.55148 9.15891L7.21209 8.9045ZM7.55148 11.4486L7.29694 11.0246L7.04239 11.4486H7.55148ZM8.31512 11.8727L8.65451 11.6182L8.14543 11.4486L8.31512 11.8727ZM8.56967 11.0246L8.90906 10.7702L8.39996 10.431L8.56967 11.0246ZM8.31512 10.3462L8.8242 10.0918L8.31512 9.75254V10.3462ZM8.39996 8.14126L8.8242 7.88685L8.31512 7.54763L8.39996 8.14126ZM7.38178 8.22607L7.72118 8.56528L7.89088 8.14126L7.38178 8.22607ZM11.5394 12.1271L11.0303 12.2119L11.3697 12.6359L11.5394 12.1271ZM9.503 7.71723L9.3333 8.05645L9.8424 8.14126L9.503 7.71723ZM10.2666 12.3815L10.0121 12.0423L9.75754 12.3815H10.2666ZM7.55148 13.6536V14.1624L8.14543 13.908L7.55148 13.6536ZM6.5333 11.1094L6.02421 11.279L6.3636 11.6182L6.5333 11.1094ZM2.29087 5.76673L2.03632 5.42751L1.78179 5.85153L2.29087 5.76673ZM6.70299 12.2967L6.95754 12.4663L7.12723 11.9575L6.70299 12.2967ZM5.43026 11.279L5.76966 11.5334L5.85451 11.0246L5.43026 11.279ZM4.49694 14.5864L4.24239 14.9256H4.75148L4.49694 14.5864ZM3.81815 13.9928L3.30905 13.908L3.47876 14.332L3.81815 13.9928ZM2.96966 13.8232H2.54542L2.63027 14.2472L2.96966 13.8232ZM7.72118 7.29321L8.65451 7.1236L7.97572 6.36036L7.72118 7.29321ZM7.29694 5.1731L7.46664 5.59712L7.80602 5.1731H7.29694Z" fill="#F4B9A6"/>
<path d="M7.29699 5.93631L7.63638 6.69956L8.31517 5.93631H7.29699ZM9.5879 5.00346L8.90911 5.59709L9.75759 5.85151L9.5879 5.00346ZM3.90305 5.85151V5.51229L3.47881 5.6819L3.90305 5.85151ZM8.99396 5.85151L8.65456 6.10593L9.0788 6.27553L8.99396 5.85151ZM7.55153 3.05296L8.06062 2.96815L7.72123 2.54413L7.55153 3.05296ZM10.7758 4.49464L11.2849 4.40984L10.9455 3.901L10.7758 4.49464ZM7.21214 4.24022L7.72123 4.15542L7.29699 3.64659L7.21214 4.24022ZM11.1152 2.03531L11.6243 1.9505L11.2849 1.52648L11.1152 2.03531ZM9.4182 0.763237L8.99396 0.932844L9.50304 1.18726L9.4182 0.763237ZM5.17578 1.8657V1.52648L4.75154 1.69609L5.17578 1.8657ZM5.17578 8.56525L5.00607 9.15889L5.76972 8.98928L5.17578 8.56525ZM4.41214 8.14123L3.8182 8.22604L4.07275 8.73487L4.41214 8.14123ZM5.26062 10.6006L5.17578 11.1094L5.76972 10.9398L5.26062 10.6006ZM6.19396 8.39565L6.2788 8.98928L6.87275 8.73487L6.19396 8.39565ZM5.60002 9.49811V10.1765L6.36365 9.83732L5.60002 9.49811ZM5.09093 7.80202V7.29319L4.66668 7.5476L5.09093 7.80202ZM12.0485 4.83386L12.5576 4.74905L12.2182 4.32503L12.0485 4.83386ZM10.2667 2.96815L10.4364 3.30737L10.7758 2.96815H10.2667ZM13.5758 9.24369L14 9.07409L13.6606 8.81967L13.5758 9.24369ZM6.1091 1.8657L6.19396 1.52648L5.68486 1.69609L6.1091 1.8657ZM9.2485 3.13777L9.16366 3.64659L9.75759 3.47698L9.2485 3.13777ZM8.65456 2.12011L8.56972 2.62893L9.16366 2.45933L8.65456 2.12011ZM9.92729 5.93631L10.6061 6.44514L10.9455 5.59709L9.92729 5.93631ZM10.8606 7.29319L11.794 7.12358L11.2849 6.27553L10.8606 7.29319ZM7.97577 7.5476L8.40001 7.6324L8.31517 7.378L7.97577 7.5476ZM8.06062 5.42749L7.89093 5.76671L8.40001 5.85151L8.06062 5.42749ZM9.0788 4.40984H8.56972L8.90911 4.91866L9.0788 4.40984ZM10.6909 4.74905L10.1818 4.83386L10.4364 5.34268L10.6909 4.74905Z" fill="#F4B9A6"/>
<path d="M9.07878 5.00348L9.92727 4.57945L9.16364 3.98582L9.07878 5.00348ZM10.6061 1.27207L10.9454 0.763247L10.2667 0.678444L10.6061 1.27207ZM8.0606 9.66773L8.39999 9.1589H7.63636L8.0606 9.66773ZM8.31515 5.93632L9.07878 5.59711L8.31515 5.08828V5.93632ZM9.41819 2.45934L9.67272 2.71375L9.84243 2.28973L9.41819 2.45934ZM10.4364 3.39219L9.84243 4.07063L10.9454 4.24023L10.4364 3.39219ZM11.2849 2.37454L11.0303 2.71375L11.5394 2.79856L11.2849 2.37454ZM11.4545 5.68191L11.7939 6.02113L12.0485 5.59711L11.4545 5.68191ZM10.4364 1.86571L10.1818 2.20492H10.6909L10.4364 1.86571ZM3.39393 5.59711L2.88484 5.76672L3.30908 6.19074L3.39393 5.59711ZM5.85454 4.91867L5.51515 5.3427H6.10909L5.85454 4.91867ZM5.34545 5.59711V5.25789L4.92121 5.5123L5.34545 5.59711ZM4.83636 6.02113L4.75152 5.68191L4.41211 5.93632L4.83636 6.02113Z" fill="#F4B9A6"/>
</svg>
