<svg width="12" height="4" viewBox="0 0 12 4" fill="none" xmlns="http://www.w3.org/2000/svg">
<path d="M1.20001 3.43856C1.86275 3.43856 2.40002 2.90158 2.40002 2.23919C2.40002 1.57679 1.86275 1.03981 1.20001 1.03981C0.537262 1.03981 0 1.57679 0 2.23919C0 2.90158 0.537262 3.43856 1.20001 3.43856Z" fill="#4F2B23"/>
<path d="M1.02858 1.8965C0.857147 1.8965 0.257148 1.89651 0.171434 1.72517C0.08572 1.46816 0.600008 1.12547 0.85715 1.0398C1.41479 0.764064 2.03714 0.645589 2.65715 0.69713C2.77082 0.69713 2.87982 0.742259 2.96019 0.822591C3.04056 0.902922 3.08572 1.01187 3.08572 1.12548C3.08572 1.23909 3.04056 1.34804 2.96019 1.42837C2.87982 1.5087 2.77082 1.55383 2.65715 1.55383C2.15946 1.54557 1.6648 1.63281 1.2 1.81084C1.15551 1.85971 1.09439 1.89026 1.02858 1.8965Z" fill="#4F2B23"/>
<path d="M10.1143 2.7532C10.7771 2.7532 11.3144 2.21622 11.3144 1.55382C11.3144 0.89142 10.7771 0.354441 10.1143 0.354441C9.4516 0.354441 8.91434 0.89142 8.91434 1.55382C8.91434 2.21622 9.4516 2.7532 10.1143 2.7532Z" fill="#4F2B23"/>
<path d="M9.94292 1.21114C9.77149 1.21114 9.17149 1.29681 9.08578 1.12547C9.00006 0.868464 9.51434 0.440113 9.77148 0.354444C10.3291 0.0787028 10.9515 -0.0397777 11.5715 0.0117629C11.6852 0.0117629 11.7942 0.0568921 11.8745 0.137223C11.9549 0.217554 12.0001 0.326507 12.0001 0.440112C12.0001 0.553717 11.9549 0.66267 11.8745 0.743001C11.7942 0.823332 11.6852 0.868461 11.5715 0.868461C11.0738 0.860198 10.5791 0.947447 10.1143 1.12547C10.0699 1.17435 10.0087 1.2049 9.94292 1.21114Z" fill="#4F2B23"/>
</svg>
