<svg width="12" height="38" viewBox="0 0 12 38" fill="none" xmlns="http://www.w3.org/2000/svg">
<path d="M2.81916 23.3895L2.43473 22.8769L2.94731 22.7487L2.81916 23.3895ZM3.90837 25.6324L4.48501 24.9275L4.86944 25.6324H3.90837ZM8.20112 29.4772L8.77777 28.7082L9.16219 29.4131L8.20112 29.4772ZM6.15086 29.5413L6.66342 28.7723L7.11192 29.4772L6.15086 29.5413ZM7.75264 13.9696L8.64963 13.3288L8.77777 14.29L7.75264 13.9696ZM7.68856 15.9561L8.64963 15.3153L8.77777 16.2766L7.68856 15.9561ZM8.58555 26.0809L9.54662 25.4401L9.67476 26.4013L8.58555 26.0809Z" fill="#FFBCA4"/>
<path d="M8.97 25.5042L9.73885 24.9916L9.86699 25.8246L8.97 25.5042ZM5.95865 9.03541L6.21493 8.65092L6.40716 8.97133L5.95865 9.03541ZM4.03652 13.457L4.67723 12.4958L5.18981 13.3288L4.03652 13.457ZM6.40716 18.7757L7.11194 17.9427L7.56043 18.7757H6.40716Z" fill="#FFBCA4"/>
<path d="M7.49629 19.2243L8.5855 19.2884L8.20107 20.1214L7.49629 19.2243ZM6.53522 24.8634H7.68851L7.30408 25.7605L6.53522 24.8634ZM6.40709 17.0456L7.49629 17.1096L7.11188 18.0068L6.40709 17.0456ZM6.47117 20.8263L7.17593 19.9292L7.62444 20.7622L6.47117 20.8263ZM9.09808 28.0675L9.61065 27.2985L9.99507 28.0034L9.09808 28.0675ZM8.5855 21.9157L8.26515 20.8904L9.22622 20.9545L8.5855 21.9157ZM4.86939 9.67624L4.48496 8.71503H5.44602L4.86939 9.67624ZM3.26761 4.93424L3.07538 4.54977H3.45981L3.26761 4.93424Z" fill="#FFBCA4"/>
<path d="M2.75507 15.3153L2.37064 14.29L3.39578 14.3541L2.75507 15.3153ZM4.54907 17.3659L4.22872 16.3406L5.18978 16.4047L4.54907 17.3659ZM5.95863 3.3322L5.57419 2.30692H6.53526L5.95863 3.3322ZM9.16218 24.4149L8.84183 23.5177L9.67476 23.6459L9.16218 24.4149ZM8.20112 25.4401L7.88076 24.543L8.71369 24.6712L8.20112 25.4401ZM8.13704 22.1079L8.71369 21.339L9.09812 22.0438L8.13704 22.1079ZM5.76642 22.2361L6.47121 21.339L6.98377 22.172L5.76642 22.2361ZM2.69099 12.0472L3.1395 12.2395L2.81914 12.5599L2.69099 12.0472ZM7.75263 22.1079L6.98377 22.0438L7.30412 21.4671L7.75263 22.1079ZM8.07299 23.4536L8.00891 22.7487L8.52147 22.941L8.07299 23.4536ZM6.91969 26.2732L7.49633 26.0169V26.5936L6.91969 26.2732ZM5.12571 14.1619L4.61313 13.6492L5.25384 13.3929L5.12571 14.1619ZM5.89455 7.49746L5.31791 6.98482L6.0227 6.7285L5.89455 7.49746ZM5.8305 15.4435L5.31791 14.9309L5.95863 14.6745L5.8305 15.4435ZM7.94484 18.5835L8.32927 18.0708L8.58555 18.5194L7.94484 18.5835ZM7.56041 17.1096L7.94484 16.597L8.20112 17.0455L7.56041 17.1096ZM1.92215 17.8786L2.56286 18.0708L2.11436 18.5194L1.92215 17.8786ZM6.40713 13.457L7.04784 13.7133L6.59934 14.0978L6.40713 13.457ZM7.04784 11.1501L6.34306 11.4705L6.40713 10.8297L7.04784 11.1501ZM7.43227 9.67623L6.72749 9.93255V9.29174L7.43227 9.67623Z" fill="#FFBCA4"/>
<path d="M8.39335 11.7268L7.36821 11.2142L8.20112 10.5734L8.39335 11.7268ZM8.07299 9.80439L7.04785 9.29175L7.88077 8.65094L8.07299 9.80439ZM6.40714 13.7133L6.34307 12.5599L7.30413 13.0084L6.40714 13.7133ZM5.95864 10.7656L5.89456 9.61216L6.85563 10.0607L5.95864 10.7656ZM6.53527 20.4418L6.47122 19.2243L7.43228 19.6729L6.53527 20.4418ZM7.88077 26.4654L7.81669 25.312L8.77777 25.7605L7.88077 26.4654ZM2.94731 1.73019L3.3958 1.28163L3.65208 1.73019H2.94731ZM5.51015 5.57504L4.86944 5.7673L4.9335 5.19057L5.51015 5.57504ZM6.53527 1.53795V2.17876L6.02271 2.05059L6.53527 1.53795ZM7.04785 7.04892V7.68973L6.53527 7.49747L7.04785 7.04892ZM4.22873 20.4418L4.61314 20.6341L4.29279 20.8904L4.22873 20.4418ZM2.49881 19.032L2.37066 19.4165L2.11438 19.1602L2.49881 19.032ZM5.83051 18.3912H5.44608L5.57421 18.0708L5.83051 18.3912ZM8.07299 26.7218L8.4574 26.9781L8.13705 27.2344L8.07299 26.7218ZM6.27899 25.3761L6.21492 25.7605L5.89456 25.5042L6.27899 25.3761ZM9.67476 24.6712H9.22626L9.41848 24.3508L9.67476 24.6712ZM2.88324 14.2901L3.20359 14.6105L2.81916 14.6745L2.88324 14.2901ZM2.43473 10.5734L2.17845 10.8938L1.98625 10.5734H2.43473ZM3.90838 10.7656L3.65208 11.4705L3.13952 11.086L3.90838 10.7656ZM5.70236 7.68973L4.99757 7.62564L5.31793 7.17707L5.70236 7.68973ZM7.62449 12.3676L7.49634 11.7268L8.00892 11.855L7.62449 12.3676ZM5.76643 0.576739L5.382 0.256335L5.83051 0.0640997L5.76643 0.576739ZM4.10058 2.05059L3.97243 1.53795L4.42094 1.60204L4.10058 2.05059ZM5.44608 1.47387L5.1898 2.05059L4.80537 1.73019L5.44608 1.47387Z" fill="#FFBCA4"/>
<path d="M5.76641 11.4064L5.38198 12.4317L4.67719 11.7909L5.76641 11.4064ZM4.74127 0L4.54906 0.576724L4.10056 0.25632L4.74127 0ZM5.63826 1.21753L5.44605 1.79426L4.99755 1.47385L5.63826 1.21753ZM8.77774 20.5059L8.96996 19.7369L9.48252 20.1214L8.77774 20.5059ZM7.17596 23.6458H7.81667L7.56039 24.1585L7.17596 23.6458ZM4.99755 19.0961L5.1257 19.6728L4.61312 19.5447L4.99755 19.0961ZM6.15084 20.57L5.63826 21.1467L5.38198 20.57H6.15084ZM8.96996 18.2631L8.39332 18.0708L8.84181 17.6863L8.96996 18.2631ZM8.90588 23.3895L9.03402 22.8128L9.48252 23.0691L8.90588 23.3895Z" fill="#FFBCA4"/>
<path d="M8.7777 23.9022L8.96991 23.1332L9.48247 23.5818L8.7777 23.9022ZM7.23999 27.1062H7.8807L7.62442 27.6189L7.23999 27.1062ZM5.06157 22.3642L5.18972 23.0051L4.67714 22.8769L5.06157 22.3642ZM6.98371 16.4688L6.08672 15.059L7.56034 14.8027L6.98371 16.4688ZM8.3292 28.3878L7.75257 27.4907L8.71362 27.3625L8.3292 28.3878ZM10.5076 27.4266L9.09805 26.5936L10.3154 25.7605L10.5076 27.4266ZM10.0591 23.3895L8.64956 22.5565L9.80283 21.6593L10.0591 23.3895ZM10.2513 25.1838L8.84176 24.4148L9.99505 23.5177L10.2513 25.1838Z" fill="#FFBCA4"/>
<path d="M9.80283 21.2749L8.39328 20.4418L9.61062 19.5447L9.80283 21.2749ZM9.61062 19.4165L8.20106 18.5835L9.35434 17.7504L9.61062 19.4165ZM9.35434 17.6864L7.94478 16.9174L9.09806 16.0203L9.35434 17.6864ZM7.6885 16.2125L7.30407 14.5464L8.7777 14.9309L7.6885 16.2125ZM8.20106 10.7015L7.30407 10.253L8.00886 9.7403L8.20106 10.7015ZM7.88071 9.03543L6.40709 8.20236L7.62443 7.30523L7.88071 9.03543ZM8.64956 13.3929L7.24 12.5599L8.39328 11.7268L8.64956 13.3929ZM10.7639 29.1569L9.29027 28.3238L10.4435 27.4267L10.7639 29.1569Z" fill="#FFBCA4"/>
<path d="M9.03401 30.1821L9.67472 28.6442L10.6999 29.7336L9.03401 30.1821ZM7.3041 30.5666L7.94481 29.0287L8.96994 30.1181L7.3041 30.5666ZM4.61312 4.87017L4.16463 4.10119L4.93347 4.03711L4.61312 4.87017ZM4.61312 21.1467L3.97241 21.0826L4.29276 20.57L4.61312 21.1467ZM7.4963 22.172L7.43225 21.5953L7.88073 21.7235L7.4963 22.172ZM3.71613 24.543L4.22871 24.3508L4.16463 24.8634L3.71613 24.543ZM8.77773 14.226L8.96994 15.3794L7.94481 15.1231L8.77773 14.226ZM8.07296 12.7521L8.13701 13.9697L7.17595 13.5852L8.07296 12.7521ZM6.34304 5.89545L7.3041 5.31873L7.43225 6.21586L6.34304 5.89545ZM5.44605 8.20237L5.89453 7.88197L5.95861 8.33054L5.44605 8.20237ZM5.1257 2.88366L4.42091 3.20406L4.48499 2.49917L5.1257 2.88366ZM4.61312 2.43508L3.90836 2.6914L3.97241 1.98653L4.61312 2.43508Z" fill="#FFBCA4"/>
<path d="M6.7915 3.46037L5.76636 3.0118L6.59928 2.24284L6.7915 3.46037ZM5.51008 6.47218L5.38193 5.83137L5.95857 5.95952L5.51008 6.47218ZM7.04778 5.3828L5.57414 4.54975L6.7915 3.65261L7.04778 5.3828ZM7.43221 5.95952L7.62442 7.36931L6.59928 6.92074L7.43221 5.95952ZM3.97236 3.13997V3.58854L3.652 3.46037L3.97236 3.13997ZM4.03643 23.9022L3.33165 23.8381L3.652 23.3255L4.03643 23.9022ZM6.85556 24.9275V24.3508L7.30406 24.543L6.85556 24.9275ZM3.07537 27.3626L3.58795 27.1062V27.6189L3.07537 27.3626ZM4.67714 33.4503L5.18973 32.6813L5.63821 33.3862L4.67714 33.4503ZM9.16212 36.9747L9.67469 36.2058L10.1232 36.9107L9.16212 36.9747ZM7.11186 37.1029L7.62442 36.3339L8.00885 37.0388L7.11186 37.1029ZM9.35433 33.5784L10.3154 32.9376L10.5076 33.8988L9.35433 33.5784Z" fill="#FFBCA4"/>
<path d="M9.80287 33.0017L10.5077 32.489L10.6999 33.258L9.80287 33.0017ZM7.30411 32.425H8.45738L8.07297 33.3221L7.30411 32.425ZM9.99509 35.5009L10.5077 34.796L10.8921 35.4368L9.99509 35.5009ZM10.0592 31.9764L9.73881 31.0793L10.5077 31.1434L10.0592 31.9764ZM9.0981 32.9376L8.77774 32.1046L9.54659 32.1686L9.0981 32.9376ZM7.75261 33.8348L8.32925 33.5784V34.1552L7.75261 33.8348ZM8.71367 34.027L8.58553 32.8735L9.61067 33.258L8.71367 34.027ZM8.90588 34.2833L9.35438 34.5396L9.03402 34.796L8.90588 34.2833ZM7.17596 32.9376L7.04783 33.3221L6.79155 33.0658L7.17596 32.9376ZM10.5077 32.2327H10.1232L10.3154 31.9123L10.5077 32.2327ZM9.41845 28.1956L9.61067 27.4267L10.1873 27.8111L9.41845 28.1956ZM7.88074 31.3997L8.52145 31.3356L8.26517 31.8482L7.88074 31.3997ZM5.63825 26.8499L5.83048 27.4267L5.25382 27.3626L5.63825 26.8499ZM6.8556 28.3238L6.34304 28.9005L6.02268 28.3238H6.8556ZM9.61067 25.9528L9.03402 25.7606L9.41845 25.3761L9.61067 25.9528ZM9.61067 31.0793L9.73881 30.5026L10.1873 30.7589L9.61067 31.0793Z" fill="#FFBCA4"/>
<path d="M9.48249 31.5919L9.6747 30.887L10.1873 31.2715L9.48249 31.5919ZM8.00886 34.86L8.64957 34.796L8.39329 35.3727L8.00886 34.86ZM5.76637 30.118L5.8945 30.7589L5.38194 30.6307L5.76637 30.118ZM9.22621 35.8853L8.64957 35.0523L9.54656 34.86L9.22621 35.8853ZM11.4046 34.796L9.99506 33.9629L11.2124 33.1298L11.4046 34.796ZM10.8921 30.887L9.48249 30.054L10.6358 29.2209L10.8921 30.887ZM11.1483 32.8094L9.73878 31.9764L10.9561 31.1433L11.1483 32.8094ZM11.6609 36.5902L10.1873 35.8213L11.3406 34.86L11.6609 36.5902ZM10.7639 37.5514L11.0202 36.7184L11.5968 37.0388L10.7639 37.5514ZM9.35435 38L9.73878 37.1029L10.3154 37.6796L9.35435 38ZM4.61308 31.7201L3.90831 31.656L4.22867 31.1433L4.61308 31.7201ZM7.49628 32.6813L7.43222 32.1046L7.88071 32.2968L7.49628 32.6813ZM3.71609 35.1804L4.22867 34.9241V35.4368L3.71609 35.1804ZM5.18973 22.7487L5.51009 22.0438L5.95858 22.6206L5.18973 22.7487ZM3.0113 25.5683L3.65201 25.6965L3.33166 26.145L3.0113 25.5683ZM1.9221 20.4418V21.0826L1.40952 20.8904L1.9221 20.4418ZM1.4736 6.27992L1.21732 6.79258L0.896961 6.40809L1.4736 6.27992ZM3.0113 4.35749L2.62689 4.2934L2.81909 3.973L3.0113 4.35749ZM3.71609 7.94603V7.49745L4.10052 7.68971L3.71609 7.94603ZM0.51253 24.4789L-3.11466e-05 24.2226L0.3844 23.9663L0.51253 24.4789Z" fill="#FFBCA4"/>
</svg>
