<svg width="14" height="8" viewBox="0 0 14 8" fill="none" xmlns="http://www.w3.org/2000/svg">
<path d="M8.16752 0V0.408163L8.49423 0.244897L8.16752 0ZM9.47433 0H9.06595L9.2293 0.326532L9.47433 0ZM8.9026 0.0816346L8.5759 0V0.408163L8.9026 0.0816346ZM0.326742 2.44898L0.163395 3.26531L1.06181 3.02041L0.326742 2.44898ZM6.28901 0.0816346L6.20733 0.489798L6.69738 0.244897L6.28901 0.0816346ZM4.81886 0.489798L5.06389 0.897962L5.3089 0.489798H4.81886ZM4.08378 1.22449L4.16546 1.38776L4.32881 1.22449H4.08378ZM0.0817146 4.89796V5.38776L0.571769 5.22449L0.0817146 4.89796Z" fill="#A84D3B"/>
<path d="M1.79681 0.979593L1.71513 0.489798L1.38844 0.734695L1.79681 0.979593ZM7.18735 0L7.43238 0.408163L7.59572 0H7.18735ZM5.79888 0.326532L6.0439 0.653061L6.28893 0.244897L5.79888 0.326532ZM9.6376 0L9.80094 0.326532L10.046 0H9.6376ZM7.26903 0.653061L7.43238 0.897961L7.6774 0.653061H7.26903ZM5.22715 0.979593L5.30882 1.30612L5.63553 0.979593H5.22715ZM4.0837 0.653061L4.32873 0.897961L4.57375 0.571429L4.0837 0.653061ZM3.757 0.408163L4.00203 0.653061L4.24706 0.326532L3.757 0.408163ZM6.69731 0.244897L6.94232 0.408163V0.163266L6.69731 0.244897ZM7.6774 0.244897L7.84075 0.326532L7.92243 0L7.6774 0.244897ZM10.1277 0.0816345L10.291 0.163266L10.3727 0L10.1277 0.0816345ZM11.6795 0.408163L11.8428 0H11.5161L11.6795 0.408163ZM12.8229 0H12.4962L12.6596 0.408163L12.8229 0ZM12.3329 0.0816345L12.0062 0V0.408163L12.3329 0.0816345ZM10.6177 0L10.7811 0.408163L11.0261 0H10.6177ZM13.0679 0L13.2313 0.326532L13.4763 0H13.0679ZM11.1077 0.244897L11.2711 0.326532L11.3528 0L11.1077 0.244897ZM13.558 0.0816345L13.6397 0.163266L13.803 0L13.558 0.0816345ZM0.571686 5.46939L0.408326 5.55102L0.571686 5.71429V5.46939ZM1.22508 1.14286L1.38844 1.46939L1.71513 1.06122L1.22508 1.14286ZM0.816701 1.79592L0.980061 2.12245L1.30676 1.71429L0.816701 1.79592ZM0.735033 1.30612L0.571686 1.63265H1.14341L0.735033 1.30612ZM0.735033 4.73469H0.408326L0.571686 5.06123L0.735033 4.73469ZM0.898381 4.40817L0.816701 4.16327L0.571686 4.40817H0.898381ZM3.757 1.55102L3.59366 1.38776L3.51198 1.55102H3.757ZM3.02193 1.79592L2.94025 1.63265L2.77691 1.79592H3.02193ZM2.28685 1.55102L2.20518 1.38776L2.1235 1.55102H2.28685ZM2.1235 3.5102L2.04182 3.26531L1.96016 3.5102H2.1235ZM1.63345 2.77551L1.4701 2.61225L1.38844 2.77551H1.63345ZM5.63553 0.897961L5.96222 0.816327L5.7172 0.489798L5.63553 0.897961ZM5.63553 0.408163L6.12557 0.0816345L5.63553 0V0.408163ZM3.34863 0.816327L3.51198 1.06122L3.757 0.816327H3.34863Z" fill="#A84D3B"/>
<path d="M3.18533 0.326532L3.43035 0.571429L3.5937 0.326532H3.18533ZM4.65548 0.979593L4.90049 0.897961L4.5738 0.653061L4.65548 0.979593ZM0.571734 5.79592V6.12245L0.898428 5.95919L0.571734 5.79592ZM1.06178 4.9796V5.14286L1.22512 5.06123L1.06178 4.9796ZM3.18533 0.489798L2.85862 0.653061L3.18533 0.816327V0.489798ZM0.0816798 5.55102V5.79592L0.408374 5.63265L0.0816798 5.55102ZM0.16336 6.20409L0.408374 6.04082L0.0816798 5.87755L0.16336 6.20409ZM0.0816798 6.93878L0.326707 6.77551L0 6.69388L0.0816798 6.93878ZM0 6.44898L0.326707 6.36735L0 6.12245V6.44898ZM0 8L0.245027 7.83674L0 7.51021V8ZM0.0816798 7.42858L0.408374 7.26531L0.0816798 7.02041V7.42858ZM1.3068 0.816327L0.816748 1.22449L1.38848 1.63265L1.3068 0.816327ZM2.36858 0.244897L1.79686 0.489798L2.2869 0.816327L2.36858 0.244897ZM1.14346 3.34694L1.38848 3.59184L1.55183 3.18368L1.14346 3.34694ZM4.81882 0L5.14552 0.653061L5.55389 0.0816345L4.81882 0ZM0.735081 3.5102L0.980108 3.67347L1.14346 3.26531L0.735081 3.5102Z" fill="#A84D3B"/>
<path d="M6.45235 0.734683L6.77904 0.816314L6.61569 0.408151L6.45235 0.734683ZM0.0817146 4.81631L0.653435 4.65305L0.163394 4.16326L0.0817146 4.81631ZM0.490088 1.79591L0.326741 2.2857L0.898462 2.20407L0.490088 1.79591ZM1.38852 3.75509L1.06181 3.83672L1.30684 4.08162L1.38852 3.75509ZM1.14349 2.85713L0.816782 3.0204L1.14349 3.26529V2.85713ZM1.96024 1.87754L2.0419 2.20407L2.28693 1.95917L1.96024 1.87754ZM2.45028 0.571417L2.61364 0.897949L2.85865 0.653048L2.45028 0.571417ZM1.87856 0.816314L1.96024 1.14285L2.20526 0.897949L1.87856 0.816314ZM0.735115 3.67346L0.163394 3.34693V3.99999L0.735115 3.67346ZM0.735115 2.2857L0.408409 2.44897L0.735115 2.61223V2.2857ZM1.87856 2.0408L1.55186 2.12244L1.87856 2.36734V2.0408ZM1.79689 1.46938L1.55186 1.55101L1.79689 1.79591V1.46938ZM1.22516 2.20407L0.898462 2.36734L1.22516 2.61223V2.20407ZM0.490088 3.18366V3.42856L0.816782 3.34693L0.490088 3.18366ZM4.6555 0.0816219H4.16545L4.49214 0.489785L4.6555 0.0816219ZM4.0021 0.0816219H3.51205L3.83876 0.571417L4.0021 0.0816219ZM3.10368 0.163253L2.53196 0.244885L2.94033 0.653048L3.10368 0.163253Z" fill="#A84D3B"/>
</svg>
