<svg width="31" height="79" viewBox="0 0 31 79" fill="none" xmlns="http://www.w3.org/2000/svg">
<path d="M12.791 31.109L12.4678 31.9973L13.2758 31.9166L12.791 31.109ZM14.1647 28.2823L14.3263 27.0709L13.0334 27.4747L14.1647 28.2823ZM19.6592 43.8691L18.0432 44.1114L19.336 45.0806L19.6592 43.8691ZM20.6289 36.4392L19.9824 37.9736L21.5177 37.4083L20.6289 36.4392L20.9521 35.0662L19.336 35.47L20.6289 36.4392ZM21.2753 32.9665L20.6289 34.5817L22.1641 34.0163L21.2753 32.9665ZM17.6392 26.2633L17.2351 27.5555L17.0736 27.4747L17.1543 27.8785V27.9593L17.2351 28.2823L17.8008 27.8785L17.6392 27.7978L18.6896 27.394L17.6392 26.2633ZM15.6999 15.0376L15.2959 16.1682L15.0535 16.4913H15.2151L15.1343 16.7336L15.3767 16.6528L15.0535 17.5412L15.9423 17.2989L15.4575 16.6528L15.6191 16.572H15.9423L15.8615 16.4913L16.6695 16.1682L15.6999 15.0376ZM19.9824 32.4819L18.3664 32.8857L19.74 33.7741L19.9824 32.4819ZM18.528 14.3915L17.0736 13.6647V15.1184L16.5079 15.2799L17.4776 16.249L17.6392 15.1184L18.528 14.3915ZM20.2248 50.653L21.5985 50.1685L20.3057 49.1186L20.2248 50.653ZM21.6793 56.387L21.5177 57.9215L22.8913 57.4369L21.6793 56.387ZM16.4271 43.7076L17.8008 43.1423L16.4271 42.1732V43.7076ZM8.32263 3.63421V3.47268L8.16104 3.55344L8.08024 3.47268V3.55344L7.51461 3.87648L8.08024 4.36105L7.99943 5.08789L9.37308 4.60335L8.32263 3.63421ZM17.2351 38.6197L17.1543 40.1541L18.528 39.5888L17.2351 38.6197ZM22.4065 64.3016L23.5378 63.8978L22.4873 63.0094L22.4065 64.3016ZM28.2243 64.6246L27.1739 63.7363V65.1092L28.2243 64.6246ZM19.0128 27.5555L20.0632 26.9902L19.0128 26.1826V27.5555ZM18.4472 30.8667L16.8311 31.2705L18.2048 32.1589L18.4472 30.8667ZM8.02367 29.1707L8.10448 29.9783L8.67008 29.413L8.02367 29.1707ZM19.6592 31.7551L19.8208 31.109L19.9016 31.0282H19.8208L19.9016 30.7051L19.5784 30.8667L19.1744 30.7051L19.2552 31.0282L18.932 31.1897L19.6592 31.7551ZM19.9016 29.8975L20.6289 29.413L19.74 28.9284L19.9016 29.8975ZM17.5584 24.9712L16.9119 25.698L17.8008 25.7788L17.5584 24.9712ZM19.1744 42.7385L18.6896 43.7076H19.6592L19.1744 42.7385ZM23.1337 51.8644L22.7297 52.8336H23.7802L23.1337 51.8644ZM19.6592 40.6387L19.1744 41.6078H20.2248L19.6592 40.6387ZM21.8409 37.4891L22.6489 37.9736V37.7313L23.861 38.0544L22.6489 39.0235L22.2449 38.7812L22.3257 40.3157L21.1945 38.7812L20.5481 41.1233L22.4065 40.881L22.4873 41.2848L23.6185 40.558L24.7498 41.0425L23.5378 41.9309H23.6185L22.7297 42.6577L24.265 43.3846L23.5378 44.2729L25.5578 44.919L24.3458 46.0497L25.8002 46.615L25.6386 44.919L25.5578 44.9998L25.1538 42.577L24.4266 43.4653L24.1034 42.3347L25.2346 42.577L24.9114 41.204L24.8306 40.7195L24.7498 39.7503L24.1842 40.2349L22.8913 39.5081L24.3458 39.9119L24.1034 38.6197L24.5882 38.7812L24.1842 36.3584L22.9721 37.7313L21.8409 37.4891ZM14.2455 39.0235L14.9727 38.4582L14.1647 38.1351L14.2455 39.0235ZM22.9721 46.1304L21.8409 46.0497L22.1641 46.938L22.9721 46.1304ZM23.2145 49.1186L24.0225 48.2302H22.8913L23.2145 49.1186ZM24.5074 48.3917L25.9618 48.957L25.8002 47.2611L24.5074 48.3917ZM22.6489 43.3846L21.4369 42.9808L21.9217 42.577L21.1945 42.2539V42.9L21.0329 42.8192L21.4369 44.4345L22.6489 43.3846ZM22.8913 47.7456L21.2753 47.0996L21.6793 48.7148L22.8913 47.7456Z" fill="#AF5F83"/>
<path d="M20.2249 34.0971L18.6088 33.451L19.0128 35.0662L20.2249 34.0971ZM18.6088 26.5864L19.74 25.5365L18.124 24.8904L18.6088 26.5864ZM16.6696 57.0331L16.7503 56.2255L15.8615 56.6293L16.6696 57.0331ZM23.2145 65.0284L22.5681 65.5938L22.8913 65.7553L21.4369 66.2398L22.4065 67.209L22.9721 65.6745L23.457 65.9168L23.2145 65.0284ZM22.4873 55.3372L23.1338 54.6103H22.1641L22.4873 55.3372ZM27.8203 61.9595L27.5779 62.5249H28.2243L27.2547 63.494L28.3859 63.8978L28.2243 62.5249L27.8203 61.9595L28.0627 62.0403L27.9011 60.9904L27.1739 61.798L27.8203 61.9595ZM12.9527 37.166L13.5991 37.2468L13.2759 36.7622L12.9527 37.166ZM18.3664 37.166L18.528 36.6007L17.9624 36.7622L18.3664 37.166ZM18.4472 24.3251L18.932 23.8405L18.2856 23.679L18.4472 24.3251ZM16.3463 26.5864L16.1039 26.9902H16.7503L16.3463 26.5864ZM21.1945 26.6671L20.6289 27.3132L21.1945 27.4747V27.8785L20.3865 27.7978L21.0329 28.6861L21.2753 29.1707L21.7601 28.5246L21.1137 28.4439L21.1945 28.2823L22.2449 27.7978L22.0833 27.6363L22.6489 27.7978L22.2449 25.375L21.1945 26.6671ZM17.4776 18.1065L17.5584 18.6718L17.9624 18.268L17.4776 18.1065ZM15.6191 21.0139L16.1039 21.0946L15.8615 20.6908L15.6191 21.0139ZM19.6592 20.6101L19.9824 20.9331L20.1441 20.4486L19.6592 20.6101ZM18.0432 47.1803L17.5584 47.9879L18.7704 48.0687L18.0432 47.1803ZM22.5681 51.5414L21.5985 51.8645L22.2449 52.4298L22.5681 51.5414Z" fill="#AF5F83"/>
<path d="M23.2145 44.1922L23.2953 45.0806L24.0225 44.6768L23.2145 44.1922ZM23.2953 67.4512L24.1033 68.0166L24.0225 67.1282L23.2953 67.4512ZM26.6082 67.532L25.881 67.9358L26.689 68.4204L26.6082 67.532ZM20.0632 45.1613L19.4168 46.3727L21.1137 46.4535L20.0632 45.1613ZM18.2048 58.0023H19.1744L18.6088 57.2754L18.2048 58.0023ZM19.8208 55.9832L19.2552 55.2564L19.1744 55.4179L18.8512 55.0141L18.528 55.7409H19.0128L18.8512 55.9832H19.8208ZM25.073 70.5201L25.6386 68.9857L24.1841 69.4702L25.073 70.5201ZM26.0426 70.0356L27.0122 71.0047L27.5779 69.4702L26.0426 70.0356ZM26.1234 65.0284L26.6082 63.494L25.1538 63.9785L26.1234 65.0284ZM18.4472 27.9593L18.124 28.8477L19.0128 28.5246L18.4472 27.9593ZM17.0735 35.3085L16.3463 35.7123L17.1543 36.1969L17.0735 35.3085ZM17.1543 32.9665L17.0735 33.9356L18.2048 33.6126L17.1543 32.9665ZM23.0529 35.4701L22.3257 36.1161L23.1337 36.4392L23.0529 35.4701ZM15.6191 30.6244L14.8919 31.0282L15.6999 31.5128L15.6191 30.6244ZM15.6999 13.907L15.2959 14.9569L16.2655 14.8761L15.6999 13.907ZM15.3767 23.356L15.0535 24.2443L15.8615 24.1636L15.3767 23.356Z" fill="#AF5F83"/>
<path d="M16.912 18.8334L16.1848 19.0756L17.316 18.0258L15.7807 17.3797L16.1039 18.9949L16.7504 19.3987L16.912 18.8334ZM10.6094 22.2253L11.175 21.7408L10.8518 21.5792L10.9326 21.0139L10.0438 21.4177L10.5286 21.7408L10.6094 22.2253ZM18.2048 20.287L18.3664 20.4486L17.3968 20.7716L18.3664 21.66L18.4472 20.6101L18.7704 21.0947L19.2552 20.2063L18.2048 20.287ZM30.3252 76.4964L30.1636 75.3658L29.4363 76.0118L30.3252 76.4964ZM14.5445 12.0333L15.1101 11.2257L13.9788 11.1449L14.0596 11.3065L13.898 11.2257L13.4132 10.4989L13.3324 10.2566V10.4181L12.9284 10.9834H13.1708L12.686 12.5986L14.7869 12.3563L14.5445 12.0333ZM14.1405 11.468L14.3829 11.8718L14.1405 11.468ZM13.9223 17.622V16.8951L13.5183 17.0566L13.1142 16.5721L12.9527 17.2989L12.791 18.1065L13.6799 17.8642L13.9223 18.0258V17.7835H14.0839L13.9223 17.622ZM17.8816 22.1446L17.3968 23.5982L18.7704 23.356L17.8816 22.1446ZM16.1848 21.9023L17.5584 21.66L16.5888 20.4486L16.1848 21.9023ZM20.4673 24.3251L19.4977 25.0519L20.7097 25.2942L20.3865 25.5365L21.6793 25.8595L21.4369 24.6481L21.0329 24.9712L20.9521 24.4058L22.0833 24.7289L21.6793 22.3061L19.8209 24.002L20.4673 24.3251ZM23.053 30.6244L22.6489 28.2016L20.7097 29.8168L21.4369 30.0591L20.7097 30.3014L21.0329 30.4629V31.8358L22.3257 31.1897L21.8409 30.8667L21.9217 30.1398L23.053 30.6244ZM22.1641 32.8049L22.5681 33.451L22.8105 33.0472L23.5378 33.2895L21.9217 34.9855L22.1641 35.0662L21.7601 35.2278L22.5681 35.7123L22.6489 35.2278L23.861 35.7123L23.5378 33.2087L23.1338 30.7859L21.4369 32.4819L22.1641 32.8049ZM23.9418 48.2302L25.7194 47.1803L23.5378 45.8074L23.9418 48.2302ZM25.8002 50.4108L25.6386 49.7647L25.2346 50.0877H25.1538L25.3154 49.4416L24.4266 49.6839L24.1842 49.5224V49.6839L23.6186 49.8454L24.265 50.33L24.3458 50.8146L23.9418 50.5723L24.1034 51.5414L24.0226 51.6222H24.1034L24.265 52.9951L25.3154 52.2682L26.0426 52.672L25.477 53.0758L25.3154 52.9143V53.2374L24.8306 53.6412L25.3154 53.7219V53.8027L24.669 54.4488L25.9619 54.9333L25.477 55.4987L24.1034 53.6412L23.457 55.9832L25.2346 55.7409L25.1538 55.9025L27.0123 56.4678L26.3659 57.1139L26.1234 56.9523V57.4369L26.0426 57.5177H26.1234V57.6792L25.9619 57.5984L26.0426 58.3253V58.4868L26.2042 60.0213L27.2547 59.3752L26.5275 60.1828L26.9315 60.3443L27.2547 61.0711L25.2346 61.3942L26.4466 63.0902L27.4971 61.0711L28.0627 60.9904L27.0123 60.3443L27.9011 60.6673L27.7395 59.1329L27.8203 59.0521L27.7395 58.9714L27.4971 58.1638L27.0931 58.4868L26.7699 58.2445L27.3355 58.0022L27.4971 58.083L27.4163 56.4678L27.0123 54.1257L26.2042 54.7718L26.0426 54.2873L26.6891 54.045L26.4466 53.8027L26.2042 52.672L26.7699 52.9951L26.4466 50.9761L25.8002 51.5414L25.477 51.3799L25.881 51.1376L26.0426 51.2184V51.0568L26.4466 50.8146L25.8002 50.4108ZM20.4673 21.9023L19.2552 22.3061L20.3865 23.0329L20.4673 21.9023L21.5985 22.2253L21.1945 19.8025L19.4977 21.4985L20.4673 21.9023ZM29.0323 78.5962L29.7595 79L30.3252 77.1425L29.0323 78.5962ZM28.0627 76.0118L27.5779 77.7886L29.1939 77.5463L28.0627 76.0118ZM15.6191 33.2895L14.7303 33.6933L15.3767 34.1779L15.4575 34.4201L15.9423 33.9356L15.5383 33.8548L15.6191 33.2895ZM13.3567 28.3631L12.791 29.0092H13.5991L13.3567 28.3631ZM11.878 11.3065L11.6356 10.9027L11.3932 11.2257L11.878 11.3065ZM9.15493 14.9568V14.3108L9.39736 14.23L8.67011 13.1801L7.9429 14.3915H8.34691L9.15493 14.9568ZM14.4879 18.268L14.7303 19.0756L15.2959 18.6718L14.4879 18.268ZM8.83173 16.9759L8.50852 16.3298L8.0237 16.9759H8.83173ZM15.5383 12.6956L14.8111 12.1302V13.0994L15.5383 12.6956ZM13.9788 7.59148L14.7869 7.75301L14.7061 7.02617L13.9788 7.59148ZM9.93872 12.7602L10.2619 12.1141V12.2756L11.0699 11.7103L10.2619 11.3065V12.0333L9.53471 11.9525L9.93872 12.7602ZM5.81779 10.3373V11.1449L6.46422 10.9027L5.81779 10.3373ZM14.4637 7.02617L15.1909 5.8955L13.9788 5.734L14.4637 7.02617ZM16.0231 10.9996L16.4272 12.1302L15.6999 13.3416L17.4776 13.4224L16.5888 12.1302L17.1544 11.1611L16.0231 10.9996ZM16.4272 8.41525L17.3968 8.73829L16.7504 8.8998L17.4776 9.46513L17.6392 8.73829L18.4472 8.98056L17.316 10.9188L19.2552 10.9996L17.8008 12.7763L19.9017 12.9378L19.336 13.7454L19.4977 12.9378L18.124 13.2609L19.0936 13.9877L18.2856 15.1184H18.6088L17.3968 16.4913L18.8512 16.5721L18.6088 16.8951L20.9521 17.3797L20.5481 15.1991V15.2799L20.0633 12.9378L19.4977 10.9996H19.7401L19.1744 8.57676L18.6088 8.81906L18.6896 7.84992L16.4272 8.41525ZM19.9825 15.5222L19.0936 16.4105L18.6088 15.1991L19.9825 15.5222ZM17.316 18.268L18.932 18.3488V19.1564L20.3057 17.945L18.8512 17.2989V18.1065L17.9624 16.8951L17.316 18.268Z" fill="#AF5F83"/>
<path d="M18.2048 18.5911L17.6392 19.641H19.0129L18.2048 18.5911ZM16.4272 17.3797L16.104 17.5412L16.3464 17.7027L16.2656 17.7835H16.4272L16.508 17.8642V17.7835H17.5584L16.7504 16.7336L16.4272 17.3797ZM20.0633 17.7835L18.8513 18.8334L19.4169 19.0756L18.8513 20.2063L20.6289 20.2871L19.9017 19.3987L20.4673 19.641L20.0633 17.7835ZM24.265 58.6483L25.0731 57.76L23.9418 57.6792L24.265 58.6483ZM25.5579 60.0213H24.5882L24.3458 59.8597L24.669 59.5367L23.1338 58.8906L23.5378 60.5058L23.9418 60.102V60.1828L24.4266 59.9405L24.7498 60.7481L25.5579 60.0213ZM19.4977 59.8597L20.7097 59.9405L19.9825 59.0521L19.4977 59.8597ZM24.1842 64.2208L24.4266 63.3324L23.5378 63.6555L24.1842 64.2208ZM25.7195 56.387L24.9114 55.9025L25.0731 56.7908L25.7195 56.387ZM29.194 70.7624L28.3051 71.7315L29.598 72.1353L28.5475 73.266H28.6284L27.9819 75.608L30.0828 75.285L28.6284 73.266L29.9212 73.6698L29.7596 72.1353L29.5172 70.6009L29.2748 68.9049L28.9516 66.5629L28.7092 64.5439L27.8203 65.5937L27.5779 65.3515V65.9168L27.4971 65.9975H27.5779V66.6436L28.5475 66.2398L29.0324 66.4013L27.4163 68.1781L29.4364 68.8242L28.4667 70.0356L27.9819 69.9548L28.1435 70.6009L28.4667 70.3586L29.194 70.7624ZM14.7061 7.10692L15.6757 8.47986L14.6253 9.36823L15.9181 9.69127V9.77203L15.0293 10.0143L15.7565 10.8219L15.3525 10.9027L15.6757 11.2257L15.9181 10.7411L16.0797 10.9027L16.1605 10.0143L17.615 10.0951L16.6454 8.72213L16.1605 9.52974L15.9181 8.39909L16.0797 7.83379L16.7261 7.59149L16.2413 7.18769L16.4029 6.78388L14.7061 7.10692ZM13.3325 10.0143L13.7365 8.8029L13.5749 8.88366L13.8173 8.56062L13.3325 8.39909V8.8029L12.686 8.88366L13.3325 10.0143ZM14.8677 4.5226L13.1708 2.74585L12.3628 4.6841L14.1405 4.5226L14.5445 5.24944L14.8677 4.5226ZM14.8677 8.56062L14.3021 8.07606L14.1405 8.96443L14.8677 8.56062ZM7.43386 5.81477L8.08029 5.73401L7.83787 5.24944L7.43386 5.81477ZM7.35308 5.73401L6.62583 5.65324L6.94906 6.38008L7.35308 5.73401ZM7.83787 1.21141L7.02985 1.69598L7.75709 2.18055L7.83787 1.21141ZM9.21152 9.6105L9.45392 11.0642L10.666 10.2566L9.21152 9.6105ZM8.32269 5.97628L7.11065 6.70312L8.32269 7.26845V5.97628ZM9.85793 8.31833L10.7468 9.12593L10.9084 7.91453L9.85793 8.31833ZM7.99949 10.0143L8.1611 9.04519L7.27227 9.449L7.99949 10.0143ZM12.4436 6.86465L12.282 6.54161L12.686 6.38008L11.878 5.73401V6.54161L11.7164 6.78388L10.9892 6.21857V6.54161H10.9084L10.5852 7.42998L10.8276 7.34922V7.42998L11.3124 7.26845L11.7972 7.02618L12.4436 6.86465ZM8.88832 11.8718L8.6459 11.9526L8.96913 11.791L8.56511 11.468L8.32269 12.0333L8.08029 12.1141L8.48431 12.8409L8.88832 11.8718ZM8.56511 7.42998L7.91868 8.15682L8.7267 8.39909L8.56511 7.42998ZM12.3871 18.9141L12.6295 20.4486L13.8415 19.5602L12.3871 18.9141ZM7.2157 16.5721L6.81169 17.8642L8.42774 17.5412L7.2157 16.5721ZM11.6598 15.6029L10.4478 16.3298L11.6598 16.8951V15.6029ZM13.3567 21.983L14.1647 22.7906L14.4879 21.8215L13.3567 21.983ZM9.23576 18.1065L9.15496 19.0756L9.96298 18.5911L9.23576 18.1065ZM8.91256 26.2633L9.80139 26.5864L9.47816 25.698L8.91256 26.2633ZM2.58571 0.161531L2.98972 0.646075L3.07053 0L2.58571 0.161531ZM6.06023 20.1901L5.25221 20.0286L5.57541 20.7555L6.06023 20.1901ZM15.3768 15.5222L14.4879 15.1184L14.7303 16.0068L15.3768 15.5222Z" fill="#AF5F83"/>
<path d="M10.0437 16.5721L9.31652 16.6528L9.80134 17.2989L10.0437 16.5721ZM11.4982 13.6647L12.1446 14.23L12.3062 13.2609L11.4982 13.6647ZM13.3566 16.3298L13.8415 14.9568L14.5687 15.1184L14.4879 14.3915L13.9222 14.7953L14.003 14.553H13.7607L14.003 14.3108L13.3566 14.0685V14.553L12.387 14.6338L13.3566 16.3298ZM6.65002 22.4676L7.37726 22.6291L7.21565 21.8215L6.65002 22.4676ZM16.8311 20.6101L17.4776 20.0448L16.5079 19.7217L16.8311 20.6101ZM11.6598 17.5412L11.4174 16.5721L11.0942 17.0566L10.8518 16.7336L10.6094 17.1374H10.9326L10.8518 17.2182L11.6598 17.5412ZM6.22177 2.26128L5.25216 1.85748L5.49455 2.74585L6.22177 2.26128ZM0 3.23042L0.484819 3.87649L0.646409 3.06889L0 3.23042ZM5.81776 12.5179L4.92895 12.1141L5.17135 13.0025L5.81776 12.5179ZM3.7977 8.15682L3.5553 7.59149L3.07048 8.23759L3.7977 8.15682ZM13.4374 30.0591L12.5486 30.4629L13.195 31.0282L13.4374 30.0591ZM10.5286 25.7788H11.3366L11.0942 25.1327L10.5286 25.7788ZM12.791 21.337L11.983 21.4177L12.0638 21.0947L12.2254 21.0139L11.8214 20.6101L11.7406 21.0139L11.4982 21.0947L11.7406 21.4177L12.4678 22.1446L12.791 21.337ZM16.8311 30.7052L15.6999 30.8667L16.5079 31.6743L16.8311 30.7052ZM11.6598 26.9902L11.579 27.9593L12.387 27.5555L11.6598 26.9902ZM11.2558 35.0663L12.1446 35.3893L11.8214 34.5009L11.2558 35.0663ZM8.18529 25.1327L7.37726 24.9712L7.53885 25.375L7.13484 25.7788L8.02367 26.1018L7.86206 25.5365L8.18529 25.1327ZM5.2764 22.0638L5.92281 21.9023L5.5996 21.4177L5.2764 22.0638ZM10.2861 39.3466L10.6901 38.862L9.88212 38.7005L10.2861 39.3466ZM8.26607 35.0663L7.94287 35.6316L8.5893 35.5508L8.26607 35.0663ZM17.1543 23.9213L17.5583 23.7598L16.9927 23.1137L16.7503 23.679L16.3463 23.5175L16.5887 24.4059L17.2351 23.8405L17.1543 23.9213ZM14.8111 18.9949L14.3263 19.641H15.1343L14.8111 18.9949ZM11.6598 25.6173L11.8214 24.8097L11.0942 24.9712L11.6598 25.6173ZM13.2758 22.6291L13.5182 23.5175L13.1142 23.7598L13.9222 24.2443L13.7607 23.2752L13.5182 23.4367L14.0839 22.8714L13.2758 22.6291ZM12.0638 18.5911L11.7406 17.945L11.4174 18.3488L10.6094 18.8334L11.3366 19.3179L11.4174 18.5911H12.0638ZM8.8317 23.9213L8.10448 24.0828L8.67008 24.6481L8.8317 23.9213ZM8.75089 31.3513L9.39733 31.5128L9.23571 30.7052L8.75089 31.3513ZM7.37726 23.679L6.24601 23.8405L7.05404 24.6481L7.37726 23.679ZM9.72053 22.8714L10.3669 22.3061L9.47811 21.9023L9.72053 22.8714ZM8.10448 17.2182L7.70047 17.7027L7.53885 17.5412L7.37726 18.5103L8.18529 18.1065L7.94287 17.8642H8.42769L8.10448 17.2182ZM10.3427 0.242265L9.53468 0.807599L10.3427 1.2114V0.242265Z" fill="#AF5F83"/>
</svg>
