<svg width="20" height="30" viewBox="0 0 20 30" fill="none" xmlns="http://www.w3.org/2000/svg">
<path d="M8.41638 16.7089L9.42889 16.076L8.54295 15.5063L8.41638 16.7089ZM7.65702 13.6709L8.47967 12.7848L7.46716 12.4051L7.65702 13.6709ZM9.93513 15.443L11.3273 15.9494L11.2008 14.7468L9.93513 15.443ZM7.78357 10.8228L9.11248 11.2658L8.98591 10L7.78357 10.8228Z" fill="#562828"/>
<path d="M9.93509 8.10128L11.0109 9.05065L11.3906 7.91141L9.93509 8.10128ZM6.32806 13.1013L7.53041 13.9241L7.72024 12.6582L6.32806 13.1013ZM7.65698 14.1139L8.85932 14.8734L9.04916 13.6076L7.65698 14.1139ZM8.09994 12.5317L9.49213 12.9747L9.30228 11.7089L8.09994 12.5317ZM6.64447 16.1393L7.97338 16.519L7.78353 15.2532L6.64447 16.1393Z" fill="#562828"/>
<path d="M5.94844 16.0127L7.21407 16.6456V15.3798L5.94844 16.0127ZM11.8336 11.962L12.6563 11.076L11.6438 10.7595L11.8336 11.962Z" fill="#562828"/>
<path d="M7.53042 17.5317L8.66948 17.1519L7.9734 16.3291L7.53042 17.5317ZM12.0234 10.9494L12.5929 10.3165L11.8968 10.0633L12.0234 10.9494ZM9.9984 14.1772L9.55544 13.6076L9.23903 14.1139L9.9984 14.1772ZM15.6305 13.5443L14.9344 13.7342L15.3773 14.2405L15.6305 13.5443ZM16.3898 15.9494L17.0226 16.519L17.2125 15.8228L16.3898 15.9494ZM12.9726 14.3038L13.4789 13.8608L12.9726 13.5443V14.3038ZM14.2383 19.8102L13.9219 19.1772L13.5422 19.6203L14.2383 19.8102ZM14.3015 11.1393L13.9219 11.8988L14.6179 11.962L14.3015 11.1393ZM15.4406 7.53166L15.9469 7.9747L16.1367 7.40508L15.4406 7.53166ZM10.1883 9.55698L10.7578 9.24052L10.2515 8.86078L10.1883 9.55698ZM9.49215 9.36711L10.3148 8.41774L9.3023 8.10128L9.49215 9.36711ZM10.4414 10.0633L12.2132 9.55698L11.1375 8.29115L10.4414 10.0633ZM13.289 3.48103H14.7445L14.2383 2.34178L13.289 3.48103ZM9.17575 11.2658L10.9476 11.8988L10.8211 10.2532L9.17575 11.2658ZM12.2132 9.17723L13.289 8.6709L12.5297 7.9747L12.2132 9.17723ZM11.6437 7.91141L12.7828 7.46837L12.0234 6.70887L11.6437 7.91141Z" fill="#562828"/>
<path d="M12.2766 16.2659L12.9094 16.8355L13.0992 16.1393L12.2766 16.2659ZM10.2516 17.5317L9.80862 18.038L10.3781 18.1646L10.2516 17.5317ZM14.4281 17.152L14.9977 16.7722L14.4281 16.4557V17.152ZM11.2008 12.3418L11.8336 12.0254L11.3274 11.6456L11.2008 12.3418ZM12.6563 7.4684L11.5172 5.56966L10.3781 7.15194L12.6563 7.4684ZM10.125 10.3798L9.04923 8.8608L8.22658 10.2532L10.125 10.3798ZM8.60627 12.5317L7.59377 11.0127L6.70783 12.4051L8.60627 12.5317ZM11.8336 5.44308L13.0992 6.07599V4.81017L11.8336 5.44308ZM15.9469 2.4684L15.3774 1.07599L14.4281 2.02536L15.9469 2.4684ZM7.34065 14.8735L6.20157 13.2912L5.31564 14.7469L7.34065 14.8735ZM6.32814 17.2152L5.06251 15.3165L3.98672 17.0887L6.32814 17.2152ZM5.37892 19.2406L3.86017 17.0254L2.59454 19.0507L5.37892 19.2406Z" fill="#562828"/>
<path d="M11.4539 13.1013L11.2008 14.2405L12.2133 14.114L11.4539 13.1013ZM8.16326 17.1519L9.49218 17.6583L9.42889 16.3924L8.16326 17.1519ZM7.72029 17.0253L6.83435 18.1646L8.03669 18.481L7.72029 17.0253ZM2.78435 18.9874L1.89841 20.0633L3.16404 20.4431L2.78435 18.9874ZM4.55622 19.2405L3.67028 20.3798L4.87263 20.6962L4.55622 19.2405ZM5.56872 17.2152L4.68279 18.3545L5.88513 18.6709L5.56872 17.2152ZM7.53045 20.6962L7.65702 19.8734L6.89764 20L7.53045 20.6962ZM7.65702 24.4937L7.02421 24.2405V24.8102L7.65702 24.4937ZM11.8969 20.8228L11.4539 21.3924L12.0867 21.519L11.8969 20.8228ZM18.4781 16.2026L19.3008 16.3924L19.1742 15.6962L18.4781 16.2026ZM14.618 16.0127L14.9977 15.4431L14.3648 15.3798L14.618 16.0127ZM18.0984 20.5696L17.5289 20.1266L17.4023 20.6962L18.0984 20.5696ZM5.50544 21.7089L6.51794 20.5696L5.18903 20.1899L5.50544 21.7089ZM13.9219 20.4431L13.5422 19.8734L13.1625 20.3798L13.9219 20.4431ZM10.4414 17.9114L10.3781 18.7342L11.0742 18.5443L10.4414 17.9114ZM10.125 14.114L10.7578 14.3671L10.6945 13.7342L10.125 14.114Z" fill="#562828"/>
<path d="M6.075 18.038L6.45467 17.4684L5.88515 17.3418L6.075 18.038ZM18.9211 3.6076L19.3008 4.36709L19.7438 3.79747L18.9211 3.6076ZM16.4531 0.632912L17.1492 0.506331L16.7695 0L16.4531 0.632912ZM15.3773 6.20254V5.50633L14.8078 5.7595L15.3773 6.20254ZM9.61874 20.8861L9.87188 21.7089L10.4414 21.2025L9.61874 20.8861ZM7.65703 17.5317L8.28985 17.4684L7.97344 16.962L7.65703 17.5317ZM5.69531 22.8481L5.82186 22.2785L5.25233 22.4051L5.69531 22.8481ZM5.25233 16.8355L6.96094 17.6582L7.02422 16.0127L5.25233 16.8355ZM5.3789 15.443L6.70781 15.8228L6.51796 14.6203L5.3789 15.443ZM5.63202 18.6709L6.13827 19.7468L6.83436 18.9874L5.63202 18.6709ZM12.2766 18.2911L12.4031 18.9241L12.9094 18.6076L12.2766 18.2911ZM15.0609 20.5696L15.4406 21.4557L16.0102 20.8228L15.0609 20.5696ZM12.4031 17.0253L13.2258 16.8987L12.7828 16.3291L12.4031 17.0253ZM10.8844 23.2279L10.9477 22.4684L10.3148 22.7215L10.8844 23.2279ZM3.35389 21.3924L3.2906 20.1899L2.34139 20.6329L3.35389 21.3924ZM2.46796 23.481L1.51873 22.6582L1.20233 23.6709L2.46796 23.481ZM2.08826 22.595V21.4557L1.07576 21.8988L2.08826 22.595Z" fill="#562828"/>
<path d="M1.07577 21.519L0 22.9747L1.64531 23.2912L1.07577 21.519Z" fill="#562828"/>
<path d="M2.08826 20.1266L0.949199 21.6456L2.59453 21.962L2.08826 20.1266Z" fill="#562828"/>
<path d="M2.78435 22.9114L3.16404 21.5823L1.89841 21.7722L2.78435 22.9114ZM5.44216 24.3671L5.9484 23.1013H4.68278L5.44216 24.3671ZM4.30309 24.6836L4.42966 23.481L3.41716 23.8608L4.30309 24.6836Z" fill="#562828"/>
<path d="M3.92347 24.1139L2.97425 23.2912L2.65784 24.3671L3.92347 24.1139ZM5.37896 21.8988L5.50551 22.5317L6.01178 22.2152L5.37896 21.8988Z" fill="#562828"/>
<path d="M3.29058 22.4684L1.39214 24.3671L3.54372 25.2532L3.29058 22.4684ZM11.8336 28.9241L11.3273 28.2912L11.0109 28.9241H11.8336ZM10.125 28.1646L10.6312 27.1519L9.61871 27.0886L10.125 28.1646ZM8.16324 27.4051L8.47965 26.3291L7.46715 26.3924L8.16324 27.4051Z" fill="#562828"/>
<path d="M10.8843 27.7848L11.264 26.962L10.4414 26.8987L10.8843 27.7848ZM7.3406 23.6709L8.28982 24.557L8.66949 23.481L7.3406 23.6709ZM6.01169 23.481L6.96091 24.4304L7.3406 23.2911L6.01169 23.481ZM3.41714 21.519L4.36636 22.4051L4.68277 21.2658L3.41714 21.519ZM5.82183 20.443L6.51793 20.5063L6.32809 19.8734L5.82183 20.443ZM2.27809 20.6962L2.53121 20.1266H1.96168L2.27809 20.6962ZM5.88512 24.3671L5.37887 23.9873L5.2523 24.557L5.88512 24.3671ZM11.5804 20.3797L12.2765 20.443L12.0867 19.8101L11.5804 20.3797ZM8.03668 20.5696L8.28982 20H7.72027L8.03668 20.5696ZM11.6437 24.3038L11.1375 23.924L11.0109 24.4937L11.6437 24.3038ZM9.36559 26.7089L8.85935 25.8228L8.35309 26.5823L9.36559 26.7089Z" fill="#562828"/>
<path d="M8.66955 26.2026L8.35315 24.7469L7.27737 25.5064L8.66955 26.2026ZM7.8469 25L7.1508 24.3038L6.83439 25.1266L7.8469 25ZM6.26487 25.9494L5.56877 25.1266L5.18907 26.076L6.26487 25.9494ZM5.44221 25.0633L5.94846 24.6836L5.44221 24.4304V25.0633Z" fill="#562828"/>
<path d="M4.9359 23.6076L3.29058 25.3165L5.25231 26.2658L4.9359 23.6076ZM7.27732 25.1266L5.69529 26.519L7.40387 27.3418L7.27732 25.1266ZM9.49217 26.2025L7.97342 27.6582L9.74529 28.4177L9.49217 26.2025ZM8.6695 21.962L7.91013 21.0127L7.40387 21.962H8.6695ZM12.9726 30L12.6562 28.9241L11.8336 29.557L12.9726 30ZM10.5047 25.3798L9.74529 24.4304L9.30231 25.3798H10.5047ZM6.39138 23.038L7.0242 21.7722H5.75857L6.39138 23.038ZM4.87262 22.9747L4.04997 22.0886L3.60699 23.038L4.87262 22.9747Z" fill="#562828"/>
</svg>
