<svg width="29" height="67" viewBox="0 0 29 67" fill="none" xmlns="http://www.w3.org/2000/svg">
<path d="M22.8306 12.4613C22.8252 12.5053 22.8296 12.5499 22.8436 12.5919C22.8576 12.6339 22.8809 12.6722 22.9116 12.7041C22.9116 12.5423 22.9926 12.2995 22.9116 12.1377C22.7497 12.2186 22.7497 12.2995 22.8306 12.4613ZM2.83357 58.3418L3.07645 58.5845L3.23837 58.2609H3.48125L3.31932 58.0181V57.9372H3.23837L3.07645 57.6944L3.23837 57.7754L4.04797 59.3128L4.53372 58.1799V58.2609L5.42428 57.4517L4.20988 57.0471L4.45277 57.7754H3.80509V56.8852L4.29085 56.8043L5.74812 57.128L5.66716 56.6425H5.74812L5.66716 56.5616L5.34332 55.1051L4.85757 55.7524L4.3718 55.2669L5.5862 53.8104L3.5622 53.0012L3.48125 54.3768L3.23837 54.134L2.7526 55.9142L2.42877 56.8852H2.50972L2.42877 57.2089H2.59069L1.70012 58.7464L2.83357 58.3418ZM2.83357 56.8852L2.67165 57.0471L2.59069 56.9662L2.83357 56.8852Z" fill="#EAA4C4"/>
<path d="M3.96707 53.3249L4.69572 53.1631L4.85764 53.8913L5.66724 53.0821L5.82915 53.7295L5.91012 53.6485L6.31492 54.8623L5.66724 55.186L6.31492 55.5906L6.39587 55.0242L7.36739 54.0531L7.52932 54.2959L8.01507 53.4867H7.77219L6.71972 53.0821L7.04355 52.7585L6.63875 52.5966L7.12452 51.9493L6.47683 51.7874L7.28643 51.6256L6.88163 51.221L7.28643 50.9783L6.63875 50.6546V50.9783L6.07204 50.4118L5.58627 50.0072L4.69572 49.1981V49.279L4.61476 49.1981L4.12899 51.3019L3.88612 52.192H3.96707L3.88612 52.273L4.37187 52.5157L4.53379 53.0012L4.04804 52.4348L3.96707 53.3249ZM5.50532 52.0302L5.58627 52.5157L4.85764 52.273V52.1111L5.50532 52.0302ZM17.0826 20.3913H17.8112L17.4874 19.663L17.0826 20.3913ZM16.273 17.3973L17.1635 16.6691L16.0301 16.4263L16.273 17.3973ZM13.1155 21.3623H12.9536L13.1155 21.2005L11.3344 20.6341L11.9821 22.4142L12.4679 21.686L13.1155 21.3623ZM12.225 36.413L12.0631 35.1184L11.0106 36.0894L12.225 36.413ZM11.0915 42.7246L11.0106 41.43L9.95811 42.401L11.0915 42.7246ZM20.5638 38.3551V37.0604L20.321 37.2222L19.5114 36.8986L19.6733 37.7077L20.4019 37.2222L19.5923 37.8696L20.5638 38.3551ZM15.0586 29.2114L14.0061 30.1014L15.1395 30.506L15.0586 29.2114ZM14.3299 27.4312L14.249 26.1365L13.1965 27.0266L14.3299 27.4312ZM10.6058 47.9843V47.6606L10.6867 47.9034L11.6583 47.0942L10.4439 46.7705V46.9324L9.71523 47.6606L10.6058 47.9843ZM10.8487 17.8019L10.9296 17.9638L10.3629 18.1256L10.8487 18.692L11.0915 18.2874L11.6583 17.1546L11.1725 17.3164L10.8487 16.9928V16.9118L10.7677 16.9928L10.6058 16.8309L10.8487 16.6691L10.3629 16.5882V16.75L10.12 16.0217L9.79618 18.1256L10.3629 17.8829L10.8487 17.8019ZM11.4154 16.5882L12.3059 16.9118L12.225 15.779L11.4154 16.5882ZM13.4394 0.809179L14.3299 1.13285V0L13.4394 0.809179L12.7107 0.0809228L12.5488 1.21377L13.5203 0.890102L13.4394 0.809179ZM12.7917 5.34058L11.9011 6.14976L12.7917 6.47343V5.34058ZM16.3539 5.82608L15.7872 5.4215L15.7063 5.98792L16.3539 5.82608ZM13.7632 5.90701L14.4109 5.74517L13.9251 5.4215L13.7632 5.90701Z" fill="#EAA4C4"/>
<path d="M15.4633 3.88405L14.8966 3.96497L15.2205 4.61231L15.4633 3.88405ZM13.2774 2.50845L13.5203 1.94202L12.9536 2.02294L13.2774 2.50845ZM13.1965 20.7959L14.3299 19.9867L12.9536 19.7439L13.1965 20.7959ZM21.4544 17.9638L20.8877 18.2874L21.2115 18.5302L21.0496 18.7729L21.6163 18.692L21.4544 18.4493V17.9638ZM11.7392 18.9348L11.8202 18.1256L11.0915 18.6111L11.7392 18.9348ZM13.2774 15.3744L14.087 15.2126L13.4394 14.727L13.2774 15.3744ZM25.5024 17.2355L25.2595 17.721H25.7452L25.5024 17.2355ZM24.5309 14.9698L24.9357 14.727L24.4499 14.6461L24.5309 14.9698ZM28.174 16.1836L28.5788 16.5072L28.4979 16.0217L28.174 16.1836ZM12.144 8.57729V8.09178L12.8726 7.44444L11.7392 7.12077L11.9011 7.84902L11.3344 8.25361L12.144 8.57729ZM12.3869 3.39854L12.3059 4.04589L13.0346 3.88405L12.3869 3.39854ZM16.7587 8.49637L17.0016 7.84902L16.3539 7.92995L16.7587 8.49637ZM11.4963 34.0664L11.9011 35.0374L13.0346 33.8237L11.2534 33.2572L11.5773 34.0664H11.4963ZM17.0825 37.7077L16.3539 37.7886L16.7587 38.5169L17.0825 37.7077ZM9.39136 38.3551L9.71521 39.2452L10.8486 38.1123L11.0106 38.5978L10.9296 38.6787L11.0915 38.7596V38.8406L11.6582 39.0024V38.5978L12.4678 38.8406L12.225 37.3031L11.3344 38.1932L10.7677 38.0314L11.1725 37.6268H11.0915L11.9821 37.384L11.1725 36.8985L11.0915 37.7077L10.4438 37.5459L10.7677 38.2741H10.8486V38.436L9.79616 38.0314L9.71521 37.8696L9.63425 37.9505L9.14849 37.7886L9.39136 38.5169L9.31041 38.6787L9.39136 38.3551ZM12.3869 27.9976L11.9821 28.8068H12.225V30.506L12.5488 30.2633L12.3869 30.506H12.4678L12.5488 30.7488L12.3869 30.6679L12.7107 31.8007L12.8726 31.7198L13.2774 31.8007L13.1965 31.477L13.7632 30.9106L13.1155 30.8297L13.1965 30.6679L12.7107 30.5869H13.1155L12.7917 30.0205L13.5203 29.4541L12.225 28.8877H12.5488L12.3869 27.9976Z" fill="#EAA4C4"/>
<path d="M19.9971 34.2283L19.0256 34.3092L19.6733 34.9565L19.9971 34.2283ZM18.7827 29.9396L19.5114 29.535L18.7018 29.2923L18.7827 29.9396ZM15.0586 40.9444L15.1396 41.5918L15.8682 41.1872L15.0586 40.9444ZM10.5248 39.8116L9.71524 39.8925L10.282 40.378L10.5248 39.8116ZM16.4349 32.0435L16.5968 31.558L15.9491 31.6389L16.4349 32.0435ZM15.7872 28.4022V28.8068L16.192 28.564L15.7872 28.4022ZM15.7063 22.657V22.0096L15.2205 22.2524L15.7063 22.657ZM17.3255 24.8418L17.8922 24.7609L17.6493 24.4372L17.3255 24.8418ZM13.0346 24.5181L13.2775 25.0036L13.6013 24.6799L13.0346 24.5181ZM19.5923 15.9408L19.1066 16.1836L19.5114 16.5881L19.5923 15.9408ZM17.0826 18.8538L17.4064 18.5302L16.9207 18.4493L17.0826 18.8538ZM12.8727 14.3224L12.9536 13.756L12.4679 13.9988L12.8727 14.3224ZM14.5728 16.5881L15.0586 16.5072L14.8157 16.1836L14.5728 16.5881ZM12.8727 8.98186L12.4679 8.65818L12.3869 9.46736L13.0346 9.30553L13.1156 9.38645V9.30553L13.3584 9.2246L13.1965 9.06277L13.2775 8.82001L12.8727 8.98186ZM14.5728 10.9239L14.33 11.2476H14.7348L14.5728 10.9239ZM11.4154 11.1666L11.0106 11.0048L11.0916 11.4094L11.4154 11.1666Z" fill="#EAA4C4"/>
<path d="M25.7452 23.0616L26.231 22.657L25.7452 22.4952V23.0616ZM23.3164 27.4311L22.8307 27.593L23.2355 27.9167L23.3164 27.4311ZM20.159 23.3043L19.9971 23.7089L20.4828 23.628L20.159 23.3043ZM23.3974 35.8466L23.8022 35.7657L23.4783 35.442L23.3974 35.8466ZM21.7782 31.3961L22.102 30.9915L21.6163 31.0724L21.7782 31.3961ZM15.0585 38.1932L15.3014 38.1123L14.6537 37.6268L14.4918 38.5169L14.8156 38.3551L14.4108 38.7596L13.9251 37.9505L13.4393 38.8406L12.6297 38.5978L13.2774 40.1353L13.0345 40.378L12.9536 40.2162L12.5488 40.8635L13.3584 40.7826L13.2774 40.6208H13.6822L13.5203 40.2162L14.5728 39.0833H15.7871L15.0585 38.1932ZM10.3628 49.279L11.0915 48.7126L9.63419 48.0652V49.9263L10.3628 49.279L10.7676 50.5737L11.5772 49.6836L10.3628 49.279ZM9.31036 52.5157L8.25788 52.192L9.55324 51.1401H9.47228L9.79611 50.8973L9.87708 51.0592L10.3628 50.4927L9.55324 50.25L9.71516 50.7355L9.31036 50.4927V51.0592L8.015 50.4927V52.3539L8.09596 52.2729L8.50076 53.4058L8.74364 53.163L9.14844 54.3768L10.2009 53.163L9.06748 52.8394L9.31036 52.5157ZM12.063 49.3599V48.8744L11.5772 49.198L12.063 49.3599ZM17.8921 38.1123L17.2444 39.0024H18.3779L17.8921 38.1123ZM13.6822 42.32L13.5203 42.0773L13.1155 42.7246L13.6012 42.6437L13.6822 43.0483L14.168 42.4819L13.6822 42.32ZM12.2249 35.6848L12.8726 36.0894L12.9536 35.1993L12.2249 35.6848ZM13.5203 18.7729L12.5488 18.9348L13.0345 19.663L13.5203 18.7729ZM16.4348 15.6171L16.111 14.8889L15.7062 15.4553L16.4348 15.6171ZM17.4873 20.9577V21.686L18.2159 21.2005L17.4873 20.9577ZM9.87708 22.1715L10.2009 21.686L11.4963 21.3623L10.7676 20.8768L10.9296 20.9577V20.5531L11.9011 20.8768V20.7959L12.4678 20.2295L11.7392 19.9867L11.6582 19.4203L10.8486 20.2295V19.9058L11.0915 19.7439L10.6867 19.663L11.1724 19.1775L9.79611 18.692L10.039 19.5012H9.95804L10.12 20.3913L9.95804 20.5531L9.39131 20.1485L9.06748 22.2524L9.47228 22.1715H9.87708Z" fill="#EAA4C4"/>
<path d="M14.6538 23.5471L14.4919 23.1425L14.168 23.9517H14.4919V24.1944L14.8157 24.0326H14.8967V23.9517L15.1396 23.7898L14.6538 23.5471ZM14.33 21.5241L13.6013 22.0906L14.5728 22.3333L14.33 21.5241ZM14.4109 14.0797L14.0871 13.2705L13.6823 13.8369L14.4109 14.0797ZM15.4634 19.5821V20.3913L16.192 19.9058L15.4634 19.5821ZM14.4919 18.0447L14.0871 17.1546L13.6823 17.9638L14.4919 18.0447ZM12.3869 12.7041L12.5488 13.4324L13.1965 12.9468L12.3869 12.7041ZM18.8637 15.0507L18.216 15.3744L18.8637 15.8599V15.0507ZM15.0586 13.2705L14.7348 13.9179L15.1396 13.9988V14.5652L16.0301 14.3224L15.4634 13.9179L15.0586 13.2705ZM19.0256 11.4903L18.5399 11.814L19.0256 12.1377V11.4903ZM12.225 13.3514L12.0631 12.5423L11.5773 13.1896L12.225 13.3514ZM11.4154 8.73912L11.4964 9.30554L12.144 8.98187L11.4154 8.73912ZM16.192 12.2995L16.273 11.6522L15.7063 11.8949L16.192 12.2995ZM14.168 10.3575L14.0061 9.95289L14.33 9.71013L13.6823 9.62921V9.87196L13.3584 10.1956L14.168 10.3575ZM15.2205 15.8599V16.6691L15.9492 16.1836L15.2205 15.8599ZM14.168 18.692L15.3824 19.0966L15.1396 17.5592L14.168 18.692L13.9252 18.2065L13.5204 18.7729L14.33 18.8539L14.168 18.692ZM8.50085 61.3357L8.41988 60.2029L7.61029 61.0121L8.50085 61.3357ZM3.23846 61.0121L3.1575 59.8792L2.3479 60.6884L3.23846 61.0121ZM2.67174 59.7983L2.59078 58.6655L1.78118 59.4746L2.67174 59.7983ZM7.69125 62.3877L7.61029 61.5785L7.04357 62.1449L7.69125 62.3877ZM7.69125 57.6944V58.2609L8.33893 58.0181L7.69125 57.6944ZM11.4154 61.4167L11.8202 61.9831L11.9821 61.4167H11.4154ZM14.4919 60.2838L14.7348 59.6365L13.9252 59.7174L14.4919 60.2838ZM10.0391 59.6365H10.6058L10.3629 58.9891L10.0391 59.6365ZM13.7632 55.8333L14.33 55.4287L13.7632 55.2669V55.8333ZM15.2205 54.7005L15.4634 54.0531L14.6538 54.1341L15.2205 54.7005ZM11.3344 54.215L11.0916 53.5676L10.7677 54.0531L11.3344 54.215ZM14.4109 49.7645L14.4919 50.3309L15.0586 49.9263L14.4109 49.7645ZM5.99109 65.7053L6.55781 65.9481L6.39589 65.3007L5.99109 65.7053ZM5.42437 64.6534L5.66726 64.087H4.85766L5.42437 64.6534ZM2.26694 64.9771L2.67174 64.1679L1.61926 64.087L2.26694 64.9771ZM1.21446 67L1.5383 66.3527L0.647748 66.2717L1.21446 67ZM5.91014 63.1969L6.63877 62.8732L5.99109 62.5495L5.91014 63.1969Z" fill="#EAA4C4"/>
<path d="M4.20986 60.4457L4.1289 61.0121L3.88603 60.9312L4.20986 61.8213L4.69563 61.2548L4.37178 61.1739L4.9385 60.9312L4.20986 60.4457ZM11.5772 43.9384L11.1724 44.2621L12.5487 44.7476L12.4678 43.8575L12.7106 43.9384L13.3583 44.343L13.5202 43.372L13.1964 43.5338L12.7916 42.401L12.3058 43.2101L12.1439 42.9674L11.901 43.2911L11.5772 42.7246L11.4153 43.2101V43.1292L11.0105 43.6957L11.5772 43.9384ZM11.6582 43.6957L11.5772 43.7766H11.8201L11.6582 43.9384V43.6957ZM13.2774 11.814L12.7106 9.87196L11.5772 11.5712L13.2774 11.814ZM13.5202 37.3031L13.2774 35.7657L12.1439 36.8986L13.5202 37.3031ZM12.2249 54.4577L11.901 54.7005H11.8201L11.0105 55.5097L12.3058 55.9143L12.2249 55.0242L12.9535 55.5906L13.2774 54.3768L12.2249 54.4577ZM11.0105 46.6896V45.6377L10.2009 46.3659L11.0105 46.6896ZM10.9295 40.9444L11.8201 40.7017L11.0105 40.2162L10.9295 40.9444ZM16.6777 46.285L17.0015 45.3949L16.1919 45.5568L16.6777 46.285ZM20.7257 42.8865L19.6732 42.9674L20.4018 43.7766L20.7257 42.8865ZM14.8156 42.0773L14.3298 42.8865L15.1394 42.9674L14.8156 42.0773ZM19.6732 52.1111L20.078 51.221L19.0255 51.3019L19.6732 52.1111ZM16.3538 53.4867L15.8681 54.2959L16.6777 54.3768L16.3538 53.4867ZM21.0495 49.1172L21.8591 48.7126L21.0495 48.3889V49.1172ZM10.5247 61.9831L10.8486 61.093L9.79609 61.1739L10.5247 61.9831ZM9.63417 57.2899L10.4438 57.3708L10.2009 56.4807L9.63417 57.2899ZM17.7302 53.5676L18.5398 53.0821L17.6492 52.7585L17.7302 53.5676ZM8.25785 64.4106L8.58169 63.6015H7.52922L8.25785 64.4106ZM2.9145 63.7633L3.7241 63.8442L3.40026 62.9541L2.9145 63.7633ZM16.5967 57.6135L17.4063 57.128L16.5967 56.8044V57.6135ZM13.5202 53.8913L12.9535 52.0302L12.2249 53.0012L12.063 52.6775L11.4962 53.5676H11.901L11.8201 53.6485L13.5202 53.8913ZM16.4348 50.5737L15.6252 50.25L15.7062 51.0592L16.4348 50.5737ZM8.98649 57.5326L8.17689 57.2899L8.50074 58.18L8.98649 57.5326ZM13.6012 45.6377L13.0345 46.6087L14.1679 46.5278L13.6012 45.6377ZM8.74362 43.6957L8.82457 42.8055L8.09594 43.372L8.74362 43.6957Z" fill="#EAA4C4"/>
<path d="M5.8291 60.122L6.47678 58.3418L7.28638 59.4746L5.8291 60.122ZM5.91007 57.4517L6.55773 55.6715L7.36733 56.8044L5.91007 57.4517ZM0 62.5495L0.647681 60.9312L1.45728 62.064L0 62.5495ZM0.728633 60.8503L1.45728 59.2319L2.26688 60.3648L0.728633 60.8503ZM9.14846 55.3478V54.9432L8.66269 55.5097L7.77213 55.5906L8.74366 57.128L9.14846 56.0761L9.31037 56.157L9.22941 55.6715L9.14846 55.3478ZM16.6777 39.3261L15.6252 39.407L16.4348 40.2162L16.6777 39.3261ZM18.054 41.0254L18.8636 41.1063L18.5398 40.2162L18.054 41.0254ZM4.69567 49.0362L5.34334 48.8744L5.66718 48.9553V48.8744L5.99102 48.7935L5.74814 49.0362L5.10047 49.1981L5.34334 49.4408L5.26239 49.5218L5.66718 49.6836L5.8291 49.8454L5.34334 50.3309L5.58622 50.4118L5.99102 50.8164L5.91007 50.8973L6.55773 51.221L6.6387 50.3309L6.31487 50.4928L6.39582 50.1691H6.2339L6.31487 49.9263H6.39582V49.6836L6.55773 48.7935L6.2339 48.8744V48.7126L6.71966 48.5507L6.96253 49.0362L7.61021 48.308H7.77213L6.80062 49.279L8.09598 49.6836L7.93406 48.2271L8.17693 47.8225L8.58173 47.4179L8.17693 47.256L9.55326 47.0942L8.25789 45.0713L7.61021 46.9324L7.52926 46.6087L7.93406 45.9613H7.4483L7.36733 45.1522L8.25789 44.9903L8.58173 45.1522V44.5048L8.17693 44.7476L7.0435 43.8575L7.77213 43.0483L7.93406 43.2101L8.17693 42.8865L8.58173 44.0193L8.41981 43.9384L8.74366 45.0713L8.82461 44.9903L8.90558 45.2331L10.2819 43.5338L8.01501 42.8056L8.25789 42.401L7.28638 42.5628L6.88158 42.401V42.2391L6.80062 42.32L6.47678 42.1582L8.25789 41.6727L8.50078 42.401L9.63421 41.1872L9.06749 41.0254L8.58173 39.4879L8.33886 39.7307L8.25789 39.0833L7.52926 39.8925L7.4483 39.3261L8.09598 38.5978L6.6387 38.1932L7.61021 37.9505L7.52926 38.1123L8.25789 37.7886L9.47229 37.465L9.06749 37.1413L10.2009 35.9275L9.95806 35.8466L10.9296 34.7138L10.5248 34.5519L10.9296 34.1473L9.22941 33.5809L9.47229 34.3092L9.39133 34.2283V34.3092L8.98653 34.1473L9.06749 34.0664L7.61021 33.6618L9.31037 33.2572L10.039 33.9046L10.2819 33.1763L9.39133 33.2572L10.2819 33.0145L9.22941 32.1244L9.31037 31.8816L9.55326 32.0435L9.63421 31.1534L9.31037 31.3152L9.39133 30.9915L8.50078 31.2343L8.90558 31.6389L8.74366 31.7198L8.98653 31.8816L8.82461 31.9626L7.69118 30.6679L7.28638 33.5L6.96253 34.9565L7.61021 34.6328L7.8531 35.442L8.25789 35.0374L8.50078 35.2802L8.58173 34.6328L8.66269 34.5519L8.90558 35.1993H8.58173L9.14846 35.6848V35.7657L8.41981 35.5229L8.74366 36.413L7.61021 36.2512L7.4483 35.8466L7.12446 35.442L6.55773 38.5169L6.96253 39.7307L6.55773 40.0543L6.39582 39.4879L5.8291 42.4819L6.39582 42.2391L6.47678 42.6437L6.15294 42.8865L5.66718 42.7246L5.10047 45.4759H5.26239L5.58622 46.285L5.26239 45.9613L4.69567 49.0362ZM8.74366 36.0894L9.06749 36.9795L8.33886 36.494L8.74366 36.0894ZM7.36733 40.0543L7.20542 40.1353L7.93406 40.378L7.77213 40.6208L6.6387 39.7307L7.36733 40.0543ZM6.80062 43.372L6.71966 43.2911L6.80062 43.372ZM6.47678 45.2331H6.71966L6.31487 45.5568L6.47678 45.2331ZM6.31487 46.8514L6.71966 47.0133L7.0435 47.4988L7.28638 47.1751L7.61021 47.256L7.4483 47.337L7.93406 47.256L8.01501 47.6606L7.36733 47.8225L6.31487 46.8514ZM5.34334 45.5568L5.8291 45.3949L6.07198 45.6377H5.99102L6.07198 45.7995L5.34334 45.5568ZM13.6012 49.1981L13.4393 49.3599L13.1155 49.1981V49.5218L12.7916 50.0072L13.6822 49.9263L13.6012 49.6836L14.087 49.6027L13.6012 49.1981ZM15.4633 46.8514L14.5728 48.0652L16.111 47.9843L15.4633 46.8514ZM12.3059 57.8563L12.2249 57.6944L12.144 57.7754L11.7392 57.6135L12.144 57.4517L11.3344 56.8853L11.0915 57.9372L11.7392 57.6135L11.9011 58.099L11.5773 58.5036H11.982L12.3059 59.3937L13.4393 58.2609L12.3059 57.8563ZM14.3299 57.209L13.6822 57.6944L14.168 57.9372L14.3299 57.209ZM2.59071 61.8213L1.94303 62.3068L2.42879 62.5495L2.59071 61.8213ZM17.9731 47.9034H19.2684L18.7017 47.0133L17.9731 47.9034ZM14.7347 52.1111L14.087 51.8684L13.9251 51.5447L13.7632 51.7065L13.4393 52.192L14.006 52.1111L14.168 52.5966L14.7347 52.1111ZM10.7677 32.9336L12.2249 31.7198L10.7677 31.0725V32.9336ZM15.0585 25.57L14.8156 24.0326L13.6822 25.0845L15.0585 25.57ZM24.5308 35.9275L24.8546 35.0374L23.8022 35.1183L24.5308 35.9275ZM18.9446 34.3092L18.4588 35.1183L19.2684 35.1993L18.9446 34.3092ZM24.4499 29.4541L23.6403 29.1304L23.7212 29.9396L24.4499 29.4541ZM15.5443 32.7717L14.8966 33.6618L14.7347 33.4191L14.4918 33.7427V33.6618L14.3299 33.8237L13.9251 33.2572L13.4393 34.0664L14.2489 33.9855L14.006 34.2283H14.5728L16.03 34.3901L15.5443 32.7717ZM18.2969 31.8007L19.1065 31.3152L18.216 30.9915L18.2969 31.8007ZM16.03 35.1993L14.5728 35.442L15.6252 36.413L16.03 35.1993ZM13.5203 28.564L14.4918 27.7548L13.2774 27.4311L13.5203 28.564ZM16.5968 25.9746V25.651L15.9491 25.9746L16.3539 26.3792L16.03 26.9456L17.1635 26.8647L16.5968 25.9746ZM11.1725 23.7898L11.4153 24.6799L12.5488 23.8708L11.6582 23.7089V23.2234L11.0915 23.628L10.9296 23.7089L11.1725 23.7898Z" fill="#EAA4C4"/>
<path d="M8.50084 26.3792L7.93412 29.4541L8.50084 29.2923V29.7778L8.41987 29.8587L8.33892 30.1014L8.74372 30.0205L9.63427 30.3442L9.55332 29.7778H9.63427L9.55332 29.6968L9.47235 29.1304L10.4439 28.8877L10.6868 29.1304L10.12 29.6968L10.5248 29.8587L11.1725 30.2633V30.0205L11.4963 30.1824L11.4154 28.9686L11.5773 28.7258H11.4154V28.6449L11.3344 28.7258L11.0106 28.4022L11.9011 28.4831L11.5773 27.593L12.9536 27.4311L11.7392 25.3273L11.2535 26.541V26.4601L10.282 27.8357L9.55332 27.2693L9.95812 26.8647H10.0391L10.3629 26.622L10.6868 26.7838L10.6058 25.7319L10.6868 25.6509H10.6058V25.57L11.9011 25.3273L10.4439 24.1944L10.5248 24.1135V24.1944L11.2535 23.3852L11.3344 23.2234L11.5773 22.9807H11.4963L11.6583 22.657L10.9296 22.8188L9.87715 22.4952L10.4439 23.8708L10.0391 23.7089V23.7898L9.14852 23.0616L8.58179 26.1365L10.0391 25.7319V25.8128L9.47235 26.2983L8.66275 26.0555L8.90564 26.7029V26.7838L8.50084 26.3792ZM9.14852 29.1304L9.06755 29.2113L8.98659 29.1304H9.14852ZM16.192 29.9396L15.8682 30.3442L15.7872 30.1824L15.3824 30.8297L16.273 30.7488L16.1111 30.506L16.5968 30.4251L16.192 29.9396ZM18.216 27.593L17.2445 28.8067L18.7827 28.7258L18.216 27.593ZM20.5639 28.7258H21.8592L21.2925 27.8357L20.5639 28.7258ZM17.3255 32.7717L16.6778 32.529L16.5159 32.2053L16.3539 32.3671L16.0301 32.8526L16.5968 32.7717L16.7587 33.2572L17.3255 32.7717ZM15.9491 24.8418L16.5159 24.3563L16.1111 24.1944V24.1135L15.9491 24.1944L15.8682 24.1135V24.1944L15.1395 24.599L15.9491 25.0845V24.8418ZM11.5773 11.3285L10.6868 11.5712L11.4963 12.1377L11.5773 11.3285ZM12.4679 16.6691L12.8727 17.721L12.6298 17.9637L13.3584 18.1256L13.0346 17.4782L13.4394 16.9118L12.4679 16.6691ZM10.7677 14.9698L10.5248 14.727V14.808L10.282 14.727L10.5248 15.2125V15.698L10.7677 15.6171L11.0106 16.1026L11.5773 15.3744L11.7392 15.2125L11.4963 15.1316L12.3059 14.8889L11.1725 14.1606L11.4154 13.8369L11.8202 13.9988L11.6583 12.8659L12.144 12.4613L11.0106 12.1377L11.1725 12.8659L10.5248 13.5133L11.0106 13.6751L10.5248 13.756L11.0106 14.4843V14.4034L10.7677 14.9698ZM12.6298 15.3744L13.1965 14.6461L12.225 14.3224L12.6298 15.3744ZM15.2205 20.3104V19.2584L14.4109 20.0676L15.2205 20.3104ZM20.8067 19.8249L21.1306 18.9348L20.321 19.0966L20.8067 19.8249Z" fill="#EAA4C4"/>
</svg>
