<svg width="113" height="107" viewBox="0 0 113 107" fill="none" xmlns="http://www.w3.org/2000/svg">
<path d="M52.1353 80.7071L52.2161 81.4342L53.0244 80.8687L52.1353 80.7071ZM66.1188 81.7574L65.4722 82.8884L66.6846 82.9692L66.1188 81.7574ZM41.9507 94.3603L43.3248 93.9563L42.1932 92.8253L41.9507 94.3603ZM44.2948 93.5524L45.9114 93.0677L44.5373 91.6943L44.2948 93.5524ZM39.8491 95.0874L41.5465 94.5219L40.0916 93.2293L39.8491 95.0874ZM7.92137 105.913L9.53797 105.428L8.16387 104.055L7.92137 105.913ZM47.7704 92.179L49.387 91.6943L48.0938 90.7248L47.7704 92.179ZM50.5187 91.2903L52.1353 90.8056L50.842 89.8362L50.5187 91.2903ZM64.9872 86.2815L66.6038 85.7968L65.3105 84.8273L64.9872 86.2815ZM46.073 91.9366L47.4471 91.5327L46.3155 90.3209L46.073 91.9366ZM59.7332 85.9583L59.5716 87.0894L59.3291 86.7662L59.1674 87.978L60.2991 87.7357L59.9757 87.3317L60.7032 87.1702H60.6224L61.5115 87.5741V86.5239L60.8649 87.0086L59.7332 85.9583ZM34.191 95.4913L35.5652 95.5721L34.9185 94.1179L34.191 95.4913ZM39.0408 88.7859L38.7175 88.7051L38.8792 89.1899L38.7983 89.3514L40.1724 89.4322L39.5258 87.978L39.0408 88.7859ZM49.2254 87.1702L48.4979 88.5436L49.872 88.6244L49.2254 87.1702ZM51.1653 87.4125L52.5394 87.4933L51.8928 85.9583L51.1653 87.4125ZM62.0773 86.847L63.2089 86.9278L62.6431 85.716L62.0773 86.847ZM35.0802 90.9672L33.5444 91.1288L34.2719 92.3406L35.0802 90.9672ZM31.2812 97.5918L32.0895 96.2184L30.5537 96.38L31.2812 97.5918ZM27.1589 95.1682L27.9672 93.7948L26.4314 93.9563L27.1589 95.1682ZM34.2719 85.1505L32.7361 85.312L33.4636 86.5239L34.2719 85.1505ZM41.1424 86.2815L39.6066 86.4431L40.3341 87.5741L41.1424 86.2815ZM46.1539 85.6352L44.6181 85.7968L45.3456 87.0086L46.1539 85.6352ZM27.4822 98.9652L28.2905 97.5918L26.7547 97.7534L27.4822 98.9652ZM19.3992 101.308L20.2075 100.258L18.8334 100.339L19.3992 101.308ZM21.8241 95.4913L20.45 95.5721L21.0158 96.5416L21.8241 95.4913ZM16.4893 102.843L17.2976 101.793L15.9235 101.874L16.4893 102.843ZM57.955 87.0086L58.6825 85.8775L57.3084 86.0391L57.955 87.0086ZM75.98 81.5958L76.7075 80.4648L75.3334 80.6263L75.98 81.5958ZM79.2941 78.3643L80.5065 77.718L79.2941 77.2333V78.3643ZM77.7583 80.0608L78.9707 79.4145L77.7583 78.9298V80.0608ZM70.0795 84.1002L70.8069 82.9692L69.5137 83.1308L70.0795 84.1002ZM77.6775 77.1525L77.7583 77.8795L78.3241 77.4756L77.6775 77.1525ZM69.9986 81.3534L69.9178 82.0805L70.5644 81.8382L69.9986 81.3534ZM71.2111 80.1416L71.9385 80.384V79.6569L71.2111 80.1416ZM73.9593 81.9189L74.6868 82.1613V81.4342L73.9593 81.9189ZM54.3985 88.0588L53.0244 88.2204L53.7518 89.4322L54.0752 88.9475H55.1259L54.5601 87.7357L54.3985 88.0588Z" fill="#AF5F83"/>
<path d="M53.3477 84.3426L52.6202 85.716L53.9943 85.7968L53.3477 84.3426ZM67.8162 84.3426L67.2504 84.4234L67.7354 85.1505L68.0587 84.5042L68.867 84.585L68.3012 83.3731L67.8162 84.3426ZM62.8048 75.6175L63.0472 74.9712L62.4006 75.052L62.1581 74.8904V75.5367L62.4814 75.2943L62.8048 75.6175ZM53.2668 87.0894L54.3985 87.2509L53.8327 86.3623L53.2668 87.0894ZM55.1259 87.0894L55.6109 87.6549L55.9342 86.7662L55.1259 87.0894ZM58.9249 84.6657L59.7332 84.3426L59.0058 83.8578L58.9249 84.6657ZM54.3176 71.5781L53.671 71.4165L53.7518 72.0628L54.3176 71.5781ZM57.47 71.6589L57.1467 72.1436L57.6317 72.2244L57.47 71.6589ZM55.2068 67.9426L54.641 68.0234L55.0451 68.4274L55.2068 67.9426ZM72.4235 83.3731L73.151 83.1308L72.5043 82.5653L72.4235 83.3731ZM75.4142 78.0411L75.1717 77.314L74.6059 77.9603L75.4142 78.0411ZM31.7661 92.0982L30.7153 92.2598L31.2811 93.0677L31.7661 92.0982ZM36.3734 91.2903L37.1817 90.9672L36.4543 90.3209L36.3734 91.2903ZM30.7962 86.1199L29.9879 86.6047L30.7962 86.9278V86.1199ZM40.0108 88.5436L40.1724 89.4322L41.0616 88.7859L40.0108 88.5436ZM31.9278 94.845L32.8169 94.1179L31.847 93.7948L31.9278 94.845ZM42.1932 88.7051L42.3548 89.6746L43.244 88.9475L42.1932 88.7051ZM49.387 89.9977L50.1953 90.0785L49.7912 89.2706L49.387 89.9977ZM47.2854 90.3209L48.0937 90.4017L47.6896 89.5938L47.2854 90.3209ZM46.2347 83.05L45.3455 83.1308L45.9922 83.7771L46.2347 83.05ZM41.8699 90.644L40.8999 90.8056L41.6274 91.4519L41.8699 90.644ZM38.96 82.4845L38.1517 82.9692L39.0408 83.6155L38.96 82.4845ZM35.7268 88.2204L35.8076 89.1091L36.6159 88.382L35.8884 88.1396L36.0501 87.978L35.161 87.8972L35.4035 88.6243L35.7268 88.2204ZM41.2232 80.5456L40.8999 81.4342H41.7082L41.2232 80.5456ZM37.505 92.4214L38.475 93.0677L38.3942 92.0174L37.505 92.4214ZM37.1817 95.8953L38.7983 95.4913L37.505 94.5219L37.1817 95.8953ZM33.4635 97.2686L35.0801 96.7031L33.7869 95.8953L33.4635 97.2686ZM5.0923 106.721L6.7089 106.317L5.41562 105.347L5.0923 106.721ZM26.3505 92.0174L24.4106 91.7751L24.9764 93.3908L25.1381 93.2292V93.5524L25.8656 92.8253L25.6231 92.6637L26.3505 92.0174ZM26.9972 88.3012L26.6739 89.1898L27.4821 89.1091L26.9972 88.3012ZM19.1567 96.38L18.3484 95.0874L17.4593 96.1376L19.1567 96.38L19.0759 96.9455L19.965 96.5416L19.3183 96.0568L19.1567 96.38ZM29.2604 94.2795L30.1495 94.7642L29.9879 93.8756L29.2604 94.2795ZM26.5122 99.3691L27.4013 98.9652L26.7547 98.4805L26.5122 99.3691ZM33.0594 95.8953L33.9485 95.4913L33.3019 95.0066L33.0594 95.8953ZM21.0966 101.389L21.6624 100.904L20.9349 100.823L21.0966 101.389ZM37.4242 85.3928L37.99 85.716L37.8284 85.0697L37.4242 85.3928ZM41.5465 84.7465L41.3849 85.312L41.8699 85.2312L41.5465 84.7465ZM50.5995 83.2116L49.872 83.3731L50.4378 83.7771L50.5995 83.2116ZM47.043 81.4342V82.0805L47.5279 81.6766L47.043 81.4342ZM47.6896 86.5239L48.2554 86.6854L48.0937 86.1199L47.6896 86.5239ZM67.4929 77.2333L66.7654 77.3948L67.2504 77.718L67.4929 77.2333ZM54.4793 80.7071L54.156 81.1111L54.7218 81.2726L54.4793 80.7071ZM60.8648 84.7465L60.1374 84.9081L60.7032 85.312L60.8648 84.7465ZM57.7125 83.2116L57.3083 82.9692V83.6155L57.7125 83.2116ZM57.955 87.978L58.5208 88.1396L58.2783 87.6549L57.955 87.978ZM63.4514 82.2421V82.7268L63.8555 82.4037L63.4514 82.2421ZM64.098 86.0391L64.583 86.2007L64.4214 85.7968L64.098 86.0391ZM47.8512 71.7397L47.4471 72.3052H48.1746L47.8512 71.7397ZM46.3155 76.3446L45.8305 76.4254L46.2347 76.8293L46.3155 76.3446ZM47.7704 78.3643V78.849L48.2554 78.6066L47.7704 78.3643ZM35.2418 83.7771L35.161 84.2618L35.7268 84.1002L35.2418 83.7771ZM44.1331 79.1722L43.5673 79.0106L43.4864 79.4145L44.1331 79.1722ZM29.3412 97.9957L29.6645 97.1071L28.7754 97.3494L29.3412 97.9957ZM32.6552 92.583L33.5444 92.2598L32.7361 91.4519L32.6552 92.583L32.5744 92.4214L32.1703 93.0677L33.0594 93.2292L32.6552 92.583ZM40.0108 93.4716L40.3341 92.583L39.445 92.8253L40.0108 93.4716ZM17.4593 97.0263L17.0551 97.8342L17.9442 97.6726L17.4593 97.0263ZM17.4593 99.5307L17.0551 100.339L17.9442 100.177L17.4593 99.5307ZM15.6002 101.954V101.146L14.9535 101.389L15.6002 101.954ZM17.6209 102.601L18.7525 102.197L18.0251 101.954L17.6209 102.601ZM25.1381 97.0263L25.3806 96.2992L24.6531 96.5416L25.1381 97.0263ZM29.907 89.5938L30.9578 88.4628L29.6645 88.0588L29.907 89.5938ZM25.9464 91.6135L26.593 90.9672L26.2697 90.8056L25.8656 90.1593L25.3806 90.9672H25.8656L25.9464 91.6135ZM28.6946 91.2095L29.0179 90.8864L28.2904 90.644L28.3713 91.2095L28.1288 91.048L28.2096 91.9366L28.8563 91.2903L28.6946 91.2095ZM12.367 103.57L13.9027 103.812L13.0944 102.52L12.367 103.57Z" fill="#AF5F83"/>
<path d="M15.6001 98.0765L14.711 99.1268L16.2468 99.3691L15.6001 98.0765ZM15.3577 99.9346L14.5494 100.985L16.0851 101.227L15.3577 99.9346ZM18.9142 94.7642L19.1567 94.1987L18.51 94.3603L18.9142 94.7642ZM7.51717 102.52L6.54721 102.197L6.70887 103.409L7.51717 102.52ZM34.7568 89.9169L33.7868 90.2401L34.4335 90.9672L34.7568 89.9169ZM54.9642 85.1504L54.0751 85.8775L54.8834 86.2815L54.9642 85.1504ZM60.8648 80.2224L61.269 81.0303L61.8348 80.384L60.8648 80.2224ZM51.1652 80.384L50.6803 81.1918L51.5694 81.111L51.1652 80.384ZM52.6202 90.1593L52.5393 89.0283L51.6502 89.7554L52.6202 90.1593ZM56.0958 85.9583L56.6617 85.3928L55.7725 85.1504L56.0958 85.9583ZM49.2253 84.9081L48.8212 84.2618L48.417 85.1504L49.2253 84.9081ZM50.5994 84.6657L51.0844 85.716L51.4886 84.6657H50.5994ZM48.902 90.7248L49.872 90.5632L49.1445 89.9977L48.902 90.7248ZM60.7032 84.0194L61.269 83.3731L60.3798 83.2115L60.7032 84.0194ZM53.5901 83.0499L53.186 82.4037L52.701 83.2115L53.5901 83.0499ZM55.6917 83.8578L55.9342 84.7465L56.8233 84.1002L55.6917 83.8578ZM61.8348 84.3426L61.3498 85.1504L62.1581 85.2312L61.8348 84.3426ZM59.4907 79.8184L58.5207 79.8992L59.1674 80.4648L59.4907 79.8184ZM60.299 82.8884L61.1073 82.3229L60.2182 82.1613L60.299 82.8884ZM66.6846 81.1918L66.1996 81.0303L66.6037 81.8381L67.0079 81.4342H67.2504L67.0079 80.7879L66.6846 81.1918ZM62.1581 78.2835L62.4006 77.6372L61.5923 77.718L62.1581 78.2835ZM61.5115 85.4736L61.7539 86.2007L62.4006 85.4736H61.5115ZM66.4421 85.312L67.0887 85.2312L66.6846 84.6657L66.4421 85.312ZM65.6338 80.7879L65.7146 80.1416L64.9871 80.384L65.6338 80.7879ZM57.5508 81.9997L57.0658 82.8076L58.0358 82.646L57.5508 81.9997ZM51.0844 89.0283V87.978L50.1953 88.5435L51.0844 89.0283ZM42.8398 91.2095V90.1593L42.0315 90.8056L42.8398 91.2095ZM57.47 86.7662L57.1466 87.0086V86.9278L56.2575 87.5741L55.7725 87.8972L56.4192 88.3012L56.5 87.6549L56.6617 87.7357L57.2275 88.7051L57.9549 87.5741L57.3891 87.6549L57.47 86.7662ZM67.0079 84.0194L66.6037 83.6155L66.6846 83.3731L66.4421 83.4539L66.2804 83.2923L66.1996 83.5347H66.1187L66.1996 83.6155L66.1187 84.3426L67.0079 84.0194ZM54.5601 84.181L54.8834 85.0696L55.4492 84.5041L54.5601 84.181ZM48.1745 83.6155L47.7704 82.9692L47.2854 83.7771L48.1745 83.6155ZM12.0436 100.015L12.7711 98.8844L11.397 98.9652L12.0436 100.015ZM4.93061 102.924L5.33476 102.116L4.36481 102.277L4.93061 102.924ZM9.45708 100.743L9.37626 101.55L10.0229 101.308L9.45708 100.743ZM4.60729 97.3494L3.87983 97.7534L4.60729 97.9957V97.3494ZM0 104.055L0.889126 104.54L0.727469 103.651L0 104.055ZM7.11302 99.046L7.67883 98.5612L6.87053 98.4804L7.11302 99.046ZM10.8312 93.3908L10.5887 94.1179L11.3162 94.0371L10.8312 93.3908ZM2.34406 105.428L1.6166 105.832L2.42489 106.236L2.34406 105.428ZM13.0944 96.2992L13.3369 96.8647L13.9027 96.38L13.0944 96.2992ZM16.9743 91.2095L16.7318 91.9366L17.4592 91.8558L16.9743 91.2095ZM10.427 104.943L11.1545 104.62L10.5887 104.216L10.427 104.943ZM83.9013 54.451L83.8205 55.1781L84.5479 54.9358L83.9013 54.451ZM84.8713 75.4559L85.8412 74.5672L84.5479 74.4057L84.8713 75.4559ZM80.4256 78.3643L81.5572 78.2027L80.8298 77.1524L80.4256 78.3643ZM85.7604 60.5101L85.6795 60.2678L85.5987 60.3486L84.9521 59.9446L84.7096 60.7525L85.5179 60.5909L85.1137 61.2372L86.0837 61.3988L85.7604 60.5101ZM79.2132 57.1171L79.1323 57.8441L79.8598 57.6018L79.2132 57.1171ZM83.4971 59.1367L83.4163 58.4904L82.9313 58.9752L83.4971 59.1367ZM81.9614 53.8855L81.3147 53.8047L81.6381 54.3702L81.9614 53.8855ZM86.4878 64.1456L85.4371 65.115L86.5687 65.4382L86.4878 64.1456ZM83.0122 63.0146L83.2547 63.2569L83.0122 63.4993L82.9313 63.0954L82.4464 63.4993L83.1738 63.7416L83.093 63.4993L83.9013 63.7416L83.6588 63.0954L83.7396 62.6914L83.0122 63.0146ZM86.9728 69.4776L87.7003 69.316L87.2153 68.7505L86.9728 69.4776ZM86.1645 70.851L86.892 70.6894L86.407 70.1239L86.1645 70.851ZM86.0029 73.113L85.5179 73.6786L86.2454 73.8401L86.0837 73.2746L86.7303 73.113L86.1645 72.5475L86.0029 73.113ZM84.6288 67.2155L85.0329 66.7308H84.3863L84.6288 67.2155ZM85.5987 58.5712V57.9249L85.1137 58.1673L85.5987 58.5712ZM81.6381 62.6106L81.7189 62.2875L80.8298 62.5298L81.3956 63.2569V63.0146L81.7189 62.9338L81.6381 62.6106ZM21.5815 98.5612V97.7534L22.2282 97.8341L21.824 97.0263L21.5007 97.511L20.7732 98.0765L21.0966 98.2381L20.2883 99.2075L21.9049 99.4499L21.2582 98.3189L21.5815 98.5612ZM13.5794 99.6923L14.4685 100.177V99.1268L13.5794 99.6923ZM26.9971 96.7031L27.8863 97.1878V96.1376L26.9971 96.7031ZM36.4542 92.4214V93.1484L35.5651 93.6332L36.535 94.2795L36.4542 93.6332L37.3433 93.31L36.4542 92.4214ZM3.07153 102.035L2.9907 103.085L3.87983 102.762L3.07153 102.035ZM25.2997 94.441L25.7847 93.8755L24.8956 93.6332L25.2997 94.441ZM18.4292 93.31L18.025 92.6637L17.6209 93.4716L18.4292 93.31Z" fill="#AF5F83"/>
<path d="M63.8555 85.6352L65.6338 84.0194L63.2089 83.7771L63.8555 85.6352ZM43.9714 88.7859L44.5372 90.7248L46.3155 89.109L43.9714 88.7859ZM23.764 97.4302L22.309 98.8844L24.6531 99.6115V99.5307L25.3806 99.9346L25.2997 98.8844L24.5723 99.2883L23.764 97.4302ZM29.422 96.8647L31.1195 95.1681L28.7754 95.0066L29.422 96.8647ZM12.5286 101.874L10.1037 101.631L10.7504 103.57L12.5286 101.874ZM79.3749 46.857L80.1023 46.6146L79.4557 46.2915L79.3749 46.857ZM83.578 47.7457L83.093 48.1496L83.578 48.392V47.7457ZM77.0308 53.9663L76.95 54.6934L77.6774 54.4511L77.0308 53.9663ZM81.1531 55.4205L80.6681 55.8245L81.2339 56.0668L81.1531 55.4205ZM79.9407 50.8156L79.294 50.7348L79.6173 51.3003L79.9407 50.8156ZM79.4557 52.8353L79.3749 53.5624L80.1023 53.32L79.4557 52.8353ZM83.4972 54.2895L83.0122 54.6934L83.578 54.9358L83.4972 54.2895ZM82.3655 49.6846L81.7189 49.6038L82.0422 50.1693L82.3655 49.6846ZM82.6889 52.1082L82.9314 53.1584L83.4163 52.7545L83.6588 52.9161V52.5929L83.9821 52.3506L83.6588 52.2698V52.1082L83.4972 52.189L82.6889 52.1082ZM84.8713 56.2284L84.9521 56.7939L85.4371 56.39L84.8713 56.2284ZM83.4163 50.9772H83.9013L83.6588 50.4925L83.4163 50.9772ZM83.3355 65.1151L82.608 66.3269L83.8205 66.4077L83.3355 65.1151ZM71.4535 67.2156L72.3427 66.8116L71.4535 66.4077V67.2156ZM76.7075 67.8618L76.1417 68.4274L76.7883 68.6697L76.7075 67.8618ZM76.95 59.6215L76.1417 59.3791L76.3842 60.0254L76.95 59.6215ZM68.867 81.9189L67.8162 82.0805L68.382 82.8076L68.867 81.9189ZM68.1395 73.8401L68.382 74.648L69.0286 74.1633L68.1395 73.8401ZM60.2182 69.8008L59.4099 70.3663L60.299 70.5278L60.2182 69.8008ZM74.2826 64.7919L74.2018 65.5998L75.0909 65.1959L74.2826 64.7919ZM79.6173 66.9732L79.5365 66.2461L79.0515 66.8116L79.6173 66.9732ZM79.4557 59.056L79.9407 58.5712L79.1324 58.3289L79.4557 59.056ZM85.1138 67.054L85.5987 68.3466L86.8112 67.1348L85.1138 67.054ZM87.0537 71.1742L87.7812 72.386L88.7511 71.0934L87.0537 71.1742ZM82.0422 69.8815L80.5873 69.8008L80.9914 70.9318L82.0422 69.8815ZM84.7904 72.5475H86.2454L85.5179 71.1742L84.7904 72.5475ZM80.1023 63.0146L80.9914 63.4993L80.8298 62.6106L80.1023 63.0146ZM81.8806 68.0234L82.5272 67.4579L81.7997 67.3771L81.8806 68.0234Z" fill="#AF5F83"/>
<path d="M85.8413 61.9643L85.5988 62.6914H86.3263L85.8413 61.9643ZM81.6381 60.4293L81.4765 59.783L81.1531 60.3486L81.6381 60.4293ZM76.7883 74.4865V74.648L75.8992 74.0825L75.6567 75.1327L76.5458 74.8096L75.98 75.6175L77.2733 75.6983L76.7883 74.4865ZM65.9572 70.2047L65.8763 71.0126L66.7654 70.5278L65.9572 70.2047ZM71.2111 72.3052L71.1303 71.5781L70.6453 72.1436L71.2111 72.3052ZM69.2712 65.9229H68.4629L68.867 66.5692L69.2712 65.9229ZM74.2826 78.5259L73.151 79.8184L74.6868 80.2224L74.2826 78.5259ZM68.7862 80.384V78.6874L67.4121 79.7377L68.7862 80.384ZM76.7075 76.8293L75.5759 78.1219L77.0308 78.5259L76.7075 76.8293ZM80.4257 74.4057L80.1024 72.7899L78.8899 74.0017L80.4257 74.4057ZM73.7976 76.6677L73.9593 75.779L73.0702 76.0214L73.7976 76.6677ZM79.8599 75.8598L79.0516 76.5062L79.9407 76.8293L79.8599 75.8598ZM77.1925 67.8618L77.6775 68.7505L78.2433 68.0234L77.1925 67.8618ZM72.9893 76.0214L72.2619 76.4254L73.151 76.9101L72.9893 76.0214ZM70.7261 81.8381L71.4536 81.4342L70.7261 81.2726V81.8381ZM78.4049 76.1022L78.0008 75.4559L77.7583 76.183L78.4049 76.1022ZM76.2225 73.2746L76.465 72.9515L76.8692 73.1938L76.7883 72.4668L76.465 72.6283H75.8992L76.2225 73.2746ZM71.4536 75.052L71.2111 75.6983L71.7769 75.6175L71.4536 75.052ZM73.8785 71.4973L73.151 72.0628L74.2018 72.5475L73.8785 71.4973ZM77.1925 64.4687L76.95 65.3574L77.7583 65.1958L77.1925 64.4687ZM82.2039 77.718L84.1439 76.0214L81.6381 75.6175L82.2039 77.718ZM63.1281 66.4077L63.0473 67.2155L63.9364 66.8116L63.1281 66.4077ZM68.382 68.6697L68.3012 67.9426L67.6546 68.5081L68.382 68.6697ZM68.867 57.7633L68.0587 57.521L68.3012 58.2481L68.867 57.7633ZM67.7354 60.187L67.4929 60.9949L68.4629 60.8333L67.7354 60.187ZM82.5273 74.0017L81.8806 74.5672L82.6081 74.8096L82.5273 74.0017ZM71.9386 56.9555L71.1303 56.7131L71.3727 57.3594L71.9386 56.9555ZM78.3241 70.4471L78.2433 71.2549L79.1324 70.851L78.3241 70.4471ZM82.9314 72.5475L83.578 72.7899L83.4972 72.0628L82.9314 72.5475ZM81.3956 66.8924L81.719 66.3269H80.9107L81.3956 66.8924ZM74.6059 59.6215L73.7976 59.8638L74.5251 60.5101L74.6059 59.6215ZM73.4743 68.2658L74.121 67.7002L73.3127 67.6195L73.4743 68.2658ZM79.5365 60.2678L79.0516 60.9141L79.779 60.9949L79.5365 60.2678ZM83.2547 4.20096L83.0122 5.332L84.3055 5.00884L83.2547 4.20096ZM81.4765 1.45418L81.3148 2.5852L82.6081 2.26206L81.4765 1.45418ZM86.0838 1.77732H86.8112L86.4879 1.05024L86.0838 1.77732ZM81.7998 6.22066L83.0122 7.02854L83.2547 5.41278L81.7998 6.22066ZM78.3241 1.69654L79.5365 2.50442L79.779 0.888665L78.3241 1.69654ZM75.4142 1.21181L76.5458 2.01969L76.7883 0.403932L75.4142 1.21181ZM81.7998 1.21181L82.9314 2.01969L83.2547 0.403932L81.7998 1.21181ZM82.2848 3.06994L83.4164 3.87781L83.7397 2.26206L82.2848 3.06994ZM79.779 2.90836L80.9915 3.63545L81.234 2.10048L79.779 2.90836ZM86.0029 2.90836L87.1346 3.71624L87.3771 2.18126L86.0029 2.90836ZM84.3863 2.5852L85.518 3.39308L85.7605 1.85812L84.3863 2.5852ZM69.5945 4.6049L70.8069 5.332L70.9686 3.79702L69.5945 4.6049ZM74.5251 5.41278L74.9293 4.03939L73.3935 4.28175L74.5251 5.41278ZM72.3427 4.44333L72.666 3.06994L71.1303 3.3123L72.3427 4.44333ZM78.1624 4.92806L77.92 6.13988L79.2132 5.73594L78.1624 4.92806ZM84.6288 4.84727L84.3863 6.05909L85.6796 5.65515L84.6288 4.84727ZM70.322 6.30145L70.0795 7.51327L71.3727 7.19011L70.322 6.30145ZM76.3842 4.36253L76.2225 5.08963L77.1117 4.92806L76.3842 4.36253ZM81.719 4.28175H80.9915L81.3148 5.00884L81.719 4.28175ZM78.0816 10.0985L77.92 9.3714L77.3541 9.93691L78.0816 10.0985ZM79.8599 12.8453L80.6682 13.0069L80.4257 12.1182L79.8599 12.8453ZM79.779 7.43248V8.15958L80.5065 7.75564L79.779 7.43248ZM85.4371 11.0679L84.7905 11.3103L85.2755 11.8758L85.4371 11.0679ZM69.1903 13.4108L69.9178 13.5724L69.7561 12.6837L69.1903 13.4108ZM69.1095 7.99799V8.72509L69.7561 8.32115L69.1095 7.99799ZM74.7676 11.6334L74.121 11.795L74.5251 12.4413L74.7676 11.6334ZM65.7955 9.69454L66.523 9.85612L66.3613 8.88666L65.7955 9.69454ZM65.7147 4.20096V4.92806L66.3613 4.6049L65.7147 4.20096ZM71.3727 7.91721L70.6453 8.07878L71.2111 8.72509L71.3727 7.91721ZM64.9064 10.8256L65.7147 11.0679L65.553 10.1793L64.9064 10.8256ZM64.9064 5.49357V6.13988L65.553 5.81672L64.9064 5.49357Z" fill="#AF5F83"/>
<path d="M70.5644 9.12902L69.8369 9.2906L70.4027 9.85611L70.5644 9.12902ZM62.4006 6.78617L62.8047 7.51327L63.2897 6.70539L62.4006 6.78617ZM65.9571 2.82757L65.4721 3.3123L66.1996 3.55466L65.9571 2.82757ZM67.5737 9.45217L67.0079 9.12902L66.927 9.9369L67.5737 9.45217ZM70.4836 6.70539V8.24035L71.9385 7.51327L70.4836 6.70539ZM73.7976 9.53296L73.1509 9.69453L73.6359 10.26L73.7976 9.53296ZM68.7861 7.51327L69.1903 6.70539H68.3011L68.7861 7.51327ZM72.181 7.35169L72.8276 6.86696L72.0193 6.46302L72.181 7.35169Z" fill="#AF5F83"/>
<path d="M67.8162 4.36254L68.382 4.6857L68.5437 3.9586L67.8162 4.36254ZM73.9593 1.69654L73.7976 2.34283L74.5251 2.26205L73.9593 1.69654ZM70.4028 7.99801L71.5344 8.0788L71.1302 6.86698L70.4028 7.99801ZM69.352 0.807865L69.5136 1.69654L70.4028 1.13101L69.352 0.807865Z" fill="#AF5F83"/>
<path d="M77.5157 4.6049L76.7074 5.00884L77.4349 5.73593L77.5157 4.6049ZM67.7353 7.43247L68.4628 6.78617L67.4928 6.30145L67.7353 7.43247ZM62.3197 3.71624L63.0472 4.20096L63.2088 3.23151L62.3197 3.71624ZM69.9177 0.403932L69.6752 1.21181L70.6452 1.13102L69.9177 0.403932ZM76.7883 7.75563L77.4349 7.1901L76.5458 6.78617L76.7883 7.75563ZM72.5043 4.68569L72.9893 5.08963L73.1509 4.28175L72.5043 4.68569ZM78.6473 2.10048L78.4049 2.74677L79.2132 2.66599L78.6473 2.10048ZM76.7074 1.2926L76.5458 2.42363L77.839 2.10048L76.7074 1.2926ZM75.495 2.5852L76.0608 4.36253L77.5966 2.98914L75.495 2.5852ZM77.6774 3.63545L79.2132 4.6049L79.5365 2.50442L77.6774 3.63545ZM70.0794 2.98914L71.6152 3.95859L71.8576 1.85812L70.0794 2.98914ZM66.0379 3.06993L67.6545 4.03938L67.897 2.01969L66.0379 3.06993ZM65.3912 4.03938L66.0379 2.26205L64.0171 2.42363L65.3912 4.03938ZM66.927 5.81671L66.5229 4.52412L65.3912 5.49357L66.927 5.81671ZM63.128 6.54381L62.8047 5.2512L61.5922 6.22065L63.128 6.54381ZM70.241 4.76647L69.8369 3.39308L68.7053 4.44332L70.241 4.76647Z" fill="#AF5F83"/>
<path d="M64.583 4.76648L64.1789 3.39309L63.0473 4.44333L64.583 4.76648ZM64.8255 1.77733L66.3613 2.74678L66.6846 0.646302L64.8255 1.77733ZM73.7976 2.34284L73.636 3.47388L74.9292 3.15072L73.7976 2.34284ZM73.3935 0.807876L73.2318 2.0197L74.5251 1.61576L73.3935 0.807876ZM82.2848 8.88667L83.0931 9.04824L82.8506 8.15958L82.2848 8.88667ZM83.9822 7.67485L84.3863 7.10934L83.578 7.02854L83.9822 7.67485ZM81.8806 10.4216V11.0679L82.6081 10.7448L81.8806 10.4216ZM72.4235 2.0197H73.0702L72.7468 1.29261L72.4235 2.0197ZM78.7282 4.84727L78.8899 5.49358L79.4557 5.08964L78.7282 4.84727ZM69.1095 0.969449L70.2411 1.77733L70.4836 0.16157L69.1095 0.969449Z" fill="#AF5F83"/>
<path d="M72.8277 0.242366L70.2411 0.161573L71.3727 2.90837L72.8277 0.242366ZM70.0794 0.161573L67.4929 0.0807928L68.5437 2.90837L70.0794 0.161573ZM76.2225 0.161573H73.636L74.7676 2.90837L76.2225 0.161573ZM65.2296 0.242366L62.6431 0.161573L63.6939 2.90837L65.2296 0.242366ZM62.0773 10.5832L60.7032 9.53297L60.2182 11.4719L62.0773 10.5832ZM79.5365 0.0807928H76.7883L77.9199 2.82758L79.5365 0.0807928ZM82.3656 0.0807928L79.6982 0L80.9106 2.82758L82.3656 0.0807928ZM85.5179 0.0807928H82.9314L84.1438 2.82758L85.5179 0.0807928Z" fill="#AF5F83"/>
<path d="M64.2597 1.53496L65.3913 2.34284L65.6338 0.807872L64.2597 1.53496ZM67.0079 0.484725L66.7654 1.9389L68.3012 1.53496L67.0079 0.484725ZM62.9664 1.21181L61.6731 1.69654L62.7239 2.82757L62.9664 1.21181ZM61.5923 2.82757L61.269 4.92806L63.1281 4.44333L61.5923 2.82757ZM60.8648 7.51327L60.4607 9.2906L62.1581 8.96746L60.8648 7.51327ZM64.3405 5.00884L63.9364 7.02854L65.7955 6.6246L64.3405 5.00884ZM67.1696 3.15072L66.6846 5.73594L69.0286 5.25121L67.1696 3.15072ZM63.7747 9.61375L63.5322 10.7448L64.583 10.5024L63.7747 9.61375Z" fill="#AF5F83"/>
<path d="M63.4513 7.19011L63.2897 8.15958L64.1788 7.99799L63.4513 7.19011ZM70.3219 4.12019L69.9985 5.9783L71.696 5.57436L70.3219 4.12019ZM65.1487 7.02854L65.7146 8.72509L67.0078 7.59405L65.1487 7.02854ZM62.4005 7.43248L62.0772 9.04823L63.5322 8.72509L62.4005 7.43248ZM67.7353 8.07878L68.3011 7.59405L67.4928 7.19011L67.7353 8.07878ZM63.3705 5.08964L63.8555 5.49358L64.0171 4.6857L63.3705 5.08964ZM69.5136 2.42364L69.2711 3.06994L69.9985 2.98915L69.5136 2.42364ZM73.9592 8.07878L74.4442 7.67484L73.7975 7.3517L73.9592 8.07878Z" fill="#AF5F83"/>
<path d="M75.7375 9.69454L76.6266 9.04824L75.495 8.40193L75.7375 9.69454ZM72.0193 8.6443L72.5043 8.24036L71.8576 7.91721L72.0193 8.6443ZM73.7167 7.83642L74.2017 7.3517L73.5551 7.02854L73.7167 7.83642ZM68.9478 8.88667L68.7053 9.3714H69.3519L68.9478 8.88667Z" fill="#AF5F83"/>
<path d="M76.2225 12.3605L76.95 11.7142L76.0608 11.2295L76.2225 12.3605ZM71.5344 8.56352L72.181 9.04824L72.3427 8.15958L71.5344 8.56352ZM78.7282 6.05909L78.4049 6.78617H79.2132L78.7282 6.05909ZM100.067 4.12018L99.9056 5.332L101.199 4.92806L100.067 4.12018ZM98.3698 1.37339L98.1274 2.5852L99.4206 2.18126L98.3698 1.37339ZM98.6932 6.22066L99.8248 7.02854L100.148 5.41278L98.6932 6.22066ZM95.2175 1.69654L96.3491 2.42363L96.5916 0.888665L95.2175 1.69654ZM91.9843 1.13102L93.1159 1.9389L93.3584 0.32314L91.9843 1.13102ZM98.6932 1.21181L99.8248 2.01969L100.067 0.403933L98.6932 1.21181ZM99.1781 2.98914L100.31 3.79702L100.633 2.26206L99.1781 2.98914ZM96.6724 2.82757L97.8849 3.63545L98.1274 2.10048L96.6724 2.82757ZM101.28 2.5852L102.411 3.3123L102.654 1.77733L101.28 2.5852ZM86.1646 4.44333L87.2962 5.17042L87.6195 3.63545L86.1646 4.44333ZM91.0143 5.17042L91.4185 3.79702L89.8827 4.03939L91.0143 5.17042ZM88.9128 4.28176L89.2361 2.90836L87.7003 3.15072L88.9128 4.28176ZM94.6517 4.6857L94.4092 5.89751L95.7025 5.49357L94.6517 4.6857ZM101.522 4.84727L101.28 6.05909L102.573 5.65515L101.522 4.84727ZM93.2776 4.28176L93.1159 5.08964L94.005 4.92806L93.2776 4.28176ZM98.6123 4.28176H97.8849L98.2082 5.00884L98.6123 4.28176ZM94.975 10.0177L94.7325 9.3714L94.1667 9.85612L94.975 10.0177ZM96.7533 12.8453L97.4807 13.0069L97.3191 12.0374L96.7533 12.8453ZM96.6724 7.43248V8.07879L97.3999 7.75564L96.6724 7.43248ZM102.331 11.0679L101.684 11.2295L102.169 11.8758L102.331 11.0679ZM86.9729 15.3497L87.7812 15.5921L87.5387 14.6226L86.9729 15.3497ZM86.892 9.93691V10.664L87.6195 10.3409L86.892 9.93691ZM92.5501 13.6531L91.9035 13.8147L92.3885 14.3802L92.5501 13.6531ZM86.9729 6.46303V7.99799L88.4278 7.27091L86.9729 6.46303ZM90.2869 9.20981L89.5594 9.45218L90.1252 10.0177L90.2869 9.20981Z" fill="#AF5F83"/>
<path d="M87.2153 7.1901L87.862 6.70538L87.0537 6.30144L87.2153 7.1901ZM82.8505 4.12017L83.4971 4.52411L83.578 3.79702L82.8505 4.12017ZM89.0744 1.53495L88.8319 2.18126L89.5594 2.10048L89.0744 1.53495ZM85.4371 7.75563L86.4878 7.9172L86.1645 6.70538L85.4371 7.75563ZM84.4671 0.646295L84.6288 1.53495L85.4371 0.969441L84.4671 0.646295ZM92.5501 4.52411L91.7418 4.92805L92.4693 5.57435L92.5501 4.52411ZM83.1738 7.27089L83.9013 6.54381L82.8505 6.13987L83.1738 7.27089ZM77.7582 3.47387L78.4049 3.95859L78.5665 2.98914L77.7582 3.47387Z" fill="#AF5F83"/>
<path d="M85.4371 0.242362L85.1138 1.05024L86.0837 0.969448L85.4371 0.242362ZM93.6817 7.75563L94.3284 7.1901L93.4392 6.78617L93.6817 7.75563ZM89.3169 4.6049L89.8827 5.00884L90.0444 4.28175L89.3169 4.6049ZM95.5408 2.01969L95.2983 2.666H96.0258L95.5408 2.01969ZM93.1967 0.969448L93.0351 2.18126L94.3284 1.85812L93.1967 0.969448ZM92.0651 2.50442L92.6309 4.28175L94.1667 2.90836L92.0651 2.50442ZM94.5708 3.63545L96.1066 4.6049L96.3491 2.50442L94.5708 3.63545ZM85.1138 2.82757L86.6495 3.79702L86.9728 1.69655L85.1138 2.82757Z" fill="#AF5F83"/>
<path d="M90.4485 2.18126L90.206 3.39308L91.4993 3.06994L90.4485 2.18126ZM90.0444 0.727079L89.8019 1.85812L91.0951 1.53496L90.0444 0.727079ZM99.1781 8.88667L99.9056 9.04824L99.7439 8.15958L99.1781 8.88667ZM100.876 7.67485L101.199 7.02854H100.471L100.876 7.67485ZM98.774 10.3409V11.0679L99.4206 10.7448L98.774 10.3409ZM88.9936 1.85812L89.6402 1.9389L89.3977 1.21181L88.9936 1.85812ZM95.6216 4.84727L95.7024 5.49358L96.3491 5.00884L95.6216 4.84727ZM85.8412 1.2926L86.9728 2.01969L87.2153 0.484725L85.8412 1.2926Z" fill="#AF5F83"/>
<path d="M89.4785 0.0807927H86.8112L88.0236 2.82757L89.4785 0.0807927ZM92.6309 0H90.0443L91.176 2.74678L92.6309 0ZM95.9449 0.0807927L93.2775 0L94.4092 2.82757L95.9449 0.0807927ZM99.0165 0H96.3491L97.5615 2.74678L99.0165 0ZM102.088 0L99.5014 0.0807927L100.714 2.74678L102.088 0ZM90.3677 7.83641L90.9335 7.43247L90.2868 7.10933L90.3677 7.83641ZM92.2268 9.45217L93.1159 8.80586L91.9843 8.15957L92.2268 9.45217ZM88.5086 8.40192L88.9936 7.99798L88.2661 7.67484L88.5086 8.40192Z" fill="#AF5F83"/>
<path d="M90.206 7.51327H91.3376L90.0443 6.78617L90.206 7.51327ZM92.7117 12.1182L93.4392 11.4719L92.55 10.9872L92.7117 12.1182ZM88.0236 8.32115L88.6702 8.80587L88.8319 7.91721L88.0236 8.32115ZM95.2174 5.81672L94.8941 6.54382H95.7024L95.2174 5.81672ZM106.453 4.76647L106.372 5.25121L106.938 5.08963L106.453 4.76647ZM104.432 1.77732L104.27 2.90836L105.564 2.50442L104.432 1.77732ZM109.039 2.01969H109.767L109.443 1.2926L109.039 2.01969ZM104.19 5.57435L104.917 6.05909L105.079 5.08963L104.19 5.57435ZM104.755 1.53495L105.887 2.34283L106.129 0.727072L104.755 1.53495ZM105.321 3.39308L106.453 4.12018L106.695 2.5852L105.321 3.39308ZM102.411 2.98914L103.543 3.79702L103.785 2.18126L102.411 2.98914ZM107.423 3.39308L108.312 3.95859L108.474 2.82756L107.423 3.39308ZM107.019 1.85811L108.15 2.5852L108.393 1.05023L107.019 1.85811ZM107.746 5.332L107.584 6.13988L108.554 5.89751L107.746 5.332ZM99.0164 4.52412L98.8548 5.332L99.7439 5.17041L99.0164 4.52412ZM104.351 4.36253L103.624 4.44332L103.947 5.17041L104.351 4.36253Z" fill="#AF5F83"/>
<path d="M100.795 10.26L100.633 9.53296L100.067 10.0985L100.795 10.26ZM102.654 13.0068L103.381 13.0876L103.22 12.199L102.654 13.0068ZM102.492 7.59405V8.24035L103.139 7.91721L102.492 7.59405ZM108.15 11.1487L107.504 11.3103L107.989 11.8758L108.15 11.1487ZM105.402 9.2098L106.129 9.37139L105.887 8.48272L105.402 9.2098ZM107.099 7.99799L107.423 7.35169H106.614L107.099 7.99799ZM104.594 10.5024V11.2295L105.321 10.8256L104.594 10.5024ZM104.836 0.0807927H102.25L103.381 2.82757L104.836 0.0807927ZM107.989 0H105.402L106.614 2.82757L107.989 0ZM109.444 3.15072L110.009 3.55466L110.171 2.74678L109.444 3.15072ZM111.626 3.55466L111.949 2.82757L110.656 3.39308L111.626 3.55466ZM109.928 7.91721H109.12L109.686 8.48272L109.928 7.91721ZM105.887 4.44333L106.453 4.76647L106.614 4.03939L105.887 4.44333ZM111.707 1.45418L111.545 2.10049L112.273 2.26206L111.707 1.45418ZM105.806 7.2709L106.534 6.6246L105.483 6.22066L105.806 7.2709ZM100.391 3.63545L101.037 4.03939L101.199 3.15072L100.391 3.63545ZM107.989 0.242366L107.665 1.05024L108.635 0.969451L107.989 0.242366ZM61.1881 5.57435L60.9457 6.70539L62.2389 6.38223L61.1881 5.57435ZM111.464 1.05024L113 0L112.03 0.0807927L111.464 1.05024ZM108.797 1.53496L110.009 2.26206L110.171 0.727085L108.797 1.53496Z" fill="#AF5F83"/>
<path d="M111.949 0.0807927L109.282 0L110.656 1.61576L111.949 0.0807927ZM109.767 6.54382L110.252 6.13988L109.605 5.81672L109.767 6.54382Z" fill="#AF5F83"/>
</svg>
