<svg width="53" height="62" viewBox="0 0 53 62" fill="none" xmlns="http://www.w3.org/2000/svg">
<path d="M41.9145 26.365L40.539 26.6885L41.5909 27.5781L41.9145 26.365ZM42.1573 33.9672L42.7237 33.1585L41.5909 32.9967L42.1573 33.9672ZM39.0016 28.3869L38.597 29.1956L39.4871 29.0339L39.0016 28.3869ZM36.2504 36.1508L36.9787 36.7169L36.8977 35.7464L36.2504 36.1508ZM45.313 35.5038L44.5848 35.6655L45.0703 36.0699L44.7466 36.9595L46.284 36.7978L45.2321 35.6655L45.313 35.5038ZM39.4871 38.0918L38.8397 37.7683V38.577L39.4871 38.0918ZM42.1573 45.6131L41.429 46.5027L42.5619 46.5836L42.1573 45.6131ZM40.8626 46.341L39.7298 47.1497L41.1054 47.5541L40.8626 46.341ZM52.7573 60.1705L51.6245 60.9792L53 61.3836L52.7573 60.1705ZM43.8565 49.0907L42.7237 49.8994L44.0993 50.3038L43.8565 49.0907ZM50.0062 55.3989L48.8733 56.2076L50.2489 56.612L50.0062 55.3989ZM44.2611 47.2306L43.6138 45.7748L42.5619 46.9879L43.8565 47.3115V47.3923H43.452L43.8565 48.2011L44.423 47.3923L44.2611 47.2306ZM42.5619 43.5104L41.3481 44.8044L43.0474 44.8852L42.5619 43.5104ZM45.2321 42.459L46.1222 40.9224L44.5848 40.7606L45.2321 42.459ZM46.6077 44.7235L47.255 46.4218L48.1451 44.8852L46.6077 44.7235ZM47.6596 48.3628L49.197 49.3333L49.0352 47.635L47.6596 48.3628Z" fill="#DB91BD"/>
<path d="M46.365 45.7748L45.7986 47.1497L46.8505 47.0688L49.278 47.635L48.7116 45.2896L47.336 46.5836L46.365 45.7748ZM48.5497 53.7005L47.9833 55.0754L49.0352 54.9945L51.4627 55.5606L50.8963 53.2153L49.5208 54.5093L48.5497 53.7005ZM49.9253 51.6787L48.9543 52.5683L50.7345 52.8109L50.4108 51.6787H50.4918L50.0063 50.1421L49.5208 50.6273L48.0643 49.9803L47.9833 49.0907L46.4459 49.9803L47.9833 50.6273V51.5978L49.3589 50.8699L48.7116 51.5169L49.9253 51.6787ZM44.9085 43.5912L44.5849 44.5617L44.0185 43.9956L43.9375 45.047L44.3421 44.9661L44.7467 45.3705L44.8276 45.047L46.2032 44.9661L44.9085 43.5912ZM44.0994 48.1202L45.8795 47.9584L44.7467 46.6645L44.0994 48.1202ZM46.9314 38.8197L46.4459 37.283L45.394 38.2535L46.9314 38.8197ZM45.7986 34.9377L45.3131 33.4011L44.2612 34.3716L45.7986 34.9377ZM44.2612 32.0262L43.2902 30.894L42.7238 32.1071H44.1803L44.3421 32.9967L45.0704 32.5115L44.2612 32.0262Z" fill="#DB91BD"/>
<path d="M41.51 21.6743L40.9435 22.8874H42.4809L41.51 21.6743ZM43.6947 35.0186L44.0993 33.8055L43.0474 33.8863L43.6947 35.0186ZM44.423 48.2011L45.2321 49.8185L45.8794 48.5246L45.9604 49.2524L46.6077 48.8481L45.9604 48.4437L46.0413 48.2011H44.423ZM43.1283 41.2459L42.5619 42.6207L44.342 42.5399L43.1283 41.2459ZM35.4413 27.9016L36.0886 27.659L35.4413 27.0929V27.9016ZM35.4413 23.0492L34.8748 23.4535L35.5222 23.6153L35.4413 23.0492ZM46.3649 42.0546L45.9604 43.4295L47.255 43.1869L46.9313 43.5912L46.1222 44.5617L48.4688 44.7235L47.8214 42.459L47.4168 42.9442L46.3649 42.0546ZM42.6428 38.9814L43.0474 39.4667L42.8855 39.3858L43.1283 40.2754L43.452 39.9519L43.1283 40.7606L43.9375 40.6798L43.5329 39.871L43.6947 39.7093L43.2901 39.4667L43.6138 38.7388L42.6428 38.9814ZM39.0825 35.2612L39.568 35.3421L39.3252 34.6951L38.9206 35.1803L38.6779 35.0994L38.5161 36.0699L39.4061 35.6656L39.0825 35.2612ZM39.0016 43.5104L38.7588 42.6207L38.1115 43.106L39.0016 43.5104ZM36.4122 25.9606L36.8977 25.5563L36.0886 25.3137L36.4122 25.9606ZM34.2275 22.2404L34.8748 22.1596L34.6321 21.6743L34.2275 22.2404ZM42.4001 27.9016H43.2092L42.9664 27.2546L42.4001 27.9016ZM39.4061 32.835L38.6779 32.9158L39.1634 33.5628L39.4061 32.835ZM41.9955 31.2983L41.1054 30.8131L41.2672 31.7027L41.9955 31.2983ZM39.8916 26.1224L39.4061 26.7694H40.2153L39.8916 26.1224ZM35.9268 31.8645L36.0077 31.4601L35.3603 31.8645L35.9268 32.188L35.684 32.3497L36.3313 32.9158L36.5741 31.9454V31.7027L35.9268 31.8645ZM35.9268 32.2688V32.0262L36.0886 32.188L35.9268 32.2688ZM39.0016 30.9749L38.3542 29.9235L37.626 31.1366L39.0016 30.9749ZM44.7466 31.1366L44.342 29.4382L43.1283 30.4087L44.7466 31.1366ZM42.9664 25.2328L42.5619 23.5344L41.3481 24.5049L42.9664 25.2328ZM44.1802 29.2765L43.7756 27.5781L42.5619 28.5486L44.1802 29.2765ZM43.5329 27.1738L43.0474 25.4754L41.8336 26.4459L43.5329 27.1738ZM36.0077 39.224L36.7359 39.4667L36.5741 38.6579L36.0077 39.224ZM35.1176 30.8131L35.684 30.5705L35.3603 30.1661L35.1176 30.8131ZM40.9435 28.7104V29.3574L40.0535 29.5191L40.6199 30.247L41.0245 29.3574V29.6809L41.8336 29.2765L40.9435 28.7104ZM40.8626 23.7771L40.2153 24.2623L41.0245 24.5049L40.8626 23.7771ZM35.8458 28.953L35.1176 28.8721L35.4413 29.6809L35.8458 28.953ZM39.4871 40.9224L39.7298 41.5694L39.4061 41.4885L39.568 42.2972L40.0535 41.7311H39.8107L40.2153 41.2459L39.4871 40.9224ZM39.6489 45.047L39.3252 45.694L39.9726 45.6131L39.6489 45.047ZM41.1863 35.2612H41.9955L41.6718 34.5333L41.1863 35.2612ZM41.2672 41.9738L42.4809 41.165L41.0245 40.4372L41.2672 41.9738ZM44.0184 39.9519L45.7176 39.6284L44.5039 38.577L44.0184 39.9519ZM43.371 36.5552L43.452 35.3421L42.2382 35.9891L43.371 36.5552ZM38.2733 41.0033L38.4351 40.4372L37.7069 40.518L38.0306 41.0033L37.1405 41.0841L37.8687 41.8929L38.2733 41.0033ZM47.9833 52.2448L46.8504 53.0535L48.226 53.4579L47.9833 52.2448ZM45.8794 52.9727L45.6367 52.083L44.9894 52.5683L45.8794 52.9727ZM46.4459 50.3847L46.6886 51.0317L46.284 50.8699L46.4459 51.6787L46.9313 51.1125H46.6886L47.0932 50.6273L46.4459 50.3847ZM46.5268 54.5093L46.2031 55.1563L46.8504 55.0754L46.5268 54.5093ZM45.2321 50.4656L45.3939 49.8994L44.6657 49.9803L44.9894 50.4656L44.0993 50.5464L44.8275 51.3552L45.2321 50.4656ZM34.7939 25.5563L34.5512 26.5268L35.4413 26.1224L34.7939 25.5563ZM43.371 51.3552L42.8855 52.0022H43.6947L43.371 51.3552ZM47.6596 41.7311L47.255 40.2754L45.9604 41.5694L47.6596 41.7311ZM52.1909 57.4207L51.7863 55.965L50.4917 57.259L52.1909 57.4207ZM52.5955 59.6043L52.1909 58.1486L50.8962 59.4426L52.5955 59.6043Z" fill="#DB91BD"/>
<path d="M38.1115 36.3934L37.0596 36.7978L37.9497 37.6066L38.1115 36.3934ZM51.22 59.3617L50.168 59.7661L51.0581 60.5748L51.22 59.3617ZM49.1161 57.0164L48.0642 57.4208L48.9543 58.2295L49.1161 57.0164ZM36.736 26.8503L36.9787 25.8798L36.0886 26.2842L36.736 26.8503ZM37.626 29.1956L37.8688 28.3869L37.626 28.4677L37.9497 28.3869L37.626 27.9825L37.3833 28.5486L37.1406 28.6295L37.626 29.1956ZM40.7009 40.3563L41.4291 39.871L40.539 39.4667L40.7009 40.3563ZM42.8047 37.8492L44.423 37.6066L43.2093 36.5552L42.8047 37.8492ZM49.5207 58.9574L51.139 58.7147L49.9253 57.6634L49.5207 58.9574ZM38.8398 24.0197L38.1925 24.7475L39.0825 25.071L38.8398 24.0197ZM42.0764 37.1213L41.2673 37.6874L41.9955 38.0918L42.0764 37.1213ZM36.8978 16.094L37.4642 15.2852L36.3314 15.2044L36.8978 16.094ZM37.8688 21.5126L37.5451 22.4022L38.4352 22.1596L37.8688 21.5126ZM40.0535 17.5497L39.3253 17.7115L39.8917 18.1158L39.568 19.0055L41.1054 18.8437L40.0535 17.7923V17.5497ZM41.6718 20.8656L41.1864 19.329L40.1344 20.2994L41.6718 20.8656ZM40.539 16.9836L40.0535 15.447L39.0016 16.4175L40.539 16.9836ZM39.0016 14.0721L38.0306 12.9399L37.4642 14.153L38.9207 14.0721L39.1635 14.9617L39.8917 14.4765L39.0016 14.0721ZM38.4352 17.0645L38.8398 15.8514L37.7879 16.0131L38.4352 17.0645ZM39.6489 23.2918L40.1344 23.3727L39.8917 22.7257L39.4871 23.2109L39.2444 23.13L39.0825 24.1005L39.9726 23.6962L39.6489 23.2918ZM34.0657 15.0426L33.3375 15.1235L33.823 15.7705L34.0657 15.0426ZM36.736 13.4251L35.8459 12.9399L36.0886 13.8295L36.736 13.4251Z" fill="#DB91BD"/>
<path d="M41.0244 21.8361L40.3771 20.7847L39.6488 21.9978L41.0244 21.8361ZM39.4061 13.1825L39.0015 11.4841L37.7878 12.4547L39.4061 13.1825ZM37.1405 10.6754V11.3224L36.2504 11.565L36.8168 12.2929L37.2214 11.3224V11.6459L38.0305 11.2415L37.1405 10.6754ZM35.9267 17.388H36.7359L36.4122 16.741L35.9267 17.388ZM38.1114 18.682L38.1924 17.4689L36.9786 18.1967L38.1114 18.682Z" fill="#DB91BD"/>
<path d="M37.5451 19.8951L39.1635 19.6525L37.9497 18.6011L37.5451 19.8951ZM36.8169 19.1672L36.0077 19.7333L36.8169 20.1377V19.1672ZM33.7421 5.41858L34.3085 4.60983L33.1757 4.52897L33.7421 5.41858ZM36.8169 6.87432L36.0886 7.03606L36.6551 7.44043L36.3314 8.33006L37.8688 8.16831L36.8169 7.11694V6.87432ZM38.5161 10.1902L38.0306 8.65355L36.9787 9.62405L38.5161 10.1902ZM37.2215 6.46994L36.736 4.93334L35.6841 5.90383L37.2215 6.46994ZM35.765 3.39672L34.794 2.26448L34.2276 3.4776L35.6841 3.39672L35.9268 4.28634L36.5741 4.20546L35.765 3.39672ZM35.2795 6.38908L35.6841 5.17596L34.6322 5.33771L35.2795 6.38908ZM33.4993 2.66885L32.6093 2.1836L32.852 3.07323L33.4993 2.66885ZM36.0077 2.42623L35.4413 0.727876L34.3085 1.77923L36.0077 2.42623ZM33.9848 0V0.646997L33.0948 0.889622L33.6612 1.61749L34.0657 0.646997V0.970489L34.8749 0.566118L33.9848 0ZM32.6902 6.71257H33.4993L33.1757 6.06557L32.6902 6.71257ZM34.9558 8.00656L35.0367 6.79345L33.823 7.52131L34.9558 8.00656Z" fill="#DB91BD"/>
<path d="M34.3893 9.21967L36.0077 8.97704L34.7939 7.92568L34.3893 9.21967ZM33.6611 8.49179L32.8519 9.05791L33.6611 9.46228V8.49179ZM41.1863 44.0765L41.51 42.8634L40.3771 43.3486L41.1863 44.0765ZM13.6748 19.4907L12.3802 19.0054L12.7038 20.2994L13.6748 19.4907ZM9.70992 25.9606L10.6809 25.6371L9.79083 24.9093L9.70992 25.9606ZM10.1145 19.5716L9.30534 20.0568L10.1954 20.3803L10.1145 19.5716ZM3.56028 24.5049L3.88396 25.3945L4.36945 24.5858L3.56028 24.5049ZM11.4091 28.953L10.6809 28.6295L10.9237 29.2765L10.1954 29.7617L11.571 30.4896L11.3282 29.0339L11.4091 28.953ZM5.17861 27.9016L4.85495 27.3355L4.36945 27.9825L5.17861 27.9016ZM3.1557 35.6655L2.02288 35.9891L2.91295 36.636L3.1557 35.6655ZM14.9695 13.0208L13.513 13.1016L14.4031 14.153L14.9695 13.0208ZM3.96486 53.6196L2.50837 53.7005L3.39845 54.7519L3.96486 53.6196ZM2.67021 39.3858L1.21372 39.4666L2.10379 40.518L2.67021 39.3858ZM4.28854 48.1202L2.83204 48.2011L3.72211 49.2524L4.28854 48.1202ZM4.69312 34.0481L2.91295 34.4524L4.28854 35.5038L4.69312 34.0481ZM7.52518 34.6951L9.14351 33.9672L8.01067 32.9967L7.52518 34.6951ZM7.36334 37.283L6.95876 39.0623L8.57708 38.3344L7.36334 37.283ZM6.23052 40.9224L6.95876 42.6207L7.84884 41.0841L6.23052 40.9224Z" fill="#DB91BD"/>
<path d="M6.87794 38.3344L5.6642 39.1432L6.63519 39.6284L8.33443 41.4885L9.14359 39.224L7.28252 39.5475L6.87794 38.3344ZM4.36954 46.2601L3.15579 47.0688L4.12678 47.5541L5.82603 49.4142L6.63519 47.1497L4.77412 47.4732L4.36954 46.2601ZM6.55427 45.5322L5.25962 45.694L6.63519 46.9071L6.95885 45.7748L7.03977 45.8557L7.52527 44.3191L6.87794 44.4809L6.06878 43.1869L6.47336 42.3781L4.69321 42.2164L5.58328 43.5912L5.09779 44.4L6.63519 44.5617L5.74511 44.7235L6.55427 45.5322ZM6.63519 35.4229L5.82603 35.9891L5.6642 35.1803L5.01687 35.9891L5.42145 36.1508V36.7169L5.6642 36.5552L6.87794 37.283L6.63519 35.4229ZM3.39854 38.7388L5.01687 39.5475L4.77412 37.8492L3.39854 38.7388ZM11.0047 32.7541L11.4902 31.2175L10.0337 31.3792L11.0047 32.7541ZM12.2184 28.953L12.7039 27.4164L11.2474 27.5781L12.2184 28.953ZM12.5421 25.4754L12.3802 24.0197L11.2474 24.7475L12.4611 25.5563L12.1375 26.4459H13.0276L12.5421 25.4754Z" fill="#DB91BD"/>
<path d="M15.9405 15.3661L14.8077 16.094L16.1023 16.9027L15.9405 15.3661ZM10.4382 27.659L11.4092 26.9311L10.4382 26.4459V27.659ZM4.85497 39.224L4.61222 41.0033L5.90688 40.2754L5.58321 40.9224H6.31146L5.98779 40.1945L6.23054 40.0328L4.85497 39.224ZM6.47329 32.5923L5.25955 33.4011L6.79695 34.2907L6.47329 32.5923ZM7.5252 17.1453L8.25344 17.3071L8.01069 16.4984L7.5252 17.1453ZM10.1954 13.1016L9.5481 13.1825L9.95269 13.6678L10.1954 13.1016ZM8.90077 35.0994L7.84886 35.9891L9.0626 36.5552L8.65802 36.6361L7.44428 36.9595L9.30535 38.4153L10.0336 36.1508L9.38626 36.3934L8.90077 35.0994ZM7.36336 30.3279L7.44428 30.9749L7.36336 30.8131L7.0397 31.7027H7.5252L6.79695 32.188L7.5252 32.5923L7.60611 31.7027H7.84886L7.60611 31.2983L8.25344 30.894L7.36336 30.3279ZM6.39237 25.3137L6.79695 25.6371L6.95878 24.9093L6.39237 25.071L6.23054 24.8284L5.5023 25.4754L6.47329 25.6371L6.39237 25.3137ZM1.78015 32.1071L2.10381 31.2175L1.29465 31.2983L1.78015 32.1071ZM9.30535 16.094L9.95269 16.0131L9.46718 15.3661L9.30535 16.094ZM8.49619 10.918L9.0626 11.2415L9.14352 10.6754L8.49619 10.918ZM13.2702 21.0273L13.9176 21.5126L14.0794 20.7847L13.2702 21.0273ZM8.01069 23.4535L7.36336 23.1301L7.44428 23.9388L8.01069 23.4535ZM11.0046 23.6153L10.5191 22.7257L10.1954 23.6153H11.0046ZM12.1374 18.1159L11.3283 18.3585L11.9756 18.8437L12.1374 18.1159ZM4.04581 21.1891L4.28856 20.8656H3.5603L3.88398 21.5126L3.5603 21.4317L3.80306 22.2404L4.5313 21.5934L4.69314 21.4317L4.04581 21.1891ZM3.72213 21.5126L3.88398 21.3508V21.5934L3.72213 21.5126ZM8.73894 21.6743L8.81985 20.3803L7.5252 20.9464L8.73894 21.6743ZM13.4321 24.9902L13.9985 23.3727L12.4611 23.5344L13.4321 24.9902ZM15.2122 19.1672L15.7786 17.5497L14.2412 17.7115L15.2122 19.1672ZM13.9176 23.1301L14.484 21.5126L12.9466 21.6743L13.9176 23.1301ZM14.6458 21.1082L15.2122 19.4098L13.6748 19.5716L14.6458 21.1082ZM1.61832 26.8503L2.10381 27.4164L2.42748 26.6076L1.61832 26.8503ZM5.58321 19.4098L6.23054 19.5716L6.14962 19.0863L5.58321 19.4098ZM11.6519 20.8656L11.2473 21.4317L10.3573 21.1082L10.4382 21.9978L11.2473 21.4317L11.0855 21.7552L11.9756 21.9169L11.6519 20.8656ZM14.2412 16.741L13.4321 16.8219L13.9176 17.4689L14.2412 16.741ZM5.34046 17.9541L4.85497 17.4689L4.61222 18.2776L5.34046 17.9541ZM3.64123 30.247L3.4794 30.9749L3.23664 30.6514L2.91297 31.4601L3.64123 31.2175L3.4794 31.0557L4.04581 30.894L3.64123 30.247ZM1.37557 33.7246L0.809161 34.0481L1.37557 34.3716V33.7246ZM8.09161 26.4459L8.73894 26.9311L8.81985 26.2033L8.09161 26.4459ZM4.5313 32.1071H5.98779L5.17863 30.6514L4.5313 32.1071ZM7.92978 31.9454L9.46718 32.5923L9.0626 31.0557L7.92978 31.9454ZM9.22443 28.7912L9.95269 27.8208L8.5771 27.7399L9.22443 28.7912ZM2.50839 29.6809L2.91297 29.2765L2.26565 28.953L2.34656 29.5191L1.5374 29.0339L1.69923 30.0852L2.50839 29.6809ZM4.28856 44.4L2.83206 44.4809L3.72213 45.5322L4.28856 44.4ZM0.809161 43.2678L1.13282 42.3781L0.32366 42.459L0.809161 43.2678ZM4.12671 41.9738L3.96488 42.7016L3.72213 42.3781L3.39847 43.1869L4.12671 42.9442L3.96488 42.7825L4.5313 42.6207L4.12671 41.9738ZM0.72824 45.3705L0.16183 45.694L0.72824 46.0175V45.3705ZM2.99389 41.4076L3.39847 41.0033L2.75114 40.6798L2.83206 41.2459L2.0229 40.7606L2.18473 41.812L2.99389 41.4076ZM6.71604 14.153L5.98779 14.8L6.87787 14.9617L6.71604 14.153ZM0.809161 37.93L0 38.2535L0.647331 38.7388L0.809161 37.93ZM10.1954 35.4229L10.6809 33.9672L8.90077 34.2907L10.1954 35.4229ZM4.93588 51.0317L5.42138 49.5759L3.64123 49.8994L4.93588 51.0317ZM4.12671 53.0535L4.61222 51.5978L2.83206 51.9213L4.12671 53.0535Z" fill="#DB91BD"/>
<path d="M4.93583 25.718L3.88393 25.4754L4.12667 26.6885L4.93583 25.718ZM3.07477 52.0022L2.02286 51.7595L2.26561 52.9727L3.07477 52.0022ZM1.45645 49.8185L0.404532 49.5759L0.647284 50.789L1.45645 49.8185ZM9.14349 16.9836L9.87173 16.3366L8.98164 16.1749L9.14349 16.9836ZM8.57706 19.4098L9.22439 18.9246L8.98164 18.8437L9.30531 18.9246L9.22439 18.4393L8.7389 18.7628L8.49615 18.682L8.57706 19.4098ZM4.93583 30.4087H5.82592L5.2595 29.5191L4.93583 30.4087ZM8.09157 29.5191L9.54807 30.247L9.14349 28.7104L8.09157 29.5191ZM1.94194 50.789L3.39843 51.5169L2.99385 49.9803L1.94194 50.789ZM12.461 15.8514L11.4901 16.094L12.0565 16.8218L12.461 15.8514ZM11.8946 8.8153H10.9236L11.3282 9.62404L11.8946 8.8153ZM15.2931 8.16831L16.2641 7.76393L15.374 7.03606L15.2931 8.16831ZM13.0275 13.1825L12.2183 13.6678L13.1084 13.9913L13.0275 13.1825ZM16.9924 11.0798L16.2641 10.8372L16.5069 11.4841L15.7786 12.0503L17.1542 12.7781L16.9114 11.3224L16.9924 11.0798ZM16.5878 14.8L16.9924 13.2634L15.5359 13.4251L16.5878 14.8ZM17.8015 10.918L18.2061 9.38142L16.7496 9.54317L17.8015 10.918ZM18.0443 7.68306L17.8015 6.22732L16.6687 6.95519L17.9633 7.76393L17.6397 8.65354H18.5298L18.0443 7.68306ZM16.0214 9.86666L16.9924 9.05792L16.0214 8.57268V9.86666ZM13.5939 15.6896L13.9985 16.0131L14.1603 15.2852L13.5939 15.447L13.432 15.2044L12.7847 15.9322L13.7557 16.094L13.5939 15.6896ZM13.513 5.6612L12.8656 5.33771L12.9465 6.14645L13.513 5.6612ZM16.5878 5.82294L16.1023 4.93333L15.7786 5.82294H16.5878ZM15.5359 15.2044V13.9104L14.2412 14.4765L15.5359 15.2044ZM18.9343 7.11694L19.5007 5.49945L17.9633 5.6612L18.9343 7.11694ZM18.4488 3.80109L18.0443 4.36722L17.1542 4.04371L17.2351 4.93333L18.0443 4.36722L17.8824 4.69071L18.7725 4.77159L18.4488 3.80109ZM13.6748 8.65354L14.3221 9.13879L14.403 8.41093L13.6748 8.65354ZM15.7786 3.63934L16.4259 4.12459L16.5069 3.39672L15.7786 3.63934ZM7.92974 7.19782L8.57706 7.68306L8.65798 6.95519L7.92974 7.19782ZM14.8076 10.9989L15.5359 10.0284L14.1603 9.94754L14.8076 10.9989Z" fill="#DB91BD"/>
<path d="M13.6749 11.7268L15.2123 12.4547L14.8077 10.918L13.6749 11.7268ZM13.5131 10.6754H12.5421L12.9467 11.4033L13.5131 10.6754ZM19.9054 4.12461L20.31 2.58799L18.8535 2.74975L19.9054 4.12461ZM13.3512 2.18362L13.9986 2.66887L14.0795 1.941L13.3512 2.18362ZM3.23672 33.8055L4.12679 32.9967L2.91305 32.835L3.23672 33.8055Z" fill="#DB91BD"/>
</svg>
