<svg width="387" height="74" viewBox="0 0 387 74" fill="none" xmlns="http://www.w3.org/2000/svg">
<path d="M0.602609 60.0812L1.58863 58.9308L0.405406 58.6241L0.602609 60.0812ZM3.93315 58.4159L3.73595 58.3063L3.8455 58.8541L3.0786 58.7008L3.40727 59.4676L3.8455 58.8432L3.95506 59.139L4.54667 58.7008L3.95506 58.4049L4.50284 57.8134L3.67021 57.7586L3.93315 58.4159ZM1.98303 52.8942L3.51684 53.0476L2.55273 51.6234L1.98303 52.8942ZM3.05669 50.5168L3.82359 50.5935L3.34154 49.8924L3.05669 50.5168ZM4.67814 44.6774L6.10239 44.1844L4.80961 43.4175L4.67814 44.6774ZM8.8194 47.8546L8.96182 48.6215L9.46579 48.008L8.8194 47.8546ZM12.8292 49.6404L13.1031 50.221L13.377 49.6952L12.8292 49.6404ZM16.2802 53.5844L16.5541 54.1651L16.8171 53.6392L16.2802 53.5844Z" fill="#CDE8DD"/>
<path d="M18.8987 56.8821L19.1726 57.4628L19.4465 56.9369L18.8987 56.8821ZM9.32337 51.8096L9.59726 52.3903L9.87115 51.8644L9.32337 51.8096ZM7.29656 50.2977L7.57045 50.8674L7.83339 50.3525L7.29656 50.2977ZM3.02383 53.3434L3.21007 53.3653L3.75786 53.4201L3.76882 53.2338L4.50285 53.2996L3.84551 52.3136L3.42919 52.8176L3.02383 53.3434ZM4.05367 49.6732L4.00984 50.1115L4.63432 49.8705L4.34947 49.6952L4.60145 48.6653L3.50588 49.3227L4.05367 49.6732ZM3.58257 42.1576L5.33549 41.8728L4.0208 40.5033L3.58257 42.1576ZM1.30378 58.0873L0.975112 57.5395L0.723127 58.2735L1.51194 58.1639L2.23501 58.9089L2.59655 57.4847L1.30378 58.0873ZM2.67324 48.6653L4.34947 48.5558L3.22103 47.3506L2.67324 48.6653ZM3.2539 43.4394L4.13036 44.7541L5.00682 43.1436L3.2539 43.4394ZM2.26789 50.7359L2.18024 50.5168L1.68723 51.0208L2.32266 51.2947L2.5856 51.9849L3.42919 51.1851L2.26789 50.7359ZM6.38723 57.1122L5.07255 56.9807L5.37931 58.3392L6.38723 57.1122ZM9.15903 55.6222L8.50169 55.5565L8.64412 56.3453L9.15903 55.6222ZM2.51986 42.6287L2.84854 43.7681L3.61544 42.7383L2.51986 42.6287ZM5.31358 53.2996L4.6891 53.0148L4.62336 53.6721L5.31358 53.2996Z" fill="#CDE8DD"/>
<path d="M4.32756 43.2422L4.08654 42.3438L3.49493 42.8369L4.32756 43.2422ZM3.07861 45.8059L2.90332 46.4632L3.67022 46.4303L3.07861 45.8059ZM9.54249 50.5497L9.40006 49.7828L9.00565 50.3963L9.54249 50.5497ZM6.31055 51.4262L6.16812 50.6593L5.78468 51.2837L6.31055 51.4262ZM0.427329 53.1791L0.0110065 54.4938L1.3257 54.1651L0.427329 53.1791ZM2.74994 57.3751L3.64831 57.1341L3.04575 56.5206L2.74994 57.3751ZM6.80356 58.4378L7.97582 58.1091L7.20891 57.3203L6.80356 58.4378ZM1.98304 54.1651L0.734088 54.6033L1.24901 54.9868L0.504019 55.7975L1.59959 56.0166L1.35856 55.1182L1.994 55.4031L1.98304 54.1651ZM4.91917 55.677L4.37139 57.0574L5.81754 56.7944L4.91917 55.677ZM10.3532 55.6989L10.397 55.2607L9.93689 55.436L10.3532 55.6989ZM8.2278 54.3185L8.26066 53.8803L7.82244 54.0555L8.2278 54.3185ZM15.2833 47.8546L14.9984 47.3835L14.8341 47.9313L15.2833 47.8546ZM18.3728 45.9374L18.0879 45.4662L17.9346 46.014L18.3728 45.9374ZM16.6637 60.3113L16.3789 59.8511L16.2145 60.377L16.6637 60.3113ZM6.91311 48.0408L6.62826 47.5698L6.46392 48.1175L6.91311 48.0408ZM7.00076 50.7798L6.71591 50.3087L6.55157 50.8565L7.00076 50.7798ZM2.24597 50.1005L0.745038 50.725L0.942241 50.966L0.898426 51.4043L1.24901 51.218L1.86253 51.711L2.24597 50.1005ZM4.19609 45.4115L3.3525 44.9951L3.37441 45.8716L4.19609 45.4115ZM8.35927 44.8856L8.44692 44.0091L7.86626 44.283L8.35927 44.8856ZM5.51078 45.9812L5.59842 45.1047L5.01777 45.3786L5.51078 45.9812ZM5.02873 55.2388L4.15227 55.2607L4.74388 55.9728L5.02873 55.2388ZM8.29354 45.9264L7.54855 45.6415L7.69097 46.4084L8.29354 45.9264ZM5.81754 47.7122L5.08351 47.4273L5.22593 48.1942L5.81754 47.7122ZM2.91427 49.0816L2.83758 49.9581L3.63736 49.5966L2.91427 49.0816ZM3.71405 47.9861L4.7877 48.249L4.26183 47.2411L3.71405 47.9861ZM5.57651 46.4522L6.34341 46.6275L5.97092 45.9374L5.57651 46.4522ZM6.1243 45.28L6.8912 45.4662L6.51871 44.7651L6.1243 45.28ZM6.6173 44.1077L7.38421 44.294L7.01171 43.5928L6.6173 44.1077ZM7.24178 64.8907L7.20891 64.1238L6.71591 64.6278L7.24178 64.8907ZM8.09633 57.3313H8.53456L8.31544 56.7835L8.09633 57.3313ZM7.35134 58.4707L7.72383 59.1719L8.01964 58.4269L7.35134 58.4707ZM6.39819 53.3544L6.77068 54.0555L7.06649 53.3105L6.39819 53.3544ZM7.11032 60.2893L7.48281 60.9905L7.77862 60.2455L7.11032 60.2893ZM5.83945 55.9509L6.34341 56.915L6.74878 55.8961L5.83945 55.9509ZM5.11638 51.9301L5.66416 52.9819L6.10239 51.8644L5.11638 51.9301ZM12.5882 51.5247L13.136 52.5656L13.5742 51.47L12.5882 51.5247ZM11.9637 58.7117L12.5115 59.7635L12.9497 58.646L11.9637 58.7117ZM13.1688 55.8194L13.7166 56.8602L14.1548 55.7646L13.1688 55.8194ZM9.33433 57.5942L10.408 57.2656L9.4658 56.6411L9.33433 57.5942ZM5.64225 59.8949L6.25577 61.0453L6.73782 59.8182L5.64225 59.8949ZM5.31358 62.7653L6.48584 62.1299L5.23689 61.6479L5.31358 62.7653ZM0.964157 61.9327L2.65134 60.2893L0.525927 60.1031L0.964157 61.9327ZM8.3264 49.3117L8.51265 48.4353L7.70193 48.9063L8.3264 49.3117ZM10.8243 48.5667L11.0215 47.6902L10.1998 48.1614L10.8243 48.5667ZM6.06952 50.1772L6.26672 49.3007L5.456 49.7719L6.06952 50.1772ZM5.30262 49.5527L5.6313 48.1833L4.31661 48.9282L5.30262 49.5527ZM8.97279 61.8232L9.27954 60.4537L7.98677 61.2206L8.97279 61.8232ZM2.88141 54.5924L3.86742 54.4828L3.18817 53.5406L2.88141 54.5924Z" fill="#CDE8DD"/>
<path d="M3.88926 54.0227L4.26176 54.7129L4.87528 54.0008L3.88926 54.0227ZM1.1832 52.8176L1.86246 53.7597L2.5198 52.6203L1.1832 52.8176ZM4.50278 65.7453L4.02074 66.2492L4.76572 66.4355L4.50278 65.7453ZM4.22889 45.4115L4.31654 44.535L3.61537 44.9075L4.22889 45.4115ZM3.62633 42.563L2.77178 41.1388L2.224 42.4096L3.62633 42.563ZM5.02866 43.1436L6.0585 42.9245L5.56549 42.1138L5.02866 43.1436ZM5.0177 45.3019L4.5247 44.7103L4.22889 45.4443L5.0177 45.3019ZM5.26969 51.9411L4.63425 51.6562L4.55756 52.4231L5.26969 51.9411ZM2.16922 45.9921L2.49789 45.9154L2.35546 46.2441L2.79369 46.3975L2.6184 45.9374L3.27575 45.8935L2.37738 44.9294L2.16922 45.9921ZM4.28367 47.3287L4.37132 46.4523L3.6811 46.7152L4.28367 47.3287ZM9.16992 58.8322L8.66596 58.3392L8.70978 58.9966L9.16992 58.8322ZM12.0184 46.7371L11.4706 46.7919L11.7555 47.263L12.0184 46.7371ZM6.97878 47.0439L6.43099 47.0987L6.71584 47.5698L6.97878 47.0439ZM6.59533 48.0299L6.04754 48.0847L6.33239 48.5558L6.59533 48.0299ZM11.0872 57.3422L10.9119 56.8821L10.6489 57.2984L11.0872 57.3422ZM10.2655 54.4609L9.82726 53.3215L9.16992 54.3513L10.2655 54.4609Z" fill="#CDE8DD"/>
<path d="M6.61732 49.498L7.439 48.6215L6.23387 48.49L6.61732 49.498ZM10.3094 46.2113L11.142 45.3348L9.93691 45.2033L10.3094 46.2113ZM10.8572 51.1961L11.6898 50.3197L10.4847 50.1882L10.8572 51.1961ZM1.98306 46.6823L2.11452 47.5588L1.501 47.1753L1.53387 47.9422L2.10357 47.6684L2.18026 48.1066L3.6045 47.1425L1.98306 46.6823ZM1.85158 64.8688H3.05671L2.50893 63.6637L1.85158 64.8688ZM2.48702 61.9108V61.6917L2.04879 62.0204L1.82968 61.363L1.28189 62.0204H2.04879L1.72012 62.349L2.48702 62.5681V62.0204L3.25392 62.1299L2.81569 61.363L2.48702 61.9108ZM3.47303 62.5681L4.13038 61.9108L3.47303 61.6917V62.5681ZM3.07863 60.7057V61.4726L3.73597 60.9248L3.07863 60.7057ZM2.61849 66.7094L2.94716 66.0521H2.28982L2.61849 66.7094ZM2.55275 63.2803L2.99098 64.0472L3.31966 63.2803H2.55275ZM10.7476 60.5194L10.8572 59.9716L10.419 60.3003L10.7476 60.5194ZM19.326 52.2478L19.4355 51.7001L18.9973 52.0287L19.326 52.2478ZM21.8677 51.3166L21.9772 50.7688L21.539 51.0975L21.8677 51.3166ZM11.1311 53.0695H11.5693L11.2406 52.6313L11.1311 53.0695ZM7.87723 52.0835H8.31546L7.98679 51.6453L7.87723 52.0835ZM12.8292 55.2935L13.0483 54.8553L12.6101 54.9649L12.8292 55.2935ZM14.7246 58.6569L14.9437 58.2187L14.5054 58.3283L14.7246 58.6569ZM7.60334 56.6082L7.82246 56.17L7.38423 56.2795L7.60334 56.6082ZM2.41033 55.184L3.0348 54.691L2.28982 54.4171L2.3446 55.2716L1.68725 56.0056L2.91429 56.3562L2.41033 55.184ZM2.88142 51.6782L3.75788 52.445L4.08655 51.2399L4.30566 51.1304L3.75788 50.6921L3.53877 51.3495L2.88142 51.6782ZM5.00684 55.7865L5.77374 55.8632L5.29168 55.1511L5.00684 55.7865ZM5.25881 53.5516L6.02571 53.6283L5.54367 52.9162L5.25881 53.5516ZM6.68306 52.7847L6.6502 53.1133L7.11033 52.9381L6.89121 52.8066L7.07747 52.0616L6.25579 52.5327L6.68306 52.7847ZM10.1889 63.587L10.156 63.9157L10.6162 63.7404L10.3971 63.6089L10.5723 62.842L9.76162 63.3131L10.1889 63.587Z" fill="#CDE8DD"/>
<path d="M4.97392 51.47L4.94105 51.7987L5.40119 51.6234L5.18208 51.4919L5.36833 50.725L4.54665 51.1961L4.97392 51.47ZM4.45901 53.7269L4.37136 53.5077L3.87835 54.0117L4.51378 54.2966L4.77672 54.9758L5.63127 54.187L4.45901 53.7269ZM7.48278 54.932L6.84735 54.6581L6.78162 55.425L7.48278 54.932ZM5.10539 54.691L5.98185 55.4579L6.31052 54.2528L6.52964 54.1432L5.98185 53.705L5.76273 54.3623L5.10539 54.691ZM4.33849 49.7828L4.11937 50.9332L5.3245 50.6045L5.52171 50.7359L5.63127 50.0348L4.97392 50.1882L4.33849 49.7828ZM4.03173 46.3427L4.90819 47.1096L5.23686 45.9045L5.45597 45.7949L4.90819 45.3567L4.68908 46.014L4.03173 46.3427ZM3.30865 56.3124L3.74688 55.1073L2.43219 55.5455L3.30865 56.3124Z" fill="#CDE8DD"/>
<path d="M3.91125 57.4299L4.64528 55.7208L3.17721 55.9618L3.91125 57.4299ZM2.24597 53.2886L2.35553 53.8364L2.24597 54.1651L2.46508 54.0555L2.57465 54.1651L2.6842 53.946L3.01287 53.6173L2.24597 53.2886ZM1.87348 64.2005L1.98304 64.2444L2.42127 63.6966L2.81567 63.2584L1.17231 62.6558L1.7201 64.3758L1.87348 64.2005Z" fill="#CDE8DD"/>
<path d="M2.05963 62.5243L1.40229 62.3052L1.6214 63.0721L2.05963 62.5243ZM3.20997 59.6758L2.77175 60.3332H3.53865L3.20997 59.6758ZM2.83748 65.8439H3.93306L3.38527 64.7702L2.83748 65.8439ZM7.48271 65.6796L7.59226 66.2273L8.03049 65.8987L7.48271 65.6796ZM2.02676 48.4243L1.1503 49.6294L2.79366 49.9581L2.02676 48.4243ZM7.2855 62.7215L8.05241 62.6119L7.50462 62.0642L7.2855 62.7215ZM5.66406 63.6418L6.43096 63.5322L5.88317 62.9845L5.66406 63.6418ZM4.08644 60.5523L3.42909 60.881L4.19599 61.2096L4.08644 60.5523Z" fill="#CDE8DD"/>
<path d="M3.54969 62.9297L4.86438 63.3679L4.75482 62.2723L3.54969 62.9297ZM2.89235 67.3777L3.7688 67.6735L3.69211 66.9504L2.89235 67.3777ZM3.62638 63.587L3.73594 64.8798L4.6124 64.3758L3.62638 63.587ZM5.00681 60.3551L3.69211 61.2315L5.22592 61.6698L5.00681 60.3551ZM3.22102 59.0185L1.90634 58.4707L2.01589 59.5662L1.4681 59.128L1.24899 60.3332L2.01589 60.114L2.34457 60.7714L2.67323 60.0045H2.45412L2.12545 59.6758L3.22102 59.0185ZM3.38536 57.5942L2.83757 58.2516H3.71403L3.38536 57.5942ZM2.53081 65.1975L2.09258 65.5262L2.64037 65.7453L2.53081 65.1975ZM4.89724 65.2523L5.33547 65.0332L4.89724 64.814V65.2523Z" fill="#CDE8DD"/>
<path d="M8.86318 53.6611L9.30141 53.2229H8.64407L8.86318 53.6611ZM15.7653 51.3166L16.2035 50.8784H15.5462L15.7653 51.3166ZM2.58555 61.5054V60.7385L1.92821 60.9577L2.58555 61.5054ZM2.49791 62.9078H3.26481L2.82658 62.2504L2.49791 62.9078ZM5.37926 60.7385V59.0952L3.47297 59.9168L5.37926 60.7385ZM0.262943 58.5474L0 54.9539L2.93613 56.9479L0.262943 58.5474ZM0.0109581 53.5077L0.153388 50.8784L1.79675 52.3793L0.0109581 53.5077ZM0.416323 49.1912L0.832637 47.0658L3.22098 48.9283L0.416323 49.1912ZM1.32565 45.0499L2.25688 42.5301L3.85642 44.5241L1.32565 45.0499ZM2.74989 41.2812L3.56061 39.4954L4.89721 41.4017L2.74989 41.2812Z" fill="#CDE8DD"/>
<path d="M0.208145 50.8784L0.427265 49.1802L1.38041 50.1991L0.208145 50.8784ZM0.887403 46.7371L1.36945 44.9404L2.5198 46.6056L0.887403 46.7371ZM23.741 22.032L25.0229 22.8208L25.1543 21.6156L23.741 22.032ZM25.8664 25.0996L25.9431 24.8805L25.4173 25.0448L25.4611 24.256L24.7271 24.6942L25.4173 25.0448L25.1434 25.1872L25.6583 25.7131L25.8774 25.0886L26.5347 25.5487L26.469 24.7161L25.8664 25.0996ZM31.3224 22.1853L31.4758 23.7191L32.6809 22.4921L31.3224 22.1853ZM33.8641 22.755L33.9518 23.5219L34.5434 22.9084L33.8641 22.755ZM40.1965 23.4343L40.6348 24.2012L40.9087 23.3686L40.1965 23.4343ZM37.6219 27.8604L36.8769 28.1562L37.5781 28.5287L37.6219 27.8604Z" fill="#CDE8DD"/>
<path d="M36.6688 32.1441L36.1539 32.5275L36.7236 32.6919L36.6688 32.1441ZM33.4917 36.3073L32.9768 36.6907L33.5464 36.8551L33.4917 36.3073ZM24.9791 35.2117L24.4642 35.5952L25.0339 35.7595L24.9791 35.2117ZM30.8075 39.5283L30.2926 39.9117L30.8623 40.0761L30.8075 39.5283ZM25.987 41.0182L25.4721 41.4017L26.0418 41.566L25.987 41.0182ZM33.8532 29.1422L33.3492 29.5257L33.897 29.69L33.8532 29.1422ZM34.9488 26.8415L34.4339 27.225L35.0036 27.3784L34.9488 26.8415ZM31.1143 23.248L31.1362 23.4343L31.191 23.9821L31.3663 23.9602L31.443 24.6942L32.2865 23.8725L31.6949 23.5658L31.1143 23.248ZM34.9159 23.5329L34.4777 23.5767L34.8392 24.1464L34.9488 23.8178L36.0115 23.8616L35.1569 22.8975L34.9159 23.5329ZM42.3329 21.78L42.6616 22.6017L43.1875 21.8348L42.3329 21.78ZM25.8336 22.4154L26.3157 22.01L25.5488 21.8567L25.746 22.6236L25.1215 23.4452L26.5786 23.5986L25.8336 22.4154ZM35.6499 21.9772L36.0882 23.5986L37.0523 22.2511L35.6499 21.9772ZM40.7663 21.8676L40.1089 22.525L41.1169 22.8317L40.7663 21.8676ZM33.5355 21.9772L33.7546 21.8457L33.163 21.4623L33.0096 22.1415L32.3851 22.5359L33.3383 23.2152L33.5355 21.9772ZM27.5427 27.3236L27.4879 26.0089L26.1952 26.5019L27.5427 27.3236ZM29.4052 29.8434L29.3723 29.1861L28.6054 29.438L29.4052 29.8434ZM41.5222 20.6187L40.4705 21.1665L41.6318 21.7143L41.5222 20.6187ZM31.6292 25.483L31.7826 24.8038L31.1252 24.8695L31.6292 25.483Z" fill="#CDE8DD"/>
<path d="M41.2374 22.5359L42.081 22.1196L41.4784 21.6266L41.2374 22.5359ZM38.4656 21.8128L37.8083 21.78L37.9945 22.525L38.4656 21.8128ZM35.1241 29.0765L35.8691 28.7807L35.1789 28.5287L35.1241 29.0765ZM33.5903 26.1184L34.3353 25.8226L33.6451 25.5706L33.5903 26.1184ZM30.3255 20.7063L28.967 20.4872L29.4819 21.7361L30.3255 20.7063ZM26.7101 23.752L27.0717 24.6066L27.5866 23.9273L26.7101 23.752ZM26.2171 27.9371L26.6992 29.0655L27.3565 28.1891L26.2171 27.9371ZM29.7777 22.5688L29.1752 21.3965L28.8793 21.9443L27.97 21.3308L27.9152 22.4264L28.7698 22.0648L28.5835 22.7222L29.7777 22.5688ZM28.7041 25.6912L27.2579 25.3625L27.729 26.7648L28.7041 25.6912ZM30.2379 30.928L30.6761 30.8842L30.4132 30.4679L30.2379 30.928ZM31.1472 28.5616L31.5854 28.5177L31.3225 28.1124L31.1472 28.5616ZM38.8929 34.1928L39.2982 33.8203L38.7505 33.7765L38.8929 34.1928ZM41.3689 36.8441L41.7742 36.4716L41.2265 36.4278L41.3689 36.8441ZM25.7679 37.9616L26.1842 37.611L25.6365 37.5233L25.7679 37.9616ZM37.0304 26.0198L37.4358 25.6473L36.888 25.5926L37.0304 26.0198ZM34.3682 26.6772L34.7735 26.3047L34.2257 26.2499L34.3682 26.6772ZM34.0724 21.8567L33.163 20.5201L32.9658 20.7611L32.5276 20.8049L32.7796 21.1007L32.418 21.8019L34.0724 21.8567ZM39.0682 22.8427L39.3092 21.9334L38.4327 22.1306L39.0682 22.8427ZM40.4267 26.8306L41.3031 26.7429L40.9197 26.228L40.4267 26.8306ZM38.7833 24.2669L39.6598 24.1793L39.2763 23.6644L38.7833 24.2669ZM29.1423 25.7679L28.9889 24.8914L28.3644 25.5816L29.1423 25.7679ZM39.4078 26.973L39.5393 26.1842L38.8052 26.48L39.4078 26.973ZM37.14 24.9133L37.2714 24.1464L36.5374 24.4422L37.14 24.9133ZM35.2446 22.3278L34.3682 22.4373L34.8831 23.1494L35.2446 22.3278ZM36.4826 22.8974L36.4388 24.015L37.3153 23.2919L36.4826 22.8974ZM38.3451 24.4313L38.3122 25.1982L38.9258 24.6942L38.3451 24.4313ZM39.5721 24.7271L39.5502 25.494L40.1528 24.99L39.5721 24.7271ZM40.832 24.9681L40.8101 25.735L41.4127 25.231L40.832 24.9681ZM19.9066 29.2956L20.6735 29.1532L20.1038 28.7369L19.9066 29.2956ZM27.4989 29.0765L27.5647 29.5147L28.0796 29.2189L27.4989 29.0765ZM26.2609 28.4958L25.6255 28.9669L26.3924 29.1532L26.2609 28.4958ZM31.7388 26.6005L31.1253 27.1045L31.9141 27.2359L31.7388 26.6005ZM24.4423 28.5287L23.8069 28.9998L24.5737 29.1861L24.4423 28.5287ZM28.5507 26.6443L27.6742 27.2797L28.7369 27.5317L28.5507 26.6443ZM32.8782 25.0557L31.9689 25.8226L33.1411 26.0418L32.8782 25.0557ZM34.7407 32.2865L33.8313 33.0534L35.0146 33.2725L34.7407 32.2865ZM26.6882 33.0973L25.7351 33.7984L26.9073 34.0723L26.6882 33.0973ZM28.9889 33.8422L29.2518 34.8282L29.8435 33.9518L28.9889 33.8422ZM27.4551 30.3364L27.9262 31.3553L28.3973 30.3364H27.4551ZM24.6504 26.9949L23.5987 27.7618L24.8805 28.0576L24.6504 26.9949ZM24.0807 32.9439L23.029 33.7108L24.3218 34.0175L24.0807 32.9439ZM20.3777 26.4471L19.326 27.214L20.6078 27.5208L20.3777 26.4471ZM21.7581 27.1045L22.5469 28.1781L22.8537 26.8634L21.7581 27.1045ZM18.6905 27.7399L19.4903 28.8026L19.7971 27.4879L18.6905 27.7399ZM21.9772 22.6784L23.8726 24.1026L23.7411 21.9662L21.9772 22.6784ZM36.1101 27.6851L36.9866 27.707L36.3621 26.9949L36.1101 27.6851ZM37.3372 29.9858L38.2136 29.9968L37.5892 29.2956L37.3372 29.9858ZM34.8174 25.6473L35.6938 25.6693L35.0693 24.9571L34.8174 25.6473ZM35.2994 24.7928H36.7017L35.7157 23.6753L35.2994 24.7928ZM23.2481 30.5994L24.6504 30.7089L23.7192 29.5257L23.2481 30.5994ZM29.5257 23.5329L29.7887 24.5189L30.6323 23.7082L29.5257 23.5329ZM30.6213 24.245L30.0187 24.749L30.8404 25.2091L30.6213 24.245ZM31.2787 21.3418L30.4898 22.1963L31.7388 22.6126L31.2787 21.3418ZM18.7344 26.7101L18.1647 26.2937L18.088 27.0606L18.7344 26.7101ZM39.1449 22.8755L40.0213 22.766L39.5174 22.1634L39.1449 22.8755ZM41.9933 21.4185L42.826 20.6515L41.8838 20.4324L41.9933 21.4185Z" fill="#CDE8DD"/>
<path d="M43.9215 21.7142L44.3269 22.6784L45.0281 22.021L43.9215 21.7142ZM45.4772 23.1385L45.6525 23.5767L45.9812 23.2809L45.4772 23.1385ZM41.9714 24.015L42.1577 24.4532L42.4863 24.1683L41.9714 24.015ZM39.3749 23.6096L39.8679 23.007L39.0791 22.8646L39.3749 23.6096ZM32.911 25.1982L33.0535 24.5189L32.2865 24.5956L32.911 25.1982ZM38.1259 20.9802L38.2684 21.3089L37.9397 21.2322L37.874 21.6704L38.2903 21.4075L38.4656 22.0648L39.2325 20.9912L38.1259 20.9802ZM37.2495 23.3138L38.1259 23.2261L37.7315 22.6126L37.2495 23.3138ZM26.1842 30.3255L26.6005 29.7777L25.9432 29.9091L26.1842 30.3255ZM39.3311 30.7637L39.1667 30.2378L38.7614 30.5994L39.3311 30.7637ZM38.0383 25.8774L37.874 25.3296L37.4796 25.7021L38.0383 25.8774ZM36.9756 25.7021L36.8113 25.1763L36.4059 25.5487L36.9756 25.7021ZM27.9371 32.0017L28.3754 31.7607L27.9371 31.5634V32.0017Z" fill="#CDE8DD"/>
<path d="M31.432 30.5774L32.4508 29.9201L31.3224 29.4818L31.432 30.5774ZM35.5623 26.0089L36.6031 26.6443L36.4935 25.4392L35.5623 26.0089ZM39.5392 28.9669L40.569 29.6024L40.4595 28.3972L39.5392 28.9669ZM34.7625 30.5227L35.7923 31.1581L35.6828 29.9529L34.7625 30.5227ZM37.4138 20.9145L36.5702 21.2212L36.8222 20.542L36.0772 20.7282L36.4606 21.2322L36.0224 21.3965L37.2494 22.6017L37.4138 20.9145ZM19.1835 23.9273L19.3478 25.1324L20.4653 24.4203L19.1835 23.9273ZM22.1963 24.1464L22.4154 24.1135L22.0319 23.7301L22.6455 23.4233L21.9224 22.9851L22.0319 23.752L21.6594 23.4781L21.5499 24.2669L22.0977 24.1902L22.1086 24.9571L22.7988 24.4093L22.1963 24.1464ZM21.7033 25.2201L22.4483 25.7679L22.5578 25.0886L21.7033 25.2201ZM23.4562 24.5627L22.6893 24.6723L23.3247 25.242L23.4562 24.5627ZM17.4634 24.9681L18.1646 25.1872L18.055 24.5299L17.4634 24.9681ZM20.8268 24.4203L20.1256 24.9681L20.9364 25.1872L20.8268 24.4203ZM24.738 32.155L25.2858 32.1879L24.9023 31.7935L24.738 32.155ZM35.3979 39.0352H35.9457L35.5294 38.6737L35.3979 39.0352ZM36.8222 41.3359H37.3699L36.9646 40.9635L36.8222 41.3359ZM28.7478 45.8278H29.2956L28.8902 45.4662L28.7478 45.8278ZM32.9877 31.18L33.0753 31.6182L33.4368 31.2129L32.9877 31.18ZM33.2835 27.7837L33.3711 28.2219L33.7327 27.8056L33.2835 27.7837ZM31.1252 33.2944L31.5963 33.4259L31.41 33.0206L31.1252 33.2944ZM27.1483 35.8142L27.6084 35.9676L27.4441 35.5513L27.1483 35.8142ZM28.1672 28.4739L28.6273 28.6273L28.452 28.211L28.1672 28.4739ZM28.8464 23.1385L29.4271 23.6863L29.5914 22.9194L28.7588 23.0947L27.9371 22.5469L27.7508 23.8178L28.8464 23.1385ZM32.7028 22.8098L32.1222 23.8178L33.3711 23.9054L33.5245 24.1026L33.8532 23.4781L33.163 23.3905L32.7028 22.8098ZM28.6054 25.8007L28.6382 26.5676L29.2737 25.9979L28.6054 25.8007ZM31.3443 25.5268L31.421 26.2937L32.0236 25.6802L31.3443 25.5268ZM32.3632 26.7867L32.0345 26.8196L32.2975 27.2359L32.3851 27.0168L33.152 27.0497L32.5275 26.3376L32.3632 26.7867ZM22.0648 31.4977L21.7361 31.5196L21.9553 31.9578L22.0648 31.7387L22.8317 31.8154L22.2511 31.0704L22.0648 31.4977ZM33.3054 24.8147L32.9767 24.8476L33.2396 25.2639L33.3273 25.0448L34.0942 25.0667L33.4697 24.3655L33.3054 24.8147ZM30.5445 24.9462L30.7637 24.8366L30.194 24.4203L30.0077 25.0777L29.3504 25.4282L30.2597 26.1623L30.5445 24.9462ZM29.7776 28.1233L29.9748 27.466L29.2079 27.4989L29.7776 28.1233ZM29.69 25.7131L29.0546 26.6991L30.2926 26.8525L30.435 27.0716L30.7856 26.469L30.1063 26.3376L29.69 25.7131ZM34.8392 23.8506L33.6779 23.8616L34.2257 24.9791L34.138 25.1982L34.8282 25.1544L34.5543 24.5189L34.8392 23.8506ZM38.1259 22.8646L37.5562 23.8835L38.8052 23.9602L38.9476 24.1574L39.2763 23.5329L38.586 23.4452L38.1259 22.8646Z" fill="#CDE8DD"/>
<path d="M27.8604 24.1793L29.1203 24.4422L28.4958 23.2042L27.8604 24.1793Z" fill="#CDE8DD"/>
<path d="M26.8306 24.9133L28.6163 25.3954L28.1781 23.9711L26.8306 24.9133ZM30.9937 22.5031L30.4788 22.7222L30.1501 22.6783L30.3035 22.8755L30.2159 22.9851L30.435 23.0508L30.4569 23.1604L30.435 23.0508L30.8294 23.3138L30.9937 22.5031ZM19.8518 23.8725L19.8299 23.9821L20.4215 24.3327L20.9145 24.6613L21.276 22.9522L19.6546 23.7191L19.8518 23.8725Z" fill="#CDE8DD"/>
<path d="M21.517 23.8178L21.6266 23.1385L20.9035 23.4672L21.517 23.8178ZM24.5189 24.5518L23.8068 24.2231L23.9163 24.99L24.5189 24.5518ZM18.3508 25.0667L18.5042 26.1294L19.4902 25.4392L18.3508 25.0667ZM19.1835 29.6243L18.6576 29.8105L19.052 30.194L19.1835 29.6243ZM35.7266 21.2979L34.3681 20.6734V22.3497L35.7266 21.2979ZM22.0758 29.0108L22.2949 29.7557L22.766 29.1422L22.0758 29.0108ZM21.6376 30.4788L21.3308 29.8982L20.7611 30.446L21.6376 30.4788ZM18.2961 32.1222L19.2054 32.922L19.4245 31.8264L18.2961 32.1222ZM22.1853 41.3578L22.4045 40.8649L21.8786 41.0182L22.1853 41.3578ZM13.1797 36.0662L13.8042 35.6061L13.114 35.4965L13.1797 36.0662ZM19.9175 32.5933L20.1585 32.9658L20.4872 32.4728L19.9175 32.5933ZM18.559 32.5933L18.1865 33.2945L18.9753 33.1192L18.559 32.5933ZM16.9376 33.4149L16.5651 34.1161L17.332 33.9408L16.9376 33.4149ZM19.3916 37.7096L18.8438 38.7504L20.0161 38.4984L19.3916 37.7096ZM22.4592 36.1758L23.27 37.0304L23.4014 35.8471L22.4592 36.1758ZM20.3996 33.7655L21.276 34.4886V33.3602L20.3996 33.7655ZM16.6965 35.8252L18.0112 35.3213L16.6637 34.6639L16.6965 35.8252ZM19.2821 34.2914L19.4135 33.6012L18.8877 34.0066L19.2821 34.2914ZM21.5828 35.0583L21.8567 34.6529L21.3746 34.6639L21.5828 35.0583ZM18.7343 36.5702L19.2492 36.3511L18.7343 36.1758V36.5702ZM22.4921 38.849L22.9851 38.7832L22.6564 38.4765L22.4921 38.849ZM20.2681 31.7826L20.7501 31.7168L20.4215 31.4101L20.2681 31.7826ZM15.8858 37.8082L15.59 37.9616L15.9954 38.2464V37.9945L16.7294 37.7315L15.8858 37.3152V37.8082ZM14.9874 34.9049L15.5133 35.4746L15.6557 34.7077L14.9874 34.9049ZM20.9254 27.5646L21.1445 28.3096L21.6047 27.6961L20.9254 27.5646ZM23.7739 25.5597L23.3357 24.9571L23.1166 25.7679L23.7739 25.5597ZM21.3308 25.3735L21.0788 26.7319L22.1525 26.469L21.3308 25.3735ZM16.817 25.3735L16.6527 26.2499L17.3539 26.0746L16.817 25.3735Z" fill="#CDE8DD"/>
<path d="M20.6734 25.5159L19.4135 25.8117L20.0489 26.6224L20.6734 25.5159ZM24.0916 26.4252L23.0398 25.2529L22.8207 26.8306L24.0916 26.4252ZM25.1543 24.4751L25.5158 23.0947L24.4422 23.3576L24.8037 22.755L23.5767 22.7112L23.9053 23.4343L23.3028 23.8506L24.1025 24.0697L24.0697 23.8506L24.3545 23.4781L25.1543 24.4751ZM26.5785 24.4313L25.8555 23.993L25.965 24.8695L26.5785 24.4313ZM18.9424 24.6504L18.548 24.2669L18.4056 24.8366L18.9424 24.6504ZM19.2163 27.0168L19.5011 27.4222L19.6545 26.9511L19.2163 27.0168ZM31.9468 29.0546L32.4618 29.3832L32.3303 28.7259L31.9468 29.0546ZM35.628 35.3541L36.1538 35.6828L36.0224 35.0254L35.628 35.3541Z" fill="#CDE8DD"/>
<path d="M22.6017 24.1903L23.3686 24.0807L23.0399 23.4562L22.6017 24.1903ZM21.1994 24.2998L21.3089 25.0667L21.9005 24.5408L21.1994 24.2998ZM23.7521 26.8525L25.3954 26.6334L24.2998 24.8476L23.7521 26.8525ZM25.2092 21.4623L28.7369 20.6954L27.1702 23.8725L25.2092 21.4623ZM30.3255 20.3448L32.933 19.9613L31.7826 21.8676L30.3255 20.3448ZM34.6311 19.8627H36.8003L35.4309 22.5798L34.6311 19.8627ZM39.3421 19.9723L40.602 20.1257L39.8679 21.0788L39.3421 19.9723ZM43.1218 20.7611L43.9982 20.9473L43.2752 21.7143L43.1218 20.7611Z" fill="#CDE8DD"/>
<path d="M32.933 20.0161L34.6311 19.8846L33.8204 21.024L32.933 20.0161ZM37.1509 19.8518L39.0134 19.9613L37.6111 21.4294L37.1509 19.8518ZM6.3982 40.3609L7.08841 40.6896L6.8693 39.8569L6.3982 40.3609ZM9.87116 35.3979L11.3721 35.4089L10.3861 34.2695L9.87116 35.3979ZM12.7196 39.7802L12.6101 40.569L13.2894 40.1527L12.7196 39.7802ZM15.8968 42.815L15.9626 43.4504L16.4008 43.045L15.8968 42.815ZM11.8761 43.6914L11.9418 44.3269L12.38 43.9324L11.8761 43.6914ZM10.4518 41.5879L10.5176 42.2234L10.9558 41.818L10.4518 41.5879Z" fill="#CDE8DD"/>
<path d="M7.60326 39.9007L7.41701 40.3061L8.07435 40.2951L7.85524 40.0322L8.42493 39.1558L7.16503 39.3968L7.60326 39.9007ZM9.65198 32.67L11.4049 32.9767L10.638 31.2567L9.65198 32.67ZM6.63916 38.5093L8.2606 38.9476L7.60326 37.4138L6.63916 38.5093ZM8.93986 33.7436L9.33426 35.2774L10.7037 34.0504L8.93986 33.7436ZM5.56549 40.2951V40.0541L4.93006 40.3609L5.43403 40.8429L5.45594 41.577L6.51864 41.1059L5.56549 40.2951ZM8.50162 32.7357L8.43589 33.908L9.4986 33.1958L8.50162 32.7357Z" fill="#CDE8DD"/>
<path d="M10.0135 33.9299L10.0902 32.9986L9.35619 33.2616L10.0135 33.9299ZM7.97577 35.9348L7.60327 36.4826L8.34826 36.7017L7.97577 35.9348ZM12.5005 42.552L12.61 41.7632L12.0403 42.2234L12.5005 42.552ZM9.15898 42.3329L9.26855 41.5441L8.69884 42.0042L9.15898 42.3329ZM18.8 41.9385L18.6905 41.3907L18.3618 41.829L18.8 41.9385ZM21.8676 40.2951L21.7581 39.7474L21.4294 40.2075L21.8676 40.2951ZM10.8462 39.331L10.7366 38.7832L10.4079 39.2215L10.8462 39.331ZM10.0245 41.9604L9.91493 41.4126L9.58626 41.8509L10.0245 41.9604ZM5.75175 39.7255L4.14127 39.8131L4.25082 40.1089L4.06458 40.5033L4.45899 40.4485L4.86434 41.1059L5.75175 39.7255ZM9.14803 35.9567L8.49068 35.2993L8.21679 36.1429L9.14803 35.9567ZM13.2564 36.8551L13.618 36.0662L12.9825 36.132L13.2564 36.8551ZM10.2217 36.9427L10.5942 36.1429L9.95875 36.2087L10.2217 36.9427ZM12.873 37.7972L12.2704 37.2823L12.1389 38.0711L12.873 37.7972ZM9.93685 38.6737L9.33428 38.1478L9.22472 38.9366L9.93685 38.6737ZM6.75969 39.0024L6.38719 39.7912L7.26365 39.7255L6.75969 39.0024ZM7.87717 38.2355L8.81936 38.849L8.64407 37.7206L7.87717 38.2355Z" fill="#CDE8DD"/>
<path d="M10.145 37.4028L10.8023 37.8411L10.6928 37.0523L10.145 37.4028ZM11.0433 36.4826L11.7007 36.9208L11.5911 36.132L11.0433 36.4826ZM11.8979 35.5185L12.5552 35.9567L12.4457 35.1898L11.8979 35.5185ZM7.32935 42.5958L7.50465 43.7681L8.29346 42.8588L7.32935 42.5958ZM11.7883 41.0182L12.2594 40.2513L11.3282 40.4266L11.7883 41.0182ZM14.3958 41.1278L14.8669 40.3609L13.9357 40.5362L14.3958 41.1278ZM9.37808 41.073L9.84917 40.328L8.91794 40.4924L9.37808 41.073ZM8.88506 40.2185L9.63005 39.0352L8.16199 39.3091L8.88506 40.2185ZM9.19183 35.9457L9.56432 35.1569L8.79743 35.2665L9.19183 35.9457ZM9.58623 33.0315L9.25756 31.421L8.30441 32.4289L9.58623 33.0315ZM10.7037 34.0723L11.7445 34.2257L11.5473 33.2835L10.7037 34.0723ZM9.98064 36.0991L9.7177 35.376L9.19183 35.9786L9.98064 36.0991ZM7.06642 35.8033L7.39509 35.8471L7.15407 36.0991L7.5156 36.384L7.49369 35.8909L8.15103 36.0662L7.62516 34.8611L7.06642 35.8033ZM8.62213 37.7753L8.99463 36.9865L8.26059 37.0084L8.62213 37.7753ZM16.1158 39.8131L15.5681 39.6707L15.6776 40.2185L16.1158 39.8131ZM11.2405 38.3888L10.6928 38.2464L10.8023 38.7942L11.2405 38.3888ZM10.5503 39.2105L10.0026 39.0791L10.1121 39.6269L10.5503 39.2105Z" fill="#CDE8DD"/>
<path d="M10.0903 40.58L11.1858 40.0322L10.0903 39.5063V40.58ZM13.5961 39.3968L14.6917 38.8271L13.5961 38.3122V39.3968ZM13.1798 33.1958H12.391L12.8949 33.7984L13.1798 33.1958ZM16.1707 33.3054L17.0143 33.5574L16.85 32.9329L16.1707 33.3054ZM15.1847 33.0863L15.6229 32.407H14.8231L15.1847 33.0863ZM17.2663 31.7716L16.9376 32.4728L17.7045 32.2536L17.2663 31.7716ZM11.8322 32.5056L12.643 32.8562L12.3362 31.9797L11.8322 32.5056ZM12.1061 35.1021L12.9168 35.4527L12.6101 34.5762L12.1061 35.1021ZM13.7166 36.5812L13.7604 36.0334L13.2455 36.2196L13.7166 36.5812ZM13.7166 34.0394L14.4397 35.0254L14.7903 33.8641L13.7166 34.0394ZM14.3411 46.266L15.4148 45.7182L14.3192 45.1923L14.3411 46.266ZM6.67209 36.4059L6.49679 37.2823L6.05857 36.7017L5.83945 37.4467L6.47488 37.3809L6.38724 37.8192L8.03059 37.3809L6.67209 36.4059ZM21.1665 47.4383L21.4623 46.9562L20.9364 47.1206L21.1665 47.4383ZM23.8726 47.3945L24.1574 46.9124L23.6315 47.0767L23.8726 47.3945ZM10.4299 43.4723L10.8353 43.6147L10.6709 43.0889L10.4299 43.4723ZM5.86137 41.4236L6.43106 42.4315L7.14318 41.4017L7.38421 41.3798L7.02267 40.7772L6.58444 41.325L5.86137 41.4236ZM7.88817 41.9166L7.7567 42.2124L8.23876 42.2015L8.08538 42.0042L8.52361 41.3469L7.60332 41.5222L7.88817 41.9166ZM7.86626 40.1308L7.2856 41.1387L8.53456 41.2264L8.67699 41.4236L9.00565 40.7991L8.31544 40.7115L7.86626 40.1308ZM8.74272 36.7674L9.31241 37.7753L10.0245 36.7565L10.2656 36.7236L9.89307 36.132L9.45484 36.6798L8.74272 36.7674ZM6.14621 38.0821L4.91917 38.9257L6.34341 39.7802L6.14621 38.0821Z" fill="#CDE8DD"/>
<path d="M18.1098 45.3567L18.6576 45.0828L18.0441 44.8637L18.1098 45.3567ZM4.25083 38.2026L5.34641 36.3401L6.96785 38.9038L4.25083 38.2026ZM6.5844 34.631L8.30445 32.5495L9.14804 34.9597L6.5844 34.631ZM9.19187 31.5634L10.5504 30.1392L11.1748 32.3851L9.19187 31.5634Z" fill="#CDE8DD"/>
<path d="M3.45103 39.7035L4.21793 38.1697L4.76572 39.4516L3.45103 39.7035ZM5.59835 36.0881L6.6501 34.5543L7.19789 36.5045L5.59835 36.0881ZM16.4226 29.2189L17.8688 29.6352L17.2333 28.2767L16.4226 29.2189ZM16.9704 26.5238L18.5809 27.2907L18.2851 25.4282L16.9704 26.5238Z" fill="#CDE8DD"/>
<path d="M12.5005 31.3334L13.9247 32.2098L13.7056 30.5665L12.5005 31.3334ZM15.9625 27.3674L15.9296 28.956L17.5729 28.1453L15.9625 27.3674ZM15.8091 26.2718L15.4366 27.3893L16.6417 26.9949L15.8091 26.2718Z" fill="#CDE8DD"/>
<path d="M16.9485 27.8495L17.2772 26.973L16.5103 27.0278L16.9485 27.8495ZM14.4725 29.2299L13.9576 29.6681L14.615 30.0844L14.4725 29.2299ZM15.59 29.5585L15.1518 28.7369L14.6588 29.4818L15.59 29.5585ZM19.315 31.5306L19.8847 30.8732L19.2602 30.7637L19.315 31.5306ZM16.3569 30.7965L16.9266 30.1392L16.3021 30.0296L16.3569 30.7965ZM18.6576 32.3303L18.2194 31.673L17.8907 32.3961L18.6576 32.3303ZM13.7276 31.3772L14.4616 32.2208L14.604 31.0923L13.7276 31.3772ZM16.1378 31.2129L16.6418 31.7935L16.7513 31.0266L16.1378 31.2129Z" fill="#CDE8DD"/>
<path d="M17.2662 30.5884L17.7812 31.169L17.8688 30.3802L17.2662 30.5884ZM18.3399 29.8872L18.8548 30.4679L18.9644 29.679L18.3399 29.8872ZM15.6229 29.5585L16.1926 28.9012L15.4257 28.7916L15.6229 29.5585ZM16.7732 26.8634L16.8828 25.2201L15.6777 25.9432L16.7732 26.8634ZM17.584 28.1562L18.5481 28.5944L18.6138 27.6413L17.584 28.1562ZM16.335 29.9091L16.2693 29.1422L15.6119 29.5804L16.335 29.9091ZM13.618 28.8574L13.9467 28.9669L13.6509 29.1532L13.9138 29.5147L14.0233 29.0436L14.604 29.3723L14.4177 28.0576L13.618 28.8574ZM14.5821 31.1581L15.1518 30.5007L14.4397 30.3255L14.5821 31.1581Z" fill="#CDE8DD"/>
<path d="M13.0702 29.2956L12.6649 30.1063L12.38 29.4271L11.9637 30.0844L12.5882 30.194L12.391 30.5994H14.1001L13.0702 29.2956ZM14.9327 30.2159L15.2176 31.3553L16.1707 30.5555L16.4117 30.5884L16.2145 29.931L15.6667 30.3364L14.9327 30.2159Z" fill="#CDE8DD"/>
<path d="M10.2545 30.4131L11.8212 28.9122L12.6976 31.8264L10.2545 30.4131ZM13.4536 27.6084L15.6776 26.0746L15.8419 28.6273L13.4536 27.6084Z" fill="#CDE8DD"/>
<path d="M16.7951 25.3516L18.4823 24.3436L18.4932 26.6662L16.7951 25.3516ZM12.1279 28.7259L13.5522 27.5208V29.5476L12.1279 28.7259ZM43.6147 11.9417L45.1047 11.7226L44.4473 10.7038L43.6147 11.9417ZM47.2082 12.9278L47.1315 12.7305L46.8357 13.1907L46.3536 12.5334L46.0797 13.3441L46.8466 13.1797L46.7151 13.4646L47.4492 13.5303L47.2301 12.9168L48.0189 12.8511L47.4382 12.2485L47.2082 12.9278ZM49.8047 7.77857L50.703 9.02754L51.1413 7.36225L49.8047 7.77857ZM52.3026 7.03359L52.7408 7.65807L52.9599 6.82543L52.3026 7.03359ZM57.7037 4.40422L58.9089 5.28067L58.7993 3.77974L57.7037 4.40422ZM58.0981 9.58626L57.6051 10.2107L58.394 10.1888L58.0981 9.58626Z" fill="#CDE8DD"/>
<path d="M58.4925 13.0811L58.2186 13.6618L58.7993 13.5522L58.4925 13.0811ZM57.5284 18.2303L57.2436 18.811L57.8242 18.7014L57.5284 18.2303ZM57.3312 21.9334L57.0902 22.514L57.6599 22.3716L57.3312 21.9334ZM55.4468 12.621L55.1949 13.2017L55.7755 13.0592L55.4468 12.621ZM55.2606 10.0793L55.0086 10.6709L55.5783 10.5285L55.2606 10.0793ZM50.1443 8.87415L50.2538 9.02754L50.5825 9.46576L50.7249 9.3562L51.1632 9.94782L51.4699 8.81938L50.8126 8.84128L50.1443 8.87415ZM53.5844 7.23079L53.2119 7.49371L53.8035 7.80047L53.7597 7.47181L54.6909 6.97879L53.4858 6.5625L53.5844 7.23079ZM59.1389 2.08158L60.3879 3.36342L60.7494 1.50093L59.1389 2.08158ZM45.521 10.9557L45.6743 10.3313L44.9732 10.6599L45.5867 11.153L45.5648 12.1937L46.8356 11.4597L45.521 10.9557ZM53.4419 5.5217L54.6252 6.7049L54.8005 5.06154L53.4419 5.5217ZM57.9119 2.53077L57.3422 4.0098L59.1608 3.81261L57.9119 2.53077ZM51.6123 6.5625L51.7219 6.34338L51.0207 6.31051L51.2399 6.96786L50.9112 7.62521L52.0725 7.73474L51.6123 6.5625ZM49.6622 13.5742L48.8296 12.5553L48.0846 13.7275L49.6622 13.5742ZM52.6641 14.4944L52.2478 13.9905L51.8096 14.6478L52.6641 14.4944ZM57.8571 1.40234L57.2217 2.38838L58.4925 2.27881L57.8571 1.40234ZM51.689 10.5285L51.4918 9.87112L50.944 10.2546L51.689 10.5285Z" fill="#CDE8DD"/>
<path d="M58.6789 3.33055L59.2815 2.61844L58.5365 2.39931L58.6789 3.33055ZM55.8523 3.95504L55.2607 4.23986L55.8085 4.78765L55.8523 3.95504ZM56.5425 11.9198L57.0465 11.2954L56.3125 11.4049L56.5425 11.9198ZM53.7488 10.1012L54.2418 9.46576L53.5188 9.57533L53.7488 10.1012ZM48.4353 6.90213L47.2082 7.52658L48.3586 8.22776L48.4353 6.90213ZM47.0439 11.4816L47.8546 11.9637L47.8656 11.1091L47.0439 11.4816ZM49.0159 14.8341L50.0787 15.4476V14.3301L49.0159 14.8341ZM48.8407 8.69885L47.6574 8.10723L47.7451 8.73172L46.6495 8.77555L47.2521 9.69583L47.7341 8.88511L47.9752 9.54246L48.8407 8.69885ZM49.6514 11.8431L48.26 12.3471L49.4213 13.2564L49.6514 11.8431ZM53.4859 15.4147L53.8146 15.1408L53.3763 14.9436L53.4859 15.4147ZM52.9381 12.9387L53.2668 12.6539L52.8285 12.4567L52.9381 12.9387ZM61.1549 14.9436L61.374 14.4397L60.8262 14.6149L61.1549 14.9436ZM64.836 15.1189L65.0223 14.604L64.5073 14.8231L64.836 15.1189ZM55.3812 22.8975L55.4908 22.3497L55.0087 22.6345L55.3812 22.8975ZM56.6959 8.30446L56.8603 7.77857L56.3453 7.9977L56.6959 8.30446ZM54.691 10.1669L54.8554 9.65199L54.3514 9.87112L54.691 10.1669ZM52.0616 6.14618L50.6155 5.43407L50.5607 5.74083L50.2101 5.99279L50.5717 6.13522L50.6045 6.92403L52.0616 6.14618ZM56.8821 4.52472L56.6302 3.62635L55.9728 4.22893L56.8821 4.52472ZM59.643 7.57041L60.4099 7.13219L59.8621 6.80353L59.643 7.57041ZM57.3423 5.90515L58.0544 5.39023L57.4628 5.13824L57.3423 5.90515ZM50.0787 11.6459L49.4761 10.9886L49.3227 11.8979L50.0787 11.6459ZM58.7665 8.10723L58.5803 7.34035L58.0325 7.91004L58.7665 8.10723ZM56.2467 7.26365L55.9838 6.51867L55.4908 7.14316L56.2467 7.26365ZM53.3215 5.98185L52.6094 6.49677L53.4092 6.86926L53.3215 5.98185ZM54.6691 5.87229L55.184 6.8583L55.5784 5.79559L54.6691 5.87229ZM57.0465 6.27765L57.3971 6.96786L57.6819 6.23381L57.0465 6.27765ZM58.0325 5.98185L58.3174 6.7049L58.6679 6.00375L58.0325 5.98185ZM59.2815 5.69699L59.5663 6.42008L59.9169 5.71889L59.2815 5.69699ZM45.3348 19.9723L45.8278 19.3807L45.1267 19.4245L45.3348 19.9723ZM50.7031 14.9875L51.0099 15.2942L51.229 14.7464L50.7031 14.9875ZM49.3665 15.2614L49.1474 16.0282L49.8814 15.6996L49.3665 15.2614ZM52.3684 11.4268L52.0945 12.1609L52.8395 11.8979L52.3684 11.4268ZM48.3148 16.4665L48.1285 17.2334L48.8407 16.8718L48.3148 16.4665ZM50.0896 12.4129L49.7609 13.4536L50.7689 13.0154L50.0896 12.4129ZM52.5875 9.5315L52.1712 10.6271L53.2887 10.2217L52.5875 9.5315ZM56.8603 14.0562L56.3891 15.1518L57.5395 14.8012L56.8603 14.0562ZM52.456 18.7014L52.1055 19.8299L53.201 19.3588L52.456 18.7014ZM55.3484 17.4963L55.0197 18.6247L56.1153 18.1536L55.3484 17.4963ZM51.3824 16.0173L52.3684 16.5651L52.1493 15.4695L51.3824 16.0173ZM47.4712 15.1847L47.1425 16.4446L48.3257 15.8639L47.4712 15.1847ZM45.3129 17.1128L46.6057 17.4415L46.0031 16.2364L45.3129 17.1128ZM42.6397 13.5632L45.0171 13.4536L43.56 11.8979L42.6397 13.5632ZM56.663 10.2107L57.4299 9.77252L56.5535 9.4767L56.663 10.2107ZM58.0106 11.7007L58.8323 11.372L57.9777 10.9667L58.0106 11.7007ZM54.5486 9.09327L55.3155 8.65502L54.439 8.35923L54.5486 9.09327ZM54.5157 8.10723L55.7428 7.44992L54.3185 6.95689L54.5157 8.10723ZM48.1614 18.7562L49.3665 18.0112L47.9204 17.6168L48.1614 18.7562ZM49.1255 9.60819L49.8924 10.2655L50.1553 9.13707L49.1255 9.60819ZM50.1992 9.93685L49.9253 10.6709H50.8675L50.1992 9.93685ZM49.3227 7.08836L49.0598 8.22776L50.3525 7.96484L49.3227 7.08836ZM42.7164 18.7343L42.0152 18.7781L42.4535 19.4355L42.7164 18.7343ZM56.8931 4.49186L57.5943 3.9879L56.8603 3.70304L56.8931 4.49186Z" fill="#CDE8DD"/>
<path d="M58.8432 2.34453L59.5005 0.843603L58.142 1.10653L58.8432 2.34453ZM59.1718 3.83449L59.9387 4.55757L60.3222 3.68113L59.1718 3.83449ZM57.5285 5.06153L57.638 4.29465L56.8711 4.55757L57.5285 5.06153ZM52.708 9.63008L52.4889 8.97273L51.8644 9.41095L52.708 9.63008ZM55.1182 3.3853L55.4031 3.58253L55.0744 3.69206L55.2387 4.10839L55.4579 3.67016L55.9289 4.14125L56.0714 2.82659L55.1182 3.3853ZM55.5236 5.85034L56.2357 5.34639L55.5784 4.9958L55.5236 5.85034ZM50.4073 16.7842V16.083L49.969 16.587L50.4073 16.7842ZM60.2126 11.635L59.8511 11.1967L59.632 11.7007L60.2126 11.635ZM57.4956 7.69093L57.0903 7.31844L56.9259 7.83332L57.4956 7.69093ZM56.4877 8.07435L56.0823 7.69093L55.918 8.21678L56.4877 8.07435ZM52.8175 17.0909L53.0147 16.6527L52.5436 16.7623L52.8175 17.0909ZM54.2637 14.4835L54.7676 13.3879L53.5844 13.6508L54.2637 14.4835Z" fill="#CDE8DD"/>
<path d="M55.4031 9.02753L56.6083 9.07133L55.9071 8.08532L55.4031 9.02753ZM59.6759 9.90398L60.881 10.0793L60.3004 9.01657L59.6759 9.90398ZM56.9369 13.355L58.1421 13.3879L57.4519 12.4019L56.9369 13.355ZM54.4829 3.69207L53.9022 4.38229L53.7927 3.6592L53.2449 4.20699L53.8365 4.45898L53.5407 4.78764L55.184 5.2259L54.4829 3.69207ZM41.336 16.324L42.2125 17.1238L42.6178 15.8639L41.336 16.324ZM43.7791 14.5711L43.9215 14.4068L43.3738 14.352L43.6476 13.7166L42.8041 13.8261L43.3738 14.341L42.9027 14.363L43.3409 15.0422L43.7024 14.6369L44.2064 15.2284L44.3926 14.3739L43.7791 14.5711ZM44.0749 15.7215L44.9952 15.6776L44.6665 15.0751L44.0749 15.7215ZM45.0062 14.0781L44.4912 14.6478L45.3677 14.6807L45.0062 14.0781ZM40.6458 18.2413L41.336 17.9674L40.843 17.5292L40.6458 18.2413ZM42.9027 15.6338L42.7055 16.5103L43.4724 16.1597L42.9027 15.6338ZM50.3087 19.1177L50.7798 18.811L50.232 18.7343L50.3087 19.1177ZM60.4756 19.7751L60.9796 19.5231L60.4318 19.3807L60.4756 19.7751ZM63.4556 20.4653L63.9376 20.1805L63.3899 20.0709L63.4556 20.4653ZM55.8742 14.111L56.2029 14.4177L56.2796 13.8699L55.8742 14.111ZM54.2857 11.7007L54.5705 12.0294L54.6801 11.5035L54.2857 11.7007ZM55.4908 16.9266L55.9509 16.7732L55.5675 16.5322L55.4908 16.9266ZM55.0307 20.3776L55.4908 20.1914L55.0854 19.9723L55.0307 20.3776ZM50.8675 14.1329L51.3386 13.9795L50.9442 13.7385L50.8675 14.1329ZM48.4024 9.75058L49.1913 9.86015L48.8626 9.13706L48.2929 9.76155L47.3069 9.79441L47.9094 10.9338L48.4024 9.75058ZM51.3167 7.69093V8.85224L52.4341 8.30445L52.6533 8.41402L52.6204 7.71283L51.985 7.97576L51.3167 7.69093ZM49.6295 12.0075L50.0677 12.6319L50.2868 11.8103L49.6295 12.0075ZM51.4919 10.7147L51.9302 11.3392L52.1493 10.5175L51.4919 10.7147ZM52.9819 11.3063L52.719 11.4926L53.1572 11.7117L53.1134 11.4706L53.8036 11.1091L52.9052 10.8024L52.9819 11.3063ZM48.3805 20.9912L48.1395 21.2103L48.5996 21.3856L48.523 21.1446L49.1803 20.7063L48.26 20.4872L48.3805 20.9912Z" fill="#CDE8DD"/>
<path d="M52.8395 9.1042L52.5766 9.30143L53.0148 9.52053L52.971 9.2795L53.6612 8.91798L52.7628 8.61122L52.8395 9.1042ZM50.8018 10.1998L50.9113 9.98068L50.2101 9.93685L50.4292 10.5942L50.1006 11.2516L51.2619 11.3611L50.8018 10.1998ZM51.8973 13.2893L51.6782 12.6319L51.0537 13.0702L51.8973 13.2893ZM50.5279 11.3173V12.4786L51.6453 11.9308L51.8644 12.0404L51.8316 11.3392L51.1962 11.6021L50.5279 11.3173ZM53.705 7.51565L52.6971 8.10723L53.7379 8.79745L53.7817 9.03847L54.3624 8.65502L53.8146 8.23873L53.705 7.51565ZM56.1153 5.01774V6.17905L57.2437 5.63126L57.4628 5.74082L57.43 5.03964L56.7945 5.30257L56.1153 5.01774ZM48.1395 11.0434L49.3446 10.5832L48.1395 9.88209V11.0434Z" fill="#CDE8DD"/>
<path d="M47.6684 12.2376L49.4432 11.6569L48.2928 10.7147L47.6684 12.2376ZM49.6842 8.26062L49.3555 8.69885L49.0269 8.83031L49.246 8.91797L49.235 9.0823L49.476 9.01657L49.5527 9.09327L49.476 9.01657L49.9362 9.04944L49.6842 8.26062ZM41.7961 15.8529L41.8509 15.9625L42.5301 15.8529L43.1217 15.7872L42.3 14.2534L41.5551 15.8968L41.7961 15.8529Z" fill="#CDE8DD"/>
<path d="M43.0669 14.7245L42.7383 14.1219L42.3877 14.845L43.0669 14.7245ZM45.8278 13.3879L45.0609 13.5742L45.6306 14.0891L45.8278 13.3879ZM41.4236 17.7154L42.2233 18.4385L42.552 17.2772L41.4236 17.7154ZM44.9732 20.6954L44.6884 21.1774L45.2362 21.2322L44.9732 20.6954ZM53.19 4.86434L51.7 5.00677L52.5436 6.45293L53.19 4.86434ZM46.7809 18.3837L47.4164 18.822L47.3835 18.055L46.7809 18.3837ZM44.9732 17.9783L45.6306 18.4166L45.5977 17.6497L44.9732 17.9783ZM45.8716 14.6149L45.1704 14.4177L45.521 15.1846L45.8716 14.6149Z" fill="#CDE8DD"/>
<path d="M43.8996 16.0392L44.5788 17.2443L45.2362 16.3678L43.8996 16.0392ZM40.4156 18.8877L40.8539 19.6765L41.2921 19.0958L40.4156 18.8877ZM43.5051 16.587L42.7382 17.6168L43.7243 17.8359L43.5051 16.587ZM46.7042 15.1079L45.1485 14.8669L45.9811 16.2254L46.7042 15.1079ZM46.266 12.9168L45.6525 11.624L44.9951 12.5005L44.8856 11.8103L43.9215 12.5553L44.6336 12.9058L44.4364 13.618L45.2033 13.2674L45.0389 13.125V12.6539L46.266 12.9168ZM47.3287 12.117L46.4741 12.1827L47.0877 12.8072L47.3287 12.117ZM41.5879 17.0252L41.0401 16.9704L41.303 17.5182L41.5879 17.0252ZM43.3079 18.6685L43.779 18.8L43.6037 18.3618L43.3079 18.6685Z" fill="#CDE8DD"/>
<path d="M53.8584 12.9278H54.4719L54.0118 12.4676L53.8584 12.9278ZM59.0076 16.4117L59.6211 16.4774L59.2157 15.9625L59.0076 16.4117ZM44.1297 14.3301L44.6446 13.7604L44.0092 13.4756L44.1297 14.3301ZM43.1218 15.3161L43.6915 15.831L43.801 15.0641L43.1218 15.3161ZM46.7372 15.6448L47.8327 14.4177L45.8607 13.7604L46.7372 15.6448ZM44.5022 10.5175L46.8905 7.8224L47.5041 11.3282L44.5022 10.5175ZM48.0628 6.71586L50.1444 5.0944L50.0896 7.30748L48.0628 6.71586ZM51.5686 4.16319L53.4311 3.06762L53.5845 6.10234L51.5686 4.16319ZM55.2936 2.11448L57.8134 1.12844L57.3752 3.64827L55.2936 2.11448ZM59.3801 0.777879L61.3192 0.416321L60.5195 2.60747L59.3801 0.777879Z" fill="#CDE8DD"/>
<path d="M50.1444 5.13824L51.5686 4.17413L51.4262 5.56553L50.1444 5.13824ZM53.716 2.89233L55.3812 2.08158L54.8882 4.05363L53.716 2.89233ZM76.6682 12.0404L76.0766 11.7884L76.219 12.3581L76.6682 12.0404ZM73.3596 17.9564L72.757 17.7373L72.9323 18.2851L73.3596 17.9564ZM69.9304 11.9308L69.3279 11.7117L69.5032 12.2595L69.9304 11.9308ZM69.3826 14.2753L69.8866 14.4725L69.6894 13.9466L69.3826 14.2753ZM78.6183 8.90701L79.1223 9.48766L79.199 8.79745L78.6183 8.90701ZM61.4617 7.62521L60.3661 7.14316L60.6948 8.28253L61.4617 7.62521ZM64.8798 10.6599L63.6747 10.1121L64.0472 11.383L64.8798 10.6599ZM82.0584 7.11029L81.182 6.71587L81.4559 7.64711L82.0584 7.11029ZM79.4948 6.82543L79.0894 7.74571L80.0754 7.46085L79.4948 6.82543ZM60.5852 12.3252L61.1878 13.5961L61.7575 12.2156L60.5852 12.3252ZM80.2617 6.5625L80.3384 5.86132L79.6372 6.18998L80.2617 6.5625ZM81.16 4.63429L81.3025 5.3464L81.8283 4.94104L81.16 4.63429ZM81.8941 8.57835L82.1461 9.08231L82.2885 8.55642L81.8941 8.57835ZM70.4454 21.8676L70.774 22.3059L70.8288 21.7581L70.4454 21.8676ZM75.8465 14.7464L75.9561 15.2284L76.23 14.8669L75.8465 14.7464ZM81.5106 5.45596L80.667 6.11331L81.7626 6.62824L81.5106 5.45596ZM77.8733 8.37019L77.4351 8.00863L77.2927 8.53452L77.8733 8.37019ZM79.933 10.649L79.3852 11.1968L80.1521 11.3063L79.933 10.649ZM78.443 10.9996L78.7936 10.4518L78.0267 10.2326L78.443 10.9996ZM75.2659 8.83031L75.0249 10.0354L76.0766 9.68486L75.2659 8.83031ZM70.281 16.8718L70.8288 16.7842L70.3906 16.4336L70.281 16.8718ZM69.536 6.46387L70.2591 6.71587L69.9743 6.08045L69.536 6.46387ZM75.6712 10.5175L75.485 10.9119L76.0656 10.9557L75.6712 10.5175ZM74.992 9.34523L74.2032 9.36717L74.751 9.95875L74.992 9.34523ZM73.491 8.32636L72.6913 8.34826L73.2391 8.93988L73.491 8.32636ZM71.278 9.31237L72.3736 10.1888L72.2859 8.68792L71.278 9.31237ZM73.8854 10.7914L74.5428 10.5504L73.9293 10.2984L73.8854 10.7914ZM74.3675 13.1578L74.8605 13.2017L74.6085 12.7853L74.3675 13.1578ZM71.6614 11.4378L72.0997 11.7665L71.9901 11.2187L71.6614 11.4378ZM71.9134 13.4098L72.1983 13.7933L72.3078 13.355L71.9134 13.4098ZM76.5696 10.3751L76.8654 10.7695L76.975 10.3313L76.5696 10.3751ZM69.6675 9.54246L69.3826 9.38906V9.88209L69.5799 9.73966L70.2153 10.1779L70.0729 9.24664L69.6675 9.54246ZM71.278 7.35132L71.026 8.08533L71.76 7.83334L71.278 7.35132ZM80.6561 8.91798L80.1083 9.46576L80.8752 9.57533L80.6561 8.91798ZM80.5465 4.27273L79.692 4.57952L80.185 5.09441L80.5465 4.27273ZM84.3482 6.90213L83.8442 6.35434L83.6251 6.90213H84.3482ZM82.1899 5.74082L82.3323 5.21494L81.7626 5.37927L82.1899 5.74082ZM80.2726 7.16505L80.0535 7.60328L80.5356 7.49371L80.2726 7.16505ZM62.2286 3.37438L62.36 4.14126L62.9078 3.48395L62.2286 3.37438ZM68.2104 3.22099L69.054 4.46996L69.4484 3.01283L68.2104 3.22099ZM66.3479 8.21679L65.6248 8.54549L66.3479 8.87414V8.21679ZM65.6906 12.5662L65.1976 12.9825L65.7782 13.0921L65.6906 12.5662ZM62.6668 9.76156L62.1847 10.1779L62.7544 10.2874L62.6668 9.76156ZM63.5761 7.38418L63.0831 7.8224L63.6638 7.93197L63.5761 7.38418ZM63.3132 4.09747L62.8749 4.17413L63.2694 4.72192L63.3789 4.39326L64.4307 4.36039L63.5104 3.45105L63.3132 4.09747ZM70.544 1.6105L71.1465 3.28672L72.2421 1.75293L70.544 1.6105Z" fill="#CDE8DD"/>
<path d="M63.9047 2.49791L64.4525 4.07553L65.3289 2.6513L63.9047 2.49791ZM69.032 1.5119L67.9911 2.71704L69.766 3.15526L69.032 1.5119ZM61.8012 2.6513L61.9984 2.49791L61.3739 2.16925L61.2643 2.8485L60.6727 3.28672L61.6587 3.88931L61.8012 2.6513ZM69.6126 0.569724L68.6047 1.19417L69.8098 1.65433L69.6126 0.569724Z" fill="#CDE8DD"/>
<path d="M69.4922 2.62936L70.3029 2.16924L69.6675 1.73101L69.4922 2.62936ZM66.6437 1.92821L65.9864 1.93917L66.2055 2.67319L66.6437 1.92821ZM63.9048 9.59721L64.6278 9.26856L63.9267 9.04943L63.9048 9.59721ZM62.1847 6.74872L62.9078 6.42006L62.1957 6.20093L62.1847 6.74872ZM67.8817 14.2863L68.2542 13.8919L67.7064 13.8699L67.8817 14.2863ZM70.9712 15.9954L71.3437 15.59L70.7959 15.579L70.9712 15.9954ZM65.6029 6.42006L65.9864 6.0147L65.4386 6.00374L65.6029 6.42006ZM62.9954 7.24174L63.3679 6.83638H62.8201L62.9954 7.24174ZM62.3819 2.47599L61.3959 1.20513L61.2206 1.45712L60.7824 1.53379L61.0563 1.81864L60.7276 2.54173L62.3819 2.47599ZM67.312 2.89232L67.4873 1.97204L66.6437 2.224L67.312 2.89232ZM68.9334 6.83638L69.8099 6.69395L69.3936 6.20093L68.9334 6.83638ZM67.1586 4.38228L68.0351 4.23985L67.6187 3.74686L67.1586 4.38228ZM67.9255 7.05548L68.0132 6.26666L67.2901 6.59536L67.9255 7.05548ZM65.6467 5.30256L65.7344 4.51374L65.0113 4.86433L65.6467 5.30256ZM63.5651 2.87038L62.7106 3.02378L63.2584 3.70303L63.5651 2.87038ZM64.836 3.35244L64.8689 4.46994L65.6905 3.68113L64.836 3.35244ZM66.6766 4.53568L66.6985 5.30256L67.2682 4.75477L66.6766 4.53568ZM67.9693 4.7986L67.9912 5.56552L68.5609 5.01773L67.9693 4.7986ZM69.2402 4.9739L69.2621 5.74081L69.8318 5.19303L69.2402 4.9739ZM60.9138 5.41212L60.0593 6.22287L61.2425 6.35433L60.9138 5.41212ZM64.7703 8.15105L65.6467 8.11818L64.9675 7.46083L64.7703 8.15105ZM65.9973 10.1669L66.8738 10.1231L66.2164 9.46575L65.9973 10.1669ZM63.3241 6.22287L64.2006 6.17903L63.5213 5.52168L63.3241 6.22287ZM63.7623 5.32449L65.1647 5.25876L64.091 4.20698L63.7623 5.32449ZM67.3777 2.96902L68.2542 2.82659L67.7064 2.24593L67.3777 2.96902ZM69.9852 1.76388L71.1136 0.580643L69.7442 0.361548L69.9852 1.76388Z" fill="#CDE8DD"/>
<path d="M69.7769 3.27578L70.248 4.21796L70.9054 3.52775L69.7769 3.27578ZM67.6954 3.69207L68.1555 3.06762L67.3557 2.95806L67.6954 3.69207ZM66.2492 1.09557L66.4135 1.40233L66.0849 1.34757L66.052 1.80769L66.4464 1.5119L66.6655 2.14735L67.3667 1.02984L66.2492 1.09557ZM65.5261 3.50585L66.4026 3.36342L65.9643 2.7718L65.5261 3.50585ZM68.1226 10.8462L67.9254 10.3203L67.542 10.7147L68.1226 10.8462ZM66.4793 6.00375L66.2821 5.48883L65.8986 5.88322L66.4793 6.00375ZM65.5371 6.11331L65.318 5.59839L64.9455 5.99278L65.5371 6.11331Z" fill="#CDE8DD"/>
<path d="M64.1458 6.52963L65.2195 7.07742L65.0223 5.87228L64.1458 6.52963ZM67.0272 8.55642L68.1008 9.12613L67.9146 7.921L67.0272 8.55642ZM71.8806 4.83148L71.4423 4.17413L71.2232 4.94104L71.8806 4.83148ZM73.1952 7.57041L73.4144 8.42495L73.8526 7.98673L73.1952 7.57041ZM72.9213 6.5844L73.7211 6.61727L73.3267 5.92705L72.9213 6.5844ZM75.1125 7.73474L74.3456 7.81143L74.9262 8.35922L75.1125 7.73474ZM71.782 3.38531L71.8915 4.26179L72.505 3.54968L71.782 3.38531ZM69.7442 4.98487L69.9195 5.86132L70.4673 5.0944L69.7442 4.98487ZM69.4155 7.01165L69.9085 6.73776L69.4484 6.4091L69.4155 7.01165ZM71.3547 5.77369L70.8617 6.89116L72.0449 6.61727L71.3547 5.77369ZM61.9328 13.2236L63.0064 13.7713L62.8092 12.5662L61.9328 13.2236ZM65.6248 1.30373L64.7922 1.66529L65.0113 0.964108L64.2773 1.20514L64.6936 1.68719L64.2882 1.86249L65.6029 2.97996L65.6248 1.30373ZM65.4057 18.1975L65.9535 18.1208L65.5153 17.814L65.4057 18.1975ZM66.8957 20.0819L67.4435 20.0161L67.0053 19.6874L66.8957 20.0819ZM61.9656 8.41402L62.0752 8.85224L62.4039 8.41402H61.9656ZM61.0453 3.50584L60.5414 4.54662H61.8013L61.9656 4.73288L62.2395 4.07553L61.5493 4.03173L61.0453 3.50584ZM61.7794 5.45596L61.4507 5.51073L61.7465 5.90515L61.8122 5.68602L62.5792 5.66412L61.8999 5.00677L61.7794 5.45596ZM63.2475 4.41515L62.0861 4.50282L62.7216 5.57646L62.6558 5.81748L63.3461 5.72985L63.0174 5.10537L63.2475 4.41515ZM66.3808 2.99092L65.8659 4.04266H67.1148L67.2792 4.22893L67.553 3.57158L66.8628 3.52774L66.3808 2.99092ZM63.9486 1.80769L62.5463 1.28183L62.6558 2.94709L63.9486 1.80769Z" fill="#CDE8DD"/>
<path d="M65.1318 14.5273L65.6796 14.8012L65.4605 14.1877L65.1318 14.5273ZM62.6996 0.175296L64.8689 0L63.6857 2.80466L62.6996 0.175296ZM66.9724 0.0657317L69.6565 0.306759L68.1446 2.36644L66.9724 0.0657317ZM71.2451 0.646384L73.1514 1.11751L71.508 2.78276L71.2451 0.646384Z" fill="#CDE8DD"/>
<path d="M61.0891 0.482049L62.7763 0.230089L62.0423 1.43519L61.0891 0.482049ZM65.1975 0.0438273H67.06L65.7453 1.57762L65.1975 0.0438273ZM76.964 5.85035L77.3255 7.31844L78.202 6.09137L76.964 5.85035ZM79.5714 4.9739L79.7029 6.74872L81.171 5.57645L79.5714 4.9739Z" fill="#CDE8DD"/>
<path d="M73.0856 3.40725L73.0527 5.08347L74.3674 4.07553L73.0856 3.40725ZM78.3443 4.53568L76.942 5.30256L78.4758 6.33241L78.3443 4.53568ZM79.2208 3.85643L78.0704 4.07553L79.0126 4.93007L79.2208 3.85643Z" fill="#CDE8DD"/>
<path d="M78.421 5.63125L79.3413 5.46692L78.9031 4.83147L78.421 5.63125ZM75.9012 4.07552L75.2768 3.85643L75.2329 4.62331L75.9012 4.07552ZM76.1861 5.2259L76.6681 4.42612L75.7917 4.36038L76.1861 5.2259ZM76.3175 9.43289L77.194 9.59722L76.9749 8.99467L76.3175 9.43289ZM75.5068 6.5077L76.3833 6.67203L76.1642 6.06947L75.5068 6.5077ZM75.3096 9.27949L75.6712 8.56738L74.8714 8.64408L75.3096 9.27949ZM73.6663 4.53568L73.2938 5.58742L74.3455 5.1492L73.6663 4.53568ZM75.0029 6.54056L74.7509 7.27461L75.4849 6.96785L75.0029 6.54056ZM76.0984 7.19791L75.8465 7.93196L76.5695 7.6252L76.0984 7.19791ZM77.2378 7.78953L76.9858 8.52354L77.7089 8.21679L77.2378 7.78953ZM76.1642 5.26969L77.0406 5.43406L76.7339 4.70001L76.1642 5.26969ZM79.177 4.98487L80.656 4.27272L79.4509 3.59347L79.177 4.98487Z" fill="#CDE8DD"/>
<path d="M78.454 6.33241L78.5635 7.37322L79.44 6.95689L78.454 6.33241ZM76.2299 6.04758L76.8873 5.60933L76.1752 5.24781L76.2299 6.04758ZM75.7917 3.15526L75.8355 3.50585L75.5288 3.33055L75.3425 3.73591L75.8136 3.60445L75.7917 4.2618L76.8435 3.46202L75.7917 3.15526ZM74.2798 5.14921L75.1344 5.31354L74.9372 4.60142L74.2798 5.14921Z" fill="#CDE8DD"/>
<path d="M75.1343 2.91422L74.225 2.95806L74.6632 2.3774L73.8963 2.34454L74.1154 2.93616L73.6553 2.96902L74.4879 4.45898L75.1343 2.91422ZM75.2767 4.9958L74.4331 5.79558L75.5944 6.23381L75.6821 6.45293L76.1751 5.94898L75.5396 5.66412L75.2767 4.9958Z" fill="#CDE8DD"/>
<path d="M72.7788 1.02984L74.8604 1.64336L72.7569 3.8345L72.7788 1.02984ZM76.8982 2.45411L79.3413 3.61541L77.2049 5.03964L76.8982 2.45411Z" fill="#CDE8DD"/>
<path d="M82.5842 5.46692L83.5374 6.01471L82.4089 6.67203L82.5842 5.46692ZM75.1672 1.79675L76.9201 2.4541L75.1672 3.44011V1.79675ZM345.719 62.36L347.22 62.2066L346.584 61.1658L345.719 62.36ZM349.279 63.4775L349.203 63.2584L348.896 63.6966L348.458 63.0392L348.151 63.8499L348.918 63.6966L348.786 63.9814L349.52 64.0691L349.301 63.4556L350.101 63.4117L349.531 62.7872L349.279 63.4775ZM352.018 58.4159L352.873 59.6868L353.355 58.0434L352.018 58.4159ZM354.538 57.7367L354.976 58.3721L355.217 57.5504L354.538 57.7367ZM360.016 55.2826L361.199 56.2029L361.122 54.7019L360.016 55.2826ZM360.257 60.4756L359.742 61.0891L360.542 61.0781L360.257 60.4756Z" fill="#CDE8DD"/>
<path d="M360.564 63.9485L360.268 64.5183L360.849 64.4087L360.564 63.9485ZM359.435 69.0649L359.139 69.6127L359.72 69.525L359.435 69.0649ZM359.107 72.7679L358.844 73.3486L359.413 73.2171L359.107 72.7679ZM357.518 63.3898L357.255 63.9705L357.825 63.8609L357.518 63.3898ZM357.408 60.8481L357.135 61.4287L357.704 61.3192L357.408 60.8481ZM352.325 59.4896L352.763 60.1031L352.906 59.9935L353.322 60.6071L353.673 59.4786L353.015 59.4896H352.325ZM355.809 57.9558L355.436 58.2078L356.028 58.5364L355.984 58.2078L356.926 57.7476L355.721 57.2875L355.809 57.9558ZM361.309 53.0695L362.623 54.2747L362.897 52.4122L361.309 53.0695ZM347.636 61.4397L347.811 60.8262L347.099 61.1329L347.702 61.6479L347.647 62.6886L348.929 61.9875L347.636 61.4397ZM355.721 56.2467L356.883 57.4518L357.102 55.8084L355.721 56.2467ZM360.29 53.3982L359.665 54.8663L361.495 54.7238L360.29 53.3982ZM353.881 57.2327L353.99 57.0136L353.289 56.9588L353.475 57.6161L353.114 58.2516L354.264 58.405L353.881 57.2327ZM351.69 64.1896L350.89 63.1488L350.123 64.2991L351.69 64.1896ZM354.68 65.1975L354.275 64.6716L353.804 65.3071L354.68 65.1975ZM360.268 52.2698L359.611 53.2558L360.892 53.19L360.268 52.2698ZM353.804 61.2096L353.618 60.5523L353.07 60.9248L353.804 61.2096Z" fill="#CDE8DD"/>
<path d="M361.024 54.2089L361.648 53.5077L360.914 53.2886L361.024 54.2089ZM358.175 54.7567L357.573 55.0306L358.088 55.6112L358.175 54.7567ZM358.614 62.7544L359.129 62.1518L358.395 62.2394L358.614 62.7544ZM355.875 60.8481L356.39 60.2346L355.667 60.3441L355.875 60.8481ZM350.66 57.4956L349.411 58.0763L350.539 58.8213L350.66 57.4956ZM349.148 62.0313L349.937 62.5353L349.97 61.6807L349.148 62.0313ZM350.989 65.4495L352.029 66.1068L352.073 64.9893L350.989 65.4495ZM351.01 59.3143L349.849 58.6788L349.915 59.3143L348.819 59.3252L349.389 60.2565L349.893 59.4676L350.112 60.125L351.01 59.3143ZM351.712 62.4695L350.309 62.9297L351.438 63.8828L351.712 62.4695ZM355.437 66.1616L355.787 65.8877L355.349 65.6686L355.437 66.1616ZM354.998 63.6637L355.327 63.3898L354.889 63.1707L354.998 63.6637ZM363.149 65.9316L363.369 65.4276L362.821 65.5919L363.149 65.9316ZM367.619 65.822L367.784 65.2961L367.28 65.5152L367.619 65.822ZM357.124 73.6882L357.233 73.1623L356.74 73.4362L357.124 73.6882ZM358.877 59.15L359.052 58.6241L358.537 58.8432L358.877 59.15ZM356.828 60.9576L357.003 60.4427L356.488 60.6618L356.828 60.9576ZM354.308 56.8602L352.884 56.0933L352.818 56.4001L352.457 56.6411L352.818 56.7944L352.829 57.5833L354.308 56.8602ZM359.183 55.3921L358.964 54.4828L358.307 55.0635L359.183 55.3921ZM361.846 58.5145L362.613 58.1091L362.065 57.7805L361.846 58.5145ZM359.6 56.7616L360.323 56.2795L359.753 56.0056L359.6 56.7616ZM352.15 62.2833L351.569 61.6259L351.394 62.5462L352.15 62.2833ZM360.947 59.0185L360.783 58.2296L360.202 58.7774L360.947 59.0185ZM358.46 58.1201L358.219 57.3532L357.704 57.9667L358.46 58.1201ZM355.557 56.7287L354.834 57.2217L355.623 57.6052L355.557 56.7287ZM356.905 56.6521L357.398 57.66L357.836 56.6082L356.905 56.6521ZM359.271 57.1341L359.6 57.8353L359.896 57.1012L359.271 57.1341ZM360.279 56.8711L360.542 57.6052L360.914 56.904L360.279 56.8711ZM361.528 56.6301L361.78 57.3532L362.163 56.663L361.528 56.6301ZM347.176 70.4562L347.68 69.8756L346.979 69.8975L347.176 70.4562ZM352.687 65.6357L352.982 65.9644L353.234 65.4166L352.687 65.6357ZM351.339 65.8549L351.087 66.5998L351.832 66.304L351.339 65.8549ZM354.461 62.1299L354.155 62.8639L354.922 62.6229L354.461 62.1299ZM350.244 67.06L350.024 67.8269L350.747 67.4982L350.244 67.06ZM352.161 63.0502L351.81 64.0691L352.829 63.6746L352.161 63.0502ZM354.735 60.2455L354.297 61.3411L355.437 60.9795L354.735 60.2455ZM358.866 64.9126L358.362 65.9753L359.512 65.6686L358.866 64.9126ZM354.33 69.4045L353.947 70.522L355.042 70.0837L354.33 69.4045ZM357.255 68.3089L356.872 69.4264L357.967 68.9882L357.255 68.3089ZM353.355 66.7203L354.319 67.29L354.122 66.1725L353.355 66.7203ZM349.455 65.7563L349.104 67.0162L350.309 66.4684L349.455 65.7563ZM347.242 67.6187L348.523 67.9803L347.976 66.7751L347.242 67.6187ZM344.678 64.0033L347.044 63.9814L345.642 62.3709L344.678 64.0033ZM358.811 61.1001L359.6 60.6947L358.723 60.366L358.811 61.1001ZM360.104 62.6339L360.925 62.3271L360.082 61.8889L360.104 62.6339ZM356.707 59.8949L357.496 59.4896L356.62 59.1609L356.707 59.8949ZM356.707 58.9089L357.967 58.2735L356.543 57.7476L356.707 58.9089ZM350.024 69.3826L351.23 68.6705L349.805 68.2322L350.024 69.3826ZM351.273 60.2565L352.007 60.9467L352.303 59.8292L351.273 60.2565Z" fill="#CDE8DD"/>
<path d="M352.347 60.5961L352.051 61.3192L352.993 61.352L352.347 60.5961ZM351.58 57.7476L351.284 58.8761L352.599 58.6569L351.58 57.7476ZM344.612 69.1854H343.911L344.327 69.8427L344.612 69.1854ZM359.227 55.3812L359.95 54.8882L359.216 54.5924L359.227 55.3812ZM361.035 53.3325L361.626 51.7986L360.279 52.1273L361.035 53.3325ZM361.418 54.8115L362.218 55.5017L362.547 54.6033L361.418 54.8115ZM359.819 55.929L359.972 55.1621L359.205 55.4031L359.819 55.929ZM354.867 60.3441L354.68 59.6868L354.045 60.125L354.867 60.3441ZM357.474 54.1761L357.748 54.3951L357.419 54.4828L357.573 54.921L357.825 54.4828L358.263 54.9649L358.438 53.6502L357.474 54.1761ZM357.803 56.6521L358.526 56.159L357.891 55.7975L357.803 56.6521ZM352.347 67.4325V66.7313L351.909 67.2243L352.347 67.4325ZM362.317 62.5681L361.966 62.1299L361.747 62.6229L362.317 62.5681ZM359.72 58.5364L359.315 58.153L359.139 58.6679L359.72 58.5364ZM358.701 58.887L358.296 58.4926L358.121 59.0075L358.701 58.887ZM354.757 67.783L354.976 67.3448L354.494 67.4544L354.757 67.783ZM356.291 65.2413L356.839 64.1458L355.634 64.3649L356.291 65.2413Z" fill="#CDE8DD"/>
<path d="M357.584 59.8292L358.789 59.8949L358.132 58.887L357.584 59.8292ZM361.813 60.8152L363.018 61.0343L362.47 59.9607L361.813 60.8152ZM358.986 64.1786L360.191 64.2553L359.534 63.2364L358.986 64.1786ZM356.839 54.4499L356.236 55.1073L356.127 54.3842L355.546 54.8991L356.127 55.173L355.831 55.5017L357.474 55.9728L356.839 54.4499ZM343.309 66.6765L344.185 67.5091L344.623 66.2602L343.309 66.6765ZM345.806 64.9784L345.96 64.825L345.412 64.7593L345.708 64.1348L344.864 64.2224L345.412 64.7702L344.952 64.7812L345.346 65.4714L345.73 65.077L346.212 65.6796L346.431 64.825L345.806 64.9784ZM346.058 66.1397L346.99 66.1178L346.661 65.5043L346.058 66.1397ZM347.044 64.5292L346.497 65.077L347.351 65.1318L347.044 64.5292ZM342.553 68.55L343.243 68.298L342.772 67.8597L342.553 68.55ZM344.875 66.0302L344.656 66.8847L345.423 66.556L344.875 66.0302ZM352.172 69.7222L352.654 69.4264L352.106 69.3169L352.172 69.7222ZM362.317 70.7082L362.821 70.4672L362.295 70.3138L362.317 70.7082ZM365.275 71.4751L365.768 71.2122L365.22 71.0807L365.275 71.4751ZM357.88 64.9017L358.175 65.2304L358.285 64.6826L357.88 64.9017ZM356.379 62.4367L356.664 62.7653L356.795 62.2394L356.379 62.4367ZM357.419 67.6954L357.891 67.553L357.507 67.312L357.419 67.6954ZM356.85 71.1355L357.321 70.9712L356.926 70.7521L356.85 71.1355ZM352.873 64.7812L353.344 64.6388L352.96 64.3977L352.873 64.7812ZM350.55 60.3222L351.317 60.4537L351.021 59.7196L350.43 60.3332H349.444L350.013 61.4835L350.55 60.3222ZM353.53 58.3502L353.497 59.5115L354.637 59.0075L354.856 59.1171V58.4159L354.199 58.6569L353.53 58.3502ZM351.701 62.601L352.139 63.2364L352.38 62.4257L351.701 62.601ZM353.596 61.3959L354.034 62.0313L354.275 61.2096L353.596 61.3959ZM355.086 62.0204L354.812 62.2066L355.25 62.4476L355.217 62.2066L355.919 61.8779L355.042 61.5493L355.086 62.0204ZM350.189 71.5847L349.937 71.8038L350.375 72.001L350.32 71.76L350.978 71.3437L350.057 71.1246L350.189 71.5847Z" fill="#CDE8DD"/>
<path d="M355.02 59.8073L354.746 59.9935L355.185 60.2346L355.152 59.9935L355.853 59.6649L354.976 59.3362L355.02 59.8073ZM352.939 60.8481L353.048 60.629L352.347 60.5742L352.533 61.2315L352.172 61.867L353.322 62.0204L352.939 60.8481ZM353.925 63.9595L353.738 63.3022L353.103 63.7404L353.925 63.9595ZM352.61 61.9437L352.577 63.1159L353.716 62.601L353.936 62.7106L353.925 62.0094L353.267 62.2614L352.61 61.9437ZM355.919 58.2625L354.9 58.8103L355.919 59.5334L355.94 59.7744L356.543 59.4129L355.995 58.9747L355.919 58.2625ZM358.384 55.8304L358.351 56.9917L359.49 56.4768L359.709 56.5863L359.698 55.8851L359.041 56.1262L358.384 55.8304ZM350.233 61.615L351.438 61.1767L350.254 60.4427L350.233 61.615Z" fill="#CDE8DD"/>
<path d="M349.75 62.7763L351.525 62.2614L350.408 61.2754L349.75 62.7763ZM351.887 58.8761L351.536 59.3143L351.208 59.4458L351.427 59.5553L351.405 59.7087L351.646 59.6539L351.712 59.7306L351.646 59.6539L352.106 59.6977L351.887 58.8761ZM343.78 66.2164L343.823 66.304L344.514 66.2164L345.094 66.1725L344.327 64.595L343.528 66.2054L343.78 66.2164Z" fill="#CDE8DD"/>
<path d="M345.072 65.1427L344.744 64.5292L344.371 65.2304L345.072 65.1427ZM347.877 63.8719L347.11 64.0472L347.658 64.573L347.877 63.8719ZM343.341 68.0789L344.108 68.8238L344.47 67.6735L343.341 68.0789ZM346.803 71.1465L346.508 71.6175L347.055 71.6833L346.803 71.1465ZM355.502 55.5893L354.012 55.677L354.812 57.156L355.502 55.5893ZM348.71 68.9005L349.334 69.3388L349.323 68.5719L348.71 68.9005ZM346.913 68.4404L347.537 68.8786V68.1117L346.913 68.4404ZM347.899 65.1208L347.198 64.9017L347.526 65.6686L347.899 65.1208Z" fill="#CDE8DD"/>
<path d="M345.883 66.4574L346.54 67.6844L347.22 66.808L345.883 66.4574ZM342.301 69.2183L342.739 70.029L343.177 69.4593L342.301 69.2183ZM345.445 66.9833L344.634 67.9912L345.62 68.2542L345.445 66.9833ZM348.699 65.6138L347.165 65.3399L347.965 66.7203L348.699 65.6138ZM348.337 63.4227L347.767 62.108L347.088 62.9845L347.001 62.2942L346.015 63.0064L346.716 63.3788L346.497 64.08L347.263 63.7513L347.099 63.598V63.1269L348.337 63.4227ZM349.433 62.6558L348.578 62.6996L349.17 63.3569L349.433 62.6558ZM343.549 67.3996L343.002 67.3229L343.243 67.8707L343.549 67.3996ZM345.237 69.0868L345.697 69.2292L345.532 68.7691L345.237 69.0868Z" fill="#CDE8DD"/>
<path d="M355.919 63.6637L356.532 63.6856L356.094 63.2036L355.919 63.6637ZM360.958 67.3119L361.572 67.3996L361.177 66.8737L360.958 67.3119ZM346.146 64.7593L346.694 64.2115L346.069 63.9157L346.146 64.7593ZM345.116 65.7234L345.664 66.2712L345.806 65.5043L345.116 65.7234ZM348.699 66.1616L349.838 64.9784L347.888 64.2444L348.699 66.1616ZM346.617 60.9795L349.082 58.3502L349.597 61.856L346.617 60.9795ZM350.287 57.2875L352.413 55.7317L352.303 57.9448L350.287 57.2875ZM353.87 54.8443L355.776 53.8145L355.842 56.8492L353.87 54.8443ZM357.65 52.9161L360.191 52.0178L359.665 54.5376L357.65 52.9161ZM361.451 51.7548L363.368 51.2947L362.678 53.5187L361.451 51.7548Z" fill="#CDE8DD"/>
<path d="M352.457 55.7646L353.881 54.8443L353.706 56.2357L352.457 55.7646ZM356.072 53.6392L357.759 52.8723L357.211 54.8224L356.072 53.6392ZM380.262 61.0234L379.638 60.87L379.879 61.4178L380.262 61.0234ZM376.285 68.2213L375.672 68.035L375.891 68.5828L376.285 68.2213ZM372.56 62.3819L371.958 62.1957L372.155 62.7434L372.56 62.3819ZM372.144 64.7374L372.659 64.9017L372.44 64.3977L372.144 64.7374ZM381.708 57.6161L382.3 58.1201L382.267 57.4189L381.708 57.6161ZM363.697 58.6022L362.634 58.0873L362.93 59.2376L363.697 58.6022ZM367.466 61.3411L366.261 60.87L366.699 62.119L367.466 61.3411ZM384.809 55.2716L383.889 55.0306L384.305 55.907L384.809 55.2716ZM382.223 55.425L381.971 56.411L382.892 55.9728L382.223 55.425ZM362.667 63.2693L363.215 64.5511L363.818 63.1817L362.667 63.2693ZM382.935 55.0306L382.903 54.3294L382.245 54.7677L382.935 55.0306ZM383.516 52.9819L383.768 53.6611L384.206 53.1791L383.516 52.9819ZM384.886 56.7616L385.214 57.1998L385.269 56.6521L384.886 56.7616ZM373.568 72.264L373.93 72.7022L373.952 72.1544L373.568 72.264ZM379.901 63.828L380.076 64.2663L380.295 63.8719L379.901 63.828ZM384.009 53.7269L383.286 54.5157L384.436 54.8443L384.009 53.7269ZM380.876 57.2108L380.394 56.926L380.339 57.4737L380.876 57.2108ZM383.286 59.1171L382.848 59.7525L383.615 59.7197L383.286 59.1171ZM381.884 59.7087L382.136 59.1061L381.347 58.9966L381.884 59.7087ZM378.4 58.0653L378.345 59.2924L379.331 58.7774L378.4 58.0653ZM373.174 67.2681L373.722 67.1586L373.283 66.8299L373.174 67.2681ZM372.341 56.6411L373.108 56.7726L372.714 56.1919L372.341 56.6411ZM379.057 59.6211L378.926 60.0374L379.517 59.9935L379.057 59.6211ZM378.213 58.5802L377.447 58.7336L378.071 59.2376L378.213 58.5802ZM376.548 57.8353L375.781 57.9777L376.406 58.4816L376.548 57.8353ZM374.521 59.15L375.727 59.8511L375.398 58.394L374.521 59.15ZM377.337 60.1907L377.951 59.8621L377.293 59.7087L377.337 60.1907ZM378.213 62.4586L378.707 62.4257L378.378 62.0532L378.213 62.4586ZM375.255 61.1987L375.748 61.4726L375.562 60.9577L375.255 61.1987ZM374.62 63.7185L374.949 64.1019L375.025 63.6637L374.62 63.7185ZM379.912 59.3581L380.273 59.6868L380.295 59.2486L379.912 59.3581ZM372.188 59.9607L371.892 59.8292L371.903 60.3113L372.1 60.1579L372.758 60.5961L372.582 59.6649L372.188 59.9607ZM374.182 57.2217L374.072 57.9887L374.751 57.6271L374.182 57.2217ZM383.713 57.2656L383.275 57.901L384.042 57.8681L383.713 57.2656ZM382.837 52.697L382.048 53.1353L382.618 53.5735L382.837 52.697ZM387 54.669L386.419 54.2089L386.277 54.7896L387 54.669ZM384.666 53.8803L384.732 53.3325L384.184 53.5954L384.666 53.8803ZM383.023 55.5894L382.892 56.0604L383.33 55.8851L383.023 55.5894ZM364.442 54.1651L364.617 54.9101L365.132 54.2308L364.442 54.1651ZM370.468 53.6502L371.509 54.7457L371.651 53.2558L370.468 53.6502ZM368.77 58.7994L368.068 59.1828L368.803 59.4567L368.77 58.7994ZM368.331 63.1817L367.871 63.6199L368.452 63.7075L368.331 63.1817ZM365.154 60.5194L364.694 60.9577L365.275 61.0672L365.154 60.5194ZM365.976 58.1092L365.505 58.5474L366.096 58.6569L365.976 58.1092ZM365.538 54.8224L365.099 54.932L365.538 55.4469L365.614 55.1182L366.666 55.0306L365.713 54.1761L365.538 54.8224ZM372.517 51.6782L373.393 53.2448L374.226 51.5467L372.517 51.6782Z" fill="#CDE8DD"/>
<path d="M366.085 53.2338L366.721 54.7896L367.532 53.3434L366.085 53.2338ZM371.037 51.8644L370.194 53.2229L372.023 53.3544L371.037 51.8644ZM364.004 53.4858L364.19 53.3215L363.555 53.0148L363.489 53.705L362.919 54.1761L363.938 54.7238L364.004 53.4858ZM371.454 50.8565L370.555 51.6234L371.804 51.8863L371.454 50.8565Z" fill="#CDE8DD"/>
<path d="M371.662 52.9052L372.385 52.3136L371.684 51.963L371.662 52.9052ZM368.813 52.5437L368.156 52.5765L368.43 53.2996L368.813 52.5437ZM366.447 60.3441L367.148 59.9607L366.436 59.7854L366.447 60.3441ZM364.584 57.5614L365.286 57.1779L364.573 57.0026L364.584 57.5614ZM370.643 64.8141L371.005 64.3977L370.457 64.4087L370.643 64.8141ZM373.798 66.3698L374.16 65.9535L373.612 65.9644L373.798 66.3698ZM367.992 57.0574L368.342 56.6411L367.794 56.6521L367.992 57.0574ZM365.417 58.0106L365.779 57.5942L365.231 57.6052L365.417 58.0106ZM364.573 53.2777L363.522 52.0506L363.346 52.3136L362.908 52.4231L363.193 52.697L362.919 53.4311L364.573 53.2777ZM369.525 53.4639L369.657 52.5437L368.824 52.8395L369.525 53.4639ZM371.333 57.3313L372.188 57.145L371.75 56.674L371.333 57.3313ZM369.438 54.9539L370.292 54.7677L369.854 54.2966L369.438 54.9539ZM370.347 57.5833L370.402 56.7945L369.69 57.167L370.347 57.5833ZM367.981 55.9618L368.025 55.1621L367.323 55.5455L367.981 55.9618ZM365.79 53.6173L364.935 53.8145L365.538 54.4718L365.79 53.6173ZM367.082 54.0555L367.17 55.173L367.937 54.3514L367.082 54.0555Z" fill="#CDE8DD"/>
<path d="M368.967 55.1511L369.022 55.918L369.569 55.3483L368.967 55.1511ZM370.281 55.3483L370.336 56.1152L370.884 55.5455L370.281 55.3483ZM371.815 55.2388L371.958 56.0056L372.44 55.3812L371.815 55.2388ZM363.27 56.2905L362.448 57.167L363.653 57.2327L363.27 56.2905ZM367.258 58.8432L368.134 58.7665L367.433 58.1311L367.258 58.8432ZM368.572 60.7933L369.449 60.7166L368.748 60.0812L368.572 60.7933ZM365.724 56.9807L366.6 56.8931L365.899 56.2686L365.724 56.9807ZM366.085 56.0714L367.466 55.918L366.348 54.932L366.085 56.0714ZM369.591 53.5516L370.468 53.3653L369.898 52.8176L369.591 53.5516ZM372.034 51.9849L372.966 50.6264L371.574 50.6373L372.034 51.9849ZM372.067 53.5187L372.681 54.3623L373.229 53.5735L372.067 53.5187ZM369.964 54.2637L370.38 53.6064L369.58 53.5625L369.964 54.2637ZM368.386 51.7439L368.561 52.0397L368.233 51.9959L368.222 52.456L368.594 52.1492L368.846 52.7628L369.504 51.6124L368.386 51.7439ZM367.773 54.1761L368.627 53.9898L368.167 53.4201L367.773 54.1761ZM370.731 61.374L370.512 60.87L370.161 61.2863L370.731 61.374ZM368.868 56.6301L368.649 56.1152L368.288 56.5315L368.868 56.6301ZM367.937 56.7835L367.718 56.2795L367.367 56.6959L367.937 56.7835Z" fill="#CDE8DD"/>
<path d="M366.524 57.2546L367.619 57.7586L367.367 56.5754L366.524 57.2546ZM369.504 59.139L370.599 59.6539L370.347 58.4488L369.504 59.139ZM374.368 54.68L373.82 54.1103L373.744 54.8772L374.368 54.68ZM376.121 57.1779L376.472 57.9887L376.844 57.4737L376.121 57.1779ZM375.683 56.2467L376.482 56.1371L375.979 55.5236L375.683 56.2467ZM378.016 57.0464L377.271 57.2436L377.929 57.6819L378.016 57.0464ZM374.039 53.2886L374.28 54.1322L374.773 53.3325L374.039 53.2886ZM372.286 55.1949L372.593 56.0166L373.031 55.184L372.286 55.1949ZM371.815 57.4956L372.286 57.1998L371.815 56.915V57.4956ZM374.006 55.7098L373.7 56.8931L374.828 56.422L374.006 55.7098ZM363.993 64.2224L365.056 64.814L364.891 63.6089L363.993 64.2224ZM367.762 51.9849L366.962 52.3903L367.137 51.6672L366.414 51.952L366.852 52.4122L366.447 52.6094L367.806 53.6502L367.762 51.9849ZM367.323 69.2949L367.871 69.2402L367.433 68.9115L367.323 69.2949ZM369.953 70.6754L370.501 70.5658L370.03 70.2809L369.953 70.6754ZM364.475 59.2814L364.617 59.6977L364.924 59.2595L364.475 59.2814ZM363.314 54.4061L362.854 55.4798L364.103 55.4141L364.278 55.5893L364.519 54.932L363.829 54.921L363.314 54.4061ZM364.146 56.3343L363.818 56.4001L364.124 56.7835L364.19 56.5425L364.957 56.4877L364.256 55.8523L364.146 56.3343ZM365.571 55.2168L364.42 55.3702L365.099 56.411L365.045 56.6301L365.735 56.5206L365.384 55.929L365.571 55.2168ZM368.638 53.6392L368.178 54.7019L369.427 54.6471L369.591 54.8224L369.843 54.1651L369.153 54.1542L368.638 53.6392ZM366.151 52.5765L364.727 52.1383L364.946 53.7816L366.151 52.5765Z" fill="#CDE8DD"/>
<path d="M367.904 65.1975L368.474 65.4385L368.233 64.836L367.904 65.1975ZM364.771 50.9879L366.929 50.714L365.888 53.5625L364.771 50.9879ZM368.759 50.7907L371.443 50.5935L370.282 52.8723L368.759 50.7907ZM373.075 50.6593L375.047 50.8126L373.7 52.7189L373.075 50.6593Z" fill="#CDE8DD"/>
<path d="M363.171 51.3604L364.847 51.0318L364.19 52.2588L363.171 51.3604ZM367.247 50.7359L369.109 50.6264L367.882 52.2478L367.247 50.7359ZM379.55 54.8553L380.142 56.2467L380.799 54.8882L379.55 54.8553ZM381.982 53.5735L382.398 55.3264L383.669 53.9241L381.982 53.5735Z" fill="#CDE8DD"/>
<path d="M375.332 53.0695L375.551 54.7348L376.691 53.5297L375.332 53.0695ZM380.722 53.3325L379.462 54.3185L381.139 55.0854L380.722 53.3325Z" fill="#CDE8DD"/>
<path d="M381.456 52.5217L380.361 52.9381L381.434 53.6173L381.456 52.5217ZM380.941 54.4061L381.818 54.0994L381.27 53.5516L380.941 54.4061ZM378.202 53.2886L377.545 53.1791L377.633 53.946L378.202 53.2886ZM378.674 54.3842L379.024 53.5077L378.148 53.5954L378.674 54.3842ZM379.484 58.5035L380.361 58.5255L380.054 57.9777L379.484 58.5035ZM378.202 55.7646L379.079 55.7865L378.75 55.2388L378.202 55.7646ZM378.465 58.5364L378.706 57.7695L377.94 57.9667L378.465 58.5364ZM376.088 54.1103L375.902 55.2059L376.855 54.6033L376.088 54.1103ZM377.731 55.8632L377.6 56.6301L378.257 56.2138L377.731 55.8632ZM378.936 56.3234L378.805 57.0903L379.462 56.6521L378.936 56.3234ZM380.142 56.7178L380.01 57.4847L380.667 57.0683L380.142 56.7178ZM378.685 54.4171L379.561 54.439L379.145 53.7816L378.685 54.4171Z" fill="#CDE8DD"/>
<path d="M381.599 53.6502L382.946 52.708L381.632 52.2259L381.599 53.6502ZM381.117 55.0963L381.391 56.1043L382.179 55.5565L381.117 55.0963ZM378.86 55.184L379.408 54.6362L378.641 54.3951L378.86 55.184ZM377.983 52.4122L378.093 52.7409L377.764 52.6313L377.655 53.0695L378.093 52.8504L378.181 53.5077L379.079 52.5437L377.983 52.4122ZM376.778 54.6033L377.655 54.6362L377.348 53.9789L376.778 54.6033ZM377.271 52.2588L376.395 52.456L376.745 51.7986L375.978 51.8863L376.285 52.4341L375.847 52.5437L376.91 53.8803L377.271 52.2588Z" fill="#CDE8DD"/>
<path d="M377.742 54.2966L377.041 55.2168L378.268 55.4688L378.378 55.6879L378.783 55.1073L378.126 54.932L377.742 54.2966ZM374.642 50.7688L376.789 51.0427L375.08 53.5625L374.642 50.7688ZM378.948 51.5357L381.533 52.3026L379.671 54.0336L378.948 51.5357ZM385.039 53.5735L386.069 53.9569L385.061 54.7677L385.039 53.5735ZM377.129 51.1632L378.948 51.5138L377.37 52.7956L377.129 51.1632Z" fill="#CDE8DD"/>
</svg>
