<svg width="22" height="47" viewBox="0 0 22 47" fill="none" xmlns="http://www.w3.org/2000/svg">
<path d="M13.7324 1.76405L13.8584 2.52009L14.5513 2.01606L13.7324 1.76405ZM16.8821 14.1756L16.5671 13.7976L16.3151 14.2386L16.8821 14.1756ZM20.7876 17.5147L20.5357 17.1367L20.2837 17.5777L20.7876 17.5147ZM14.6773 13.4826L14.9923 13.1045L14.4883 12.9785L14.6773 13.4826ZM16.3151 3.90615L15.8112 4.15816L16.3151 4.59917V3.90615ZM19.3388 11.9075L18.7719 12.0965L19.2758 12.6005L19.3388 11.9075ZM20.8506 12.9155L20.2837 13.1045L20.7876 13.5456L20.8506 12.9155ZM12.7875 1.13402L11.8426 0.756009L11.9056 1.82706L12.7875 1.13402Z" fill="#D17A69"/>
<path d="M10.2673 0.189005L9.19641 0L9.51138 1.13405L10.2673 0.189005ZM11.3382 0.567025L10.6453 0.882039L11.3382 1.44906V0.567025ZM9.25941 1.44906L8.75546 1.63807L9.25941 2.07909V1.44906ZM8.75546 0.189005L8.25152 0.378015L8.75546 0.819032V0.189005ZM19.4013 6.86729L19.0863 6.55228L18.8973 6.9933L19.4013 6.86729ZM16.6296 5.22922L17.1335 4.53619L16.1886 4.28418L16.6296 5.22922ZM17.7005 6.55228L18.0154 6.17426L17.5115 6.04826L17.7005 6.55228ZM18.2044 9.00938L18.2674 9.57641L18.8344 9.26139L18.2044 9.00938ZM20.0942 8.50536L19.7163 8.82038L20.2832 9.07239L20.0942 8.50536ZM17.4485 8.88338L17.0076 9.00938L17.3855 9.3874L17.4485 8.88338ZM11.3382 4.15818L10.8972 4.34719L11.2752 4.7252L11.3382 4.15818ZM10.0153 2.58311L9.57437 2.77212L9.95233 3.15013L10.0153 2.58311ZM8.3775 1.51207L7.93655 1.63807L8.31451 2.01608L8.3775 1.51207ZM7.81057 1.32306L7.36962 1.51207L7.74757 1.76407L7.81057 1.32306ZM18.9603 14.7426L18.5194 14.9316L18.8973 15.3096L18.9603 14.7426ZM20.2832 15.4987L19.7793 15.6247L20.1572 16.0027L20.2832 15.4987ZM18.2674 13.2306V13.7346L18.7714 13.4826L18.2674 13.2306ZM18.8973 10.8365V11.3405L19.4013 11.0885L18.8973 10.8365ZM20.5352 12.4115L20.2832 12.0335L19.9682 12.4745L20.5352 12.4115ZM8.81845 3.96917L9.00743 4.22118L9.25941 3.90616L8.81845 3.96917ZM11.0232 3.15013L10.7712 3.33914L11.0862 3.46515L11.0232 3.15013ZM12.2201 7.30831L11.9681 7.1193L11.9051 7.49732L12.2201 7.30831ZM11.5902 5.29223L11.4012 5.60724L11.7791 5.73324L11.5902 5.29223ZM13.354 9.5134L13.039 9.3874L13.102 9.70241L13.354 9.5134ZM17.0076 17.0107L16.6926 16.8847V17.2627L17.0076 17.0107ZM13.039 12.3485L13.102 12.0335L12.724 12.0965L13.039 12.3485ZM13.291 15.3096L13.354 14.9946L13.039 15.0576L13.291 15.3096ZM8.88145 13.9236L8.94444 13.6716L8.62948 13.7346L8.88145 13.9236ZM16.5666 10.2064L16.3776 10.7735L17.0076 10.7105L16.5666 10.2064ZM18.2044 4.97721L17.7635 6.04826L19.0233 5.98525L18.2044 4.97721ZM12.0941 2.01608L11.9681 2.58311L12.598 2.45711L12.0941 2.01608ZM20.7871 10.0804H20.2832L20.4722 10.5844L20.7871 10.0804ZM17.6375 13.6716L17.5745 13.2306L17.1335 13.5456L17.6375 13.6716ZM18.7714 8.63137L18.9603 9.4504L19.6533 8.88338L18.7714 8.63137ZM18.8973 9.82842L19.0233 10.3954L19.5273 9.95442L18.8973 9.82842ZM19.8422 9.3874L20.0312 9.89142L20.4722 9.3874H19.8422ZM15.8737 7.87534L15.4327 8.12735L15.9367 8.44236L15.8737 7.87534ZM21.1021 11.8445L20.9131 11.0255L20.2202 11.5925L21.1021 11.8445ZM8.50348 0.94504L8.06253 1.13405L8.50348 1.51207V0.94504ZM12.85 1.63807L12.598 1.38606L12.3461 1.70107L12.85 1.63807Z" fill="#D17A69"/>
<path d="M6.86627 0.504016L6.61429 0.189002L6.42532 0.567023L6.86627 0.504016ZM7.55919 0.81903L7.81117 0.504016L7.37022 0.441014L7.55919 0.81903ZM10.5199 1.70107L10.5829 2.14209L11.0238 1.89008L10.5199 1.70107ZM9.57497 0.756028L9.38599 1.44906L10.2049 1.32305L9.57497 0.756028ZM11.0238 1.95308L11.0868 2.3941L11.5277 2.14209L11.0238 1.95308ZM12.9766 2.83512L13.0396 3.27614L13.4805 3.02413L12.9766 2.83512ZM13.3545 1.51206L12.5986 1.70107L13.1656 2.45711L13.3545 1.51206ZM10.4569 0.567023L10.0789 0.630024L10.3939 0.945038L10.4569 0.567023ZM12.9136 3.90617L12.6616 3.59115L12.4726 3.96917L12.9136 3.90617ZM9.76394 1.89008L9.88994 2.3311L10.2679 2.01608L9.76394 1.89008ZM6.42532 1.63807L6.11036 1.82708L6.48831 2.07908L6.42532 1.63807ZM9.38599 0.945038L9.13401 0.630024L8.94504 1.07104L9.38599 0.945038ZM7.30722 2.45711L7.4332 2.89812L7.81117 2.58311L7.30722 2.45711ZM7.93715 4.41019L7.62218 4.59919L8.00015 4.85121L7.93715 4.41019ZM5.85838 0.378012L5.48043 0.567023L5.85838 0.81903V0.378012ZM6.61429 3.78016L6.29933 3.46515L6.17334 3.84316L6.61429 3.78016ZM6.23634 1.32305L6.55131 1.44906V1.07104L6.23634 1.32305ZM3.52764 1.07104L3.9056 1.13404L3.84261 0.756028L3.52764 1.07104ZM4.97648 0.693026L5.29145 0.81903L5.22845 0.441014L4.97648 0.693026ZM2.96071 1.38606L2.83471 1.70107L3.27567 1.63807L2.96071 1.38606ZM1.57486 2.20509L1.51187 2.58311L1.95282 2.52011L1.57486 2.20509ZM4.09457 1.38606L4.53553 1.57507L4.59852 1.07104L4.09457 1.38606ZM5.98436 2.20509L5.85838 2.58311L6.29933 2.52011L5.98436 2.20509ZM4.53553 2.70911H4.15757L4.34655 3.08713L4.53553 2.70911ZM3.27567 3.33914H2.89771L3.08669 3.71716L3.27567 3.33914ZM0.126023 3.08713L2.87086e-05 3.46515L0.377991 3.33914L0.126023 3.08713ZM2.70873 4.7252H2.33078L2.51975 5.10322L2.70873 4.7252ZM0.629959 5.92226H0.252008L0.440987 6.30027L0.629959 5.92226ZM14.6774 2.01608L14.4884 3.40215L16.0003 2.89812L14.6774 2.01608ZM15.8743 3.27614H15.4963L15.6853 3.65415L15.8743 3.27614ZM14.2364 2.77212H13.7955L13.9845 3.21314L14.2364 2.77212ZM15.0554 5.54424L14.9294 5.16622L14.6144 5.41823L15.0554 5.54424ZM18.205 11.9705L18.142 11.5925L17.7641 11.8445L18.205 11.9705ZM14.7404 4.34719L14.6144 3.96917L14.2994 4.22118L14.7404 4.34719ZM17.5751 4.41019L17.4491 4.85121L17.953 4.7882L17.5751 4.41019ZM15.1813 6.30027L15.0554 6.74129L15.5593 6.67829L15.1813 6.30027ZM16.5672 3.33914L16.3152 4.22118L17.3861 4.09518L16.5672 3.33914ZM17.0711 7.62333L16.9451 8.06435L17.4491 8.00134L17.0711 7.62333ZM15.5593 11.3405L15.4963 11.7815L16.0003 11.7185L15.5593 11.3405ZM12.1577 13.1676L11.9057 12.7896L11.6537 13.2306L12.1577 13.1676ZM10.0159 12.4745L10.2679 12.0965L9.76394 11.9705L10.0159 12.4745ZM8.31511 11.3405L8.3781 11.0255L8.06313 11.0885L8.31511 11.3405ZM10.8978 10.3324L10.7718 10.8365L11.2758 10.7105L10.8978 10.3324ZM8.3781 9.45041L8.25211 9.89143L8.75606 9.82843L8.3781 9.45041ZM5.41743 9.2614L5.29145 9.70242L5.79539 9.63941L5.41743 9.2614ZM5.22845 4.91421L5.10246 5.35523L5.60641 5.29223L5.22845 4.91421ZM19.3389 7.37132H18.9609L19.1499 7.74933L19.3389 7.37132ZM18.8349 6.8673L18.7719 6.48928L18.394 6.74129L18.8349 6.8673ZM19.0869 8.50537L19.0239 8.12735L18.646 8.37936L19.0869 8.50537ZM19.7168 14.3016V14.8686L20.2838 14.6166L19.7168 14.3016ZM18.8979 14.1756L18.457 14.3016L18.8349 14.6796L18.8979 14.1756ZM20.3468 16.0657V16.5067L20.8507 16.3177L20.3468 16.0657ZM18.079 15.4987L17.89 16.0027L18.52 15.9397L18.079 15.4987ZM20.5357 14.0496L20.7247 14.6166L21.1657 14.1756L20.5357 14.0496ZM20.3468 15.1207L20.4727 15.6877L20.9767 15.2467L20.3468 15.1207ZM19.6538 17.1997L19.5909 16.8217L19.2129 17.0737L19.6538 17.1997ZM19.4019 13.6716L19.3389 13.2936L19.0239 13.5456L19.4019 13.6716ZM14.3624 7.1193L14.2994 7.56033L14.8034 7.43432L14.3624 7.1193ZM16.6302 6.55228H16.2522L16.4412 6.9303L16.6302 6.55228ZM15.1183 9.51341L14.9924 9.1354L14.6774 9.45041L15.1183 9.51341ZM20.1578 8.12735L19.8428 7.49732L19.4019 8.12735H20.1578ZM16.8822 5.67024L16.5042 5.41823L16.3782 5.92226L16.8822 5.67024ZM17.953 5.67024L17.5751 5.41823L17.4491 5.92226L17.953 5.67024ZM13.4175 5.10322L13.6065 4.6622L13.0396 4.7252L13.4175 5.10322Z" fill="#D17A69"/>
<path d="M13.8585 3.65415L13.0396 3.90617L13.7325 4.59919L13.8585 3.65415ZM13.4805 3.02413L13.2286 3.21314L13.5435 3.33914L13.4805 3.02413ZM14.0475 5.22922L13.8585 5.48123L14.2364 5.60724L14.0475 5.22922ZM15.3703 3.78016L15.1183 3.46515L14.9294 3.84316L15.3703 3.78016ZM15.8743 4.97721L16.0632 4.53619L15.4963 4.59919L15.8743 4.97721ZM14.9294 6.11126L15.1183 5.60724L14.6144 5.67024L14.9294 6.11126Z" fill="#D17A69"/>
<path d="M13.6695 7.87535L13.7955 7.43433H13.2916L13.6695 7.87535ZM15.3073 4.59921V5.41825L16.1263 5.04024L15.3073 4.59921ZM17.8901 7.62334L18.205 8.06436L18.583 7.56034L17.8901 7.62334ZM16.1263 8.9464L16.4412 9.45042L16.8192 8.88339L16.1263 8.9464ZM11.4648 2.64613L11.7797 3.15016L12.0947 2.58313L11.4648 2.64613ZM10.2679 4.85123L10.5829 5.35525L10.8978 4.85123H10.2679ZM14.2365 4.03219V4.53621L14.7404 4.2842L14.2365 4.03219ZM17.3861 6.11128L17.0081 6.17428L17.3231 6.5523L17.3861 6.11128ZM16.0633 6.11128L15.8743 5.79626L15.6223 6.11128H16.0633ZM16.7562 7.62334L16.5672 7.24533L16.2522 7.62334H16.7562ZM13.8585 6.36329L13.4806 6.42629L13.7955 6.7413L13.8585 6.36329ZM6.8033 7.62334L6.55134 7.56034L6.61432 7.87535L6.8033 7.62334ZM8.88207 8.9464H8.56711L8.75609 9.26141L8.88207 8.9464ZM10.2679 6.30029L10.0159 6.7413H10.5829L10.2679 6.30029ZM11.7168 9.45042L11.8427 9.89143L12.2837 9.57642L11.7168 9.45042ZM8.56711 6.36329L8.69309 6.80431L9.13404 6.48929L8.56711 6.36329Z" fill="#D17A69"/>
<path d="M10.4569 8.19037L10.142 7.87536L10.016 8.31638L10.4569 8.19037ZM7.74822 5.92228L7.49626 6.17429L7.9372 6.3633L7.74822 5.92228ZM17.5121 7.18233L17.3231 6.80431L17.0712 7.18233H17.5121ZM18.331 11.5925L17.9531 11.8445L18.331 12.1595V11.5925ZM17.7011 9.95445L17.5751 10.3955L18.0791 10.3325L17.7011 9.95445ZM19.5909 11.3405L19.4019 11.7815L19.9688 11.7185L19.5909 11.3405ZM19.2129 10.2695H18.835L18.9609 10.7105L19.2129 10.2695ZM18.646 9.82844L18.52 9.45043L18.205 9.76544L18.646 9.82844ZM19.2129 11.3405L19.0239 11.0255L18.772 11.3405H19.2129ZM20.0318 10.9625L19.8428 10.5845L19.5909 10.9625H20.0318ZM13.3546 5.85927L13.2916 5.48126L12.9136 5.73327L13.3546 5.85927ZM17.3231 9.95445L16.3782 10.3955L17.2601 11.2145L17.3231 9.95445ZM18.52 7.37134L17.5751 7.81236L18.457 8.63139L18.52 7.37134ZM19.9688 11.2145L20.1578 11.7815L20.6618 11.2775L19.9688 11.2145ZM15.0554 9.89144V11.1515L16.3782 10.5845L15.0554 9.89144ZM16.8192 5.10324L16.7562 6.3633L18.0791 5.79627L16.8192 5.10324Z" fill="#D17A69"/>
<path d="M14.9293 2.83513L15.3703 4.03218L16.4411 3.02413L14.9293 2.83513ZM18.6459 7.30832L18.5829 8.56837L19.9057 8.06435L18.6459 7.30832ZM17.701 8.75738V10.0174L19.0238 9.45041L17.701 8.75738ZM16.6301 6.8043V8.06435L17.89 7.49733L16.6301 6.8043ZM18.079 9.89143L17.701 11.0885L19.0868 10.9625L18.079 9.89143Z" fill="#D17A69"/>
<path d="M18.6459 10.0804L18.457 11.3405L19.7798 10.9625L18.6459 10.0804ZM14.2364 6.04826L13.2286 6.48928L14.1734 7.30831L14.2364 6.04826ZM17.7641 10.8995L16.9451 11.5295L18.016 12.0965L17.7641 10.8995ZM13.8585 4.7882L13.1656 5.04022L13.7325 5.67024L13.8585 4.7882ZM16.5042 8.82038L16.1262 8.37936L15.7483 8.94638L16.5042 8.82038ZM10.3939 8.75738L10.8348 8.37936L10.1419 8.19035L10.3939 8.75738ZM9.19701 11.4665L9.44898 12.1595L10.0159 11.5925L9.19701 11.4665ZM13.2286 8.88338L12.7246 9.19839L13.2915 9.57641L13.2286 8.88338ZM13.2286 14.9316L12.7876 14.5536L12.5986 15.1836L13.2286 14.9316ZM12.5986 8.37936H13.3545L12.9136 7.62333L12.5986 8.37936ZM11.1498 3.78016L11.3388 4.34719L11.8427 3.90617L11.1498 3.78016ZM17.0081 5.48123L16.5042 5.79625L17.0711 6.17426L17.0081 5.48123ZM16.3152 3.21314L15.3073 3.65415L16.1892 4.47319L16.3152 3.21314ZM14.6144 3.02413L13.5435 4.28418L15.3073 4.85121L14.6144 3.02413ZM9.00803 0L8.12613 0.94504L9.51197 1.38606L9.00803 0ZM14.9924 5.48123L15.0554 7.1193L16.7562 6.36327L14.9924 5.48123ZM13.2286 2.64611L12.4726 3.40215L13.5435 3.90617L13.2286 2.64611ZM13.7955 1.44906L12.9766 2.14209L14.1105 2.58311L13.7955 1.44906ZM13.2915 11.5295L13.6065 12.1595L14.1734 11.5295H13.2915ZM15.0554 12.2855L15.6853 12.2225L15.3703 11.6555L15.0554 12.2855Z" fill="#D17A69"/>
<path d="M12.0317 11.9075L11.5278 12.2225L12.0947 12.6005L12.0317 11.9075ZM14.6145 6.86728L14.1735 7.30829L14.8664 7.56031L14.6145 6.86728ZM15.8113 3.27612L14.0475 1.70105L13.2286 4.15816L15.8113 3.27612ZM18.2051 4.85119L16.3783 3.27612L15.6223 5.79623L18.2051 4.85119ZM19.6539 7.11928L18.2051 5.2292L16.9452 7.56031L19.6539 7.11928ZM11.2758 1.82706L11.7798 2.96111L12.7247 1.95306L11.2758 1.82706Z" fill="#D17A69"/>
<path d="M13.8585 1.70107L11.7168 0.630028L11.5278 3.21314L13.8585 1.70107ZM20.6618 10.0804L20.0318 7.81233L17.9531 9.3874L20.6618 10.0804ZM13.9845 9.32439L14.9924 9.4504L14.6144 8.37935L13.9845 9.32439ZM16.5042 19.6568L15.6223 19.0898L15.4333 20.2869L16.5042 19.6568Z" fill="#D17A69"/>
<path d="M19.4019 19.1528L18.52 18.5858L18.331 19.7828L19.4019 19.1528ZM15.6223 19.1528L14.7404 20.0979L16.0633 20.6019L15.6223 19.1528ZM19.8429 17.0107L19.0869 18.0188L20.4728 18.3968L19.8429 17.0107ZM20.2208 14.1126L19.7169 15.2466L21.1027 15.3097L20.2208 14.1126Z" fill="#D17A69"/>
<path d="M19.7168 19.4678L18.7089 20.1609L19.9057 20.9169L19.7168 19.4678ZM17.764 19.2788L16.6931 19.9089L17.89 20.7279L17.764 19.2788ZM18.7089 18.2708L17.89 19.2788L19.2758 19.5939L18.7089 18.2708ZM17.764 21.2319L16.6931 21.988L17.953 22.681L17.764 21.2319ZM16.3151 10.7105L16.0632 11.9705L17.449 11.6555L16.3151 10.7105ZM16.7561 13.9866L18.016 14.1756L17.638 12.7896L16.7561 13.9866Z" fill="#D17A69"/>
<path d="M17.3231 12.9786L18.583 12.8525L17.8901 11.5925L17.3231 12.9786ZM17.6381 17.1997L16.5672 17.1367L17.0711 18.2078L17.6381 17.1997ZM15.9373 20.8539L15.0554 20.2869L14.8664 21.4839L15.9373 20.8539ZM18.205 14.6796L17.5121 14.4276V15.2467L18.205 14.6796ZM17.3231 19.4048L17.4491 18.7748L16.7562 18.9638L17.3231 19.4048ZM12.9136 15.2467L13.4805 15.1836L13.1656 14.5536L12.9136 15.2467ZM10.1419 16.3177L9.88994 16.9477H10.7088L10.1419 16.3177ZM14.9294 17.1367L14.2995 17.0737L14.4884 17.7038L14.9294 17.1367Z" fill="#D17A69"/>
<path d="M10.7718 21.6099L10.7088 20.9799L10.1419 21.2949L10.7718 21.6099ZM7.30721 11.5295L7.18123 12.2225L8.00014 11.9705L7.30721 11.5295ZM12.0317 10.8365L11.4018 10.8995L11.7797 11.4665L12.0317 10.8365ZM9.51197 16.3177L9.32299 15.7507L8.81904 16.2547L9.51197 16.3177ZM14.8664 11.9705L13.6065 12.4745L14.7404 13.5456L14.8664 11.9705ZM13.6695 15.6877L13.2286 15.1836L12.9136 15.7507L13.6695 15.6877Z" fill="#D17A69"/>
<path d="M14.3624 12.4745L14.9923 12.8525L15.0553 12.0335L14.3624 12.4745ZM15.4963 7.87533L15.3703 8.44236L16.0002 8.31635L15.4963 7.87533ZM19.6538 12.2855H19.0239L19.3389 12.9155L19.6538 12.2855ZM7.87414 5.10322L8.50407 5.48123L8.63006 4.6622L7.87414 5.10322ZM9.51196 0.630028L9.25999 1.19705L9.95291 1.13405L9.51196 0.630028ZM13.2285 5.48123L12.5986 5.41823L12.8506 6.04826L13.2285 5.48123ZM14.5514 15.2466L14.9923 15.7507L15.4333 15.0576L14.5514 15.2466ZM17.638 11.5295L17.2601 11.9705L17.89 12.1595L17.638 11.5295ZM19.4649 17.2627L18.8979 17.0107V17.7038L19.4649 17.2627ZM20.7247 15.4987H19.6538L20.0948 16.5697L20.7247 15.4987ZM19.2759 14.6796L17.764 15.3096L19.1499 16.5067L19.2759 14.6796ZM18.142 16.2547L17.1971 17.5777L19.0239 18.0188L18.142 16.2547ZM18.7719 10.7735L18.52 12.4115L20.3467 11.9075L18.7719 10.7735ZM19.3389 13.1046L18.268 13.0416L18.7089 14.1756L19.3389 13.1046ZM20.6617 12.8525L19.5908 13.0416L20.3467 14.0496L20.6617 12.8525ZM13.1656 19.1528L12.9766 19.8458L13.7955 19.7828L13.1656 19.1528Z" fill="#D17A69"/>
<path d="M14.4884 21.2319L14.9923 21.6099L15.1183 20.9799L14.4884 21.2319ZM11.9687 18.5228L11.3387 18.4598L11.5907 19.0898L11.9687 18.5228ZM19.3388 12.3485L19.5278 12.9156L20.0318 12.4745L19.3388 12.3485ZM17.0081 17.1367L16.4412 17.1997L16.8191 17.8298L17.0081 17.1367ZM12.2836 3.96917L11.9057 5.16622L13.2915 5.04022L12.2836 3.96917ZM21.2286 12.3485L20.6617 10.0174L18.5199 11.5925L21.2286 12.3485ZM21.2286 14.9316V12.5375L18.7719 13.6086L21.2286 14.9316ZM20.7877 17.7668L21.0397 15.4357L18.5199 16.1287L20.7877 17.7668ZM20.1577 20.3499L20.7877 18.0818L18.142 18.4598L20.1577 20.3499ZM19.4648 22.87L20.2207 20.6649L17.575 20.8539L19.4648 22.87ZM14.8663 15.3727L15.3703 15.6877L15.4333 15.0577L14.8663 15.3727ZM13.1025 15.5617L13.8585 16.2547L14.2364 15.1837L13.1025 15.5617Z" fill="#D17A69"/>
<path d="M13.7955 13.9236L14.2994 14.2386L14.3624 13.5456L13.7955 13.9236ZM15.0553 15.1207L15.5593 15.3727L15.6223 14.7426L15.0553 15.1207ZM10.8978 16.2547L11.5277 16.8217L11.8427 16.0027L10.8978 16.2547ZM13.6065 11.6555L13.2915 12.2855L14.1104 12.3485L13.6065 11.6555ZM16.7561 17.7668L16.0632 17.5778L16.1892 18.3338L16.7561 17.7668ZM15.3703 24.8231L14.4254 24.319L14.2994 25.5161L15.3703 24.8231ZM17.701 23.878L16.7561 23.374L16.6932 24.5711L17.701 23.878ZM16.5672 27.6582L16.3152 28.2252H17.0081L16.5672 27.6582Z" fill="#D17A69"/>
<path d="M14.0475 22.996L13.0396 23.752L14.2994 24.445L14.0475 22.996ZM17.764 24.193L16.7561 24.9491L17.953 25.7051L17.764 24.193ZM16.5672 24.382L15.5593 25.1381L16.7561 25.8311L16.5672 24.382ZM17.0081 22.0509L16.0002 22.807L17.1971 23.437L17.0081 22.0509ZM15.6223 27.1542L14.6144 27.9102L15.8113 28.6032L15.6223 27.1542ZM16.4412 25.8941L15.4333 26.6501L16.6302 27.4062L16.4412 25.8941ZM14.4884 25.3271L13.6065 24.7601L13.4805 25.9571L14.4884 25.3271ZM17.3231 19.0268L16.7561 18.5858L16.5672 19.4048L17.3231 19.0268ZM15.7483 23.5L15.9372 22.87L15.1813 22.933L15.7483 23.5ZM12.0317 18.6488L12.6616 18.7118L12.4096 18.0188L12.0317 18.6488ZM8.88204 18.9008L8.50408 19.5308L9.32299 19.6569L8.88204 18.9008ZM13.3545 20.7279L12.7876 20.4759L12.8506 21.1689L13.3545 20.7279ZM8.44109 24.13L8.50408 23.5L7.81116 23.752L8.44109 24.13ZM11.2758 22.303L10.8978 22.87L11.7167 22.996L11.2758 22.303ZM12.1577 24.382L12.5986 24.8861L12.8506 24.256L12.1577 24.382ZM9.70095 21.1059L9.13401 20.9169L9.197 21.6099L9.70095 21.1059Z" fill="#D17A69"/>
<path d="M18.4569 25.1381L19.4018 22.87L16.7561 22.933L18.4569 25.1381ZM17.449 27.3432L18.3939 25.1381L15.7482 25.0751L17.449 27.3432ZM9.57493 36.2265L8.63004 35.6595L8.50404 36.8566L9.57493 36.2265ZM11.5277 36.5416L10.6458 35.9115L10.3938 37.0456L11.5277 36.5416ZM10.7718 38.8097L9.8899 38.1796L9.70091 39.3767L10.7718 38.8097ZM10.6458 37.6126L9.70091 37.0456L9.57493 38.2426L10.6458 37.6126ZM9.57493 33.8324L8.50404 34.5255L9.70091 35.3445L9.57493 33.8324ZM12.5986 34.0845L11.5277 34.7145L12.7246 35.5965L12.5986 34.0845ZM14.2364 32.1314L13.1655 32.6984L14.2994 33.5804L14.2364 32.1314ZM11.2757 39.4397L12.0317 37.9906L10.1419 37.9276L11.2757 39.4397ZM9.00799 37.7386L7.93711 38.3686L9.07099 39.1877L9.00799 37.7386ZM11.3387 34.5885L10.2678 35.2815L11.4017 36.1005L11.3387 34.5885ZM8.37806 39.8177L7.43317 40.6367L8.63004 41.2668L8.37806 39.8177ZM14.3624 26.8391L13.3545 27.5322L14.5514 28.2882L14.3624 26.8391ZM12.2836 30.4303L13.2915 31.1863L13.6695 29.8633L12.2836 30.4303ZM13.5435 29.1702L14.5514 29.9263L14.9293 28.5402L13.5435 29.1702ZM12.3466 32.4464L11.4647 31.8794L11.3387 33.1394L12.3466 32.4464ZM8.0631 39.2507L7.1182 38.7466L7.05522 39.9437L8.0631 39.2507ZM10.1419 40.1957L9.19697 39.6287L9.07099 40.8257L10.1419 40.1957ZM13.4175 27.9732L12.9135 27.4692L12.5986 28.2252L13.4175 27.9732Z" fill="#D17A69"/>
<path d="M10.9608 32.0684L11.2758 31.5014L10.5828 31.4384L10.9608 32.0684ZM8.25211 26.5872L8.88204 26.7762L8.75606 26.0831L8.25211 26.5872ZM13.9844 26.6501L12.7246 26.1461L12.8506 27.6582L13.9844 26.6501ZM9.00802 28.6032L9.07102 27.9732L8.3781 28.2252L9.00802 28.6032ZM8.75606 25.3271L9.00802 26.0201L9.57496 25.4531L8.75606 25.3271ZM12.7876 22.744L12.2836 23.059L12.8506 23.437L12.7876 22.744ZM12.8506 28.7922L12.3466 28.3512L12.1577 29.0443L12.8506 28.7922ZM9.38598 20.7909L9.51196 21.5469L10.2049 21.0429L9.38598 20.7909ZM13.8585 18.9638L13.2915 19.2158L13.7955 19.6569L13.8585 18.9638ZM12.7246 24.8861L12.3466 24.4451L12.0317 25.0121L12.7246 24.8861ZM13.9215 32.8874L13.0396 32.2574L12.8506 33.4544L13.9215 32.8874Z" fill="#D17A69"/>
<path d="M13.6695 31.4384L12.0317 31.3124L12.7246 33.0764L13.6695 31.4384ZM11.2758 32.7614L10.0159 33.7695L11.6537 34.6515L11.2758 32.7614ZM16.0632 26.4611L14.7404 27.4692L16.3152 28.4142L16.0632 26.4611ZM14.4254 30.4303L13.5435 29.9263L13.3545 31.0603L14.4254 30.4303ZM15.8112 30.5563L14.8664 29.9893L14.7404 31.1863L15.8112 30.5563ZM5.73238 37.1716L6.17333 37.6756L6.42531 37.0456L5.73238 37.1716Z" fill="#D17A69"/>
<path d="M14.9293 29.5483L14.6773 30.0523H15.4333L14.9293 29.5483ZM10.7088 33.6435L10.0789 33.5804L10.3938 34.2735L10.7088 33.6435Z" fill="#D17A69"/>
<path d="M15.6853 30.4303L16.7562 28.3512L14.1105 28.2252L15.6853 30.4303ZM14.4884 33.0134L15.6853 30.9343L13.0396 30.6193L14.4884 33.0134ZM13.3545 35.4075L14.4884 33.3284L11.8427 33.0764L13.3545 35.4075ZM12.0317 37.9906L13.2915 35.7225L10.6458 35.6595L12.0317 37.9906ZM10.2679 41.3928L11.2758 39.3767L8.63007 39.1247L10.2679 41.3928ZM10.1419 29.2333L10.2679 29.8003L10.7718 29.3593L10.1419 29.2333ZM11.3388 30.5563L11.5907 31.5644L12.5356 30.8083L11.3388 30.5563ZM9.07102 32.5724L9.197 33.2024L9.82693 32.6984L9.07102 32.5724Z" fill="#D17A69"/>
<path d="M10.2679 27.4062L10.4569 27.9732L10.9608 27.5322L10.2679 27.4062ZM10.3939 29.1703L10.6459 29.6743L11.0868 29.2333L10.3939 29.1703ZM8.31514 44.4169L7.37024 44.8579L8.18914 45.614L8.31514 44.4169ZM5.9214 42.4638L6.74031 43.2829L7.11827 42.0228L5.9214 42.4638ZM5.22848 44.6689L6.04739 45.425L6.48834 44.1649L5.22848 44.6689ZM9.63798 31.4384L10.6459 31.9424L10.7089 30.6823L9.63798 31.4384ZM6.55133 41.2668L7.49623 41.8968L7.7482 40.6367L6.55133 41.2668ZM4.40957 39.1247L4.66155 39.7547L5.16549 39.1877L4.40957 39.1247ZM7.87418 36.5416L7.43323 36.9196L8.00017 37.1716L7.87418 36.5416ZM8.31514 42.0228L7.87418 41.7078L7.7482 42.2748L8.31514 42.0228ZM4.03162 31.4384L4.28358 32.0684L4.78753 31.5014L4.03162 31.4384ZM7.49623 28.8552L7.05528 29.2333L7.55922 29.5483L7.49623 28.8552ZM7.87418 34.3365L7.43323 34.0215L7.30725 34.5885L7.87418 34.3365ZM2.96074 37.7386L3.08672 38.3687L3.65366 37.9906L2.96074 37.7386ZM6.8663 35.9746L6.36235 36.2266L6.8663 36.6046V35.9746ZM6.17337 41.3928L5.79542 40.9518L5.54344 41.5188L6.17337 41.3928Z" fill="#D17A69"/>
<path d="M7.62219 44.9839L6.86627 44.6059L6.80327 45.5509L7.62219 44.9839Z" fill="#D17A69"/>
<path d="M8.0631 43.5979L6.80324 43.4719L7.1812 44.7949L8.0631 43.5979ZM8.25208 43.0938L7.55915 42.5268L7.30719 43.4719L8.25208 43.0938ZM9.32297 43.0938L8.50405 42.6528L8.44106 43.7869L9.32297 43.0938ZM8.0631 42.0228L7.87412 42.5898L8.50405 42.5268L8.0631 42.0228Z" fill="#D17A69"/>
<path d="M9.38596 43.2198L10.2679 41.2038L7.87412 40.9517L9.38596 43.2198ZM8.37807 45.3619L9.13398 43.6609L7.05522 43.5979L8.37807 45.3619ZM7.24419 47L8.25208 45.3619L6.17332 45.0469L7.24419 47Z" fill="#D17A69"/>
</svg>
