<svg width="35" height="64" viewBox="0 0 35 64" fill="none" xmlns="http://www.w3.org/2000/svg">
<path d="M24.2634 56.833L23.6349 56.3929L24.2006 56.0157L24.2634 56.833ZM25.4578 59.3477L25.772 58.279L26.4635 58.9705L25.4578 59.3477ZM31.0522 61.9882L31.4293 61.0452L32.1208 61.6739L31.0522 61.9882ZM29.2293 62.8055L29.5436 61.7996L30.2979 62.4283L29.2293 62.8055ZM25.5835 44.9509L26.4635 43.945L26.9035 45.0137L25.5835 44.9509ZM26.1492 46.8998L26.9664 45.8939L27.4692 46.8998H26.1492ZM30.4864 58.0275L31.3665 56.9587L31.8693 58.0275H30.4864Z" fill="#D17A69"/>
<path d="M30.8006 57.2102L31.4921 56.3929L31.8692 57.2731L30.8006 57.2102ZM22.3147 39.6071L22.6919 38.3497L23.5719 39.1041L22.3147 39.6071ZM21.4976 45.4538L21.9376 44.1964L22.7547 44.9509L21.4976 45.4538ZM25.6462 50.6719L26.1491 49.4145L26.9663 50.2318L25.6462 50.6719ZM27.092 50.6719L28.3492 50.4204L28.1606 51.552L27.092 50.6719ZM27.8463 57.2731L29.1035 56.8959L28.9777 58.0275L27.8463 57.2731ZM25.2062 48.3458L26.4634 48.0943L26.2748 49.2259L25.2062 48.3458ZM26.3377 53.2495L26.7777 51.9921L27.5949 52.8094L26.3377 53.2495ZM31.8064 60.1021L32.1207 59.0334L32.8121 59.7249L31.8064 60.1021ZM29.292 53.5638L28.5377 52.4322L29.6692 52.2436L29.292 53.5638ZM20.4918 41.4302L19.6747 40.4243L20.8061 40.1729L20.4918 41.4302ZM22.189 36.7151L21.3719 35.7092L22.5033 35.3949L22.189 36.7151ZM17.8518 34.6404L17.0975 33.5717L18.2289 33.3202L17.8518 34.6404ZM21.8747 47.4656L21.1833 46.4597L22.3147 46.2082L21.8747 47.4656ZM22.8805 49.7917L22.189 48.723L23.3205 48.4715L22.8805 49.7917ZM20.3033 34.0118L19.7375 32.943L20.869 32.8801L20.3033 34.0118Z" fill="#D17A69"/>
<path d="M16.9719 26.5304L16.3433 25.6503L17.2233 25.5245L16.9719 26.5304ZM18.9833 27.9764L17.8519 27.7878L18.3548 26.6562L18.9833 27.9764ZM15.0861 30.554L14.3947 29.7367L15.2747 29.4224L15.0861 30.554ZM17.789 27.7249L17.0976 26.9076L17.9776 26.5933L17.789 27.7249ZM30.6122 55.8899L29.9836 55.0098L30.9265 54.8212L30.6122 55.8899ZM29.8579 57.3988L29.2293 56.4558L30.1722 56.33L29.8579 57.3988ZM28.8522 53.8782L29.2293 52.8094L29.9207 53.5009L28.8522 53.8782ZM26.0864 55.0098L26.5264 53.8153L27.3435 54.5697L26.0864 55.0098ZM21.4977 59.6621L22.1263 59.7249L21.8748 60.2279L21.4977 59.6621ZM28.4121 54.0039L27.5321 54.1925L27.6578 53.4381L28.4121 54.0039ZM29.0407 55.1984L28.6636 54.5697H29.355L29.0407 55.1984ZM28.7893 58.7819L29.2922 58.2789L29.5436 58.9705L28.7893 58.7819ZM22.9434 45.9567L22.1891 45.5167L22.8806 45.0137L22.9434 45.9567ZM20.8691 38.4754L20.1148 38.0353L20.8062 37.5324L20.8691 38.4754ZM24.2006 47.1513L23.4463 46.7112L24.0749 46.2082L24.2006 47.1513ZM27.2807 49.7917L27.595 49.1002L28.035 49.6031L27.2807 49.7917ZM26.5264 48.0943L26.8407 47.4656L27.2807 47.8428L26.5264 48.0943ZM21.3091 50.6719L22.0634 50.7347L21.7491 51.3006L21.3091 50.6719ZM24.012 44.7622L24.7663 44.8251L24.452 45.3909L24.012 44.7622ZM23.6977 42.1846L23.0063 42.7505L22.8177 41.996L23.6977 42.1846ZM23.3206 40.3615L22.6291 40.8644L22.4406 40.11L23.3206 40.3615ZM19.5491 29.1709L19.2348 30.2397L18.9833 29.4224L19.5491 29.1709ZM25.7092 42.3104L24.3263 42.0589L25.0806 41.053L25.7092 42.3104ZM24.7663 40.2357L23.4463 40.0471L24.2006 39.0412L24.7663 40.2357Z" fill="#D17A69"/>
<path d="M23.6977 45.3281L23.1948 44.0079L24.452 44.2593L23.6977 45.3281ZM22.2519 42.1847L21.7491 40.8644L23.0062 41.053L22.2519 42.1847ZM26.1492 52.6837L25.7092 51.3006L26.9035 51.5521L26.1492 52.6837ZM29.9207 58.719L29.4178 57.3988L30.6121 57.5246L29.9207 58.719ZM15.4003 36.3379L15.8403 35.7092L16.1546 36.275L15.4003 36.3379ZM14.2689 27.6621L14.4575 28.4165L13.8289 28.2908L14.2689 27.6621ZM19.7376 36.4637L19.109 36.9666L18.9833 36.275L19.7376 36.4637ZM20.1776 30.554L20.4919 31.2456H19.8633L20.1776 30.554ZM22.0634 37.5953L22.2519 38.2868H21.6234L22.0634 37.5953ZM19.549 29.1081L18.7319 28.9823L19.109 28.3536L19.549 29.1081ZM23.5091 53.4381L24.0748 53.5638L23.7605 53.9411L23.5091 53.4381ZM21.1205 52.3693V52.8723L20.7433 52.6837L21.1205 52.3693ZM24.7034 50.5462L24.2006 50.6719L24.2634 50.2318L24.7034 50.5462ZM30.1721 58.9705L30.7379 59.0334L30.4236 59.4735L30.1721 58.9705ZM27.7206 57.9646L27.7835 58.4047L27.4064 58.279L27.7206 57.9646ZM31.2407 56.0157L30.8007 56.2043L30.8636 55.7642L31.2407 56.0157Z" fill="#D17A69"/>
<path d="M12.0688 46.7112L11.6288 46.6483L11.8802 46.2711L12.0688 46.7112ZM16.9089 47.277V46.7741L17.2861 46.8998L16.9089 47.277ZM19.8004 42.8762V43.7564L19.0461 43.442L19.8004 42.8762ZM20.8062 38.7898L20.0519 38.9784L20.2404 38.2868L20.8062 38.7898ZM24.452 43.5678L24.1377 42.8762L24.7663 42.8133L24.452 43.5678ZM14.0803 25.4617L14.4574 26.1532H13.766L14.0803 25.4617ZM15.526 24.0786L15.9032 24.7073L15.2746 24.7701L15.526 24.0786ZM15.7775 22.1925L15.3375 22.6955L15.1489 22.1297L15.7775 22.1925ZM19.109 28.5422L18.5433 28.2908L18.9204 27.9136L19.109 28.5422ZM17.7261 32L17.4118 31.497L17.9147 31.4342L17.7261 32ZM17.0346 37.4695L16.9718 38.1611L16.4061 37.9096L17.0346 37.4695ZM22.3776 42.8762L22.2519 44.1336L21.2462 43.6306L22.3776 42.8762Z" fill="#D17A69"/>
<path d="M15.4003 34.6405V35.3949L14.8346 35.1434L15.4003 34.6405ZM17.2233 36.9666L17.1604 37.721L16.5947 37.4067L17.2233 36.9666ZM14.0175 28.0393L12.7603 28.2908L13.0117 27.1591L14.0175 28.0393ZM16.0918 22.0039L14.8975 21.6896L15.4003 20.558L16.0918 22.0039ZM14.5832 24.1414L13.3889 24.3929L13.5774 23.2613L14.5832 24.1414ZM17.5375 28.165L16.3432 28.5422L16.4689 27.4106L17.5375 28.165ZM28.7893 51.6778V50.7348L29.4807 51.0491L28.7893 51.6778ZM27.9721 55.7642L28.7264 55.5756L28.6007 56.2043L27.9721 55.7642ZM24.0748 51.2377L24.452 51.8664L23.8234 51.9293L24.0748 51.2377ZM25.772 52.6208L25.3949 53.4381L24.892 52.8723L25.772 52.6208ZM28.1607 49.1002L27.4692 49.0373L27.8464 48.4086L28.1607 49.1002ZM29.7321 54.9469L29.6693 54.3183L30.2979 54.5069L29.7321 54.9469Z" fill="#D17A69"/>
<path d="M29.7322 55.7642L29.6693 54.8212L30.3607 55.1355L29.7322 55.7642ZM29.1664 59.9764L29.8579 59.7249L29.795 60.4165L29.1664 59.9764ZM25.0806 55.3241L25.4578 55.9528L24.8292 56.0157L25.0806 55.3241ZM25.8349 47.8428L24.3892 46.5854L25.9606 45.8939L25.8349 47.8428ZM31.0522 60.7308L30.1093 59.9135L31.0522 59.4106V60.7308ZM33.2523 58.9705L31.3665 58.5304L32.3722 57.0216L33.2523 58.9705ZM31.2408 54.5069L29.355 54.0668L30.2979 52.4322L31.2408 54.5069ZM32.1836 56.6444L30.2979 56.2043L31.3665 54.6955L32.1836 56.6444Z" fill="#D17A69"/>
<path d="M30.235 52.3065L28.3493 51.8035L29.4179 50.4833L30.235 52.3065ZM29.355 50.4204L27.4693 49.9175L28.5379 48.5344L29.355 50.4204ZM28.475 48.4086L26.5892 47.9057L27.6578 46.5854L28.475 48.4086ZM26.0864 46.9627L25.2063 45.2023L26.9035 45.1395L26.0864 46.9627ZM24.0749 42.1218L23.1949 40.3615L24.8921 40.4872L24.0749 42.1218ZM23.0063 40.0471L22.1263 37.8467L23.8235 39.2298L23.0063 40.0471ZM26.4635 44.0707L24.5778 43.5678L25.6464 42.1847L26.4635 44.0707ZM34.1951 61.1709L32.3094 60.668L33.378 59.2849L34.1951 61.1709Z" fill="#D17A69"/>
<path d="M32.8122 64L33.0636 61.9882L34.5094 62.9941L32.8122 64ZM30.3607 63.497L30.6121 61.611L32.0579 62.554L30.3607 63.497ZM19.3604 29.4224L17.6004 30.3654L17.5375 28.5422L19.3604 29.4224ZM20.9319 36.778L19.4861 35.4577L21.0576 34.7662L20.9319 36.778ZM24.3891 54.2554L23.6348 54.3811L23.7605 53.6896L24.3891 54.2554ZM27.9721 54.3811L27.6578 53.7524H28.2235L27.9721 54.3811ZM24.5777 58.4047L25.0806 58.0275L25.2063 58.5933L24.5777 58.4047ZM26.9663 45.0137L27.5949 46.4597L26.3377 46.3968L26.9663 45.0137ZM25.4577 43.7564L25.8977 45.1395L24.6405 45.0137L25.4577 43.7564ZM21.5605 36.4636L22.3776 35.5206L22.8177 36.5894L21.5605 36.4636ZM22.8177 38.9155L23.6348 37.9096L24.1377 39.0412L22.8177 38.9155ZM19.2347 32.6287L18.5433 33.1945L18.3547 32.4401L19.2347 32.6287ZM18.6061 30.9312L17.9775 31.5599L17.7261 30.7426L18.6061 30.9312ZM21.1205 32.6915L19.8004 32.6287L20.3662 31.4342L21.1205 32.6915ZM20.3033 30.8055L19.0461 30.4911L19.6747 29.4224L20.3033 30.8055ZM17.5375 32.8173L16.9718 31.5599L18.229 31.6856L17.5375 32.8173Z" fill="#D17A69"/>
<path d="M16.3432 33.3831L16.406 34.2633L15.6517 34.0118L16.3432 33.3831ZM17.0346 29.2967L16.2803 29.4853L16.406 28.8566L17.0346 29.2967ZM18.5432 35.3949L18.1661 34.7662L18.7947 34.7033L18.5432 35.3949ZM22.3776 39.0413L21.4976 37.2181H23.1948L22.3776 39.0413ZM19.549 32.6916L18.4804 30.9312L19.989 30.8055L19.549 32.6916ZM22.4405 35.3949L20.5547 34.6405L21.5604 33.3831L22.4405 35.3949ZM17.4118 24.7073L15.4631 24.2043L16.4689 22.7583L17.4118 24.7073ZM18.2918 26.5305L16.7832 26.0904L17.4746 24.833L18.2918 26.5305Z" fill="#D17A69"/>
<path d="M22.8805 36.275L23.5719 37.8468L22.3148 37.6581L22.8805 36.275ZM21.8119 34.8291L22.2519 36.2122L21.0576 36.0864L21.8119 34.8291ZM24.452 57.4617L23.6976 57.5874L23.8234 56.8959L24.452 57.4617ZM28.0349 57.5874L27.7206 56.9587H28.2863L28.0349 57.5874ZM24.6405 61.611L25.1434 61.2338L25.2691 61.7996L24.6405 61.611ZM25.5834 55.8271L25.7091 54.9469L26.4006 55.387L25.5834 55.8271ZM24.2005 59.7878L24.9548 59.7249L24.7663 60.3536L24.2005 59.7878ZM21.1204 54.3811L21.3719 55.0727L20.7433 55.0098L21.1204 54.3811ZM22.1262 48.9744L21.9376 48.3458L22.5033 48.4715L22.1262 48.9744ZM22.189 51.9921L22.6291 51.7407V52.2436L22.189 51.9921ZM18.8575 49.2259L19.1718 49.6031L18.7318 49.7289L18.8575 49.2259ZM17.2232 39.8585L17.4746 40.3615H16.9718L17.2232 39.8585ZM16.4689 37.2181L16.1546 37.5324L16.0289 37.1552L16.4689 37.2181ZM20.1147 39.0412L19.7376 38.7269L20.1147 38.5383V39.0412ZM13.0745 26.0904L12.7602 25.6503L13.2002 25.5874L13.0745 26.0904ZM13.4517 30.9312L13.766 30.6169L13.9545 30.9941L13.4517 30.9312Z" fill="#D17A69"/>
<path d="M17.4747 40.9273L16.8461 40.4244L17.4747 40.11V40.9273ZM19.6747 43.8193L19.989 43.2534L20.3033 43.6935L19.6747 43.8193ZM14.4575 43.6306L15.0861 43.8193L14.7718 44.2593L14.4575 43.6306ZM17.0347 42.8762L17.789 42.4362L17.8518 43.2534L17.0347 42.8762ZM13.2003 44.2593L13.7032 44.7623L13.1374 45.0137L13.2003 44.2593ZM15.2118 38.4126L14.8346 39.1041L14.4575 38.5383L15.2118 38.4126ZM14.206 36.0864L14.5203 35.5835L14.8346 36.0864H14.206ZM12.1946 38.1611L12.6974 38.3497L12.3831 38.7269L12.1946 38.1611ZM11.6917 33.8232V34.389L11.2517 34.1375L11.6917 33.8232ZM12.3203 19.3635L12.5089 18.1061L13.4517 18.6719L12.3203 19.3635ZM10.8745 21.5639L9.93166 20.6837L11.0002 20.2436L10.8745 21.5639ZM11.6917 16.5972L10.7488 15.78L11.8174 15.277L11.6917 16.5972ZM6.91444 15.4656L5.97156 14.5855L7.04016 14.0825L6.91444 15.4656ZM10.2459 13.9568L9.49165 12.9509L10.6231 12.6994L10.2459 13.9568ZM5.72013 6.85264L5.02869 5.97249L5.97156 5.72102L5.72013 6.85264ZM8.0459 8.11001L6.9773 8.04714L7.41731 7.16699L8.0459 8.11001ZM4.84011 11.2534L4.08581 10.4361L4.96583 10.1218L4.84011 11.2534ZM6.66301 7.98428L5.90871 7.16699L6.78873 6.85264L6.66301 7.98428ZM10.7488 18.5462L9.93166 18.2947L10.4974 17.666L10.7488 18.5462ZM14.206 21.6896L13.5775 22.3811L13.2632 21.6896H14.206ZM13.4517 19.9293L12.886 20.6208L12.5717 19.8664L13.4517 19.9293ZM8.48591 9.30451L8.23448 10.3733L7.92018 9.61885L8.48591 9.30451ZM14.9603 19.6778L13.5146 19.6149L14.206 18.2318L14.9603 19.6778ZM12.6974 22.0039L12.006 20.7466H13.2632L12.6974 22.0039Z" fill="#D17A69"/>
<path d="M6.91446 17.2888L7.1659 16.5344L7.66876 16.9745L6.91446 17.2888ZM9.24023 16.8487L8.6745 17.4145L8.48593 16.7858L9.24023 16.8487ZM9.17737 10.6876L9.55452 11.3792L8.86308 11.442L9.17737 10.6876ZM11.6917 17.4774L12.0689 18.169L11.3774 18.2318L11.6917 17.4774ZM8.48593 9.30451L7.60591 9.17878L7.98305 8.55009L8.48593 9.30451ZM10.4974 23.0727L10.6231 24.0157L9.86881 23.8271L10.4974 23.0727ZM10.686 18.9234L9.99454 19.1748L10.0574 18.5462L10.686 18.9234ZM15.1489 22.947L14.7089 22.3183L15.3375 22.1297L15.1489 22.947Z" fill="#D17A69"/>
<path d="M5.46873 10.5619L5.90875 11.2534L5.28016 11.3163L5.46873 10.5619ZM4.02299 4.9666L4.40014 5.59528L3.77155 5.72102L4.02299 4.9666ZM4.40014 6.3497L3.96013 6.85265L3.77155 6.28683L4.40014 6.3497ZM7.98308 8.7387L7.41735 8.48723L7.79451 8.11001L7.98308 8.7387ZM6.78877 12.2593L6.41161 11.8192L6.97735 11.6935L6.78877 12.2593ZM6.53734 18.3576L6.60019 19.0491L6.03447 18.9234L6.53734 18.3576ZM4.52585 15.8428L4.58872 16.5972L3.96013 16.4086L4.52585 15.8428ZM7.98308 18.7348L8.04594 19.4263L7.41735 19.2377L7.98308 18.7348ZM3.58297 2.95481L2.57724 3.45776L2.70296 2.07465L3.58297 2.95481ZM5.46873 7.5442L4.21156 7.79567L4.40014 6.66404L5.46873 7.5442ZM6.41161 8.48723L5.2173 8.9273L5.28016 7.7328L6.41161 8.48723ZM14.5204 21.6267L13.3261 19.9921L15.0861 19.8664L14.5204 21.6267ZM13.0118 19.3006L11.8175 17.7289L13.5146 17.3517L13.0118 19.3006ZM8.29737 9.61885L6.60019 10.6247L6.41161 8.86444L8.29737 9.61885ZM10.4974 16.9116L8.80024 15.8428L10.246 14.8998L10.4974 16.9116ZM11.3774 16.0314L12.0689 14.9627L12.6975 15.9057L11.3774 16.0314Z" fill="#D17A69"/>
<path d="M12.886 18.3576L13.6403 17.1002L14.2061 18.169L12.886 18.3576ZM8.29734 12.7623L7.73161 13.391L7.41732 12.6365L8.29734 12.7623ZM7.6059 11.1906L7.04016 11.8193L6.72587 11.0648L7.6059 11.1906ZM10.9374 12.3222L9.55451 12.3851L10.1202 11.0648L10.9374 12.3222ZM9.8688 10.6876L8.48591 10.6247L9.05165 9.49312L9.8688 10.6876ZM6.66302 13.0766L6.03443 11.8821L7.2916 11.945L6.66302 13.0766ZM5.53156 13.7682L5.59442 14.6483L4.84011 14.3969L5.53156 13.7682ZM5.97157 9.61886L5.28013 9.87033V9.17878L5.97157 9.61886Z" fill="#D17A69"/>
<path d="M11.0003 13.5167L10.5603 12.888L11.1889 12.8251L11.0003 13.5167ZM12.3203 18.8605L11.126 17.2259L12.7603 16.9116L12.3203 18.8605ZM8.61166 12.7623L7.48021 11.1906L8.98881 10.9391L8.61166 12.7623ZM12.5089 15.0255L10.4974 14.6483L11.4403 13.2023L12.5089 15.0255Z" fill="#D17A69"/>
<path d="M6.09724 5.59529L4.58864 5.65816L4.77722 4.14932L6.09724 5.59529ZM7.2287 6.9784L5.90867 6.91553L6.28582 5.7839L7.2287 6.9784ZM12.6974 15.3399L13.5774 16.9116L12.2574 16.9745L12.6974 15.3399ZM11.0002 14.8369L11.6917 16.0943L10.4345 16.1572L11.0002 14.8369ZM7.41728 20.558L7.73157 20.998L7.2287 21.0609L7.41728 20.558ZM6.22297 18.169L5.90867 18.5462L5.7201 18.169H6.22297ZM10.1202 19.1749L9.6802 19.0491L9.99449 18.7976L10.1202 19.1749ZM2.89146 4.4008L2.70288 3.96072L3.14289 3.89785L2.89146 4.4008Z" fill="#D17A69"/>
<path d="M0.691481 0.440077L3.24671e-05 0.628684L0.0628944 0L0.691481 0.440077ZM2.57724 1.94892L1.63436 2.13752L1.5715 1.13163L2.57724 1.94892ZM4.77729 4.08644L3.26868 4.84086L3.64584 2.95481L4.77729 4.08644ZM5.65731 12.3222L5.78303 13.2024L5.02872 13.0138L5.65731 12.3222ZM1.38292 1.00589L0.691481 1.32023L0.754334 0.628684L1.38292 1.00589ZM5.78303 6.34971L5.34302 5.72102L5.9716 5.59528L5.78303 6.34971ZM3.08011 5.53241L3.39441 5.1552L3.58297 5.59528L3.08011 5.53241ZM3.7087 13.0766L4.02299 12.5737L4.33728 13.0138L3.7087 13.0766ZM4.65158 8.48723V8.99017L4.21156 8.80157L4.65158 8.48723ZM28.475 63.4342L28.7264 64L28.2236 63.9371L28.475 63.4342ZM27.7207 60.9195L27.4064 61.2338L27.2178 60.7937L27.7207 60.9195ZM31.3665 62.6169L30.9893 62.3654L31.3665 62.1768V62.6169ZM25.2064 49.1631L25.0178 48.723H25.4578L25.2064 49.1631ZM25.2692 53.6267L25.6464 53.3124L25.7721 53.7525L25.2692 53.6267ZM15.6518 43.8821L15.0861 43.3792L15.6518 43.0648V43.8821ZM17.789 46.8998L18.1033 46.2711L18.4176 46.7741L17.789 46.8998ZM12.5718 46.5855L13.2003 46.7741L12.8861 47.2141L12.5718 46.5855ZM15.149 45.8939L15.9661 45.4538L16.029 46.2711L15.149 45.8939ZM11.3146 47.1513L11.8175 47.5914L11.1889 47.8428L11.3146 47.1513ZM13.4518 41.3045L13.0746 41.9961L12.6975 41.3674L13.4518 41.3045ZM25.3321 58.8448L25.7092 58.4047L25.9607 58.9077L25.3321 58.8448ZM23.0692 60.668L23.572 60.9195L23.1949 61.1709L23.0692 60.668ZM23.132 56.2672L23.0692 56.7701L22.692 56.5187L23.132 56.2672ZM17.7262 49.6031L17.5376 49.0373L18.0405 49.1002L17.7262 49.6031ZM18.1033 52.2436L18.5433 51.9921L18.6062 52.4322L18.1033 52.2436ZM14.709 49.9804L15.0861 50.3576L14.709 50.4833V49.9804ZM19.4862 56.2672L19.6748 56.7073L19.1719 56.6444L19.4862 56.2672ZM23.3206 59.5992L22.8806 59.7878L22.8177 59.4106L23.3206 59.5992ZM16.3433 49.2888L16.8462 49.9175L16.2176 50.1061L16.3433 49.2888ZM14.709 46.0825L14.3318 46.6483L14.0175 46.0825H14.709ZM19.8634 47.277L19.2348 46.9627L19.6748 46.5855L19.8634 47.277ZM17.1604 47.4656L16.3433 47.78L16.4061 47.0255L17.1604 47.4656Z" fill="#D17A69"/>
<path d="M21.1833 46.8998L20.7433 46.334L21.3719 46.2082L21.1833 46.8998ZM18.1032 52.1807L18.6061 51.6149L18.9204 52.3065L18.1032 52.1807ZM20.2404 54.5697L19.8004 54.9469L19.6118 54.5069L20.2404 54.5697ZM22.6919 53.1238L22.2519 52.8094L22.6919 52.5579V53.1238ZM22.0633 57.3988L22.2519 56.8959L22.5662 57.2102L22.0633 57.3988ZM15.2117 27.5992L15.3375 26.719L15.966 27.1591L15.2117 27.5992ZM13.766 31.5599L14.5203 31.497L14.3317 32.1257L13.766 31.5599ZM10.6859 26.1532L10.9374 26.8448L10.3088 26.7819L10.6859 26.1532ZM9.0516 28.0393L9.24017 28.4794L8.80016 28.4165L9.0516 28.0393ZM9.8059 26.3418L9.36589 26.719L9.17731 26.2161L9.8059 26.3418ZM12.2574 24.8959L11.8802 24.6444L12.2574 24.3929V24.8959ZM11.6917 29.1709L11.8174 28.668L12.1317 28.9823L11.6917 29.1709ZM17.0975 36.1493L17.2232 35.2063L17.9147 35.7092L17.0975 36.1493ZM15.7146 40.11L16.4689 40.0471L16.2803 40.6129L15.7146 40.11ZM12.6345 34.6405L12.886 35.3949L12.2574 35.332L12.6345 34.6405ZM11.0002 36.5894L11.1259 37.0295L10.6859 36.9666L11.0002 36.5894ZM11.7545 34.8291L11.3145 35.2691L11.1259 34.7033L11.7545 34.8291ZM14.206 33.3831L13.766 33.1316L14.1431 32.8801L14.206 33.3831ZM13.5774 37.721L13.766 37.2181L14.0803 37.5324L13.5774 37.721ZM22.189 58.7819L21.5605 58.5933L21.9376 58.1532L22.189 58.7819Z" fill="#D17A69"/>
</svg>
