<svg width="175" height="67" viewBox="0 0 175 67" fill="none" xmlns="http://www.w3.org/2000/svg">
<path d="M13.9967 14.2321L14.8867 14.6364V13.5043L13.9967 14.2321ZM10.5987 17.4667L10.4369 18.1136L11.0841 18.0328L10.5987 17.4667ZM5.33978 8.65249L5.50159 9.21855L6.06794 8.73336L5.33978 8.65249ZM12.2977 7.52039L11.8932 7.84384L12.3786 8.1673L12.2977 7.52039ZM10.6796 13.747L10.2751 13.3426L10.1133 13.9087L10.6796 13.747ZM8.00968 15.7686L7.60515 16.4155L8.41422 16.4963L8.00968 15.7686ZM3.07441 20.2969L3.80257 19.4075L2.50807 19.0031L3.07441 20.2969ZM8.41422 13.5852L9.30419 14.0704L9.22328 12.8574L8.41422 13.5852ZM8.89966 8.57162L8.73784 9.46113L9.62781 9.21855L8.89966 8.57162ZM9.62781 15.526L9.87053 14.3939L8.57603 14.5556L9.62781 15.526ZM7.84787 12.534L8.65694 12.6148L8.25241 11.7253L7.84787 12.534ZM11.165 6.06484L11.4077 7.0352L12.2977 6.3883L11.165 6.06484ZM1.21357 21.1056L2.10354 21.5099L2.02263 20.3778L1.21357 21.1056ZM9.22328 15.6877L9.06147 16.7389L10.1133 16.4963L9.22328 15.6877ZM3.39803 18.8414L4.288 19.2457L4.2071 18.1136L3.39803 18.8414ZM11.4077 13.5043L11.2459 14.4747L12.2977 14.2321L11.4077 13.5043Z" fill="#AD5C49"/>
<path d="M7.20065 17.871L8.17152 17.9519L7.68609 16.8198L7.20065 17.871ZM12.7023 9.70373L12.8641 10.6741L13.7541 10.0272L12.7023 9.70373ZM8.98058 19.084L10.0324 18.5988L8.98058 17.6284V19.084ZM9.30421 4.69012L9.46602 5.49877L10.1942 5.01358L9.30421 4.69012ZM15.3722 14.0704L14.0777 15.2834L15.9385 16.1729L15.3722 14.0704ZM13.1068 6.87347L11.7314 8.89508L14.0777 9.78457L13.1068 6.87347ZM12.6214 10.9975L13.9968 11.4827L14.0777 9.94631L12.6214 10.9975ZM15.2913 15.9303L15.1295 16.4963L15.7767 16.4155L15.2913 15.9303ZM9.54693 7.03519L9.78965 7.76296L10.356 7.19692L9.54693 7.03519ZM10.356 0L10.5178 0.808644L11.165 0.242583L10.356 0ZM10.6796 5.90309L10.1942 6.22654L10.7605 6.63086L10.6796 5.90309ZM15.2104 13.4235L14.5631 11.2401L12.7023 13.1809L15.2104 13.4235ZM12.5405 14.5556L12.2168 15.2834L13.0259 15.3642L12.5405 14.5556ZM10.9223 2.34506L9.70874 3.31542L11.3269 4.2858L10.9223 2.34506ZM13.1068 12.2914L11.7314 11.2401L11.3269 13.1809L13.1068 12.2914ZM11.0032 11.8062L11.246 11.1593H10.5178L11.0032 11.8062ZM5.90615 13.6661L6.14887 13.1H5.42071L5.90615 13.6661ZM8.41424 5.98396L8.65696 5.4179H7.9288L8.41424 5.98396ZM6.39158 19.8926L7.52427 19.4075L6.5534 18.4371L6.39158 19.8926ZM0 17.7093L0.566341 17.9519V17.2241L0 17.7093ZM8.98058 10.9167L8.81877 11.887L9.87055 11.5636L8.98058 10.9167ZM11.6505 17.1432L12.055 15.9303L10.6796 16.1729L11.6505 17.1432ZM4.12621 16.658H5.09709L4.61165 15.6068L4.12621 16.658ZM9.62783 8.49076L9.78965 9.46112L10.6796 8.81421L9.62783 8.49076ZM4.69255 19.4075L5.58252 19.8118L5.50162 18.6797L4.69255 19.4075ZM6.22977 16.4155L6.14887 17.305L6.95793 17.0624L6.22977 16.4155ZM13.2686 17.5476L14.644 16.9815L13.3495 15.9303L13.2686 17.5476ZM11.8123 16.7389L12.7023 16.8198L12.2977 15.6877L11.8123 16.7389Z" fill="#AD5C49"/>
<path d="M12.2977 3.80062L10.8414 5.33704L12.945 6.06484L12.2977 3.80062ZM11.4077 0.970374L10.5178 1.77902L11.7314 2.26421L11.4077 0.970374ZM11.4886 17.1432L12.6213 17.305L12.2168 15.9303L11.4886 17.1432ZM10.6796 8.65248L11.0032 10.5932L12.6213 9.38025L10.6796 8.65248ZM12.7022 13.8278L11.8123 14.2321L12.6213 15.0407L12.7022 13.8278ZM170.55 58.3031L171.036 57.4136L169.903 57.3328L170.55 58.3031ZM174.11 61.942L174.838 62.1846L174.596 61.1334L174.11 61.942ZM164.32 66.6322L164.968 66.4704L164.563 65.9044L164.32 66.6322ZM163.754 59.5161L163.997 60.0013L164.401 59.5161H163.754ZM169.822 61.6186L169.418 61.942L169.984 62.1846L169.822 61.6186ZM171.602 64.4488L172.249 64.8531L172.411 64.0445L171.602 64.4488ZM169.579 63.8828L170.065 62.9933H168.851L169.579 63.8828ZM164.563 62.9933L165.372 63.2358L165.21 62.3463L164.563 62.9933ZM171.602 62.8315L170.469 62.4272L170.55 63.721L171.602 62.8315ZM168.447 64.3679L168.608 63.5593L167.638 63.8828L168.447 64.3679ZM162.217 60.5673L163.188 60.4056L162.621 59.5161L162.217 60.5673Z" fill="#AD5C49"/>
<path d="M174.029 64.7723L174.11 63.8019L172.977 64.2062L174.029 64.7723ZM171.764 59.1926L172.816 59.0309L172.249 58.1414L171.764 59.1926ZM175 63.7211L174.838 62.5081L173.625 63.5593L175 63.7211ZM160.68 62.3464L161.57 62.2655L161.084 61.4569L160.68 62.3464ZM170.469 56.9285L171.602 58.3031L172.654 56.5241L170.469 56.9285ZM163.107 58.7075L165.049 60.2439L166.1 57.9797L163.107 58.7075ZM167.233 59.5161L167.799 58.1414L166.262 57.8988L167.233 59.5161ZM172.33 57.171L172.896 57.4136V56.6858L172.33 57.171ZM163.026 62.2655L163.835 62.1038L163.269 61.4569L163.026 62.2655ZM156.149 60.9717L156.877 60.8099L156.392 60.163L156.149 60.9717ZM161.974 61.0525L162.298 61.5377L162.783 61.0525H161.974ZM169.822 57.0093L167.638 57.5754L169.418 59.5161L169.822 57.0093ZM170.793 59.7587L171.44 60.163L171.602 59.3544L170.793 59.7587ZM158.414 60.5673L159.385 61.8612L160.437 60.3247L158.414 60.5673ZM168.528 59.1118L167.395 60.4056L169.256 60.8908L168.528 59.1118ZM167.88 61.1334L167.314 60.8908L167.233 61.5377L167.88 61.1334ZM169.418 66.3896L168.851 66.0661L168.77 66.7939L169.418 66.3896ZM161.974 63.3167L161.408 63.0742L161.327 63.7211L161.974 63.3167ZM173.382 62.589L173.706 62.0229H172.977L173.382 62.589ZM166.829 63.0742L167.88 63.3167L167.638 62.2655L166.829 63.0742ZM173.301 60.8099L172.168 60.4056L172.249 61.6994L173.301 60.8099ZM172.896 63.3167L172.977 62.3464L171.926 62.7507L172.896 63.3167ZM164.482 62.3464L165.534 62.1846L164.887 61.2951L164.482 62.3464ZM172.249 65.5809L173.058 65.6618L172.977 64.8532L172.249 65.5809Z" fill="#AD5C49"/>
<path d="M174.11 58.9501L173.867 57.5754L172.573 58.6266L174.11 58.9501ZM172.896 60.7291L172.977 59.7587L171.926 60.0822L172.896 60.7291ZM160.032 59.2735L161.489 60.8908L162.298 58.7883L160.032 59.2735ZM157.12 60.0013L157.929 60.9717L158.414 59.7587L157.12 60.0013ZM174.434 60.4056L174.272 59.2735L173.139 60.0822L174.434 60.4056ZM164.725 61.2951L166.667 61.0525L165.615 59.3544L164.725 61.2951ZM170.065 59.597L170.388 60.4865L171.278 59.7587L170.065 59.597Z" fill="#AD5C49"/>
</svg>
