<svg width="46" height="27" viewBox="0 0 46 27" fill="none" xmlns="http://www.w3.org/2000/svg">
<path d="M37.8771 26.6943L36.8534 25.5482L36.3749 26.6943H37.8771ZM36.5196 22.911L36.4083 23.1002L36.9646 23.0223L36.7866 23.8012L37.5989 23.4674L36.9646 23L37.2651 22.911L36.82 22.299L36.5084 22.8888L35.9298 22.3324L35.8519 23.1781L36.5196 22.911ZM31.0449 24.7693L31.1006 23.2115L29.7208 24.2797L31.0449 24.7693ZM28.5747 23.8457L28.5969 23.0668L27.9071 23.6009L28.5747 23.8457ZM22.6105 22.5994L22.1654 21.1307L21.342 22.4214L22.6105 22.5994ZM25.5036 18.1708L26.2825 17.9705L25.6371 17.5032L25.5036 18.1708ZM27.3173 15.1442L27.8959 14.866L27.3618 14.5989L27.3173 15.1442ZM31.2675 11.6057L31.8461 11.3164L31.312 11.0494L31.2675 11.6057Z" fill="#8FC9C9"/>
<path d="M33.7378 8.74603L34.2941 8.41219L33.7378 8.18967V8.74603ZM29.4649 17.403L30.0213 17.0915L29.4649 16.8467V17.403ZM28.0629 19.584L28.6192 19.2502L28.0629 19.0276V19.584ZM31.4344 23.7233L31.4455 23.5341L31.4678 22.9778H31.2786V22.2323L30.3217 22.9444L30.878 23.345L31.4344 23.7233ZM27.6512 22.911L28.0962 22.9221L27.8181 22.3102L27.6512 22.6106L26.594 22.4214L27.3173 23.5119L27.6512 22.911ZM20.2181 23.6899L19.8621 21.9096L18.5268 23.2894L20.2181 23.6899ZM36.1301 25.5259L35.5515 25.8264L36.2748 26.1379L36.2525 25.3368L37.0648 24.6691L35.6628 24.1795L36.1301 25.5259ZM26.7387 24.3798L26.5162 22.6885L25.3589 23.9125L26.7387 24.3798ZM21.2641 24.0126L22.6439 23.1781L21.0527 22.21L21.2641 24.0126ZM28.8529 24.6803L28.6304 24.7915L29.1644 25.2589L29.4092 24.5912L30.0769 24.2797L29.209 23.4674L28.8529 24.6803ZM35.418 20.6188L35.1954 21.9318L36.5863 21.7093L35.418 20.6188ZM32.9032 17.6367L32.9143 18.3043L33.6932 18.0595L32.9032 17.6367Z" fill="#8FC9C9"/>
<path d="M20.6077 24.9473L21.7204 24.5356L20.6299 23.8346L20.6077 24.9473ZM31.2231 21.4088L30.9783 22.0765H31.6459L31.2231 21.4088ZM21.1307 22.8999L20.2071 23.1224L20.6744 23.7455L21.1307 22.8999ZM23.8012 24.1461L24.4688 24.2797L24.3798 23.5007L23.8012 24.1461ZM28.1853 17.2918L27.4064 17.492L28.0741 17.8481L28.1853 17.2918ZM29.298 20.4964L28.5192 20.6967L29.1868 21.0528L29.298 20.4964ZM31.6125 26.3605L32.9812 26.6164L32.4916 25.3368L31.6125 26.3605ZM35.5293 24.0237L35.3624 23.089L34.6948 23.6454L35.5293 24.0237ZM36.8089 20.2738L36.5864 19.0498L35.7185 19.7842L36.8089 20.2738ZM32.4137 24.6691L33.0034 25.8931L33.3372 25.3368L34.2274 25.9821L34.3164 24.8694L33.4263 25.2255L33.6266 24.5578L32.4137 24.6691ZM34.0828 21.776L35.3846 22.5104L35.3179 21.0083L34.0828 21.776ZM32.8254 16.4016H32.3803L32.6251 16.8467L32.8254 16.4016ZM31.7127 18.716L31.2676 18.7272L31.5124 19.1723L31.7127 18.716ZM26.3493 12.0063L25.8597 12.2734L26.3938 12.4625L26.3493 12.0063ZM22.5994 9.44706L22.1544 9.78086L22.7107 9.89214L22.5994 9.44706ZM35.9188 9.20225L35.5071 9.56944L36.0634 9.6362L35.9188 9.20225ZM25.8264 20.1403L25.3813 20.4519L25.9376 20.5854L25.8264 20.1403ZM28.6082 19.8621L28.1631 20.1737L28.7194 20.3072L28.6082 19.8621ZM28.2298 24.7247L28.9642 26.1936L29.1868 25.971H29.6319L29.4093 25.6372L29.8767 24.9918L28.2298 24.7247ZM23.3561 23.0557L22.9889 23.9459L23.8791 23.868L23.3561 23.0557ZM23.0223 18.8941L22.1321 18.7606L22.3769 19.3614L23.0223 18.8941ZM23.8346 21.6425H22.9444L23.2782 22.1989L23.8346 21.6425ZM33.2371 21.5312L33.3261 22.4214L34.016 21.776L33.2371 21.5312ZM24.0571 18.9942L23.7233 19.7398L24.5245 19.6285L24.0571 18.9942ZM25.5704 21.2197L25.3256 21.9986L26.1045 21.7983L25.5704 21.2197ZM27.1282 24.0794L28.0184 24.1128L27.5956 23.3338L27.1282 24.0794ZM25.9599 23.3338L26.149 22.2211L25.1698 22.822L25.9599 23.3338ZM24.2908 21.5535L24.4243 20.7746L23.7567 21.1974L24.2908 21.5535ZM23.3227 21.164L23.5453 20.4074L22.822 20.7412L23.3227 21.164ZM22.1321 20.6077L22.3546 19.851L21.6314 20.1848L22.1321 20.6077ZM44.2531 21.2531L43.4964 21.075L43.8525 21.6981L44.2531 21.2531ZM35.7964 18.8496L35.8298 18.4045L35.2511 18.5825L35.7964 18.8496ZM36.8868 19.7064L37.6212 19.3725L36.8868 19.0165V19.7064ZM31.2453 20.2627L31.9352 19.8399L31.1563 19.5951L31.2453 20.2627ZM39.6798 20.2071L40.4587 20.0179L39.7911 19.5394L39.6798 20.2071ZM34.2274 21.0416L35.2289 20.5965L34.2274 20.1181V21.0416ZM29.8878 21.6537L30.9115 21.0194L29.7543 20.6522L29.8878 21.6537ZM29.2536 15.3667L30.3106 14.7881L29.1757 14.343L29.2536 15.3667ZM39.7132 15.4335L40.8926 15.211L39.9468 14.4543L39.7132 15.4335ZM32.5917 13.5085L33.5709 12.8075L32.4026 12.5182L32.5917 13.5085ZM36.1524 17.6256L35.9076 16.5128L35.2177 17.4253L36.1524 17.6256ZM38.9342 21.5758L40.225 21.2419L39.1346 20.463L38.9342 21.5758ZM41.6938 22.5772L41.36 21.2753L40.5811 22.388L41.6938 22.5772ZM39.7688 26.672L38.5448 24.5912L37.8327 26.6386L39.7688 26.672ZM27.0281 18.5491L26.1379 18.4045L26.6609 19.2056L27.0281 18.5491ZM26.8612 16.5128L25.9933 16.268L26.4383 17.1249L26.8612 16.5128ZM28.0629 20.7634L27.1727 20.6299L27.7069 21.4088L28.0629 20.7634ZM27.4621 21.5758L26.06 21.3532L26.8946 22.6217L27.4621 21.5758Z" fill="#8FC9C9"/>
<path d="M41.883 19.2056L40.659 18.4601L40.9483 19.9512L41.883 19.2056ZM32.7364 23.7233L32.5472 22.7219L31.6237 23.4674L32.7364 23.7233ZM32.0688 22.7886L32.7364 22.3658L31.9797 21.7872L32.0688 22.7886ZM31.0117 25.6038L31.9241 24.8583L30.7224 24.2574L31.0117 25.6038ZM44.3087 24.1907L44.6648 24.8026L45.0542 24.135L44.3087 24.1907ZM23.3116 23.0112L22.4214 22.9778L22.8665 23.6677L23.3116 23.0112ZM20.6077 23.6343L19.2168 24.5467L20.5187 25.0808L20.6077 23.6343ZM21.164 22.1877L20.9192 21.1529L20.107 21.687L21.164 22.1877ZM23.1336 22.2211L22.5772 22.7552L23.3561 23.0112L23.1336 22.2211ZM29.8433 21.5201L29.5985 22.1877L30.3774 22.21L29.8433 21.5201ZM24.0349 25.0586L23.9236 24.7247L24.2574 24.836L24.3909 24.3909L23.9459 24.5912L23.8568 23.9236L22.9333 24.9028L24.0349 25.0586ZM25.2366 22.8109L24.3464 22.7886L24.658 23.4563L25.2366 22.8109ZM37.3653 17.9149L36.8424 18.3933H37.51L37.3653 17.9149ZM25.0474 15.2777L25.0808 15.8341L25.5704 15.567L25.0474 15.2777ZM24.7915 20.1292L24.8805 20.6855L25.3256 20.3517L24.7915 20.1292ZM25.8486 20.463L25.9599 21.0194L26.405 20.6855L25.8486 20.463Z" fill="#8FC9C9"/>
<path d="M34.3721 15.4558L33.927 15.6783L34.3721 15.9009V15.4558ZM31.5903 16.6464L30.5109 17.2361L31.6237 17.7591L31.5903 16.6464ZM27.3174 20.3184L26.3605 19.5394L26.3048 20.7635L27.3174 20.3184ZM24.4243 16.9802L23.5564 16.09L23.3672 17.314L24.4243 16.9802ZM28.7417 15.8897L27.7847 15.1108L27.7291 16.3348L28.7417 15.8897ZM24.7359 25.181L25.6261 24.9918L25.27 25.6594L26.0489 25.5704L25.7373 25.0141L26.1824 24.925L25.1142 23.5564L24.7359 25.181ZM42.7175 26.5163L43.0513 25.3368L41.716 25.5371L42.7175 26.5163ZM40.0915 25.181L39.8689 25.1365L40.0915 25.6483L39.3905 25.6928L39.9023 26.405L40.0915 25.6483L40.3363 26.0489L40.7369 25.3479L40.2028 25.2144L40.5032 24.48L39.6353 24.7248L40.0915 25.181ZM40.9816 24.3798L40.5032 23.5675L40.1249 24.1573L40.9816 24.3798ZM39.09 24.3131L39.8467 24.5022L39.4684 23.7233L39.09 24.3131ZM44.7649 26.2937L44.2086 25.793L44.0305 26.4384L44.7649 26.2937ZM41.3822 25.4035L42.2724 25.181L41.6048 24.6469L41.3822 25.4035ZM41.0707 17.1694L40.5811 16.9023L40.7591 17.4253L41.0707 17.1694ZM29.8544 8.51234L29.298 8.4011L29.6319 8.84618L29.8544 8.51234ZM27.8849 6.13113L27.3285 6.06437L27.6957 6.47607L27.8849 6.13113ZM30.077 15.9454L30.0213 15.5003L29.6207 15.8897L30.077 15.9454ZM29.8544 18.8607L29.821 18.4156L29.3982 18.7828L29.8544 18.8607ZM32.1021 13.9202L31.6348 13.7533L31.8017 14.1984L32.1021 13.9202ZM37.0315 11.9396L36.5864 11.717L36.6977 12.1621L37.0315 11.9396ZM34.105 19.0165L33.6377 18.8607L33.8046 19.2835L34.105 19.0165ZM33.2705 24.1128L32.8254 23.4451L32.4916 24.1795H33.3595L34.0271 24.9139L34.4945 23.6899L33.2705 24.1128ZM29.7432 23.957L30.4664 23.0112L29.2202 22.7552L29.1089 22.5327L28.6972 23.1224L29.3871 23.3005L29.7432 23.957ZM33.7823 21.509L33.8046 20.7301L33.1369 21.2642L33.7823 21.509ZM31.5012 21.3977L31.5235 20.6188L30.8336 21.1529L31.5012 21.3977ZM30.6333 19.9957L30.9671 20.0068L30.7446 19.5617L30.6333 19.7843L29.8544 19.6507L30.3885 20.4519L30.6333 19.9957ZM43.7969 17.9928L44.1084 18.1041L44.0639 17.6145L43.8747 17.7814L43.2071 17.3919L43.4297 18.3155L43.7969 17.9928ZM29.4093 21.8317H29.7432L29.5428 21.3866L29.4316 21.6091L28.6527 21.4756L29.1868 22.2545L29.4093 21.8317ZM31.746 22.1989L31.5235 22.3102L32.0798 22.7552L32.3246 22.0876L32.9923 21.776L32.1244 20.9637L31.746 22.1989Z" fill="#8FC9C9"/>
<path d="M32.7698 19.0721L32.525 19.7398L33.3038 19.762L32.7698 19.0721ZM32.6585 21.5201L33.3817 20.5743L32.1355 20.3295L32.0242 20.1069L31.6125 20.6967L32.2802 20.8747L32.6585 21.5201ZM27.7291 22.5883L28.9086 22.733L28.4969 21.5424L28.6082 21.3198L27.896 21.2642L28.0852 21.9318L27.7291 22.5883ZM24.2797 23.1447L25.0029 22.1989L23.7567 21.9541L23.6454 21.7315L23.2337 22.3213L23.9013 22.4993L24.2797 23.1447ZM34.4055 23.2226L33.1481 22.8554L33.6822 24.1573L34.4055 23.2226Z" fill="#8FC9C9"/>
<path d="M35.6851 23.0334L34.0716 22.0654L34.105 23.5675L35.6851 23.0334ZM31.4345 24.5022L31.9908 24.3464L32.3247 24.4355L32.2134 24.2129L32.3247 24.1016L32.1021 23.9903L31.746 23.6788L31.4345 24.5022ZM42.0833 26.3382L42.15 26.2492L41.7383 25.6928L41.4045 25.181L40.3585 26.6275L42.1834 26.5719L42.0833 26.3382Z" fill="#8FC9C9"/>
<path d="M40.6033 25.7707L40.225 26.3605L41.0373 26.3382L40.6033 25.7707ZM37.8215 24.0126L38.4224 24.5356L38.5336 23.7567L37.8215 24.0126ZM43.9415 25.8375L44.2419 24.7915L43.0402 25.0141L43.9415 25.8375ZM45.0542 21.2531L45.6105 21.2976L45.4103 20.7857L45.0542 21.2531ZM26.4939 25.0363L27.7736 25.8486L27.9961 24.1573L26.4939 25.0363ZM42.1166 20.6299L42.2279 19.851L41.538 20.2294L42.1166 20.6299ZM42.5617 22.4659L42.673 21.687L41.9831 22.0765L42.5617 22.4659ZM39.1345 23.3005L39.2903 24.0237L39.8133 23.3561L39.1345 23.3005Z" fill="#8FC9C9"/>
<path d="M41.3043 24.3464L42.1054 23.1781L40.9927 22.9778L41.3043 24.3464ZM45.477 26.2158L46 25.4591L45.2767 25.3256L45.477 26.2158ZM41.9719 24.4688L43.2627 24.7136L43.0179 23.6899L41.9719 24.4688ZM39.1901 22.3213L39.7242 23.8346L40.5365 22.4325L39.1901 22.3213ZM37.1872 23.9013L36.4417 25.1476L37.5544 25.1921L37.0314 25.6817L38.222 26.0712L38.1108 25.27L38.8229 25.0474L38.0996 24.6024L38.0662 24.8249L37.6879 25.1142L37.1872 23.9013ZM35.8185 23.3672L36.4305 23.9792L36.5084 23.089L35.8185 23.3672ZM43.2515 25.971L43.4518 26.494L43.819 26.0155L43.2515 25.971ZM43.9748 23.6788L43.8858 23.1892L43.552 23.5564L43.9748 23.6788ZM30.9559 18.1485L30.4663 17.7702L30.5442 18.4379L30.9559 18.1485ZM28.953 12.1732L28.5079 11.7281V12.3958L28.953 12.1732ZM39.7242 25.0029L38.9675 24.8138L39.0232 25.5148L39.7242 25.0029ZM41.0817 25.448L41.2709 24.6914L40.5142 24.9584L41.0817 25.448ZM39.2235 21.9763L37.5766 21.7538L38.133 23.8012L39.2235 21.9763ZM36.4862 26.6164L32.8142 26.583L35.0841 23.7789L36.4862 26.6164ZM31.8127 26.7611H29.1422L30.5553 25.0141L31.8127 26.7611ZM27.4063 26.6275L25.2254 26.3493L26.9724 23.8123L27.4063 26.6275Z" fill="#8FC9C9"/>
<path d="M22.3324 26.5051L20.4741 24.5022L23.0334 23.9792L22.3324 26.5051ZM19.7731 23.7455L17.9371 24.5467L18.2376 22.21L19.7731 23.7455ZM29.12 26.7277L27.3842 26.6164L28.3634 25.5816L29.12 26.7277ZM24.8694 26.3048L23.0223 25.9376L24.6246 24.658L24.8694 26.3048ZM9.32464 5.86408L9.73634 6.36479L9.86987 5.77505L9.32464 5.86408ZM16.8689 2.30335L17.2584 2.81519L17.4253 2.23659L16.8689 2.30335ZM16.4795 9.3135L16.8689 9.82538L17.0358 9.24674L16.4795 9.3135ZM18.2264 7.62217L17.8926 7.17709L17.7813 7.73345L18.2264 7.62217ZM6.13111 7.80021L5.94195 7.02129L5.56363 7.62217L6.13111 7.80021ZM21.5312 17.7035L22.1098 18.7494L22.5549 17.6367L21.5312 17.7035ZM20.0402 13.1747L20.7635 14.2874L21.1529 13.0078L20.0402 13.1747ZM2.16981 7.88922L2.78181 8.63476L2.95985 7.66669L2.16981 7.88922ZM4.39526 9.3024L5.17416 8.63476L4.15046 8.45672L4.39526 9.3024ZM25.1698 14.4543L25.4703 13.0634L24.1573 13.8423L25.1698 14.4543ZM3.58298 9.20226L3.20465 9.8031L3.98356 9.83648L3.58298 9.20226ZM1.88051 10.5375L2.08079 9.82538L1.41317 9.9589L1.88051 10.5375ZM2.99323 6.62073V6.06436L2.62603 6.47607L2.99323 6.62073ZM21.5201 0.556363L21.4867 0L21.1529 0.445083L21.5201 0.556363ZM11.283 3.76102L11.3943 3.28255L10.9826 3.4717L11.283 3.76102ZM1.90277 9.6362L2.97097 9.41368L2.22545 8.45672L1.90277 9.6362ZM6.55395 8.63476L6.77649 9.15774L7.14369 8.74604L6.55395 8.63476ZM5.70828 5.63039L6.44269 5.37448L5.7973 4.9294L5.70828 5.63039ZM7.22159 5.96422L6.64297 6.29803L7.24383 6.85439L7.22159 5.96422ZM9.13548 9.36916L9.89212 8.38996L8.7794 8.22305L9.13548 9.36916ZM18.8941 4.89598L18.3822 4.67346L18.5603 5.20758L18.8941 4.89598ZM13.2748 14.1539L12.7185 13.5975L12.6851 14.3097L13.2748 14.1539ZM9.5138 7.70007L9.86987 7.43303L9.35802 7.12143L9.5138 7.70007ZM9.58056 9.0687L10.315 9.40254L10.0924 8.62362L9.58056 9.0687ZM10.5152 10.671L11.2385 11.0049L11.016 10.2259L10.5152 10.671ZM12.9632 10.7823L12.3735 9.48044L11.7838 10.8824L12.9632 10.7823ZM11.2608 8.26757L10.5486 8.17854L10.9937 8.69038L11.2608 8.26757ZM11.8839 5.87519L11.4611 5.61928L11.5056 6.10888L11.8839 5.87519ZM13.5752 8.657L13.3304 8.14516L13.1747 8.67928L13.5752 8.657ZM15.5782 6.94343L15.5448 6.45383L15.2109 6.78763L15.5782 6.94343ZM8.63474 7.38851L8.54574 6.89891L8.25642 7.25499L8.63474 7.38851ZM15.3556 11.4722L15.5114 11.7726L15.7896 11.3498H15.5448L15.2555 10.6154L14.8549 11.4833L15.3556 11.4722ZM12.0953 12.5404L12.6517 11.9841L11.8728 11.8728L12.0953 12.5404ZM4.27286 6.84325L5.01838 6.58735L4.35076 6.14226L4.27286 6.84325ZM2.26997 11.1384L3.18239 11.2497L2.95985 10.5486L2.26997 11.1384ZM0 7.02129L0.222542 7.73345L0.667642 7.34399L0 7.02129ZM1.44655 9.0576L1.06822 9.4693L1.65797 9.58058L1.44655 9.0576ZM3.8389 8.63476L4.22836 8.32319L3.74988 8.18967L3.8389 8.63476ZM18.3043 20.8525L18.6048 20.1292L17.7702 20.3851L18.3043 20.8525ZM13.03 17.6812L12.8075 16.1679L11.806 17.314L13.03 17.6812ZM17.4809 14.4543L18.2821 14.5656L17.837 13.898L17.4809 14.4543ZM20.4519 11.1161L21.0861 11.0271L20.6633 10.6043L20.4519 11.1161ZM21.4533 15.1776L22.0987 15.0885L21.6759 14.6657L21.4533 15.1776ZM19.3837 16.7354L20.0291 16.6464L19.6062 16.2235L19.3837 16.7354Z" fill="#8FC9C9"/>
<path d="M17.7924 19.673L18.2153 19.851L18.1708 19.1834L17.9148 19.4059L17.0024 18.8496L17.2806 20.1292L17.7924 19.673ZM10.1814 18.1152L10.4039 16.3125L8.70147 17.2027L10.1814 18.1152ZM16.3793 20.6744L16.7799 19.0054L15.2554 19.7286L16.3793 20.6744ZM11.4833 18.8718L12.9743 18.2598L11.55 17.0581L11.4833 18.8718Z" fill="#8FC9C9"/>
<path d="M18.2486 21.7427H18.0039L18.3377 22.3658L18.805 21.8428L19.5505 21.7983L19.0387 20.7301L18.2486 21.7427ZM10.5486 19.4838L11.7503 19.3725L10.8602 18.4156L10.5486 19.4838ZM11.5946 17.6589L10.6487 17.7257L11.0159 18.4156L11.5946 17.6589ZM13.731 19.6619L14.2873 20.0291L14.5099 19.2724L13.731 19.6619ZM20.2961 14.6323L19.4949 14.5211L19.9845 15.0997L20.2961 14.6323ZM20.1848 18.0262L19.3836 17.9149L19.8621 18.4712L20.1848 18.0262ZM19.5172 8.45672L18.983 8.59024L19.4504 8.92408L19.5172 8.45672ZM17.8258 5.29658L17.2695 5.4301L17.7368 5.76394L17.8258 5.29658Z" fill="#8FC9C9"/>
<path d="M17.1025 16.4016L16.5462 16.5351L17.0135 16.8689L17.1025 16.4016ZM19.7731 17.1582L19.239 17.2918L19.7063 17.6033L19.7731 17.1582ZM17.6589 21.5535L17.8147 23.1892L18.104 23.0779L18.5157 23.2448L18.4378 22.8554L19.1054 22.4103L17.6589 21.5535ZM13.7087 18.4601L13.0411 19.1277L13.8979 19.3837L13.7087 18.4601ZM14.4876 14.2095L13.6753 13.8534L13.7643 14.4988L14.4876 14.2095ZM14.6545 17.2918L13.8422 16.9357L13.9313 17.5811L14.6545 17.2918ZM15.4668 14.5878L14.9439 15.211L15.7561 15.3222L15.4668 14.5878ZM16.446 17.3363L15.9342 17.9594L16.7465 18.0707L16.446 17.3363ZM16.8689 20.5632L17.6923 20.9192L17.581 20.029L16.8689 20.5632ZM16.0677 19.4504L16.6463 18.4824L15.5113 18.7049L16.0677 19.4504ZM15.1553 17.403L15.567 16.7354L14.7881 16.8689L15.1553 17.403ZM14.1983 16.4794L14.61 15.8118L13.8311 15.9565L14.1983 16.4794ZM12.863 15.656L13.1969 14.9439L12.418 15.1664L12.863 15.656ZM20.5409 19.851L21.7203 19.6285L20.7745 18.8496L20.5409 19.851ZM18.7605 15.4001L17.9816 14.955L18.2041 15.8897L18.7605 15.4001ZM18.8161 12.9966L18.0372 12.5515L18.2375 13.4862L18.8161 12.9966ZM18.9274 17.8481L18.1485 17.403L18.3488 18.3377L18.9274 17.8481ZM18.0706 18.3711L16.8466 17.6478L17.1804 19.1389L18.0706 18.3711ZM13.6976 18.3711L12.8742 18.0373L13.0188 18.8162L13.6976 18.3711ZM10.7377 18.2264L9.17993 18.7828L10.326 19.5951L10.7377 18.2264Z" fill="#8FC9C9"/>
<path d="M11.628 16.958V15.8897L10.7155 16.2236L11.628 16.958ZM13.82 17.5811L13.0856 17.8704L13.7088 18.3822L13.82 17.5811ZM13.6197 20.5854L13.642 20.2516L13.909 20.4741L14.1872 20.107L13.6865 20.1403L13.8534 19.4727L12.6294 20.0291L13.6197 20.5854ZM15.567 18.9608L14.7436 18.6048L14.7881 19.3503L15.567 18.9608ZM17.4141 11.2608L17.3029 11.8171L17.8592 11.7059L17.4141 11.2608ZM16.1345 16.2903L16.0232 16.8467L16.5796 16.7132L16.1345 16.2903ZM16.9913 16.702L16.88 17.2584L17.4141 17.1249L16.9913 16.702Z" fill="#8FC9C9"/>
<path d="M18.4155 17.136L17.8035 16.0566L17.3139 17.1916L18.4155 17.136ZM17.0803 13.7978L16.4794 12.7185L15.9787 13.8312L17.0803 13.7978ZM10.4039 14.5767L10.5152 15.3779L11.0493 14.7881L10.4039 14.5767ZM10.4484 11.4833L10.6487 10.6154L10.0367 10.8157L10.4484 11.4833ZM10.2481 12.5071L9.54711 12.1176L9.59161 12.9299L10.2481 12.5071ZM8.80159 10.4707L9.53599 10.7601L9.25781 10.0034L8.80159 10.4707ZM9.86979 15.9565L10.1702 15.1108L9.28005 15.478L9.86979 15.9565ZM12.4291 15.4001L12.6516 14.5433L11.7948 14.9884L12.4291 15.4001ZM14.1761 13.7867L13.6197 13.7644L13.8422 14.2763L14.1761 13.7867ZM11.3163 13.9536L12.2622 13.1747L11.0604 12.8965L11.3163 13.9536ZM24.6134 12.8965L24.0904 11.7838L23.5118 12.8631L24.6134 12.8965ZM14.2428 20.7412L15.133 20.8859L14.5766 21.3755L15.3333 21.5758L15.2554 20.9304L15.7005 21.0083L15.1998 19.3392L14.2428 20.7412ZM24.8916 6.74311L24.402 6.46493L24.5689 6.99905L24.8916 6.74311ZM23.5341 4.05034L23.0222 3.80554L23.2448 4.31738L23.5341 4.05034ZM21.2752 16.702L21.4088 16.2792L20.8858 16.4572L21.2752 16.702ZM19.3613 21.4089L20.3628 20.7968L19.2946 20.107L19.2501 19.8622L18.6603 20.2627L19.2167 20.6745L19.3613 21.4089ZM19.8064 19.328L20.118 19.4393L20.0846 18.9497L19.8955 19.1055L19.2278 18.7049L19.4504 19.6396L19.8064 19.328ZM17.9704 19.4059L19.0164 19.9623L19.0609 18.6938L19.2612 18.5269L18.6158 18.2264L18.5491 18.9275L17.9704 19.4059ZM14.521 18.8829L15.5224 18.2821L14.4654 17.5811L14.432 17.3363L13.8311 17.7257L14.3875 18.1485L14.521 18.8829ZM15.9342 21.2419L16.8243 22.4659L17.6477 20.9749L15.9342 21.2419Z" fill="#8FC9C9"/>
<path d="M21.9986 9.75862L21.6647 9.2245L21.4978 9.86986L21.9986 9.75862ZM17.0247 22.6328L14.8437 22.9444L15.8452 20.029L17.0247 22.6328ZM11.5501 21.4311L10.6599 18.8385L13.2192 19.3948L11.5501 21.4311ZM9.61393 18.2598L7.68892 18.8162L8.31204 16.524L9.61393 18.2598Z" fill="#8FC9C9"/>
<path d="M18.0483 23.1336L16.5128 23.9125L16.8243 22.5216L18.0483 23.1336ZM13.9313 22.0765L12.3512 21.0528L14.3207 20.4519L13.9313 22.0765ZM6.25345 11.3609L6.58728 9.86986L5.22975 10.5932L6.25345 11.3609ZM3.4939 10.9715L4.18379 9.3024L2.29216 9.70296L3.4939 10.9715Z" fill="#8FC9C9"/>
<path d="M8.67926 15.3333L9.45817 13.8312L7.78908 14.165L8.67926 15.3333ZM4.39527 11.9284L6.00871 11.8728L5.09629 10.2593L4.39527 11.9284Z" fill="#8FC9C9"/>
<path d="M3.31589 12.151L4.47313 12.4848L3.98353 11.2608L3.31589 12.151ZM4.82919 10.9047L3.93903 10.6265L4.05029 11.4054L4.82919 10.9047ZM6.43152 13.464L6.89886 13.9536L7.2772 13.2859L6.43152 13.464ZM6.69858 12.2956L5.8863 12.8075L6.6652 13.2526L6.69858 12.2956ZM8.47893 8.40109L7.76679 7.84473L7.70003 8.49009L8.47893 8.40109ZM7.90033 11.4388L7.18818 10.9047L7.12141 11.5501L7.90033 11.4388ZM9.32461 8.99083L8.67923 9.48043L9.43588 9.76972L9.32461 8.99083ZM8.65697 14.0426L9.45814 13.2637L8.31203 13.1858L8.65697 14.0426ZM8.32315 11.6168L8.87951 11.0605L8.07835 11.0049L8.32315 11.6168ZM7.62215 10.5264L8.17851 9.97003L7.37734 9.91438L7.62215 10.5264ZM6.84322 9.48043L7.39959 8.92407L6.59844 8.87955L6.84322 9.48043ZM6.6652 12.2622L5.96418 11.7281L5.90854 12.5293L6.6652 12.2622Z" fill="#8FC9C9"/>
<path d="M3.8389 11.1272L2.16981 11.1161L2.94871 12.2845L3.8389 11.1272ZM5.1074 10.2371L5.48574 9.23564H4.50654L5.1074 10.2371ZM6.99905 11.4945L6.22013 11.6057L6.70973 12.2734L6.99905 11.4945ZM6.08661 14.3208L6.19789 13.987L6.39817 14.2763L6.75425 13.9981L6.26465 13.8868L6.59847 13.2971L5.28544 13.553L6.08661 14.3208ZM8.35656 13.208L7.65555 12.674L7.51089 13.4084L8.35656 13.208ZM6.57621 14.8771L7.41075 15.2332L6.74311 15.567L7.43301 15.9454L7.49977 15.3L7.9226 15.478L7.84471 13.7422L6.57621 14.8771Z" fill="#8FC9C9"/>
<path d="M7.41071 12.9076L8.52344 12.5515L7.66664 11.628L7.6889 11.3832L7.02125 11.6057L7.46635 12.1621L7.41071 12.9076ZM8.70148 17.2139L6.50941 16.9913L8.20074 14.4098L8.70148 17.2139ZM5.99755 13.4862L3.26025 13.4306L4.65116 11.2385L5.99755 13.4862ZM0.990286 9.16888L0.367162 8.2453L1.68017 8.1674L0.990286 9.16888ZM6.07545 15.8452L4.78468 14.4766L6.83209 14.3653L6.07545 15.8452Z" fill="#8FC9C9"/>
</svg>
