<svg width="25" height="25" viewBox="0 0 25 25" fill="none" xmlns="http://www.w3.org/2000/svg">
<path fill-rule="evenodd" clip-rule="evenodd" d="M14.2697 16.6137C15.736 16.6137 16.9295 17.7448 16.9295 19.1351V22.711C16.9295 23.0098 17.1804 23.2492 17.5019 23.2562H19.8232C21.6524 23.2562 23.1394 21.8542 23.1394 20.1314V9.9897C23.1309 9.39683 22.8349 8.83882 22.3271 8.46798L14.2977 2.35553C13.2199 1.54061 11.7122 1.54061 10.6307 2.35785L2.65616 8.46566C2.12882 8.84812 1.83288 9.40613 1.82679 10.0095V20.1314C1.82679 21.8542 3.31381 23.2562 5.14304 23.2562H7.4862C7.81625 23.2562 8.08418 23.0063 8.08418 22.6994C8.08418 22.632 8.0927 22.5645 8.10731 22.5006V19.1351C8.10731 17.7529 9.29351 16.623 10.7489 16.6137H14.2697ZM19.8232 25H17.48C16.1379 24.9698 15.1027 23.9642 15.1027 22.711V19.1351C15.1027 18.7062 14.7288 18.3574 14.2697 18.3574H10.7549C10.3056 18.3597 9.93411 18.7097 9.93411 19.1351V22.6994C9.93411 22.7866 9.92193 22.8703 9.89636 22.9493C9.76483 24.1002 8.73451 25 7.4862 25H5.14304C2.30663 25 0 22.8156 0 20.1314V10.0013C0.0121786 8.8458 0.56996 7.78792 1.53329 7.09158L9.49202 0.994233C11.2445 -0.331023 13.6863 -0.331023 15.4352 0.991908L23.4512 7.09506C24.3926 7.77978 24.9504 8.83534 24.9662 9.97692V20.1314C24.9662 22.8156 22.6596 25 19.8232 25Z" fill="black"/>
</svg>
