<svg width="16" height="16" viewBox="0 0 16 16" fill="none" xmlns="http://www.w3.org/2000/svg">
<g clip-path="url(#clip0_303_770)">
<path d="M6.31603 7.009C6.51903 6.862 6.61603 6.618 6.61603 6.281C6.62319 6.12225 6.58981 5.96429 6.51903 5.822C6.45559 5.70614 6.36149 5.60996 6.24703 5.544C6.12802 5.47238 5.99626 5.42449 5.85903 5.403C5.70968 5.37494 5.55799 5.36121 5.40603 5.362H3.75903V7.231H5.54003C5.85303 7.234 6.11203 7.159 6.31503 7.009H6.31603Z" fill="#3859EE"/>
<path d="M6.59403 8.697C6.36303 8.522 6.05703 8.435 5.67503 8.435H3.75903V10.638H5.63703C5.81203 10.638 5.97503 10.622 6.13103 10.588C6.28703 10.554 6.42803 10.5 6.54703 10.419C6.66603 10.341 6.76303 10.235 6.83403 10.1C6.90503 9.965 6.94003 9.791 6.94003 9.581C6.94003 9.169 6.82403 8.875 6.59303 8.697H6.59403Z" fill="#3859EE"/>
<path d="M14.5 0H1.5C0.675 0 0 0.675 0 1.5V14.5C0 15.325 0.675 16 1.5 16H14.5C15.325 16 16 15.325 16 14.5V1.5C16 0.675 15.325 0 14.5 0ZM10.488 4.209H13.729V5H10.488V4.209ZM8.463 10.725C8.31278 11.013 8.09656 11.2615 7.832 11.45C7.55619 11.6417 7.24836 11.7826 6.923 11.866C6.58241 11.9564 6.23138 12.0014 5.879 12H2.001V4.003H5.77C6.151 4.003 6.498 4.037 6.814 4.103C7.127 4.169 7.395 4.281 7.62 4.434C7.842 4.587 8.017 4.79 8.142 5.043C8.264 5.293 8.326 5.609 8.326 5.981C8.326 6.384 8.235 6.718 8.051 6.987C7.867 7.256 7.598 7.474 7.235 7.646C7.729 7.787 8.091 8.037 8.332 8.39C8.576 8.746 8.695 9.174 8.695 9.674C8.698 10.083 8.62 10.433 8.464 10.724L8.463 10.725ZM14.991 9.488H10.813C10.813 9.944 10.969 10.379 11.207 10.613C11.445 10.844 11.788 10.963 12.235 10.963C12.557 10.963 12.832 10.882 13.066 10.719C13.297 10.557 13.438 10.385 13.491 10.207H14.891C14.666 10.904 14.325 11.401 13.86 11.701C13.401 12.001 12.838 12.151 12.185 12.151C11.729 12.151 11.319 12.076 10.951 11.932C10.5983 11.7948 10.2796 11.5825 10.017 11.31C9.75853 11.0304 9.5586 10.702 9.429 10.344C9.28705 9.94823 9.21629 9.53044 9.22 9.11C9.22 8.676 9.292 8.272 9.433 7.897C9.56639 7.53649 9.7722 7.20712 10.0377 6.9292C10.3033 6.65127 10.6229 6.43067 10.977 6.281C11.3587 6.121 11.7692 6.04135 12.183 6.047C12.674 6.047 13.102 6.141 13.47 6.334C13.836 6.525 14.136 6.781 14.373 7.103C14.61 7.425 14.776 7.791 14.882 8.203C14.985 8.609 15.019 9.037 14.991 9.487V9.488Z" fill="#3859EE"/>
<path d="M12.1339 7.247C11.8809 7.247 11.6679 7.291 11.5029 7.378C11.3379 7.465 11.2029 7.572 11.0999 7.697C11.0016 7.81726 10.9291 7.95648 10.8869 8.106C10.8487 8.22989 10.8245 8.3577 10.8149 8.487H13.4029C13.3659 8.081 13.2249 7.781 13.0369 7.571C12.8429 7.358 12.5249 7.246 12.1339 7.246V7.247Z" fill="#3859EE"/>
</g>
<defs>
<clipPath id="clip0_303_770">
<rect width="16" height="16" fill="white"/>
</clipPath>
</defs>
</svg>
