<svg width="8" height="5" viewBox="0 0 8 5" fill="none" xmlns="http://www.w3.org/2000/svg">
<path d="M5.46402 4.99999C4.76074 4.88027 4.07361 4.67996 3.4162 4.40301C1.96566 3.9766 0.68578 3.37964 0.173824 2.35626C0.0761608 2.15911 0.0183492 1.94464 0.00370795 1.72514C-0.0109333 1.50563 0.0178779 1.2854 0.0884924 1.07703C0.771101 -0.543318 3.33087 0.0536506 4.18413 0.394777L4.52546 0.480058C5.89068 0.991748 7.42654 1.58872 7.76784 2.52682C7.85213 2.72206 7.89562 2.93246 7.89562 3.14511C7.89562 3.35775 7.85213 3.56815 7.76784 3.7634C7.34121 4.87206 6.40261 4.99999 5.46402 4.99999ZM0.856422 1.41815C0.809372 1.5148 0.792364 1.62331 0.807572 1.72971C0.82278 1.83611 0.869511 1.93552 0.941753 2.01513C1.23146 2.48311 1.6169 2.88459 2.07275 3.19323C2.52861 3.50188 3.04459 3.71071 3.58687 3.80604C5.63469 4.31773 6.98284 4.26656 6.88898 2.885C6.83779 2.16011 4.99475 1.45227 4.31214 1.19643C4.18721 1.14742 4.05887 1.10751 3.92817 1.07703C3.07491 0.821188 1.28305 0.565338 0.856422 1.41815Z" fill="#CC7A5E"/>
</svg>
