<svg width="29" height="51" viewBox="0 0 29 51" fill="none" xmlns="http://www.w3.org/2000/svg">
<path d="M9.38154 1.5568L0.0358748 48.7525C-0.0102158 48.9583 -0.0119136 49.1716 0.0308899 49.3781C0.0736935 49.5846 0.160018 49.7796 0.284118 49.9501C0.408217 50.1207 0.567241 50.2629 0.750606 50.3672C0.933971 50.4715 1.13747 50.5356 1.34755 50.5552C3.9101 51.1193 6.56173 51.1472 9.1356 50.6371C12.3328 49.7358 23.9739 32.2013 27.2531 27.2031C27.4618 26.8239 27.5643 26.3954 27.5499 25.9628C27.5354 25.5302 27.4046 25.1095 27.1711 24.745C25.6441 22.9362 24.5125 20.8281 23.849 18.5563C23.1854 16.2844 23.0046 13.899 23.3181 11.5531C23.9739 6.22722 27.1711 6.80076 28.2368 5.57171C28.3527 5.45446 28.4415 5.31322 28.4968 5.15795C28.5522 5.00268 28.5727 4.83718 28.5571 4.6731C28.5415 4.50901 28.49 4.35036 28.4063 4.20833C28.3227 4.06629 28.2088 3.94433 28.0729 3.85105C26.0234 2.70393 19.2191 0.409685 11.2671 0C10.8261 0.0190873 10.4034 0.181435 10.0631 0.462396C9.72283 0.743357 9.48353 1.12759 9.38154 1.5568Z" fill="url(#paint0_linear_1_3431)"/>
<defs>
<linearGradient id="paint0_linear_1_3431" x1="10.3966" y1="25.704" x2="27.263" y2="27.3191" gradientUnits="userSpaceOnUse">
<stop stop-color="#BBE0F0"/>
<stop offset="1" stop-color="#E0EBF0"/>
</linearGradient>
</defs>
</svg>
