<svg width="3" height="6" viewBox="0 0 3 6" fill="none" xmlns="http://www.w3.org/2000/svg">
<path d="M1.80738 5.92785C1.92849 5.9248 2.04486 5.88008 2.13685 5.80122C2.22883 5.72236 2.29082 5.61419 2.31236 5.49495C2.32957 5.42787 2.3315 5.35778 2.31801 5.28985C2.30451 5.22193 2.27593 5.1579 2.23438 5.10249C2.19284 5.04709 2.13939 5.00173 2.07797 4.96975C2.01655 4.93777 1.94873 4.92 1.87952 4.91775C1.87952 4.91775 1.08599 4.77345 1.01385 4.1241C0.941714 3.47475 1.59097 1.67099 1.95167 0.733041C1.98354 0.67002 2.00185 0.601014 2.0054 0.530477C2.00896 0.459939 1.99768 0.389439 1.9723 0.323531C1.94692 0.257623 1.908 0.197775 1.85806 0.147846C1.80811 0.0979161 1.74825 0.0590169 1.68234 0.0336633C1.61643 0.00830973 1.54594 -0.00293571 1.47541 0.000652163C1.40489 0.00424004 1.3359 0.0225812 1.27291 0.0544928C1.20991 0.0864044 1.15431 0.131175 1.10969 0.185915C1.06506 0.240656 1.03242 0.304147 1.01385 0.372291C0.869575 0.660891 -0.0682406 3.114 0.00389837 4.2684C0.0532875 4.6987 0.242264 5.10098 0.541904 5.41369C0.841544 5.72641 1.23535 5.93235 1.6631 6C1.73524 5.92785 1.73524 5.92785 1.80738 5.92785Z" fill="#B4603F"/>
</svg>
