<svg width="85" height="58" viewBox="0 0 85 58" fill="none" xmlns="http://www.w3.org/2000/svg">
<path d="M1.07476 48.1102C2.27575 47.4148 5.057 46.7194 7.01651 45.8975C11.694 43.8745 15.5499 42.863 18.9 41.2825C20.7963 40.3342 45.0057 23.8971 47.7237 22.2534C51.2635 19.6613 64.9801 0 64.9801 0L84.8912 10.1784C84.8912 10.1784 66.7499 34.3915 63.0838 37.1732C58.8487 40.5239 52.2116 42.3572 43.2358 44.9492C34.26 47.5412 26.4852 49.185 19.5321 50.9551C18.4575 51.208 17.4461 51.777 15.9923 51.9666C14.6017 49.5643 12.4526 47.9206 9.54491 47.9206C7.59408 47.9195 5.72192 48.6898 4.33657 50.0635C2.95122 51.4372 2.16502 53.303 2.14933 55.2541C2.14996 55.8074 2.21358 56.3588 2.33896 56.8978C2.40217 57.2139 2.40218 57.3403 2.46539 57.5932C2.41803 57.7234 2.32919 57.8345 2.21255 57.9093C-0.0630078 59.0472 -0.821544 49.1217 1.07476 48.1102Z" fill="#EA9D7D"/>
</svg>
