<svg width="5" height="18" viewBox="0 0 5 18" fill="none" xmlns="http://www.w3.org/2000/svg">
<path d="M4.53697 17.6488C4.53697 17.8159 4.45337 17.983 4.28616 17.983C4.24223 17.9979 4.19556 18.0031 4.14943 17.9982C4.10329 17.9933 4.05878 17.9784 4.019 17.9545C3.97921 17.9307 3.94511 17.8984 3.91905 17.8601C3.893 17.8217 3.87562 17.7781 3.86813 17.7323L0.0222368 0.434814C-0.0613695 0.267689 0.105858 0.100563 0.273071 0.0170004C0.316999 0.00206693 0.36364 -0.00311808 0.409778 0.00180162C0.455916 0.00672132 0.500421 0.0216253 0.540208 0.0454854C0.579996 0.0693455 0.614119 0.101594 0.640175 0.139968C0.66623 0.178342 0.683613 0.221936 0.691102 0.267704L4.53697 17.6488Z" fill="#CC7A5E"/>
</svg>
