<svg width="3" height="4" viewBox="0 0 3 4" fill="none" xmlns="http://www.w3.org/2000/svg">
<path d="M0.685509 3.99892H0.516691C0.443835 3.99446 0.372602 3.97556 0.307124 3.94332C0.241646 3.91108 0.18324 3.86614 0.135305 3.81113C0.0873703 3.75611 0.0508569 3.69211 0.0279072 3.62286C0.00495742 3.5536 -0.00397715 3.48047 0.00162112 3.40773C0.00721939 3.33499 0.0272396 3.2641 0.0605168 3.19916C0.0937939 3.13423 0.13966 3.07656 0.19545 3.02952C0.25124 2.98248 0.315838 2.947 0.38548 2.92515C0.455121 2.90329 0.528419 2.89551 0.6011 2.90224C0.767033 2.92048 0.934089 2.87975 1.07299 2.7872C1.21188 2.69465 1.31375 2.55618 1.36073 2.39608C1.41536 1.85495 1.26475 1.31304 0.93871 0.877602C0.894374 0.822211 0.861394 0.758636 0.841641 0.690503C0.821888 0.62237 0.81576 0.551013 0.823598 0.480511C0.831435 0.41001 0.853088 0.341745 0.887323 0.279607C0.921558 0.21747 0.967699 0.162682 1.02312 0.118369C1.07854 0.0740557 1.14215 0.0410866 1.21032 0.021344C1.27848 0.00160135 1.34987 -0.00453007 1.42041 0.00330347C1.49095 0.011137 1.55926 0.0327784 1.62143 0.0669955C1.6836 0.101213 1.73841 0.147336 1.78275 0.202727C2.05956 0.557636 2.26202 0.964638 2.37803 1.39945C2.49404 1.83426 2.52123 2.28798 2.45798 2.73352C2.34329 3.11015 2.10735 3.43837 1.78683 3.66719C1.46631 3.89602 1.07916 4.01263 0.685509 3.99892Z" fill="#B4603F"/>
</svg>
