<svg width="43" height="20" viewBox="0 0 43 20" fill="none" xmlns="http://www.w3.org/2000/svg">
<path d="M41.7139 16.2889L1.46284 19.6012C1.12526 19.6338 0.788503 19.5315 0.526016 19.3167C0.263532 19.1019 0.0966085 18.792 0.0616889 18.4546C-0.0656906 16.8622 -0.0656867 14.2505 0.762264 12.3396C1.71759 9.91907 16.557 2.33898 20.8241 0.173237C21.1354 0.0180267 21.4879 -0.0347547 21.8311 0.022448C22.1742 0.0796506 22.4905 0.243908 22.7347 0.491729C24.0003 1.85846 25.5385 2.94447 27.2498 3.67959C28.9612 4.41472 30.8077 4.78262 32.6701 4.75952C36.9372 4.69582 39.23 3.54925 40.249 2.91227C40.3484 2.83821 40.4639 2.78881 40.5861 2.76817C40.7083 2.74753 40.8337 2.75623 40.9519 2.79356C41.0701 2.83088 41.1777 2.89577 41.2659 2.98286C41.354 3.06994 41.4203 3.17673 41.4591 3.29445C42.1597 4.9506 43.3061 8.77249 42.9239 15.0786C42.9032 15.3928 42.769 15.6887 42.5464 15.9113C42.3238 16.1339 42.028 16.2681 41.7139 16.2889Z" fill="url(#paint0_linear_1_3015)"/>
<defs>
<linearGradient id="paint0_linear_1_3015" x1="21.629" y1="15.8426" x2="21.3783" y2="3.09878" gradientUnits="userSpaceOnUse">
<stop stop-color="#911319"/>
<stop offset="0.98" stop-color="#BA3024"/>
</linearGradient>
</defs>
</svg>
