<svg width="85" height="85" viewBox="0 0 85 85" fill="none" xmlns="http://www.w3.org/2000/svg">
<path d="M42.4934 4.40089C34.9593 4.40089 27.5943 6.63537 21.3299 10.8217C15.0655 15.0081 10.1831 20.9584 7.29988 27.9201C4.41669 34.8818 3.6623 42.5423 5.13213 49.9328C6.60197 57.3233 10.23 64.1119 15.5574 69.4401C20.8849 74.7684 27.6724 78.397 35.0618 79.867C42.4511 81.3371 50.1104 80.5826 57.071 77.699C64.0317 74.8153 69.981 69.9321 74.1668 63.6667C78.3525 57.4013 80.5866 50.0353 80.5866 42.5C80.572 32.4 76.5539 22.7178 69.4132 15.576C62.2725 8.43423 52.5919 4.41552 42.4934 4.40089ZM42.4934 0C50.8978 0 59.1135 2.49257 66.1015 7.16253C73.0895 11.8325 78.536 18.4701 81.7522 26.2359C84.9684 34.0018 85.8099 42.5471 84.1703 50.7913C82.5307 59.0355 78.4836 66.6083 72.5408 72.552C66.598 78.4957 59.0264 82.5435 50.7835 84.1834C42.5405 85.8232 33.9965 84.9816 26.2319 81.7649C18.4672 78.5481 11.8306 73.1008 7.16141 66.1117C2.49217 59.1226 -1.5279e-05 50.9057 -1.5279e-05 42.5C0.00731098 31.2305 4.48664 20.4248 12.4541 12.4561C20.4216 4.48735 31.2257 0.00732799 42.4934 0Z" fill="#3AAAA7"/>
</svg>
