<svg width="27" height="37" viewBox="0 0 27 37" fill="none" xmlns="http://www.w3.org/2000/svg">
<path d="M0 28.0131C0 28.0131 12.7987 15.7068 13.9328 13.7637C14.9039 11.5575 15.716 9.28471 16.363 6.9628C16.849 5.01969 18.5501 3.64332 19.8461 2.59081C21.1422 1.53829 26.2455 0 26.2455 0C26.38 0.385175 26.428 0.795245 26.386 1.20105C26.344 1.60686 26.2131 1.99843 26.0025 2.34792C24.9026 3.78872 23.4127 4.88444 21.7093 5.50547C21.7093 5.50547 20.1702 8.82494 19.3601 10.1203L18.5501 11.4158C18.5501 11.4158 19.4411 11.2538 21.3042 13.6017C23.1674 15.9497 21.7903 19.593 21.7903 19.593L8.26249 37L0 28.0131Z" fill="#E89976"/>
</svg>
