<svg width="8" height="8" viewBox="0 0 8 8" fill="none" xmlns="http://www.w3.org/2000/svg">
<path d="M3.80411 7.99999C4.83597 7.96573 5.81299 7.52712 6.5244 6.7788C7.23581 6.03048 7.62456 5.03243 7.60678 4C7.62091 3.48732 7.53363 2.9769 7.34996 2.49806C7.16628 2.01922 6.88983 1.58139 6.53648 1.20971C6.18314 0.838027 5.75987 0.539824 5.29096 0.332226C4.82206 0.124629 4.31677 0.0117246 3.80411 0C2.77225 0.0342666 1.79522 0.472877 1.08381 1.2212C0.372406 1.96952 -0.0163459 2.96756 0.00142976 4C-0.0126941 4.51267 0.0745833 5.02309 0.258257 5.50194C0.441931 5.98078 0.718383 6.41861 1.07173 6.79029C1.42507 7.16197 1.84835 7.46017 2.31726 7.66777C2.78616 7.87537 3.29145 7.98827 3.80411 7.99999ZM3.80411 0.524592C4.50292 0.46973 5.20203 0.62688 5.81016 0.975531C6.41829 1.32418 6.90719 1.84813 7.21301 2.47896C7.51882 3.10979 7.62735 3.81818 7.52443 4.51166C7.4215 5.20513 7.1119 5.85145 6.63605 6.36622C6.1602 6.881 5.54021 7.24031 4.85704 7.39724C4.17387 7.55417 3.45926 7.50143 2.80651 7.24591C2.15377 6.99038 1.59323 6.54395 1.19808 5.96489C0.802931 5.38584 0.591536 4.70107 0.591496 4C0.564898 3.55864 0.627834 3.11646 0.776514 2.70006C0.925194 2.28366 1.15655 1.90165 1.45666 1.57698C1.75677 1.25232 2.11944 0.991722 2.52285 0.810866C2.92627 0.630011 3.3621 0.532634 3.80411 0.524592Z" fill="#B76349"/>
</svg>
