<svg width="6" height="5" viewBox="0 0 6 5" fill="none" xmlns="http://www.w3.org/2000/svg">
<path d="M5.35217 4.89046C4.14847 4.8769 2.98101 4.47703 2.02197 3.74987C1.06294 3.0227 0.363116 2.00673 0.0257256 0.851802C0.00160553 0.767426 -0.0056524 0.679127 0.00436976 0.591948C0.0143919 0.504769 0.0414931 0.42042 0.0841317 0.343711C0.170244 0.188789 0.314409 0.0743986 0.484903 0.0257114C0.655397 -0.0229758 0.83825 -0.00197354 0.993252 0.0840941C1.14825 0.170162 1.2627 0.314245 1.31142 0.48465C1.5677 1.35775 2.09973 2.12455 2.82803 2.67049C3.55633 3.21643 4.4418 3.51221 5.35217 3.51365C5.51905 3.52464 5.67626 3.59586 5.79452 3.71406C5.91278 3.83225 5.98404 3.98937 5.99503 4.15616C6.00628 4.24756 5.9981 4.34032 5.97103 4.42835C5.94396 4.51638 5.8986 4.5977 5.83792 4.66701C5.77724 4.73632 5.70261 4.79205 5.61891 4.83055C5.53521 4.86906 5.44431 4.88947 5.35217 4.89046Z" fill="#CF7653"/>
</svg>
