<svg width="28" height="12" viewBox="0 0 28 12" fill="none" xmlns="http://www.w3.org/2000/svg">
<path d="M22.5035 10.9301C22.5035 10.9301 21.8568 8.73113 23.4734 5.4327C24.5405 3.59386 26.0814 2.07507 27.9353 1.03478C27.9525 1.03478 27.9689 1.02799 27.9811 1.01586C27.9932 1.00373 28 0.987278 28 0.970125L27.418 0C25.2898 1.0837 23.5501 2.80105 22.4388 4.91529C20.5635 8.60176 21.4042 11.1888 21.4042 11.2535L22.5035 10.9301ZM0.969992 6.27347L6.72518 10.154C6.7982 10.1999 6.86129 10.2601 6.91072 10.3308C6.96015 10.4015 6.99493 10.4814 7.013 10.5658C7.03108 10.6502 7.0321 10.7373 7.01598 10.8221C6.99987 10.9069 6.96696 10.9876 6.91919 11.0594L6.72518 11.2535C6.61742 11.317 6.49462 11.3505 6.36953 11.3505C6.24444 11.3505 6.12162 11.317 6.01386 11.2535L1.57177e-05 7.24359L0.969992 6.27347ZM4.33259 2.97504L10.2171 6.92022C10.2901 6.96619 10.3532 7.02631 10.4026 7.09704C10.4521 7.16777 10.4868 7.24768 10.5049 7.33205C10.523 7.41643 10.524 7.50357 10.5079 7.58834C10.4918 7.67312 10.4589 7.75381 10.4111 7.82566L10.2171 8.0197C10.1093 8.08324 9.98653 8.11675 9.86144 8.11675C9.73635 8.11675 9.61355 8.08324 9.50579 8.0197L3.36261 3.94516L4.33259 2.97504Z" fill="white"/>
</svg>
