<svg width="40" height="16" viewBox="0 0 40 16" fill="none" xmlns="http://www.w3.org/2000/svg">
<path d="M33.4385 15.3986C29.1483 14.8938 15.899 10.9815 15.899 10.9815H5.48894C4.03318 10.9815 2.63704 10.4031 1.60766 9.3736C0.578283 8.34406 -1.53352e-05 6.94769 -1.53352e-05 5.4917C-1.53352e-05 4.03571 0.578283 2.63936 1.60766 1.60982C2.63704 0.580282 4.03318 0.00189128 5.48894 0.00189128H33.4385C33.7971 -0.00677048 34.1559 0.0143299 34.511 0.0649869C32.3028 1.95803 30.2208 4.86068 32.5552 8.33126C34.3849 10.9815 37.2871 12.2436 40 12.8746C39.1855 13.7865 38.1654 14.4911 37.0244 14.93C35.8833 15.369 34.654 15.5296 33.4385 15.3986Z" fill="url(#paint0_linear_1_3052)"/>
<defs>
<linearGradient id="paint0_linear_1_3052" x1="32.72" y1="11.0108" x2="26.7825" y2="-5.49257" gradientUnits="userSpaceOnUse">
<stop offset="0.131" stop-color="#093F5C" stop-opacity="0"/>
<stop offset="1" stop-color="#093F5C"/>
</linearGradient>
</defs>
</svg>
