<svg width="29" height="90" viewBox="0 0 29 90" fill="none" xmlns="http://www.w3.org/2000/svg">
<path d="M14.2944 18.7264C19.3822 37.4528 18.8169 69.094 19.5437 85.4796C19.5968 86.7034 20.1234 87.8588 21.0123 88.702C21.9012 89.5453 23.083 90.0106 24.3085 89.9998H26.8282C27.0099 90.0001 27.1895 89.9622 27.3556 89.8887C27.5217 89.8151 27.6704 89.7075 27.7923 89.5728C27.9141 89.4381 28.0062 89.2793 28.0627 89.1068C28.1193 88.9342 28.1389 88.7517 28.1203 88.5711C27.3127 80.5155 23.0567 40.3022 17.767 19.3722C16.67 14.9123 14.4676 10.8002 11.3626 7.41474C8.25766 4.02927 4.35009 1.47936 0 0C6.37997 5.08519 11.7908 9.68608 14.2944 18.7264Z" fill="#0A545A"/>
</svg>
