<svg width="37" height="34" viewBox="0 0 37 34" fill="none" xmlns="http://www.w3.org/2000/svg">
<path d="M35.7489 33.4751C36.0047 33.4722 36.2536 33.3918 36.4628 33.2446C36.672 33.0973 36.8317 32.8901 36.9208 32.6502C37.0099 32.4103 37.0242 32.1491 36.9618 31.9009C36.8995 31.6528 36.7633 31.4294 36.5715 31.2601L2.08578 0.313152C1.96136 0.203641 1.81649 0.119852 1.65953 0.0665971C1.50257 0.0133421 1.33663 -0.00832293 1.17126 0.00286283C1.0059 0.0140486 0.844375 0.0578532 0.696014 0.131761C0.547657 0.205668 0.415403 0.308224 0.30685 0.433494C0.1983 0.558765 0.115597 0.704274 0.0635393 0.861654C0.0114813 1.01903 -0.00890896 1.18517 0.00352206 1.35048C0.0159569 1.51578 0.0609785 1.67698 0.135991 1.8248C0.211008 1.97261 0.314528 2.10412 0.440596 2.21174L34.9263 33.1587C35.1623 33.3447 35.449 33.455 35.7489 33.4751Z" fill="#595959"/>
</svg>
