<svg width="576" height="68" viewBox="0 0 576 68" fill="none" xmlns="http://www.w3.org/2000/svg">
<path d="M571.006 45.8408C568.319 41.4115 564.395 37.865 559.718 35.6382C555.041 33.4113 549.814 32.6012 544.682 33.3079C544.682 33.3079 553.044 24.617 546.564 9.48997C545.011 5.63495 542.344 2.33078 538.902 0C539.948 5.19935 539.443 10.5914 537.45 15.5062C535.457 20.4209 532.064 24.6419 527.693 27.6445C523.321 30.6471 518.164 32.2992 512.861 32.3953C507.558 32.4915 502.344 31.0275 497.867 28.1853C496.283 32.0755 493.9 35.5897 490.871 38.5002C487.843 41.4107 484.237 43.6526 480.287 45.0808C476.337 46.5089 472.131 47.0914 467.941 46.7905C463.752 46.4896 459.672 45.3121 455.967 43.3342C455.372 46.7221 453.676 49.8189 451.141 52.1436C448.605 54.4684 445.374 55.891 441.947 56.1905C438.52 56.49 435.091 55.6496 432.191 53.7999C429.291 51.9501 427.083 49.1946 425.91 45.9611C421.978 49.1849 417.218 51.2349 412.174 51.8758C407.131 52.5166 402.009 51.7224 397.396 49.5842C396.834 53.4143 395.237 57.0184 392.778 60.0081C390.318 62.9978 387.09 65.2597 383.44 66.5501H572.867C572.878 66.5282 581.022 61.515 571.006 45.8626V45.8408ZM242.798 58.6254C241.952 50.4374 238.983 42.6123 234.184 35.9239C232.003 42.453 228.028 48.2361 222.713 52.6112C217.399 56.9864 210.96 59.7768 204.133 60.6631C197.307 61.5493 190.369 60.4957 184.113 57.6227C177.858 54.7497 172.537 50.1735 168.761 44.4178C168.65 44.6104 168.548 44.8075 168.455 45.0089C164.185 42.3376 159.38 40.639 154.38 40.0336C149.381 39.4283 144.309 39.9311 139.525 41.5063C140.241 36.9107 139.881 32.2119 138.474 27.779C137.066 23.3461 134.65 19.3 131.415 15.9589C132.655 18.192 133.303 20.7053 133.297 23.2597C133.299 26.0003 132.556 28.6899 131.149 31.0417C129.742 33.3935 127.723 35.3193 125.308 36.6136C122.892 37.908 120.17 38.5224 117.433 38.3913C114.695 38.2601 112.045 37.3885 109.764 35.8692C107.994 39.7574 105.152 43.0603 101.571 45.3905C97.9908 47.7207 93.8199 48.9815 89.5481 49.0252C85.2762 49.0689 81.0805 47.8935 77.453 45.637C73.8255 43.3805 70.9166 40.1363 69.0676 36.2851C66.7232 40.8532 63.3833 44.8368 59.2941 47.942C55.2049 51.0472 50.4708 53.1948 45.4409 54.2264C40.4111 55.258 35.2138 55.1473 30.2324 53.9024C25.251 52.6576 20.6127 50.3103 16.6594 47.0338C16.3077 51.6921 14.5149 56.1254 11.5297 59.7186C8.54444 63.3118 4.51486 65.8869 0 67.0864H277.113C277.102 67.0864 245.119 66.6705 242.798 58.6035V58.6254Z" fill="#A7D1C2"/>
</svg>
