<svg width="65" height="27" viewBox="0 0 65 27" fill="none" xmlns="http://www.w3.org/2000/svg">
<path d="M38.0488 14.0802L55.4244 10.1479C57.2896 9.74296 59.0297 8.8945 60.4976 7.67435C59.6098 7.48408 54.6 6.40586 52.0634 3.29807C51.2629 2.30352 50.6211 1.19098 50.161 0H50.8586C51.305 1.04031 51.8802 2.02047 52.5707 2.91753C54.8537 5.77162 60.1171 6.91326 61.1317 7.16696C62.9756 5.22878 64.1147 2.72698 64.3659 0.0634283H65C64.6195 3.67862 62.7805 9.06969 55.5512 10.8456C50.161 12.1775 44.0732 13.5094 38.1122 14.7779C21.1805 18.4565 3.67809 22.262 0.507355 26.448L3.08275e-05 26.0674C3.42442 21.5643 20.9903 17.7588 38.0488 14.0802Z" fill="#890320"/>
</svg>
