<svg width="5" height="4" viewBox="0 0 5 4" fill="none" xmlns="http://www.w3.org/2000/svg">
<path d="M0.535688 3.9987C1.51966 3.98928 2.4744 3.66297 3.25836 3.06815C4.04232 2.47333 4.61377 1.64167 4.88796 0.696474C4.90767 0.627484 4.91358 0.555291 4.9054 0.484009C4.89721 0.412727 4.87506 0.343753 4.84022 0.281031C4.80538 0.218309 4.75854 0.163063 4.70235 0.11845C4.64616 0.0738373 4.58174 0.0407352 4.51276 0.0210237C4.44378 0.00131209 4.37159 -0.00461931 4.30032 0.0035711C4.22905 0.0117615 4.16009 0.0339093 4.09738 0.0687548C4.03466 0.1036 3.97943 0.150462 3.93482 0.206658C3.89021 0.262853 3.85711 0.327286 3.8374 0.396277C3.62724 1.10973 3.19232 1.73622 2.5974 2.18249C2.00247 2.62875 1.27935 2.87092 0.535688 2.87294C0.39933 2.88193 0.270884 2.94016 0.174256 3.03681C0.0776271 3.13345 0.0194014 3.26192 0.0104169 3.3983C-0.00533952 3.474 -0.00332238 3.55232 0.0163138 3.62711C0.03595 3.7019 0.0726666 3.77112 0.123578 3.82931C0.174489 3.8875 0.238201 3.93309 0.30971 3.96248C0.381219 3.99187 0.458576 4.00427 0.535688 3.9987Z" fill="#CF7653"/>
</svg>
