<svg width="18" height="9" viewBox="0 0 18 9" fill="none" xmlns="http://www.w3.org/2000/svg">
<path d="M12.9768 8.99799C11.8755 8.9488 10.7851 8.75809 9.7326 8.43055C6.73678 7.55181 3.96889 6.03026 1.6221 3.97209C1.11349 3.52705 0.705715 2.9787 0.425994 2.36363C0.146274 1.74856 0.0010483 1.08094 0 0.405315C0 0.243189 -2.47755e-06 0 0.162208 0C0.324418 0 0.40553 0.162127 0.486635 0.324253C0.606164 1.52816 1.15277 2.64959 2.02762 3.48571C4.28458 5.45948 6.94005 6.92475 9.81371 7.78205C12.328 8.34949 12.8146 8.51162 14.68 8.34949C15.6256 8.30521 16.5453 8.02665 17.3565 7.53886C17.6809 7.29567 17.762 7.29567 17.5998 7.53886C16.8171 8.27802 15.8262 8.75906 14.7611 8.91693C14.1686 8.98087 13.5727 9.00795 12.9768 8.99799Z" fill="#B76349"/>
</svg>
