<svg width="76" height="43" viewBox="0 0 76 43" fill="none" xmlns="http://www.w3.org/2000/svg">
<path d="M0.927025 35.6097C2.06738 33.7089 7.64241 30.9843 9.41628 30.7308C23.5439 28.6399 38.2418 20.7195 38.2418 20.7195C42.4864 19.0088 48.9484 13.3061 50.4689 11.8488C53.4464 8.99747 65.8002 0 65.8002 0L76 5.51254L64.153 19.8325C59.9718 24.9648 50.5322 27.3092 47.8714 28.0696C44.2603 29.3368 34.3139 31.9981 25.7613 34.0257C22.657 34.5959 18.4757 35.7998 14.8013 36.8136C14.064 35.3345 12.8482 34.1483 11.3514 33.4479C9.85463 32.7475 8.16499 32.5741 6.5572 32.9559C4.94941 33.3377 3.51803 34.2523 2.49585 35.5509C1.47365 36.8495 0.920742 38.4557 0.927025 40.1085C0.919102 40.8852 1.04777 41.6573 1.30715 42.3895C1.24379 42.5162 0.800332 42.3262 0.736974 42.1994C-0.530077 38.968 0.0400905 36.9403 0.927025 35.6097Z" fill="url(#paint0_linear_1_3305)"/>
<defs>
<linearGradient id="paint0_linear_1_3305" x1="39.216" y1="25.9255" x2="40.2177" y2="34.2833" gradientUnits="userSpaceOnUse">
<stop stop-color="#CC7A5E" stop-opacity="0"/>
<stop offset="0.924" stop-color="#AA5F4B"/>
</linearGradient>
</defs>
</svg>
