<svg width="52" height="42" viewBox="0 0 52 42" fill="none" xmlns="http://www.w3.org/2000/svg">
<path d="M38.5775 3.68451C30.2648 17.3974 23.6469 26.5125 23.6469 26.5125C20.5429 26.4435 17.4384 26.6324 14.3657 27.0772C10.0883 27.7225 5.48801 29.4971 5.00378 30.4651C4.60025 31.2717 5.56872 31.5137 5.56872 31.5137C5.56872 31.5137 1.372 32.7237 0.887766 34.0143C0.79075 34.3549 0.763305 34.7115 0.807061 35.063C0.807061 35.063 0 35.063 0 36.5956C0 38.4509 4.84237 38.1282 4.84237 38.1282C4.83893 38.5532 4.95047 38.9713 5.16519 39.3382C5.81084 39.9835 13.2358 39.0962 16.7869 38.4509C18.9659 38.0475 18.401 38.5315 18.401 38.5315C18.401 38.5315 13.3972 40.2255 13.72 41.5968C13.72 41.8388 15.3342 41.7581 19.4502 41.4354C23.3241 41.1128 27.3594 39.2575 28.0857 37.8055C29.6999 34.7403 31.1526 33.369 32.6053 30.9491C35.1072 27.1578 46.0832 15.1389 51.5712 9.41168C54.1538 6.50776 44.4691 -6.15655 38.5775 3.68451Z" fill="#EA9D7D"/>
</svg>
