<svg width="6" height="4" viewBox="0 0 6 4" fill="none" xmlns="http://www.w3.org/2000/svg">
<path d="M3.76194 3.86141C3.51389 3.87471 3.26534 3.8471 3.02626 3.77971C2.5069 3.73879 2.00089 3.5949 1.53776 3.35644C1.07462 3.11798 0.663617 2.78972 0.328764 2.39082C0.0987216 2.055 -0.0160144 1.65361 0.00180114 1.24702C0.0920752 0.872706 0.327278 0.54949 0.655752 0.348324C1.42217 -0.00727433 2.28631 -0.0936463 3.10801 0.103222C3.24252 0.138454 3.379 0.16574 3.51672 0.184927C4.33414 0.348326 5.39678 0.511723 5.80549 1.16532C5.8935 1.29565 5.95349 1.44282 5.98163 1.59752C6.00977 1.75222 6.00546 1.91107 5.96898 2.06402C5.94739 2.3289 5.87244 2.5867 5.74866 2.82192C5.62488 3.05713 5.45481 3.26492 5.24867 3.4328C5.04253 3.60068 4.80459 3.72518 4.5491 3.79884C4.29361 3.87249 4.02586 3.89378 3.76194 3.86141ZM0.900968 1.49212C0.889993 1.58084 0.898977 1.67088 0.92726 1.75569C0.955544 1.8405 1.00242 1.91792 1.06446 1.98232C1.61684 2.5872 2.37415 2.96567 3.18973 3.04442C4.66109 3.20781 5.11884 2.88101 5.28232 2.06402C5.27867 1.95572 5.25076 1.84963 5.2006 1.75356C4.74285 1.05094 1.25245 -0.125535 0.892786 1.48395L0.900968 1.49212Z" fill="#CC7A5E"/>
</svg>
