<svg width="99" height="99" viewBox="0 0 99 99" fill="none" xmlns="http://www.w3.org/2000/svg">
<path d="M49.4923 9.47066C41.5765 9.47066 33.8384 11.8183 27.2566 16.2168C20.6749 20.6153 15.545 26.867 12.5157 34.1814C9.48647 41.4958 8.69388 49.5444 10.2382 57.3093C11.7825 65.0742 15.5943 72.2068 21.1917 77.805C26.789 83.4032 33.9204 87.2156 41.6842 88.7602C49.4479 90.3047 57.4952 89.512 64.8085 86.4823C72.1218 83.4526 78.3726 78.3219 82.7704 71.7391C87.1682 65.1563 89.5155 57.417 89.5155 49.5C89.5016 38.8878 85.2804 28.7143 77.7776 21.2103C70.2749 13.7063 60.1029 9.48453 49.4923 9.47066ZM49.4923 0C59.281 0 68.8498 2.90311 76.9888 8.34224C85.1278 13.7814 91.4713 21.5122 95.2173 30.5572C98.9633 39.6021 99.9434 49.5549 98.0337 59.157C96.124 68.759 91.4103 77.5791 84.4887 84.5018C77.5671 91.4245 68.7484 96.1389 59.1478 98.0488C49.5472 99.9588 39.596 98.9786 30.5524 95.232C21.5089 91.4855 13.7792 85.1409 8.34091 77.0007C2.90262 68.8605 -5.37043e-05 59.2902 -5.37043e-05 49.5C-5.37043e-05 36.3718 5.21431 23.7813 14.4959 14.4982C23.7775 5.21516 36.3661 0 49.4923 0Z" fill="#333333"/>
</svg>
