<svg width="29" height="29" viewBox="0 0 29 29" fill="none" xmlns="http://www.w3.org/2000/svg">
<path d="M14.4977 2.52174C12.129 2.52174 9.8135 3.22426 7.84399 4.54044C5.87448 5.85663 4.33942 7.72737 3.43295 9.91611C2.52649 12.1048 2.28932 14.5133 2.75143 16.8368C3.21354 19.1604 4.35419 21.2947 6.02913 22.9699C7.70406 24.6451 9.83804 25.7859 12.1612 26.2481C14.4844 26.7103 16.8925 26.4731 19.0809 25.5665C21.2693 24.6599 23.1398 23.1246 24.4557 21.1548C25.7717 19.1849 26.4741 16.8691 26.4741 14.5C26.4748 12.9268 26.1655 11.3689 25.5638 9.91534C24.9622 8.46177 24.0801 7.14102 22.9678 6.02861C21.8556 4.91619 20.535 4.03391 19.0817 3.43218C17.6283 2.83045 16.0707 2.52108 14.4977 2.52174ZM14.4977 0C17.3651 0 20.1681 0.850404 22.5522 2.44368C24.9364 4.03696 26.7946 6.30155 27.8919 8.95108C28.9892 11.6006 29.2763 14.5161 28.7169 17.3288C28.1575 20.1415 26.7767 22.7252 24.7492 24.753C22.7216 26.7809 20.1384 28.1619 17.3261 28.7214C14.5138 29.2809 11.5988 28.9937 8.94967 27.8962C6.30055 26.7988 4.03632 24.9403 2.44328 22.5558C0.850246 20.1712 -4.59635e-05 17.3678 -4.59635e-05 14.5C-4.59635e-05 10.6544 1.5274 6.96622 4.24626 4.24695C6.96512 1.52767 10.6527 0 14.4977 0Z" fill="#333333"/>
</svg>
