<svg width="19" height="18" viewBox="0 0 19 18" fill="none" xmlns="http://www.w3.org/2000/svg">
<path d="M15.0055 0.0384696L18.0711 0.683535C18.2547 0.724539 18.4251 0.811099 18.5664 0.935236C18.7078 1.05937 18.8156 1.21708 18.8799 1.39383C18.9442 1.57057 18.9629 1.76065 18.9344 1.94654C18.9058 2.13243 18.8309 2.30813 18.7165 2.45745L6.45397 17.6164C6.30718 17.7843 6.11364 17.9047 5.8981 17.9621C5.68256 18.0196 5.45479 18.0115 5.24385 17.939L0 16.2457L13.9567 0.361002C14.0816 0.211698 14.2472 0.101776 14.4333 0.0445353C14.6194 -0.0127051 14.8182 -0.0148122 15.0055 0.0384696Z" fill="#1F2B36"/>
</svg>
