<svg width="27" height="27" viewBox="0 0 27 27" fill="none" xmlns="http://www.w3.org/2000/svg">
<path d="M12.216 26.9647C11.6579 26.9785 11.0995 26.9507 10.5455 26.8812C3.27884 26.4638 -0.312756 23.375 0.0213449 17.6982C0.271921 12.3553 2.27653 0.417405 2.27653 0.333923L2.36006 0L27 0.584372V1.00178C27 1.16875 25.8307 13.6076 24.5778 20.0357C23.659 24.3768 18.9816 26.9647 12.216 26.9647ZM3.02826 0.834821C2.69416 2.83839 1.10717 13.0232 0.856598 17.7817C0.606022 22.9576 3.77998 25.7125 10.6291 26.0464C17.8958 26.4638 22.9073 24.1263 23.7425 19.8687C24.8284 14.1919 25.9142 3.58972 26.0812 1.33571L3.02826 0.834821Z" fill="#0E4F59"/>
</svg>
