<svg width="228" height="112" viewBox="0 0 228 112" fill="none" xmlns="http://www.w3.org/2000/svg">
<path d="M222.995 90.856C220.301 86.4154 216.367 82.8598 211.677 80.6272C206.988 78.3945 201.748 77.5824 196.603 78.2909C196.603 78.2909 203.516 70.1263 198.49 54.4117C193.464 38.6971 170.836 41.8466 170.836 41.8466C170.836 41.8466 175.225 16.7164 153.87 6.65334C132.515 -3.40972 116.801 15.4544 116.801 15.4544C116.801 15.4544 99.2093 -4.64976 65.9036 1.00179C32.5978 6.65334 31.9723 41.8466 31.9723 41.8466C31.9723 41.8466 18.5074 35.1525 6.20563 46.8726C-6.19487 58.6915 3.61578 77.1825 4.82291 79.3334C8.71864 69.1496 168.806 110.28 169.08 111.597H224.882C224.871 111.586 233.036 106.549 222.984 90.856H222.995Z" fill="url(#paint0_linear_1_1825)"/>
<defs>
<linearGradient id="paint0_linear_1_1825" x1="107.616" y1="95.4151" x2="117.269" y2="9.45352" gradientUnits="userSpaceOnUse">
<stop stop-color="#B5D9CD" stop-opacity="0"/>
<stop offset="0.055" stop-color="#B3D8CE" stop-opacity="0.059"/>
<stop offset="0.58" stop-color="#A0D1D3" stop-opacity="0.608"/>
<stop offset="0.956" stop-color="#9ACFD5"/>
</linearGradient>
</defs>
</svg>
