<svg width="181" height="118" viewBox="0 0 181 118" fill="none" xmlns="http://www.w3.org/2000/svg">
<path d="M0.242403 98.8983L38.9695 2.12854C39.1346 1.71567 39.3794 1.33938 39.6899 1.02114C40.0005 0.702903 40.3706 0.448954 40.7793 0.27379C41.1879 0.0986263 41.6271 0.0056733 42.0716 0.000251707C42.5162 -0.00516989 42.9575 0.0770399 43.3703 0.242186C43.7831 0.407332 44.1593 0.652188 44.4775 0.96276C44.7957 1.27333 45.0496 1.64354 45.2247 2.05226C45.3999 2.46098 45.4928 2.90018 45.4982 3.34482C45.5037 3.78945 45.4215 4.23081 45.2563 4.64367L39.5353 18.9171L130.38 39.2896C130.506 39.2896 130.569 39.3525 130.695 39.3525H130.758C130.821 39.3525 130.883 39.4154 131.009 39.4154H131.072C131.135 39.4783 131.261 39.4783 131.323 39.5412L131.386 39.604C131.449 39.6669 131.512 39.6669 131.575 39.7298C131.592 39.7298 131.608 39.7364 131.619 39.7482C131.631 39.76 131.638 39.776 131.638 39.7927L132.141 40.2957C132.204 40.3586 132.267 40.4214 132.267 40.4843L180.235 99.0241C180.64 99.5185 180.897 100.118 180.975 100.752C181.053 101.387 180.949 102.03 180.675 102.608C180.415 103.152 180.017 103.618 179.521 103.96C179.024 104.302 178.447 104.508 177.846 104.557C175.206 104.872 130.066 112.291 100.204 117.259H99.1976C99.109 117.268 99.0199 117.246 98.9462 117.196C98.8833 117.196 98.8204 117.196 98.8204 117.133C98.7575 117.133 98.6947 117.07 98.5689 117.07C98.5061 117.07 98.4432 117.007 98.3803 117.007C98.3175 117.007 98.2546 116.944 98.1917 116.944C98.1289 116.944 98.066 116.882 98.0031 116.819C97.9403 116.819 97.8774 116.756 97.8145 116.693C97.7516 116.63 97.6888 116.63 97.6259 116.567C97.563 116.504 97.5002 116.504 97.5002 116.441C97.4373 116.379 97.3744 116.379 97.3744 116.316L97.0601 116.001C96.9972 115.938 96.9972 115.875 96.9344 115.875L35.8889 28.2859L6.59213 101.476C6.34123 102.106 5.90782 102.646 5.34763 103.027C4.78746 103.408 4.12613 103.612 3.4487 103.614C3.01634 103.622 2.5874 103.536 2.19133 103.363C1.76896 103.199 1.38316 102.954 1.05619 102.64C0.729226 102.327 0.467569 101.952 0.286351 101.537C0.105149 101.122 0.0079767 100.675 0.000427869 100.222C-0.00712096 99.7691 0.0751216 99.3192 0.242403 98.8983ZM171.245 98.7097L130.569 49.0987L105.107 109.525L171.245 98.7097ZM98.8833 106.884L124.974 45.0116L42.9302 26.6511L98.8833 106.884Z" fill="#642C1E"/>
</svg>
