<svg width="90" height="184" viewBox="0 0 90 184" fill="none" xmlns="http://www.w3.org/2000/svg">
<path d="M15.1445 1.6047C31.1676 -4.26677 41.2314 6.70794 46.3347 22.5884C51.4379 38.4688 55.9924 39.5992 65.0465 44.7134C74.1226 49.8166 77.5248 58.322 76.3944 69.6699C75.264 81.0177 80.3673 87.8221 86.0522 92.9363C91.7371 98.0505 92.2858 108.817 80.9489 119.023C69.612 129.23 72.9703 164.239 76.9431 177.299C80.9159 190.359 30.4323 179.45 30.4323 179.45C30.4323 179.45 27.9301 143.727 20.8185 135.474C7.53906 120.066 14.6946 109.332 12.3131 99.7406C10.5352 92.5851 -2.437 87.2623 0.405451 71.9526C3.2479 56.6429 13.4654 50.9689 9.48156 37.931C5.49774 24.893 -1.86631 7.86028 15.1555 1.62664L15.1445 1.6047Z" fill="#DDEDDE"/>
</svg>
