<svg width="6" height="18" viewBox="0 0 6 18" fill="none" xmlns="http://www.w3.org/2000/svg">
<path d="M5.53775 17.9989H5.60132C5.6597 17.9691 5.70853 17.9235 5.74224 17.8673C5.77596 17.8111 5.7932 17.7465 5.792 17.681L2.80455 8.52656C2.23249 6.61938 0.516301 0.198546 0.516301 0.198546C0.507954 0.165152 0.493106 0.133729 0.472617 0.106072C0.452128 0.0784148 0.42639 0.055064 0.396878 0.0373542C0.367367 0.0196444 0.334658 0.00792099 0.300617 0.00285468C0.266575 -0.00221163 0.231876 -0.000522334 0.198487 0.00782614C0.165099 0.0161746 0.133681 0.0310197 0.106027 0.0515119C0.0783747 0.0720042 0.0550277 0.0977413 0.0373204 0.127258C0.0196135 0.156774 0.00788711 0.189492 0.00282151 0.223539C-0.00224408 0.257586 -0.000549915 0.292295 0.00779731 0.325689L2.29605 8.6537C2.80455 10.3702 5.2835 17.7446 5.2835 17.7446C5.28015 17.7788 5.28441 17.8134 5.296 17.8457C5.30759 17.8781 5.32621 17.9075 5.35052 17.9318C5.37484 17.9562 5.40425 17.9748 5.43662 17.9864C5.46899 17.998 5.50353 18.0022 5.53775 17.9989Z" fill="#CF7653"/>
</svg>
