<svg width="99" height="99" viewBox="0 0 99 99" fill="none" xmlns="http://www.w3.org/2000/svg">
<path d="M49.4924 9.47066C41.5766 9.47066 33.8385 11.8183 27.2567 16.2168C20.675 20.6153 15.5451 26.867 12.5158 34.1814C9.48657 41.4958 8.69397 49.5444 10.2383 57.3093C11.7826 65.0742 15.5944 72.2068 21.1918 77.805C26.7891 83.4032 33.9206 87.2156 41.6843 88.7602C49.448 90.3047 57.4953 89.512 64.8086 86.4823C72.1219 83.4526 78.3727 78.3219 82.7705 71.7391C87.1683 65.1563 89.5156 57.417 89.5156 49.5C89.5017 38.8878 85.2806 28.7143 77.7778 21.2103C70.275 13.7063 60.103 9.48453 49.4924 9.47066ZM49.4924 0C59.2811 0 68.8499 2.90311 76.9889 8.34224C85.1279 13.7814 91.4715 21.5122 95.2174 30.5572C98.9634 39.6021 99.9435 49.5549 98.0338 59.157C96.1241 68.759 91.4105 77.5791 84.4888 84.5018C77.5672 91.4245 68.7485 96.1389 59.1479 98.0488C49.5473 99.9588 39.5961 98.9786 30.5525 95.232C21.509 91.4855 13.7793 85.1409 8.34101 77.0007C2.90271 68.8605 3.83602e-05 59.2902 3.83602e-05 49.5C3.83602e-05 36.3718 5.2144 23.7813 14.496 14.4982C23.7776 5.21516 36.3662 0 49.4924 0Z" fill="#333333"/>
</svg>
