<svg width="60" height="51" viewBox="0 0 60 51" fill="none" xmlns="http://www.w3.org/2000/svg">
<path d="M2.22432 50.4509C2.51298 50.4254 2.79299 50.3392 3.04607 50.198L2.79322 49.5658C2.57616 49.6861 2.3415 49.7714 2.09789 49.8187C1.6554 49.629 1.27613 48.3013 1.14971 47.7323C0.844628 46.1286 0.717429 44.496 0.770432 42.8643C0.770432 41.6631 0.896855 40.5883 2.66679 40.0825C4.68957 39.5135 17.4584 35.0248 17.9641 34.8351L18.0273 34.7719C18.0905 34.7087 26.1816 29.2716 29.9111 26.8692L40.4675 19.9148C42.6799 18.3975 44.5763 17.1963 45.3348 16.6905L45.5245 16.5641C47.7474 15.1603 49.7498 13.4345 51.4664 11.4431C53.742 8.85103 59.9368 0.505767 60 0.379324L59.4943 0C59.4311 0.0632217 53.2363 8.40848 50.9607 11.0006C49.3045 12.9685 47.3406 14.6552 45.1452 15.9951L44.9556 16.1215L40.0882 19.3458L29.5319 26.3002L17.648 34.2029L2.41395 39.4503C0.201528 40.0825 0.0119036 41.5366 0.0119036 42.8011C-0.0414879 44.4957 0.085657 46.1911 0.391176 47.8588C0.707238 49.1864 1.08649 50.1348 1.71861 50.3877C1.88327 50.4329 2.05359 50.4542 2.22432 50.4509Z" fill="#CC7A5E"/>
</svg>
