<svg width="24" height="13" viewBox="0 0 24 13" fill="none" xmlns="http://www.w3.org/2000/svg">
<path d="M10.9157 5.6165C15.1741 6.86837 19.2167 8.7623 22.9042 11.233C22.799 11.8641 22.5626 12.4661 22.2101 13C22.2101 13 16.8469 9.15048 10.9157 7.57281C4.22746 5.80582 0.441647 5.80582 0.441647 5.80582C0.180038 5.11902 0.0308993 4.3945 -3.06731e-05 3.6602C3.7003 3.90167 7.36182 4.55788 10.9157 5.6165ZM11.2943 3.84952C7.64266 2.81716 3.90445 2.1201 0.126162 1.76699C0.249186 1.11919 0.531034 0.512042 0.946425 0C4.81953 0.220777 8.65297 0.898618 12.367 2.01942C16.0069 3.19226 19.5167 4.73596 22.8411 6.62621C23.0864 7.37856 23.1724 8.17376 23.0935 8.96117C19.4235 6.70474 15.4504 4.98351 11.2943 3.84952Z" fill="#FFC408"/>
</svg>
