<svg width="24" height="8" viewBox="0 0 24 8" fill="none" xmlns="http://www.w3.org/2000/svg">
<path d="M3.42844 7.66797L21.0776 6.33932C21.4944 6.30987 21.9011 6.19765 22.274 6.0092C22.6468 5.82075 22.9784 5.55987 23.2494 5.24178C23.5203 4.92369 23.7251 4.55479 23.8518 4.15663C23.9786 3.75847 24.0247 3.33903 23.9875 2.92283C23.9581 2.50602 23.8459 2.09926 23.6574 1.72631C23.469 1.35337 23.2082 1.02172 22.8901 0.750759C22.5721 0.479795 22.2032 0.274956 21.8051 0.148195C21.407 0.0214327 20.9877 -0.0247127 20.5716 0.0124786L2.92237 1.34112C2.50562 1.37057 2.09893 1.4828 1.72604 1.67125C1.35315 1.8597 1.02156 2.1206 0.750634 2.43868C0.479712 2.75677 0.274895 3.12567 0.148152 3.52383C0.0214109 3.92199 -0.024709 4.34142 0.0124775 4.75761C0.0831507 5.59519 0.481747 6.37095 1.12151 6.91602C1.76128 7.46108 2.59041 7.73134 3.42844 7.66797Z" fill="#283749"/>
</svg>
