<svg width="99" height="134" viewBox="0 0 99 134" fill="none" xmlns="http://www.w3.org/2000/svg">
<path d="M44.532 8.51718C46.3313 10.6566 48.4048 15.0342 49.2496 16.5482C52.958 23.3505 56.9296 28.902 67.868 31.7984C80.1889 35.0569 86.662 44.1741 84.8188 57.5591C83.7984 64.9867 80.9788 72.9739 93.1131 85.0972C105.215 97.2096 95.9108 114.906 89.6023 126.196C83.2938 137.485 52.2997 135.192 38.2563 126.788C24.213 118.384 17.4986 104.549 13.7902 89.8149C10.6085 77.154 10.4769 69.847 14.273 60.664C18.3104 50.8776 15.0739 45.0189 6.48331 36.8342C-2.10726 28.6496 -4.65262 10.503 14.6679 2.05504C18.5518 0.354475 24.6738 -1.09373 32.8146 1.14443C32.7926 1.1554 40.2751 3.44842 44.5539 8.52816L44.532 8.51718Z" fill="#DDEDDE"/>
</svg>
