<svg width="69" height="73" viewBox="0 0 69 73" fill="none" xmlns="http://www.w3.org/2000/svg">
<path d="M67.2378 7.34703C71.5154 15.3331 68.9327 26.1426 49.0781 40.4208C34.0661 51.2303 29.5464 56.151 23.4932 61.7978C16.4715 68.2512 13.6466 71.2359 12.6781 72.2846C12.5482 72.4319 12.3658 72.5228 12.1699 72.5379C11.9739 72.5529 11.7799 72.491 11.6289 72.3652L0.329553 63.1691C0.173136 63.0319 0.0651097 62.8479 0.0214979 62.6445C-0.022114 62.4411 0.00100641 62.229 0.0874216 62.0398L7.27057 49.5363C11.3868 42.2762 14.5344 37.7588 20.0227 29.1273C31.9677 10.2511 38.3437 5.97567 47.1411 1.45828C53.0329 -1.68776 63.4444 0.248265 67.2378 7.34703Z" fill="#0A5F66"/>
</svg>
