<svg width="27" height="104" viewBox="0 0 27 104" fill="none" xmlns="http://www.w3.org/2000/svg">
<path d="M25.8744 104C25.7386 103.997 25.6084 103.946 25.5074 103.855C25.4065 103.764 25.3415 103.64 25.3244 103.505C24.3124 93.4945 22.9043 83.8581 21.1882 74.8487C10.5727 19.6262 0.155326 1.00236 0.0673224 0.815348C-0.00269787 0.686978 -0.0188553 0.53603 0.0224046 0.395746C0.0636645 0.255463 0.158908 0.137343 0.287279 0.0673224C0.415649 -0.00269792 0.566631 -0.0188553 0.706914 0.0224046C0.847198 0.0636644 0.965351 0.158942 1.03537 0.287312C1.14538 0.474321 11.6508 19.2632 22.2993 74.6507C24.0374 83.6711 25.4345 93.3515 26.4575 103.395C26.4651 103.467 26.4583 103.54 26.4374 103.61C26.4166 103.68 26.3822 103.744 26.3362 103.801C26.2901 103.857 26.2334 103.904 26.1693 103.938C26.1051 103.972 26.0348 103.993 25.9625 104H25.8965H25.8744Z" fill="white"/>
</svg>
