<svg width="41" height="28" viewBox="0 0 41 28" fill="none" xmlns="http://www.w3.org/2000/svg">
<path d="M40.156 12.6958L2.81898 27.5949C2.50748 27.7153 2.16139 27.7098 1.85385 27.5797C1.5463 27.4495 1.30137 27.2049 1.17083 26.8975C0.60031 25.4393 -0.160388 22.9033 0.0297834 20.8745C0.219955 18.2751 12.1374 6.73623 15.5605 3.43942C15.8097 3.20116 16.1282 3.04821 16.47 3.00263C16.8118 2.95705 17.1592 3.02119 17.4622 3.1858C19.0708 4.10946 20.8541 4.68796 22.6985 4.88444C24.543 5.08092 26.4081 4.89108 28.1752 4.32702C32.2322 2.99561 34.0705 1.28379 34.8312 0.332789C34.902 0.230135 34.9967 0.146235 35.1071 0.0882666C35.2175 0.0302982 35.3404 0 35.4651 0C35.5898 0 35.7126 0.0302982 35.823 0.0882666C35.9335 0.146235 36.0282 0.230135 36.099 0.332789C37.24 1.7276 39.4587 5.02441 40.9167 11.1108C40.9771 11.2644 41.0052 11.4288 40.9992 11.5937C40.9932 11.7586 40.9533 11.9205 40.8819 12.0692C40.8105 12.218 40.7092 12.3504 40.5843 12.4583C40.4594 12.5661 40.3136 12.647 40.156 12.6958Z" fill="url(#paint0_linear_1_3119)"/>
<defs>
<linearGradient id="paint0_linear_1_3119" x1="20.951" y1="18.1313" x2="18.635" y2="5.90875" gradientUnits="userSpaceOnUse">
<stop stop-color="#911319"/>
<stop offset="0.98" stop-color="#BA3024"/>
</linearGradient>
</defs>
</svg>
