<svg width="14" height="7" viewBox="0 0 14 7" fill="none" xmlns="http://www.w3.org/2000/svg">
<path d="M3.82347 6.99887C4.6795 6.96061 5.52705 6.81226 6.3452 6.5575C8.67353 5.8732 10.8249 4.68979 12.6495 3.08959C13.0449 2.74346 13.3619 2.31694 13.5793 1.83852C13.7967 1.3601 13.9096 0.840788 13.9104 0.315264C13.9104 0.189158 13.9104 0 13.7843 0C13.6582 0 13.5952 0.126107 13.5321 0.252212C13.4392 1.18864 13.0143 2.06091 12.3343 2.71127C10.5797 4.24608 8.51566 5.38576 6.28215 6.05308C4.32781 6.49445 3.94955 6.62055 2.49956 6.49444C1.71954 6.44114 0.963307 6.20343 0.293042 5.80086C0.103912 5.67476 -0.0852137 5.6117 0.0408724 5.80086C0.724753 6.38482 1.55151 6.7765 2.43651 6.93581C2.89717 6.98428 3.36031 7.00533 3.82347 6.99887Z" fill="#B76349"/>
</svg>
