<svg width="251" height="12" viewBox="0 0 251 12" fill="none" xmlns="http://www.w3.org/2000/svg">
<path d="M3.22807 11.238H247.772C248.628 11.238 249.449 10.8979 250.054 10.2925C250.66 9.68715 251 8.86608 251 8.00995V3.22806C251 2.37193 250.66 1.55086 250.054 0.945484C249.449 0.340107 248.628 0 247.772 0H3.22807C2.37194 0 1.55087 0.340107 0.945493 0.945484C0.340116 1.55086 9.13067e-06 2.37193 9.13067e-06 3.22806V8.00995C-0.00100104 8.43414 0.0818181 8.85436 0.243685 9.24646C0.405552 9.63856 0.643302 9.99484 0.943255 10.2948C1.24321 10.5947 1.59946 10.8325 1.99156 10.9943C2.38366 11.1562 2.80387 11.239 3.22807 11.238Z" fill="#E8BF89"/>
</svg>
