<svg width="7" height="6" viewBox="0 0 7 6" fill="none" xmlns="http://www.w3.org/2000/svg">
<path d="M4.96915 5.81458C4.13063 5.69794 3.31851 5.43769 2.56846 5.04528C1.41967 4.43881 0.537771 3.42679 0.0944462 2.20621C0.00889778 1.96454 -0.0190747 1.70627 0.0127379 1.4519C0.0445504 1.19753 0.135282 0.954077 0.277717 0.740891C0.539748 0.36791 0.932009 0.106523 1.37726 0.0082261C2.4195 -0.0538208 3.45233 0.236511 4.30942 0.832472C4.44917 0.944093 4.60326 1.0365 4.76757 1.10722C5.59223 1.65672 6.78341 2.38938 6.96667 3.3052C7.04643 3.73516 6.98203 4.17941 6.78343 4.56905C6.05039 5.57646 5.59224 5.81458 4.95084 5.81458H4.96915ZM1.01074 1.1988C0.918741 1.43437 0.918741 1.6959 1.01074 1.93146C1.35374 2.93082 2.07846 3.75393 3.02661 4.22103C4.67594 5.13686 5.40896 4.86211 5.95874 3.94629C6.03281 3.80567 6.06464 3.64665 6.05038 3.48837C5.95875 2.84729 4.85919 2.20621 4.21778 1.83988C4.03452 1.7483 3.85126 1.56513 3.668 1.47355C3.04238 0.989719 2.25665 0.760666 1.46889 0.832472C1.28013 0.901093 1.11916 1.02981 1.01074 1.1988Z" fill="#CC7A5E"/>
</svg>
