<svg width="47" height="48" viewBox="0 0 47 48" fill="none" xmlns="http://www.w3.org/2000/svg">
<path d="M0.763827 0C0.763827 0 9.24912 12.6002 13.8554 16.9618C18.3809 21.3234 22.8256 21.9696 25.9773 20.5157C29.2906 18.9811 34.9475 14.9425 36.9678 13.4079C37.1742 13.2547 37.4314 13.1862 37.6867 13.2162C37.9421 13.2462 38.1763 13.3726 38.3416 13.5695L46.7461 23.4235C46.8944 23.5866 46.9831 23.7952 46.9978 24.0151C47.0124 24.2351 46.9522 24.4536 46.8269 24.635C44.8874 27.2197 37.0486 37.316 27.7552 43.5353C17.4112 50.4816 15.1484 48.0585 7.2288 42.4045C-3.2768 35.1352 0.763827 0 0.763827 0Z" fill="#0A545A"/>
</svg>
