<svg width="54" height="94" viewBox="0 0 54 94" fill="none" xmlns="http://www.w3.org/2000/svg">
<path d="M52.8321 42.5308C54.6235 21.0448 54.8678 9.56923 49.8192 4.60464C44.2821 -0.115782 40.2106 -0.115781 35.6506 0.0469925C32.7192 0.128379 22.052 1.43057 16.8405 22.8353L0.0254943 92.7871C-0.00767552 92.9281 -0.00849042 93.0748 0.0231212 93.2163C0.0547327 93.3577 0.117951 93.4901 0.208031 93.6036C0.298111 93.7171 0.412725 93.8088 0.543284 93.8718C0.673842 93.9347 0.816957 93.9674 0.961921 93.9672H36.5463C41.0249 93.9672 46.9692 90.9559 48.0278 86.561C51.0407 74.9227 51.6921 55.8782 52.8321 42.5308Z" fill="url(#paint0_linear_1_3622)"/>
<defs>
<linearGradient id="paint0_linear_1_3622" x1="42.012" y1="49.7086" x2="-24.2586" y2="46.9684" gradientUnits="userSpaceOnUse">
<stop stop-color="#0A5F66"/>
<stop offset="0.998" stop-color="#00394A"/>
</linearGradient>
</defs>
</svg>
