<svg width="624" height="112" viewBox="0 0 624 112" fill="none" xmlns="http://www.w3.org/2000/svg">
<path d="M618.989 90.5616C616.304 86.1354 612.383 82.5913 607.709 80.3659C603.034 78.1405 597.811 77.331 592.682 78.0372C592.682 78.0372 599.574 69.8991 594.564 54.2354C589.554 38.5717 566.999 41.711 566.999 41.711C566.999 41.711 571.375 16.6622 550.089 6.63178C528.803 -3.39867 513.139 15.4043 513.139 15.4043C513.139 15.4043 495.605 -4.6347 462.407 0.998544C429.209 6.63178 428.586 41.711 428.586 41.711C428.586 41.711 415.164 35.0386 402.902 46.7207C389.755 59.2451 401.645 79.2951 401.645 79.2951C401.645 79.2951 386.615 74.2854 373.456 84.3049C370.74 86.3704 368.439 88.9313 366.675 91.8523C365.931 91.382 365.22 90.9773 364.596 90.6272C356.36 86.2519 343.081 79.1201 318.437 83.211C312.572 84.0686 307.006 86.3519 302.229 89.8609C297.452 93.3699 293.609 97.9974 291.036 103.338C289.067 85.4534 277.746 70.271 261.459 66.1472C252.962 64.0119 243.974 65.1031 236.235 69.21L229.344 73.6947C224.001 78.0425 219.696 83.5285 216.743 89.7521C212.476 87.0827 207.674 85.3852 202.678 84.7803C197.682 84.1754 192.613 84.6778 187.833 86.2519C188.816 79.9245 187.755 73.4485 184.803 67.7661C181.176 60.937 175.11 55.7244 167.813 53.1663C160.515 50.6082 152.522 50.8923 145.425 53.962C147.09 48.0185 146.433 41.6642 143.587 36.1872C140.485 30.3634 135.197 26.0093 128.887 24.0814C122.576 22.1535 115.758 22.8094 109.93 25.9051C107.253 27.2895 104.845 29.1418 102.82 31.3743C98.8479 29.0134 94.3432 27.6952 89.7247 27.5422C85.1063 27.3892 80.5241 28.4064 76.4042 30.4992C73.0992 32.2346 70.1908 34.6377 67.8634 37.5563C65.5361 40.4749 63.8406 43.8452 62.8845 47.4536C59.0836 47.0716 55.2465 47.2782 51.5086 48.0662C32.3993 52.0915 20.0062 70.0522 23.8018 88.1552C24.3898 90.9591 25.3538 93.6708 26.6676 96.2167C21.1211 95.4705 15.4843 96.599 10.6527 99.4231C5.82099 102.247 2.07157 106.605 0 111.804H354.653L372.002 111.224H620.892C620.881 111.202 629.02 106.192 619 90.5506L618.989 90.5616Z" fill="#B5D9CD"/>
</svg>
