<svg width="53" height="128" viewBox="0 0 53 128" fill="none" xmlns="http://www.w3.org/2000/svg">
<path d="M52.4477 127.444C52.3135 127.444 52.1839 127.395 52.0831 127.306C51.9823 127.217 51.9172 127.095 51.9 126.962C49.2945 109.308 45.2834 91.8894 39.9049 74.8736C35.857 62.8113 30.7315 51.1379 24.5906 39.9947C24.556 39.9314 24.5343 39.8619 24.5266 39.7902C24.519 39.7185 24.5255 39.646 24.5458 39.5768C24.5869 39.4371 24.6818 39.3195 24.8096 39.2497C24.9375 39.18 25.0878 39.1639 25.2275 39.205C25.3672 39.2461 25.4848 39.341 25.5546 39.4688C31.7301 50.6662 36.8814 62.3986 40.9455 74.523C46.3329 91.607 50.362 109.09 52.9954 126.809C53.0141 126.952 52.975 127.098 52.8867 127.213C52.7984 127.328 52.6681 127.403 52.5244 127.422C52.5134 127.433 52.4915 127.433 52.4587 127.433L52.4477 127.444ZM22.4764 35.5362C22.3776 35.5377 22.2803 35.5119 22.1953 35.4616C22.1102 35.4114 22.0407 35.3386 21.9944 35.2514L20.6579 32.8743C20.6234 32.811 20.6017 32.7415 20.594 32.6698C20.5863 32.5981 20.5928 32.5256 20.6132 32.4564C20.6335 32.3873 20.6673 32.3228 20.7126 32.2666C20.7578 32.2105 20.8137 32.1639 20.877 32.1293C20.9403 32.0948 21.0098 32.0731 21.0815 32.0654C21.1532 32.0577 21.2257 32.0643 21.2948 32.0846C21.364 32.105 21.4285 32.1387 21.4846 32.184C21.5407 32.2293 21.5874 32.2851 21.6219 32.3484L22.9693 34.7365C23.004 34.7998 23.0259 34.8693 23.0336 34.941C23.0414 35.0127 23.0349 35.0853 23.0146 35.1545C22.9942 35.2237 22.9604 35.2882 22.915 35.3443C22.8696 35.4004 22.8136 35.447 22.7502 35.4814C22.6643 35.5215 22.5711 35.5438 22.4764 35.5472V35.5362ZM16.9553 26.0387C16.8612 26.0372 16.7689 26.0124 16.6867 25.9665C16.6045 25.9207 16.535 25.8551 16.4843 25.7758C7.72073 11.2064 0.18408 0.974923 0.107399 0.876333C0.0216465 0.759619 -0.0149205 0.61393 0.00556153 0.470556C0.0260435 0.327182 0.101939 0.197578 0.216941 0.109543C0.333153 0.0223836 0.479231 -0.0150361 0.623036 0.0055075C0.766841 0.0260511 0.89659 0.102882 0.983748 0.219094C1.06043 0.328638 8.65186 10.6039 17.4154 25.1952C17.4899 25.3222 17.5122 25.4732 17.4774 25.6163C17.4427 25.7594 17.3536 25.8833 17.2292 25.962C17.148 26.0152 17.0523 26.0419 16.9553 26.0387Z" fill="white"/>
</svg>
