<svg width="54" height="71" viewBox="0 0 54 71" fill="none" xmlns="http://www.w3.org/2000/svg">
<path d="M0.553206 71H0.476221C0.333186 70.9782 0.204118 70.9019 0.115998 70.7872C0.0278776 70.6724 -0.0124675 70.528 0.00337363 70.3842C0.0363635 70.1643 3.06041 48.8638 15.7065 31.4781C33.1912 7.43941 52.5893 0.115679 52.7872 0.0277054C52.9232 -0.0171523 53.0712 -0.00725229 53.1999 0.0553245C53.3286 0.117901 53.4279 0.228195 53.4766 0.362793C53.5252 0.49739 53.5196 0.645694 53.4606 0.77614C53.4017 0.906586 53.2943 1.00892 53.1611 1.06139C52.9742 1.12737 33.862 8.36315 16.5863 32.1159C4.10507 49.2707 1.11401 70.3072 1.08102 70.5272C1.06193 70.6582 0.995401 70.7776 0.894032 70.8627C0.792662 70.9479 0.663523 70.9928 0.531191 70.989L0.553206 71Z" fill="white"/>
</svg>
