<svg width="8" height="23" viewBox="0 0 8 23" fill="none" xmlns="http://www.w3.org/2000/svg">
<path d="M0.325177 22.9986H0.243898C0.169255 22.9605 0.106818 22.9023 0.0637062 22.8304C0.0205949 22.7586 -0.0014572 22.6761 7.47169e-05 22.5924L3.81994 10.895C4.5514 8.4581 6.7458 0.253692 6.7458 0.253692C6.76735 0.167516 6.82228 0.0934329 6.89848 0.0477312C6.97469 0.00202948 7.06595 -0.0115431 7.15217 0.0100009C7.23839 0.0315449 7.31252 0.0864383 7.35824 0.162608C7.40397 0.238777 7.41755 0.329983 7.39599 0.416159L4.47013 11.0575C3.81994 13.2508 0.650267 22.6736 0.650267 22.6736C0.654562 22.7174 0.649101 22.7615 0.634282 22.8029C0.619463 22.8443 0.59565 22.8818 0.564561 22.9129C0.533472 22.944 0.495881 22.9678 0.454486 22.9826C0.413092 22.9974 0.368934 23.0029 0.325177 22.9986Z" fill="#CF7653"/>
</svg>
