<svg width="31" height="15" viewBox="0 0 31 15" fill="none" xmlns="http://www.w3.org/2000/svg">
<path d="M24.9594 14.5596H6.04069C4.4386 14.5596 2.90213 13.9232 1.76928 12.7904C0.636429 11.6575 0 10.121 0 8.51893V6.04069C0 4.4386 0.636429 2.90213 1.76928 1.76928C2.90213 0.636429 4.4386 0 6.04069 0H24.9594C26.5615 0 28.0979 0.636429 29.2308 1.76928C30.3636 2.90213 31.0001 4.4386 31.0001 6.04069V8.51893C30.9971 10.1201 30.3598 11.6549 29.2275 12.7871C28.0953 13.9193 26.5606 14.5567 24.9594 14.5596Z" fill="url(#paint0_linear_1_2605)"/>
<defs>
<linearGradient id="paint0_linear_1_2605" x1="13.578" y1="7.27981" x2="44.5781" y2="7.27981" gradientUnits="userSpaceOnUse">
<stop stop-color="#E8BF89" stop-opacity="0"/>
<stop offset="1" stop-color="#BD9167" stop-opacity="0.702"/>
</linearGradient>
</defs>
</svg>
