<svg width="40" height="41" viewBox="0 0 40 41" fill="none" xmlns="http://www.w3.org/2000/svg">
<path d="M15.0865 41C15.0865 41 9.25033 39.7848 7.79129 32.0882C6.33224 24.3917 9.08821 20.2599 16.7887 15.3989C24.4892 10.619 28.5421 11.5912 32.1898 12.8874C36.0805 14.2647 38.7555 16.9382 39.566 20.2599C40.1334 22.4473 39.566 23.3385 39.566 23.3385C39.1533 22.5188 38.6356 21.7562 38.0259 21.0701C37.5396 20.584 35.1078 20.746 31.3792 20.746C28.5421 20.746 25.7051 20.5029 24.4892 21.6372C23.5165 22.6094 23.6787 23.9056 23.5165 26.4171C23.3544 28.9286 23.5165 31.6021 21.6522 32.3313C20.031 32.9794 19.3826 32.2503 19.0584 31.9262C18.3912 31.2408 17.6877 30.5917 16.9508 29.9818L15.0865 41ZM7.06176 20.908C6.64477 21.1341 6.16501 21.2169 5.69633 21.1437C5.22764 21.0705 4.79602 20.8454 4.4679 20.5029C3.08991 19.2067 4.30579 17.3433 4.30579 17.3433C4.30579 17.3433 1.30663 18.7206 0.333936 15.723C0.174405 15.3641 0.0946377 14.975 0.100135 14.5823C0.105632 14.1897 0.196271 13.8029 0.365785 13.4486C0.535299 13.0944 0.779662 12.7811 1.08203 12.5303C1.3844 12.2796 1.73759 12.0974 2.11722 11.9963C2.11722 11.9963 -1.1251 10.457 0.414999 7.70241C1.87404 5.10989 4.95425 6.56818 4.95425 6.56818C4.95425 6.56818 2.60357 3.81363 5.52166 1.86925C8.19657 0.0868953 9.89879 3.08449 9.89879 3.08449C9.89879 3.08449 9.97985 -0.156152 12.979 0.00587981C13.3676 0.011057 13.7513 0.0927137 14.1083 0.246186C14.4653 0.399659 14.7885 0.621938 15.0595 0.900319C15.3305 1.1787 15.544 1.50773 15.6877 1.8686C15.8314 2.22947 15.9026 2.61511 15.8971 3.00348C15.8971 3.00348 18.0857 1.30214 19.95 2.92246C20.4932 3.37505 20.8628 4.00177 20.9958 4.69599C21.1288 5.39022 21.017 6.10906 20.6795 6.73021C21.1176 6.43131 21.6517 6.30711 22.1767 6.38209C22.7018 6.45705 23.1798 6.72576 23.5165 7.13529C23.8163 7.47195 24.0136 7.88712 24.0854 8.33201C24.1572 8.7769 24.1005 9.23302 23.9218 9.64679L7.06176 20.908Z" fill="#4F211E"/>
</svg>
