<svg width="11" height="3" viewBox="0 0 11 3" fill="none" xmlns="http://www.w3.org/2000/svg">
<path d="M10.523 2.69863C10.6187 2.70879 10.7149 2.68474 10.7945 2.63074C10.8954 2.55316 10.9648 2.44161 10.9898 2.31677C11.0147 2.19194 10.9936 2.06229 10.9303 1.95185C10.5111 1.41283 9.95926 0.991841 9.32867 0.730047C8.69808 0.468253 8.01036 0.37462 7.33275 0.458305C7.26448 0.460813 7.1974 0.477001 7.1355 0.50591C7.0736 0.534819 7.01814 0.575859 6.97239 0.626602C6.92664 0.677345 6.89154 0.736758 6.86917 0.801317C6.8468 0.865876 6.83762 0.934268 6.84216 1.00244C6.8467 1.07062 6.86488 1.13718 6.89562 1.1982C6.92636 1.25922 6.96905 1.31345 7.02112 1.35767C7.0732 1.40189 7.13362 1.4352 7.19881 1.45564C7.26399 1.47607 7.33262 1.48321 7.40062 1.47663C7.89896 1.39896 8.40906 1.45911 8.87568 1.65057C9.34229 1.84203 9.74766 2.15751 10.0479 2.56285C10.1921 2.64793 10.3556 2.69467 10.523 2.69863ZM0.47705 1.27297C0.57273 1.28313 0.668913 1.25908 0.748559 1.20508C0.964988 1.08822 1.20267 1.01599 1.44752 0.992663C1.69236 0.96934 1.93941 0.995397 2.174 1.0693C2.30002 1.10531 2.43518 1.08978 2.54975 1.02612C2.66432 0.962465 2.7489 0.855892 2.7849 0.729856C2.82091 0.603819 2.80538 0.468642 2.74173 0.354057C2.67808 0.239473 2.57153 0.154872 2.44551 0.118862C2.0736 0.00723463 1.68263 -0.0262649 1.29715 0.020467C0.911669 0.0671989 0.54002 0.193148 0.205542 0.390412C0.104622 0.467995 0.0352463 0.579544 0.0102828 0.704378C-0.0146797 0.829212 0.00645408 0.958863 0.069776 1.0693C0.120427 1.12895 0.182616 1.17775 0.252605 1.21275C0.322595 1.24775 0.398942 1.26823 0.47705 1.27297Z" fill="#7A3E2B"/>
</svg>
