<svg width="13" height="4" viewBox="0 0 13 4" fill="none" xmlns="http://www.w3.org/2000/svg">
<path d="M0.245581 3.15615C0.12507 3.06249 0.0422895 2.92863 0.0123513 2.77902C-0.0175868 2.6294 0.00731742 2.47402 0.082518 2.34124C0.586007 1.69422 1.24889 1.18888 2.00633 0.874634C2.76377 0.560388 3.58983 0.447995 4.40375 0.548447C4.48576 0.551457 4.56631 0.570888 4.64066 0.605589C4.71502 0.640291 4.78165 0.68956 4.8366 0.750469C4.89155 0.811379 4.9337 0.882689 4.96057 0.960183C4.98744 1.03768 4.99847 1.11978 4.99302 1.20161C4.98756 1.28344 4.96572 1.36335 4.9288 1.43659C4.89187 1.50983 4.84062 1.57492 4.77806 1.628C4.71551 1.68108 4.64293 1.72107 4.56463 1.7456C4.48632 1.77013 4.40389 1.7787 4.32222 1.7708C3.72442 1.69138 3.11624 1.76997 2.55831 1.99875C2.00038 2.22752 1.51219 2.59849 1.14245 3.07466C1.01288 3.16485 0.862059 3.21979 0.704812 3.23407C0.547565 3.24836 0.389298 3.22151 0.245581 3.15615ZM12.394 1.68932C12.279 1.70151 12.1635 1.67264 12.0678 1.60783C11.6831 1.3533 11.2226 1.23826 10.7633 1.28186C10.6823 1.29971 10.5986 1.30123 10.517 1.28635C10.4354 1.27146 10.3576 1.24045 10.2881 1.19515C10.2187 1.14985 10.159 1.09115 10.1125 1.0225C10.066 0.953855 10.0337 0.876625 10.0174 0.795339C10.0011 0.714054 10.0013 0.630345 10.0177 0.549106C10.0342 0.467866 10.0668 0.390733 10.1135 0.322214C10.1601 0.253695 10.22 0.195167 10.2896 0.150059C10.3592 0.104951 10.4371 0.0741648 10.5187 0.0595047C10.9175 -0.0261395 11.3307 -0.0192518 11.7265 0.0796361C12.1222 0.178524 12.49 0.366784 12.8016 0.629942C12.9124 0.732386 12.9819 0.871821 12.9969 1.02195C13.012 1.17207 12.9715 1.3225 12.8831 1.44485C12.8279 1.52258 12.7544 1.58554 12.6691 1.62818C12.5838 1.67081 12.4893 1.69181 12.394 1.68932Z" fill="#7A3E2B"/>
</svg>
