<svg width="7" height="5" viewBox="0 0 7 5" fill="none" xmlns="http://www.w3.org/2000/svg">
<path d="M4.46742 4.24299C3.98312 4.24299 3.57952 4.16232 3.33737 4.16232C2.17056 4.0307 1.10017 3.4524 0.350859 2.54882C0.207418 2.38559 0.103634 2.19146 0.0476292 1.98155C-0.00837593 1.77163 -0.0150828 1.55163 0.0279969 1.33869C0.114631 0.946674 0.344994 0.601297 0.673722 0.370592C1.50599 -0.0188588 2.44848 -0.104499 3.33737 0.128564C3.49618 0.16931 3.65822 0.1963 3.82167 0.209238C5.11314 0.451263 6.3239 0.773967 6.80821 1.58072C6.98421 1.8708 7.04198 2.21736 6.96962 2.54882C6.72747 4.00097 5.51674 4.24299 4.46742 4.24299ZM2.28806 0.773967C1.89717 0.760235 1.50896 0.843377 1.15803 1.01599C1.07431 1.07071 1.00254 1.14181 0.947047 1.225C0.891558 1.30819 0.853504 1.40175 0.835165 1.50004C0.818337 1.61294 0.82392 1.72805 0.85162 1.83879C0.879319 1.94953 0.928578 2.05374 0.996584 2.14544C1.63272 2.8393 2.48719 3.29478 3.41809 3.43624C5.59744 3.75894 6.08174 3.03287 6.16246 2.38747C6.16246 2.22612 6.16248 2.14544 6.08176 2.06477C5.75889 1.50004 3.59567 0.83044 2.28806 0.773967Z" fill="#CC7A5E"/>
</svg>
