<svg width="53" height="25" viewBox="0 0 53 25" fill="none" xmlns="http://www.w3.org/2000/svg">
<path d="M3.68342 24.7383L51.5897 19.655C51.7974 19.6415 52.0002 19.5852 52.1851 19.4896C52.3701 19.394 52.5332 19.2611 52.6642 19.0993C52.7952 18.9376 52.8912 18.7505 52.9463 18.5498C53.0014 18.3491 53.0143 18.1391 52.9842 17.9332C52.7381 15.9655 52.1639 12.6859 50.7693 10.4722C48.9647 7.68463 28.7029 1.78144 22.9608 0.0596841C22.5396 -0.0393991 22.0987 -0.0147123 21.6912 0.130744C21.2837 0.276199 20.927 0.536227 20.6639 0.87957C19.4023 2.89377 17.7254 4.61582 15.7449 5.9307C13.7645 7.24557 11.5262 8.12305 9.17952 8.50452C3.92953 9.4064 3.43735 6.20884 1.96079 5.55293C1.81164 5.47736 1.64809 5.43446 1.48104 5.42705C1.31399 5.41964 1.14728 5.4479 0.992025 5.50997C0.836772 5.57204 0.696548 5.66649 0.580693 5.787C0.464837 5.90751 0.376024 6.0513 0.320164 6.20883C-0.172023 8.50451 -0.336105 15.7195 1.63264 23.4264C1.81213 23.819 2.10105 24.1515 2.46477 24.3842C2.82849 24.6169 3.25159 24.7398 3.68342 24.7383Z" fill="url(#paint0_linear_1_3417)"/>
<defs>
<linearGradient id="paint0_linear_1_3417" x1="27.03" y1="21.0523" x2="26.5327" y2="-2.26445" gradientUnits="userSpaceOnUse">
<stop stop-color="#BBE0F0"/>
<stop offset="1" stop-color="#E0EBF0"/>
</linearGradient>
</defs>
</svg>
