<svg width="118" height="241" viewBox="0 0 118 241" fill="none" xmlns="http://www.w3.org/2000/svg">
<path d="M64.2415 10.2175C66.1686 8.19478 68.2993 6.37635 70.5997 4.79111C80.0823 -0.690137 92.2287 -1.05191 99.6284 1.61198C125.029 10.7766 119.602 37.1305 109.319 48.3122C99.0145 59.494 90.0253 70.1495 93.5333 82.3727C97.0413 94.5959 110.251 94.3437 108.157 113.693C106.063 133.041 92.8755 140.88 75.5986 152.774C58.3327 164.69 56.9075 183.469 54.6602 196.514C52.4129 209.56 51.9196 241 51.9196 241L15.283 235.606C15.283 235.606 23.3514 180.465 14.3292 166.576C5.3071 152.686 -8.06716 130.838 6.37045 114.361C20.8409 97.8298 14.9212 88.0513 14.6471 78.4591C14.2963 66.4661 18.1552 53.333 33.6123 48.1259C44.52 44.4534 51.6237 36.5056 55.9539 25.5212C55.9429 25.5431 60.2292 14.4491 64.2196 10.2285L64.2415 10.2175Z" fill="#CEE4D0"/>
</svg>
