<svg width="62" height="220" viewBox="0 0 62 220" fill="none" xmlns="http://www.w3.org/2000/svg">
<path d="M0.556275 219.16C0.413078 219.16 0.27561 219.104 0.173337 219.004C0.0710639 218.904 0.0121419 218.767 0.00927794 218.624C-0.001662 218.033 -0.833068 158.345 16.2442 98.4488C29.2627 52.8073 60.6604 0.776939 60.9667 0.262761C61.0458 0.139105 61.1696 0.0507507 61.3122 0.0161047C61.4549 -0.0185412 61.6054 0.0031784 61.7324 0.0767672C61.795 0.114802 61.8494 0.164781 61.8926 0.223866C61.9358 0.282952 61.967 0.349986 61.9842 0.421111C62.0015 0.492236 62.0046 0.566071 61.9933 0.638388C61.982 0.710705 61.9566 0.780097 61.9185 0.842577C61.5903 1.35675 30.302 53.2449 17.3053 98.7551C0.271835 158.487 1.09234 218.022 1.11422 218.613C1.11682 218.686 1.10447 218.758 1.0779 218.826C1.05133 218.893 1.0111 218.954 0.959779 219.006C0.908458 219.057 0.847103 219.097 0.779561 219.124C0.71202 219.15 0.639759 219.163 0.567226 219.16H0.556275Z" fill="white"/>
</svg>
