<svg width="9" height="10" viewBox="0 0 9 10" fill="none" xmlns="http://www.w3.org/2000/svg">
<path d="M7.54567 8.19556C7.17987 8.58962 6.73545 8.90263 6.24111 9.11438C5.74678 9.32613 5.21351 9.43191 4.67573 9.4249C3.58146 9.33985 2.55955 8.84534 1.81414 8.04012C1.06872 7.23491 0.654656 6.17827 0.654656 5.08125C0.654656 3.98424 1.06872 2.9276 1.81414 2.12239C2.55955 1.31717 3.58146 0.822651 4.67573 0.737602C5.43999 0.754071 6.18408 0.985874 6.82235 1.40634C7.46063 1.8268 7.96715 2.41884 8.28364 3.11432C8.35327 3.137 8.42758 3.14136 8.49939 3.12701C8.5712 3.11266 8.63809 3.08006 8.69363 3.03236C8.76525 2.97473 8.81878 2.89773 8.84786 2.81055C8.87693 2.72337 8.88033 2.62968 8.85764 2.54062C8.45866 1.79377 7.86939 1.16549 7.14945 0.719363C6.42951 0.273232 5.60445 0.0250753 4.75774 0C4.11657 0.0146537 3.48462 0.155764 2.89818 0.415224C2.31174 0.674685 1.78235 1.04739 1.34043 1.51192C0.898518 1.97645 0.552768 2.52367 0.323053 3.12214C0.093338 3.72061 -0.0158169 4.35854 0.00184744 4.99929C-0.0203841 6.28966 0.465816 7.53704 1.35555 8.47231C2.24528 9.40758 3.46722 9.95576 4.75774 9.99859C5.8014 10.0252 6.81989 9.67617 7.62767 9.01512L7.54567 8.19556Z" fill="#B76349"/>
</svg>
