<svg width="10" height="8" viewBox="0 0 10 8" fill="none" xmlns="http://www.w3.org/2000/svg">
<path d="M0.926982 2.07134L4.51287 2.5233C4.63802 2.83483 5.26858 4.36825 5.38713 4.64265C5.38713 4.64265 5.38713 4.64265 5.38547 4.64265C4.34658 5.14626 3.3077 5.64826 2.26881 6.15187C2.62937 6.0873 2.99488 6.05502 3.36203 6.05502C3.84278 6.05502 4.31366 6.11151 4.76313 6.22289C5.6703 6.44887 6.49022 6.81042 7.28214 7.1607C7.98845 7.47223 8.6569 7.76763 9.32369 7.93711C9.41754 7.96132 9.50809 7.98231 9.59865 8.00005C8.80837 6.41336 6.68285 2.13752 6.26301 1.19648C6.06544 0.752596 5.79378 0.587955 5.40854 0.539531L1.19701 0.00848114C0.615826 -0.0641548 0.0840343 0.337764 0.00829929 0.907553C-0.0641594 1.47734 0.345798 1.99871 0.926982 2.07134Z" fill="#F77D39"/>
</svg>
