<svg width="16" height="16" viewBox="0 0 16 16" fill="none" xmlns="http://www.w3.org/2000/svg">
<path d="M7.99999 0C6.41774 0 4.87103 0.469191 3.55544 1.34824C2.23984 2.22729 1.21447 3.47672 0.608966 4.93852C0.00346627 6.40033 -0.15496 8.00886 0.153721 9.56071C0.462402 11.1126 1.22433 12.538 2.34315 13.6568C3.46196 14.7757 4.88743 15.5376 6.43927 15.8463C7.99112 16.1549 9.59965 15.9965 11.0615 15.391C12.5233 14.7855 13.7727 13.7601 14.6517 12.4445C15.5308 11.129 16 9.58223 16 7.99999C16 6.94941 15.7931 5.90913 15.391 4.93852C14.989 3.96792 14.3997 3.08601 13.6568 2.34314C12.914 1.60027 12.0321 1.011 11.0615 0.608963C10.0909 0.206926 9.05056 0 7.99999 0ZM7.99999 14.4C6.73419 14.4 5.49682 14.0246 4.44435 13.3214C3.39187 12.6181 2.57157 11.6186 2.08717 10.4492C1.60277 9.27971 1.47603 7.99289 1.72298 6.75141C1.96992 5.50993 2.57946 4.36957 3.47451 3.47451C4.36957 2.57946 5.50994 1.96992 6.75141 1.72297C7.99289 1.47603 9.27972 1.60277 10.4492 2.08717C11.6186 2.57157 12.6181 3.39187 13.3214 4.44434C14.0246 5.49682 14.4 6.73419 14.4 7.99999C14.4 9.69737 13.7257 11.3252 12.5255 12.5255C11.3252 13.7257 9.69737 14.4 7.99999 14.4Z" fill="#12BEF6"/>
</svg>
