<svg width="9" height="10" viewBox="0 0 9 10" fill="none" xmlns="http://www.w3.org/2000/svg">
<path d="M4.64058 5.27806L3.17207 4.34444C3.82697 3.89579 3.58413 4.06195 4.23906 3.61326L4.21844 3.84163C4.1831 4.23027 4.44477 4.58593 4.77421 4.65901C4.78209 4.66078 7.35215 5.13892 7.44588 5.13892C7.77974 5.13892 8.07451 4.87488 8.13094 4.50232C8.19398 4.08754 7.93784 3.6956 7.55889 3.62697L5.66683 3.28292L5.7568 2.29462C5.84749 1.66308 5.88687 1.46505 5.67145 1.08828L5.40061 0.614347C5.05072 0.00269632 4.31295 -0.184332 3.7528 0.199533L0.788599 2.23093C0.0605653 2.72987 -0.294477 3.78189 0.299895 4.55578C0.5321 4.85819 2.78975 6.37675 2.78975 6.37675L0.961306 8.45274C0.641301 8.81577 0.650818 9.39412 0.982762 9.74409C1.14467 9.915 1.35331 10 1.56191 10C1.78062 10 1.99902 9.90672 2.16254 9.72054L4.82199 6.70173C5.19718 6.27681 5.10919 5.57597 4.64058 5.27806Z" fill="#F77D39"/>
</svg>
