<svg width="14" height="13" viewBox="0 0 14 13" fill="none" xmlns="http://www.w3.org/2000/svg">
<path d="M3.9471 11.6412C3.62013 11.9164 3.216 12.0868 2.77255 12.0868C1.70389 12.0868 0.83429 11.1349 0.83429 9.96521C0.83429 8.79525 1.70389 7.84339 2.77255 7.84339C3.5791 7.84339 4.27083 8.38621 4.56248 9.15489L5.16944 8.46587C4.69147 7.55271 3.8029 6.93023 2.77255 6.93023C1.24107 6.93023 0 8.28897 0 9.96521C0 11.6412 1.24107 12.9999 2.77255 12.9999C3.49307 12.9999 4.14318 12.6917 4.63635 12.1982C4.44708 12.1287 4.26755 12.0184 4.11414 11.8567C4.05084 11.7898 3.99623 11.7167 3.9471 11.6412Z" fill="#F77D39"/>
<path d="M8.15707 6.95351L6.68895 6.02013C7.34368 5.57159 7.1009 5.73771 7.75566 5.28914L7.73504 5.51745C7.69971 5.90599 7.96132 6.26156 8.29067 6.33461C8.29854 6.33638 10.8679 6.8144 10.9616 6.8144C11.2954 6.8144 11.5901 6.55043 11.6465 6.17797C11.7095 5.76329 11.4535 5.37146 11.0746 5.30285L9.18305 4.95888L9.273 3.97084C9.36367 3.33947 9.40304 3.14149 9.18767 2.76482L8.91691 2.29101C8.56711 1.67952 7.82953 1.49254 7.26953 1.8763L4.3061 3.90717C3.57826 4.40598 3.22331 5.45773 3.81752 6.23141C4.04967 6.53374 6.30673 8.0519 6.30673 8.0519L4.47876 10.1273C4.15884 10.4903 4.16836 11.0685 4.50021 11.4184C4.66208 11.5892 4.87066 11.6743 5.07921 11.6743C5.29786 11.6743 5.51621 11.5809 5.67969 11.3948L8.33844 8.3768C8.71353 7.95199 8.62556 7.25133 8.15707 6.95351Z" fill="#F77D39"/>
<path d="M11.0445 6.93023C9.49704 6.93023 8.27191 8.32765 8.27191 9.96521C8.27191 11.6412 9.51304 12.9999 11.0445 12.9999C12.5756 12.9999 13.817 11.6412 13.817 9.96521C13.817 8.28897 12.5756 6.93023 11.0445 6.93023ZM11.0445 12.0868C9.9758 12.0868 9.1062 11.1349 9.1062 9.96521C9.1062 8.79525 9.97583 7.84339 11.0445 7.84339C12.1132 7.84339 12.9828 8.79525 12.9828 9.96521C12.9828 11.1349 12.1132 12.0868 11.0445 12.0868Z" fill="#F77D39"/>
<path d="M11.2716 2.80786C11.9215 2.36227 12.1184 1.42469 11.7115 0.713649C11.3048 0.00199815 10.4482 -0.213516 9.79833 0.231795C9.1487 0.677106 8.9518 1.61435 9.35839 2.32539C9.76514 3.03708 10.6217 3.25289 11.2716 2.80786Z" fill="#F77D39"/>
</svg>
