<svg width="6" height="7" viewBox="0 0 6 7" fill="none" xmlns="http://www.w3.org/2000/svg">
<path d="M4.55201 5.43296C4.17494 5.75038 3.70887 5.9468 3.19746 5.9468C1.96502 5.9468 0.96215 4.8491 0.96215 3.50011C0.96215 2.15084 1.96502 1.0531 3.19746 1.0531C4.12762 1.0531 4.92536 1.67911 5.26171 2.56561L5.96169 1.77099C5.41046 0.717884 4.38571 0 3.19746 0C1.43127 0 0 1.56698 0 3.50011C0 5.43296 1.43127 6.99994 3.19746 6.99994C4.02841 6.99994 4.77815 6.64446 5.3469 6.07538C5.12862 5.9952 4.92157 5.86799 4.74465 5.68151C4.67166 5.60431 4.60867 5.51999 4.55201 5.43296Z" fill="#F77D39"/>
</svg>
